<svg width="403" height="132" viewBox="0 0 403 132" fill="none" xmlns="http://www.w3.org/2000/svg">
<path d="M218.942 30.0099H222.558C222.589 31.3454 223.586 32.1839 225.331 32.1839C227.108 32.1839 228.074 31.4696 228.074 30.3515C228.074 29.5751 227.669 29.0161 226.298 28.7055L223.524 28.0533C220.75 27.4322 219.41 26.1278 219.41 23.6742C219.41 20.6617 221.965 18.8604 225.518 18.8604C228.978 18.8604 231.315 20.848 231.346 23.8295H227.731C227.7 22.5251 226.827 21.6866 225.363 21.6866C223.867 21.6866 222.994 22.3698 222.994 23.519C222.994 24.3886 223.68 24.9476 224.989 25.2582L227.762 25.9104C230.349 26.5005 231.658 27.6806 231.658 30.041C231.658 33.1467 229.009 35.0722 225.207 35.0722C221.373 35.0722 218.942 33.0225 218.942 30.0099Z" fill="#1E16ED"/>
<path d="M249.139 34.6685H245.337V22.4941H242.376V19.3262H245.337V14.5434H249.139V19.3262H252.131V22.4941H249.139V34.6685Z" fill="#1E16ED"/>
<path d="M273.506 19.2641V22.7736H272.104C269.361 22.7736 267.647 24.2333 267.647 27.2148V34.6685H263.845V19.3573H267.429L267.647 21.5934C268.301 20.0716 269.766 19.0467 271.823 19.0467C272.353 19.0467 272.883 19.1088 273.506 19.2641Z" fill="#1E16ED"/>
<path d="M289.402 35.0722C286.13 35.0722 284.135 33.1778 284.135 30.2894C284.135 27.4632 286.192 25.693 289.839 25.4135L294.451 25.0718V24.7302C294.451 22.6494 293.205 21.8108 291.272 21.8108C289.028 21.8108 287.782 22.7425 287.782 24.3575H284.54C284.54 21.0344 287.283 18.8604 291.459 18.8604C295.604 18.8604 298.16 21.0965 298.16 25.3513V34.6685H294.825L294.545 32.4013C293.89 33.9852 291.802 35.0722 289.402 35.0722ZM290.649 32.215C292.986 32.215 294.482 30.8174 294.482 28.4571V27.6496L291.272 27.898C288.904 28.1154 288 28.8919 288 30.1341C288 31.5317 288.935 32.215 290.649 32.215Z" fill="#1E16ED"/>
<path d="M313.146 16.2516C311.837 16.2516 310.809 15.2267 310.809 13.9533C310.809 12.68 311.837 11.6862 313.146 11.6862C314.393 11.6862 315.421 12.68 315.421 13.9533C315.421 15.2267 314.393 16.2516 313.146 16.2516ZM311.245 34.6685V19.3262H315.047V34.6685H311.245Z" fill="#1E16ED"/>
<path d="M327.453 26.6557C327.453 22.1835 330.383 18.8293 334.777 18.8293C337.083 18.8293 338.891 19.7921 339.795 21.4381L340.013 19.3262H343.535V33.8921C343.535 39.0165 340.449 42.2154 335.463 42.2154C331.037 42.2154 328.014 39.6998 327.546 35.6002H331.349C331.598 37.5879 333.125 38.768 335.463 38.768C338.081 38.768 339.764 37.122 339.764 34.5753V32.0286C338.797 33.4573 336.896 34.3579 334.684 34.3579C330.32 34.3579 327.453 31.0969 327.453 26.6557ZM331.286 26.5626C331.286 29.1403 332.938 31.0659 335.431 31.0659C338.049 31.0659 339.67 29.2335 339.67 26.5626C339.67 23.9538 338.081 22.1524 335.431 22.1524C332.907 22.1524 331.286 24.0469 331.286 26.5626Z" fill="#1E16ED"/>
<path d="M360.622 34.6685H356.82V11.5619H360.653V21.3139C361.619 19.8232 363.427 18.8604 365.64 18.8604C369.442 18.8604 371.436 21.2518 371.436 25.2271V34.6685H367.634V26.1278C367.634 23.55 366.356 22.3077 364.424 22.3077C362.024 22.3077 360.622 23.9848 360.622 26.2831V34.6685Z" fill="#1E16ED"/>
<path d="M389.758 34.6685H385.956V22.4941H382.995V19.3262H385.956V14.5434H389.758V19.3262H392.75V22.4941H389.758V34.6685Z" fill="#1E16ED"/>
<path d="M218.6 61.2173H220.812V59.3539C220.812 55.1922 223.025 53.453 226.36 53.453C226.952 53.453 227.669 53.4841 228.323 53.6083V56.8383H226.983C225.051 56.8383 224.583 57.8321 224.583 59.3539V61.2173H228.261V64.3852H224.583V76.5596H220.812V64.3852H218.6V61.2173Z" fill="#1E16ED"/>
<path d="M238.677 68.8574C238.677 64.0746 242.137 60.7825 246.905 60.7825C251.674 60.7825 255.133 64.0746 255.133 68.8574C255.133 73.6402 251.674 76.9323 246.905 76.9323C242.137 76.9323 238.677 73.6402 238.677 68.8574ZM242.48 68.8574C242.48 71.6526 244.287 73.5471 246.905 73.5471C249.523 73.5471 251.331 71.6526 251.331 68.8574C251.331 66.0623 249.523 64.1678 246.905 64.1678C244.287 64.1678 242.48 66.0623 242.48 68.8574Z" fill="#1E16ED"/>
<path d="M277.158 61.1552V64.6647H275.756C273.013 64.6647 271.299 66.1244 271.299 69.1059V76.5596H267.497V61.2484H271.081L271.299 63.4845C271.954 61.9627 273.418 60.9378 275.475 60.9378C276.005 60.9378 276.535 60.9999 277.158 61.1552Z" fill="#1E16ED"/>
<path d="M292.935 76.5596L287.949 61.2173H291.907L293.933 67.8015C294.276 69.0127 294.587 70.3482 294.868 71.7768C295.148 70.286 295.429 69.3233 295.927 67.8015L298.047 61.2173H301.911L303.968 67.8015C304.155 68.4226 304.779 70.7208 304.966 71.7457C305.215 70.5966 305.714 68.7642 305.994 67.8015L308.051 61.2173H312.072L306.742 76.5596H303.189L301.07 69.9134C300.447 67.8946 300.104 66.435 299.979 65.6585C299.823 66.3728 299.543 67.4598 298.764 69.9755L296.644 76.5596H292.935Z" fill="#1E16ED"/>
<path d="M327.544 76.9633C324.272 76.9633 322.277 75.0689 322.277 72.1805C322.277 69.3543 324.334 67.5841 327.981 67.3046L332.593 66.9629V66.6213C332.593 64.5405 331.347 63.7019 329.414 63.7019C327.17 63.7019 325.924 64.6336 325.924 66.2486H322.682C322.682 62.9255 325.425 60.7515 329.601 60.7515C333.746 60.7515 336.302 62.9876 336.302 67.2424V76.5596H332.967L332.687 74.2924C332.032 75.8763 329.944 76.9633 327.544 76.9633ZM328.791 74.1061C331.128 74.1061 332.624 72.7085 332.624 70.3482V69.5407L329.414 69.7891C327.046 70.0065 326.142 70.783 326.142 72.0252C326.142 73.4228 327.077 74.1061 328.791 74.1061Z" fill="#1E16ED"/>
<path d="M359.049 61.1552V64.6647H357.646C354.904 64.6647 353.189 66.1244 353.189 69.1059V76.5596H349.387V61.2484H352.971L353.189 63.4845C353.844 61.9627 355.309 60.9378 357.366 60.9378C357.895 60.9378 358.425 60.9999 359.049 61.1552Z" fill="#1E16ED"/>
<path d="M376.781 76.9633C372.325 76.9633 369.551 73.7023 369.551 68.9506C369.551 64.1678 372.356 60.7515 377 60.7515C379.15 60.7515 381.051 61.6521 382.017 63.1739V53.453H385.788V76.5596H382.298L382.049 74.1682C381.114 75.9385 379.119 76.9633 376.781 76.9633ZM377.623 73.4849C380.272 73.4849 381.986 71.5904 381.986 68.8264C381.986 66.0623 380.272 64.1367 377.623 64.1367C374.974 64.1367 373.353 66.0933 373.353 68.8264C373.353 71.5594 374.974 73.4849 377.623 73.4849Z" fill="#1E16ED"/>
<path d="M222.028 100.034C220.75 100.034 219.722 99.0089 219.722 97.7355C219.722 96.4622 220.75 95.4684 222.028 95.4684C223.274 95.4684 224.334 96.4622 224.334 97.7355C224.334 99.0089 223.274 100.034 222.028 100.034ZM216.449 125.656L217.072 122.302C217.602 122.457 217.914 122.488 218.381 122.488C219.69 122.488 220.127 121.743 220.127 120.19V103.108H223.929V120.625C223.929 123.886 222.059 125.998 218.724 125.998C218.007 125.998 217.446 125.935 216.449 125.656Z" fill="#1E16ED"/>
<path d="M236.303 110.749C236.303 105.966 239.763 102.674 244.531 102.674C249.3 102.674 252.759 105.966 252.759 110.749C252.759 115.531 249.3 118.823 244.531 118.823C239.763 118.823 236.303 115.531 236.303 110.749ZM240.106 110.749C240.106 113.544 241.913 115.438 244.531 115.438C247.149 115.438 248.957 113.544 248.957 110.749C248.957 107.953 247.149 106.059 244.531 106.059C241.913 106.059 240.106 107.953 240.106 110.749Z" fill="#1E16ED"/>
<path d="M268.645 118.451H265.123V95.3441H268.925V105.345C269.922 103.636 271.979 102.612 274.317 102.612C278.711 102.612 281.392 106.028 281.392 110.873C281.392 115.593 278.493 118.854 274.068 118.854C271.761 118.854 269.798 117.83 268.894 116.059L268.645 118.451ZM268.956 110.717C268.956 113.482 270.67 115.376 273.288 115.376C275.969 115.376 277.558 113.45 277.558 110.717C277.558 107.984 275.969 106.028 273.288 106.028C270.67 106.028 268.956 107.953 268.956 110.717Z" fill="#1E16ED"/>
<path d="M310.335 113.792H313.95C313.981 115.128 314.978 115.966 316.724 115.966C318.5 115.966 319.466 115.252 319.466 114.134C319.466 113.357 319.061 112.798 317.69 112.488L314.916 111.836C312.142 111.214 310.802 109.91 310.802 107.456C310.802 104.444 313.358 102.643 316.911 102.643C320.37 102.643 322.708 104.63 322.739 107.612H319.124C319.092 106.307 318.22 105.469 316.755 105.469C315.259 105.469 314.386 106.152 314.386 107.301C314.386 108.171 315.072 108.73 316.381 109.04L319.155 109.693C321.742 110.283 323.051 111.463 323.051 113.823C323.051 116.929 320.401 118.854 316.599 118.854C312.766 118.854 310.335 116.805 310.335 113.792Z" fill="#1E16ED"/>
<path d="M337.197 100.034C335.888 100.034 334.859 99.0089 334.859 97.7355C334.859 96.4622 335.888 95.4684 337.197 95.4684C338.443 95.4684 339.472 96.4622 339.472 97.7355C339.472 99.0089 338.443 100.034 337.197 100.034ZM335.295 118.451V103.108H339.098V118.451H335.295Z" fill="#1E16ED"/>
<path d="M357.612 118.451H353.81V106.276H350.849V103.108H353.81V98.3256H357.612V103.108H360.604V106.276H357.612V118.451Z" fill="#1E16ED"/>
<path d="M379.053 118.854C374.472 118.854 371.261 115.531 371.261 110.78C371.261 105.966 374.409 102.643 378.928 102.643C383.541 102.643 386.471 105.717 386.471 110.5V111.649L374.877 111.68C375.157 114.382 376.591 115.749 379.115 115.749C381.203 115.749 382.575 114.941 383.011 113.482H386.533C385.878 116.836 383.073 118.854 379.053 118.854ZM378.959 105.748C376.715 105.748 375.344 106.96 374.97 109.258H382.699C382.699 107.146 381.235 105.748 378.959 105.748Z" fill="#1E16ED"/>
<path d="M400.476 118.823C399.104 118.823 397.951 117.705 397.951 116.37C397.951 115.003 399.104 113.885 400.476 113.885C401.847 113.885 403 115.003 403 116.37C403 117.705 401.847 118.823 400.476 118.823Z" fill="#1E16ED"/>
<path d="M171.25 3.03729C181.072 3.0373 189.151 10.9716 189.151 20.7591C189.151 30.5466 181.072 38.4809 171.25 38.4809C161.428 38.4809 153.349 30.5466 153.349 20.7591C153.349 10.9716 161.428 3.03729 171.25 3.03729Z" fill="#1E16ED"/>
<path d="M171.464 49.8804C181.232 49.8804 189.151 57.7718 189.151 67.5064C189.151 77.241 181.232 85.1324 171.464 85.1324H171.036C161.268 85.1324 153.349 77.2409 153.349 67.5064C153.349 57.7718 161.268 49.8804 171.036 49.8804H171.464Z" fill="#94B9FF"/>
<path d="M171.25 96.436C181.072 96.436 189.151 104.37 189.151 114.158C189.151 123.945 181.072 131.88 171.25 131.88C161.428 131.88 153.349 123.945 153.349 114.158C153.349 104.37 161.428 96.436 171.25 96.436Z" fill="#0800FF"/>
<path d="M71.5585 4.41632C81.3272 4.41632 89.2464 12.3078 89.2464 22.0423C89.2464 31.7769 81.3272 39.6684 71.5585 39.6684L71.1314 39.6684C61.3626 39.6683 53.4435 31.7769 53.4435 22.0423C53.4435 12.3077 61.3626 4.41632 71.1314 4.41632H71.5585Z" fill="#1E16ED"/>
<path d="M121.193 3.03729C131.015 3.0373 139.095 10.9716 139.095 20.7591C139.095 30.5466 131.015 38.4809 121.193 38.4809C111.371 38.4809 103.292 30.5466 103.292 20.7591C103.292 10.9716 111.371 3.03729 121.193 3.03729Z" fill="#1869FF"/>
<path d="M121.407 49.8803C131.175 49.8803 139.095 57.7718 139.095 67.5064C139.095 77.2409 131.175 85.1324 121.407 85.1324H120.98C111.211 85.1324 103.292 77.2409 103.292 67.5064C103.292 57.7718 111.211 49.8803 120.98 49.8803H121.407Z" fill="#94B9FF"/>
<path d="M121.193 96.436C131.015 96.436 139.095 104.37 139.095 114.158C139.095 123.945 131.015 131.88 121.193 131.88C111.371 131.88 103.292 123.945 103.292 114.158C103.292 104.37 111.371 96.436 121.193 96.436Z" fill="#4B89FC"/>
<path d="M21.288 50.972C31.1099 50.972 39.1895 58.9063 39.1895 68.6938C39.1895 78.4813 31.1099 86.4156 21.288 86.4156C11.4662 86.4156 3.38661 78.4813 3.38661 68.6938C3.38662 58.9063 11.4662 50.972 21.288 50.972Z" fill="#94B9FF"/>
<path d="M71.3449 50.972C81.1668 50.972 89.2464 58.9063 89.2464 68.6938C89.2464 78.4813 81.1668 86.4156 71.3449 86.4156C61.5231 86.4156 53.4435 78.4813 53.4435 68.6938C53.4435 58.9063 61.5231 50.972 71.3449 50.972Z" fill="#1B16A6"/>
<path d="M21.288 96.5564C31.1099 96.5564 39.1895 104.491 39.1895 114.278C39.1895 124.066 31.1099 132 21.288 132C11.4662 132 3.38661 124.066 3.38661 114.278C3.38662 104.491 11.4662 96.5564 21.288 96.5564Z" fill="#1869FF"/>
<path d="M71.3449 96.5564C81.1668 96.5564 89.2464 104.491 89.2464 114.278C89.2464 124.066 81.1668 132 71.3449 132C61.5231 132 53.4435 124.066 53.4435 114.278C53.4435 104.491 61.5231 96.5564 71.3449 96.5564Z" fill="#1B16A6"/>
<path d="M21.6694 4.41632C31.4381 4.41632 39.3572 12.3078 39.3572 22.0423C39.3572 31.7769 31.4381 39.6684 21.6693 39.6684L21.1584 39.6684C11.3896 39.6683 3.47053 31.7769 3.47053 22.0423C3.47053 12.3077 11.3897 4.41632 21.1584 4.41632H21.6694Z" fill="#4B89FC"/>
<path d="M167.863 0C177.685 4.27825e-07 185.765 7.93432 185.765 17.7218C185.765 27.5093 177.685 35.4436 167.863 35.4436C158.042 35.4436 149.962 27.5093 149.962 17.7218C149.962 7.93432 158.042 -4.27825e-07 167.863 0Z" fill="#1869FF"/>
<path d="M168.077 46.8431C177.846 46.8431 185.765 54.7345 185.765 64.4691C185.765 74.2037 177.846 82.0951 168.077 82.0951H167.65C157.881 82.0951 149.962 74.2037 149.962 64.4691C149.962 54.7345 157.881 46.8431 167.65 46.8431H168.077Z" fill="#1E16ED"/>
<path d="M167.863 93.3987C177.685 93.3987 185.765 101.333 185.765 111.121C185.765 120.908 177.685 128.842 167.863 128.842C158.042 128.842 149.962 120.908 149.962 111.121C149.962 101.333 158.042 93.3987 167.863 93.3987Z" fill="#94B9FF"/>
<path d="M68.1719 1.37902C77.9406 1.37902 85.8597 9.27046 85.8597 19.005C85.8597 28.7396 77.9406 36.6311 68.1719 36.6311H67.7448C57.976 36.6311 50.0569 28.7396 50.0569 19.005C50.0569 9.27046 57.976 1.37902 67.7448 1.37902H68.1719Z" fill="#94B9FF"/>
<path d="M117.807 0C127.628 4.27825e-07 135.708 7.93432 135.708 17.7218C135.708 27.5093 127.628 35.4436 117.807 35.4436C107.985 35.4436 99.9051 27.5093 99.9051 17.7218C99.9051 7.93432 107.985 -4.27825e-07 117.807 0Z" fill="#420FBB"/>
<path d="M118.02 46.843C127.789 46.843 135.708 54.7345 135.708 64.4691C135.708 74.2036 127.789 82.0951 118.02 82.0951H117.593C107.824 82.0951 99.9051 74.2036 99.9051 64.4691C99.9051 54.7345 107.824 46.843 117.593 46.843H118.02Z" fill="#1869FF"/>
<path d="M117.807 93.3987C127.628 93.3987 135.708 101.333 135.708 111.121C135.708 120.908 127.628 128.842 117.807 128.842C107.985 128.842 99.9051 120.908 99.9051 111.121C99.9051 101.333 107.985 93.3987 117.807 93.3987Z" fill="#0800FF"/>
<path d="M17.9014 47.9347C27.7233 47.9347 35.8028 55.869 35.8028 65.6565C35.8028 75.444 27.7232 83.3783 17.9014 83.3783C8.07959 83.3783 -4.29326e-07 75.444 0 65.6565C4.29326e-07 55.869 8.07959 47.9347 17.9014 47.9347Z" fill="#1E16ED"/>
<path d="M67.9583 47.9347C77.7802 47.9347 85.8597 55.869 85.8597 65.6565C85.8597 75.444 77.7802 83.3783 67.9583 83.3783C58.1365 83.3783 50.0569 75.444 50.0569 65.6565C50.0569 55.869 58.1365 47.9347 67.9583 47.9347Z" fill="#4B89FC"/>
<path d="M17.9014 93.5191C27.7233 93.5191 35.8028 101.453 35.8028 111.241C35.8028 121.028 27.7232 128.963 17.9014 128.963C8.07959 128.963 -4.29326e-07 121.028 0 111.241C4.29326e-07 101.453 8.07959 93.5191 17.9014 93.5191Z" fill="#1B16A6"/>
<path d="M67.9583 93.5191C77.7802 93.5191 85.8597 101.453 85.8597 111.241C85.8597 121.028 77.7802 128.963 67.9583 128.963C58.1365 128.963 50.0569 121.028 50.0569 111.241C50.0569 101.453 58.1365 93.5191 67.9583 93.5191Z" fill="#1E16ED"/>
<path d="M18.2827 1.37902C28.0515 1.37902 35.9706 9.27046 35.9706 19.005C35.9706 28.7396 28.0515 36.6311 18.2827 36.6311H17.7718C8.00304 36.6311 0.083919 28.7396 0.0839194 19.005C0.0839198 9.27046 8.00305 1.37902 17.7718 1.37902H18.2827Z" fill="#0800FF"/>
</svg>
