<svg width="4155" height="2812" viewBox="0 0 4155 2812" fill="none" xmlns="http://www.w3.org/2000/svg">
<g clip-path="url(#clip0_620_89)">
<path d="M454 2254C454 2248.62 416.935 2244.19 369.36 2243.64C368.807 2196.06 364.381 2159 359 2159C353.619 2159 349.193 2196.06 348.64 2243.64C301.065 2244.19 264 2248.62 264 2254C264 2259.38 301.065 2263.81 348.64 2264.36C349.193 2311.94 353.619 2349 359 2349C364.381 2349 368.807 2311.94 369.36 2264.36C416.935 2263.81 454 2259.38 454 2254Z" fill="#C1D8D3"/>
<path d="M4021 2548.5C4021 2544.73 3995.05 2541.64 3961.75 2541.25C3961.36 2507.95 3958.27 2482 3954.5 2482C3950.73 2482 3947.64 2507.95 3947.25 2541.25C3913.95 2541.64 3888 2544.73 3888 2548.5C3888 2552.27 3913.95 2555.36 3947.25 2555.75C3947.64 2589.05 3950.73 2615 3954.5 2615C3958.27 2615 3961.36 2589.05 3961.75 2555.75C3995.05 2555.36 4021 2552.27 4021 2548.5Z" fill="#E673A9"/>
<path d="M359 699H-529C-529 882.613 -438.846 1031.5 -327.665 1031.5H-529C-529 1215.11 -438.846 1364 -327.665 1364H-529C-529 1547.61 -438.846 1696.5 -327.665 1696.5H-529C-529 1880.11 -438.846 2029 -327.665 2029H157.423C268.605 2029 358.758 1880.11 358.758 1696.5H157.423C268.605 1696.5 358.758 1547.61 358.758 1364H157.423C268.605 1364 358.758 1215.11 358.758 1031.5H157.423C268.846 1031.9 359 882.613 359 699Z" fill="#F38143"/>
<path d="M1294 606.454C1294 598.429 1287.43 591.863 1279.4 591.863C1274.02 591.863 1202.69 594.781 1156.44 599.158C1200.86 585.479 1267.45 561.037 1272.47 558.94C1279.95 555.839 1283.42 547.357 1280.32 539.879C1277.21 532.401 1268.73 528.935 1261.25 532.036C1256.6 533.951 1199.95 560.216 1159.08 581.375C1194.29 551.644 1240.18 509.419 1243.83 505.862C1249.48 500.207 1249.48 490.905 1243.83 485.251C1238.17 479.596 1228.87 479.596 1223.21 485.251C1219.38 489.081 1171.3 541.247 1141.66 577.088C1163.37 536.049 1193.38 471.297 1195.48 466.281C1198.58 458.803 1195.02 450.321 1187.54 447.221C1180.06 444.12 1171.58 447.677 1168.48 455.155C1166.56 459.897 1144.48 519.906 1130.62 563.956C1134.45 517.9 1137.1 454.699 1137.1 449.592C1137.1 441.566 1130.53 435 1122.5 435C1114.47 435 1107.9 441.566 1107.9 449.592C1107.9 454.881 1110.73 522.916 1114.93 569.154C1101.15 524.831 1077.34 459.989 1075.25 455.064C1072.14 447.585 1063.66 444.12 1056.18 447.221C1048.7 450.321 1045.23 458.803 1048.34 466.281C1050.34 471.115 1078.62 532.036 1100.15 573.167C1070.41 537.599 1025.53 488.899 1021.88 485.251C1016.22 479.596 1006.92 479.596 1001.26 485.251C995.608 490.905 995.608 500.207 1001.26 505.862C1004.91 509.51 1052.53 553.376 1087.93 583.107C1046.78 561.676 987.307 534.133 982.472 532.218C974.992 529.118 966.508 532.674 963.406 540.153C960.305 547.631 963.863 556.112 971.343 559.213C976.269 561.311 1042.31 585.479 1086.74 599.158C1040.49 594.872 970.887 592.045 965.596 592.045C957.568 592.045 951 598.611 951 606.637C951 614.662 957.568 621.229 965.596 621.229C970.704 621.229 1033.37 618.675 1079.26 614.754C1035.29 628.707 976.086 650.504 971.434 652.419C963.954 655.52 960.487 664.001 963.589 671.479C966.69 678.958 975.174 682.423 982.655 679.323C987.672 677.225 1052.44 647.22 1093.49 625.424C1057.73 654.972 1005.19 703.399 1001.36 707.229C995.699 712.884 995.699 722.186 1001.36 727.84C1007.01 733.495 1016.32 733.495 1021.97 727.84C1025.53 724.284 1068.31 677.863 1098.05 642.569C1076.89 683.518 1050.52 740.426 1048.61 745.077C1045.51 752.555 1049.07 761.037 1056.55 764.138C1064.03 767.238 1072.51 763.682 1075.61 756.203C1077.62 751.279 1101.61 685.889 1115.29 641.566C1111.01 687.804 1108.09 758.027 1108.09 763.408C1108.09 771.434 1114.65 778 1122.68 778C1130.71 778 1137.28 771.434 1137.28 763.408C1137.28 758.21 1134.54 692.638 1130.53 646.491C1144.48 690.631 1166.83 751.37 1168.75 756.112C1171.85 763.591 1180.34 767.056 1187.82 763.955C1195.3 760.855 1198.76 752.373 1195.66 744.895C1193.65 740.061 1165.83 680.052 1144.3 639.013C1174.04 674.671 1219.56 724.01 1223.21 727.749C1228.87 733.404 1238.17 733.404 1243.83 727.749C1249.48 722.095 1249.48 712.793 1243.83 707.138C1240.09 703.399 1189.28 656.614 1153.52 626.883C1194.66 648.406 1256.51 677.043 1261.34 679.049C1268.82 682.15 1277.31 678.593 1280.41 671.115C1283.51 663.636 1279.95 655.155 1272.47 652.054C1267.73 650.139 1208.34 628.342 1164.28 614.389C1210.35 618.402 1274.2 620.955 1279.31 620.955C1287.52 621.046 1294 614.48 1294 606.454Z" fill="#D5CB2C"/>
<path d="M4742 2031.13C4742 1960.41 4680.47 1903.25 4604.36 1903.25C4680.47 1903.25 4742 1846.09 4742 1775.37C4742 1704.66 4680.47 1647.5 4604.36 1647.5C4680.47 1647.5 4742 1590.34 4742 1519.62C4742 1448.91 4680.47 1391.75 4604.36 1391.75C4680.47 1391.75 4742 1334.59 4742 1263.88C4742 1193.16 4680.47 1136 4604.36 1136L3996.64 1136C3920.53 1136 3859 1193.16 3859 1263.87C3859 1334.59 3920.53 1391.75 3996.64 1391.75C3920.53 1391.75 3859 1448.91 3859 1519.62C3859 1590.34 3920.53 1647.5 3996.64 1647.5C3920.53 1647.5 3859 1704.66 3859 1775.37C3859 1846.09 3920.53 1903.25 3996.64 1903.25C3920.53 1903.25 3859 1960.41 3859 2031.13C3859 2101.84 3920.53 2159 3996.64 2159L4604.36 2159C4680.47 2159 4742 2101.84 4742 2031.13Z" fill="#A6A646"/>
<path d="M2316.98 1828.13L2153 1992.11L2316.98 2156.1L2480.97 1992.11L2316.98 1828.13Z" fill="#308B7B"/>
<path d="M2645.02 1828L2481.04 1991.98L2645.02 2155.97L2809 1991.98L2645.02 1828Z" fill="#308B7B"/>
<path d="M2972.89 1828.04L2808.9 1992.02L2972.89 2156.01L3136.87 1992.02L2972.89 1828.04Z" fill="#308B7B"/>
<path d="M2317.11 2156.16L2153.13 2320.15L2317.11 2484.13L2481.09 2320.15L2317.11 2156.16Z" fill="#308B7B"/>
<path d="M2645.15 2156.04L2481.16 2320.02L2645.15 2484L2809.13 2320.02L2645.15 2156.04Z" fill="#308B7B"/>
<path d="M2973.02 2156.07L2809.03 2320.06L2973.02 2484.04L3137 2320.06L2973.02 2156.07Z" fill="#308B7B"/>
<path d="M2317.07 2484.03L2153.09 2648.02L2317.07 2812L2481.06 2648.02L2317.07 2484.03Z" fill="#308B7B"/>
<path d="M2645.11 2483.91L2481.12 2647.89L2645.11 2811.87L2809.09 2647.89L2645.11 2483.91Z" fill="#308B7B"/>
<path d="M2972.98 2483.94L2808.99 2647.93L2972.98 2811.91L3136.96 2647.93L2972.98 2483.94Z" fill="#308B7B"/>
<path d="M2316.98 1828.13L2153 1992.11L2316.98 2156.1L2480.97 1992.11L2316.98 1828.13Z" fill="#50B09F"/>
<path d="M2645.02 1828L2481.04 1991.98L2645.02 2155.97L2809 1991.98L2645.02 1828Z" fill="#50B09F"/>
<path d="M2972.89 1828.04L2808.9 1992.02L2972.89 2156.01L3136.87 1992.02L2972.89 1828.04Z" fill="#50B09F"/>
<path d="M2317.11 2156.16L2153.13 2320.15L2317.11 2484.13L2481.09 2320.15L2317.11 2156.16Z" fill="#50B09F"/>
<path d="M2645.15 2156.04L2481.16 2320.02L2645.15 2484L2809.13 2320.02L2645.15 2156.04Z" fill="#50B09F"/>
<path d="M2973.02 2156.07L2809.03 2320.06L2973.02 2484.04L3137 2320.06L2973.02 2156.07Z" fill="#50B09F"/>
<path d="M2317.07 2484.03L2153.09 2648.02L2317.07 2812L2481.06 2648.02L2317.07 2484.03Z" fill="#50B09F"/>
<path d="M2645.11 2483.91L2481.12 2647.89L2645.11 2811.87L2809.09 2647.89L2645.11 2483.91Z" fill="#50B09F"/>
<path d="M2972.98 2483.94L2808.99 2647.93L2972.98 2811.91L3136.96 2647.93L2972.98 2483.94Z" fill="#50B09F"/>
<path d="M1039.59 1698C1216.11 1698 1359 1841 1359 2017.26L720 2017.26C720.178 1841 863.068 1698 1039.59 1698Z" fill="#FFABDA"/>
<path d="M1039.59 2017.26C1183.9 2017.26 1300.81 2134.11 1300.81 2278.35L778.188 2278.35C778.366 2134.29 895.276 2017.26 1039.59 2017.26Z" fill="#FFABDA"/>
<path d="M1039.59 2278.53C1152.05 2278.53 1243.16 2369.59 1243.16 2482L835.842 2482C836.02 2369.59 927.128 2278.53 1039.59 2278.53Z" fill="#FFABDA"/>
<path d="M674 1617.73H608.138L654.68 1571.18L645.815 1562.32L599.273 1608.86V1543H586.727V1608.86L540.185 1562.32L531.32 1571.18L577.862 1617.73H512V1630.27H577.862L531.32 1676.82L540.185 1685.68L586.727 1639.14V1705H599.273V1639.14L645.815 1685.68L654.68 1676.82L608.138 1630.27H674V1617.73Z" fill="#308B7B"/>
<path d="M3654 2343.49H3575.13L3630.86 2287.75L3620.25 2277.14L3564.51 2332.87V2254H3549.49V2332.87L3493.75 2277.14L3483.14 2287.75L3538.87 2343.49H3460V2358.51H3538.87L3483.14 2414.25L3493.75 2424.86L3549.49 2369.13V2448H3564.51V2369.13L3620.25 2424.86L3630.86 2414.25L3575.13 2358.51H3654V2343.49Z" fill="#F38143"/>
<path d="M1357 371.5C1357 367.903 1332.23 364.945 1300.42 364.575C1300.06 332.775 1297.1 308 1293.5 308C1289.9 308 1286.94 332.775 1286.58 364.575C1254.77 364.945 1230 367.903 1230 371.5C1230 375.097 1254.77 378.055 1286.58 378.425C1286.94 410.225 1289.9 435 1293.5 435C1297.1 435 1300.06 410.225 1300.42 378.425C1332.23 378.055 1357 375.097 1357 371.5Z" fill="#D6A6DC"/>
<path d="M3888 838.072H3828.73L3870.65 796.146L3848.85 774.345L3806.93 816.27V757H3776.07V816.27L3734.15 774.345L3712.35 796.146L3754.27 838.072H3695V868.929H3754.27L3712.35 910.854L3734.15 932.655L3776.07 890.73V950H3806.93V890.73L3848.85 932.655L3870.65 910.854L3828.73 868.929H3888V838.072Z" fill="#E673A9"/>
<path d="M1881.05 2679C1989.9 2679 2078 2590.76 2078 2482L1881.05 2482L1684.11 2482C1684.11 2590.87 1772.21 2679 1881.05 2679Z" fill="#FFA08B"/>
<path d="M1881.05 2482C1989.9 2482 2078 2393.76 2078 2285L1684 2285C1684.11 2393.76 1772.21 2482 1881.05 2482Z" fill="#FFA08B"/>
</g>
<defs>
<clipPath id="clip0_620_89">
<rect width="4155" height="2812" fill="white"/>
</clipPath>
</defs>
</svg>
