<svg width="1000" height="1000" viewBox="0 0 1000 1000" fill="none" xmlns="http://www.w3.org/2000/svg">
<g clip-path="url(#clip0_226_1816)">
<mask id="mask0_226_1816" style="mask-type:luminance" maskUnits="userSpaceOnUse" x="0" y="0" width="1000" height="1000">
<path d="M1000 0H0V1000H1000V0Z" fill="white"/>
</mask>
<g mask="url(#mask0_226_1816)">
<path d="M1000 0H0V1000H1000V0Z" fill="#F38143"/>
<path d="M758.3 750.9H777.7" stroke="#9A3163" stroke-width="10" stroke-miterlimit="10" stroke-linecap="round" stroke-linejoin="round"/>
<path d="M794.7 750.9H799.5" stroke="#9A3163" stroke-width="10" stroke-miterlimit="10" stroke-linecap="round" stroke-linejoin="round"/>
<path d="M241 750.9H740" stroke="#9A3163" stroke-width="10" stroke-miterlimit="10" stroke-linecap="round" stroke-linejoin="round"/>
<path d="M195.5 750.9H219" stroke="#9A3163" stroke-width="10" stroke-miterlimit="10" stroke-linecap="round" stroke-linejoin="round"/>
<path d="M379.2 385.2C379.2 377.3 385.6 370.9 393.5 370.9C401.4 370.9 407.8 377.3 407.8 385.2H379.2Z" fill="#F8DAD0"/>
<path d="M379.2 385.2C379.2 377.3 385.6 370.9 393.5 370.9C401.4 370.9 407.8 377.3 407.8 385.2H379.2Z" stroke="#9A3163" stroke-width="8" stroke-miterlimit="10" stroke-linecap="round" stroke-linejoin="round"/>
<path d="M592.3 385.2C592.3 377.3 598.7 370.9 606.6 370.9C614.5 370.9 620.9 377.3 620.9 385.2H592.3Z" fill="#F8DAD0"/>
<path d="M592.3 385.2C592.3 377.3 598.7 370.9 606.6 370.9C614.5 370.9 620.9 377.3 620.9 385.2H592.3Z" stroke="#9A3163" stroke-width="8" stroke-miterlimit="10" stroke-linecap="round" stroke-linejoin="round"/>
<path d="M612.4 397.5C591.5 397.5 574.6 389.5 564.7 374.6L558.3 366C545.1 348.3 523.7 337.8 501.2 337.8H498.8C476.3 337.8 455 348.3 441.7 366L435.3 374.6C423 393.2 399.7 401 371.4 396L373.5 384.2C387.3 386.6 412.4 387.8 425.4 367.9L425.6 367.6L432.1 358.9C447.6 338.2 472.5 325.9 498.8 325.9H501.2C527.5 325.9 552.4 338.2 567.9 358.9L574.7 367.9C587.7 387.8 612.8 386.7 626.6 384.2L628.7 396C623 397 617.6 397.5 612.4 397.5Z" fill="#BF427D"/>
<path d="M612.4 397.5C591.5 397.5 574.6 389.5 564.7 374.6L558.3 366C545.1 348.3 523.7 337.8 501.2 337.8H498.8C476.3 337.8 455 348.3 441.7 366L435.3 374.6C423 393.2 399.7 401 371.4 396L373.5 384.2C387.3 386.6 412.4 387.8 425.4 367.9L425.6 367.6L432.1 358.9C447.6 338.2 472.5 325.9 498.8 325.9H501.2C527.5 325.9 552.4 338.2 567.9 358.9L574.7 367.9C587.7 387.8 612.8 386.7 626.6 384.2L628.7 396C623 397 617.6 397.5 612.4 397.5Z" stroke="#9A3163" stroke-width="10" stroke-miterlimit="10" stroke-linecap="round" stroke-linejoin="round"/>
<path d="M302 556.7H283.1L261.7 697.7C261.7 697.7 276.8 690.6 281.9 690.6C298.1 690.6 302.1 697.7 302.1 697.7V556.7H302Z" fill="#E673A9"/>
<path d="M302 556.7H283.1L261.7 697.7C261.7 697.7 276.8 690.6 281.9 690.6C298.1 690.6 302.1 697.7 302.1 697.7V556.7H302Z" stroke="#9A3163" stroke-width="10" stroke-miterlimit="10" stroke-linecap="round" stroke-linejoin="round"/>
<path d="M302 556.7H283.1L261.7 697.7C261.7 697.7 276.8 690.6 281.9 690.6C298.1 690.6 302.1 697.7 302.1 697.7V556.7H302Z" stroke="#9A3163" stroke-width="10" stroke-miterlimit="10" stroke-linecap="round" stroke-linejoin="round"/>
<path d="M299.3 556.7H283.2L261.8 697.7C261.8 697.7 272.6 692.7 279 691.1L299.3 556.7Z" fill="#BF427D"/>
<path d="M299.3 556.7H283.2L261.8 697.7C261.8 697.7 272.6 692.7 279 691.1L299.3 556.7Z" stroke="#9A3163" stroke-width="10" stroke-miterlimit="10" stroke-linecap="round" stroke-linejoin="round"/>
<path d="M698 556.7H716.9L738.3 697.7C738.3 697.7 723.2 690.6 718.1 690.6C701.9 690.6 697.9 697.7 697.9 697.7V556.7H698Z" fill="#E673A9"/>
<path d="M698 556.7H716.9L738.3 697.7C738.3 697.7 723.2 690.6 718.1 690.6C701.9 690.6 697.9 697.7 697.9 697.7V556.7H698Z" stroke="#9A3163" stroke-width="10" stroke-miterlimit="10" stroke-linecap="round" stroke-linejoin="round"/>
<path d="M698 556.7H716.9L738.3 697.7C738.3 697.7 723.2 690.6 718.1 690.6C701.9 690.6 697.9 697.7 697.9 697.7V556.7H698Z" stroke="#9A3163" stroke-width="10" stroke-miterlimit="10" stroke-linecap="round" stroke-linejoin="round"/>
<path d="M700.7 556.7H716.8L738.2 697.7C738.2 697.7 727.4 692.7 721 691.1L700.7 556.7Z" fill="#BF427D"/>
<path d="M700.7 556.7H716.8L738.2 697.7C738.2 697.7 727.4 692.7 721 691.1L700.7 556.7Z" stroke="#9A3163" stroke-width="10" stroke-miterlimit="10" stroke-linecap="round" stroke-linejoin="round"/>
<path d="M675.8 750.3H323.8C310.5 750.3 299.8 739.6 299.8 726.3V476.3H699.8V726.3C699.8 739.6 689.1 750.3 675.8 750.3Z" fill="#BF427D"/>
<path opacity="0.48" d="M556 685H444C435.2 685 428 677.8 428 669V628.3H572V669C572 677.9 564.8 685 556 685Z" fill="#BF427D" stroke="#BF427D" stroke-width="10" stroke-miterlimit="10"/>
<path d="M511.9 678.7C511.9 685.3 506.6 690.6 500 690.6C493.4 690.6 488.1 685.3 488.1 678.7H479.1C479.1 690.2 488.5 699.6 500 699.6C511.5 699.6 520.9 690.2 520.9 678.7H511.9Z" fill="white"/>
<path d="M511.9 678.7C511.9 685.3 506.6 690.6 500 690.6C493.4 690.6 488.1 685.3 488.1 678.7H479.1C479.1 690.2 488.5 699.6 500 699.6C511.5 699.6 520.9 690.2 520.9 678.7H511.9Z" stroke="#9A3163" stroke-width="4" stroke-miterlimit="10" stroke-linecap="round" stroke-linejoin="round"/>
<path opacity="0.48" d="M676 739H324C310.7 739 300 728.3 300 715V726.8C300 740.1 310.7 750.8 324 750.8H676C689.3 750.8 700 740.1 700 726.8V715C700 728.3 689.3 739 676 739Z" fill="#BF427D"/>
<path d="M700 589.9V480.8H300V589.9C305.4 592.5 311.2 594.4 317.4 595.7C369.5 606.2 426.5 611.1 496.8 611.1H503.2C573.5 611.1 630.5 606.2 682.6 595.7C688.8 594.4 694.6 592.5 700 589.9Z" fill="#B44A7C"/>
<path d="M556 678H444C435.2 678 428 670.8 428 662V621.3H572V662C572 670.9 564.8 678 556 678Z" fill="#E673A9"/>
<path opacity="0.45" d="M428 643.5C433.5 648.7 440.9 651.9 449 651.9H551C559.1 651.9 566.5 648.7 572 643.5V625.3H428V643.5Z" fill="#E673A9"/>
<path d="M451.7 667H444C440.7 667 438 664.3 438 661V630.3" stroke="#9A3163" stroke-width="3" stroke-miterlimit="10" stroke-linecap="round" stroke-linejoin="round" stroke-dasharray="5 5"/>
<path d="M562 650.9V661C562 664.3 559.3 667 556 667H462" stroke="#9A3163" stroke-width="3" stroke-miterlimit="10" stroke-linecap="round" stroke-linejoin="round" stroke-dasharray="5 5"/>
<path d="M556 678H444C435.2 678 428 670.8 428 662V621.3H572V662C572 670.9 564.8 678 556 678Z" stroke="#9A3163" stroke-width="10" stroke-miterlimit="10" stroke-linecap="round" stroke-linejoin="round"/>
<path d="M551 641.9H449C435.5 641.9 424.5 630.9 424.5 617.4V593H575.5V617.5C575.5 631 564.5 641.9 551 641.9Z" fill="#FFABDA"/>
<path opacity="0.84" d="M424.5 609C447.1 610.3 471 611 496.8 611H503.2C528.9 611 552.9 610.3 575.5 609V593H424.5V609Z" fill="#FFABDA"/>
<path d="M551 641.9H449C435.5 641.9 424.5 630.9 424.5 617.4V593H575.5V617.5C575.5 631 564.5 641.9 551 641.9Z" stroke="#9A3163" stroke-width="10" stroke-miterlimit="10" stroke-linecap="round" stroke-linejoin="round"/>
<path d="M434.5 616.3V597.5H565.5V616.3C565.5 624.3 559 630.8 551 630.8H449C441 630.8 434.5 624.3 434.5 616.3Z" stroke="#9A3163" stroke-width="3" stroke-miterlimit="10" stroke-linecap="round" stroke-linejoin="round" stroke-dasharray="5 5"/>
<path d="M676 750.8H324C310.7 750.8 300 740.1 300 726.8V476.8H700V726.8C700 740.1 689.3 750.8 676 750.8Z" stroke="#9A3163" stroke-width="10" stroke-miterlimit="10" stroke-linecap="round" stroke-linejoin="round"/>
<path d="M324 734.8C319.6 734.8 316 731.2 316 726.8V492.8H684V726.8C684 731.2 680.4 734.8 676 734.8H324Z" stroke="#9A3163" stroke-width="4" stroke-miterlimit="10" stroke-linecap="round" stroke-linejoin="round" stroke-dasharray="7 7"/>
<path d="M285.5 419.2L272 517.7C267.8 548.2 287.4 575.5 319.3 581.9C378.1 593.7 438.9 597.2 500 597.1C561.1 597.2 621.9 593.8 680.7 581.9C712.6 575.5 732.2 548.2 728 517.7L714.5 419.2C712.8 406.8 700.5 396.7 686.4 396C562 390.1 438.1 390.1 313.7 396C299.6 396.7 287.2 406.8 285.5 419.2Z" fill="#E673A9"/>
<path opacity="0.55" d="M728 517.7L714.5 419.2C712.8 406.8 700.5 396.7 686.4 396C562 390.1 438.1 390.1 313.7 396C299.6 396.7 287.3 406.8 285.6 419.2L272 517.7C267.8 548.2 287.4 575.5 319.3 581.9C378.1 593.7 438.9 597.2 500 597.1C561.1 597.2 621.9 593.8 680.7 581.9C712.5 575.5 732.1 548.2 728 517.7ZM680.6 582.2C629.2 593 572.9 598 503.2 598H496.7C427 598 370.7 593 319.3 582.2C292.2 576.5 275.2 552.5 278.8 525.2L292.4 421.5C293.5 413 302.4 405.8 312.2 405.3C374.6 402.2 437.7 400.6 499.9 400.6C562.1 400.6 625.3 402.2 687.6 405.3C697.4 405.8 706.3 413.1 707.4 421.5L721 525.2C724.8 552.5 707.7 576.5 680.6 582.2Z" fill="#E673A9"/>
<path opacity="0.45" d="M680.7 572.3C621.9 584.1 561.1 587.6 500 587.5C438.9 587.6 378.1 584.2 319.3 572.3C292 566.8 273.7 546 271.6 521C269.2 550.2 288.5 575.7 319.3 581.9C378.1 593.7 438.9 597.2 500 597.1C561.1 597.2 621.9 593.8 680.7 581.9C711.4 575.7 730.7 550.2 728.4 521C726.3 546 708 566.8 680.7 572.3Z" fill="#E673A9"/>
<path d="M285.5 419.2L272 517.7C267.8 548.2 287.4 575.5 319.3 581.9C378.1 593.7 438.9 597.2 500 597.1C561.1 597.2 621.9 593.8 680.7 581.9C712.6 575.5 732.2 548.2 728 517.7L714.5 419.2C712.8 406.8 700.5 396.7 686.4 396C562 390.1 438.1 390.1 313.7 396C299.6 396.7 287.2 406.8 285.5 419.2Z" stroke="#9A3163" stroke-width="10" stroke-miterlimit="10" stroke-linecap="round" stroke-linejoin="round"/>
<path d="M496.8 581C428.3 581 372.9 576.3 322.5 566.1C299 561.4 284.8 542.3 287.9 519.8L301.4 421.3C302 417.1 307.5 412.3 314.4 411.9C376 409 438.5 407.5 500 407.5C561.5 407.5 623.9 409 685.6 411.9C692.6 412.2 698 417.1 698.6 421.3L712.1 519.8C715.2 542.4 701 561.4 677.5 566.1C627.1 576.3 571.7 581 503.2 581H496.8Z" stroke="#9A3163" stroke-width="4" stroke-linecap="round" stroke-linejoin="round" stroke-dasharray="7.01 7.01"/>
<path d="M385.5 765.2C375.6 765.2 367.5 757.1 367.5 747.2V494.3H403.5V747.2C403.5 757.1 395.5 765.2 385.5 765.2Z" fill="#FFABDA"/>
<path d="M403.5 494.3H367.5V507.3H403.5V494.3Z" fill="#9A3163"/>
<path opacity="0.78" d="M403.5 564.2H367.5V582.2H403.5V564.2Z" fill="#FFABDA"/>
<path d="M385.5 765.2C375.6 765.2 367.5 757.1 367.5 747.2V494.3H403.5V747.2C403.5 757.1 395.5 765.2 385.5 765.2Z" stroke="#9A3163" stroke-width="10" stroke-miterlimit="10" stroke-linecap="round" stroke-linejoin="round"/>
<path d="M355.5 552.2V607.2H367.5V595.2V590.3V564.2H403.5V590.3V595.2V607.2H415.5V552.2H355.5Z" fill="white"/>
<path d="M405.8 552.2H365.4C360 552.2 355.6 556.6 355.6 562V597.4C355.6 602.8 360 607.2 365.4 607.2H367.6V595.2V582.2V564.2H403.6V582.2V595.2V607.2H405.8C411.2 607.2 415.6 602.8 415.6 597.4V562C415.5 556.6 411.2 552.2 405.8 552.2Z" stroke="#9A3163" stroke-width="8" stroke-miterlimit="10" stroke-linecap="round" stroke-linejoin="round"/>
<path d="M385.5 538.2C388.538 538.2 391 535.738 391 532.7C391 529.663 388.538 527.2 385.5 527.2C382.462 527.2 380 529.663 380 532.7C380 535.738 382.462 538.2 385.5 538.2Z" fill="white"/>
<path d="M385.5 538.2C388.538 538.2 391 535.738 391 532.7C391 529.663 388.538 527.2 385.5 527.2C382.462 527.2 380 529.663 380 532.7C380 535.738 382.462 538.2 385.5 538.2Z" stroke="#9A3163" stroke-width="4" stroke-miterlimit="10" stroke-linecap="round" stroke-linejoin="round"/>
<path d="M385.5 592C388.538 592 391 589.538 391 586.5C391 583.463 388.538 581 385.5 581C382.462 581 380 583.463 380 586.5C380 589.538 382.462 592 385.5 592Z" fill="white"/>
<path d="M385.5 593.5C388.538 593.5 391 591.038 391 588C391 584.963 388.538 582.5 385.5 582.5C382.462 582.5 380 584.963 380 588C380 591.038 382.462 593.5 385.5 593.5Z" stroke="#9A3163" stroke-width="4" stroke-miterlimit="10" stroke-linecap="round" stroke-linejoin="round"/>
<path d="M385.5 664.7C388.538 664.7 391 662.238 391 659.2C391 656.163 388.538 653.7 385.5 653.7C382.462 653.7 380 656.163 380 659.2C380 662.238 382.462 664.7 385.5 664.7Z" fill="#BF427D"/>
<path d="M385.5 664.7C388.538 664.7 391 662.238 391 659.2C391 656.163 388.538 653.7 385.5 653.7C382.462 653.7 380 656.163 380 659.2C380 662.238 382.462 664.7 385.5 664.7Z" stroke="#9A3163" stroke-width="4" stroke-miterlimit="10" stroke-linecap="round" stroke-linejoin="round"/>
<path d="M385.5 700.3C388.538 700.3 391 697.838 391 694.8C391 691.763 388.538 689.3 385.5 689.3C382.462 689.3 380 691.763 380 694.8C380 697.838 382.462 700.3 385.5 700.3Z" fill="#BF427D"/>
<path d="M385.5 700.3C388.538 700.3 391 697.838 391 694.8C391 691.763 388.538 689.3 385.5 689.3C382.462 689.3 380 691.763 380 694.8C380 697.838 382.462 700.3 385.5 700.3Z" stroke="#9A3163" stroke-width="4" stroke-miterlimit="10" stroke-linecap="round" stroke-linejoin="round"/>
<path d="M385.5 592C383.3 592 381.5 590.2 381.5 588V556.1C381.5 553.9 383.3 552.1 385.5 552.1C387.7 552.1 389.5 553.9 389.5 556.1V588C389.5 590.3 387.8 592 385.5 592Z" fill="white"/>
<path d="M385.5 592C383.3 592 381.5 590.2 381.5 588V556.1C381.5 553.9 383.3 552.1 385.5 552.1C387.7 552.1 389.5 553.9 389.5 556.1V588C389.5 590.3 387.8 592 385.5 592Z" stroke="#9A3163" stroke-width="4" stroke-miterlimit="10" stroke-linecap="round" stroke-linejoin="round"/>
<path d="M614.5 765.2C604.6 765.2 596.5 757.1 596.5 747.2V494.3H632.5V747.2C632.5 757.1 624.4 765.2 614.5 765.2Z" fill="#FFABDA"/>
<path opacity="0.78" d="M631.3 564.5H595.3V582.5H631.3V564.5Z" fill="#FFABDA"/>
<path d="M614.5 765.2C604.6 765.2 596.5 757.1 596.5 747.2V494.3H632.5V747.2C632.5 757.1 624.4 765.2 614.5 765.2Z" stroke="#9A3163" stroke-width="10" stroke-miterlimit="10" stroke-linecap="round" stroke-linejoin="round"/>
<path d="M584.5 552.2V607.2H596.5V595.2V590.3V564.2H632.5V590.3V595.2V607.2H644.5V552.2H584.5Z" fill="white"/>
<path d="M634.7 552.2H594.3C588.9 552.2 584.5 556.6 584.5 562V597.4C584.5 602.8 588.9 607.2 594.3 607.2H596.5V595.2V582.2V564.2H632.5V582.2V595.2V607.2H634.7C640.1 607.2 644.5 602.8 644.5 597.4V562C644.5 556.6 640.1 552.2 634.7 552.2Z" stroke="#9A3163" stroke-width="8" stroke-miterlimit="10" stroke-linecap="round" stroke-linejoin="round"/>
<path d="M614.5 538.2C617.538 538.2 620 535.738 620 532.7C620 529.663 617.538 527.2 614.5 527.2C611.462 527.2 609 529.663 609 532.7C609 535.738 611.462 538.2 614.5 538.2Z" fill="white"/>
<path d="M614.5 538.2C617.538 538.2 620 535.738 620 532.7C620 529.663 617.538 527.2 614.5 527.2C611.462 527.2 609 529.663 609 532.7C609 535.738 611.462 538.2 614.5 538.2Z" stroke="#9A3163" stroke-width="4" stroke-miterlimit="10" stroke-linecap="round" stroke-linejoin="round"/>
<path d="M614.5 592C617.538 592 620 589.538 620 586.5C620 583.463 617.538 581 614.5 581C611.462 581 609 583.463 609 586.5C609 589.538 611.462 592 614.5 592Z" fill="white"/>
<path d="M614.5 593.5C617.538 593.5 620 591.038 620 588C620 584.963 617.538 582.5 614.5 582.5C611.462 582.5 609 584.963 609 588C609 591.038 611.462 593.5 614.5 593.5Z" stroke="#9A3163" stroke-width="4" stroke-miterlimit="10" stroke-linecap="round" stroke-linejoin="round"/>
<path d="M614.5 664.7C617.538 664.7 620 662.238 620 659.2C620 656.163 617.538 653.7 614.5 653.7C611.462 653.7 609 656.163 609 659.2C609 662.238 611.462 664.7 614.5 664.7Z" fill="#BF427D"/>
<path d="M614.5 664.7C617.538 664.7 620 662.238 620 659.2C620 656.163 617.538 653.7 614.5 653.7C611.462 653.7 609 656.163 609 659.2C609 662.238 611.462 664.7 614.5 664.7Z" stroke="#9A3163" stroke-width="4" stroke-miterlimit="10" stroke-linecap="round" stroke-linejoin="round"/>
<path d="M614.5 700.3C617.538 700.3 620 697.838 620 694.8C620 691.763 617.538 689.3 614.5 689.3C611.462 689.3 609 691.763 609 694.8C609 697.838 611.462 700.3 614.5 700.3Z" fill="#BF427D"/>
<path d="M614.5 700.3C617.538 700.3 620 697.838 620 694.8C620 691.763 617.538 689.3 614.5 689.3C611.462 689.3 609 691.763 609 694.8C609 697.838 611.462 700.3 614.5 700.3Z" stroke="#9A3163" stroke-width="4" stroke-miterlimit="10" stroke-linecap="round" stroke-linejoin="round"/>
<path d="M614.5 592C612.3 592 610.5 590.2 610.5 588V556.1C610.5 553.9 612.3 552.1 614.5 552.1C616.7 552.1 618.5 553.9 618.5 556.1V588C618.4 590.3 616.7 592 614.5 592Z" fill="white"/>
<path d="M614.5 592C612.3 592 610.5 590.2 610.5 588V556.1C610.5 553.9 612.3 552.1 614.5 552.1C616.7 552.1 618.5 553.9 618.5 556.1V588C618.4 590.3 616.7 592 614.5 592Z" stroke="#9A3163" stroke-width="4" stroke-miterlimit="10" stroke-linecap="round" stroke-linejoin="round"/>
<path d="M632.5 494.3H596.5V507.3H632.5V494.3Z" fill="#9A3163"/>
<path opacity="0.84" d="M502.5 622.5C505.648 622.5 508.2 619.948 508.2 616.8C508.2 613.652 505.648 611.1 502.5 611.1C499.352 611.1 496.8 613.652 496.8 616.8C496.8 619.948 499.352 622.5 502.5 622.5Z" fill="#FFABDA"/>
<path d="M502.5 622.5C505.648 622.5 508.2 619.948 508.2 616.8C508.2 613.652 505.648 611.1 502.5 611.1C499.352 611.1 496.8 613.652 496.8 616.8C496.8 619.948 499.352 622.5 502.5 622.5Z" stroke="#9A3163" stroke-width="4" stroke-miterlimit="10" stroke-linecap="round" stroke-linejoin="round"/>
<path d="M527 511.2C527.2 508.6 525.7 506.1 523.3 505C517 502.1 509.9 500.5 502.5 500.5C495.1 500.5 488 502.1 481.7 505C479.3 506.1 477.8 508.6 478 511.2C479.2 526.4 487.1 539.7 498.8 548C501 549.6 503.9 549.6 506.1 548C517.9 539.7 525.8 526.4 527 511.2Z" fill="#FFA08B"/>
<path opacity="0.75" d="M506.2 537C504 538.6 501.1 538.6 498.9 537C489 530 481.9 519.4 479.2 507.2C478.4 508.3 478 509.7 478.1 511.2C479.3 526.4 487.2 539.7 498.9 548C501.1 549.6 504 549.6 506.2 548C517.9 539.6 525.9 526.4 527 511.2C527.1 509.8 526.7 508.4 525.9 507.2C523.2 519.5 516 530 506.2 537Z" fill="#FFA08B"/>
<path d="M527 511.2C527.2 508.6 525.7 506.1 523.3 505C517 502.1 509.9 500.5 502.5 500.5C495.1 500.5 488 502.1 481.7 505C479.3 506.1 477.8 508.6 478 511.2C479.2 526.4 487.1 539.7 498.8 548C501 549.6 503.9 549.6 506.1 548C517.9 539.7 525.8 526.4 527 511.2Z" stroke="#9A3163" stroke-width="5" stroke-miterlimit="10" stroke-linecap="round" stroke-linejoin="round"/>
<path d="M491.6 509.9C495.1 508.9 498.8 508.5 502.5 508.5C506.2 508.5 509.9 509 513.4 509.9C516.7 510.8 518.7 514.2 517.9 517.5C516.9 521.4 515.4 525.1 513.4 528.6" stroke="#9A3163" stroke-width="3" stroke-miterlimit="10" stroke-linecap="round" stroke-linejoin="round"/>
</g>
</g>
<defs>
<clipPath id="clip0_226_1816">
<rect width="1000" height="1000" fill="white"/>
</clipPath>
</defs>
</svg>
