<svg width="1453" height="984" viewBox="0 0 1453 984" fill="none" xmlns="http://www.w3.org/2000/svg">
<path d="M632.984 0.127383L469 164.111L632.984 328.095L796.968 164.111L632.984 0.127383Z" fill="#308B7B"/>
<path d="M961.019 0L797.035 163.984L961.019 327.968L1125 163.984L961.019 0Z" fill="#308B7B"/>
<path d="M1288.89 0.03834L1124.9 164.022L1288.89 328.006L1452.87 164.022L1288.89 0.03834Z" fill="#308B7B"/>
<path d="M633.111 328.162L469.127 492.146L633.111 656.13L797.095 492.146L633.111 328.162Z" fill="#308B7B"/>
<path d="M961.146 328.035L797.162 492.019L961.146 656.003L1125.13 492.019L961.146 328.035Z" fill="#308B7B"/>
<path d="M1289.02 328.073L1125.03 492.057L1289.02 656.041L1453 492.057L1289.02 328.073Z" fill="#308B7B"/>
<path d="M633.073 656.032L469.089 820.016L633.073 984L797.057 820.016L633.073 656.032Z" fill="#308B7B"/>
<path d="M961.108 655.905L797.124 819.889L961.108 983.873L1125.09 819.889L961.108 655.905Z" fill="#308B7B"/>
<path d="M1288.98 655.943L1124.99 819.927L1288.98 983.911L1452.96 819.927L1288.98 655.943Z" fill="#308B7B"/>
<path d="M632.984 0.127383L469 164.111L632.984 328.095L796.968 164.111L632.984 0.127383Z" fill="#50B09F"/>
<path d="M961.019 0L797.035 163.984L961.019 327.968L1125 163.984L961.019 0Z" fill="#50B09F"/>
<path d="M1288.89 0.03834L1124.9 164.022L1288.89 328.006L1452.87 164.022L1288.89 0.03834Z" fill="#50B09F"/>
<path d="M633.111 328.162L469.127 492.146L633.111 656.13L797.095 492.146L633.111 328.162Z" fill="#50B09F"/>
<path d="M961.146 328.035L797.162 492.019L961.146 656.003L1125.13 492.019L961.146 328.035Z" fill="#50B09F"/>
<path d="M1289.02 328.073L1125.03 492.057L1289.02 656.041L1453 492.057L1289.02 328.073Z" fill="#50B09F"/>
<path d="M633.073 656.032L469.089 820.016L633.073 984L797.057 820.016L633.073 656.032Z" fill="#50B09F"/>
<path d="M961.108 655.905L797.124 819.889L961.108 983.873L1125.09 819.889L961.108 655.905Z" fill="#50B09F"/>
<path d="M1288.98 655.943L1124.99 819.927L1288.98 983.911L1452.96 819.927L1288.98 655.943Z" fill="#50B09F"/>
<path d="M197.055 851C305.896 851 394 762.762 394 654L197.055 654L0.109749 654C0.109759 762.871 88.2139 851 197.055 851Z" fill="#FFA08B"/>
<path d="M197.055 654C305.896 654 394 565.762 394 457L6.37554e-06 457C0.109735 565.762 88.2139 654 197.055 654Z" fill="#FFA08B"/>
</svg>
