<svg width="18" height="18" viewBox="0 0 18 18" fill="none" xmlns="http://www.w3.org/2000/svg">
<path d="M17.1094 0.890575C16.6992 0.480418 16.1428 0.25 15.5627 0.25C14.9826 0.25 14.4263 0.480418 14.016 0.890575L13.0519 1.85474L16.1452 4.94807L17.1094 3.98391C17.5195 3.57368 17.75 3.01734 17.75 2.43724C17.75 1.85714 17.5195 1.3008 17.1094 0.890575ZM15.261 5.83224L12.1677 2.73891L2.04271 12.8639C1.52842 13.3779 1.15036 14.0121 0.942712 14.7089L0.276046 16.9464C0.243859 17.0544 0.241458 17.169 0.269098 17.2783C0.296737 17.3875 0.353389 17.4872 0.433058 17.5669C0.512728 17.6466 0.612451 17.7032 0.721678 17.7309C0.830905 17.7585 0.945571 17.7561 1.05355 17.7239L3.29105 17.0572C3.9879 16.8496 4.62201 16.4715 5.13605 15.9572L15.261 5.83224Z" fill="#1B16A6" fill-opacity="0.75"/>
</svg>
