<svg width="20" height="20" viewBox="0 0 20 20" fill="none" xmlns="http://www.w3.org/2000/svg">
<path d="M18.1091 1.89106C17.6989 1.48091 17.1426 1.25049 16.5625 1.25049C15.9824 1.25049 15.426 1.48091 15.0158 1.89106L14.0516 2.85523L17.145 5.94856L18.1091 4.9844C18.5193 4.57417 18.7497 4.01783 18.7497 3.43773C18.7497 2.85763 18.5193 2.30129 18.1091 1.89106ZM16.2608 6.83273L13.1675 3.7394L3.04247 13.8644C2.52818 14.3784 2.15012 15.0125 1.94247 15.7094L1.2758 17.9469C1.24361 18.0549 1.24121 18.1695 1.26885 18.2788C1.29649 18.388 1.35314 18.4877 1.43281 18.5674C1.51248 18.6471 1.61221 18.7037 1.72143 18.7313C1.83066 18.759 1.94533 18.7566 2.0533 18.7244L4.2908 18.0577C4.98766 17.8501 5.62177 17.472 6.1358 16.9577L16.2608 6.83273Z" fill="#50B09F" fill-opacity="0.75"/>
</svg>
