<svg width="16" height="16" viewBox="0 0 16 16" fill="none" xmlns="http://www.w3.org/2000/svg">
<path d="M8 15H11.6061C12.5062 15 13.3695 14.6424 14.0059 14.0059C14.6424 13.3695 15 12.5062 15 11.6061V9.48485M8 15H4.39394C3.49381 15 2.63055 14.6424 1.99406 14.0059C1.35757 13.3695 1 12.5062 1 11.6061V8M8 15V10.5455C8 9.87036 7.73182 9.22291 7.25445 8.74555C6.77709 8.26818 6.12964 8 5.45455 8H1M1 8V4.39394C1 3.49381 1.35757 2.63055 1.99406 1.99406C2.63055 1.35757 3.49381 1 4.39394 1H6.51515M9.48485 1H14.1515C14.3857 1 14.5978 1.09503 14.7514 1.24861M14.7514 1.24861C14.9105 1.40769 15 1.62347 15 1.84848V6.51515M14.7514 1.24861L9.48485 6.51515" stroke="#F8F2EC" stroke-width="1.25" stroke-linecap="round" stroke-linejoin="round"/>
</svg>
