<svg width="302" height="302" viewBox="0 0 302 302" fill="none" xmlns="http://www.w3.org/2000/svg">
<path d="M292.291 127.573L154.025 149.3L266.574 67.2692C266.574 48.9415 251.721 34.1611 233.467 34.1611L153.286 144.201L174.422 9.69962C161.489 -3.23321 140.502 -3.23321 127.569 9.69962L149.148 147.305L66.7498 34.1611C48.4227 34.1611 33.6428 49.0154 33.6428 67.2692L145.748 148.931L9.69932 127.573C-3.23311 140.506 -3.23311 161.494 9.69932 174.427L144.492 153.291L33.6428 233.992C33.6428 252.319 48.4966 267.1 66.7498 267.1L149.296 153.808L127.569 292.3C140.502 305.233 161.489 305.233 174.422 292.3L153.138 156.912L233.467 267.174C251.794 267.174 266.574 252.319 266.574 234.066L155.355 152.921L292.365 174.427C305.224 161.494 305.224 140.506 292.291 127.573Z" fill="#308B7B"/>
</svg>
