<svg width="50" height="61" viewBox="0 0 50 61" fill="none" xmlns="http://www.w3.org/2000/svg">
<path d="M26.6472 59.4452L26.6167 59.4508L26.4194 59.5487L26.3639 59.5599L26.325 59.5487L26.1278 59.4508C26.0981 59.4415 26.0759 59.4461 26.0611 59.4648L26.05 59.4928L26.0028 60.6896L26.0167 60.7455L26.0444 60.7819L26.3333 60.9888L26.375 61L26.4083 60.9888L26.6972 60.7819L26.7306 60.7371L26.7417 60.6896L26.6944 59.4956C26.687 59.4657 26.6713 59.4489 26.6472 59.4452ZM27.3833 59.1292L27.3472 59.1348L26.8333 59.3949L26.8056 59.4228L26.7972 59.4536L26.8472 60.656L26.8611 60.6896L26.8833 60.7092L27.4417 60.9692C27.4768 60.9786 27.5037 60.9711 27.5222 60.9469L27.5333 60.9077L27.4389 59.1907C27.4296 59.1572 27.4111 59.1367 27.3833 59.1292ZM25.3972 59.1348C25.385 59.1274 25.3703 59.1249 25.3564 59.1281C25.3424 59.1312 25.3302 59.1396 25.3222 59.1516L25.3056 59.1907L25.2111 60.9077C25.213 60.9413 25.2287 60.9636 25.2583 60.9748L25.3 60.9692L25.8583 60.7092L25.8861 60.6868L25.8972 60.656L25.9444 59.4536L25.9361 59.4201L25.9083 59.3921L25.3972 59.1348Z" fill="#0B5648"/>
<path d="M47.2222 8.38911C47.9589 8.38911 48.6655 8.68373 49.1864 9.20815C49.7073 9.73257 50 10.4438 50 11.1855C50 11.9271 49.7073 12.6384 49.1864 13.1628C48.6655 13.6872 47.9589 13.9818 47.2222 13.9818H44.4444L44.4361 14.1804L41.8444 50.7317C41.7447 52.1427 41.1175 53.4633 40.0892 54.4273C39.0609 55.3914 37.7079 55.9274 36.3028 55.9274H13.6944C12.2893 55.9274 10.9363 55.3914 9.90801 54.4273C8.87973 53.4633 8.25254 52.1427 8.15278 50.7317L5.56111 14.1832L5.55556 13.9818H2.77778C2.04107 13.9818 1.33453 13.6872 0.813592 13.1628C0.292658 12.6384 0 11.9271 0 11.1855C0 10.4438 0.292658 9.73257 0.813592 9.20815C1.33453 8.68373 2.04107 8.38911 2.77778 8.38911H47.2222ZM30.5556 0C31.2923 0 31.9988 0.294617 32.5197 0.819037C33.0407 1.34346 33.3333 2.05473 33.3333 2.79637C33.3333 3.53801 33.0407 4.24928 32.5197 4.7737C31.9988 5.29812 31.2923 5.59274 30.5556 5.59274H19.4444C18.7077 5.59274 18.0012 5.29812 17.4803 4.7737C16.9593 4.24928 16.6667 3.53801 16.6667 2.79637C16.6667 2.05473 16.9593 1.34346 17.4803 0.819037C18.0012 0.294617 18.7077 0 19.4444 0H30.5556Z" fill="#0B5648"/>
</svg>
