<svg width="22" height="22" viewBox="0 0 22 22" fill="none" xmlns="http://www.w3.org/2000/svg">
<path d="M11 1.375C8.45688 1.40586 6.02661 2.42982 4.22822 4.22822C2.42982 6.02661 1.40586 8.45688 1.375 11C1.40586 13.5431 2.42982 15.9734 4.22822 17.7718C6.02661 19.5702 8.45688 20.5941 11 20.625C13.5431 20.5941 15.9734 19.5702 17.7718 17.7718C19.5702 15.9734 20.5941 13.5431 20.625 11C20.5941 8.45688 19.5702 6.02661 17.7718 4.22822C15.9734 2.42982 13.5431 1.40586 11 1.375ZM16.5 11.6875H11.6875V16.5H10.3125V11.6875H5.5V10.3125H10.3125V5.5H11.6875V10.3125H16.5V11.6875Z" fill="#0B5648"/>
</svg>
