<svg width="674" height="213" viewBox="0 0 674 213" fill="none" xmlns="http://www.w3.org/2000/svg">
<rect x="303.299" y="6.85468" width="56.656" height="57.0301" rx="28.328" transform="rotate(90 303.299 6.85468)" fill="#0B5648"/>
<rect x="303.299" y="81.7326" width="56.3498" height="57.0301" rx="28.1749" transform="rotate(90 303.299 81.7326)" fill="#0B5648"/>
<rect x="303.299" y="156.151" width="56.656" height="57.0301" rx="28.328" transform="rotate(90 303.299 156.151)" fill="#0B5648"/>
<rect x="144.159" y="9.05957" width="56.3498" height="57.0301" rx="28.1749" transform="rotate(90 144.159 9.05957)" fill="#0B5648"/>
<rect x="223.563" y="6.85468" width="56.656" height="57.0301" rx="28.328" transform="rotate(90 223.563 6.85468)" fill="#0B5648"/>
<rect x="223.563" y="81.7326" width="56.3498" height="57.0301" rx="28.1749" transform="rotate(90 223.563 81.7326)" fill="#0B5648"/>
<rect x="223.563" y="156.151" width="56.656" height="57.0301" rx="28.328" transform="rotate(90 223.563 156.151)" fill="#0B5648"/>
<rect x="64.4229" y="83.4781" width="56.656" height="57.0301" rx="28.328" transform="rotate(90 64.4229 83.4781)" fill="#0B5648"/>
<rect x="144.159" y="83.4781" width="56.656" height="57.0301" rx="28.328" transform="rotate(90 144.159 83.4781)" fill="#0B5648"/>
<rect x="64.4229" y="156.344" width="56.656" height="57.0301" rx="28.328" transform="rotate(90 64.4229 156.344)" fill="#0B5648"/>
<rect x="144.159" y="156.344" width="56.656" height="57.0301" rx="28.328" transform="rotate(90 144.159 156.344)" fill="#0B5648"/>
<rect x="64.6914" y="9.05957" width="56.3498" height="57.1637" rx="28.1749" transform="rotate(90 64.6914 9.05957)" fill="#0B5648"/>
<rect x="294.404" y="1.5" width="53.656" height="54.0301" rx="26.828" transform="rotate(90 294.404 1.5)" fill="#F8F2EC" stroke="#0B5648" stroke-width="3"/>
<rect x="294.404" y="76.378" width="53.3498" height="54.0301" rx="26.6749" transform="rotate(90 294.404 76.378)" fill="#F8F2EC" stroke="#0B5648" stroke-width="3"/>
<rect x="294.404" y="150.797" width="53.656" height="54.0301" rx="26.828" transform="rotate(90 294.404 150.797)" fill="#F8F2EC" stroke="#0B5648" stroke-width="3"/>
<rect x="135.264" y="3.70496" width="53.3498" height="54.0301" rx="26.6749" transform="rotate(90 135.264 3.70496)" fill="#F8F2EC" stroke="#0B5648" stroke-width="3"/>
<rect x="214.668" y="1.5" width="53.656" height="54.0301" rx="26.828" transform="rotate(90 214.668 1.5)" fill="#F8F2EC" stroke="#0B5648" stroke-width="3"/>
<rect x="214.668" y="76.378" width="53.3498" height="54.0301" rx="26.6749" transform="rotate(90 214.668 76.378)" fill="#F8F2EC" stroke="#0B5648" stroke-width="3"/>
<rect x="214.668" y="150.797" width="53.656" height="54.0301" rx="26.828" transform="rotate(90 214.668 150.797)" fill="#F8F2EC" stroke="#0B5648" stroke-width="3"/>
<rect x="55.5303" y="78.1234" width="53.656" height="54.0301" rx="26.828" transform="rotate(90 55.5303 78.1234)" fill="#F8F2EC" stroke="#0B5648" stroke-width="3"/>
<rect x="135.264" y="78.1234" width="53.656" height="54.0301" rx="26.828" transform="rotate(90 135.264 78.1234)" fill="#F8F2EC" stroke="#0B5648" stroke-width="3"/>
<rect x="55.5303" y="150.989" width="53.656" height="54.0301" rx="26.828" transform="rotate(90 55.5303 150.989)" fill="#F8F2EC" stroke="#0B5648" stroke-width="3"/>
<rect x="135.264" y="150.989" width="53.656" height="54.0301" rx="26.828" transform="rotate(90 135.264 150.989)" fill="#F8F2EC" stroke="#0B5648" stroke-width="3"/>
<rect x="55.7979" y="3.70496" width="53.3498" height="54.1637" rx="26.6749" transform="rotate(90 55.7979 3.70496)" fill="#F8F2EC" stroke="#0B5648" stroke-width="3"/>
<path d="M349.25 47.5H355.05C355.1 49.65 356.7 51 359.5 51C362.35 51 363.9 49.85 363.9 48.05C363.9 46.8 363.25 45.9 361.05 45.4L356.6 44.35C352.15 43.35 350 41.25 350 37.3C350 32.45 354.1 29.55 359.8 29.55C365.35 29.55 369.1 32.75 369.15 37.55H363.35C363.3 35.45 361.9 34.1 359.55 34.1C357.15 34.1 355.75 35.2 355.75 37.05C355.75 38.45 356.85 39.35 358.95 39.85L363.4 40.9C367.55 41.85 369.65 43.75 369.65 47.55C369.65 52.55 365.4 55.65 359.3 55.65C353.15 55.65 349.25 52.35 349.25 47.5ZM397.695 55H391.595V35.4H386.845V30.3H391.595V22.6H397.695V30.3H402.495V35.4H397.695V55ZM436.787 30.2V35.85H434.537C430.137 35.85 427.387 38.2 427.387 43V55H421.287V30.35H427.037L427.387 33.95C428.437 31.5 430.787 29.85 434.087 29.85C434.937 29.85 435.787 29.95 436.787 30.2ZM462.289 55.65C457.039 55.65 453.839 52.6 453.839 47.95C453.839 43.4 457.139 40.55 462.989 40.1L470.389 39.55V39C470.389 35.65 468.389 34.3 465.289 34.3C461.689 34.3 459.689 35.8 459.689 38.4H454.489C454.489 33.05 458.889 29.55 465.589 29.55C472.239 29.55 476.339 33.15 476.339 40V55H470.989L470.539 51.35C469.489 53.9 466.139 55.65 462.289 55.65ZM464.289 51.05C468.039 51.05 470.439 48.8 470.439 45V43.7L465.289 44.1C461.489 44.45 460.039 45.7 460.039 47.7C460.039 49.95 461.539 51.05 464.289 51.05ZM500.382 25.35C498.282 25.35 496.632 23.7 496.632 21.65C496.632 19.6 498.282 18 500.382 18C502.382 18 504.032 19.6 504.032 21.65C504.032 23.7 502.382 25.35 500.382 25.35ZM497.332 55V30.3H503.432V55H497.332ZM523.334 42.1C523.334 34.9 528.034 29.5 535.084 29.5C538.784 29.5 541.684 31.05 543.134 33.7L543.484 30.3H549.134V53.75C549.134 62 544.184 67.15 536.184 67.15C529.084 67.15 524.234 63.1 523.484 56.5H529.584C529.984 59.7 532.434 61.6 536.184 61.6C540.384 61.6 543.084 58.95 543.084 54.85V50.75C541.534 53.05 538.484 54.5 534.934 54.5C527.934 54.5 523.334 49.25 523.334 42.1ZM529.484 41.95C529.484 46.1 532.134 49.2 536.134 49.2C540.334 49.2 542.934 46.25 542.934 41.95C542.934 37.75 540.384 34.85 536.134 34.85C532.084 34.85 529.484 37.9 529.484 41.95ZM576.547 55H570.447V17.8H576.597V33.5C578.147 31.1 581.047 29.55 584.597 29.55C590.697 29.55 593.897 33.4 593.897 39.8V55H587.797V41.25C587.797 37.1 585.747 35.1 582.647 35.1C578.797 35.1 576.547 37.8 576.547 41.5V55ZM623.29 55H617.19V35.4H612.44V30.3H617.19V22.6H623.29V30.3H628.09V35.4H623.29V55ZM348.7 98.3H352.25V95.3C352.25 88.6 355.8 85.8 361.15 85.8C362.1 85.8 363.25 85.85 364.3 86.05V91.25H362.15C359.05 91.25 358.3 92.85 358.3 95.3V98.3H364.2V103.4H358.3V123H352.25V103.4H348.7V98.3ZM380.911 110.6C380.911 102.9 386.461 97.6 394.111 97.6C401.761 97.6 407.311 102.9 407.311 110.6C407.311 118.3 401.761 123.6 394.111 123.6C386.461 123.6 380.911 118.3 380.911 110.6ZM387.011 110.6C387.011 115.1 389.911 118.15 394.111 118.15C398.311 118.15 401.211 115.1 401.211 110.6C401.211 106.1 398.311 103.05 394.111 103.05C389.911 103.05 387.011 106.1 387.011 110.6ZM442.646 98.2V103.85H440.396C435.996 103.85 433.246 106.2 433.246 111V123H427.146V98.35H432.896L433.246 101.95C434.296 99.5 436.646 97.85 439.946 97.85C440.796 97.85 441.646 97.95 442.646 98.2ZM467.957 123L459.957 98.3H466.307L469.557 108.9C470.107 110.85 470.607 113 471.057 115.3C471.507 112.9 471.957 111.35 472.757 108.9L476.157 98.3H482.357L485.657 108.9C485.957 109.9 486.957 113.6 487.257 115.25C487.657 113.4 488.457 110.45 488.907 108.9L492.207 98.3H498.657L490.107 123H484.407L481.007 112.3C480.007 109.05 479.457 106.7 479.257 105.45C479.007 106.6 478.557 108.35 477.307 112.4L473.907 123H467.957ZM523.48 123.65C518.23 123.65 515.03 120.6 515.03 115.95C515.03 111.4 518.33 108.55 524.18 108.1L531.58 107.55V107C531.58 103.65 529.58 102.3 526.48 102.3C522.88 102.3 520.88 103.8 520.88 106.4H515.68C515.68 101.05 520.08 97.55 526.78 97.55C533.43 97.55 537.53 101.15 537.53 108V123H532.18L531.73 119.35C530.68 121.9 527.33 123.65 523.48 123.65ZM525.48 119.05C529.23 119.05 531.63 116.8 531.63 113V111.7L526.48 112.1C522.68 112.45 521.23 113.7 521.23 115.7C521.23 117.95 522.73 119.05 525.48 119.05ZM574.023 98.2V103.85H571.773C567.373 103.85 564.623 106.2 564.623 111V123H558.523V98.35H564.273L564.623 101.95C565.673 99.5 568.023 97.85 571.323 97.85C572.173 97.85 573.023 97.95 574.023 98.2ZM602.472 123.65C595.322 123.65 590.872 118.4 590.872 110.75C590.872 103.05 595.372 97.55 602.822 97.55C606.272 97.55 609.322 99 610.872 101.45V85.8H616.922V123H611.322L610.922 119.15C609.422 122 606.222 123.65 602.472 123.65ZM603.822 118.05C608.072 118.05 610.822 115 610.822 110.55C610.822 106.1 608.072 103 603.822 103C599.572 103 596.972 106.15 596.972 110.55C596.972 114.95 599.572 118.05 603.822 118.05ZM354.2 161.35C352.15 161.35 350.5 159.7 350.5 157.65C350.5 155.6 352.15 154 354.2 154C356.2 154 357.9 155.6 357.9 157.65C357.9 159.7 356.2 161.35 354.2 161.35ZM345.25 202.6L346.25 197.2C347.1 197.45 347.6 197.5 348.35 197.5C350.45 197.5 351.15 196.3 351.15 193.8V166.3H357.25V194.5C357.25 199.75 354.25 203.15 348.9 203.15C347.75 203.15 346.85 203.05 345.25 202.6ZM377.102 178.6C377.102 170.9 382.652 165.6 390.302 165.6C397.952 165.6 403.502 170.9 403.502 178.6C403.502 186.3 397.952 191.6 390.302 191.6C382.652 191.6 377.102 186.3 377.102 178.6ZM383.202 178.6C383.202 183.1 386.102 186.15 390.302 186.15C394.502 186.15 397.402 183.1 397.402 178.6C397.402 174.1 394.502 171.05 390.302 171.05C386.102 171.05 383.202 174.1 383.202 178.6ZM428.988 191H423.338V153.8H429.438V169.9C431.038 167.15 434.338 165.5 438.088 165.5C445.138 165.5 449.438 171 449.438 178.8C449.438 186.4 444.788 191.65 437.688 191.65C433.988 191.65 430.838 190 429.388 187.15L428.988 191ZM429.488 178.55C429.488 183 432.238 186.05 436.438 186.05C440.738 186.05 443.288 182.95 443.288 178.55C443.288 174.15 440.738 171 436.438 171C432.238 171 429.488 174.1 429.488 178.55ZM495.871 183.5H501.671C501.721 185.65 503.321 187 506.121 187C508.971 187 510.521 185.85 510.521 184.05C510.521 182.8 509.871 181.9 507.671 181.4L503.221 180.35C498.771 179.35 496.621 177.25 496.621 173.3C496.621 168.45 500.721 165.55 506.421 165.55C511.971 165.55 515.721 168.75 515.771 173.55H509.971C509.921 171.45 508.521 170.1 506.171 170.1C503.771 170.1 502.371 171.2 502.371 173.05C502.371 174.45 503.471 175.35 505.571 175.85L510.021 176.9C514.171 177.85 516.271 179.75 516.271 183.55C516.271 188.55 512.021 191.65 505.921 191.65C499.771 191.65 495.871 188.35 495.871 183.5ZM538.966 161.35C536.866 161.35 535.216 159.7 535.216 157.65C535.216 155.6 536.866 154 538.966 154C540.966 154 542.616 155.6 542.616 157.65C542.616 159.7 540.966 161.35 538.966 161.35ZM535.916 191V166.3H542.016V191H535.916ZM571.718 191H565.618V171.4H560.868V166.3H565.618V158.6H571.718V166.3H576.518V171.4H571.718V191ZM606.116 191.65C598.766 191.65 593.616 186.3 593.616 178.65C593.616 170.9 598.666 165.55 605.916 165.55C613.316 165.55 618.016 170.5 618.016 178.2V180.05L599.416 180.1C599.866 184.45 602.166 186.65 606.216 186.65C609.566 186.65 611.766 185.35 612.466 183H618.116C617.066 188.4 612.566 191.65 606.116 191.65ZM605.966 170.55C602.366 170.55 600.166 172.5 599.566 176.2H611.966C611.966 172.8 609.616 170.55 605.966 170.55ZM640.484 191.6C638.284 191.6 636.434 189.8 636.434 187.65C636.434 185.45 638.284 183.65 640.484 183.65C642.684 183.65 644.534 185.45 644.534 187.65C644.534 189.8 642.684 191.6 640.484 191.6Z" fill="#0B5648"/>
</svg>
