<svg width="1888" height="2174" viewBox="0 0 1888 2174" fill="none" xmlns="http://www.w3.org/2000/svg">
<path d="M983 1946C983 1940.62 945.935 1936.19 898.36 1935.64C897.807 1888.06 893.381 1851 888 1851C882.619 1851 878.193 1888.06 877.64 1935.64C830.065 1936.19 793 1940.62 793 1946C793 1951.38 830.065 1955.81 877.64 1956.36C878.193 2003.94 882.619 2041 888 2041C893.381 2041 897.807 2003.94 898.36 1956.36C945.935 1955.81 983 1951.38 983 1946Z" fill="#C1D8D3"/>
<path d="M888 391H0C0 574.613 90.1535 723.5 201.335 723.5H0C0 907.113 90.1535 1056 201.335 1056H0C0 1239.61 90.1535 1388.5 201.335 1388.5H0C0 1572.11 90.1535 1721 201.335 1721H686.423C797.605 1721 887.758 1572.11 887.758 1388.5H686.423C797.605 1388.5 887.758 1239.61 887.758 1056H686.423C797.605 1056 887.758 907.113 887.758 723.5H686.423C797.846 723.899 888 574.613 888 391Z" fill="#F38143"/>
<path d="M1823 298.454C1823 290.429 1816.43 283.863 1808.4 283.863C1803.02 283.863 1731.69 286.781 1685.44 291.158C1729.86 277.479 1796.45 253.037 1801.47 250.94C1808.95 247.839 1812.42 239.357 1809.32 231.879C1806.21 224.401 1797.73 220.935 1790.25 224.036C1785.6 225.951 1728.95 252.216 1688.08 273.375C1723.29 243.644 1769.18 201.419 1772.83 197.862C1778.48 192.207 1778.48 182.905 1772.83 177.251C1767.17 171.596 1757.87 171.596 1752.21 177.251C1748.38 181.081 1700.3 233.247 1670.66 269.088C1692.37 228.049 1722.38 163.297 1724.48 158.281C1727.58 150.803 1724.02 142.321 1716.54 139.221C1709.06 136.12 1700.58 139.677 1697.48 147.155C1695.56 151.897 1673.48 211.906 1659.62 255.956C1663.45 209.9 1666.1 146.699 1666.1 141.592C1666.1 133.566 1659.53 127 1651.5 127C1643.47 127 1636.9 133.566 1636.9 141.592C1636.9 146.881 1639.73 214.916 1643.93 261.154C1630.15 216.831 1606.34 151.989 1604.25 147.064C1601.14 139.585 1592.66 136.12 1585.18 139.221C1577.7 142.321 1574.23 150.803 1577.34 158.281C1579.34 163.115 1607.62 224.036 1629.15 265.167C1599.41 229.599 1554.53 180.899 1550.88 177.251C1545.22 171.596 1535.92 171.596 1530.26 177.251C1524.61 182.905 1524.61 192.207 1530.26 197.862C1533.91 201.51 1581.53 245.376 1616.93 275.107C1575.78 253.676 1516.31 226.133 1511.47 224.218C1503.99 221.118 1495.51 224.674 1492.41 232.153C1489.3 239.631 1492.86 248.112 1500.34 251.213C1505.27 253.311 1571.31 277.479 1615.74 291.158C1569.49 286.872 1499.89 284.045 1494.6 284.045C1486.57 284.045 1480 290.611 1480 298.637C1480 306.662 1486.57 313.229 1494.6 313.229C1499.7 313.229 1562.37 310.675 1608.26 306.754C1564.29 320.707 1505.09 342.504 1500.43 344.419C1492.95 347.52 1489.49 356.001 1492.59 363.479C1495.69 370.958 1504.17 374.423 1511.65 371.323C1516.67 369.225 1581.44 339.22 1622.49 317.424C1586.73 346.972 1534.19 395.399 1530.36 399.229C1524.7 404.884 1524.7 414.186 1530.36 419.84C1536.01 425.495 1545.32 425.495 1550.97 419.84C1554.53 416.284 1597.31 369.863 1627.05 334.569C1605.89 375.518 1579.52 432.426 1577.61 437.077C1574.51 444.555 1578.07 453.037 1585.55 456.138C1593.03 459.238 1601.51 455.682 1604.61 448.203C1606.62 443.279 1630.61 377.889 1644.29 333.566C1640.01 379.804 1637.09 450.027 1637.09 455.408C1637.09 463.434 1643.65 470 1651.68 470C1659.71 470 1666.28 463.434 1666.28 455.408C1666.28 450.21 1663.54 384.638 1659.53 338.491C1673.48 382.631 1695.83 443.37 1697.75 448.112C1700.85 455.591 1709.34 459.056 1716.82 455.955C1724.3 452.855 1727.76 444.373 1724.66 436.895C1722.65 432.061 1694.83 372.052 1673.3 331.013C1703.04 366.671 1748.56 416.01 1752.21 419.749C1757.87 425.404 1767.17 425.404 1772.83 419.749C1778.48 414.095 1778.48 404.793 1772.83 399.138C1769.09 395.399 1718.28 348.614 1682.52 318.883C1723.66 340.406 1785.51 369.043 1790.34 371.049C1797.82 374.15 1806.31 370.593 1809.41 363.115C1812.51 355.636 1808.95 347.155 1801.47 344.054C1796.73 342.139 1737.34 320.342 1693.28 306.389C1739.35 310.402 1803.2 312.955 1808.31 312.955C1816.52 313.046 1823 306.48 1823 298.454Z" fill="#D5CB2C"/>
<path d="M1568.59 1390C1745.11 1390 1888 1533 1888 1709.26L1249 1709.26C1249.18 1533 1392.07 1390 1568.59 1390Z" fill="#FFABDA"/>
<path d="M1568.59 1709.26C1712.9 1709.26 1829.81 1826.11 1829.81 1970.35L1307.19 1970.35C1307.37 1826.29 1424.28 1709.26 1568.59 1709.26Z" fill="#FFABDA"/>
<path d="M1568.59 1970.53C1681.05 1970.53 1772.16 2061.59 1772.16 2174L1364.84 2174C1365.02 2061.59 1456.13 1970.53 1568.59 1970.53Z" fill="#FFABDA"/>
<path d="M1203 1309.73H1137.14L1183.68 1263.18L1174.82 1254.32L1128.27 1300.86V1235H1115.73V1300.86L1069.18 1254.32L1060.32 1263.18L1106.86 1309.73H1041V1322.27H1106.86L1060.32 1368.82L1069.18 1377.68L1115.73 1331.14V1397H1128.27V1331.14L1174.82 1377.68L1183.68 1368.82L1137.14 1322.27H1203V1309.73Z" fill="#308B7B"/>
<path d="M1886 63.5C1886 59.9031 1861.23 56.9449 1829.42 56.5752C1829.06 24.7747 1826.1 0 1822.5 0C1818.9 0 1815.94 24.7747 1815.58 56.5752C1783.77 56.9449 1759 59.9031 1759 63.5C1759 67.0969 1783.77 70.0551 1815.58 70.4248C1815.94 102.225 1818.9 127 1822.5 127C1826.1 127 1829.06 102.225 1829.42 70.4248C1861.23 70.0551 1886 67.0969 1886 63.5Z" fill="#D6A6DC"/>
</svg>
