<svg width="343" height="343" viewBox="0 0 343 343" fill="none" xmlns="http://www.w3.org/2000/svg">
<path d="M343 171.454C343 163.429 336.432 156.863 328.404 156.863C323.022 156.863 251.685 159.781 205.435 164.158C249.861 150.479 316.454 126.037 321.471 123.94C328.952 120.839 332.418 112.357 329.316 104.879C326.215 97.4007 317.731 93.9351 310.251 97.0359C305.598 98.9511 248.949 125.216 208.081 146.375C243.293 116.644 289.178 74.4185 292.827 70.8617C298.483 65.2074 298.483 55.9051 292.827 50.2507C287.171 44.5964 277.866 44.5964 272.211 50.2507C268.379 54.0811 220.305 106.247 190.657 142.088C212.368 101.049 242.381 36.2973 244.479 31.2813C247.58 23.803 244.023 15.3215 236.542 12.2207C229.062 9.11992 220.578 12.6767 217.477 20.155C215.561 24.8974 193.485 84.9064 179.619 128.956C183.45 82.9 186.096 19.699 186.096 14.5919C186.096 6.56634 179.528 0 171.5 0C163.472 0 156.904 6.56634 156.904 14.5919C156.904 19.8814 159.732 87.916 163.928 134.154C150.154 89.8312 126.344 24.9886 124.246 20.0638C121.145 12.5855 112.661 9.11992 105.181 12.2207C97.7003 15.3215 94.2338 23.803 97.3354 31.2813C99.3423 36.1149 127.622 97.0359 149.15 138.167C119.411 102.599 74.5295 53.8987 70.8806 50.2507C65.2247 44.5964 55.9199 44.5964 50.2641 50.2507C44.6082 55.9051 44.6082 65.2074 50.2641 70.8617C53.913 74.5097 101.532 118.376 136.926 148.107C95.7846 126.676 36.3069 99.1335 31.4721 97.2183C23.9918 94.1175 15.508 97.6743 12.4064 105.153C9.30479 112.631 12.8625 121.112 20.3428 124.213C25.2689 126.311 91.3146 150.479 135.74 164.158C89.4902 159.872 19.8867 157.045 14.5957 157.045C6.56809 157.045 0 163.611 0 171.637C0 179.662 6.56809 186.229 14.5957 186.229C19.7043 186.229 82.3747 183.675 128.26 179.754C84.2904 193.707 25.0864 215.504 20.434 217.419C12.9537 220.52 9.48724 229.001 12.5888 236.479C15.6904 243.958 24.1742 247.423 31.6545 244.323C36.6718 242.225 101.44 212.22 142.491 190.424C106.731 219.972 54.1867 268.399 50.3553 272.229C44.6995 277.884 44.6995 287.186 50.3553 292.84C56.0112 298.495 65.316 298.495 70.9718 292.84C74.5295 289.284 117.313 242.863 147.052 207.569C125.888 248.518 99.5247 305.426 97.609 310.077C94.5074 317.555 98.0652 326.037 105.545 329.138C113.026 332.238 121.51 328.682 124.611 321.203C126.618 316.279 150.61 250.889 164.293 206.566C160.006 252.804 157.087 323.027 157.087 328.408C157.087 336.434 163.655 343 171.682 343C179.71 343 186.278 336.434 186.278 328.408C186.278 323.21 183.541 257.638 179.528 211.491C193.485 255.631 215.835 316.37 217.75 321.112C220.852 328.591 229.336 332.056 236.816 328.955C244.296 325.855 247.763 317.373 244.661 309.895C242.654 305.061 214.831 245.052 193.302 204.013C223.041 239.671 268.562 289.01 272.211 292.749C277.866 298.404 287.171 298.404 292.827 292.749C298.483 287.095 298.483 277.793 292.827 272.138C289.087 268.399 238.276 221.614 202.516 191.883C243.658 213.406 305.507 242.043 310.342 244.049C317.822 247.15 326.306 243.593 329.408 236.115C332.509 228.636 328.952 220.155 321.471 217.054C316.728 215.139 257.341 193.342 213.28 179.389C259.348 183.402 323.205 185.955 328.313 185.955C336.523 186.046 343 179.48 343 171.454Z" fill="#D5CB2C"/>
</svg>
