<svg width="18" height="15" viewBox="0 0 18 15" fill="none" xmlns="http://www.w3.org/2000/svg">
<path d="M1.66667 1.66667L8.33333 5.83333L15 1.66667H1.66667ZM1.66667 13.3333C1.20833 13.3333 0.816111 13.1703 0.49 12.8442C0.163889 12.5181 0.000555556 12.1256 0 11.6667V1.66667C0 1.20833 0.163333 0.816111 0.49 0.49C0.816667 0.163889 1.20889 0.000555556 1.66667 0H15C15.4583 0 15.8508 0.163333 16.1775 0.49C16.5042 0.816666 16.6672 1.20889 16.6667 1.66667V5.83333C16.6667 6.06944 16.5867 6.2675 16.4267 6.4275C16.2667 6.5875 16.0689 6.66722 15.8333 6.66667C15.5978 6.66611 15.4 6.58611 15.24 6.42667C15.08 6.26722 15 6.06944 15 5.83333V3.33333L8.77083 7.22917C8.72917 7.25694 8.58333 7.29861 8.33333 7.35417C8.26389 7.35417 8.19111 7.34389 8.115 7.32333C8.03889 7.30278 7.96583 7.27139 7.89583 7.22917L1.66667 3.33333V11.6667H6.25C6.48611 11.6667 6.68417 11.7467 6.84417 11.9067C7.00417 12.0667 7.08389 12.2644 7.08333 12.5C7.08278 12.7356 7.00278 12.9336 6.84333 13.0942C6.68389 13.2547 6.48611 13.3344 6.25 13.3333H1.66667ZM11.625 12.6667L15.75 8.54167C15.9028 8.38889 16.0972 8.3125 16.3333 8.3125C16.5694 8.3125 16.7639 8.38889 16.9167 8.54167C17.0694 8.69444 17.1458 8.88889 17.1458 9.125C17.1458 9.36111 17.0694 9.55556 16.9167 9.70833L12.2083 14.4167C12.0417 14.5833 11.8472 14.6667 11.625 14.6667C11.4028 14.6667 11.2083 14.5833 11.0417 14.4167L8.66667 12.0417C8.51389 11.8889 8.4375 11.6944 8.4375 11.4583C8.4375 11.2222 8.51389 11.0278 8.66667 10.875C8.81944 10.7222 9.01389 10.6458 9.25 10.6458C9.48611 10.6458 9.68056 10.7222 9.83333 10.875L11.625 12.6667Z" fill="#A6A646"/>
</svg>
