<svg width="1000" height="1000" viewBox="0 0 1000 1000" fill="none" xmlns="http://www.w3.org/2000/svg">
<g clip-path="url(#clip0_226_476)">
<mask id="mask0_226_476" style="mask-type:luminance" maskUnits="userSpaceOnUse" x="0" y="0" width="1000" height="1000">
<path d="M1000 0H0V1000H1000V0Z" fill="white"/>
</mask>
<g mask="url(#mask0_226_476)">
<path d="M1000 0H0V1000H1000V0Z" fill="#FFABDA"/>
<path d="M501 282.6C501 282.6 501 249.9 501 224.3C501 207.7 487.6 194.3 471 194.3H308C291.4 194.3 278 180.9 278 164.3C278 147.7 291.4 134.3 308 134.3H594.4C611 134.3 624.4 120.9 624.4 104.3C624.4 87.7 611 74.3 594.4 74.3H531C514.4 74.3 501 60.9 501 44.3C501 26.7 501 8 501 8" stroke="#579AA3" stroke-width="6" stroke-miterlimit="10"/>
<path d="M510.8 295.6H489.1C487.5 295.6 486.3 294.3 486.3 292.8V290.3C486.3 288.7 487.6 287.5 489.1 287.5H510.8C512.4 287.5 513.6 288.8 513.6 290.3V292.8C513.7 294.3 512.4 295.6 510.8 295.6Z" fill="#579AA3"/>
<path d="M510.4 282.8H489.6C487.8 282.8 486.3 281.3 486.3 279.5V277.8C486.3 276 487.8 274.5 489.6 274.5H510.4C512.2 274.5 513.7 276 513.7 277.8V279.5C513.7 281.3 512.2 282.8 510.4 282.8Z" fill="#579AA3"/>
<path d="M509.9 288.8H490.1C488.9 288.8 487.9 287.8 487.9 286.6V283.7C487.9 282.5 488.9 281.5 490.1 281.5H509.9C511.1 281.5 512.2 282.5 512.2 283.7V286.6C512.2 287.8 511.2 288.8 509.9 288.8Z" fill="#579AA3"/>
<path d="M492 274.6C492 274.6 492 241.9 492 216.3C492 199.7 478.6 186.3 462 186.3H299C282.4 186.3 269 172.9 269 156.3C269 139.7 282.4 126.3 299 126.3H585.4C602 126.3 615.4 112.9 615.4 96.3C615.4 79.7 602 66.3 585.4 66.3H522C505.4 66.3 492 52.9 492 36.3C492 18.7 492 0 492 0" stroke="#308B7B" stroke-width="8" stroke-miterlimit="10" stroke-linecap="round" stroke-linejoin="round"/>
<path d="M502.8 295.6H481.1C479.5 295.6 478.3 294.3 478.3 292.8V290.3C478.3 288.7 479.6 287.5 481.1 287.5H502.8C504.4 287.5 505.6 288.8 505.6 290.3V292.8C505.7 294.3 504.4 295.6 502.8 295.6Z" fill="#308B7B"/>
<path d="M502.4 282.8H481.6C479.8 282.8 478.3 281.3 478.3 279.5V277.8C478.3 276 479.8 274.5 481.6 274.5H502.4C504.2 274.5 505.7 276 505.7 277.8V279.5C505.7 281.3 504.2 282.8 502.4 282.8Z" fill="#308B7B"/>
<path d="M501.9 288.3H482.1C480.9 288.3 479.9 287.3 479.9 286.1V284.2C479.9 283 480.9 282 482.1 282H501.9C503.1 282 504.1 283 504.1 284.2V286.1C504.2 287.3 503.2 288.3 501.9 288.3Z" fill="#308B7B"/>
<path d="M599.8 360.1C598.3 356.6 596.2 353.4 593.9 350.5C593.7 350.1 593.6 349.7 593.4 349.3C587.8 334.9 571.6 325.9 571.6 325.9C556.5 316.8 541.2 311.3 526.7 307.6C522.9 306.6 519.2 309.5 519.2 313.4V331.2H483.2V313.4C483.2 309.5 479.5 306.6 475.7 307.6C461.1 311.3 445.9 316.8 430.8 325.9C430.8 325.9 414.6 334.8 409 349.3C403.9 362.3 397 384.3 390.7 410.7L381.4 413.7C376.5 434.8 372.1 458.4 369.3 482.2L378 479.5C377.1 486.4 376.4 493.4 375.8 500.4L367.3 502.6C365 532.4 365.8 561.6 371.9 585.7L381.1 587.1C381.2 587.4 381.3 587.8 381.4 588.1C413.1 664 431.1 708.9 444.8 718.1C458.3 727.2 485.6 729.4 501.3 728.8C516.8 729.5 543.7 728 557.4 719.1C558.6 718.5 559.2 717.8 560.3 717.1C575 707.9 592.2 671.7 622.3 604.7L628.3 591.3L628.4 591C651 520.1 615.3 396.9 599.8 360.1Z" fill="#579AA3" stroke="#579AA3" stroke-width="6" stroke-miterlimit="10"/>
<path d="M384 480.3H373L358 484.2C355.7 514 356.5 543.2 362.6 567.3L392.4 571.8L384 480.3Z" fill="#308B7B"/>
<path d="M384 480.3H373L358 484.2C355.7 514 356.5 543.2 362.6 567.3L392.4 571.8L384 480.3Z" stroke="#308B7B" stroke-width="3" stroke-miterlimit="10" stroke-linecap="round" stroke-linejoin="round"/>
<path d="M374.7 459.3L387.7 390.3L372.2 395.3C367.3 416.4 362.9 440 360.1 463.8L374.7 459.3Z" fill="#308B7B"/>
<path d="M387 480.3H376L361 484.2C358.7 514 359.5 543.2 365.6 567.3L395.4 571.8L387 480.3Z" fill="#50B09F"/>
<path d="M377.7 459.3L390.7 390.3L375.2 395.3C370.3 416.4 365.9 440 363.1 463.8L377.7 459.3Z" fill="#50B09F"/>
<path d="M374.7 459.3L387.7 390.3L372.2 395.3C367.3 416.4 362.9 440 360.1 463.8L374.7 459.3Z" stroke="#308B7B" stroke-width="3" stroke-miterlimit="10" stroke-linecap="round" stroke-linejoin="round"/>
<path d="M590.6 341.8C584.3 326.8 567.3 317.6 565.5 316.7C559.9 313.6 554.1 310.8 548.1 308.3V701.2C549.3 700.6 550.6 699.9 551.7 699.2C566.4 690 582.9 653.1 613.1 586.2L619.1 572.8L619.2 572.5C641.8 501.8 606.1 378.7 590.6 341.8Z" fill="#308B7B"/>
<path d="M590.6 341.8C584.3 326.8 567.3 317.6 565.5 316.7C559.9 313.6 554.1 310.8 548.1 308.3V701.2C549.3 700.6 550.6 699.9 551.7 699.2C566.4 690 582.9 653.1 613.1 586.2L619.1 572.8L619.2 572.5C641.8 501.8 606.1 378.7 590.6 341.8Z" stroke="#308B7B" stroke-width="3" stroke-miterlimit="10" stroke-linecap="round" stroke-linejoin="round"/>
<path d="M584.2 331C578.6 316.6 562.4 307.6 562.4 307.6C547.3 298.5 532 293 517.5 289.3C513.7 288.3 510 291.2 510 295.1V313H474V295.2C474 291.3 470.3 288.4 466.5 289.4C451.9 293.1 436.7 298.6 421.6 307.7C421.6 307.7 405.4 316.6 399.8 331.1C384.1 371.2 350.8 498.1 372.1 569.8C403.8 645.7 421.8 690.6 435.5 699.8C449 708.9 476.3 711.1 492 710.5C507.7 711.2 535 709 548.5 699.8C562.1 690.6 580.2 645.7 611.9 569.8C633.2 498 599.9 371.1 584.2 331Z" fill="#237768"/>
<path d="M579.3 390.3C579.3 364.2 577.1 339 572.9 315.4C567.4 310.4 562.4 307.6 562.4 307.6C547.3 298.5 532 293 517.5 289.3C513.7 288.3 510 291.2 510 295.1V313H474V295.2C474 291.3 470.3 288.4 466.5 289.4C451.9 293.1 436.7 298.6 421.6 307.7C421.6 307.7 405.4 316.6 399.8 331.1C384.1 371.2 350.8 498.1 372.1 569.8C381.4 592.2 389.6 611.8 396.8 628.6C410.2 636.2 424.4 640.3 439.2 640.3C516.6 640.2 579.3 528.3 579.3 390.3Z" fill="#50B09F"/>
<path d="M584.2 331C578.6 316.6 562.4 307.6 562.4 307.6C547.3 298.5 532 293 517.5 289.3C513.7 288.3 510 291.2 510 295.1V313H474V295.2C474 291.3 470.3 288.4 466.5 289.4C451.9 293.1 436.7 298.6 421.6 307.7C421.6 307.7 405.4 316.6 399.8 331.1C384.1 371.2 350.8 498.1 372.1 569.8C403.8 645.7 421.8 690.6 435.5 699.8C449 708.9 476.3 711.1 492 710.5C507.7 711.2 535 709 548.5 699.8C562.1 690.6 580.2 645.7 611.9 569.8C633.2 498 599.9 371.1 584.2 331Z" stroke="#308B7B" stroke-width="6" stroke-miterlimit="10" stroke-linecap="round" stroke-linejoin="round"/>
<path d="M474 307.1V295C474 291.1 470.4 288.3 466.6 289.2C451.9 292.9 436.6 298.4 421.4 307.6C421.4 307.6 405 316.5 399.4 331C390.2 354.4 375.1 407.4 368.3 461.7C367.7 466.5 372.7 470 377 467.7C391.7 459.8 407.4 451.5 418.2 446.4C442.6 434.8 475.9 424.9 487.6 421.6C490.2 420.9 491.9 418.5 491.9 415.9V319C491.9 315.7 489.2 313.1 486 313.1H479.9C476.7 313 474 310.4 474 307.1Z" stroke="#308B7B" stroke-width="6" stroke-miterlimit="10" stroke-linecap="round" stroke-linejoin="round"/>
<path d="M584.2 331C578.6 316.6 562.4 307.6 562.4 307.6C547.3 298.5 532 293 517.5 289.3C513.7 288.3 510 291.2 510 295.1V313H492V420.4C492 420.4 535.3 432 565.5 446.4C576.3 451.5 592 459.8 606.6 467.7C610.9 470 615.9 466.5 615.3 461.7C608.5 407.4 593.4 354.4 584.2 331Z" stroke="#308B7B" stroke-width="6" stroke-miterlimit="10" stroke-linecap="round" stroke-linejoin="round"/>
<path d="M492 534C482.1 534 474 525.9 474 516V306C474 300.7 478.3 296.3 483.7 296.3H500.4C505.7 296.3 510.1 300.6 510.1 306V516C510 526 501.9 534 492 534Z" fill="#308B7B"/>
<path d="M510 352.3V306C510 300.7 505.7 296.3 500.3 296.3H483.6C478.3 296.3 473.9 300.6 473.9 306V504.8L510 352.3Z" fill="#A6A646"/>
<path d="M499.9 468.6V440.3C499.9 436 496.4 432.4 492 432.4C487.6 432.4 484.1 435.9 484.1 440.3V468.6H499.9Z" fill="#A6A646"/>
<path d="M499.9 476.6V504.9C499.9 509.2 496.4 512.8 492 512.8C487.6 512.8 484.1 509.3 484.1 504.9V476.6H499.9Z" fill="#A6A646"/>
<path d="M492 534C482.1 534 474 525.9 474 516V306.1C474 300.7 478.4 296.3 483.8 296.3H500.3C505.7 296.3 510.1 300.7 510.1 306.1V516C510 526 501.9 534 492 534Z" stroke="#308B7B" stroke-width="6" stroke-miterlimit="10" stroke-linecap="round" stroke-linejoin="round"/>
<path d="M495.2 402.3H488.7C485 402.3 482 399.3 482 395.6V351.1C482 347.4 485 344.4 488.7 344.4H495.2C498.9 344.4 501.9 347.4 501.9 351.1V395.6C502 399.3 498.9 402.3 495.2 402.3Z" fill="#A6A646"/>
<path d="M483.1 396.5H500.9" stroke="#C1D8D3" stroke-width="2" stroke-miterlimit="10" stroke-linecap="round" stroke-linejoin="round"/>
<path d="M483.1 390.5H500.9" stroke="#C1D8D3" stroke-width="2" stroke-miterlimit="10" stroke-linecap="round" stroke-linejoin="round"/>
<path d="M483.1 384.5H500.9" stroke="#C1D8D3" stroke-width="2" stroke-miterlimit="10" stroke-linecap="round" stroke-linejoin="round"/>
<path d="M483.1 378.5H500.9" stroke="#C1D8D3" stroke-width="2" stroke-miterlimit="10" stroke-linecap="round" stroke-linejoin="round"/>
<path d="M483.1 372.5H500.9" stroke="#C1D8D3" stroke-width="2" stroke-miterlimit="10" stroke-linecap="round" stroke-linejoin="round"/>
<path d="M483.1 366.5H500.9" stroke="#C1D8D3" stroke-width="2" stroke-miterlimit="10" stroke-linecap="round" stroke-linejoin="round"/>
<path d="M483.1 360.5H500.9" stroke="#C1D8D3" stroke-width="2" stroke-miterlimit="10" stroke-linecap="round" stroke-linejoin="round"/>
<path d="M483.1 354.5H500.9" stroke="#C1D8D3" stroke-width="2" stroke-miterlimit="10" stroke-linecap="round" stroke-linejoin="round"/>
<path d="M483.1 348.5H500.9" stroke="#C1D8D3" stroke-width="2" stroke-miterlimit="10" stroke-linecap="round" stroke-linejoin="round"/>
<path d="M495.2 402.3C493 402.3 490.9 402.3 488.7 402.3C485 402.3 481.7 399.3 481.3 395.6C480 380.8 480 365.9 481.3 351.1C481.7 347.4 485 344.4 488.7 344.4C490.9 344.4 493 344.4 495.2 344.4C498.9 344.4 502.2 347.4 502.6 351.1C503.9 365.9 503.9 380.8 502.6 395.6C502.3 399.3 498.9 402.3 495.2 402.3Z" stroke="#308B7B" stroke-width="3" stroke-miterlimit="10" stroke-linecap="round" stroke-linejoin="round"/>
<path d="M497 402.3H487C484.2 402.3 482 400.1 482 397.3V349.3C482 346.5 484.2 344.3 487 344.3H497C499.8 344.3 502 346.5 502 349.3V397.3C502 400.1 499.7 402.3 497 402.3Z" stroke="#308B7B" stroke-width="3" stroke-miterlimit="10" stroke-linecap="round" stroke-linejoin="round"/>
<path d="M499.9 468.6V440.3C499.9 436 496.4 432.4 492 432.4C487.6 432.4 484.1 435.9 484.1 440.3V468.6H499.9Z" stroke="#308B7B" stroke-width="3" stroke-miterlimit="10" stroke-linecap="round" stroke-linejoin="round"/>
<path d="M499.9 476.6V504.9C499.9 509.2 496.4 512.8 492 512.8C487.6 512.8 484.1 509.3 484.1 504.9V476.6H499.9Z" stroke="#308B7B" stroke-width="3" stroke-miterlimit="10" stroke-linecap="round" stroke-linejoin="round"/>
</g>
</g>
<defs>
<clipPath id="clip0_226_476">
<rect width="1000" height="1000" fill="white"/>
</clipPath>
</defs>
</svg>
