<svg width="18" height="18" viewBox="0 0 18 18" fill="none" xmlns="http://www.w3.org/2000/svg">
<path d="M18 9C18 13.9705 13.9705 18 9 18C4.02955 18 0 13.9705 0 9C0 4.02955 4.02955 0 9 0C13.9705 0 18 4.02955 18 9ZM4.5 12.6818H7.26382C7.39048 13.0411 7.6255 13.3523 7.93647 13.5724C8.24743 13.7925 8.61902 13.9107 9 13.9107C9.38097 13.9107 9.75257 13.7925 10.0635 13.5724C10.3745 13.3523 10.6095 13.0411 10.7362 12.6818H13.5V11.358L12.6818 9.72164V7.77273C12.6818 6.79625 12.2939 5.85976 11.6034 5.16929C10.913 4.47881 9.97648 4.09091 9 4.09091C8.02352 4.09091 7.08704 4.47881 6.39656 5.16929C5.70609 5.85976 5.31818 6.79625 5.31818 7.77273V9.72164L4.5 11.358V12.6818Z" fill="#F8F2EC"/>
</svg>
