<svg width="1282" height="1858" viewBox="0 0 1282 1858" fill="none" xmlns="http://www.w3.org/2000/svg">
<path d="M561 1791.5C561 1787.73 535.055 1784.64 501.752 1784.25C501.365 1750.95 498.267 1725 494.5 1725C490.733 1725 487.635 1750.95 487.248 1784.25C453.945 1784.64 428 1787.73 428 1791.5C428 1795.27 453.945 1798.36 487.248 1798.75C487.635 1832.05 490.733 1858 494.5 1858C498.267 1858 501.365 1832.05 501.752 1798.75C535.055 1798.36 561 1795.27 561 1791.5Z" fill="#E673A9"/>
<path d="M1282 1274.13C1282 1203.41 1220.47 1146.25 1144.36 1146.25C1220.47 1146.25 1282 1089.09 1282 1018.37C1282 947.664 1220.47 890.5 1144.36 890.5C1220.47 890.5 1282 833.336 1282 762.625C1282 691.914 1220.47 634.75 1144.36 634.75C1220.47 634.75 1282 577.586 1282 506.875C1282 436.164 1220.47 379 1144.36 379L536.641 379C460.53 379 399 436.164 399 506.875C399 577.586 460.53 634.75 536.641 634.75C460.53 634.75 399 691.914 399 762.625C399 833.335 460.53 890.5 536.641 890.5C460.53 890.5 399 947.664 399 1018.37C399 1089.09 460.53 1146.25 536.641 1146.25C460.53 1146.25 399 1203.41 399 1274.13C399 1344.84 460.53 1402 536.641 1402L1144.36 1402C1220.47 1402 1282 1344.84 1282 1274.13Z" fill="#A6A646"/>
<path d="M194 1586.49H115.128L170.864 1530.75L160.248 1520.14L104.512 1575.87V1497H89.4884V1575.87L33.7522 1520.14L23.1358 1530.75L78.872 1586.49H0V1601.51H78.872L23.1358 1657.25L33.7522 1667.86L89.4884 1612.13V1691H104.512V1612.13L160.248 1667.86L170.864 1657.25L115.128 1601.51H194V1586.49Z" fill="#F38143"/>
<path d="M428 81.0715H368.73L410.655 39.1462L388.854 17.3451L346.929 59.2704V0H316.072V59.2704L274.146 17.3451L252.345 39.1462L294.27 81.0715H235V111.929H294.27L252.345 153.854L274.146 175.655L316.072 133.73V193H346.929V133.73L388.854 175.655L410.655 153.854L368.73 111.929H428V81.0715Z" fill="#E673A9"/>
</svg>
