<svg width="22" height="22" viewBox="0 0 22 22" fill="none" xmlns="http://www.w3.org/2000/svg">
<path d="M11 1.375C9.09636 1.375 7.23546 1.9395 5.65264 2.99711C4.06982 4.05471 2.83616 5.55793 2.10766 7.31667C1.37917 9.07541 1.18856 11.0107 1.55995 12.8777C1.93133 14.7448 2.84802 16.4598 4.1941 17.8059C5.54018 19.152 7.25519 20.0687 9.12226 20.4401C10.9893 20.8114 12.9246 20.6208 14.6833 19.8923C16.4421 19.1638 17.9453 17.9302 19.0029 16.3474C20.0605 14.7645 20.625 12.9036 20.625 11C20.625 8.44729 19.6109 5.99913 17.8059 4.1941C16.0009 2.38906 13.5527 1.375 11 1.375ZM9.625 14.8431L6.1875 11.4056L7.28063 10.3125L9.625 12.6569L14.7194 7.5625L15.8166 8.65288L9.625 14.8431Z" fill="#F8F2EC"/>
</svg>
