<svg width="666" height="218" viewBox="0 0 666 218" fill="none" xmlns="http://www.w3.org/2000/svg">
<path d="M361.825 49.5618H367.8C367.851 51.7674 369.5 53.1522 372.384 53.1522C375.32 53.1522 376.916 51.9725 376.916 50.126C376.916 48.8438 376.247 47.9205 373.981 47.4076L369.397 46.3305C364.813 45.3046 362.598 43.1504 362.598 39.0984C362.598 34.1231 366.821 31.1482 372.693 31.1482C378.41 31.1482 382.273 34.4309 382.324 39.3548H376.35C376.298 37.2006 374.856 35.8157 372.435 35.8157C369.963 35.8157 368.521 36.9441 368.521 38.8419C368.521 40.2781 369.654 41.2013 371.817 41.7142L376.401 42.7914C380.676 43.7659 382.84 45.715 382.84 49.6131C382.84 54.7423 378.462 57.9223 372.178 57.9223C365.843 57.9223 361.825 54.5371 361.825 49.5618Z" fill="#726A3C"/>
<path d="M411.728 57.2555H405.445V37.1493H400.552V31.9176H405.445V24.0187H411.728V31.9176H416.673V37.1493H411.728V57.2555Z" fill="#726A3C"/>
<path d="M451.998 31.815V37.6109H449.68C445.147 37.6109 442.315 40.0216 442.315 44.9456V57.2555H436.031V31.9689H441.954L442.315 35.6619C443.396 33.1486 445.817 31.456 449.216 31.456C450.092 31.456 450.967 31.5585 451.998 31.815Z" fill="#726A3C"/>
<path d="M478.268 57.9223C472.86 57.9223 469.563 54.7936 469.563 50.0235C469.563 45.3559 472.963 42.4323 478.989 41.9707L486.612 41.4065V40.8423C486.612 37.4058 484.551 36.0209 481.358 36.0209C477.65 36.0209 475.589 37.5596 475.589 40.2268H470.233C470.233 34.7386 474.765 31.1482 481.667 31.1482C488.517 31.1482 492.741 34.8412 492.741 41.8681V57.2555H487.23L486.766 53.5113C485.684 56.1271 482.234 57.9223 478.268 57.9223ZM480.328 53.2035C484.191 53.2035 486.663 50.8954 486.663 46.9973V45.6637L481.358 46.074C477.444 46.4331 475.95 47.7153 475.95 49.767C475.95 52.0751 477.495 53.2035 480.328 53.2035Z" fill="#726A3C"/>
<path d="M517.507 26.8397C515.344 26.8397 513.644 25.1471 513.644 23.0442C513.644 20.9412 515.344 19.2999 517.507 19.2999C519.567 19.2999 521.267 20.9412 521.267 23.0442C521.267 25.1471 519.567 26.8397 517.507 26.8397ZM514.365 57.2555V31.9176H520.649V57.2555H514.365Z" fill="#726A3C"/>
<path d="M541.151 44.0224C541.151 36.6364 545.992 31.0969 553.254 31.0969C557.066 31.0969 560.053 32.687 561.547 35.4054L561.907 31.9176H567.727V55.9733C567.727 64.4363 562.628 69.7194 554.387 69.7194C547.074 69.7194 542.078 65.5648 541.305 58.7943H547.589C548.001 62.0769 550.525 64.026 554.387 64.026C558.714 64.026 561.495 61.3076 561.495 57.1017V52.8958C559.899 55.2552 556.757 56.7426 553.1 56.7426C545.889 56.7426 541.151 51.357 541.151 44.0224ZM547.486 43.8685C547.486 48.1257 550.215 51.3057 554.336 51.3057C558.662 51.3057 561.341 48.2795 561.341 43.8685C561.341 39.56 558.714 36.5851 554.336 36.5851C550.164 36.5851 547.486 39.7139 547.486 43.8685Z" fill="#726A3C"/>
<path d="M595.966 57.2555H589.682V19.0947H596.017V35.2002C597.614 32.7382 600.601 31.1482 604.258 31.1482C610.542 31.1482 613.838 35.0977 613.838 41.663V57.2555H607.554V43.1504C607.554 38.8932 605.443 36.8416 602.249 36.8416C598.283 36.8416 595.966 39.6113 595.966 43.4069V57.2555Z" fill="#726A3C"/>
<path d="M644.116 57.2555H637.833V37.1493H632.94V31.9176H637.833V24.0187H644.116V31.9176H649.061V37.1493H644.116V57.2555Z" fill="#726A3C"/>
<path d="M361.259 101.101H364.916V98.0239C364.916 91.1508 368.573 88.2785 374.084 88.2785C375.062 88.2785 376.247 88.3298 377.328 88.535V93.8693H375.114C371.92 93.8693 371.148 95.5106 371.148 98.0239V101.101H377.225V106.333H371.148V126.439H364.916V106.333H361.259V101.101Z" fill="#726A3C"/>
<path d="M394.439 113.719C394.439 105.82 400.157 100.383 408.037 100.383C415.917 100.383 421.634 105.82 421.634 113.719C421.634 121.618 415.917 127.055 408.037 127.055C400.157 127.055 394.439 121.618 394.439 113.719ZM400.723 113.719C400.723 118.335 403.71 121.464 408.037 121.464C412.363 121.464 415.351 118.335 415.351 113.719C415.351 109.103 412.363 105.974 408.037 105.974C403.71 105.974 400.723 109.103 400.723 113.719Z" fill="#726A3C"/>
<path d="M458.033 100.999V106.795H455.716C451.183 106.795 448.35 109.205 448.35 114.129V126.439H442.067V101.153H447.99L448.35 104.846C449.432 102.332 451.853 100.64 455.252 100.64C456.128 100.64 457.003 100.742 458.033 100.999Z" fill="#726A3C"/>
<path d="M484.107 126.439L475.866 101.101H482.407L485.755 111.975C486.321 113.976 486.836 116.181 487.3 118.54C487.764 116.078 488.227 114.488 489.051 111.975L492.554 101.101H498.94L502.34 111.975C502.649 113.001 503.679 116.797 503.988 118.489C504.4 116.591 505.224 113.565 505.688 111.975L509.087 101.101H515.731L506.924 126.439H501.052L497.55 115.463C496.52 112.129 495.953 109.718 495.747 108.436C495.489 109.616 495.026 111.411 493.738 115.566L490.236 126.439H484.107Z" fill="#726A3C"/>
<path d="M541.301 127.106C535.893 127.106 532.597 123.977 532.597 119.207C532.597 114.54 535.996 111.616 542.023 111.154L549.645 110.59V110.026C549.645 106.59 547.585 105.205 544.392 105.205C540.683 105.205 538.623 106.743 538.623 109.411H533.267C533.267 103.922 537.799 100.332 544.701 100.332C551.551 100.332 555.774 104.025 555.774 111.052V126.439H550.263L549.8 122.695C548.718 125.311 545.267 127.106 541.301 127.106ZM543.362 122.387C547.225 122.387 549.697 120.079 549.697 116.181V114.847L544.392 115.258C540.477 115.617 538.984 116.899 538.984 118.951C538.984 121.259 540.529 122.387 543.362 122.387Z" fill="#726A3C"/>
<path d="M593.366 100.999V106.795H591.048C586.516 106.795 583.683 109.205 583.683 114.129V126.439H577.399V101.153H583.322L583.683 104.846C584.764 102.332 587.185 100.64 590.584 100.64C591.46 100.64 592.336 100.742 593.366 100.999Z" fill="#726A3C"/>
<path d="M622.671 127.106C615.306 127.106 610.722 121.721 610.722 113.873C610.722 105.974 615.357 100.332 623.032 100.332C626.585 100.332 629.727 101.819 631.324 104.333V88.2785H637.556V126.439H631.788L631.375 122.49C629.83 125.414 626.534 127.106 622.671 127.106ZM624.062 121.361C628.44 121.361 631.272 118.233 631.272 113.668C631.272 109.103 628.44 105.923 624.062 105.923C619.684 105.923 617.005 109.154 617.005 113.668C617.005 118.181 619.684 121.361 624.062 121.361Z" fill="#726A3C"/>
<path d="M366.924 165.207C364.813 165.207 363.113 163.515 363.113 161.412C363.113 159.309 364.813 157.667 366.924 157.667C368.985 157.667 370.736 159.309 370.736 161.412C370.736 163.515 368.985 165.207 366.924 165.207ZM357.705 207.523L358.735 201.983C359.611 202.24 360.126 202.291 360.898 202.291C363.061 202.291 363.783 201.06 363.783 198.495V170.285H370.066V199.214C370.066 204.599 366.976 208.087 361.465 208.087C360.28 208.087 359.353 207.984 357.705 207.523Z" fill="#726A3C"/>
<path d="M390.516 182.903C390.516 175.004 396.233 169.567 404.114 169.567C411.994 169.567 417.711 175.004 417.711 182.903C417.711 190.802 411.994 196.239 404.114 196.239C396.233 196.239 390.516 190.802 390.516 182.903ZM396.8 182.903C396.8 187.519 399.787 190.648 404.114 190.648C408.44 190.648 411.427 187.519 411.427 182.903C411.427 178.287 408.44 175.158 404.114 175.158C399.787 175.158 396.8 178.287 396.8 182.903Z" fill="#726A3C"/>
<path d="M443.964 195.623H438.143V157.462H444.427V173.978C446.075 171.157 449.475 169.464 453.337 169.464C460.6 169.464 465.029 175.107 465.029 183.108C465.029 190.904 460.239 196.29 452.925 196.29C449.114 196.29 445.869 194.597 444.376 191.674L443.964 195.623ZM444.479 182.852C444.479 187.417 447.311 190.545 451.638 190.545C456.067 190.545 458.694 187.365 458.694 182.852C458.694 178.338 456.067 175.107 451.638 175.107C447.311 175.107 444.479 178.287 444.479 182.852Z" fill="#726A3C"/>
<path d="M512.861 187.929H518.835C518.887 190.135 520.535 191.52 523.419 191.52C526.355 191.52 527.952 190.34 527.952 188.494C527.952 187.211 527.282 186.288 525.016 185.775L520.432 184.698C515.848 183.672 513.633 181.518 513.633 177.466C513.633 172.491 517.857 169.516 523.728 169.516C529.446 169.516 533.308 172.798 533.36 177.722H527.385C527.334 175.568 525.892 174.183 523.471 174.183C520.999 174.183 519.557 175.312 519.557 177.21C519.557 178.646 520.69 179.569 522.853 180.082L527.437 181.159C531.712 182.133 533.875 184.083 533.875 187.981C533.875 193.11 529.497 196.29 523.213 196.29C516.878 196.29 512.861 192.905 512.861 187.929Z" fill="#726A3C"/>
<path d="M557.253 165.207C555.09 165.207 553.39 163.515 553.39 161.412C553.39 159.309 555.09 157.667 557.253 157.667C559.313 157.667 561.013 159.309 561.013 161.412C561.013 163.515 559.313 165.207 557.253 165.207ZM554.111 195.623V170.285H560.395V195.623H554.111Z" fill="#726A3C"/>
<path d="M590.991 195.623H584.708V175.517H579.815V170.285H584.708V162.386H590.991V170.285H595.936V175.517H590.991V195.623Z" fill="#726A3C"/>
<path d="M626.425 196.29C618.854 196.29 613.549 190.802 613.549 182.954C613.549 175.004 618.751 169.516 626.219 169.516C633.842 169.516 638.683 174.594 638.683 182.493V184.39L619.523 184.442C619.987 188.904 622.356 191.161 626.528 191.161C629.979 191.161 632.245 189.827 632.966 187.416H638.786C637.705 192.956 633.069 196.29 626.425 196.29ZM626.27 174.645C622.562 174.645 620.296 176.645 619.678 180.441H632.451C632.451 176.953 630.03 174.645 626.27 174.645Z" fill="#726A3C"/>
<path d="M661.828 196.239C659.562 196.239 657.656 194.392 657.656 192.187C657.656 189.93 659.562 188.083 661.828 188.083C664.094 188.083 666 189.93 666 192.187C666 194.392 664.094 196.239 661.828 196.239Z" fill="#726A3C"/>
<path d="M283.009 5.01614C299.24 5.01614 312.593 18.1198 312.593 34.284C312.593 50.4482 299.24 63.5518 283.009 63.5518C266.777 63.5518 253.425 50.4482 253.425 34.284C253.425 18.1198 266.777 5.01614 283.009 5.01614Z" fill="#A04125"/>
<path d="M283.362 82.3782C299.505 82.3782 312.593 95.411 312.593 111.488C312.593 127.565 299.505 140.597 283.362 140.597H282.656C266.512 140.597 253.425 127.565 253.425 111.488C253.425 95.411 266.512 82.3782 282.656 82.3782H283.362Z" fill="#B75F7F"/>
<path d="M283.009 159.266C299.24 159.266 312.593 172.369 312.593 188.533C312.593 204.698 299.24 217.801 283.009 217.801C266.777 217.801 253.425 204.698 253.425 188.533C253.425 172.369 266.777 159.266 283.009 159.266Z" fill="#A1AA7F"/>
<path d="M118.258 7.29362C134.402 7.29362 147.489 20.3264 147.489 36.4033C147.489 52.4801 134.402 65.5129 118.258 65.5129L117.552 65.5129C101.408 65.5129 88.321 52.4801 88.321 36.4032C88.321 20.3264 101.408 7.29362 117.552 7.29362H118.258Z" fill="#C4B14B"/>
<path d="M200.284 5.01614C216.516 5.01614 229.868 18.1198 229.868 34.284C229.868 50.4482 216.516 63.5518 200.284 63.5518C184.053 63.5518 170.7 50.4482 170.7 34.284C170.7 18.1198 184.053 5.01614 200.284 5.01614Z" fill="#D46F29"/>
<path d="M200.637 82.3781C216.781 82.3781 229.868 95.411 229.868 111.488C229.868 127.565 216.781 140.597 200.637 140.597H199.932C183.788 140.597 170.7 127.565 170.7 111.488C170.7 95.411 183.788 82.3781 199.932 82.3781H200.637Z" fill="#0C453F"/>
<path d="M200.284 159.266C216.516 159.266 229.868 172.369 229.868 188.533C229.868 204.698 216.516 217.801 200.284 217.801C184.053 217.801 170.7 204.698 170.7 188.533C170.7 172.369 184.053 159.266 200.284 159.266Z" fill="#D99BC0"/>
<path d="M35.1807 84.181C51.4123 84.181 64.7647 97.2847 64.7647 113.449C64.7647 129.613 51.4123 142.717 35.1807 142.717C18.9491 142.717 5.59674 129.613 5.59674 113.449C5.59674 97.2847 18.9491 84.181 35.1807 84.181Z" fill="#D6A6DC"/>
<path d="M117.905 84.181C134.137 84.181 147.489 97.2847 147.489 113.449C147.489 129.613 134.137 142.717 117.905 142.717C101.673 142.717 88.321 129.613 88.321 113.449C88.321 97.2847 101.673 84.181 117.905 84.181Z" fill="#5C8371"/>
<path d="M35.1807 159.464C51.4123 159.464 64.7647 172.568 64.7647 188.732C64.7647 204.896 51.4123 218 35.1807 218C18.9491 218 5.59674 204.896 5.59674 188.732C5.59674 172.568 18.9491 159.464 35.1807 159.464Z" fill="#737FB1"/>
<path d="M117.905 159.464C134.137 159.464 147.489 172.568 147.489 188.732C147.489 204.896 134.137 218 117.905 218C101.673 218 88.321 204.896 88.321 188.732C88.321 172.568 101.673 159.464 117.905 159.464Z" fill="#726A3C"/>
<path d="M35.8109 7.29362C51.9548 7.29362 65.0419 20.3264 65.0419 36.4033C65.0419 52.4801 51.9547 65.5129 35.8109 65.5129L34.9665 65.5129C18.8226 65.5129 5.73542 52.4801 5.73542 36.4032C5.73542 20.3264 18.8226 7.29362 34.9665 7.29362H35.8109Z" fill="#DBA029"/>
<path d="M277.412 0C293.644 7.06559e-07 306.996 13.1037 306.996 29.2678C306.996 45.432 293.644 58.5357 277.412 58.5357C261.18 58.5357 247.828 45.432 247.828 29.2678C247.828 13.1037 261.18 -7.06559e-07 277.412 0Z" fill="#726A3C"/>
<path d="M277.765 77.362C293.909 77.362 306.996 90.3948 306.996 106.472C306.996 122.548 293.909 135.581 277.765 135.581H277.059C260.915 135.581 247.828 122.548 247.828 106.472C247.828 90.3948 260.915 77.362 277.059 77.362H277.765Z" fill="#A04125"/>
<path d="M277.412 154.249C293.644 154.249 306.996 167.353 306.996 183.517C306.996 199.681 293.644 212.785 277.412 212.785C261.18 212.785 247.828 199.681 247.828 183.517C247.828 167.353 261.18 154.249 277.412 154.249Z" fill="#D6A6DC"/>
<path d="M112.661 2.27748C128.805 2.27748 141.892 15.3103 141.892 31.3871C141.892 47.4639 128.805 60.4967 112.661 60.4967H111.955C95.8115 60.4967 82.7243 47.4639 82.7243 31.3871C82.7243 15.3103 95.8115 2.27748 111.955 2.27748H112.661Z" fill="#0C453F"/>
<path d="M194.688 0C210.919 7.06559e-07 224.272 13.1037 224.272 29.2678C224.272 45.432 210.919 58.5357 194.688 58.5357C178.456 58.5357 165.104 45.432 165.104 29.2678C165.104 13.1037 178.456 -7.06559e-07 194.688 0Z" fill="#D99BC0"/>
<path d="M195.041 77.362C211.184 77.362 224.272 90.3948 224.272 106.472C224.272 122.548 211.184 135.581 195.041 135.581H194.335C178.191 135.581 165.104 122.548 165.104 106.472C165.104 90.3948 178.191 77.362 194.335 77.362H195.041Z" fill="#737FB1"/>
<path d="M194.688 154.249C210.919 154.249 224.272 167.353 224.272 183.517C224.272 199.681 210.919 212.785 194.688 212.785C178.456 212.785 165.104 199.681 165.104 183.517C165.104 167.353 178.456 154.249 194.688 154.249Z" fill="#D46F29"/>
<path d="M29.584 79.1649C45.8156 79.1649 59.168 92.2685 59.168 108.433C59.168 124.597 45.8156 137.701 29.584 137.701C13.3524 137.701 -7.09506e-07 124.597 0 108.433C7.09506e-07 92.2685 13.3524 79.1649 29.584 79.1649Z" fill="#C4B14B"/>
<path d="M112.308 79.1649C128.54 79.1649 141.892 92.2685 141.892 108.433C141.892 124.597 128.54 137.701 112.308 137.701C96.0767 137.701 82.7243 124.597 82.7243 108.433C82.7243 92.2685 96.0767 79.1649 112.308 79.1649Z" fill="#DBA029"/>
<path d="M29.584 154.448C45.8156 154.448 59.168 167.552 59.168 183.716C59.168 199.88 45.8156 212.984 29.584 212.984C13.3524 212.984 -7.09506e-07 199.88 0 183.716C7.09506e-07 167.552 13.3524 154.448 29.584 154.448Z" fill="#5C8371"/>
<path d="M112.308 154.448C128.54 154.448 141.892 167.552 141.892 183.716C141.892 199.88 128.54 212.984 112.308 212.984C96.0767 212.984 82.7243 199.88 82.7243 183.716C82.7243 167.552 96.0767 154.448 112.308 154.448Z" fill="#B75F7F"/>
<path d="M30.2142 2.27748C46.358 2.27748 59.4452 15.3103 59.4452 31.3871C59.4452 47.4639 46.358 60.4967 30.2141 60.4967H29.3697C13.2259 60.4967 0.138685 47.4639 0.138686 31.3871C0.138686 15.3103 13.2259 2.27748 29.3698 2.27748H30.2142Z" fill="#A1AA7F"/>
</svg>
