<svg width="50" height="50" viewBox="0 0 50 50" fill="none" xmlns="http://www.w3.org/2000/svg">
<circle cx="25" cy="25" r="25" fill="#0C776D"/>
<path d="M25 19.5652C23.8962 19.5652 22.8172 19.884 21.8995 20.4811C20.9817 21.0783 20.2664 21.9271 19.844 22.9202C19.4216 23.9133 19.3111 25.006 19.5264 26.0603C19.7417 27.1145 20.2733 28.0829 21.0537 28.843C21.8342 29.603 22.8287 30.1207 23.9112 30.3304C24.9938 30.5401 26.1159 30.4324 27.1357 30.0211C28.1555 29.6097 29.0271 28.9131 29.6403 28.0194C30.2535 27.1257 30.5808 26.0749 30.5808 25C30.5764 23.5599 29.987 22.1801 28.9414 21.1618C27.8957 20.1435 26.4788 19.5695 25 19.5652ZM37.049 25C37.0461 25.5078 37.0079 26.0149 36.9346 26.5177L40.3313 29.1073C40.4792 29.2263 40.5789 29.3926 40.6125 29.5765C40.6461 29.7605 40.6115 29.9501 40.5147 30.1114L37.3016 35.5136C37.2039 35.6735 37.0514 35.7948 36.871 35.856C36.6906 35.9173 36.4938 35.9146 36.3152 35.8485L32.3214 34.286C31.4897 34.9096 30.5796 35.4272 29.6133 35.8261L29.0161 39.9552C28.9827 40.1401 28.8844 40.308 28.7379 40.4302C28.5914 40.5524 28.406 40.6212 28.2132 40.625H21.7868C21.5975 40.6214 21.4151 40.5554 21.2692 40.4379C21.1234 40.3203 21.0228 40.158 20.9839 39.9776L20.3867 35.8485C19.4177 35.4542 18.5069 34.9358 17.6786 34.3071L13.6848 35.8696C13.5063 35.9357 13.3095 35.9385 13.1291 35.8774C12.9487 35.8162 12.7962 35.6951 12.6984 35.5353L9.48526 30.1338C9.38855 29.9725 9.3539 29.7829 9.38751 29.599C9.42112 29.415 9.5208 29.2487 9.66873 29.1298L13.0654 26.5401C12.993 26.0297 12.9548 25.5152 12.951 25C12.9539 24.4922 12.9921 23.9851 13.0654 23.4823L9.66873 20.8927C9.5208 20.7737 9.42112 20.6074 9.38751 20.4235C9.3539 20.2395 9.38855 20.0499 9.48526 19.8886L12.6984 14.4864C12.7961 14.3265 12.9486 14.2052 13.129 14.144C13.3094 14.0827 13.5062 14.0854 13.6848 14.1515L17.6786 15.714C18.5103 15.0904 19.4204 14.5728 20.3867 14.1739L20.9839 10.0448C21.0173 9.85988 21.1156 9.69197 21.2621 9.5698C21.4086 9.44762 21.594 9.37877 21.7868 9.375H28.2132C28.4025 9.37859 28.5849 9.44456 28.7308 9.56214C28.8766 9.67973 28.9772 9.84198 29.0161 10.0224L29.6133 14.1515C30.5835 14.5455 31.4955 15.0639 32.3249 15.6929L36.3152 14.1304C36.4937 14.0643 36.6905 14.0615 36.8709 14.1226C37.0513 14.1838 37.2038 14.3049 37.3016 14.4647L40.5147 19.8668C40.6115 20.0282 40.6461 20.2178 40.6125 20.4017C40.5789 20.5857 40.4792 20.752 40.3313 20.8709L36.9346 23.4606C37.007 23.9708 37.0452 24.485 37.049 25Z" fill="#F8F2EC"/>
</svg>
