<svg width="16" height="16" viewBox="0 0 16 16" fill="none" xmlns="http://www.w3.org/2000/svg">
<circle cx="8" cy="8" r="8" fill="#D6A6DC"/>
<path d="M4 10.4269V11.7778C4 11.9022 4.09776 12 4.22219 12H5.57312C5.63089 12 5.68866 11.9778 5.72865 11.9333L10.5813 7.08511L8.91489 5.41867L4.06666 10.2669C4.02222 10.3113 4 10.3647 4 10.4269ZM11.87 5.7964C11.9112 5.75529 11.9439 5.70645 11.9662 5.65269C11.9885 5.59894 12 5.54131 12 5.48311C12 5.42491 11.9885 5.36728 11.9662 5.31352C11.9439 5.25976 11.9112 5.21093 11.87 5.16982L10.8302 4.12996C10.7891 4.08876 10.7402 4.05608 10.6865 4.03378C10.6327 4.01148 10.5751 4 10.5169 4C10.4587 4 10.4011 4.01148 10.3473 4.03378C10.2935 4.05608 10.2447 4.08876 10.2036 4.12996L9.39038 4.94318L11.0568 6.60962L11.87 5.7964Z" fill="#F8F2EC"/>
</svg>
