<svg width="16" height="16" viewBox="0 0 16 16" fill="none" xmlns="http://www.w3.org/2000/svg">
<circle cx="8" cy="8" r="8" fill="#D6A6DC"/>
<path d="M8 6.26087C7.64679 6.26087 7.30151 6.36287 7.00782 6.55397C6.71414 6.74506 6.48524 7.01668 6.35007 7.33446C6.2149 7.65225 6.17954 8.00193 6.24845 8.33929C6.31735 8.67665 6.48744 8.98653 6.7372 9.22975C6.98696 9.47297 7.30517 9.63861 7.65159 9.70571C7.99802 9.77282 8.3571 9.73838 8.68342 9.60675C9.00975 9.47512 9.28866 9.25221 9.4849 8.96621C9.68113 8.68021 9.78587 8.34397 9.78587 8C9.78446 7.53918 9.59585 7.09762 9.26124 6.77177C8.92663 6.44592 8.47321 6.26225 8 6.26087ZM11.8557 8C11.8548 8.1625 11.8425 8.32476 11.8191 8.48565L12.906 9.31435C12.9533 9.35241 12.9852 9.40563 12.996 9.46449C13.0068 9.52335 12.9957 9.58402 12.9647 9.63565L11.9365 11.3643C11.9052 11.4155 11.8565 11.4543 11.7987 11.4739C11.741 11.4935 11.678 11.4927 11.6208 11.4715L10.3428 10.9715C10.0767 11.1711 9.78549 11.3367 9.47624 11.4643L9.28516 12.7857C9.27446 12.8448 9.24299 12.8986 9.19613 12.9377C9.14926 12.9768 9.08991 12.9988 9.02821 13H6.97179C6.91121 12.9989 6.85283 12.9777 6.80616 12.9401C6.75949 12.9025 6.7273 12.8506 6.71484 12.7928L6.52376 11.4715C6.21366 11.3454 5.92222 11.1795 5.65716 10.9783L4.37915 11.4783C4.32202 11.4994 4.25906 11.5003 4.20132 11.4808C4.14359 11.4612 4.09479 11.4224 4.0635 11.3713L3.03528 9.64283C3.00433 9.59119 2.99325 9.53053 3.004 9.47167C3.01476 9.41281 3.04665 9.35959 3.09399 9.32152L4.18092 8.49283C4.15776 8.3295 4.14553 8.16487 4.14431 8C4.14524 7.8375 4.15747 7.67524 4.18092 7.51435L3.09399 6.68565C3.04665 6.64759 3.01476 6.59437 3.004 6.53551C2.99325 6.47665 3.00433 6.41598 3.03528 6.36435L4.0635 4.63565C4.09476 4.58448 4.14354 4.54568 4.20128 4.52607C4.25901 4.50647 4.322 4.50732 4.37915 4.52848L5.65716 5.02848C5.92329 4.82892 6.21451 4.66331 6.52376 4.53565L6.71484 3.21435C6.72554 3.15516 6.75701 3.10143 6.80387 3.06234C6.85074 3.02324 6.91009 3.00121 6.97179 3H9.02821C9.08879 3.00115 9.14717 3.02226 9.19384 3.05989C9.24051 3.09751 9.2727 3.14943 9.28516 3.20717L9.47624 4.52848C9.78673 4.65456 10.0785 4.82044 10.344 5.02174L11.6208 4.52174C11.678 4.50056 11.7409 4.49968 11.7987 4.51924C11.8564 4.5388 11.9052 4.57756 11.9365 4.6287L12.9647 6.35739C12.9957 6.40902 13.0068 6.46969 12.996 6.52855C12.9852 6.58741 12.9533 6.64063 12.906 6.6787L11.8191 7.50739C11.8422 7.67065 11.8545 7.8352 11.8557 8Z" fill="#F8F2EC"/>
</svg>
