<svg width="644" height="211" viewBox="0 0 644 211" fill="none" xmlns="http://www.w3.org/2000/svg">
<path d="M349.873 47.9704H355.65C355.7 50.1051 357.294 51.4455 360.083 51.4455C362.922 51.4455 364.466 50.3037 364.466 48.5165C364.466 47.2754 363.818 46.3818 361.627 45.8853L357.194 44.8428C352.762 43.8499 350.62 41.7648 350.62 37.8429C350.62 33.0274 354.704 30.148 360.382 30.148C365.91 30.148 369.645 33.3253 369.695 38.0912H363.918C363.868 36.0061 362.474 34.6657 360.133 34.6657C357.742 34.6657 356.348 35.7579 356.348 37.5947C356.348 38.9848 357.443 39.8784 359.535 40.3748L363.968 41.4173C368.101 42.3606 370.193 44.2471 370.193 48.0201C370.193 52.9845 365.96 56.0624 359.884 56.0624C353.758 56.0624 349.873 52.7859 349.873 47.9704Z" fill="#A6A646"/>
<path d="M398.128 55.4171H392.052V35.9564H387.32V30.8927H392.052V23.2475H398.128V30.8927H402.909V35.9564H398.128V55.4171Z" fill="#A6A646"/>
<path d="M437.067 30.7934V36.4032H434.826C430.443 36.4032 427.704 38.7365 427.704 43.5024V55.4171H421.627V30.9424H427.355L427.704 34.5168C428.749 32.0842 431.09 30.4459 434.377 30.4459C435.224 30.4459 436.071 30.5452 437.067 30.7934Z" fill="#A6A646"/>
<path d="M462.469 56.0624C457.24 56.0624 454.052 53.0341 454.052 48.4172C454.052 43.8996 457.339 41.0698 463.166 40.623L470.537 40.0769V39.5308C470.537 36.2047 468.545 34.8643 465.457 34.8643C461.871 34.8643 459.879 36.3536 459.879 38.9351H454.7C454.7 33.6232 459.082 30.148 465.756 30.148C472.38 30.148 476.464 33.7224 476.464 40.5237V55.4171H471.135L470.687 51.793C469.641 54.3249 466.304 56.0624 462.469 56.0624ZM464.461 51.4952C468.197 51.4952 470.587 49.2612 470.587 45.4882V44.1974L465.457 44.5946C461.672 44.9421 460.228 46.1832 460.228 48.169C460.228 50.403 461.722 51.4952 464.461 51.4952Z" fill="#A6A646"/>
<path d="M500.412 25.9779C498.321 25.9779 496.677 24.3396 496.677 22.3042C496.677 20.2688 498.321 18.6802 500.412 18.6802C502.404 18.6802 504.048 20.2688 504.048 22.3042C504.048 24.3396 502.404 25.9779 500.412 25.9779ZM497.374 55.4171V30.8927H503.45V55.4171H497.374Z" fill="#A6A646"/>
<path d="M523.275 42.6088C523.275 35.46 527.956 30.0984 534.979 30.0984C538.664 30.0984 541.553 31.6374 542.997 34.2685L543.346 30.8927H548.974V54.176C548.974 62.3673 544.043 67.4807 536.074 67.4807C529.002 67.4807 524.171 63.4595 523.424 56.9064H529.5C529.899 60.0836 532.339 61.9701 536.074 61.9701C540.258 61.9701 542.947 59.339 542.947 55.2681V51.1973C541.403 53.4809 538.365 54.9206 534.829 54.9206C527.857 54.9206 523.275 49.708 523.275 42.6088ZM529.401 42.4599C529.401 46.5804 532.04 49.6583 536.024 49.6583C540.208 49.6583 542.798 46.7293 542.798 42.4599C542.798 38.2897 540.258 35.4104 536.024 35.4104C531.99 35.4104 529.401 38.4387 529.401 42.4599Z" fill="#A6A646"/>
<path d="M576.279 55.4171H570.203V18.4816H576.329V34.07C577.873 31.687 580.761 30.148 584.297 30.148C590.374 30.148 593.561 33.9707 593.561 40.3252V55.4171H587.485V41.7648C587.485 37.6444 585.443 35.6586 582.355 35.6586C578.52 35.6586 576.279 38.3394 576.279 42.0131V55.4171Z" fill="#A6A646"/>
<path d="M622.839 55.4171H616.763V35.9564H612.032V30.8927H616.763V23.2475H622.839V30.8927H627.62V35.9564H622.839V55.4171Z" fill="#A6A646"/>
<path d="M349.325 97.855H352.861V94.8763C352.861 88.224 356.397 85.4439 361.726 85.4439C362.673 85.4439 363.818 85.4935 364.864 85.6921V90.8551H362.723C359.635 90.8551 358.888 92.4438 358.888 94.8763V97.855H364.765V102.919H358.888V122.379H352.861V102.919H349.325V97.855Z" fill="#A6A646"/>
<path d="M381.41 110.068C381.41 102.422 386.938 97.16 394.558 97.16C402.178 97.16 407.706 102.422 407.706 110.068C407.706 117.713 402.178 122.975 394.558 122.975C386.938 122.975 381.41 117.713 381.41 110.068ZM387.486 110.068C387.486 114.536 390.375 117.564 394.558 117.564C398.742 117.564 401.63 114.536 401.63 110.068C401.63 105.6 398.742 102.571 394.558 102.571C390.375 102.571 387.486 105.6 387.486 110.068Z" fill="#A6A646"/>
<path d="M442.903 97.7557V103.366H440.662C436.279 103.366 433.54 105.699 433.54 110.465V122.379H427.464V97.9046H433.191L433.54 101.479C434.586 99.0465 436.927 97.4082 440.214 97.4082C441.06 97.4082 441.907 97.5075 442.903 97.7557Z" fill="#A6A646"/>
<path d="M468.115 122.379L460.147 97.855H466.472L469.709 108.38C470.257 110.316 470.755 112.45 471.203 114.734C471.651 112.351 472.1 110.812 472.896 108.38L476.283 97.855H482.459L485.746 108.38C486.045 109.373 487.041 113.046 487.34 114.684C487.738 112.848 488.535 109.919 488.983 108.38L492.27 97.855H498.695L490.178 122.379H484.501L481.114 111.755C480.118 108.529 479.57 106.195 479.371 104.954C479.122 106.096 478.674 107.834 477.429 111.855L474.042 122.379H468.115Z" fill="#A6A646"/>
<path d="M523.421 123.025C518.191 123.025 515.004 119.996 515.004 115.379C515.004 110.862 518.291 108.032 524.118 107.585L531.489 107.039V106.493C531.489 103.167 529.497 101.827 526.409 101.827C522.823 101.827 520.831 103.316 520.831 105.897H515.651C515.651 100.585 520.034 97.1103 526.708 97.1103C533.332 97.1103 537.416 100.685 537.416 107.486V122.379H532.086L531.638 118.755C530.592 121.287 527.256 123.025 523.421 123.025ZM525.413 118.457C529.148 118.457 531.539 116.223 531.539 112.45V111.16L526.409 111.557C522.624 111.904 521.179 113.145 521.179 115.131C521.179 117.365 522.674 118.457 525.413 118.457Z" fill="#A6A646"/>
<path d="M573.765 97.7557V103.366H571.524C567.141 103.366 564.402 105.699 564.402 110.465V122.379H558.326V97.9046H564.053L564.402 101.479C565.448 99.0465 567.789 97.4082 571.076 97.4082C571.922 97.4082 572.769 97.5075 573.765 97.7557Z" fill="#A6A646"/>
<path d="M602.102 123.025C594.98 123.025 590.548 117.812 590.548 110.216C590.548 102.571 595.03 97.1103 602.451 97.1103C605.887 97.1103 608.925 98.55 610.469 100.983V85.4439H616.496V122.379H610.918L610.519 118.557C609.025 121.386 605.838 123.025 602.102 123.025ZM603.447 117.465C607.68 117.465 610.42 114.436 610.42 110.018C610.42 105.6 607.68 102.522 603.447 102.522C599.214 102.522 596.624 105.649 596.624 110.018C596.624 114.387 599.214 117.465 603.447 117.465Z" fill="#A6A646"/>
<path d="M354.804 159.902C352.762 159.902 351.118 158.264 351.118 156.229C351.118 154.193 352.762 152.605 354.804 152.605C356.796 152.605 358.489 154.193 358.489 156.229C358.489 158.264 356.796 159.902 354.804 159.902ZM345.889 200.859L346.885 195.498C347.732 195.746 348.23 195.795 348.977 195.795C351.068 195.795 351.766 194.604 351.766 192.122V164.817H357.842V192.817C357.842 198.029 354.854 201.405 349.525 201.405C348.379 201.405 347.483 201.306 345.889 200.859Z" fill="#A6A646"/>
<path d="M377.616 177.03C377.616 169.385 383.145 164.122 390.765 164.122C398.385 164.122 403.913 169.385 403.913 177.03C403.913 184.675 398.385 189.937 390.765 189.937C383.145 189.937 377.616 184.675 377.616 177.03ZM383.692 177.03C383.692 181.498 386.581 184.526 390.765 184.526C394.948 184.526 397.837 181.498 397.837 177.03C397.837 172.562 394.948 169.534 390.765 169.534C386.581 169.534 383.692 172.562 383.692 177.03Z" fill="#A6A646"/>
<path d="M429.298 189.342H423.67V152.406H429.746V168.392C431.34 165.661 434.627 164.023 438.362 164.023C445.385 164.023 449.668 169.484 449.668 177.228C449.668 184.774 445.036 189.987 437.964 189.987C434.278 189.987 431.141 188.349 429.696 185.519L429.298 189.342ZM429.796 176.98C429.796 181.399 432.535 184.427 436.719 184.427C441.002 184.427 443.542 181.349 443.542 176.98C443.542 172.611 441.002 169.484 436.719 169.484C432.535 169.484 429.796 172.562 429.796 176.98Z" fill="#A6A646"/>
<path d="M495.919 181.895H501.697C501.746 184.03 503.34 185.37 506.129 185.37C508.968 185.37 510.512 184.228 510.512 182.441C510.512 181.2 509.865 180.306 507.673 179.81L503.241 178.767C498.808 177.775 496.667 175.689 496.667 171.768C496.667 166.952 500.75 164.073 506.428 164.073C511.956 164.073 515.692 167.25 515.741 172.016H509.964C509.914 169.931 508.52 168.59 506.179 168.59C503.788 168.59 502.394 169.682 502.394 171.519C502.394 172.909 503.49 173.803 505.581 174.299L510.014 175.342C514.148 176.285 516.24 178.172 516.24 181.945C516.24 186.909 512.006 189.987 505.93 189.987C499.804 189.987 495.919 186.711 495.919 181.895Z" fill="#A6A646"/>
<path d="M538.845 159.902C536.753 159.902 535.11 158.264 535.11 156.229C535.11 154.193 536.753 152.605 538.845 152.605C540.837 152.605 542.481 154.193 542.481 156.229C542.481 158.264 540.837 159.902 538.845 159.902ZM535.807 189.342V164.817H541.883V189.342H535.807Z" fill="#A6A646"/>
<path d="M571.469 189.342H565.393V169.881H560.662V164.817H565.393V157.172H571.469V164.817H576.25V169.881H571.469V189.342Z" fill="#A6A646"/>
<path d="M605.732 189.987C598.411 189.987 593.281 184.675 593.281 177.079C593.281 169.385 598.311 164.073 605.533 164.073C612.904 164.073 617.586 168.987 617.586 176.633V178.47L599.058 178.519C599.507 182.838 601.798 185.023 605.832 185.023C609.169 185.023 611.36 183.732 612.057 181.399H617.685C616.639 186.76 612.157 189.987 605.732 189.987ZM605.583 169.037C601.997 169.037 599.806 170.973 599.208 174.647H611.559C611.559 171.271 609.218 169.037 605.583 169.037Z" fill="#A6A646"/>
<path d="M639.966 189.937C637.775 189.937 635.932 188.15 635.932 186.015C635.932 183.831 637.775 182.044 639.966 182.044C642.157 182.044 644 183.831 644 186.015C644 188.15 642.157 189.937 639.966 189.937Z" fill="#A6A646"/>
<path d="M273.66 4.85507C289.355 4.85507 302.267 17.538 302.267 33.1831C302.267 48.8283 289.355 61.5112 273.66 61.5112C257.965 61.5112 245.053 48.8283 245.053 33.1831C245.053 17.538 257.965 4.85507 273.66 4.85507Z" fill="#BCD1D4"/>
<path d="M274.001 79.733C289.612 79.733 302.267 92.3473 302.267 107.908C302.267 123.468 289.612 136.083 274.001 136.083H273.319C257.708 136.083 245.053 123.468 245.053 107.908C245.053 92.3473 257.708 79.733 273.319 79.733H274.001Z" fill="#FFABDA"/>
<path d="M273.66 154.152C289.355 154.152 302.267 166.834 302.267 182.48C302.267 198.125 289.355 210.808 273.66 210.808C257.965 210.808 245.053 198.125 245.053 182.48C245.053 166.834 257.965 154.152 273.66 154.152Z" fill="#D5CB2C"/>
<path d="M114.352 7.05942C129.962 7.05942 142.617 19.6738 142.617 35.2343C142.617 50.7949 129.962 63.4093 114.352 63.4093L113.669 63.4093C98.0584 63.4093 85.4035 50.7949 85.4035 35.2343C85.4035 19.6738 98.0584 7.05942 113.669 7.05942H114.352Z" fill="#D6A6DC"/>
<path d="M193.668 4.85507C209.364 4.85507 222.275 17.538 222.275 33.1831C222.275 48.8283 209.364 61.5112 193.668 61.5112C177.973 61.5112 165.062 48.8283 165.062 33.1831C165.062 17.538 177.973 4.85507 193.668 4.85507Z" fill="#50B09F"/>
<path d="M194.01 79.733C209.62 79.733 222.275 92.3473 222.275 107.908C222.275 123.468 209.62 136.083 194.01 136.083H193.327C177.717 136.083 165.062 123.468 165.062 107.908C165.062 92.3473 177.717 79.733 193.327 79.733H194.01Z" fill="#FFA08B"/>
<path d="M193.668 154.152C209.364 154.152 222.275 166.834 222.275 182.48C222.275 198.125 209.364 210.808 193.668 210.808C177.973 210.808 165.062 198.125 165.062 182.48C165.062 166.834 177.973 154.152 193.668 154.152Z" fill="#BCD1D4"/>
<path d="M34.0186 81.478C49.714 81.478 62.6253 94.1609 62.6253 109.806C62.6253 125.451 49.714 138.134 34.0186 138.134C18.3232 138.134 5.41186 125.451 5.41186 109.806C5.41186 94.1609 18.3232 81.478 34.0186 81.478Z" fill="#D6A6DC"/>
<path d="M114.01 81.478C129.706 81.478 142.617 94.1609 142.617 109.806C142.617 125.451 129.706 138.134 114.01 138.134C98.3148 138.134 85.4035 125.451 85.4035 109.806C85.4035 94.1609 98.3148 81.478 114.01 81.478Z" fill="#D5CB2C"/>
<path d="M34.0186 154.344C49.714 154.344 62.6253 167.027 62.6253 182.672C62.6253 198.317 49.714 211 34.0186 211C18.3232 211 5.41186 198.317 5.41186 182.672C5.41186 167.027 18.3232 154.344 34.0186 154.344Z" fill="#FFABDA"/>
<path d="M114.01 154.344C129.706 154.344 142.617 167.027 142.617 182.672C142.617 198.317 129.706 211 114.01 211C98.3148 211 85.4035 198.317 85.4035 182.672C85.4035 167.027 98.3148 154.344 114.01 154.344Z" fill="#D5CB2C"/>
<path d="M34.6279 7.05942C50.2385 7.05942 62.8934 19.6738 62.8934 35.2343C62.8934 50.7949 50.2385 63.4093 34.6279 63.4093L33.8114 63.4093C18.2008 63.4093 5.54596 50.7949 5.54596 35.2343C5.54596 19.6738 18.2009 7.05942 33.8114 7.05942H34.6279Z" fill="#FFABDA"/>
<path d="M268.248 0C283.944 6.83871e-07 296.855 12.6829 296.855 28.328C296.855 43.9732 283.944 56.6561 268.248 56.6561C252.553 56.6561 239.641 43.9732 239.641 28.328C239.641 12.6829 252.553 -6.83871e-07 268.248 0Z" fill="#A6A646"/>
<path d="M268.589 74.8779C284.2 74.8779 296.855 87.4923 296.855 103.053C296.855 118.613 284.2 131.228 268.589 131.228H267.907C252.296 131.228 239.641 118.613 239.641 103.053C239.641 87.4922 252.296 74.8779 267.907 74.8779H268.589Z" fill="#308B7B"/>
<path d="M268.248 149.296C283.944 149.296 296.855 161.979 296.855 177.624C296.855 193.27 283.944 205.953 268.248 205.953C252.553 205.953 239.641 193.27 239.641 177.624C239.641 161.979 252.553 149.296 268.248 149.296Z" fill="#D6A6DC"/>
<path d="M108.94 2.20435C124.55 2.20435 137.205 14.8187 137.205 30.3793C137.205 45.9399 124.55 58.5542 108.94 58.5542H108.257C92.6466 58.5542 79.9917 45.9399 79.9917 30.3793C79.9917 14.8187 92.6466 2.20435 108.257 2.20435H108.94Z" fill="#308B7B"/>
<path d="M188.257 0C203.952 6.83871e-07 216.863 12.6829 216.863 28.328C216.863 43.9732 203.952 56.6561 188.257 56.6561C172.561 56.6561 159.65 43.9732 159.65 28.328C159.65 12.6829 172.561 -6.83871e-07 188.257 0Z" fill="#FFABDA"/>
<path d="M188.598 74.8779C204.208 74.8779 216.863 87.4922 216.863 103.053C216.863 118.613 204.208 131.228 188.598 131.228H187.915C172.305 131.228 159.65 118.613 159.65 103.053C159.65 87.4922 172.305 74.8779 187.915 74.8779H188.598Z" fill="#50B09F"/>
<path d="M188.257 149.296C203.952 149.296 216.863 161.979 216.863 177.624C216.863 193.27 203.952 205.953 188.257 205.953C172.561 205.953 159.65 193.27 159.65 177.624C159.65 161.979 172.561 149.296 188.257 149.296Z" fill="#F38143"/>
<path d="M28.6067 76.6229C44.3022 76.6229 57.2135 89.3058 57.2135 104.951C57.2135 120.596 44.3022 133.279 28.6067 133.279C12.9113 133.279 -6.86069e-07 120.596 0 104.951C6.86069e-07 89.3058 12.9113 76.6229 28.6067 76.6229Z" fill="#D5CB2C"/>
<path d="M108.598 76.6229C124.294 76.6229 137.205 89.3058 137.205 104.951C137.205 120.596 124.294 133.279 108.598 133.279C92.903 133.279 79.9917 120.596 79.9917 104.951C79.9917 89.3058 92.903 76.6229 108.598 76.6229Z" fill="#FFA08B"/>
<path d="M28.6067 149.489C44.3022 149.489 57.2135 162.172 57.2135 177.817C57.2135 193.462 44.3022 206.145 28.6067 206.145C12.9113 206.145 -6.86069e-07 193.462 0 177.817C6.86069e-07 162.172 12.9113 149.489 28.6067 149.489Z" fill="#50B09F"/>
<path d="M108.598 149.489C124.294 149.489 137.205 162.172 137.205 177.817C137.205 193.462 124.294 206.145 108.598 206.145C92.903 206.145 79.9917 193.462 79.9917 177.817C79.9917 162.172 92.903 149.489 108.598 149.489Z" fill="#E673A9"/>
<path d="M29.2161 2.20435C44.8267 2.20435 57.4815 14.8187 57.4815 30.3793C57.4815 45.9399 44.8267 58.5542 29.2161 58.5542H28.3996C12.789 58.5542 0.134104 45.9399 0.134104 30.3793C0.134105 14.8187 12.789 2.20435 28.3996 2.20435H29.2161Z" fill="#F38143"/>
</svg>
