<svg width="39" height="39" viewBox="0 0 39 39" fill="none" xmlns="http://www.w3.org/2000/svg">
<g clip-path="url(#clip0_1116_22)">
<path d="M27.4445 10.7392C25.2108 8.559 22.2131 7.33859 19.0918 7.33859C15.9705 7.33859 12.9728 8.559 10.7391 10.7392C8.55892 12.9729 7.33851 15.9705 7.33851 19.0919C7.33851 22.2132 8.55892 25.2108 10.7391 27.4446C12.9728 29.6247 15.9705 30.8452 19.0918 30.8452C22.2131 30.8452 25.2108 29.6247 27.4445 27.4446C29.6247 25.2108 30.8451 22.2132 30.8451 19.0919C30.8451 15.9705 29.6247 12.9729 27.4445 10.7392ZM23.2681 24.4615L19.0918 20.2851L14.9154 24.4615L13.7222 23.2682L17.8986 19.0919L13.7222 14.9155L14.9154 13.7223L19.0918 17.8986L23.2681 13.7223L24.4614 14.9155L20.285 19.0919L24.4614 23.2682L23.2681 24.4615Z" fill="#A6A646"/>
<path d="M23.2681 24.4614L19.0918 20.2851L14.9154 24.4614L13.7222 23.2682L17.8986 19.0918L13.7222 14.9155L14.9154 13.7222L19.0918 17.8986L23.2681 13.7222L24.4614 14.9155L20.285 19.0918L24.4614 23.2682L23.2681 24.4614Z" fill="#F8F2EC"/>
</g>
<defs>
<clipPath id="clip0_1116_22">
<rect width="27" height="27" fill="white" transform="translate(19.0918) rotate(45)"/>
</clipPath>
</defs>
</svg>
