<svg width="14" height="10" viewBox="0 0 14 10" fill="none" xmlns="http://www.w3.org/2000/svg">
<path fill-rule="evenodd" clip-rule="evenodd" d="M13.4999 5.00005L13.9149 4.79205V4.79005L13.9119 4.78705L13.9059 4.77505L13.8849 4.73505L13.8049 4.59105C13.7073 4.42266 13.6035 4.25788 13.4939 4.09705C13.128 3.56 12.7074 3.06234 12.2389 2.61205C11.1129 1.53205 9.37989 0.430054 6.99989 0.430054C4.62189 0.430054 2.88789 1.53105 1.76189 2.61205C1.29335 3.06234 0.872766 3.56 0.506888 4.09705C0.358426 4.3161 0.220923 4.54238 0.0948876 4.77505L0.0888876 4.78705L0.0868876 4.79005V4.79105C0.0868876 4.79105 0.0858876 4.79205 0.500888 5.00005L0.0858876 4.79105C0.0538019 4.85587 0.0371094 4.92723 0.0371094 4.99955C0.0371094 5.07188 0.0538019 5.14323 0.0858876 5.20805L0.0848876 5.21005L0.0878876 5.21305L0.0938876 5.22505C0.125069 5.28753 0.158423 5.3489 0.193888 5.40905C0.624486 6.13646 1.15124 6.80247 1.75989 7.38905C2.88689 8.46905 4.61989 9.56905 6.99989 9.56905C9.37889 9.56905 11.1129 8.46905 12.2399 7.38805C12.7076 6.93723 13.1278 6.43962 13.4939 5.90305C13.6341 5.6966 13.7646 5.4837 13.8849 5.26505L13.9059 5.22505L13.9119 5.21305L13.9139 5.21005V5.20905C13.9139 5.20905 13.9149 5.20805 13.4999 5.00005ZM13.4999 5.00005L13.9149 5.20905C13.947 5.14423 13.9637 5.07288 13.9637 5.00055C13.9637 4.92823 13.947 4.85687 13.9149 4.79205L13.4999 5.00005ZM6.93989 3.46405C6.53251 3.46405 6.14183 3.62588 5.85377 3.91394C5.56572 4.20199 5.40389 4.59268 5.40389 5.00005C5.40389 5.40743 5.56572 5.79811 5.85377 6.08617C6.14183 6.37423 6.53251 6.53605 6.93989 6.53605C7.34726 6.53605 7.73795 6.37423 8.026 6.08617C8.31406 5.79811 8.47589 5.40743 8.47589 5.00005C8.47589 4.59268 8.31406 4.20199 8.026 3.91394C7.73795 3.62588 7.34726 3.46405 6.93989 3.46405ZM4.47789 5.00005C4.47789 4.34656 4.73749 3.71983 5.19958 3.25774C5.66167 2.79565 6.28839 2.53605 6.94189 2.53605C7.59538 2.53605 8.22211 2.79565 8.6842 3.25774C9.14629 3.71983 9.40589 4.34656 9.40589 5.00005C9.40589 5.65355 9.14629 6.28028 8.6842 6.74236C8.22211 7.20445 7.59538 7.46405 6.94189 7.46405C6.28839 7.46405 5.66167 7.20445 5.19958 6.74236C4.73749 6.28028 4.47789 5.65355 4.47789 5.00005Z" fill="#50B09F"/>
</svg>
