<svg width="500" height="500" viewBox="0 0 500 500" fill="none" xmlns="http://www.w3.org/2000/svg">
<g clip-path="url(#clip0_512_510)">
<path d="M550 -50H-50V550H550V-50Z" fill="white"/>
<path d="M550 -50H-50V550H550V-50Z" fill="#FFABDA"/>
<path d="M333.682 221.336C329.433 224.007 379.383 330.169 383.421 328.179C388.634 326.803 337.907 218.669 333.682 221.336Z" fill="#D35224"/>
<path d="M412.1 329.343C411.856 333.908 382.718 331.376 382.512 327.29C382.09 324.907 412.345 324.797 412.1 329.343Z" fill="#D35224"/>
<path d="M199.458 272.727C204.949 272.026 213.572 238.568 208.79 238.693C206.129 238.429 193.968 273.417 199.458 272.727Z" fill="#D35224"/>
<path d="M200.492 271.149C200.492 264.565 160.939 253.185 160.334 258.863C159.582 262.023 200.458 277.705 200.492 271.149Z" fill="#D35224"/>
<path d="M161.854 257.798C158.435 254.959 109.487 337.312 112.364 340.228C119.375 336.253 165.249 260.628 161.854 257.798Z" fill="#D35224"/>
<path d="M89.3991 339.442C89.2552 335.773 112.792 336.133 113.261 339.398C113.77 341.278 89.5382 343.096 89.3991 339.442Z" fill="#D35224"/>
<path d="M254.182 223.176C249.737 225.531 290.959 335.314 295.155 333.679C300.411 332.24 258.613 220.865 254.182 223.176Z" fill="#D35224"/>
<path d="M317.659 337.615C317.017 341.226 294.133 335.894 294.329 332.604C294.238 330.662 318.297 334.009 317.659 337.615Z" fill="#D35224"/>
<path d="M39.8698 180.66C32.2689 177.523 76.3875 172.637 98.092 165.611C121.839 157.929 156.161 193.449 156.161 193.449C156.161 193.449 154.962 197.995 152.099 196.485C149.236 194.969 119.542 167.76 104.667 169.376C98.0008 170.105 49.8924 184.841 39.8698 180.66Z" fill="#D35224"/>
<path d="M204.811 195.808C187.643 175.657 150.579 192.538 144.695 202.349C138.816 212.161 114.733 240.43 130.419 246.324C146.1 252.222 170.097 250.961 184.728 248.113C208.259 243.566 214.469 207.164 204.811 195.808Z" fill="#F38143"/>
<path d="M207.956 220.461C208.81 213.196 236.183 194.829 253.576 206.645C270.969 218.461 269.07 230.819 268.044 237.36C267.018 243.901 259.537 270.627 227.018 262.997C194.495 255.367 207.956 220.461 207.956 220.461Z" fill="#F38143"/>
<path d="M265.714 233.42C265.714 233.42 261.282 216.285 334.356 202.791C392.828 191.982 433.844 242.272 430.942 263.516C428.876 278.632 399.148 301.588 331.071 293.934C307.593 291.292 258.405 257.32 265.714 233.42Z" fill="#F38143"/>
<path d="M233.043 264.355C236.611 267.875 257.783 243.653 254.944 240.176C253.515 237.917 229.48 260.816 233.043 264.355Z" fill="#D35224"/>
<path d="M254.708 240.062C249.869 241.385 266.821 357.475 271.267 356.746C276.719 356.487 259.527 238.734 254.708 240.062Z" fill="#D35224"/>
<path d="M292.426 365.362C291.04 368.757 269.772 358.682 270.697 355.522C271.019 353.599 293.855 361.972 292.426 365.362Z" fill="#D35224"/>
<path d="M225.491 279.541C228.886 275.144 211.234 245.445 207.963 248.96C205.892 250.619 222.101 283.924 225.491 279.541Z" fill="#D35224"/>
<path d="M225.198 279.59C225.692 273.034 186.997 258.926 185.99 264.546C185.021 267.639 224.714 286.131 225.198 279.59Z" fill="#D35224"/>
<path d="M187.089 263.397C183.037 261.603 157.741 353.969 161.332 356.017C166.986 350.32 191.127 265.214 187.089 263.397Z" fill="#D35224"/>
<path d="M138.864 361.651C137.747 358.155 160.53 352.242 161.844 355.268C162.837 356.947 139.967 365.109 138.864 361.651Z" fill="#D35224"/>
<path d="M251.417 262.443C262.576 263.421 324.721 238.499 315.72 237.261C311.159 236.297 240.296 261.459 251.417 262.443Z" fill="#D35224"/>
<path d="M315.138 237.293C310.611 239.456 347.953 350.673 352.202 349.158C357.535 348.376 319.645 235.102 315.138 237.293Z" fill="#D35224"/>
<path d="M380.548 353.614C379.767 358.117 351.128 352.242 351.396 348.128C351.253 345.74 381.32 349.13 380.548 353.614Z" fill="#D35224"/>
<path d="M89.4148 133.265C88.6331 131.539 124.782 138.751 148.001 140.022C174.247 141.49 182.85 196.859 182.85 196.859C182.85 196.859 179.163 199.784 177.781 196.859C176.4 193.933 165.001 148.491 151.646 145.734C145.076 144.377 94.1528 143.264 89.4148 133.265Z" fill="#D35224"/>
<path d="M169.672 212.559C168.08 211.561 166.344 210.996 164.469 210.871C162.67 210.804 160.997 211.235 159.457 212.161C157.899 213.115 156.522 214.285 155.314 215.657C154.067 217.019 152.964 218.524 151.746 220.04C152.389 218.203 153.271 216.491 154.388 214.904C155.539 213.249 156.973 211.897 158.695 210.852C159.587 210.334 160.536 209.965 161.543 209.754C162.282 209.6 163.03 209.547 163.783 209.595C164.536 209.643 165.269 209.792 165.984 210.041C166.698 210.286 167.37 210.626 167.993 211.053C168.617 211.48 169.168 211.983 169.657 212.559H169.672Z" fill="#845230"/>
<path d="M161.526 217.351C161.526 221.273 159.449 224.472 156.884 224.472C154.683 224.472 152.846 222.117 152.371 218.981C154.721 214.867 157.152 212.55 159.377 211.352C160.111 212.176 160.663 213.107 161.032 214.143C161.406 215.183 161.569 216.253 161.526 217.351Z" fill="#845230"/>
<path d="M373.371 215.139C374.364 215.215 375.332 215.412 376.277 215.719C377.198 216.007 378.095 216.357 378.967 216.769C379.845 217.177 380.684 217.647 381.495 218.174C382.334 218.707 383.106 219.325 383.797 220.04C382.804 219.963 381.835 219.776 380.89 219.469C379.039 218.879 377.303 218.059 375.673 217.004C374.834 216.472 374.066 215.848 373.371 215.139Z" fill="#9B3516"/>
<path d="M388.777 215.139C389.88 215.508 390.94 215.978 391.952 216.558C392.94 217.119 393.899 217.733 394.824 218.4C395.745 219.071 396.623 219.79 397.457 220.567C398.33 221.344 399.112 222.202 399.807 223.147C398.714 222.778 397.668 222.298 396.671 221.718C394.685 220.596 392.858 219.263 391.185 217.709C390.293 216.937 389.492 216.079 388.777 215.139Z" fill="#9B3516"/>
<path d="M394.281 224.471C395.355 224.95 396.377 225.531 397.336 226.211C398.285 226.868 399.192 227.578 400.06 228.336C400.923 229.098 401.743 229.904 402.515 230.758C403.311 231.626 404.016 232.561 404.63 233.568C403.556 233.093 402.534 232.513 401.57 231.832C400.626 231.175 399.719 230.465 398.861 229.703C397.993 228.945 397.173 228.139 396.396 227.286C395.6 226.413 394.895 225.478 394.281 224.471Z" fill="#9B3516"/>
<path d="M294.332 266.887C295.325 267.256 296.265 267.726 297.157 268.297C298.025 268.853 298.859 269.457 299.65 270.114C300.441 270.771 301.185 271.476 301.885 272.224C302.619 272.996 303.256 273.831 303.798 274.742C302.806 274.377 301.866 273.907 300.974 273.332C300.106 272.776 299.276 272.171 298.48 271.514C297.689 270.853 296.946 270.148 296.245 269.395C295.517 268.627 294.879 267.793 294.332 266.887Z" fill="#9B3516"/>
<path d="M306.004 269.088C306.896 269.241 307.754 269.5 308.579 269.874C309.375 270.229 310.142 270.646 310.871 271.121C311.605 271.591 312.3 272.114 312.957 272.689C313.643 273.284 314.247 273.955 314.76 274.703C313.869 274.55 313.01 274.291 312.181 273.922C311.384 273.562 310.622 273.15 309.893 272.675C309.155 272.2 308.459 271.677 307.807 271.107C307.121 270.507 306.517 269.836 306.004 269.088Z" fill="#9B3516"/>
<path d="M239.949 205.672C240.87 205.725 241.767 205.892 242.649 206.166C243.498 206.43 244.328 206.751 245.133 207.13C245.939 207.509 246.706 207.945 247.445 208.444C248.221 208.947 248.917 209.547 249.54 210.228C248.619 210.175 247.718 210.012 246.836 209.734C245.982 209.48 245.157 209.158 244.356 208.77C243.555 208.401 242.783 207.979 242.045 207.494C241.268 206.976 240.568 206.367 239.949 205.672Z" fill="#9B3516"/>
<path d="M243.949 213.604C244.673 213.781 245.354 214.064 245.987 214.457C247.21 215.176 248.256 216.097 249.124 217.215C249.589 217.8 249.958 218.442 250.222 219.138C249.498 218.965 248.817 218.682 248.184 218.289C247.579 217.934 247.009 217.517 246.481 217.051C245.954 216.572 245.474 216.049 245.038 215.483C244.582 214.913 244.218 214.284 243.949 213.604Z" fill="#9B3516"/>
</g>
<defs>
<clipPath id="clip0_512_510">
<rect width="500" height="500" rx="250" fill="white"/>
</clipPath>
</defs>
</svg>
