<svg width="500" height="500" viewBox="0 0 500 500" fill="none" xmlns="http://www.w3.org/2000/svg">
<g clip-path="url(#clip0_512_339)">
<path d="M550 -50H-50V550H550V-50Z" fill="white"/>
<path d="M550 -50H-50V550H550V-50Z" fill="#D5CB2C"/>
<path d="M189.022 240.48H222.788C226.181 240.48 228.932 237.729 228.932 234.34C228.932 230.947 226.181 228.201 222.788 228.201H189.022C185.634 228.201 182.883 230.947 182.883 234.34C182.883 237.729 185.634 240.48 189.022 240.48Z" fill="#F8F2EC"/>
<path d="M170.607 234.34C170.607 230.947 167.856 228.201 164.468 228.201H130.702C127.309 228.201 124.562 230.947 124.562 234.34C124.562 237.729 127.309 240.48 130.702 240.48H164.468C167.856 240.48 170.607 237.729 170.607 234.34Z" fill="#F8F2EC"/>
<mask id="mask0_512_339" style="mask-type:luminance" maskUnits="userSpaceOnUse" x="100" y="93" width="301" height="314">
<path d="M100 93H400.625V406.251H100V93Z" fill="white"/>
</mask>
<g mask="url(#mask0_512_339)">
<path d="M400.839 154.527C400.839 120.67 373.298 93.1289 339.446 93.1289C336.01 93.1289 191.599 93.1289 185.955 93.1289C172.415 93.1289 161.398 104.146 161.398 117.686V179.084H106.139C102.751 179.084 100 181.834 100 185.223V258.899C100 262.288 102.751 265.038 106.139 265.038H161.398V381.69C161.398 395.229 172.415 406.247 185.955 406.247H327.168C340.708 406.247 351.725 395.229 351.725 381.69V214.687C379.713 208.985 400.839 184.176 400.839 154.527ZM185.955 105.407H302.649C290.851 114.269 282.332 127.276 279.281 142.248H173.676V117.686C173.676 110.919 179.182 105.407 185.955 105.407ZM241.213 191.362V203.641H112.279V191.362H241.213ZM112.279 215.919H241.213V252.76H112.279V215.919ZM327.168 393.968H185.955C179.182 393.968 173.676 388.462 173.676 381.69V357.132H339.446V381.69C339.446 388.462 333.935 393.968 327.168 393.968ZM339.446 344.854H173.676V265.038H247.352C250.741 265.038 253.492 262.288 253.492 258.899V185.223C253.492 181.834 250.741 179.084 247.352 179.084H173.676V154.527H278.049C278.049 188.378 305.59 215.919 339.446 215.919V344.854ZM339.446 203.641C312.362 203.641 290.327 181.611 290.327 154.527C290.327 127.442 312.362 105.407 339.446 105.407C366.526 105.407 388.561 127.442 388.561 154.527C388.561 181.611 366.526 203.641 339.446 203.641Z" fill="#F8F2EC"/>
</g>
<path d="M358.125 134.067L330.236 161.96L320.761 152.484C318.362 150.091 314.479 150.091 312.08 152.484C309.682 154.883 309.682 158.771 312.08 161.17L325.891 174.981C328.29 177.379 332.178 177.379 334.577 174.981L366.81 142.752C369.204 140.353 369.204 136.465 366.81 134.067C364.412 131.668 360.523 131.668 358.125 134.067Z" fill="#F8F2EC"/>
<path d="M271.91 369.41H241.214C237.82 369.41 235.074 372.161 235.074 375.549C235.074 378.938 237.82 381.689 241.214 381.689H271.91C275.298 381.689 278.049 378.938 278.049 375.549C278.049 372.161 275.298 369.41 271.91 369.41Z" fill="#F8F2EC"/>
<path d="M235.077 129.969H265.773C269.162 129.969 271.912 127.218 271.912 123.83C271.912 120.436 269.162 117.686 265.773 117.686H235.077C231.684 117.686 228.938 120.436 228.938 123.83C228.938 127.218 231.684 129.969 235.077 129.969Z" fill="#F8F2EC"/>
</g>
<defs>
<clipPath id="clip0_512_339">
<rect width="500" height="500" rx="250" fill="white"/>
</clipPath>
</defs>
</svg>
