<svg width="500" height="500" viewBox="0 0 500 500" fill="none" xmlns="http://www.w3.org/2000/svg">
<g clip-path="url(#clip0_487_538)">
<rect width="500" height="500" rx="250" fill="#FDA26B"/>
<path d="M549.4 259.1C502.4 259.1 464.3 221 464.3 174H408.3C408.3 221 370.2 259.1 323.2 259.1C276.2 259.1 238.1 221 238.1 174H182.1C182.1 221 144 259.1 97 259.1V315.1C144 315.1 182.1 353.2 182.1 400.2C182.1 447.2 144 485.3 97 485.3V541.3C144 541.3 182.1 579.4 182.1 626.4H238.1C238.1 579.4 276.2 541.3 323.2 541.3C370.2 541.3 408.3 579.4 408.3 626.4H464.3C464.3 579.4 502.4 541.3 549.4 541.3V485.3C502.4 485.3 464.3 447.2 464.3 400.2C464.3 353.2 502.4 315.1 549.4 315.1V259.1ZM408.3 400.2C408.3 447.2 370.2 485.3 323.2 485.3C276.2 485.3 238.1 447.2 238.1 400.2C238.1 353.2 276.2 315.1 323.2 315.1C370.2 315.1 408.3 353.2 408.3 400.2Z" fill="#C1D8D3"/>
<path d="M323 269.096H238.855L298.375 209.575L267.425 178.625L207.904 238.145V154H164.096V238.145L104.575 178.625L73.6246 209.575L133.145 269.096H49V312.904H133.145L73.6246 372.425L104.575 403.375L164.096 343.855V428H207.904V343.855L267.425 403.375L298.375 372.425L238.855 312.904H323V269.096Z" fill="#E673A9"/>
</g>
<defs>
<clipPath id="clip0_487_538">
<rect width="500" height="500" rx="250" fill="white"/>
</clipPath>
</defs>
</svg>
