<svg width="500" height="500" viewBox="0 0 500 500" fill="none" xmlns="http://www.w3.org/2000/svg">
<g clip-path="url(#clip0_512_116)">
<rect width="500" height="500" rx="250" fill="#FFABDA"/>
<path d="M550 -50H-50V550H550V-50Z" fill="white"/>
<path d="M550 -50H-50V550H550V-50Z" fill="#BCD1D4"/>
<mask id="mask0_512_116" style="mask-type:luminance" maskUnits="userSpaceOnUse" x="78" y="84" width="277" height="441">
<path d="M78 84H354.219V525H78V84Z" fill="white"/>
</mask>
<g mask="url(#mask0_512_116)">
<path d="M292.918 353.193C292.918 353.11 292.918 353.026 292.918 352.943C293.007 352.943 293.09 352.943 293.178 352.943C293.085 353.026 293.007 353.11 292.918 353.193ZM269.241 370.61C269.408 370.506 269.579 370.407 269.746 370.297C269.876 370.36 270.007 370.422 270.132 370.485C269.762 370.422 269.465 370.459 269.241 370.61ZM191.783 327.203C191.73 327.256 191.673 327.302 191.616 327.355C191.673 327.297 191.73 327.256 191.783 327.203ZM193.319 297C193.079 297.443 192.866 297.896 192.663 298.36C192.861 297.896 193.079 297.443 193.319 297ZM191.178 303.542C191.236 303.183 191.314 302.834 191.392 302.49C191.314 302.839 191.236 303.183 191.178 303.542ZM203.673 302.355C203.673 302.349 203.673 302.349 203.673 302.349V302.355ZM192.257 326.756C192.507 326.506 192.751 326.256 192.986 326C192.751 326.256 192.507 326.511 192.257 326.756ZM214.553 268.724L214.543 268.735C214.543 268.735 214.548 268.724 214.553 268.724ZM327.355 146.625C327.892 146.474 328.428 146.323 328.965 146.162C328.241 144.459 327.454 142.782 326.647 141.115C337.309 125.417 330.647 100.24 314.105 90.3962C296.684 80.0212 273.757 83.1983 256.152 93.266C248.949 97.3858 242.283 102.636 237.397 109.339C223.689 128.151 226.413 153.808 221.574 176.573C218.663 190.282 212.882 203.183 207.559 216.146C206.564 218.563 205.6 220.995 204.637 223.422C202.6 225.433 200.678 227.552 198.866 229.745L199.158 229.448C193.819 236.026 191.913 245.256 190.137 253.782C179.642 304.219 159.887 352.714 132.152 396.131C138.142 386.735 145.954 379.089 154.637 372.261C154.272 373.339 153.913 374.422 153.543 375.5C135.335 428.573 112.975 481.084 78.1055 525.032C121.522 484.73 143.517 423.474 192.418 390.037C196.871 386.99 201.824 384.12 207.22 384.167C211.605 384.214 215.741 386.193 220.074 386.875C224.699 387.599 229.428 386.823 233.98 385.75C234.246 385.688 234.507 385.61 234.767 385.542C233.845 388.375 233.298 391.386 233.204 394.579C233.116 397.698 237.96 397.693 238.048 394.579C238.163 390.698 239.074 387.151 240.569 383.938C250.663 380.849 260.257 376.297 269.194 370.641C268.939 370.834 268.788 371.193 268.746 371.709C268.72 371.969 268.73 372.204 268.757 372.417C269.376 372.032 269.98 371.631 270.59 371.235C270.501 371.016 270.408 370.802 270.319 370.573C273.194 371.953 275.996 373.469 278.694 375.052C287.454 380.198 297.35 390.151 291.908 401.157C290.533 403.943 294.704 406.401 296.09 403.605C297.965 399.808 298.47 395.959 297.954 392.266C299.392 392.667 301.116 391.943 300.97 390.052C300.34 381.787 293.939 374.667 287.324 370.24C284.111 368.089 280.637 366.5 277.017 365.313C284.777 359.605 291.965 353.073 298.465 345.995C315.803 327.12 328.579 304.464 338.944 281.026C346.147 264.74 352.319 247.73 353.803 229.985C356.335 199.625 347.293 169.511 327.355 146.625Z" fill="#D5CB2C"/>
</g>
<path d="M277.274 133.494C278.05 134.75 277.94 136.453 277.107 137.672C276.279 138.89 274.805 139.604 273.331 139.635C271.857 139.661 270.404 139.041 269.315 138.047C267.982 136.838 267.159 135.036 267.258 133.239C267.352 131.442 268.414 129.692 270.024 128.89C270.69 128.552 271.472 128.385 272.196 128.583C272.784 128.75 273.279 129.145 273.737 129.552C274.951 130.625 276.039 131.849 276.961 133.182L277.274 133.494Z" fill="#161E25"/>
<path d="M287.223 370.24C284.009 368.089 280.535 366.5 276.915 365.312C272.806 363.974 268.509 363.156 264.191 362.677C258.238 360.693 252.092 359.542 246.139 359.656C243.03 359.724 243.019 364.562 246.139 364.505C248.124 364.464 250.098 364.589 252.045 364.833C244.03 369.766 237.53 376.771 234.665 385.542C233.743 388.375 233.197 391.385 233.103 394.578C233.014 397.698 237.858 397.693 237.947 394.578C238.061 390.698 238.967 387.151 240.467 383.937C243.962 376.443 250.691 370.755 258.316 366.875C258.577 366.995 258.874 367.078 259.217 367.099C260.311 367.167 261.4 367.245 262.493 367.349C264.92 368.198 267.306 369.198 269.644 370.297C272.723 371.745 275.712 373.365 278.598 375.052C287.353 380.198 297.249 390.151 291.801 401.156C290.431 403.943 294.603 406.401 295.983 403.604C297.863 399.807 298.368 395.958 297.858 392.266C299.29 392.667 301.014 391.943 300.868 390.052C300.238 381.786 293.837 374.667 287.223 370.24ZM328.863 146.161C328.332 146.323 327.79 146.474 327.254 146.625C321.348 148.286 315.243 149.245 309.108 149.453C307.155 149.521 305.17 149.51 303.28 149.016C300.186 148.203 297.467 146.057 295.962 143.234C294.457 140.411 294.191 136.953 295.243 133.932L294.78 134.078C296.384 131.031 299.436 128.922 302.723 127.901C306.009 126.88 309.519 126.844 312.952 127.146C315.181 127.344 317.514 127.729 319.259 129.141C320.337 130.01 321.098 131.208 321.811 132.396C323.525 135.229 325.092 138.141 326.545 141.115C327.353 142.781 328.139 144.458 328.863 146.161Z" fill="#F38143"/>
<mask id="mask1_512_116" style="mask-type:luminance" maskUnits="userSpaceOnUse" x="78" y="84" width="277" height="441">
<path d="M78 84H354.219V525H78V84Z" fill="white"/>
</mask>
<g mask="url(#mask1_512_116)">
<path d="M147.776 373.599C147.63 372.828 147.661 372.177 147.75 371.568C147.823 370.954 147.99 370.396 148.208 369.881C148.589 368.797 149.641 368.183 150.396 367.36C151.151 366.537 151.938 365.735 152.745 364.948C153.563 364.172 154.375 363.391 155.255 362.646L155.573 362.87C155.203 363.953 154.771 364.995 154.344 366.042C153.906 367.078 153.443 368.099 152.958 369.105C152.464 370.11 152.271 371.313 151.406 372.063C151 372.454 150.542 372.808 150 373.105C149.464 373.407 148.87 373.672 148.099 373.813L147.776 373.599ZM191.38 345.469L191.125 345.177C191.391 343.547 192.031 342.422 192.76 341.401C193.469 340.355 194.708 339.881 195.698 339.115L198.688 336.834L201.745 334.532L202.042 334.782C201.464 335.943 200.781 337.032 200.115 338.141C199.427 339.23 198.682 340.287 197.891 341.308C197.109 342.323 196.531 343.589 195.391 344.25C194.276 344.933 193.031 345.474 191.38 345.469ZM184.891 340.105L188.12 336.865C189.229 335.797 190.271 334.667 191.37 333.563L191.693 333.776C191.104 335.224 190.391 336.61 189.682 338.016C188.948 339.391 188.151 340.745 187.297 342.052C186.448 343.36 185.823 344.896 184.563 345.87C183.339 346.865 181.958 347.719 180.115 348.068L179.839 347.797C180.146 345.953 180.859 344.578 181.672 343.287C182.453 341.974 183.813 341.172 184.891 340.105ZM174.995 341.667C176.047 340.677 177.057 339.667 178.167 338.735L178.469 338.969C177.859 340.276 177.177 341.521 176.557 342.813C175.917 344.073 175.26 345.334 174.594 346.568C173.927 347.818 173.573 349.256 172.563 350.261C171.578 351.282 170.469 352.224 168.813 352.855L168.484 352.646C168.328 350.881 168.755 349.448 169.328 348.12C169.875 346.771 171.104 345.875 172.052 344.802C172.995 343.724 173.974 342.683 174.995 341.667ZM158.536 356.23C158.359 355.506 158.344 354.901 158.391 354.344C158.422 353.776 158.542 353.271 158.703 352.792C158.974 351.813 159.917 351.25 160.547 350.474C161.177 349.703 161.823 348.933 162.484 348.162C162.495 348.146 162.51 348.131 162.526 348.12C163.182 347.365 163.823 346.594 164.516 345.844L164.865 346.011C164.708 347.047 164.464 348.052 164.198 349.068C163.927 350.068 163.604 351.052 163.234 352.021C162.865 352.98 162.776 354.136 161.984 354.855C161.615 355.224 161.188 355.563 160.672 355.834C160.438 355.969 160.182 356.084 159.901 356.188C159.594 356.302 159.25 356.396 158.859 356.448L158.536 356.23ZM168.125 333.599C168.01 332.24 168.135 331.021 168.359 329.849C168.474 329.235 168.615 328.625 168.781 328.032C168.948 327.381 169.208 326.771 169.521 326.183C170.031 325.203 170.667 324.276 171.161 323.282L173.542 318.485C174.365 316.886 175.109 315.25 175.917 313.625L176.292 313.74C176.068 315.547 175.719 317.323 175.375 319.115C175 320.891 174.557 322.657 174.052 324.407C173.547 326.151 173.323 328.032 172.333 329.584C171.37 331.146 170.224 332.625 168.474 333.771L168.125 333.599ZM176.099 327.563C176.651 326.006 177.917 324.865 178.885 323.563C179.865 322.261 180.875 320.98 181.932 319.745C183.016 318.516 184.068 317.276 185.219 316.115L185.536 316.328C184.901 317.834 184.203 319.287 183.568 320.776C182.901 322.25 182.229 323.709 181.547 325.162C180.865 326.61 180.505 328.245 179.469 329.48C178.458 330.74 177.323 331.922 175.615 332.828L175.276 332.646C175.099 330.719 175.516 329.099 176.099 327.563ZM188.401 329.438L188.083 329.219C188.219 327.136 188.891 325.422 189.698 323.802C190.474 322.162 191.917 320.98 193.063 319.599C194.214 318.209 195.391 316.844 196.594 315.495C197.823 314.167 199.01 312.808 200.281 311.511L200.599 311.73C199.833 313.381 198.99 314.974 198.188 316.594C197.359 318.203 196.5 319.787 195.615 321.349C194.734 322.922 194.146 324.693 192.885 326C191.667 327.334 190.302 328.568 188.401 329.438ZM204.448 324.74C203.25 325.657 201.917 326.443 200.12 326.745L199.844 326.469C200.115 324.677 200.807 323.339 201.609 322.105C202.38 320.844 203.729 320.115 204.807 319.125C205.885 318.136 206.974 317.157 208.073 316.167C209.203 315.209 210.276 314.188 211.411 313.219L211.724 313.459C211.068 314.808 210.313 316.089 209.573 317.401C208.807 318.688 208 319.943 207.146 321.167C206.292 322.391 205.677 323.849 204.448 324.74ZM208.818 329.953L208.542 329.677C209.01 327.677 209.969 326.131 211.068 324.724C212.135 323.282 213.771 322.433 215.177 321.355C216.578 320.271 218.016 319.235 219.484 318.24C220.974 317.261 222.438 316.271 223.974 315.37L224.229 315.662C223.089 317.032 221.906 318.334 220.771 319.688C219.609 321.016 218.453 322.328 217.281 323.631C216.115 324.933 215.208 326.5 213.766 327.5C212.333 328.532 210.807 329.459 208.818 329.953ZM250.557 277.542C251.156 277.047 251.75 276.552 252.406 276.099L252.734 276.302C252.589 277.094 252.385 277.839 252.188 278.589C251.979 279.334 251.74 280.058 251.474 280.766C251.214 281.48 251.25 282.375 250.604 282.844C250.302 283.089 249.958 283.302 249.521 283.464C249.094 283.631 248.604 283.756 247.938 283.766L247.615 283.552C247.344 282.943 247.255 282.448 247.229 281.99C247.193 281.526 247.245 281.12 247.344 280.745C247.5 279.969 248.333 279.625 248.865 279.089C249.406 278.558 249.969 278.042 250.557 277.542ZM240.573 287.792L240.901 288.006C240.266 289.542 239.542 291.021 238.865 292.537C238.161 294.026 237.432 295.5 236.672 296.959C235.911 298.417 235.453 300.068 234.318 301.276C233.208 302.506 231.964 303.641 230.172 304.427L229.849 304.219C229.849 302.261 230.391 300.662 231.068 299.157C231.719 297.631 233.047 296.542 234.078 295.266C235.104 293.985 236.161 292.719 237.245 291.474C238.354 290.25 239.422 288.995 240.573 287.792ZM220.724 299.146C221.385 297.266 222.76 295.761 223.818 294.089C224.88 292.412 225.969 290.756 227.089 289.115C228.234 287.485 229.333 285.834 230.526 284.23L230.87 284.412C230.224 286.302 229.49 288.146 228.802 290.016C228.083 291.865 227.339 293.703 226.563 295.526C225.786 297.349 225.328 299.339 224.151 300.948C223.01 302.578 221.724 304.131 219.859 305.381L219.51 305.203C219.484 302.953 220.026 301.011 220.724 299.146ZM221.417 280.662L221.771 280.808C221.307 282.792 220.724 284.735 220.161 286.688C219.568 288.636 218.922 290.558 218.219 292.464C217.521 294.37 217.115 296.427 215.958 298.115C214.833 299.823 213.542 301.443 211.661 302.735L211.318 302.552C211.302 300.276 211.823 298.308 212.479 296.407C213.099 294.49 214.417 292.917 215.406 291.167L218.385 285.922L221.417 280.662ZM208.646 286.766C209.589 285.172 210.479 283.552 211.458 281.98L211.818 282.125C211.406 283.938 210.896 285.709 210.438 287.511C209.948 289.287 209.427 291.058 208.88 292.818C208.328 294.573 208.109 296.464 207.141 298.047C206.208 299.646 205.12 301.183 203.432 302.469L203.073 302.323C202.781 300.219 203.094 298.36 203.557 296.573C203.99 294.766 205.161 293.266 206.016 291.636C206.859 290 207.74 288.375 208.646 286.766ZM194.854 293.964C195.854 291.901 196.875 289.849 197.911 287.792C198.979 285.75 199.979 283.677 201.057 281.636L201.422 281.766C200.922 284.032 200.302 286.25 199.719 288.49C199.099 290.714 198.438 292.927 197.729 295.12C197.37 296.219 197.083 297.344 196.766 298.459C196.443 299.573 196.005 300.641 195.458 301.657C194.906 302.677 194.292 303.667 193.583 304.61C192.88 305.563 192.109 306.48 191.141 307.308L190.781 307.157C190.734 305.881 190.87 304.693 191.073 303.542C191.266 302.375 191.547 301.256 191.885 300.157C192.224 299.063 192.672 298.011 193.219 297C193.771 295.995 194.349 294.995 194.854 293.964ZM181.068 303.568C180.786 301.901 181.036 300.573 181.411 299.308C181.755 298.037 182.786 297.12 183.495 296.021C184.193 294.922 184.911 293.818 185.635 292.714L187.839 289.386L188.198 289.526C188.01 290.865 187.698 292.162 187.411 293.485C187.094 294.792 186.719 296.084 186.292 297.355C185.865 298.625 185.724 300.058 184.844 301.11C184.005 302.172 182.99 303.151 181.406 303.761L181.068 303.568ZM189.797 276.495C189.167 274.776 189.167 273.24 189.333 271.745C189.453 270.24 190.354 268.953 190.911 267.568C191.474 266.188 192.063 264.813 192.682 263.448C193.339 262.094 193.943 260.724 194.641 259.381L195.01 259.49C194.906 260.995 194.703 262.48 194.547 263.98C194.359 265.464 194.146 266.943 193.896 268.417C193.651 269.886 193.74 271.453 193.057 272.797C192.411 274.157 191.604 275.469 190.167 276.605L189.797 276.495ZM203.318 269.037C202.458 270.5 201.443 271.901 199.823 273.063L199.464 272.917C199.094 270.959 199.328 269.245 199.719 267.594C200.078 265.927 201.182 264.563 201.958 263.068C202.734 261.568 203.536 260.078 204.375 258.605C205.24 257.146 206.052 255.662 206.969 254.219L207.328 254.365C206.99 256.037 206.552 257.672 206.172 259.328C205.755 260.969 205.307 262.599 204.833 264.219C204.359 265.839 204.214 267.584 203.318 269.037ZM212.271 264.24C212.802 263.365 213.349 262.495 213.823 261.594L219.51 250.657L219.88 250.787C219.49 252.823 218.969 254.828 218.469 256.844C217.938 258.849 217.339 260.839 216.677 262.802C216.349 263.787 216.078 264.797 215.776 265.797C215.469 266.797 215.047 267.745 214.505 268.636C213.969 269.526 213.365 270.386 212.661 271.193C211.964 272.006 211.198 272.782 210.245 273.448L209.896 273.276C209.865 272.11 210.005 271.042 210.208 270.011C210.396 268.969 210.672 267.974 210.995 267.006C211.318 266.037 211.745 265.12 212.271 264.24ZM223.365 264.797C223.828 263.063 225.021 261.662 225.896 260.11C226.771 258.563 227.672 257.026 228.604 255.506C229.563 253.995 230.474 252.464 231.484 250.98L231.839 251.136C231.396 252.881 230.854 254.578 230.37 256.297C229.849 258.006 229.302 259.698 228.724 261.381C228.146 263.063 227.891 264.886 226.901 266.381C225.943 267.896 224.839 269.339 223.13 270.516L222.781 270.355C222.526 268.302 222.87 266.516 223.365 264.797ZM233.802 266.943C234.292 265.308 235.49 264.021 236.359 262.563C237.229 261.105 238.109 259.651 239.01 258.203C239.943 256.771 240.807 255.297 241.76 253.86L242.115 254.011C241.734 255.698 241.24 257.339 240.776 258.995C240.286 260.646 239.745 262.276 239.161 263.886C238.578 265.5 238.297 267.266 237.271 268.667C236.286 270.089 235.13 271.422 233.396 272.433L233.052 272.256C232.891 270.256 233.276 268.563 233.802 266.943ZM243.75 266.865C244.599 265.37 245.474 263.886 246.38 262.422C247.323 260.964 248.208 259.49 249.193 258.058L249.542 258.214C249.125 259.901 248.615 261.547 248.151 263.214C247.656 264.865 247.135 266.506 246.578 268.131C246.026 269.756 245.797 271.532 244.833 272.974C243.901 274.427 242.818 275.818 241.141 276.943L240.786 276.782C240.51 274.782 240.828 273.052 241.297 271.386C241.734 269.709 242.906 268.36 243.75 266.865ZM259.031 257.016C259.964 255.276 260.917 253.547 261.906 251.834C262.927 250.136 263.896 248.417 264.953 246.735L265.313 246.886C264.818 248.813 264.224 250.698 263.682 252.605C263.109 254.5 262.51 256.375 261.875 258.245C261.245 260.11 260.943 262.12 259.896 263.808C258.885 265.511 257.714 267.146 255.953 268.521L255.599 268.37C255.396 266.141 255.792 264.172 256.339 262.266C256.849 260.349 258.104 258.75 259.031 257.016ZM261.167 228.037L261.516 228.198C261.01 230.006 260.464 231.771 260.021 233.568C259.547 235.349 259.083 237.131 258.646 238.907C258.208 240.688 258.161 242.568 257.391 244.235C256.656 245.912 255.802 247.563 254.354 249.125L253.974 249.042C253.333 246.995 253.396 245.058 253.667 243.177C253.901 241.276 254.958 239.625 255.714 237.901C256.479 236.183 257.313 234.49 258.224 232.844C259.167 231.214 260.099 229.584 261.167 228.037ZM255.005 218.667L255.365 218.823C254.917 220.719 254.375 222.573 253.885 224.443C253.365 226.308 252.818 228.151 252.24 229.98C251.656 231.813 251.406 233.776 250.411 235.433C249.448 237.105 248.333 238.724 246.604 240.11L246.24 239.969C245.974 237.802 246.313 235.87 246.813 233.995C247.276 232.105 248.49 230.516 249.37 228.802C250.25 227.084 251.161 225.381 252.104 223.693C253.073 222.016 253.995 220.318 255.005 218.667ZM243.943 215.73L244.302 215.881C243.865 217.776 243.333 219.636 242.854 221.511C242.344 223.37 241.802 225.219 241.234 227.052C240.667 228.891 240.432 230.855 239.443 232.521C238.49 234.203 237.375 235.823 235.656 237.219L235.297 237.073C235.021 234.912 235.349 232.974 235.839 231.099C236.292 229.209 237.49 227.615 238.365 225.896C239.234 224.172 240.135 222.464 241.063 220.771C242.031 219.084 242.938 217.386 243.943 215.73ZM232.745 215.776L233.104 215.917C232.719 217.724 232.234 219.5 231.807 221.287C231.344 223.068 230.854 224.834 230.323 226.589C229.807 228.344 229.615 230.23 228.672 231.818C227.76 233.417 226.703 234.959 225.031 236.261L224.672 236.115C224.349 234.026 224.63 232.177 225.068 230.386C225.469 228.584 226.625 227.084 227.448 225.448C228.266 223.813 229.12 222.188 230.005 220.573C230.922 218.974 231.781 217.355 232.745 215.776ZM221.354 219.302L221.714 219.433C221.391 221.308 220.969 223.151 220.594 225.011C220.188 226.865 219.755 228.703 219.292 230.532C218.823 232.36 218.693 234.308 217.802 235.99C216.948 237.683 215.932 239.318 214.302 240.745L213.932 240.615C213.536 238.49 213.766 236.573 214.141 234.714C214.484 232.844 215.589 231.235 216.359 229.516C217.135 227.792 217.938 226.078 218.766 224.381C219.63 222.683 220.443 220.974 221.354 219.302ZM207.766 229.302L208.13 229.433C207.87 231.12 207.495 232.771 207.161 234.443C206.792 236.105 206.38 237.75 205.927 239.381C205.469 241.016 205.333 242.776 204.432 244.235C203.568 245.709 202.531 247.11 200.891 248.245L200.536 248.094C200.203 246.136 200.443 244.433 200.833 242.787C201.193 241.131 202.281 239.771 203.031 238.271C203.781 236.766 204.552 235.271 205.344 233.776C206.161 232.292 206.917 230.787 207.766 229.302ZM202.667 225.86L199.057 229.448C200.125 228.146 201.307 226.933 202.667 225.86ZM262.495 367.349C264.922 368.198 267.307 369.198 269.646 370.297C260.547 376.125 250.766 380.787 240.469 383.938C243.964 376.443 250.693 370.756 258.318 366.875C258.578 366.995 258.875 367.078 259.219 367.099C260.313 367.167 261.401 367.245 262.495 367.349ZM277.109 137.672C276.281 138.891 274.807 139.605 273.333 139.636C271.859 139.662 270.406 139.042 269.318 138.047C267.984 136.839 267.161 135.037 267.26 133.24C267.354 131.443 268.417 129.693 270.026 128.891C270.693 128.552 271.474 128.386 272.198 128.584C272.786 128.75 273.281 129.146 273.74 129.552C274.953 130.625 276.042 131.849 276.964 133.183L277.276 133.495C278.052 134.75 277.943 136.453 277.109 137.672ZM327.255 146.625C321.349 148.287 315.245 149.245 309.109 149.453C307.156 149.521 305.172 149.511 303.281 149.016C300.188 148.203 297.469 146.058 295.964 143.235C294.458 140.412 294.193 136.953 295.245 133.933L294.781 134.078C296.385 131.032 299.438 128.922 302.724 127.901C306.01 126.881 309.521 126.844 312.953 127.146C315.182 127.344 317.516 127.73 319.26 129.141C320.339 130.011 321.099 131.209 321.813 132.396C323.526 135.23 325.094 138.141 326.547 141.115C337.203 125.417 330.547 100.24 314.005 90.3962C296.583 80.0212 273.656 83.1983 256.052 93.266C248.849 97.3858 242.182 102.636 237.297 109.339C223.589 128.151 226.313 153.808 221.474 176.573C218.563 190.282 212.781 203.183 207.458 216.146C206.464 218.563 205.5 220.995 204.531 223.422C210.286 217.74 216.911 212.959 224.432 210.089C234.609 206.198 246.583 206.136 256.026 211.573C258.708 213.11 261.167 215.078 263.089 217.5C265.078 220 266.458 222.938 267.495 225.953C272.453 240.365 269.641 256.563 263.042 270.302C256.443 284.042 246.354 295.756 236.182 307.105C227.068 317.282 217.755 327.355 207.151 335.959C195.188 345.662 181.51 353.599 168.589 362.203C168.714 362.052 168.839 361.901 168.974 361.766C169.563 361.198 170.13 360.61 170.677 359.985C171.224 359.355 171.771 358.73 172.276 358.037L172.073 357.714C171.229 357.886 170.432 358.125 169.635 358.355C168.839 358.594 168.063 358.865 167.302 359.157C166.542 359.453 165.594 359.448 165.078 360.125C164.802 360.438 164.563 360.802 164.38 361.256C164.188 361.698 164.036 362.203 164 362.886L164.208 363.209C164.844 363.464 165.365 363.537 165.849 363.547C166.135 363.563 166.406 363.537 166.656 363.495C162.495 366.308 158.432 369.198 154.536 372.261C154.172 373.339 153.813 374.422 153.443 375.506C135.234 428.573 112.875 481.084 78 525.032C121.422 484.73 143.417 423.474 192.318 390.037C196.771 386.99 201.724 384.12 207.12 384.167C211.505 384.214 215.641 386.193 219.979 386.875C224.599 387.599 229.323 386.823 233.88 385.75C234.146 385.688 234.406 385.61 234.667 385.542C237.531 376.771 244.031 369.766 252.047 364.834C250.099 364.589 248.125 364.464 246.141 364.506C243.021 364.563 243.031 359.724 246.141 359.657C252.094 359.542 258.24 360.693 264.193 362.677C268.51 363.157 272.807 363.974 276.917 365.313C284.677 359.605 291.859 353.073 298.365 345.995C315.703 327.12 328.479 304.464 338.844 281.026C346.047 264.74 352.219 247.73 353.698 229.985C356.234 199.625 347.193 169.511 327.255 146.625Z" fill="#D5CB2C"/>
</g>
<path d="M204.837 374.084C204.868 374.193 204.905 374.308 204.936 374.423C204.493 374.792 204.051 375.162 203.41 375.693C203.316 375.105 203.254 374.725 203.165 374.162C203.785 374.131 204.311 374.105 204.837 374.084ZM310.363 215.464C310.546 215.464 310.728 215.464 310.91 215.464C310.91 216.24 310.91 217.016 310.91 217.787C310.728 217.787 310.546 217.792 310.363 217.792C310.363 217.016 310.363 216.24 310.363 215.464ZM317.618 218.23C318.223 218.23 318.749 218.23 319.655 218.23C318.931 218.99 318.405 219.542 317.618 220.365C317.618 219.381 317.618 218.85 317.618 218.23ZM312.098 224.334C312.895 225.032 313.436 225.495 313.973 225.964C313.889 226.1 313.806 226.24 313.728 226.381C313.197 226.381 312.671 226.381 312.098 226.381C312.098 225.798 312.098 225.271 312.098 224.334ZM223.478 199.766C224.145 199.766 224.671 199.766 225.629 199.766C224.884 200.48 224.395 200.949 223.655 201.646C223.582 200.865 223.535 200.37 223.478 199.766ZM345.014 205.969C344.874 205.964 344.738 205.964 344.598 205.959C344.598 205.105 344.598 204.251 344.598 203.396C344.738 203.407 344.874 203.412 345.014 203.423C345.014 204.266 345.014 205.12 345.014 205.969ZM325.79 284.553C325.848 284.667 325.905 284.787 325.962 284.902C325.728 285.094 325.488 285.277 325.259 285.475C324.983 285.714 324.723 285.969 324.217 286.428C324.139 285.777 324.082 285.308 323.999 284.641C324.655 284.61 325.223 284.579 325.79 284.553ZM281.618 354.917C281.077 355.532 280.639 356.027 279.952 356.792C279.629 355.12 279.999 354.532 281.618 354.917ZM316.525 239.548C316.525 239.709 316.525 239.865 316.53 240.027C315.749 240.027 314.973 240.027 314.197 240.027C314.186 239.865 314.171 239.709 314.155 239.548C314.947 239.548 315.738 239.548 316.525 239.548ZM292.816 352.943C292.905 352.943 292.988 352.943 293.072 352.943C292.988 353.027 292.905 353.11 292.816 353.193C292.816 353.11 292.816 353.027 292.816 352.943ZM299.577 255.959C299.681 255.975 299.78 255.995 299.884 256.016C299.832 256.511 299.931 257.1 299.686 257.459C299.535 257.683 298.868 257.548 298.243 257.589C298.832 256.865 299.207 256.412 299.577 255.959ZM237.993 265.183C237.842 265.178 237.686 265.173 237.535 265.167C237.535 264.355 237.535 263.537 237.535 262.719C237.686 262.735 237.842 262.751 237.993 262.771C237.993 263.574 237.993 264.376 237.993 265.183ZM268.717 129.542C268.046 129.511 267.483 129.485 266.54 129.443C267.233 128.693 267.717 128.167 268.535 127.271C268.618 128.282 268.66 128.808 268.717 129.542ZM245.749 127.495C245.707 127.495 245.592 127.173 245.645 127.12C245.796 126.959 246.004 126.761 246.191 126.756C246.884 126.751 247.577 126.818 248.27 126.86C248.28 127.079 248.296 127.292 248.311 127.511C247.457 127.511 246.603 127.516 245.749 127.495ZM270.957 124.917C271.098 124.954 271.238 124.99 271.379 125.027C271.431 125.584 271.473 126.146 271.546 126.912C270.79 126.792 270.233 126.704 269.4 126.574C270.046 125.886 270.504 125.402 270.957 124.917ZM301.785 115.48C302.29 114.902 302.796 114.329 303.499 113.527C303.759 115.579 303.759 115.579 301.785 115.48ZM297.691 110.11C297.832 110.167 297.973 110.219 298.113 110.277C298.087 110.756 298.061 111.24 298.03 111.808C297.483 111.808 297.02 111.808 296.259 111.808C296.853 111.105 297.275 110.605 297.691 110.11ZM315.895 111.834C316.379 111.256 316.796 110.756 317.395 110.048C317.395 110.771 317.395 111.261 317.395 111.943C316.764 111.896 316.301 111.865 315.895 111.834ZM256.676 156.303C256.645 156.313 256.618 156.313 256.587 156.324C256.608 156.308 256.629 156.287 256.645 156.271C256.655 156.266 256.665 156.256 256.676 156.251C256.676 156.266 256.676 156.287 256.676 156.303ZM258.447 155.001C257.858 155.417 257.264 155.834 256.676 156.251C256.65 155.688 256.624 155.12 256.587 154.402C257.275 154.495 257.785 154.568 258.296 154.641C258.342 154.761 258.4 154.881 258.447 155.001ZM286.931 102.501C286.124 102.501 285.311 102.501 284.504 102.501C284.504 102.381 284.504 102.256 284.509 102.131C285.332 102.131 286.155 102.131 286.978 102.131C286.962 102.256 286.947 102.381 286.931 102.501ZM246.212 148.495C245.952 148.777 245.342 148.73 244.884 148.824C244.848 148.699 244.806 148.574 244.77 148.454C245.311 148.146 245.853 147.834 246.259 147.61C246.259 147.641 246.436 148.256 246.212 148.495ZM311.686 146.829C312.322 146.225 312.801 145.766 313.457 145.141C313.837 146.959 313.717 147.074 311.686 146.829ZM258.327 146.438C257.52 145.688 257.025 145.225 256.223 144.469C257.264 144.35 257.78 144.292 258.509 144.214C258.452 144.912 258.41 145.454 258.327 146.438ZM264.863 137.673C265.967 136.667 267.212 136.745 267.733 137.85C266.681 137.782 265.863 137.735 264.863 137.673ZM310.952 93.6257C311.025 93.735 311.098 93.8444 311.171 93.9538C310.66 94.4173 310.139 95.2559 309.634 95.2507C309.139 95.2507 308.66 94.3757 307.915 93.6257C309.259 93.6257 310.108 93.6257 310.952 93.6257ZM297.124 301.282C297.165 301.824 297.202 302.271 297.249 302.834C296.645 302.834 296.118 302.834 295.53 302.834C295.301 301.646 295.759 301.131 297.124 301.282ZM269.514 119.516C268.811 119.454 268.316 119.407 267.717 119.35C267.717 118.771 267.717 118.24 267.717 117.532C268.28 117.501 268.853 117.469 269.514 117.433C269.514 118.152 269.514 118.735 269.514 119.516ZM263.832 122.86C262.952 122.495 262.176 122.178 261.41 121.86C261.4 121.719 261.384 121.579 261.374 121.438C262.171 121.324 262.967 121.204 264.056 121.048C263.957 121.86 263.895 122.344 263.832 122.86ZM266.993 126.032C266.879 125.219 266.806 124.74 266.728 124.183C266.962 124.11 267.139 123.995 267.306 124.011C268.056 124.068 268.801 124.167 269.54 124.251C269.035 124.584 268.52 124.917 268.02 125.261C267.754 125.443 267.504 125.646 266.993 126.032ZM287.27 127.553C287.202 127.021 287.145 126.537 287.082 125.995C288.025 125.995 288.884 125.995 289.738 125.995C289.764 126.089 289.79 126.178 289.811 126.277C289.046 126.662 288.27 127.053 287.27 127.553ZM244.478 145.36C244.478 145.35 244.483 145.339 244.483 145.334C244.488 145.339 244.504 145.339 244.509 145.339L244.478 145.36ZM242.874 143.49C243.389 143.454 243.952 143.417 244.77 143.36C244.66 144.126 244.572 144.73 244.483 145.334C243.629 145.094 242.618 145.001 242.874 143.49ZM244.478 145.36L244.509 145.339C244.514 145.344 244.525 145.344 244.53 145.35C244.514 145.35 244.493 145.36 244.478 145.36ZM247.52 146.584C246.285 146.074 245.405 145.709 244.53 145.35C245.363 145.146 246.202 144.943 247.223 144.699C247.27 144.995 247.348 145.501 247.52 146.584ZM236.316 172.391C236.712 171.6 237.103 170.813 237.499 170.032C237.78 170.173 238.056 170.318 238.327 170.464C237.941 171.23 237.561 172.001 237.129 172.745C237.113 172.777 236.598 172.516 236.316 172.391ZM327.759 253.818C328.02 254.063 328.337 254.24 328.723 254.521C328.098 255.094 327.577 255.568 326.837 256.251C326.837 255.016 326.837 254.167 326.837 253.324C326.957 253.245 327.072 253.162 327.191 253.084C327.379 253.329 327.535 253.61 327.759 253.818ZM284.379 248.699C284.493 248.652 284.608 248.61 284.723 248.563C285.077 248.995 285.436 249.428 285.848 249.923C285.452 250.396 285.124 250.787 284.504 251.532C284.452 250.35 284.415 249.521 284.379 248.699ZM278.197 110.933C278.624 111.058 279.082 111.188 279.962 111.438C278.874 112.079 278.145 112.506 277.415 112.928C277.342 112.808 277.264 112.683 277.191 112.558C277.504 112.053 277.816 111.548 278.197 110.933ZM286.759 241.183C287.228 241.865 287.723 242.532 288.124 243.245C288.197 243.37 287.941 243.839 287.749 243.907C287.556 243.975 287.134 243.803 287.035 243.615C286.66 242.954 286.384 242.235 286.066 241.537C286.296 241.417 286.53 241.298 286.759 241.183ZM261.436 114.777C261.15 113.438 261.587 112.844 262.962 112.98C263.316 114.209 262.988 114.881 261.436 114.777ZM338.764 240.24C338.15 240.282 337.665 240.313 337.046 240.355C337.046 239.657 337.046 239.037 337.046 238.277C337.577 238.355 338.056 238.428 338.65 238.516C338.686 239.084 338.723 239.615 338.764 240.24ZM335.462 237.391C334.822 238.553 334.348 239.423 333.686 240.631C332.941 238.464 333.311 237.771 335.462 237.391ZM301.957 231.766C301.926 231.235 301.9 230.751 301.863 230.204C302.499 230.204 303.03 230.204 303.561 230.204C303.832 231.49 303.441 232.058 301.957 231.766ZM262.436 117.969C263.118 117.579 263.806 117.183 264.717 116.667C264.827 117.308 264.91 117.792 265.035 118.516C264.087 118.438 263.285 118.37 262.483 118.303C262.467 118.193 262.452 118.079 262.436 117.969ZM275.858 328.928C276.004 329.048 276.15 329.167 276.296 329.282C275.827 330.053 275.363 330.829 274.811 331.751C273.973 330.146 274.217 329.615 275.858 328.928ZM281.572 345.594C282.145 345.594 282.603 345.594 283.113 345.594C282.743 346.527 282.426 347.334 282.108 348.146C281.967 348.115 281.827 348.079 281.686 348.048C281.65 347.261 281.613 346.475 281.572 345.594ZM221.78 192.303C222.025 191.735 222.462 191.251 223.009 190.469C223.259 190.501 223.733 190.558 224.098 190.6C223.759 191.417 223.462 192.152 223.051 193.162C222.957 193.173 222.499 193.344 222.113 193.235C221.915 193.178 221.676 192.537 221.78 192.303ZM230.342 339.678C230.473 339.756 230.603 339.834 230.733 339.917C230.733 341.105 230.733 342.303 230.733 343.49C230.629 343.548 230.514 343.6 230.41 343.652C229.931 342.87 229.223 342.126 229.072 341.282C228.993 340.839 229.884 340.219 230.342 339.678ZM284.29 146.652C283.046 147.209 281.957 147.699 280.874 148.183C280.806 148.027 280.738 147.865 280.671 147.709C281.462 146.183 282.452 145.839 284.29 146.652ZM260.53 160.85C260.426 160.709 260.322 160.563 260.217 160.417C260.796 159.933 261.332 159.11 261.973 159.021C263.15 158.86 263.228 159.818 263.04 160.85C262.197 160.85 261.368 160.85 260.53 160.85ZM262.04 169.027C261.499 169.058 261.061 169.079 260.051 169.131C260.728 167.99 261.207 167.183 261.686 166.376C261.806 166.443 261.926 166.511 262.04 166.579C262.04 167.365 262.04 168.157 262.04 169.027ZM272.191 281.798C272.874 283.245 271.723 283.777 270.91 284.553C270.014 282.516 270.374 281.803 272.191 281.798ZM301.025 93.4642C300.009 93.5111 299.134 93.5527 298.15 93.5944C298.186 92.8861 298.212 92.3913 298.238 91.9225C299.978 91.5996 299.978 91.5996 301.025 93.4642ZM233.504 297.011C233.118 298.11 232.733 299.204 232.233 300.631C231.421 298.584 231.535 298.225 233.504 297.011ZM286.395 312.412C285.504 313.386 284.79 314.178 284.035 314.933C283.999 314.964 283.426 314.657 283.374 314.438C283.02 313.021 284.249 312.089 286.395 312.412ZM278.681 96.86C277.947 97.4069 277.207 97.9486 276.134 98.735C276.134 97.6569 276.134 97.0944 276.134 96.2871C277.04 96.36 277.811 96.4277 278.582 96.4954C278.613 96.6152 278.65 96.735 278.681 96.86ZM348.337 215.23C348.155 215.167 347.962 215.105 347.77 215.037C348.197 213.881 348.624 212.73 349.176 211.235C350.249 213.245 349.983 214.11 348.337 215.23ZM244.931 140.469C244.316 138.459 244.556 138.016 246.363 137.985C246.415 138.86 246.457 139.605 246.514 140.469C245.957 140.469 245.441 140.469 244.931 140.469ZM308.353 298.339C309.025 298.391 309.551 298.428 310.108 298.475C310.108 299.37 310.108 300.157 310.108 301.068C309.504 301.11 308.983 301.146 308.353 301.188C308.353 300.204 308.353 299.329 308.353 298.339ZM315.077 92.5684C314.092 92.9642 313.077 93.3757 311.837 93.8757C311.973 92.8288 312.04 92.334 312.139 91.584C312.671 91.6257 313.186 91.6673 313.697 91.709C313.796 91.7663 313.9 91.8184 314.004 91.8809C314.368 92.0996 314.723 92.3392 315.077 92.5684ZM331.853 253.86C332.389 255.011 332.728 255.745 333.202 256.766C332.582 256.792 331.832 257.053 331.467 256.787C330.988 256.438 330.582 255.673 330.587 255.089C330.592 254.699 331.358 254.308 331.853 253.86ZM306.285 258.641C306.743 260.662 305.827 261.589 303.733 261.225C304.118 260.433 304.499 259.667 304.936 258.782C305.301 258.745 305.796 258.693 306.285 258.641ZM289.431 115.912C290.363 117.485 289.421 118.412 288.509 119.344C287.66 118.084 287.905 117.105 289.431 115.912ZM324.868 239.235C324.27 239.266 323.738 239.298 322.993 239.339C323.061 238.386 323.113 237.568 323.165 236.771C325.02 236.579 325.129 236.725 324.868 239.235ZM340.441 243.527C340.473 244.131 340.52 244.912 340.566 245.782C339.639 245.308 338.848 245.032 338.228 244.537C337.947 244.308 338.004 243.662 337.905 243.204C338.202 243.37 338.493 243.641 338.806 243.673C339.275 243.719 339.764 243.6 340.441 243.527ZM285.973 119.469C285.973 120.657 285.973 121.761 285.973 123.027C283.686 121.527 283.707 120.626 285.973 119.469ZM287.936 348.261C287.54 349.12 287.332 349.719 287.004 350.235C286.801 350.563 286.447 350.943 286.108 351.006C285.592 351.105 285.025 350.969 284.483 350.886C284.426 350.87 284.316 350.438 284.4 350.35C285.046 349.636 285.665 348.876 286.426 348.303C286.743 348.068 287.379 348.261 287.936 348.261ZM275.848 119.074C276.681 117.928 277.457 116.865 278.228 115.808C278.358 115.824 278.488 115.839 278.613 115.855C278.613 116.646 278.926 117.693 278.535 118.167C278.025 118.798 277.384 120.058 275.848 119.074ZM270.16 96.2194C269.832 96.2715 269.311 96.36 268.415 96.5059C268.686 95.6309 268.837 95.0111 269.072 94.4277C269.296 93.8652 269.608 93.3392 269.941 92.6882C270.384 93.0996 270.837 93.5215 271.16 93.8184C270.79 94.7038 270.509 95.3757 270.16 96.2194ZM272.717 121.876C272.457 121.667 272.285 120.834 272.436 120.704C273.145 120.126 273.973 119.693 274.759 119.204C274.936 119.386 275.113 119.568 275.29 119.745C274.858 120.49 274.488 121.287 273.947 121.928C273.77 122.136 272.993 122.094 272.717 121.876ZM298.051 105.449C297.207 105.449 296.348 105.449 295.53 105.449C295.931 104.209 296.28 103.115 296.634 102.016C298.379 102.636 298.238 103.964 298.051 105.449ZM231.223 150.501C230.384 148.735 230.639 147.73 232.436 146.115C233.03 149.094 232.921 149.48 231.223 150.501ZM330.535 232.777C330.546 232.798 330.556 232.824 330.566 232.844C330.54 232.839 330.514 232.829 330.488 232.824L330.535 232.777ZM330.566 232.844C330.707 232.881 330.884 232.933 330.926 232.886C332.092 231.438 333.03 231.782 333.952 233.584C333.223 233.949 332.452 234.563 331.639 234.626C331.322 234.646 330.931 233.506 330.566 232.844ZM226.546 263.329C225.702 261.214 226.285 259.292 227.837 258.771C228.426 261.412 228.301 261.891 226.546 263.329ZM327.207 261.688C327.514 262.37 327.613 263.146 327.837 264.094C326.686 264.094 325.947 264.094 324.717 264.094C325.217 263.084 325.52 262.282 326.009 261.62C326.15 261.433 327.118 261.506 327.207 261.688ZM305.874 267.933C305.473 268.636 305.311 269.324 304.905 269.537C304.056 269.985 303.082 270.188 302.134 270.501C301.473 268.61 302.358 267.85 305.874 267.933ZM345.087 234.693C343.118 232.985 343.118 232.985 343.66 230.636C344.603 231.209 345.79 231.527 345.978 232.152C346.181 232.824 345.447 233.777 345.087 234.693ZM237.228 162.792C237.238 162.782 237.249 162.777 237.254 162.766C237.259 162.766 237.259 162.761 237.259 162.761H237.264C237.259 162.771 237.259 162.782 237.259 162.798C237.249 162.798 237.238 162.792 237.228 162.792ZM236.681 168.089C236.879 166.308 237.072 164.553 237.259 162.798C237.822 162.844 238.389 162.902 239.202 162.975C238.79 163.48 238.582 163.74 238.374 163.995C239.243 165.042 238.52 166.834 236.681 168.089ZM229.04 163.225C229.681 162.313 230.504 161.532 231.27 160.709C231.405 160.829 231.551 160.964 231.686 161.089C231.686 161.949 231.764 162.813 231.671 163.662C231.535 164.891 230.52 164.693 229.806 164.475C229.436 164.36 228.921 163.396 229.04 163.225ZM264.603 124.412C265.738 126.74 265.082 127.704 262.249 127.542C262.249 126.667 262.249 125.787 262.249 124.975C263.092 124.771 263.842 124.594 264.603 124.412ZM295.556 112.756C293.962 113.074 292.655 113.271 292.03 111.417C292.837 110.699 293.04 108.917 295.233 109.381C293.738 110.693 294.853 111.699 295.556 112.756ZM270.54 143.709C271.915 143.105 273.316 142.495 274.931 141.792C274.993 142.475 275.066 143.261 275.16 144.271C273.582 144.235 272.275 144.193 271.952 145.954C271.431 145.126 271.009 144.454 270.54 143.709ZM270.191 370.516C270.296 370.766 270.389 371.001 270.483 371.235C269.879 371.631 269.27 372.032 268.655 372.417C268.629 372.204 268.618 371.969 268.639 371.709C268.733 370.657 269.259 370.287 270.191 370.516ZM287.363 114.641C286.775 113.027 287.342 111.933 288.676 111.089C289.056 110.855 289.363 110.495 289.702 110.193C290.082 110.912 291.254 111.344 290.743 112.36C290.447 112.964 289.816 113.454 289.238 113.855C288.733 114.199 288.092 114.35 287.363 114.641ZM330.535 232.777L330.488 232.824C330.488 232.818 330.488 232.813 330.488 232.808C330.504 232.798 330.52 232.787 330.535 232.777ZM330.342 230.777C330.41 231.719 330.447 232.266 330.488 232.808C329.702 233.344 328.91 233.886 328.03 234.485C326.707 233.699 325.988 232.485 326.889 231.589C327.582 230.902 329.092 231.032 330.342 230.777ZM348.676 250.584C349.113 251.141 349.129 252.152 347.936 252.24C347.092 252.308 346.238 252.256 345.603 252.256C345.108 250.834 344.738 249.766 344.322 248.574C346.16 248.563 347.624 249.266 348.676 250.584ZM338.592 249.548C339.025 251.037 339.436 252.433 339.842 253.829C339.655 253.923 339.462 254.016 339.275 254.105C337.858 252.725 336.441 251.35 335.025 249.969C335.082 249.829 335.139 249.688 335.202 249.548C336.327 249.548 337.457 249.548 338.592 249.548ZM287.999 105.365C288.108 104.688 288.228 103.964 288.327 103.344C288.27 102.433 287.895 101.386 288.249 100.745C288.613 100.084 289.686 99.8132 290.452 99.3704C290.566 99.4434 290.686 99.5215 290.801 99.5944C290.598 100.037 290.301 100.464 290.212 100.938C290.02 101.938 289.848 102.959 289.837 103.98C289.816 105.084 289.613 105.813 287.999 105.365ZM251.29 149.636C250.316 147.037 254.327 146.798 253.77 144.042C254.546 144.407 255.129 144.542 255.473 144.907C255.598 145.037 255.145 145.704 254.973 146.131C254.868 146.391 254.66 146.709 254.733 146.923C255.118 148.063 254.082 148.376 253.54 148.808C252.973 149.261 252.124 149.35 251.29 149.636ZM306.988 224.579C306.645 224.896 306.327 225.193 305.686 225.798C305.686 224.553 305.686 223.725 305.686 223.126C306.884 222.683 307.947 222.287 309.04 221.881C309.301 222.902 309.577 223.964 309.915 225.277C308.983 225.402 307.91 226.042 306.988 224.579ZM272.572 274.308C272.671 273.016 271.645 271.657 273.129 270.475C273.566 270.126 273.103 268.834 274.165 268.532C274.629 268.396 275.103 268.303 275.572 268.188C275.561 268.735 275.577 269.277 275.52 269.813C275.499 270.021 275.165 270.219 275.186 270.402C275.41 272.386 273.77 273.173 272.572 274.308ZM300.243 107.803C301.608 107.245 302.962 106.693 304.421 106.1C304.551 106.277 304.822 106.641 305.191 107.146C304.993 107.558 304.655 108.266 304.275 109.042C303.884 108.751 303.561 108.506 303.051 108.12C302.879 108.798 302.749 109.308 302.572 110.021C301.483 110.021 300.311 110.021 299.02 110.021C299.478 109.183 299.889 108.438 300.243 107.803ZM235.801 163.49C235.473 163.188 235.03 162.787 234.493 162.292C235.228 161.365 235.962 160.449 236.691 159.527C236.811 159.615 236.936 159.709 237.061 159.798C237.415 158.719 237.743 157.626 238.15 156.568C238.217 156.386 238.822 156.209 238.827 156.23C239.129 156.751 239.697 157.381 239.582 157.829C239.264 159.115 238.691 160.344 238.15 161.563C237.952 162.011 237.561 162.37 237.254 162.766C236.806 162.99 236.358 163.214 235.801 163.49ZM273.785 123.136C276.499 125.115 275.514 127.23 273.717 129.423C273.493 129.423 273.04 129.423 272.41 129.423C272.681 127.271 271.171 124.876 273.785 123.136ZM236.551 155.423C236.28 154.589 236.03 153.839 235.733 152.917C236.15 152.042 236.665 150.928 237.228 149.834C237.535 149.23 237.889 148.636 238.306 148.105C238.41 147.98 239.061 148.048 239.082 148.131C239.285 148.85 240.488 149.094 239.879 150.251C239.082 151.766 238.535 153.423 237.764 155.308C237.52 155.334 237.025 155.376 236.551 155.423ZM252.551 291.094C252.348 292.574 252.27 293.912 251.957 295.193C251.686 296.298 251.165 297.334 250.733 298.391C250.613 298.688 250.368 298.928 250.243 299.219C249.837 300.173 249.462 301.136 248.978 302.329C247.999 300.636 248.723 297.699 248.921 296.428C249.202 294.605 250.395 293.506 251.072 292.042C251.54 291.032 251.983 290.907 252.551 291.094ZM290.228 128.798C290.587 129.063 290.707 129.641 290.863 129.949C289.113 130.829 287.723 131.527 286.27 132.256C286.202 131.735 286.134 131.24 286.051 130.548C284.999 130.464 283.905 130.376 282.759 130.287C281.697 128.136 283.301 127.214 284.999 126.157C285.676 127.011 286.415 128.021 287.249 128.938C287.764 129.511 288.395 130.032 289.025 128.907C289.15 128.693 289.978 128.61 290.228 128.798ZM281.348 142.011C280.363 142.704 279.368 143.402 278.478 144.021C277.629 143.709 276.863 143.428 275.634 142.98C276.868 142.214 277.853 141.605 279.145 140.808C277.962 140.662 277.061 140.553 276.113 140.438C277.379 138.542 283.051 137.308 287.181 138.355C285.072 139.178 282.967 139.99 280.639 140.891C280.858 141.24 281.108 141.631 281.348 142.011ZM248.488 155.641C250.197 155.376 251.775 155.126 253.811 154.803C254.431 155.141 255.009 156.709 256.587 156.324C256.124 156.725 255.655 157.126 255.191 157.527C255.087 157.449 254.983 157.37 254.879 157.292C254.848 158.146 254.806 159.001 254.78 159.574C253.577 160.266 252.556 160.855 251.374 161.537C250.785 161.016 250.051 160.365 249.332 159.725C250.384 158.167 250.275 157.589 248.488 155.641ZM244.811 166.36C245.629 166.412 246.473 166.475 247.436 166.537C246.775 168.423 245.426 168.454 244.004 168.245C243.634 167.027 243.139 165.85 242.962 164.631C242.863 163.943 243.275 163.183 243.467 162.454C243.488 162.355 243.561 162.271 243.582 162.173C243.889 160.787 243.514 159.277 244.561 157.975C244.827 157.652 244.165 156.615 243.999 155.896C243.863 155.287 243.087 154.334 244.634 154.433C244.358 153.98 244.082 153.527 243.796 153.053C244.561 152.23 245.311 151.433 246.145 150.532C246.639 152.277 245.785 154.282 244.665 154.454C245.051 156.042 246.415 154.959 247.426 155.521C247.426 156.594 247.379 157.798 247.436 158.995C247.488 160.146 247.639 161.292 247.749 162.521C245.634 163.313 244.551 164.615 244.811 166.36ZM263.681 252.605C263.108 254.501 262.509 256.376 261.874 258.245C261.243 260.11 260.941 262.12 259.895 263.808C258.884 265.511 257.712 267.146 255.952 268.521L255.598 268.37C255.395 266.141 255.79 264.173 256.337 262.266C256.848 260.35 258.103 258.751 259.03 257.016C259.962 255.277 260.915 253.548 261.905 251.834C262.926 250.136 263.895 248.417 264.952 246.735L265.311 246.886C264.816 248.813 264.223 250.699 263.681 252.605ZM253.973 249.042C253.332 246.995 253.395 245.058 253.665 243.178C253.9 241.277 254.957 239.626 255.712 237.902C256.478 236.183 257.311 234.49 258.223 232.844C259.165 231.214 260.098 229.584 261.165 228.037L261.514 228.199C261.009 230.006 260.462 231.771 260.02 233.568C259.546 235.35 259.082 237.131 258.645 238.907C258.207 240.688 258.16 242.568 257.389 244.235C256.655 245.912 255.801 247.563 254.353 249.126L253.973 249.042ZM252.186 278.589C251.978 279.334 251.738 280.058 251.473 280.766C251.212 281.48 251.249 282.376 250.603 282.844C250.301 283.089 249.957 283.303 249.52 283.464C249.092 283.631 248.603 283.756 247.936 283.766L247.613 283.553C247.342 282.943 247.254 282.449 247.228 281.99C247.191 281.527 247.243 281.12 247.342 280.745C247.499 279.969 248.332 279.626 248.863 279.089C249.405 278.558 249.967 278.042 250.556 277.542C251.155 277.048 251.749 276.553 252.405 276.1L252.733 276.303C252.587 277.094 252.384 277.839 252.186 278.589ZM244.832 272.975C243.9 274.428 242.816 275.818 241.139 276.943L240.785 276.782C240.509 274.782 240.827 273.053 241.296 271.386C241.733 269.709 242.905 268.36 243.749 266.865C244.598 265.37 245.473 263.886 246.379 262.423C247.322 260.964 248.207 259.49 249.191 258.058L249.54 258.214C249.124 259.902 248.613 261.548 248.15 263.214C247.655 264.865 247.134 266.506 246.577 268.131C246.025 269.756 245.796 271.532 244.832 272.975ZM238.863 292.537C238.16 294.027 237.431 295.501 236.671 296.959C235.91 298.417 235.452 300.068 234.316 301.277C233.207 302.506 231.962 303.641 230.171 304.428L229.848 304.219C229.848 302.261 230.389 300.662 231.066 299.157C231.717 297.631 233.046 296.542 234.077 295.266C235.103 293.985 236.16 292.719 237.243 291.475C238.353 290.251 239.421 288.995 240.572 287.792L240.9 288.006C240.264 289.542 239.54 291.021 238.863 292.537ZM226.561 295.527C225.785 297.35 225.327 299.339 224.15 300.949C223.009 302.579 221.723 304.131 219.858 305.381L219.509 305.204C219.483 302.954 220.025 301.011 220.723 299.146C221.384 297.266 222.759 295.761 223.816 294.089C224.879 292.412 225.967 290.756 227.087 289.115C228.233 287.485 229.332 285.834 230.525 284.23L230.868 284.412C230.223 286.303 229.488 288.146 228.801 290.016C228.082 291.865 227.337 293.704 226.561 295.527ZM220.77 319.688C219.608 321.016 218.452 322.329 217.28 323.631C216.113 324.933 215.207 326.501 213.764 327.501C212.332 328.532 210.806 329.459 208.816 329.954L208.54 329.678C209.009 327.678 209.967 326.131 211.066 324.725C212.134 323.282 213.77 322.433 215.176 321.355C216.577 320.271 218.014 319.235 219.483 318.24C220.973 317.261 222.436 316.271 223.973 315.37L224.228 315.662C223.087 317.032 221.905 318.334 220.77 319.688ZM207.145 321.167C206.29 322.391 205.676 323.85 204.447 324.74C203.249 325.657 201.915 326.443 200.118 326.745L199.842 326.469C200.113 324.678 200.806 323.339 201.608 322.105C202.379 320.844 203.728 320.115 204.806 319.126C205.884 318.136 206.973 317.157 208.072 316.167C209.202 315.209 210.275 314.188 211.41 313.219L211.723 313.459C211.066 314.808 210.311 316.089 209.572 317.402C208.806 318.688 207.999 319.943 207.145 321.167ZM200.113 338.141C199.426 339.23 198.681 340.287 197.889 341.308C197.108 342.324 196.53 343.589 195.389 344.251C194.275 344.933 193.03 345.475 191.379 345.469L191.124 345.178C191.389 343.548 192.03 342.423 192.759 341.402C193.467 340.355 194.707 339.881 195.697 339.115L198.686 336.834L201.743 334.532L202.04 334.782C201.462 335.943 200.78 337.032 200.113 338.141ZM187.296 342.053C186.447 343.36 185.822 344.896 184.561 345.87C183.337 346.865 181.957 347.719 180.113 348.068L179.837 347.798C180.145 345.954 180.858 344.579 181.671 343.287C182.452 341.975 183.811 341.173 184.889 340.105L188.118 336.865C189.228 335.798 190.27 334.667 191.368 333.563L191.691 333.777C191.103 335.225 190.389 336.61 189.681 338.016C188.947 339.391 188.15 340.745 187.296 342.053ZM175.613 332.829L175.275 332.646C175.098 330.719 175.514 329.1 176.098 327.563C176.65 326.006 177.915 324.865 178.884 323.563C179.863 322.261 180.874 320.98 181.931 319.745C183.014 318.516 184.066 317.277 185.217 316.115L185.535 316.329C184.9 317.834 184.202 319.287 183.566 320.777C182.9 322.251 182.228 323.709 181.546 325.162C180.863 326.61 180.504 328.245 179.467 329.48C178.457 330.74 177.322 331.923 175.613 332.829ZM176.556 342.813C175.915 344.074 175.259 345.334 174.592 346.568C173.926 347.818 173.572 349.256 172.561 350.261C171.577 351.282 170.467 352.225 168.811 352.855L168.483 352.646C168.327 350.881 168.754 349.449 169.327 348.12C169.874 346.771 171.103 345.876 172.051 344.803C172.993 343.725 173.973 342.683 174.993 341.667C176.046 340.678 177.056 339.667 178.165 338.735L178.467 338.969C177.858 340.277 177.176 341.521 176.556 342.813ZM181.41 299.308C181.754 298.037 182.785 297.12 183.493 296.021C184.191 294.923 184.91 293.818 185.634 292.714L187.837 289.386L188.197 289.527C188.009 290.865 187.697 292.162 187.41 293.485C187.092 294.792 186.717 296.084 186.29 297.355C185.863 298.626 185.723 300.058 184.842 301.11C184.004 302.173 182.988 303.152 181.405 303.761L181.066 303.568C180.785 301.902 181.035 300.574 181.41 299.308ZM189.332 271.745C189.452 270.24 190.353 268.954 190.91 267.568C191.473 266.188 192.061 264.813 192.681 263.449C193.337 262.094 193.941 260.725 194.639 259.381L195.009 259.49C194.905 260.995 194.702 262.48 194.546 263.98C194.358 265.464 194.145 266.943 193.895 268.417C193.65 269.886 193.738 271.454 193.056 272.798C192.41 274.157 191.603 275.469 190.165 276.605L189.796 276.495C189.165 274.777 189.165 273.24 189.332 271.745ZM188.488 327.016C188.488 327.85 188.488 328.605 188.488 329.391C188.457 329.407 188.431 329.423 188.4 329.438L188.082 329.219C188.217 327.136 188.889 325.423 189.697 323.803C190.473 322.162 191.915 320.98 193.061 319.6C194.212 318.209 195.389 316.844 196.592 315.495C197.822 314.167 199.009 312.808 200.28 311.511L200.598 311.73C199.832 313.381 198.988 314.975 198.186 316.594C197.358 318.204 196.499 319.787 195.613 321.35C194.733 322.923 194.145 324.693 192.884 326.001C192.092 326.865 191.217 327.683 190.197 328.391C190.275 327.178 189.905 327.053 188.488 327.016ZM201.056 281.636L201.421 281.766C200.921 284.032 200.301 286.251 199.717 288.49C199.098 290.714 198.436 292.928 197.728 295.12C197.368 296.219 197.082 297.344 196.764 298.459C196.441 299.574 196.004 300.641 195.457 301.657C194.905 302.678 194.29 303.667 193.582 304.61C192.879 305.563 192.108 306.48 191.139 307.308L190.78 307.157C190.733 305.881 190.868 304.693 191.072 303.542C191.134 303.183 191.212 302.839 191.285 302.49C191.316 302.641 191.342 302.787 191.363 302.938C191.54 302.933 191.712 302.933 191.889 302.928C192.197 301.907 192.098 300.855 192.035 299.74C192.353 298.798 192.738 297.881 193.217 297.001C193.441 296.594 193.671 296.183 193.895 295.771C193.889 296.162 193.874 296.548 193.874 296.933C193.874 297.115 194.212 297.303 194.395 297.49C194.546 297.271 194.816 297.053 194.822 296.829C194.842 295.891 194.832 294.954 194.822 294.016C194.832 293.995 194.842 293.98 194.853 293.964C195.853 291.902 196.874 289.85 197.91 287.792C198.978 285.751 199.978 283.678 201.056 281.636ZM200.832 242.787C201.191 241.131 202.28 239.771 203.03 238.271C203.78 236.766 204.551 235.271 205.342 233.777C206.16 232.292 206.915 230.787 207.764 229.303L208.129 229.433C207.868 231.12 207.493 232.771 207.16 234.443C206.79 236.105 206.379 237.751 205.926 239.381C205.467 241.016 205.332 242.777 204.431 244.235C203.566 245.709 202.53 247.11 200.889 248.245L200.535 248.094C200.202 246.136 200.441 244.433 200.832 242.787ZM199.29 271.251C199.249 269.959 199.441 268.761 199.717 267.594C199.775 267.339 199.853 267.089 199.936 266.85C200.452 266.954 200.858 267.037 201.395 267.146C201.254 266.35 201.16 265.798 201.056 265.24C200.858 265.396 200.655 265.553 200.431 265.725C200.9 264.824 201.488 263.964 201.957 263.068C202.733 261.568 203.535 260.079 204.374 258.605C205.238 257.146 206.051 255.662 206.967 254.219L207.327 254.365C206.988 256.037 206.551 257.673 206.171 259.329C205.754 260.969 205.306 262.6 204.832 264.219C204.358 265.839 204.212 267.584 203.316 269.037C202.457 270.501 201.441 271.902 199.822 273.063L199.462 272.917C199.426 272.725 199.4 272.542 199.374 272.355C199.53 271.928 199.504 271.563 199.29 271.251ZM211.457 281.98L211.816 282.126C211.405 283.938 210.895 285.709 210.436 287.511C209.947 289.287 209.426 291.058 208.879 292.818C208.327 294.574 208.108 296.464 207.139 298.048C206.233 299.6 205.176 301.089 203.572 302.355C203.556 302.344 203.535 302.339 203.514 302.334C203.514 302.36 203.509 302.386 203.509 302.407C203.478 302.428 203.457 302.449 203.431 302.469L203.072 302.324C202.78 300.219 203.092 298.36 203.556 296.574C203.988 294.766 205.16 293.266 206.014 291.636C206.858 290.001 207.738 288.376 208.645 286.766C209.587 285.173 210.478 283.553 211.457 281.98ZM210.207 270.011C210.395 268.969 210.671 267.975 210.993 267.006C211.316 266.037 211.743 265.12 212.27 264.24C212.801 263.365 213.348 262.495 213.822 261.594L219.509 250.657L219.879 250.787C219.488 252.824 218.967 254.829 218.467 256.844C217.936 258.85 217.337 260.839 216.676 262.803C216.348 263.787 216.077 264.798 215.775 265.798C215.629 266.256 215.462 266.699 215.27 267.136C215.103 266.787 214.926 266.417 214.728 266.016C214.181 267.079 213.785 267.855 213.165 269.048C213.655 268.923 214.066 268.818 214.447 268.725C213.921 269.579 213.337 270.412 212.66 271.193C211.962 272.006 211.197 272.782 210.243 273.449L209.895 273.277C209.863 272.11 210.004 271.042 210.207 270.011ZM214.139 234.714C214.483 232.844 215.587 231.235 216.358 229.516C217.134 227.792 217.936 226.079 218.764 224.381C219.629 222.683 220.441 220.975 221.353 219.303L221.712 219.433C221.389 221.308 220.967 223.152 220.592 225.011C220.186 226.865 219.754 228.704 219.29 230.532C218.822 232.36 218.691 234.308 217.801 235.99C216.947 237.683 215.931 239.318 214.301 240.745L213.931 240.615C213.535 238.49 213.764 236.574 214.139 234.714ZM211.66 302.735L211.316 302.553C211.301 300.277 211.822 298.308 212.478 296.407C213.098 294.49 214.415 292.917 215.405 291.167L218.384 285.923L221.415 280.662L221.77 280.808C221.306 282.792 220.723 284.735 220.16 286.688C219.566 288.636 218.921 290.558 218.217 292.464C217.52 294.37 217.113 296.428 215.957 298.115C214.832 299.824 213.54 301.443 211.66 302.735ZM223.363 264.798C223.827 263.063 225.02 261.662 225.895 260.11C226.77 258.563 227.671 257.027 228.603 255.506C229.561 253.995 230.473 252.464 231.483 250.98L231.837 251.136C231.395 252.881 230.853 254.579 230.368 256.298C229.848 258.006 229.301 259.699 228.723 261.381C228.145 263.063 227.889 264.886 226.9 266.381C225.941 267.896 224.837 269.339 223.129 270.516L222.78 270.355C222.525 268.303 222.868 266.516 223.363 264.798ZM225.066 230.386C225.467 228.584 226.624 227.084 227.447 225.449C228.264 223.813 229.118 222.188 230.004 220.574C230.921 218.975 231.78 217.355 232.743 215.777L233.103 215.917C232.717 217.725 232.233 219.501 231.806 221.287C231.342 223.068 230.853 224.834 230.322 226.589C229.806 228.344 229.613 230.23 228.671 231.818C227.759 233.417 226.702 234.959 225.03 236.261L224.671 236.115C224.348 234.027 224.629 232.178 225.066 230.386ZM236.358 262.563C237.228 261.105 238.108 259.652 239.009 258.204C239.941 256.771 240.806 255.298 241.759 253.86L242.113 254.011C241.733 255.699 241.238 257.339 240.775 258.995C240.285 260.646 239.743 262.277 239.16 263.886C238.577 265.501 238.296 267.266 237.27 268.667C236.285 270.089 235.129 271.423 233.395 272.433L233.051 272.256C232.889 270.256 233.275 268.563 233.801 266.943C234.29 265.308 235.488 264.021 236.358 262.563ZM235.837 231.1C236.29 229.209 237.488 227.615 238.363 225.896C239.233 224.173 240.134 222.464 241.061 220.771C242.03 219.084 242.936 217.386 243.941 215.73L244.301 215.881C243.863 217.777 243.332 219.636 242.853 221.511C242.342 223.37 241.801 225.219 241.233 227.053C240.665 228.891 240.431 230.855 239.441 232.521C238.488 234.204 237.374 235.824 235.655 237.219L235.296 237.074C235.02 234.912 235.348 232.975 235.837 231.1ZM246.811 233.995C247.275 232.105 248.488 230.516 249.368 228.803C250.249 227.084 251.16 225.381 252.103 223.693C253.072 222.016 253.993 220.318 255.004 218.667L255.363 218.824C254.915 220.719 254.374 222.574 253.884 224.443C253.363 226.308 252.816 228.152 252.238 229.98C251.655 231.813 251.405 233.777 250.41 235.433C249.447 237.105 248.332 238.725 246.603 240.11L246.238 239.969C245.973 237.803 246.311 235.87 246.811 233.995ZM267.493 225.954C266.457 222.938 265.077 220.001 263.087 217.501C261.165 215.079 258.707 213.11 256.025 211.574C246.582 206.136 234.608 206.199 224.431 210.089C216.91 212.959 210.285 217.74 204.53 223.423C191.176 257.053 180.436 291.646 169.52 326.183C170.03 325.204 170.665 324.277 171.16 323.282L173.54 318.485C174.363 316.886 175.108 315.251 175.915 313.626L176.29 313.74C176.066 315.548 175.717 317.324 175.374 319.115C174.999 320.891 174.556 322.657 174.051 324.407C173.546 326.152 173.322 328.032 172.332 329.584C171.368 331.146 170.223 332.626 168.473 333.771L168.124 333.6C168.009 332.24 168.134 331.021 168.358 329.85C166.426 335.943 164.483 342.037 162.525 348.12C163.051 347.516 163.577 346.896 164.118 346.287C164.316 346.292 164.551 346.271 164.822 346.23C164.665 347.188 164.441 348.126 164.197 349.068C163.926 350.068 163.603 351.053 163.233 352.021C162.863 352.98 162.775 354.136 161.983 354.855C161.613 355.225 161.186 355.563 160.671 355.834C160.436 355.969 160.181 356.084 159.9 356.188C158.145 361.558 156.353 366.912 154.535 372.261C158.431 369.199 162.493 366.308 166.655 363.495C166.405 363.537 166.134 363.563 165.848 363.548C165.363 363.537 164.842 363.464 164.207 363.209L163.999 362.886C164.035 362.204 164.186 361.699 164.379 361.256C164.561 360.803 164.801 360.438 165.077 360.126C165.592 359.449 166.54 359.454 167.301 359.157C168.061 358.865 168.837 358.594 169.634 358.355C170.431 358.126 171.228 357.886 172.072 357.714L172.275 358.037C171.77 358.73 171.223 359.355 170.676 359.985C170.129 360.61 169.561 361.199 168.973 361.766C168.837 361.902 168.712 362.053 168.587 362.204C181.509 353.6 195.186 345.662 207.15 335.959C217.754 327.355 227.066 317.282 236.181 307.105C246.353 295.756 256.441 284.042 263.04 270.303C269.639 256.563 272.452 240.365 267.493 225.954ZM154.342 366.042C153.905 367.079 153.441 368.1 152.957 369.105C152.462 370.11 152.27 371.313 151.405 372.063C150.999 372.454 150.54 372.808 149.999 373.105C149.462 373.407 148.868 373.673 148.098 373.813L147.775 373.6C147.629 372.829 147.66 372.178 147.749 371.568C147.822 370.954 147.988 370.396 148.207 369.881C148.587 368.798 149.639 368.183 150.395 367.36C151.15 366.537 151.936 365.735 152.743 364.949C153.561 364.173 154.374 363.391 155.254 362.646L155.572 362.87C155.202 363.954 154.77 364.995 154.342 366.042ZM158.858 356.449L158.535 356.23C158.358 355.506 158.342 354.902 158.389 354.344C158.421 353.777 158.54 353.271 158.702 352.792C158.973 351.813 159.915 351.251 160.546 350.475C161.176 349.704 161.822 348.933 162.483 348.162C162.493 348.146 162.509 348.131 162.525 348.12C164.483 342.037 166.426 335.943 168.358 329.85C168.473 329.235 168.613 328.626 168.78 328.032C168.947 327.381 169.207 326.771 169.52 326.183C180.436 291.646 191.176 257.053 204.53 223.423C202.499 225.433 200.572 227.553 198.764 229.745L199.056 229.449C200.124 228.146 201.306 226.933 202.665 225.86L199.056 229.449C193.717 236.027 191.811 245.251 190.035 253.782C179.54 304.219 159.785 352.714 132.051 396.131C138.04 386.735 145.853 379.089 154.535 372.261C156.353 366.912 158.145 361.558 159.9 356.188C159.592 356.303 159.249 356.396 158.858 356.449Z" fill="#A6A646"/>
</g>
<defs>
<clipPath id="clip0_512_116">
<rect width="500" height="500" rx="250" fill="white"/>
</clipPath>
</defs>
</svg>
