<svg width="197" height="197" viewBox="0 0 197 197" fill="none" xmlns="http://www.w3.org/2000/svg">
<g clip-path="url(#clip0_935_816)">
<path d="M216.7 -19.7H-19.7002V216.7H216.7V-19.7Z" fill="white"/>
<path d="M216.7 -19.7H-19.7002V216.7H216.7V-19.7Z" fill="#BCD1D4"/>
<path d="M229.83 196.998H217.536C217.536 196.998 187.844 188.882 185.519 196.998H164.703C162.146 189.083 149.257 189.411 147.553 196.998H113.95C106.664 187.501 94.0719 186.902 93.1752 196.998H74.6079C72.1577 194.954 39.1151 192.51 36.7347 196.998H28.1857C24.1287 186.906 16.6345 189.805 12.3662 196.998H-13.1145C-17.5676 186.707 -32.833 173.895 -32.833 173.895V147.588C-26.9353 143.693 -27.1857 130.104 -32.833 121.299V88.5186C-24.6267 80.6878 -28.0414 70.3453 -32.833 63.6432V32.4474C-32.833 32.4474 -29.8226 33.0672 -32.833 30.9515V0.00195312H-20.6108C-20.6108 0.00195312 -18.4274 6.60145 -17.3069 5.27991C-16.1824 3.96247 -15.5976 0.00195312 -15.5976 0.00195312H7.20519C7.20519 0.00195312 13.2404 3.87629 24.4571 2.36801C35.6737 0.859724 37.0835 0.00195312 37.0835 0.00195312H48.0847C48.0847 0.00195312 49.593 6.96262 57.4443 4.73611C65.2935 2.5096 69.7691 0.00195312 69.7691 0.00195312H99.7788C99.7788 0.00195312 102.41 11.4793 106.746 0.00195312H127.303C132.852 5.54463 154.709 0.00195312 154.709 0.00195312H181.232C187.081 6.66507 190.007 1.91244 198.012 0.00195312H205.313C205.313 0.00195312 208.785 9.10705 213.998 7.45717C219.21 5.80935 229.83 2.13817 229.83 2.13817V19.1315C229.83 19.1315 223.23 46.2292 229.83 50.0995V77.8518C225.875 81.0839 225.459 104.695 229.83 108.34V132.023C224.619 135.183 223.889 137.079 229.83 141.772V157.319C223.696 166.124 224.086 178.82 229.83 186.097V196.998Z" fill="#4B89FC"/>
<path d="M-16.3219 121.67C-15.4108 130.283 -14.3335 138.788 -13.4613 147.381C-19.476 148.46 -25.8169 148.708 -32.833 147.586V121.297C-27.2226 122.784 -21.8092 122.723 -16.3219 121.67ZM-15.7802 60.5199C-21.8462 62.3196 -27.5263 63.5734 -32.833 63.6432V88.5186C-27.9367 89.4276 -23.0856 89.4297 -18.2181 88.8325C-18.1627 82.7317 -17.8302 76.479 -17.1038 70.0149C-16.7406 66.7542 -16.2932 63.5899 -15.7802 60.5199ZM-15.5976 0.00195312H-20.6108C-23.496 5.42971 -28.4026 15.8461 -32.833 30.9515V32.4474C-28.3082 33.2642 -20.2086 34.2245 -9.00832 33.5884C-4.83438 21.3765 0.102928 11.6414 4.37332 4.51654C-2.92595 3.99531 -9.52339 2.54654 -15.5976 0.00195312ZM-13.4613 147.381C-12.5092 156.752 -11.8074 166.225 -11.8381 176.054C-3.519 175.336 4.64009 173.013 12.9613 170.3C12.5734 161.146 11.728 150.865 10.4906 139.626C2.50592 142.835 -5.17092 145.893 -13.4613 147.381ZM5.82824 82.5634C-2.41703 85.3358 -10.3401 87.866 -18.2181 88.8325C-18.3166 100.187 -17.4485 111.011 -16.3219 121.67C-8.81132 120.231 -1.16526 116.95 7.3078 113.275C6.01704 102.229 5.22288 92.5386 5.82824 82.5634ZM21.9084 28.5403C9.93446 31.6779 -0.442924 33.1 -9.00832 33.5884C-11.7232 41.53 -14.1098 50.5201 -15.7802 60.5199C-7.20043 57.9713 2.15501 54.3329 12.3272 51.419C14.7138 44.5096 17.8493 36.9867 21.9084 28.5403ZM14.4983 110.187C12.0296 111.225 9.63896 112.267 7.30985 113.277C8.02808 119.421 8.89816 125.986 9.76209 133.252C10.0186 135.411 10.2628 137.537 10.4926 139.63C16.4334 137.245 22.5445 134.783 29.2076 132.825C32.06 131.99 34.8919 131.313 37.7115 130.779C36.8065 121.565 35.8748 112.6 35.5301 103.716C28.3765 104.943 21.6765 107.16 14.4983 110.187ZM44.7788 46.6704C33.1435 46.3913 22.3393 48.5501 12.3272 51.419C8.30716 63.0502 6.41719 72.9392 5.8303 82.5614C15.8239 79.198 26.2834 75.4776 37.695 73.7477C39.6938 63.6617 42.1132 54.6674 44.7788 46.6704ZM37.7053 130.775C38.6903 140.808 39.6445 151.138 39.7718 161.981C50.0383 159.48 60.9452 158.133 72.958 159.75C71.3677 150.73 69.4326 140.91 67.99 130.209C58.0722 128.824 48.0027 128.828 37.7053 130.775ZM67.1014 79.6823C67.399 78.0386 67.715 76.4195 68.0413 74.8189C67.9941 74.8086 67.951 74.7983 67.9038 74.7881C57.0216 72.2456 47.0402 72.3317 37.693 73.7497C37.1718 76.3743 36.6793 79.0687 36.2175 81.8452C35.3598 89.1424 35.2428 96.4027 35.526 103.716C44.3705 102.198 53.9065 102.198 65.903 104.069C65.7737 96.335 66.0959 88.2149 67.1014 79.6823ZM65.9071 104.065C66.0651 113.326 66.8859 122.027 67.992 130.213C79.102 131.766 90.015 135.06 100.838 139.299C99.2001 130.412 97.7862 121.065 96.7971 111.286C84.7309 107.794 74.6613 105.43 65.9071 104.065ZM95.8285 83.1934C96.516 73.4665 98.3957 64.0085 100.971 55.0942C91.9296 53.7275 83.0358 52.2418 74.413 50.789C71.9936 58.1416 69.8102 66.157 68.0413 74.8189C80.325 77.6938 88.9992 80.6119 95.8285 83.1934ZM107.374 141.975C105.198 141.05 103.017 140.157 100.836 139.299C102.828 150.124 105.147 160.268 107.413 169.689C118.498 172.572 128.902 173.727 138.674 173.744C136.092 166.717 133.568 158.872 131.479 149.273C123.749 147.99 115.816 145.566 107.374 141.975ZM95.8285 83.1934C95.5186 87.5931 95.4509 92.0482 95.6767 96.532C95.9291 101.551 96.3128 106.472 96.7971 111.286C98.2746 111.715 99.7808 112.159 101.32 112.62C111.291 115.614 119.721 117.162 127.115 117.707C127.02 116.378 126.93 115.023 126.85 113.644C126.425 106.37 126.61 99.0109 127.252 91.7075C115.266 91.9045 108.978 88.1697 95.8285 83.1934ZM139.532 36.7527C128.888 35.6528 119.163 33.5104 109.859 31.1834C106.553 38.4867 103.444 46.5391 100.971 55.0963C111.469 56.6846 122.171 58.119 132.883 59.1697C134.857 51.2753 137.149 43.7298 139.532 36.7527ZM127.115 117.705C128.011 130.184 129.565 140.467 131.479 149.273C143.182 151.214 154.418 150.537 166.24 147.311C164.034 141.124 161.668 133.788 159.113 124.775C158.138 121.333 157.344 117.886 156.71 114.443C148.163 116.876 138.98 118.582 127.115 117.705ZM152.314 87.8311C153.135 87.6403 153.952 87.4494 154.768 87.2627C155.066 78.1514 156.236 69.268 157.964 60.8278C149.659 60.5815 141.268 59.9926 132.885 59.1697C130.285 69.5655 128.235 80.5729 127.256 91.7055C133.478 91.6029 141.245 90.4373 152.314 87.8311ZM164.444 37.1631C168.06 26.5764 172.162 17.3482 175.784 10.1228C167.465 11.9923 158.78 11.7542 149.854 10.4183C146.696 17.5411 143.018 26.5415 139.532 36.7527C147.282 37.553 155.522 37.7993 164.444 37.1631ZM166.236 147.311C169.507 156.492 172.42 163.147 175.055 169.018C187.347 166.038 198.371 162.301 208.311 159.826C205.939 152.398 203.45 145.486 201.02 138.805C193.013 139.172 184.987 140.611 177.602 143.508C173.736 145.027 169.958 146.295 166.236 147.311ZM156.71 114.443C167.454 111.379 177.198 107.162 190.005 105.459C188.035 97.8761 186.508 89.9755 185.667 81.3445C175.884 82.8405 165.497 84.8022 154.768 87.2627C154.475 96.1687 155.023 105.294 156.71 114.443ZM185.679 60.1875C186.621 50.5017 188.726 41.2529 191.359 32.8004C181.688 35.2034 172.767 36.568 164.444 37.1631C161.945 44.4747 159.681 52.4306 157.962 60.8278C167.35 61.1048 176.633 60.9447 185.679 60.1875ZM198.012 0.00195312H181.232C179.677 2.67582 177.805 6.08638 175.784 10.1208C178.328 9.54824 180.842 8.78077 183.315 7.7855C189.104 5.45639 193.949 2.8092 198.012 0.00195312ZM190.005 105.456C192.96 116.833 196.91 127.488 201.024 138.805C211.096 138.343 221.139 139.585 229.83 141.772V132.023C224.905 123.55 221.352 114.855 218.898 106.154C207.367 104.309 198.076 104.383 190.005 105.456ZM185.533 79.9347C185.574 80.4067 185.617 80.8746 185.665 81.3424C196.04 79.7541 205.736 78.6891 214.435 78.1042C214.061 70.1914 214.388 62.4756 215.188 55.1353C205.779 57.725 195.88 59.3359 185.679 60.1875C185.057 66.6126 184.944 73.2306 185.533 79.9347ZM229.83 0.00195312H205.313C201.047 7.95378 195.539 19.3695 191.359 32.8004C200.811 30.4508 210.981 27.11 222.013 22.5256C224.658 13.991 227.527 6.9934 229.83 2.13817V0.00195312ZM229.83 108.34V77.5584C225.161 77.5543 220.002 77.7308 214.435 78.1084C214.866 87.2832 216.237 96.7228 218.898 106.156C222.335 106.702 225.97 107.424 229.83 108.34ZM229.83 50.0995V19.1315C227.178 20.3319 224.572 21.4626 222.013 22.5256C219.128 31.8359 216.509 42.9705 215.188 55.1353C220.218 53.7501 225.108 52.0797 229.83 50.0995ZM229.83 186.095V157.317C223.265 156.72 216.124 157.881 208.313 159.826C210.86 167.797 213.28 176.362 215.354 185.874C219.883 185.771 224.701 185.839 229.83 186.095ZM138.674 173.744C141.76 182.135 144.929 189.354 147.553 196.998H164.703C170.036 194.418 176.196 191.987 183.541 190.056C181.035 182.12 178.255 176.147 175.057 169.018C163.999 171.702 151.916 173.766 138.674 173.744ZM72.958 159.75C75.082 171.804 76.5882 182.438 75.4944 191.872C81.4126 192.787 87.3575 194.422 93.1731 196.996H113.948C112.124 188.732 109.799 179.613 107.413 169.685C102.518 168.412 97.4928 166.806 92.3297 164.807C85.5394 162.182 79.104 160.58 72.958 159.75ZM39.7718 161.981C30.4266 164.257 21.6088 167.487 12.9613 170.304C13.4025 180.752 13.2383 189.731 12.3641 196.998H28.1816C31.0135 196.058 34.0423 195.155 37.2313 194.347C39.269 182.972 39.8908 172.246 39.7718 161.981ZM-32.833 173.895V196.706C-32.5437 196.803 -32.2502 196.901 -31.9588 196.998H-13.1145C-12.2321 189.793 -11.8587 182.838 -11.8381 176.054C-18.6716 176.647 -25.6117 176.149 -32.833 173.895ZM37.2313 194.347C37.0753 195.227 36.905 196.111 36.7306 196.998H74.6038C74.9978 195.33 75.2913 193.622 75.4944 191.874C61.9856 189.785 48.6121 191.457 37.2313 194.347ZM185.515 196.998H217.533C216.86 193.146 216.132 189.442 215.352 185.874C202.689 186.161 192.281 187.753 183.539 190.056C184.218 192.204 184.877 194.5 185.515 196.998ZM21.9084 28.5403C22.565 28.3679 23.2258 28.1914 23.8907 28.0088C23.8968 28.0067 23.903 28.0067 23.9091 28.0047C24.5781 27.822 25.2512 27.6333 25.9305 27.4383C27.33 27.0382 28.7521 26.6134 30.1926 26.166C39.1089 23.3895 47.3604 22.1029 55.228 21.8279C51.5856 28.7722 48.0006 36.9928 44.7747 46.6704C48.4254 46.7566 52.1602 47.085 55.975 47.7067C61.9445 48.6815 68.1049 49.728 74.4089 50.789C77.6347 40.9882 81.2731 32.3674 84.9094 24.9614C75.2707 22.8663 65.5849 21.4667 55.226 21.8279C60.2249 12.3083 65.3284 5.18757 69.7691 0.00195312H48.0847C43.7959 0.906922 39.6835 1.69903 35.7353 2.36185C30.2398 12.0497 25.676 20.6931 21.9084 28.5403ZM124.27 4.62324C118.467 3.05545 112.615 1.43431 106.746 0.00195312H99.7788C95.7895 5.50564 90.3597 13.8658 84.9114 24.9614C93.1321 26.7509 101.32 29.043 109.859 31.1793C114.714 20.451 119.988 11.3356 124.27 4.62324ZM154.709 0.00195312H127.303C126.37 1.38095 125.352 2.92207 124.27 4.62324C132.938 6.96262 141.502 9.16861 149.854 10.4183C151.699 6.26286 153.363 2.74764 154.709 0.00195312ZM35.7353 2.36185C36.1765 1.58206 36.628 0.794057 37.0835 0.00195312H7.20519C6.30638 1.36659 5.35831 2.86871 4.37332 4.51654C13.5913 5.1691 23.9297 4.34211 35.7353 2.36185Z" fill="#1E16ED"/>
</g>
<defs>
<clipPath id="clip0_935_816">
<rect width="197" height="197" rx="98.5" fill="white"/>
</clipPath>
</defs>
</svg>
