<svg width="197" height="197" viewBox="0 0 197 197" fill="none" xmlns="http://www.w3.org/2000/svg">
<g clip-path="url(#clip0_935_744)">
<rect width="197" height="197" rx="98.5" fill="#FFABDA"/>
<path d="M216.7 -19.7H-19.7002V216.7H216.7V-19.7Z" fill="white"/>
<path d="M216.7 -19.7H-19.7002V216.7H216.7V-19.7Z" fill="#1E16ED"/>
<mask id="mask0_935_744" style="mask-type:luminance" maskUnits="userSpaceOnUse" x="30" y="33" width="110" height="174">
<path d="M30.7324 33.0959H139.563V206.85H30.7324V33.0959Z" fill="white"/>
</mask>
<g mask="url(#mask0_935_744)">
<path d="M115.41 139.158C115.41 139.125 115.41 139.092 115.41 139.059C115.444 139.059 115.477 139.059 115.512 139.059C115.475 139.092 115.444 139.125 115.41 139.158ZM106.081 146.02C106.146 145.979 106.214 145.94 106.28 145.897C106.331 145.921 106.382 145.946 106.432 145.971C106.286 145.946 106.169 145.96 106.081 146.02ZM75.5622 128.918C75.5417 128.938 75.5191 128.957 75.4965 128.977C75.5191 128.955 75.5417 128.938 75.5622 128.918ZM76.1676 117.018C76.0732 117.192 75.989 117.371 75.909 117.553C75.987 117.371 76.0732 117.192 76.1676 117.018ZM75.3242 119.595C75.3467 119.454 75.3775 119.316 75.4083 119.181C75.3775 119.318 75.3467 119.454 75.3242 119.595ZM80.2471 119.127C80.2471 119.125 80.2471 119.125 80.2471 119.125V119.127ZM75.7489 128.741C75.8475 128.643 75.9439 128.544 76.0362 128.444C75.9439 128.544 75.8475 128.645 75.7489 128.741ZM84.5339 105.877L84.5298 105.881C84.5298 105.881 84.5319 105.877 84.5339 105.877ZM128.978 57.7701C129.189 57.7106 129.401 57.6511 129.612 57.5875C129.327 56.9164 129.017 56.2557 128.699 55.599C132.899 49.414 130.275 39.4942 123.757 35.6158C116.893 31.5281 107.86 32.7798 100.924 36.7465C98.0859 38.3697 95.4592 40.4382 93.5344 43.0792C88.1333 50.4914 89.2065 60.5999 87.3001 69.5696C86.153 74.9707 83.8752 80.0537 81.778 85.1613C81.386 86.1135 81.0064 87.0718 80.6268 88.0281C79.8244 88.8202 79.0672 89.6554 78.353 90.5193L78.468 90.4023C76.3646 92.9941 75.6135 96.6304 74.9137 99.9897C70.7788 119.862 62.9953 138.969 52.0679 156.075C54.4278 152.373 57.5059 149.361 60.9268 146.67C60.7831 147.095 60.6415 147.522 60.4958 147.947C53.3217 168.858 44.5121 189.547 30.7734 206.862C47.8796 190.983 56.5456 166.849 75.8126 153.674C77.5671 152.474 79.5186 151.343 81.6446 151.362C83.3724 151.38 85.0018 152.16 86.7091 152.429C88.5314 152.714 90.3947 152.408 92.1882 151.985C92.2928 151.961 92.3955 151.93 92.4981 151.903C92.1348 153.02 91.9194 154.206 91.8824 155.464C91.8475 156.693 93.756 156.691 93.7909 155.464C93.836 153.935 94.1951 152.537 94.7841 151.271C98.761 150.054 102.541 148.261 106.062 146.032C105.962 146.108 105.902 146.25 105.886 146.453C105.876 146.556 105.88 146.648 105.89 146.732C106.134 146.58 106.372 146.422 106.612 146.266C106.577 146.18 106.54 146.096 106.506 146.006C107.638 146.549 108.742 147.147 109.805 147.77C113.257 149.798 117.156 153.719 115.011 158.055C114.47 159.153 116.113 160.122 116.659 159.02C117.398 157.524 117.597 156.007 117.394 154.553C117.96 154.711 118.64 154.425 118.582 153.68C118.334 150.424 115.812 147.619 113.206 145.874C111.939 145.027 110.571 144.401 109.145 143.933C112.202 141.684 115.034 139.111 117.595 136.322C124.426 128.885 129.46 119.958 133.544 110.724C136.382 104.307 138.814 97.6051 139.398 90.6137C140.396 78.6521 136.833 66.787 128.978 57.7701Z" fill="#94B9FF"/>
</g>
<path d="M109.246 52.5967C109.552 53.0913 109.509 53.7623 109.181 54.2425C108.854 54.7227 108.274 55.0038 107.693 55.0162C107.112 55.0264 106.539 54.7822 106.111 54.3903C105.585 53.9142 105.261 53.2042 105.3 52.4962C105.337 51.7882 105.756 51.0987 106.39 50.7827C106.652 50.6493 106.96 50.5837 107.245 50.6616C107.477 50.7273 107.672 50.8833 107.853 51.0433C108.331 51.466 108.76 51.9483 109.123 52.4736L109.246 52.5967Z" fill="#1B16A6"/>
<path d="M113.165 145.874C111.899 145.027 110.531 144.401 109.104 143.933C107.485 143.406 105.792 143.084 104.091 142.895C101.746 142.113 99.3242 141.659 96.9786 141.705C95.7535 141.731 95.7494 143.638 96.9786 143.615C97.7605 143.599 98.5382 143.648 99.3057 143.744C96.1475 145.688 93.5865 148.448 92.4579 151.903C92.0947 153.02 91.8792 154.206 91.8423 155.464C91.8074 156.693 93.7158 156.691 93.7507 155.464C93.7959 153.935 94.1529 152.537 94.7439 151.271C96.1209 148.318 98.7722 146.078 101.776 144.549C101.879 144.596 101.996 144.629 102.131 144.637C102.562 144.664 102.991 144.694 103.422 144.735C104.378 145.07 105.318 145.464 106.24 145.897C107.452 146.467 108.63 147.106 109.767 147.77C113.217 149.798 117.116 153.719 114.969 158.056C114.43 159.153 116.073 160.122 116.617 159.02C117.358 157.524 117.557 156.008 117.356 154.553C117.92 154.711 118.599 154.425 118.542 153.68C118.294 150.424 115.772 147.619 113.165 145.874ZM129.572 57.5876C129.363 57.6512 129.149 57.7107 128.938 57.7702C126.611 58.4248 124.206 58.8024 121.788 58.8845C121.019 58.9112 120.237 58.9071 119.492 58.7121C118.273 58.392 117.202 57.5465 116.609 56.4343C116.016 55.3221 115.911 53.9595 116.326 52.7693L116.143 52.8267C116.775 51.6263 117.978 50.7952 119.272 50.393C120.567 49.9908 121.95 49.9764 123.303 50.0954C124.181 50.1734 125.1 50.3253 125.788 50.8814C126.213 51.2241 126.512 51.696 126.793 52.1639C127.468 53.2803 128.086 54.4274 128.659 55.5991C128.977 56.2558 129.287 56.9165 129.572 57.5876Z" fill="#F8F2EC"/>
<mask id="mask1_935_744" style="mask-type:luminance" maskUnits="userSpaceOnUse" x="30" y="33" width="110" height="174">
<path d="M30.7324 33.0959H139.563V206.85H30.7324V33.0959Z" fill="white"/>
</mask>
<g mask="url(#mask1_935_744)">
<path d="M58.2242 147.198C58.1667 146.894 58.179 146.637 58.2139 146.397C58.2427 146.155 58.3083 145.936 58.3945 145.732C58.5443 145.306 58.9588 145.063 59.2564 144.739C59.5539 144.415 59.8638 144.099 60.1819 143.789C60.504 143.483 60.8242 143.176 61.171 142.882L61.2962 142.97C61.1505 143.397 60.9801 143.808 60.8119 144.22C60.6395 144.628 60.4569 145.031 60.266 145.427C60.0711 145.823 59.9951 146.297 59.6545 146.592C59.4944 146.746 59.3138 146.886 59.1004 147.003C58.8891 147.122 58.6551 147.226 58.3514 147.282L58.2242 147.198ZM75.4042 136.114L75.3037 135.999C75.4083 135.357 75.6607 134.914 75.948 134.512C76.2271 134.099 76.7155 133.912 77.1054 133.611L78.2833 132.712L79.4879 131.805L79.6048 131.903C79.3771 132.361 79.1082 132.79 78.8456 133.227C78.5747 133.656 78.2812 134.072 77.9693 134.475C77.6615 134.875 77.4337 135.373 76.9843 135.634C76.5452 135.903 76.0547 136.116 75.4042 136.114ZM72.8473 134.001L74.1196 132.724C74.5567 132.304 74.9671 131.858 75.4001 131.423L75.5274 131.507C75.2955 132.078 75.0143 132.624 74.7352 133.178C74.4459 133.72 74.1319 134.253 73.7954 134.768C73.4609 135.283 73.2147 135.889 72.718 136.272C72.2358 136.664 71.692 137.001 70.9656 137.138L70.8568 137.032C70.9779 136.305 71.259 135.763 71.5791 135.254C71.887 134.737 72.4225 134.421 72.8473 134.001ZM68.9484 134.616C69.3629 134.226 69.761 133.828 70.1981 133.461L70.3171 133.553C70.077 134.068 69.8082 134.559 69.564 135.068C69.3116 135.564 69.053 136.061 68.7904 136.547C68.5277 137.04 68.3882 137.606 67.99 138.002C67.6022 138.404 67.1651 138.776 66.5125 139.024L66.3833 138.942C66.3217 138.246 66.49 137.682 66.7157 137.159C66.9312 136.627 67.4155 136.274 67.7889 135.852C68.1604 135.427 68.5462 135.016 68.9484 134.616ZM62.4638 140.354C62.394 140.069 62.3879 139.831 62.4063 139.611C62.4186 139.387 62.4658 139.188 62.5295 139C62.6362 138.614 63.0076 138.392 63.2559 138.086C63.5042 137.783 63.7587 137.479 64.0193 137.175C64.0234 137.169 64.0295 137.163 64.0357 137.159C64.2942 136.861 64.5467 136.558 64.8196 136.262L64.9571 136.328C64.8955 136.736 64.7991 137.132 64.6944 137.532C64.5877 137.926 64.4605 138.314 64.3148 138.696C64.1691 139.073 64.1342 139.529 63.8223 139.812C63.6766 139.958 63.5083 140.091 63.3051 140.198C63.2128 140.251 63.1122 140.296 63.0014 140.337C62.8804 140.383 62.7449 140.42 62.591 140.44L62.4638 140.354ZM66.2417 131.438C66.1965 130.902 66.2458 130.422 66.334 129.96C66.3792 129.718 66.4346 129.478 66.5002 129.244C66.5659 128.987 66.6685 128.747 66.7916 128.515C66.9927 128.13 67.2431 127.764 67.438 127.372L68.3758 125.482C68.7001 124.852 68.9935 124.208 69.3116 123.568L69.4593 123.613C69.3711 124.325 69.2336 125.025 69.0982 125.731C68.9504 126.431 68.776 127.126 68.5769 127.816C68.3779 128.503 68.2897 129.244 67.8998 129.855C67.5201 130.471 67.0687 131.054 66.3792 131.505L66.2417 131.438ZM69.3834 129.059C69.6009 128.446 70.0996 127.996 70.4813 127.483C70.8671 126.97 71.2652 126.465 71.6817 125.979C72.1086 125.495 72.5231 125.006 72.9766 124.549L73.1018 124.633C72.8514 125.226 72.5765 125.798 72.3261 126.385C72.0634 126.966 71.7987 127.541 71.5299 128.113C71.2611 128.684 71.1195 129.328 70.7111 129.814C70.313 130.311 69.8657 130.777 69.1926 131.134L69.0592 131.062C68.9894 130.303 69.1536 129.665 69.3834 129.059ZM74.2304 129.798L74.1053 129.712C74.1586 128.891 74.4233 128.216 74.7414 127.578C75.0472 126.931 75.6156 126.465 76.067 125.922C76.5206 125.374 76.9843 124.836 77.4584 124.305C77.9427 123.781 78.4105 123.246 78.9112 122.735L79.0364 122.821C78.7348 123.471 78.4023 124.099 78.0863 124.738C77.76 125.372 77.4214 125.995 77.0726 126.611C76.7258 127.231 76.4939 127.929 75.9973 128.444C75.5171 128.969 74.9794 129.455 74.2304 129.798ZM80.5529 127.947C80.0809 128.308 79.5556 128.618 78.8476 128.737L78.7389 128.628C78.8456 127.922 79.1185 127.395 79.4345 126.909C79.7382 126.412 80.2697 126.125 80.6945 125.735C81.1193 125.345 81.5482 124.959 81.9812 124.569C82.4265 124.192 82.8492 123.789 83.2965 123.408L83.4197 123.502C83.1611 124.034 82.8635 124.538 82.5722 125.056C82.2705 125.562 81.9524 126.057 81.6159 126.539C81.2793 127.022 81.0372 127.596 80.5529 127.947ZM82.2746 130.001L82.1658 129.892C82.3505 129.104 82.7281 128.495 83.1611 127.941C83.5818 127.372 84.2261 127.038 84.7802 126.613C85.3322 126.186 85.8986 125.778 86.4773 125.386C87.0642 125 87.6408 124.61 88.2462 124.255L88.3467 124.37C87.8973 124.91 87.4315 125.423 86.9841 125.956C86.5265 126.48 86.071 126.997 85.6092 127.51C85.1496 128.023 84.7925 128.641 84.2241 129.035C83.6598 129.441 83.0585 129.806 82.2746 130.001ZM98.72 109.351C98.956 109.156 99.1899 108.961 99.4485 108.783L99.5778 108.863C99.5203 109.175 99.4403 109.468 99.3623 109.763C99.2802 110.057 99.1858 110.342 99.0812 110.621C98.9786 110.902 98.9929 111.255 98.7385 111.44C98.6194 111.536 98.484 111.621 98.3116 111.684C98.1434 111.75 97.9505 111.799 97.6878 111.803L97.5606 111.719C97.4539 111.479 97.419 111.284 97.4087 111.104C97.3943 110.921 97.4149 110.761 97.4539 110.613C97.5154 110.307 97.8438 110.172 98.0531 109.96C98.2665 109.751 98.4881 109.548 98.72 109.351ZM94.7862 113.39L94.9154 113.474C94.6651 114.079 94.3798 114.662 94.1131 115.259C93.836 115.846 93.5487 116.427 93.2491 117.001C92.9495 117.576 92.769 118.226 92.3216 118.702C91.8845 119.187 91.3941 119.634 90.6881 119.944L90.5609 119.862C90.5609 119.09 90.7743 118.46 91.0411 117.867C91.2976 117.266 91.8209 116.837 92.2272 116.334C92.6315 115.829 93.048 115.331 93.4749 114.84C93.912 114.358 94.3326 113.864 94.7862 113.39ZM86.9657 117.863C87.2263 117.122 87.768 116.529 88.1846 115.87C88.6032 115.21 89.0321 114.557 89.4733 113.911C89.9248 113.268 90.3578 112.618 90.8277 111.986L90.9631 112.058C90.7087 112.803 90.4193 113.529 90.1484 114.266C89.8653 114.994 89.5718 115.719 89.266 116.437C88.9603 117.155 88.7797 117.939 88.3159 118.573C87.8665 119.215 87.3597 119.827 86.625 120.319L86.4875 120.25C86.4773 119.363 86.6907 118.598 86.9657 117.863ZM87.2386 110.58L87.3781 110.638C87.1955 111.42 86.9657 112.185 86.744 112.954C86.5101 113.722 86.2556 114.479 85.9786 115.23C85.7036 115.981 85.5436 116.792 85.088 117.457C84.6448 118.13 84.1358 118.768 83.395 119.277L83.2596 119.205C83.2534 118.308 83.4587 117.533 83.7172 116.784C83.9614 116.029 84.4806 115.409 84.8705 114.719L86.0443 112.653L87.2386 110.58ZM82.2069 112.985C82.5783 112.357 82.9292 111.719 83.315 111.099L83.4566 111.157C83.2945 111.871 83.0934 112.569 82.9128 113.279C82.7199 113.978 82.5147 114.676 82.2992 115.37C82.0817 116.061 81.9955 116.806 81.6138 117.43C81.2465 118.06 80.8176 118.665 80.1527 119.172L80.0112 119.115C79.8962 118.286 80.0194 117.553 80.202 116.849C80.3723 116.137 80.834 115.546 81.1706 114.904C81.503 114.26 81.8498 113.619 82.2069 112.985ZM76.773 115.821C77.167 115.009 77.5692 114.2 77.9775 113.39C78.3982 112.585 78.7922 111.768 79.217 110.964L79.3606 111.015C79.1636 111.908 78.9194 112.782 78.6896 113.664C78.4454 114.541 78.1848 115.413 77.9057 116.277C77.7641 116.71 77.6513 117.153 77.5261 117.592C77.3988 118.031 77.2265 118.452 77.011 118.852C76.7935 119.254 76.5513 119.644 76.2723 120.016C75.9952 120.391 75.6915 120.752 75.3098 121.079L75.1682 121.019C75.1498 120.516 75.2031 120.049 75.2832 119.595C75.3591 119.135 75.4699 118.694 75.6033 118.261C75.7367 117.83 75.9131 117.416 76.1286 117.018C76.3461 116.622 76.5739 116.228 76.773 115.821ZM71.3411 119.605C71.2303 118.949 71.3288 118.425 71.4765 117.927C71.612 117.426 72.0183 117.065 72.2974 116.632C72.5723 116.199 72.8555 115.764 73.1408 115.329L74.0088 114.017L74.1504 114.073C74.0765 114.6 73.9534 115.111 73.8405 115.632C73.7154 116.148 73.5676 116.656 73.3993 117.157C73.2311 117.658 73.1757 118.222 72.8289 118.637C72.4985 119.055 72.0983 119.441 71.4745 119.681L71.3411 119.605ZM74.7804 108.939C74.5321 108.261 74.5321 107.656 74.5978 107.067C74.645 106.474 75 105.967 75.2195 105.421C75.4412 104.877 75.673 104.336 75.9172 103.798C76.1758 103.265 76.4138 102.725 76.6888 102.195L76.8345 102.239C76.7935 102.832 76.7135 103.416 76.6519 104.007C76.578 104.592 76.4939 105.175 76.3954 105.756C76.2989 106.334 76.3338 106.952 76.065 107.482C75.8105 108.017 75.4925 108.534 74.9261 108.982L74.7804 108.939ZM80.1076 106C79.769 106.577 79.3689 107.129 78.7307 107.586L78.5891 107.529C78.4434 106.757 78.5357 106.082 78.6896 105.432C78.8312 104.775 79.2662 104.237 79.572 103.648C79.8778 103.057 80.1938 102.47 80.5242 101.89C80.8648 101.315 81.1849 100.73 81.5461 100.162L81.6877 100.219C81.5543 100.878 81.3819 101.522 81.2321 102.175C81.068 102.821 80.8915 103.464 80.7048 104.102C80.518 104.74 80.4606 105.427 80.1076 106ZM83.6351 104.11C83.8444 103.765 84.0599 103.423 84.2467 103.068L86.4875 98.7582L86.6332 98.8095C86.4793 99.6118 86.2741 100.402 86.0771 101.196C85.8678 101.986 85.6318 102.77 85.3712 103.544C85.2419 103.931 85.1352 104.33 85.0162 104.724C84.8951 105.118 84.7289 105.491 84.5155 105.842C84.3041 106.193 84.0661 106.531 83.789 106.85C83.5141 107.17 83.2124 107.475 82.8369 107.738L82.6994 107.67C82.6871 107.211 82.7425 106.79 82.8225 106.384C82.8964 105.973 83.0051 105.581 83.1324 105.2C83.2596 104.818 83.4279 104.457 83.6351 104.11ZM88.0061 104.33C88.1887 103.646 88.6586 103.094 89.0034 102.483C89.3481 101.873 89.7031 101.268 90.0705 100.669C90.448 100.074 90.8072 99.4702 91.2053 98.8854L91.3448 98.947C91.1704 99.6344 90.957 100.303 90.7661 100.981C90.5609 101.654 90.3454 102.321 90.1177 102.983C89.8899 103.646 89.7893 104.364 89.3994 104.953C89.0219 105.551 88.5868 106.119 87.9137 106.583L87.7762 106.519C87.6757 105.711 87.8111 105.007 88.0061 104.33ZM92.1184 105.175C92.3113 104.531 92.7833 104.024 93.126 103.449C93.4687 102.875 93.8155 102.302 94.1705 101.732C94.5378 101.167 94.8785 100.587 95.254 100.02L95.3936 100.08C95.2438 100.745 95.0488 101.391 94.8662 102.044C94.6733 102.694 94.4599 103.336 94.23 103.97C94.0002 104.607 93.8894 105.302 93.4851 105.854C93.0973 106.414 92.6417 106.94 91.9584 107.338L91.8229 107.268C91.7593 106.48 91.9112 105.813 92.1184 105.175ZM96.0379 105.144C96.3724 104.555 96.7172 103.97 97.0742 103.394C97.4457 102.819 97.7945 102.239 98.1824 101.674L98.3198 101.736C98.1557 102.401 97.9546 103.049 97.7719 103.706C97.577 104.356 97.3718 105.003 97.1522 105.643C96.9347 106.283 96.8444 106.983 96.4648 107.551C96.0974 108.124 95.6706 108.672 95.0098 109.115L94.8703 109.051C94.7615 108.263 94.8867 107.582 95.0714 106.925C95.2438 106.265 95.7055 105.733 96.0379 105.144ZM102.059 101.264C102.426 100.578 102.802 99.8971 103.191 99.2219C103.594 98.553 103.975 97.8758 104.392 97.213L104.534 97.2725C104.339 98.0317 104.105 98.7746 103.891 99.5257C103.666 100.273 103.43 101.011 103.179 101.748C102.931 102.483 102.812 103.275 102.399 103.94C102.001 104.611 101.54 105.255 100.846 105.797L100.706 105.737C100.626 104.859 100.782 104.083 100.998 103.332C101.199 102.577 101.693 101.947 102.059 101.264ZM102.9 89.846L103.038 89.9096C102.839 90.6217 102.623 91.3173 102.449 92.0253C102.262 92.7271 102.079 93.4289 101.907 94.1287C101.735 94.8305 101.716 95.5713 101.412 96.2279C101.123 96.8887 100.786 97.5392 100.216 98.1549L100.066 98.122C99.8138 97.3156 99.8384 96.5522 99.9451 95.8114C100.037 95.0624 100.454 94.4119 100.752 93.7326C101.053 93.0554 101.382 92.3885 101.741 91.74C102.112 91.0977 102.479 90.4554 102.9 89.846ZM100.472 86.1543L100.614 86.2158C100.438 86.9628 100.224 87.6933 100.031 88.43C99.8261 89.1647 99.6106 89.8911 99.3828 90.6114C99.153 91.3337 99.0545 92.1074 98.6625 92.7599C98.2829 93.4186 97.8438 94.0568 97.1625 94.6027L97.0188 94.5473C96.9142 93.6936 97.0475 92.9323 97.2445 92.1936C97.4272 91.4486 97.9053 90.8228 98.2521 90.1476C98.5989 89.4704 98.958 88.7994 99.3295 88.1345C99.7112 87.4738 100.074 86.8048 100.472 86.1543ZM96.1139 84.9969L96.2554 85.0564C96.0831 85.8034 95.8738 86.536 95.685 87.2747C95.4839 88.0073 95.2704 88.7358 95.0468 89.4581C94.8231 90.1825 94.7307 90.9561 94.3409 91.6128C93.9653 92.2756 93.5262 92.9138 92.849 93.4638L92.7074 93.4063C92.5986 92.5547 92.7279 91.7913 92.9208 91.0526C93.0993 90.3077 93.5713 89.6798 93.9161 89.0026C94.2588 88.3233 94.6138 87.6502 94.979 86.9833C95.3607 86.3184 95.7178 85.6495 96.1139 84.9969ZM91.7019 85.0154L91.8435 85.0708C91.6916 85.7828 91.5008 86.4826 91.3325 87.1865C91.1499 87.8883 90.957 88.5839 90.7477 89.2755C90.5445 89.967 90.4686 90.7099 90.0971 91.3358C89.738 91.9658 89.3215 92.5732 88.6627 93.0862L88.5211 93.0288C88.3939 92.2059 88.5047 91.4774 88.6771 90.7715C88.8351 90.0614 89.2907 89.4704 89.6149 88.8261C89.9371 88.1817 90.2736 87.5415 90.6225 86.9053C90.9836 86.2753 91.3222 85.6371 91.7019 85.0154ZM87.214 86.4046L87.3556 86.4559C87.2283 87.1947 87.0621 87.9211 86.9144 88.6537C86.7543 89.3843 86.584 90.1086 86.4013 90.8289C86.2167 91.5492 86.1653 92.3167 85.8144 92.9795C85.4779 93.6464 85.0777 94.2908 84.4354 94.8531L84.2897 94.8018C84.1338 93.9645 84.2241 93.2093 84.3718 92.4767C84.5073 91.74 84.9423 91.1059 85.246 90.4288C85.5518 89.7495 85.8678 89.0744 86.1941 88.4054C86.5347 87.7364 86.8549 87.0633 87.214 86.4046ZM81.8601 90.3446L82.0037 90.3959C81.9011 91.0608 81.7534 91.7113 81.622 92.37C81.4763 93.0246 81.3142 93.6731 81.1357 94.3154C80.9551 94.9598 80.9018 95.6534 80.5467 96.2279C80.2061 96.8087 79.7977 97.3607 79.1513 97.8081L79.0118 97.7485C78.8805 96.977 78.9748 96.3059 79.1288 95.6575C79.2704 95.0049 79.6992 94.4693 79.9947 93.8783C80.2902 93.2853 80.5939 92.6963 80.9059 92.1074C81.228 91.5225 81.5256 90.9295 81.8601 90.3446ZM79.8511 88.9882L78.429 90.4021C78.8497 89.8891 79.3155 89.4109 79.8511 88.9882ZM103.423 144.735C104.38 145.07 105.319 145.464 106.241 145.897C102.656 148.193 98.8021 150.029 94.7451 151.271C96.1221 148.318 98.7734 146.077 101.778 144.548C101.88 144.596 101.997 144.628 102.133 144.637C102.564 144.663 102.992 144.694 103.423 144.735ZM109.182 54.2423C108.855 54.7225 108.274 55.0036 107.694 55.016C107.113 55.0262 106.54 54.782 106.112 54.3901C105.586 53.914 105.262 53.204 105.301 52.496C105.338 51.788 105.757 51.0985 106.391 50.7825C106.653 50.6491 106.961 50.5835 107.246 50.6614C107.478 50.7271 107.673 50.8831 107.854 51.0431C108.332 51.4659 108.761 51.9481 109.124 52.4734L109.247 52.5966C109.553 53.0911 109.51 53.7621 109.182 54.2423ZM128.939 57.7699C126.612 58.4245 124.207 58.8021 121.79 58.8841C121.02 58.9108 120.238 58.9067 119.493 58.7118C118.274 58.3916 117.203 57.5462 116.61 56.434C116.017 55.3217 115.912 53.9591 116.327 52.7689L116.144 52.8264C116.776 51.6259 117.979 50.7948 119.274 50.3926C120.569 49.9904 121.952 49.976 123.304 50.0951C124.182 50.173 125.102 50.3249 125.789 50.881C126.214 51.2237 126.513 51.6957 126.795 52.1636C127.47 53.2799 128.087 54.427 128.66 55.5988C132.858 49.4138 130.236 39.494 123.718 35.6156C116.854 31.5278 107.821 32.7796 100.885 36.7463C98.0469 38.3695 95.4202 40.438 93.4954 43.079C88.0943 50.4911 89.1675 60.5997 87.2612 69.5693C86.114 74.9704 83.8362 80.0534 81.739 85.1611C81.3471 86.1132 80.9674 87.0716 80.5857 88.0278C82.8533 85.789 85.4635 83.9052 88.4267 82.7745C92.4365 81.2416 97.1543 81.217 100.875 83.3593C101.932 83.9647 102.9 84.7404 103.657 85.6946C104.441 86.6796 104.985 87.837 105.393 89.0251C107.347 94.7033 106.239 101.085 103.639 106.499C101.039 111.912 97.064 116.527 93.0562 120.999C89.4651 125.008 85.796 128.977 81.6179 132.367C76.9043 136.19 71.5155 139.318 66.4243 142.708C66.4736 142.648 66.5228 142.589 66.5762 142.535C66.808 142.312 67.0317 142.08 67.2472 141.833C67.4627 141.585 67.6781 141.339 67.8772 141.066L67.7972 140.939C67.4647 141.006 67.1507 141.101 66.8368 141.191C66.5228 141.286 66.217 141.392 65.9174 141.507C65.6178 141.624 65.2444 141.622 65.0412 141.889C64.9324 142.012 64.838 142.156 64.7662 142.334C64.6903 142.509 64.6308 142.708 64.6164 142.976L64.6985 143.104C64.9489 143.204 65.1541 143.233 65.3449 143.237C65.4578 143.243 65.5645 143.233 65.663 143.217C64.0234 144.325 62.4227 145.464 60.8878 146.67C60.7441 147.095 60.6025 147.522 60.4569 147.949C53.2828 168.857 44.4732 189.546 30.7324 206.862C47.8406 190.983 56.5066 166.848 75.7736 153.674C77.5281 152.474 79.4797 151.343 81.6056 151.361C83.3335 151.38 84.9628 152.16 86.6722 152.428C88.4924 152.714 90.3537 152.408 92.1492 151.985C92.2539 151.96 92.3565 151.93 92.4591 151.903C93.5877 148.447 96.1487 145.687 99.3069 143.744C98.5394 143.647 97.7617 143.598 96.9798 143.615C95.7506 143.637 95.7547 141.731 96.9798 141.704C99.3254 141.659 101.747 142.113 104.092 142.894C105.794 143.083 107.486 143.405 109.106 143.933C112.163 141.684 114.993 139.11 117.556 136.322C124.387 128.885 129.421 119.958 133.505 110.724C136.343 104.307 138.775 97.6049 139.357 90.6134C140.357 78.6519 136.794 66.7867 128.939 57.7699Z" fill="#94B9FF"/>
</g>
<path d="M80.7062 147.389C80.7185 147.432 80.7329 147.477 80.7452 147.522C80.5707 147.668 80.3963 147.814 80.1439 148.023C80.107 147.791 80.0824 147.641 80.0475 147.42C80.2917 147.407 80.4989 147.397 80.7062 147.389ZM122.283 84.8928C122.355 84.8928 122.427 84.8928 122.499 84.8928C122.499 85.1985 122.499 85.5043 122.499 85.808C122.427 85.808 122.355 85.8101 122.283 85.8101C122.283 85.5043 122.283 85.1985 122.283 84.8928ZM125.142 85.9824C125.38 85.9824 125.587 85.9824 125.944 85.9824C125.659 86.282 125.452 86.4996 125.142 86.8238C125.142 86.436 125.142 86.2266 125.142 85.9824ZM122.967 88.3875C123.281 88.6625 123.494 88.8451 123.706 89.0298C123.673 89.0831 123.64 89.1385 123.609 89.194C123.4 89.194 123.193 89.194 122.967 89.194C122.967 88.9641 122.967 88.7569 122.967 88.3875ZM88.0506 78.7078C88.3133 78.7078 88.5205 78.7078 88.8981 78.7078C88.6047 78.9889 88.4118 79.1736 88.1204 79.4486C88.0916 79.1408 88.0732 78.9459 88.0506 78.7078ZM135.936 81.1518C135.881 81.1498 135.827 81.1498 135.772 81.1477C135.772 80.8112 135.772 80.4747 135.772 80.1381C135.827 80.1422 135.881 80.1443 135.936 80.1484C135.936 80.4808 135.936 80.8173 135.936 81.1518ZM128.362 112.114C128.384 112.159 128.407 112.206 128.429 112.251C128.337 112.327 128.243 112.399 128.152 112.477C128.044 112.571 127.941 112.672 127.742 112.852C127.711 112.596 127.689 112.411 127.656 112.149C127.914 112.136 128.138 112.124 128.362 112.114ZM110.958 139.837C110.745 140.079 110.572 140.274 110.301 140.576C110.174 139.917 110.32 139.685 110.958 139.837ZM124.711 94.3816C124.711 94.4452 124.711 94.5068 124.713 94.5704C124.405 94.5704 124.1 94.5704 123.794 94.5704C123.79 94.5068 123.784 94.4452 123.777 94.3816C124.089 94.3816 124.401 94.3816 124.711 94.3816ZM115.37 139.06C115.405 139.06 115.438 139.06 115.471 139.06C115.438 139.092 115.405 139.125 115.37 139.158C115.37 139.125 115.37 139.092 115.37 139.06ZM118.034 100.848C118.075 100.854 118.114 100.862 118.155 100.87C118.134 101.065 118.173 101.297 118.077 101.439C118.017 101.527 117.755 101.474 117.508 101.49C117.74 101.205 117.888 101.026 118.034 100.848ZM93.7697 104.482C93.7102 104.48 93.6487 104.478 93.5892 104.476C93.5892 104.156 93.5892 103.834 93.5892 103.511C93.6487 103.517 93.7102 103.524 93.7697 103.532C93.7697 103.848 93.7697 104.164 93.7697 104.482ZM105.875 51.0396C105.61 51.0273 105.389 51.017 105.017 51.0006C105.29 50.7051 105.481 50.4978 105.803 50.1449C105.836 50.543 105.852 50.7502 105.875 51.0396ZM96.8253 50.2331C96.8089 50.2331 96.7637 50.1059 96.7843 50.0853C96.8438 50.0217 96.9259 49.9438 96.9997 49.9417C97.2727 49.9397 97.5456 49.9663 97.8185 49.9827C97.8226 50.0689 97.8288 50.1531 97.8349 50.2393C97.4984 50.2393 97.1618 50.2413 96.8253 50.2331ZM106.757 49.2173C106.813 49.2317 106.868 49.246 106.924 49.2604C106.944 49.48 106.961 49.7016 106.989 50.0033C106.692 49.9561 106.472 49.9212 106.144 49.8699C106.398 49.599 106.579 49.4082 106.757 49.2173ZM118.904 45.4989C119.103 45.2712 119.302 45.0454 119.579 44.7294C119.681 45.5379 119.681 45.5379 118.904 45.4989ZM117.291 43.3832C117.346 43.4058 117.402 43.4263 117.457 43.4489C117.447 43.6377 117.436 43.8285 117.424 44.0522C117.209 44.0522 117.026 44.0522 116.726 44.0522C116.96 43.7752 117.127 43.5782 117.291 43.3832ZM124.463 44.0625C124.654 43.8347 124.818 43.6377 125.054 43.3586C125.054 43.6439 125.054 43.8368 125.054 44.1056C124.805 44.0871 124.623 44.0748 124.463 44.0625ZM101.131 61.5832C101.118 61.5873 101.108 61.5873 101.096 61.5914C101.104 61.5852 101.112 61.577 101.118 61.5709C101.122 61.5688 101.126 61.5647 101.131 61.5627C101.131 61.5688 101.131 61.577 101.131 61.5832ZM101.828 61.0702C101.596 61.2343 101.362 61.3985 101.131 61.5627C101.12 61.341 101.11 61.1173 101.096 60.8342C101.367 60.8711 101.568 60.8998 101.769 60.9286C101.787 60.9758 101.81 61.023 101.828 61.0702ZM113.051 40.3852C112.733 40.3852 112.413 40.3852 112.095 40.3852C112.095 40.338 112.095 40.2887 112.097 40.2395C112.421 40.2395 112.745 40.2395 113.07 40.2395C113.063 40.2887 113.057 40.338 113.051 40.3852ZM97.0079 58.5071C96.9053 58.6179 96.6652 58.5994 96.4847 58.6364C96.4703 58.5871 96.4539 58.5379 96.4395 58.4907C96.6529 58.3696 96.8663 58.2465 97.0264 58.1582C97.0264 58.1706 97.0962 58.4127 97.0079 58.5071ZM122.805 57.8504C123.055 57.6124 123.244 57.4318 123.502 57.1856C123.652 57.9017 123.605 57.9469 122.805 57.8504ZM101.781 57.6965C101.463 57.401 101.268 57.2184 100.952 56.9208C101.362 56.8736 101.566 56.8511 101.853 56.8203C101.83 57.0953 101.814 57.3087 101.781 57.6965ZM104.356 54.2429C104.791 53.8468 105.282 53.8776 105.487 54.3126C105.073 54.286 104.75 54.2675 104.356 54.2429ZM122.515 36.8884C122.544 36.9315 122.573 36.9746 122.602 37.0177C122.4 37.2003 122.195 37.5307 121.996 37.5287C121.801 37.5287 121.612 37.1839 121.319 36.8884C121.848 36.8884 122.183 36.8884 122.515 36.8884ZM117.067 118.705C117.083 118.918 117.098 119.095 117.116 119.316C116.878 119.316 116.671 119.316 116.439 119.316C116.349 118.849 116.529 118.645 117.067 118.705ZM106.189 47.0893C105.912 47.0647 105.717 47.0462 105.481 47.0236C105.481 46.7959 105.481 46.5865 105.481 46.3075C105.703 46.2952 105.928 46.2828 106.189 46.2685C106.189 46.5517 106.189 46.7815 106.189 47.0893ZM103.95 48.4067C103.603 48.2631 103.298 48.1379 102.996 48.0127C102.992 47.9573 102.986 47.9019 102.982 47.8465C103.296 47.8014 103.609 47.7542 104.038 47.6926C103.999 48.0127 103.975 48.2036 103.95 48.4067ZM105.196 49.6565C105.151 49.3363 105.122 49.1475 105.091 48.928C105.183 48.8992 105.253 48.8541 105.319 48.8603C105.614 48.8828 105.908 48.9218 106.199 48.9547C106 49.086 105.797 49.2173 105.6 49.3528C105.495 49.4246 105.397 49.5046 105.196 49.6565ZM113.185 50.2557C113.158 50.0464 113.135 49.8555 113.111 49.6421C113.482 49.6421 113.821 49.6421 114.157 49.6421C114.167 49.679 114.178 49.7139 114.186 49.7529C113.884 49.9048 113.579 50.0587 113.185 50.2557ZM96.3246 57.2717C96.3246 57.2676 96.3266 57.2635 96.3266 57.2615C96.3287 57.2635 96.3349 57.2635 96.3369 57.2635L96.3246 57.2717ZM95.6926 56.535C95.8957 56.5207 96.1173 56.5063 96.4395 56.4837C96.3964 56.7854 96.3615 57.0234 96.3266 57.2615C95.9901 57.1671 95.592 57.1302 95.6926 56.535ZM96.3246 57.2717L96.3369 57.2635C96.339 57.2656 96.3431 57.2656 96.3451 57.2676C96.339 57.2676 96.3307 57.2717 96.3246 57.2717ZM97.523 57.754C97.0367 57.5529 96.6899 57.4092 96.3451 57.2676C96.6734 57.1876 97.0038 57.1076 97.406 57.0111C97.4245 57.1281 97.4553 57.3272 97.523 57.754ZM93.109 67.9221C93.2649 67.6101 93.4188 67.3003 93.5748 66.9925C93.6856 67.0479 93.7944 67.1053 93.9011 67.1628C93.7492 67.4644 93.5994 67.7682 93.4291 68.0616C93.4229 68.0739 93.2198 67.9713 93.109 67.9221ZM129.137 100.004C129.24 100.101 129.365 100.171 129.517 100.281C129.271 100.507 129.066 100.694 128.774 100.963C128.774 100.476 128.774 100.142 128.774 99.8094C128.821 99.7786 128.867 99.7458 128.914 99.715C128.988 99.8114 129.049 99.9222 129.137 100.004ZM112.046 97.9871C112.091 97.9687 112.136 97.9522 112.181 97.9338C112.321 98.1041 112.462 98.2744 112.624 98.4694C112.468 98.6561 112.339 98.81 112.095 99.1035C112.074 98.6376 112.06 98.3114 112.046 97.9871ZM109.61 43.7075C109.778 43.7567 109.959 43.808 110.305 43.9065C109.877 44.1589 109.589 44.3272 109.302 44.4934C109.273 44.4462 109.242 44.397 109.214 44.3477C109.337 44.1487 109.46 43.9496 109.61 43.7075ZM112.983 95.026C113.168 95.2948 113.363 95.5575 113.521 95.8386C113.55 95.8879 113.449 96.0725 113.373 96.0992C113.297 96.1259 113.131 96.0582 113.092 95.9843C112.944 95.7237 112.836 95.4405 112.71 95.1655C112.801 95.1183 112.893 95.0711 112.983 95.026ZM103.006 45.2219C102.893 44.6945 103.066 44.4606 103.607 44.5139C103.747 44.9982 103.618 45.263 103.006 45.2219ZM133.473 94.6545C133.231 94.671 133.04 94.6833 132.796 94.6997C132.796 94.4247 132.796 94.1805 132.796 93.8809C133.006 93.9117 133.194 93.9404 133.428 93.9753C133.443 94.199 133.457 94.4083 133.473 94.6545ZM132.172 93.5321C131.92 93.9897 131.733 94.3324 131.473 94.8085C131.179 93.9548 131.325 93.6819 132.172 93.5321ZM118.971 91.3158C118.959 91.1065 118.949 90.9157 118.934 90.7002C119.185 90.7002 119.394 90.7002 119.603 90.7002C119.71 91.207 119.556 91.4307 118.971 91.3158ZM103.4 46.4798C103.669 46.3259 103.94 46.17 104.299 45.9668C104.342 46.2192 104.375 46.4101 104.424 46.6953C104.051 46.6645 103.735 46.6378 103.419 46.6112C103.412 46.5681 103.406 46.5229 103.4 46.4798ZM108.688 129.597C108.746 129.645 108.803 129.692 108.861 129.737C108.676 130.041 108.493 130.346 108.276 130.71C107.946 130.078 108.042 129.868 108.688 129.597ZM110.94 136.164C111.165 136.164 111.346 136.164 111.547 136.164C111.401 136.531 111.276 136.849 111.151 137.17C111.095 137.157 111.04 137.143 110.985 137.131C110.97 136.821 110.956 136.511 110.94 136.164ZM87.3816 75.7672C87.4781 75.5435 87.6504 75.3527 87.8659 75.0448C87.9644 75.0572 88.1511 75.0797 88.2948 75.0961C88.1614 75.4183 88.0444 75.7077 87.8823 76.1058C87.8454 76.1099 87.6648 76.1776 87.5129 76.1345C87.435 76.1119 87.3406 75.8595 87.3816 75.7672ZM90.7552 133.833C90.8065 133.864 90.8578 133.894 90.9091 133.927C90.9091 134.395 90.9091 134.867 90.9091 135.335C90.8681 135.358 90.823 135.378 90.7819 135.399C90.5931 135.091 90.314 134.797 90.2545 134.465C90.2237 134.291 90.5747 134.046 90.7552 133.833ZM112.011 57.7807C111.52 58.0002 111.091 58.1931 110.665 58.384C110.638 58.3224 110.611 58.2588 110.585 58.1972C110.896 57.596 111.286 57.4605 112.011 57.7807ZM102.649 63.3746C102.608 63.3192 102.567 63.2618 102.526 63.2043C102.754 63.0135 102.965 62.6892 103.218 62.6544C103.681 62.5907 103.712 62.9683 103.638 63.3746C103.306 63.3746 102.979 63.3746 102.649 63.3746ZM103.244 66.5964C103.031 66.6087 102.858 66.6169 102.46 66.6375C102.727 66.188 102.916 65.87 103.105 65.5519C103.152 65.5786 103.199 65.6053 103.244 65.6319C103.244 65.9418 103.244 66.2537 103.244 66.5964ZM107.244 111.028C107.513 111.599 107.059 111.808 106.739 112.114C106.386 111.311 106.528 111.03 107.244 111.028ZM118.604 36.8248C118.204 36.8433 117.859 36.8597 117.471 36.8761C117.486 36.597 117.496 36.4021 117.506 36.2174C118.192 36.0901 118.192 36.0901 118.604 36.8248ZM92.0009 117.022C91.849 117.455 91.6971 117.886 91.5001 118.448C91.18 117.642 91.2252 117.5 92.0009 117.022ZM112.84 123.09C112.489 123.474 112.208 123.786 111.91 124.083C111.896 124.096 111.67 123.975 111.65 123.889C111.51 123.33 111.994 122.963 112.84 123.09ZM109.801 38.1627C109.511 38.3782 109.22 38.5916 108.797 38.9015C108.797 38.4767 108.797 38.2551 108.797 37.937C109.154 37.9657 109.458 37.9924 109.762 38.0191C109.774 38.0663 109.788 38.1135 109.801 38.1627ZM137.245 84.8004C137.173 84.7758 137.097 84.7512 137.022 84.7245C137.19 84.269 137.358 83.8154 137.576 83.2265C137.998 84.0186 137.894 84.3592 137.245 84.8004ZM96.5031 55.3448C96.261 54.5527 96.3554 54.3783 97.0674 54.366C97.088 54.7107 97.1044 55.0042 97.127 55.3448C96.9074 55.3448 96.7042 55.3448 96.5031 55.3448ZM121.491 117.546C121.756 117.566 121.963 117.58 122.183 117.599C122.183 117.952 122.183 118.262 122.183 118.621C121.945 118.637 121.74 118.652 121.491 118.668C121.491 118.28 121.491 117.935 121.491 117.546ZM124.141 36.4718C123.753 36.6278 123.353 36.7899 122.864 36.9869C122.918 36.5744 122.944 36.3795 122.983 36.084C123.193 36.1004 123.396 36.1168 123.597 36.1332C123.636 36.1558 123.677 36.1763 123.718 36.201C123.861 36.2871 124.001 36.3815 124.141 36.4718ZM130.75 100.021C130.962 100.474 131.095 100.764 131.282 101.166C131.038 101.176 130.742 101.279 130.598 101.174C130.41 101.037 130.25 100.735 130.252 100.505C130.254 100.351 130.555 100.197 130.75 100.021ZM120.677 101.905C120.857 102.701 120.496 103.066 119.671 102.922C119.823 102.61 119.973 102.309 120.145 101.96C120.289 101.946 120.484 101.925 120.677 101.905ZM114.036 45.6693C114.403 46.289 114.032 46.6543 113.673 47.0216C113.338 46.525 113.435 46.1392 114.036 45.6693ZM127.998 94.2585C127.763 94.2708 127.553 94.2831 127.26 94.2995C127.286 93.924 127.307 93.6018 127.327 93.2879C128.058 93.2119 128.101 93.2694 127.998 94.2585ZM134.134 95.9494C134.147 96.1875 134.165 96.4953 134.183 96.838C133.818 96.6512 133.506 96.5425 133.262 96.3475C133.151 96.2572 133.174 96.0028 133.135 95.8222C133.252 95.8879 133.367 95.9946 133.49 96.0069C133.675 96.0253 133.867 95.9781 134.134 95.9494ZM112.674 47.0708C112.674 47.5387 112.674 47.9738 112.674 48.4724C111.773 47.8814 111.781 47.5264 112.674 47.0708ZM113.447 137.215C113.291 137.553 113.209 137.789 113.08 137.993C113 138.122 112.86 138.272 112.727 138.296C112.524 138.335 112.3 138.282 112.087 138.249C112.064 138.243 112.021 138.073 112.054 138.038C112.308 137.757 112.552 137.457 112.852 137.231C112.977 137.139 113.228 137.215 113.447 137.215ZM108.684 46.9149C109.013 46.4634 109.318 46.0448 109.622 45.6282C109.673 45.6344 109.725 45.6405 109.774 45.6467C109.774 45.9586 109.897 46.3711 109.743 46.5578C109.542 46.8061 109.29 47.3027 108.684 46.9149ZM106.443 37.9103C106.314 37.9309 106.109 37.9657 105.756 38.0232C105.863 37.6785 105.922 37.4343 106.015 37.2044C106.103 36.9828 106.226 36.7755 106.357 36.519C106.532 36.6811 106.71 36.8474 106.837 36.9643C106.692 37.3132 106.581 37.5779 106.443 37.9103ZM107.451 48.0189C107.348 47.9368 107.281 47.6085 107.34 47.5572C107.619 47.3294 107.946 47.1591 108.255 46.9662C108.325 47.038 108.395 47.1098 108.465 47.1796C108.294 47.473 108.149 47.787 107.935 48.0394C107.866 48.1215 107.56 48.1051 107.451 48.0189ZM117.432 41.5466C117.1 41.5466 116.761 41.5466 116.439 41.5466C116.597 41.0582 116.735 40.6273 116.874 40.1943C117.562 40.4385 117.506 40.9618 117.432 41.5466ZM91.102 59.2972C90.7717 58.6015 90.8722 58.2054 91.5802 57.5693C91.8141 58.7431 91.771 58.8949 91.102 59.2972ZM130.231 91.7139C130.235 91.7221 130.239 91.7324 130.243 91.7406C130.233 91.7385 130.223 91.7344 130.213 91.7324L130.231 91.7139ZM130.243 91.7406C130.299 91.755 130.369 91.7755 130.385 91.757C130.845 91.1865 131.214 91.322 131.577 92.032C131.29 92.1756 130.986 92.4178 130.666 92.4424C130.541 92.4506 130.387 92.0012 130.243 91.7406ZM89.2593 103.751C88.9268 102.918 89.1567 102.161 89.7682 101.956C90.0001 102.996 89.9508 103.185 89.2593 103.751ZM128.92 103.105C129.041 103.374 129.08 103.68 129.168 104.053C128.715 104.053 128.423 104.053 127.939 104.053C128.136 103.655 128.255 103.339 128.448 103.078C128.503 103.004 128.885 103.033 128.92 103.105ZM120.515 105.565C120.357 105.843 120.293 106.113 120.133 106.198C119.798 106.374 119.415 106.454 119.041 106.577C118.781 105.832 119.129 105.533 120.515 105.565ZM135.965 92.4691C135.189 91.796 135.189 91.796 135.402 90.8705C135.774 91.0962 136.242 91.2214 136.316 91.4677C136.396 91.7324 136.106 92.1079 135.965 92.4691ZM93.4681 64.1401C93.4722 64.136 93.4763 64.1339 93.4784 64.1298C93.4804 64.1298 93.4804 64.1278 93.4804 64.1278H93.4825C93.4804 64.1319 93.4804 64.136 93.4804 64.1421C93.4763 64.1421 93.4722 64.1401 93.4681 64.1401ZM93.2526 66.227C93.3306 65.5252 93.4065 64.8337 93.4804 64.1421C93.702 64.1606 93.9257 64.1832 94.2458 64.2119C94.0837 64.4109 94.0016 64.5135 93.9196 64.6141C94.2622 65.0266 93.977 65.7325 93.2526 66.227ZM90.2422 64.3104C90.4946 63.9513 90.8189 63.6435 91.1205 63.3192C91.1739 63.3664 91.2313 63.4198 91.2847 63.469C91.2847 63.8076 91.3155 64.1483 91.2785 64.4828C91.2252 64.9671 90.825 64.8891 90.5439 64.8029C90.3982 64.7577 90.195 64.3781 90.2422 64.3104ZM104.254 49.0183C104.701 49.9355 104.443 50.3152 103.326 50.2516C103.326 49.9068 103.326 49.56 103.326 49.2399C103.659 49.1599 103.954 49.0901 104.254 49.0183ZM116.449 44.4257C115.821 44.5509 115.306 44.6289 115.06 43.8983C115.378 43.6151 115.458 42.9133 116.322 43.096C115.733 43.6131 116.172 44.0091 116.449 44.4257ZM106.593 56.6212C107.135 56.3832 107.687 56.1431 108.323 55.8661C108.348 56.1349 108.376 56.4448 108.413 56.8429C107.792 56.8285 107.277 56.8121 107.149 57.5057C106.944 57.1794 106.778 56.9147 106.593 56.6212ZM106.456 145.983C106.497 146.082 106.534 146.174 106.571 146.266C106.333 146.422 106.093 146.58 105.85 146.732C105.84 146.648 105.836 146.556 105.844 146.453C105.881 146.039 106.088 145.893 106.456 145.983ZM113.221 45.1686C112.99 44.5324 113.213 44.1015 113.739 43.769C113.888 43.6767 114.009 43.5351 114.143 43.4161C114.293 43.6993 114.754 43.8696 114.553 44.2697C114.436 44.5078 114.188 44.7007 113.96 44.8587C113.761 44.9941 113.509 45.0536 113.221 45.1686ZM130.231 91.7139L130.213 91.7324C130.213 91.7303 130.213 91.7283 130.213 91.7262C130.219 91.7221 130.225 91.718 130.231 91.7139ZM130.155 90.9259C130.182 91.2973 130.196 91.5128 130.213 91.7262C129.903 91.9376 129.591 92.151 129.244 92.387C128.723 92.0771 128.44 91.599 128.795 91.246C129.068 90.9752 129.663 91.0265 130.155 90.9259ZM137.379 98.73C137.551 98.9496 137.557 99.3477 137.087 99.3825C136.755 99.4092 136.418 99.3887 136.168 99.3887C135.973 98.8285 135.827 98.4078 135.663 97.9379C136.387 97.9338 136.964 98.2108 137.379 98.73ZM133.406 98.3216C133.576 98.9085 133.738 99.4585 133.898 100.008C133.824 100.045 133.748 100.082 133.675 100.117C133.116 99.5734 132.558 99.0316 132 98.4878C132.023 98.4324 132.045 98.377 132.07 98.3216C132.513 98.3216 132.958 98.3216 133.406 98.3216ZM113.472 41.5138C113.515 41.247 113.562 40.9618 113.601 40.7176C113.579 40.3585 113.431 39.946 113.57 39.6936C113.714 39.433 114.137 39.3263 114.438 39.1518C114.483 39.1806 114.531 39.2114 114.576 39.2401C114.496 39.4145 114.379 39.5828 114.344 39.7695C114.268 40.1635 114.2 40.5657 114.196 40.9679C114.188 41.403 114.108 41.6903 113.472 41.5138ZM99.0087 58.9565C98.625 57.9325 100.205 57.8381 99.9855 56.7526C100.291 56.8962 100.521 56.9496 100.657 57.0932C100.706 57.1445 100.527 57.4072 100.46 57.5755C100.418 57.6781 100.336 57.8032 100.365 57.8874C100.517 58.3368 100.109 58.4599 99.8952 58.6302C99.6715 58.8088 99.3371 58.8436 99.0087 58.9565ZM120.954 88.4839C120.818 88.6091 120.693 88.7261 120.441 88.9641C120.441 88.4737 120.441 88.1474 120.441 87.9114C120.913 87.737 121.331 87.581 121.762 87.421C121.865 87.8232 121.974 88.2418 122.107 88.7589C121.74 88.8082 121.317 89.0606 120.954 88.4839ZM107.394 108.077C107.433 107.568 107.028 107.033 107.613 106.567C107.785 106.429 107.603 105.92 108.021 105.801C108.204 105.748 108.391 105.711 108.576 105.666C108.571 105.881 108.578 106.095 108.555 106.306C108.547 106.388 108.415 106.466 108.424 106.538C108.512 107.32 107.866 107.63 107.394 108.077ZM118.296 42.4742C118.834 42.2546 119.367 42.0371 119.942 41.8031C119.993 41.8729 120.1 42.0166 120.246 42.2156C120.168 42.3777 120.034 42.6568 119.885 42.9626C119.731 42.8477 119.603 42.7512 119.402 42.5993C119.335 42.8661 119.283 43.0672 119.214 43.3484C118.785 43.3484 118.323 43.3484 117.814 43.3484C117.995 43.018 118.157 42.7245 118.296 42.4742ZM92.9058 64.415C92.7765 64.296 92.6021 64.138 92.3907 63.9431C92.6801 63.5778 92.9694 63.2166 93.2567 62.8534C93.3039 62.8883 93.3532 62.9252 93.4024 62.9601C93.542 62.5353 93.6712 62.1044 93.8313 61.6878C93.858 61.616 94.096 61.5462 94.0981 61.5544C94.2171 61.7597 94.4408 62.008 94.3956 62.1844C94.2705 62.6913 94.0447 63.1756 93.8313 63.6558C93.7533 63.8323 93.5994 63.9739 93.4784 64.1298C93.3019 64.218 93.1254 64.3063 92.9058 64.415ZM107.872 48.5155C108.941 49.2953 108.553 50.1284 107.845 50.9924C107.757 50.9924 107.578 50.9924 107.33 50.9924C107.437 50.1449 106.842 49.2009 107.872 48.5155ZM93.2013 61.2364C93.0946 60.908 92.9961 60.6125 92.8791 60.2493C93.0433 59.9046 93.2465 59.4654 93.4681 59.0345C93.5892 58.7964 93.7287 58.5625 93.8929 58.3532C93.9339 58.3039 94.1904 58.3306 94.1986 58.3635C94.2787 58.6466 94.7527 58.7431 94.5126 59.1987C94.1986 59.7958 93.9832 60.4484 93.6795 61.1912C93.583 61.2015 93.3881 61.2179 93.2013 61.2364ZM99.5053 114.691C99.4253 115.274 99.3945 115.801 99.2714 116.306C99.1647 116.741 98.9595 117.149 98.7891 117.566C98.7419 117.683 98.6455 117.777 98.5962 117.892C98.4362 118.268 98.2884 118.648 98.0976 119.117C97.7118 118.451 97.997 117.293 98.075 116.792C98.1858 116.074 98.6558 115.641 98.9225 115.065C99.1072 114.666 99.2816 114.617 99.5053 114.691ZM114.35 50.7461C114.492 50.8508 114.539 51.0786 114.6 51.1996C113.911 51.5464 113.363 51.8214 112.791 52.1087C112.764 51.9035 112.737 51.7085 112.704 51.4356C112.29 51.4028 111.859 51.3679 111.407 51.333C110.989 50.4855 111.621 50.1223 112.29 49.7057C112.557 50.0423 112.848 50.4404 113.176 50.8015C113.379 51.0273 113.628 51.2325 113.876 50.7892C113.925 50.7051 114.252 50.6722 114.35 50.7461ZM110.851 55.9523C110.463 56.2252 110.071 56.5002 109.721 56.7444C109.386 56.6212 109.084 56.5104 108.6 56.3339C109.086 56.0323 109.474 55.7922 109.983 55.4782C109.517 55.4208 109.162 55.3777 108.789 55.3325C109.288 54.5856 111.522 54.0992 113.15 54.5117C112.319 54.8359 111.489 55.156 110.572 55.5111C110.658 55.6485 110.757 55.8025 110.851 55.9523ZM97.9047 61.3226C98.5778 61.2179 99.1996 61.1194 100.002 60.9922C100.246 61.1256 100.474 61.7432 101.096 61.5914C100.913 61.7494 100.728 61.9074 100.546 62.0654C100.505 62.0346 100.464 62.0038 100.423 61.9731C100.41 62.3096 100.394 62.6462 100.384 62.8719C99.9096 63.1448 99.5074 63.3767 99.0415 63.6455C98.8097 63.4403 98.5203 63.1838 98.2371 62.9314C98.6517 62.3178 98.6086 62.09 97.9047 61.3226ZM96.4559 65.5457C96.7781 65.5663 97.1105 65.5909 97.4902 65.6155C97.2296 66.3584 96.6981 66.3707 96.1379 66.2886C95.9922 65.8084 95.7972 65.3446 95.7274 64.8645C95.6884 64.5936 95.8506 64.294 95.9265 64.0067C95.9347 63.9677 95.9634 63.9349 95.9716 63.8959C96.0927 63.35 95.945 62.7549 96.3574 62.2419C96.4621 62.1147 96.2015 61.7063 96.1358 61.4231C96.0824 61.183 95.7767 60.8075 96.3862 60.8465C96.2774 60.6679 96.1686 60.4894 96.0558 60.3027C96.3574 59.9784 96.6529 59.6645 96.9813 59.3095C97.1762 59.9969 96.8397 60.787 96.3985 60.8547C96.5503 61.4806 97.088 61.0537 97.4861 61.2754C97.4861 61.6981 97.4676 62.1721 97.4902 62.6441C97.5107 63.0976 97.5702 63.5491 97.6133 64.0334C96.7802 64.3453 96.3533 64.8583 96.4559 65.5457ZM103.891 99.5262C103.665 100.273 103.429 101.012 103.179 101.749C102.93 102.483 102.811 103.275 102.399 103.94C102.001 104.611 101.539 105.256 100.845 105.797L100.706 105.738C100.626 104.86 100.782 104.084 100.997 103.333C101.198 102.578 101.693 101.948 102.058 101.264C102.425 100.579 102.801 99.8976 103.191 99.2225C103.593 98.5535 103.975 97.8763 104.391 97.2135L104.533 97.273C104.338 98.0323 104.104 98.7751 103.891 99.5262ZM100.066 98.1226C99.8131 97.3161 99.8378 96.5527 99.9445 95.8119C100.037 95.0629 100.453 94.4124 100.751 93.7332C101.053 93.056 101.381 92.389 101.74 91.7406C102.111 91.0983 102.479 90.456 102.899 89.8465L103.037 89.9101C102.838 90.6222 102.622 91.3179 102.448 92.0258C102.261 92.7276 102.079 93.4295 101.906 94.1292C101.734 94.831 101.715 95.5718 101.412 96.2285C101.122 96.8893 100.786 97.5398 100.215 98.1554L100.066 98.1226ZM99.3617 109.764C99.2796 110.057 99.1852 110.343 99.0805 110.622C98.9779 110.903 98.9923 111.256 98.7378 111.441C98.6188 111.537 98.4834 111.621 98.311 111.685C98.1427 111.75 97.9498 111.8 97.6872 111.804L97.5599 111.72C97.4532 111.48 97.4184 111.285 97.4081 111.104C97.3937 110.921 97.4142 110.761 97.4532 110.614C97.5148 110.308 97.8431 110.172 98.0524 109.961C98.2659 109.752 98.4875 109.549 98.7194 109.352C98.9554 109.157 99.1893 108.962 99.4479 108.783L99.5771 108.863C99.5197 109.175 99.4397 109.469 99.3617 109.764ZM96.4641 107.552C96.0968 108.124 95.67 108.672 95.0092 109.116L94.8697 109.052C94.7609 108.264 94.8861 107.583 95.0708 106.926C95.2431 106.265 95.7049 105.734 96.0373 105.145C96.3718 104.556 96.7165 103.971 97.0736 103.394C97.445 102.82 97.7939 102.239 98.1817 101.675L98.3192 101.736C98.1551 102.401 97.9539 103.05 97.7713 103.706C97.5764 104.357 97.3712 105.003 97.1516 105.643C96.9341 106.284 96.8438 106.983 96.4641 107.552ZM94.1124 115.26C93.8354 115.846 93.5481 116.427 93.2485 117.002C92.9489 117.576 92.7683 118.227 92.321 118.703C91.8839 119.187 91.3934 119.635 90.6875 119.944L90.5603 119.862C90.5603 119.091 90.7737 118.461 91.0405 117.868C91.297 117.266 91.8203 116.838 92.2266 116.335C92.6308 115.83 93.0474 115.331 93.4742 114.841C93.9113 114.359 94.332 113.864 94.7855 113.39L94.9148 113.474C94.6645 114.08 94.3792 114.662 94.1124 115.26ZM89.2654 116.437C88.9597 117.156 88.7791 117.94 88.3153 118.574C87.8659 119.216 87.359 119.827 86.6244 120.32L86.4869 120.25C86.4766 119.364 86.6901 118.598 86.965 117.864C87.2257 117.123 87.7674 116.53 88.184 115.871C88.6026 115.21 89.0315 114.558 89.4727 113.911C89.9241 113.269 90.3571 112.618 90.8271 111.986L90.9625 112.058C90.708 112.803 90.4187 113.53 90.1478 114.266C89.8646 114.995 89.5712 115.719 89.2654 116.437ZM86.9835 125.957C86.5259 126.48 86.0703 126.997 85.6086 127.51C85.1489 128.023 84.7919 128.641 84.2235 129.035C83.6591 129.441 83.0579 129.807 82.274 130.002L82.1652 129.893C82.3499 129.105 82.7275 128.495 83.1605 127.941C83.5812 127.373 84.2255 127.038 84.7796 126.614C85.3316 126.187 85.898 125.778 86.4766 125.387C87.0635 125.001 87.6402 124.611 88.2455 124.256L88.3461 124.371C87.8967 124.91 87.4309 125.423 86.9835 125.957ZM81.6153 126.54C81.2787 127.022 81.0366 127.597 80.5523 127.948C80.0803 128.309 79.555 128.619 78.847 128.738L78.7382 128.629C78.8449 127.923 79.1179 127.396 79.4339 126.909C79.7376 126.413 80.2691 126.125 80.6939 125.735C81.1187 125.346 81.5475 124.96 81.9805 124.57C82.4258 124.192 82.8486 123.79 83.2959 123.408L83.419 123.503C83.1605 124.034 82.8629 124.539 82.5715 125.056C82.2699 125.563 81.9518 126.058 81.6153 126.54ZM78.8449 133.228C78.5741 133.656 78.2806 134.073 77.9687 134.475C77.6609 134.875 77.4331 135.374 76.9837 135.635C76.5446 135.903 76.0541 136.117 75.4036 136.115L75.303 136C75.4077 135.358 75.6601 134.914 75.9474 134.512C76.2265 134.1 76.7149 133.913 77.1048 133.611L78.2827 132.712L79.4872 131.805L79.6042 131.904C79.3764 132.362 79.1076 132.79 78.8449 133.228ZM73.7948 134.769C73.4603 135.284 73.214 135.889 72.7174 136.273C72.2352 136.665 71.6914 137.001 70.9649 137.139L70.8562 137.032C70.9773 136.306 71.2584 135.764 71.5785 135.255C71.8863 134.738 72.4219 134.422 72.8467 134.001L74.119 132.725C74.5561 132.304 74.9665 131.859 75.3995 131.424L75.5267 131.508C75.2948 132.078 75.0137 132.624 74.7346 133.178C74.4453 133.72 74.1313 134.254 73.7948 134.769ZM69.1919 131.134L69.0586 131.063C68.9888 130.303 69.153 129.665 69.3828 129.06C69.6003 128.446 70.099 127.997 70.4807 127.484C70.8664 126.971 71.2645 126.466 71.6811 125.98C72.108 125.495 72.5225 125.007 72.976 124.549L73.1012 124.633C72.8508 125.226 72.5758 125.799 72.3255 126.386C72.0628 126.967 71.7981 127.541 71.5293 128.114C71.2604 128.684 71.1189 129.329 70.7105 129.815C70.3124 130.312 69.865 130.777 69.1919 131.134ZM69.5634 135.068C69.311 135.565 69.0524 136.061 68.7897 136.548C68.5271 137.04 68.3875 137.607 67.9894 138.003C67.6016 138.405 67.1645 138.776 66.5119 139.025L66.3826 138.943C66.3211 138.247 66.4894 137.683 66.7151 137.159C66.9305 136.628 67.4148 136.275 67.7883 135.852C68.1597 135.427 68.5455 135.017 68.9477 134.617C69.3623 134.227 69.7604 133.829 70.1975 133.461L70.3165 133.554C70.0764 134.069 69.8076 134.559 69.5634 135.068ZM71.4759 117.927C71.6114 117.427 72.0177 117.065 72.2967 116.632C72.5717 116.199 72.8549 115.764 73.1402 115.329L74.0082 114.018L74.1498 114.073C74.0759 114.601 73.9528 115.112 73.8399 115.633C73.7147 116.148 73.567 116.657 73.3987 117.158C73.2304 117.658 73.175 118.223 72.8282 118.637C72.4979 119.056 72.0977 119.442 71.4739 119.682L71.3405 119.606C71.2297 118.949 71.3282 118.426 71.4759 117.927ZM74.5971 107.068C74.6443 106.475 74.9993 105.968 75.2189 105.422C75.4405 104.878 75.6724 104.336 75.9166 103.799C76.1752 103.265 76.4132 102.725 76.6882 102.196L76.8339 102.239C76.7929 102.832 76.7128 103.417 76.6513 104.008C76.5774 104.593 76.4933 105.176 76.3948 105.756C76.2983 106.335 76.3332 106.953 76.0644 107.482C75.8099 108.018 75.4918 108.535 74.9255 108.982L74.7798 108.939C74.5315 108.262 74.5315 107.657 74.5971 107.068ZM74.2647 128.844C74.2647 129.173 74.2647 129.47 74.2647 129.78C74.2524 129.786 74.2421 129.792 74.2298 129.799L74.1046 129.712C74.158 128.892 74.4227 128.216 74.7408 127.578C75.0465 126.932 75.615 126.466 76.0664 125.922C76.5199 125.374 76.9837 124.837 77.4577 124.305C77.942 123.782 78.4099 123.246 78.9106 122.735L79.0358 122.821C78.7341 123.472 78.4017 124.1 78.0857 124.738C77.7594 125.372 77.4208 125.996 77.0719 126.612C76.7251 127.231 76.4933 127.929 75.9967 128.444C75.6847 128.785 75.34 129.107 74.9378 129.386C74.9686 128.908 74.8229 128.859 74.2647 128.844ZM79.2164 110.965L79.36 111.016C79.163 111.908 78.9188 112.783 78.689 113.665C78.4448 114.541 78.1842 115.413 77.9051 116.277C77.7635 116.71 77.6506 117.154 77.5255 117.593C77.3982 118.032 77.2259 118.453 77.0104 118.853C76.7929 119.255 76.5507 119.645 76.2716 120.016C75.9946 120.392 75.6909 120.753 75.3092 121.079L75.1676 121.02C75.1491 120.517 75.2025 120.049 75.2825 119.596C75.3072 119.454 75.3379 119.319 75.3667 119.181C75.379 119.241 75.3892 119.298 75.3974 119.358C75.4672 119.355 75.5349 119.355 75.6047 119.353C75.7258 118.951 75.6868 118.537 75.6622 118.098C75.7873 117.726 75.9392 117.365 76.128 117.018C76.2162 116.858 76.3065 116.696 76.3948 116.534C76.3927 116.688 76.3866 116.84 76.3866 116.991C76.3866 117.063 76.5199 117.137 76.5918 117.211C76.6513 117.125 76.758 117.039 76.76 116.95C76.7682 116.581 76.7641 116.212 76.76 115.842C76.7641 115.834 76.7682 115.828 76.7723 115.822C77.1663 115.009 77.5686 114.201 77.9769 113.39C78.3976 112.586 78.7916 111.769 79.2164 110.965ZM79.1281 95.658C79.2697 95.0055 79.6986 94.4699 79.9941 93.8789C80.2896 93.2858 80.5933 92.6969 80.9052 92.1079C81.2274 91.5231 81.525 90.93 81.8595 90.3452L82.0031 90.3965C81.9005 91.0614 81.7527 91.7119 81.6214 92.3706C81.4757 93.0252 81.3136 93.6737 81.1351 94.316C80.9545 94.9603 80.9011 95.6539 80.5461 96.2285C80.2055 96.8092 79.7971 97.3612 79.1507 97.8086L79.0112 97.7491C78.8798 96.9775 78.9742 96.3065 79.1281 95.658ZM78.5207 106.873C78.5043 106.364 78.5802 105.892 78.689 105.432C78.7116 105.332 78.7423 105.233 78.7752 105.139C78.9783 105.18 79.1384 105.213 79.3498 105.256C79.2944 104.942 79.2574 104.724 79.2164 104.505C79.1384 104.566 79.0584 104.628 78.9701 104.695C79.1548 104.34 79.3867 104.002 79.5714 103.649C79.8771 103.058 80.1932 102.471 80.5236 101.89C80.8642 101.316 81.1843 100.731 81.5455 100.162L81.6871 100.22C81.5537 100.879 81.3813 101.523 81.2315 102.175C81.0674 102.822 80.8909 103.464 80.7041 104.102C80.5174 104.741 80.4599 105.428 80.107 106.001C79.7684 106.577 79.3682 107.129 78.73 107.587L78.5884 107.529C78.5741 107.453 78.5638 107.382 78.5536 107.308C78.6151 107.139 78.6049 106.996 78.5207 106.873ZM83.3144 111.1L83.456 111.157C83.2939 111.872 83.0928 112.569 82.9122 113.279C82.7193 113.979 82.5141 114.677 82.2986 115.37C82.0811 116.062 81.9949 116.807 81.6132 117.431C81.2561 118.042 80.8396 118.629 80.2075 119.128C80.2014 119.124 80.1932 119.122 80.185 119.119C80.185 119.13 80.1829 119.14 80.1829 119.148C80.1706 119.156 80.1624 119.165 80.1521 119.173L80.0105 119.115C79.8956 118.286 80.0187 117.554 80.2014 116.85C80.3717 116.138 80.8334 115.547 81.17 114.905C81.5024 114.26 81.8492 113.62 82.2063 112.986C82.5777 112.358 82.9286 111.72 83.3144 111.1ZM82.8219 106.384C82.8958 105.974 83.0045 105.582 83.1317 105.2C83.259 104.819 83.4272 104.457 83.6345 104.111C83.8438 103.766 84.0593 103.423 84.246 103.068L86.4869 98.7587L86.6326 98.81C86.4787 99.6124 86.2735 100.402 86.0765 101.197C85.8672 101.987 85.6312 102.771 85.3706 103.544C85.2413 103.932 85.1346 104.33 85.0156 104.724C84.9581 104.905 84.8924 105.079 84.8165 105.252C84.7508 105.114 84.6811 104.968 84.6031 104.81C84.3876 105.229 84.2317 105.535 83.9875 106.005C84.1804 105.955 84.3425 105.914 84.4923 105.877C84.285 106.214 84.0552 106.542 83.7884 106.85C83.5134 107.17 83.2118 107.476 82.8362 107.739L82.6988 107.671C82.6864 107.211 82.7419 106.791 82.8219 106.384ZM84.3712 92.4773C84.5066 91.7406 84.9417 91.1065 85.2454 90.4293C85.5512 89.7501 85.8672 89.0749 86.1935 88.406C86.5341 87.737 86.8542 87.0639 87.2133 86.4052L87.3549 86.4565C87.2277 87.1952 87.0615 87.9217 86.9137 88.6543C86.7537 89.3848 86.5834 90.1092 86.4007 90.8295C86.216 91.5497 86.1647 92.3172 85.8138 92.98C85.4773 93.647 85.0771 94.2913 84.4348 94.8536L84.2891 94.8023C84.1332 93.965 84.2235 93.2099 84.3712 92.4773ZM83.3944 119.277L83.259 119.206C83.2528 118.309 83.458 117.533 83.7166 116.784C83.9608 116.029 84.48 115.409 84.8699 114.72L86.0437 112.653L87.238 110.581L87.3775 110.638C87.1949 111.42 86.965 112.185 86.7434 112.955C86.5095 113.723 86.255 114.48 85.978 115.231C85.703 115.982 85.5429 116.792 85.0874 117.457C84.6441 118.13 84.1352 118.769 83.3944 119.277ZM88.0054 104.33C88.1881 103.647 88.658 103.095 89.0028 102.483C89.3475 101.874 89.7025 101.268 90.0698 100.669C90.4474 100.074 90.8065 99.4708 91.2046 98.8859L91.3442 98.9475C91.1698 99.635 90.9563 100.304 90.7655 100.981C90.5603 101.654 90.3448 102.321 90.117 102.984C89.8893 103.647 89.7887 104.365 89.3988 104.954C89.0212 105.551 88.5862 106.12 87.9131 106.583L87.7756 106.52C87.6751 105.711 87.8105 105.007 88.0054 104.33ZM88.6765 90.772C88.8345 90.062 89.2901 89.471 89.6143 88.8266C89.9365 88.1823 90.273 87.542 90.6219 86.9059C90.983 86.2759 91.3216 85.6377 91.7012 85.0159L91.8428 85.0713C91.691 85.7834 91.5001 86.4832 91.3319 87.187C91.1492 87.8888 90.9563 88.5845 90.747 89.276C90.5439 89.9676 90.4679 90.7104 90.0965 91.3363C89.7374 91.9663 89.3208 92.5737 88.6621 93.0868L88.5205 93.0293C88.3933 92.2064 88.5041 91.4779 88.6765 90.772ZM93.1254 103.45C93.4681 102.875 93.8149 102.303 94.1699 101.732C94.5372 101.168 94.8779 100.587 95.2534 100.021L95.3929 100.08C95.2431 100.745 95.0482 101.392 94.8656 102.044C94.6727 102.695 94.4592 103.337 94.2294 103.971C93.9996 104.607 93.8888 105.303 93.4845 105.855C93.0967 106.415 92.6411 106.94 91.9578 107.338L91.8223 107.269C91.7587 106.481 91.9106 105.814 92.1178 105.176C92.3107 104.531 92.7827 104.024 93.1254 103.45ZM92.9202 91.0531C93.0987 90.3082 93.5707 89.6803 93.9154 89.0031C94.2581 88.3239 94.6132 87.6508 94.9784 86.9839C95.3601 86.319 95.7172 85.65 96.1132 84.9974L96.2548 85.057C96.0824 85.8039 95.8731 86.5365 95.6843 87.2753C95.4832 88.0079 95.2698 88.7363 95.0461 89.4587C94.8225 90.1831 94.7301 90.9567 94.3402 91.6134C93.9647 92.2762 93.5256 92.9144 92.8484 93.4643L92.7068 93.4069C92.598 92.5553 92.7273 91.7919 92.9202 91.0531ZM97.2439 92.1941C97.4266 91.4492 97.9047 90.8233 98.2515 90.1482C98.5983 89.471 98.9574 88.8 99.3288 88.1351C99.7105 87.4743 100.074 86.8053 100.472 86.1548L100.613 86.2164C100.437 86.9633 100.224 87.6939 100.031 88.4306C99.8254 89.1652 99.61 89.8917 99.3822 90.6119C99.1524 91.3343 99.0539 92.1079 98.6619 92.7605C98.2823 93.4192 97.8431 94.0574 97.1618 94.6032L97.0182 94.5478C96.9135 93.6942 97.0469 92.9328 97.2439 92.1941ZM105.393 89.0257C104.984 87.8375 104.441 86.6802 103.657 85.6952C102.899 84.7409 101.931 83.9652 100.874 83.3599C97.1536 81.2175 92.4359 81.2421 88.4261 82.775C85.4629 83.9057 82.8527 85.7895 80.5851 88.0284C75.3236 101.279 71.0922 114.909 66.791 128.516C66.9921 128.13 67.2425 127.765 67.4374 127.373L68.3752 125.483C68.6994 124.853 68.9929 124.209 69.311 123.568L69.4587 123.614C69.3705 124.326 69.233 125.025 69.0975 125.731C68.9498 126.431 68.7754 127.127 68.5763 127.816C68.3773 128.504 68.289 129.244 67.8991 129.856C67.5195 130.472 67.068 131.054 66.3785 131.506L66.241 131.438C66.1959 130.903 66.2452 130.422 66.3334 129.961C65.5721 132.362 64.8066 134.763 64.0351 137.159C64.2423 136.921 64.4496 136.677 64.663 136.437C64.741 136.439 64.8333 136.431 64.94 136.414C64.8785 136.792 64.7902 137.161 64.6938 137.533C64.5871 137.927 64.4598 138.315 64.3141 138.696C64.1684 139.074 64.1336 139.53 63.8216 139.813C63.6759 139.958 63.5077 140.092 63.3045 140.198C63.2122 140.252 63.1116 140.297 63.0008 140.338C62.3093 142.454 61.6033 144.563 60.8872 146.671C62.4221 145.464 64.0227 144.325 65.6624 143.217C65.5639 143.234 65.4572 143.244 65.3443 143.238C65.1534 143.234 64.9482 143.205 64.6979 143.104L64.6158 142.977C64.6302 142.708 64.6897 142.509 64.7656 142.335C64.8374 142.156 64.9318 142.013 65.0406 141.889C65.2437 141.623 65.6172 141.625 65.9168 141.508C66.2164 141.393 66.5222 141.286 66.8362 141.192C67.1501 141.101 67.4641 141.007 67.7965 140.939L67.8766 141.067C67.6775 141.339 67.462 141.586 67.2466 141.834C67.0311 142.08 66.8074 142.312 66.5755 142.536C66.5222 142.589 66.4729 142.649 66.4237 142.708C71.5149 139.318 76.9037 136.191 81.6173 132.368C85.7954 128.978 89.4645 125.009 93.0556 120.999C97.0633 116.528 101.038 111.913 103.638 106.499C106.238 101.086 107.346 94.7038 105.393 89.0257ZM60.8112 144.221C60.6389 144.629 60.4562 145.031 60.2654 145.427C60.0704 145.823 59.9945 146.297 59.6539 146.593C59.4938 146.747 59.3132 146.886 59.0998 147.003C58.8884 147.122 58.6545 147.227 58.3508 147.282L58.2236 147.198C58.1661 146.894 58.1784 146.638 58.2133 146.398C58.242 146.156 58.3077 145.936 58.3939 145.733C58.5437 145.306 58.9582 145.064 59.2558 144.74C59.5533 144.416 59.8632 144.099 60.1812 143.79C60.5034 143.484 60.8235 143.176 61.1704 142.883L61.2955 142.971C61.1498 143.398 60.9795 143.808 60.8112 144.221ZM62.5904 140.441L62.4632 140.354C62.3934 140.069 62.3872 139.831 62.4057 139.612C62.418 139.388 62.4652 139.189 62.5288 139C62.6355 138.614 63.007 138.393 63.2553 138.087C63.5036 137.783 63.758 137.479 64.0186 137.176C64.0227 137.17 64.0289 137.163 64.0351 137.159C64.8066 134.763 65.5721 132.362 66.3334 129.961C66.3785 129.718 66.4339 129.478 66.4996 129.244C66.5653 128.988 66.6679 128.748 66.791 128.516C71.0922 114.909 75.3236 101.279 80.5851 88.0284C79.7848 88.8205 79.0255 89.6557 78.3135 90.5196L78.4284 90.4026C78.8491 89.8896 79.3149 89.4115 79.8505 88.9887L78.4284 90.4026C76.325 92.9944 75.5739 96.6287 74.8742 99.99C70.7392 119.862 62.9557 138.969 52.0283 156.075C54.3882 152.373 57.4663 149.361 60.8872 146.671C61.6033 144.563 62.3093 142.454 63.0008 140.338C62.8797 140.383 62.7443 140.42 62.5904 140.441Z" fill="#4B89FC"/>
</g>
<defs>
<clipPath id="clip0_935_744">
<rect width="197" height="197" rx="98.5" fill="white"/>
</clipPath>
</defs>
</svg>
