<svg width="197" height="197" viewBox="0 0 197 197" fill="none" xmlns="http://www.w3.org/2000/svg">
<g clip-path="url(#clip0_935_319)">
<path d="M216.7 -19.7H-19.7002V216.7H216.7V-19.7Z" fill="white"/>
<path d="M216.7 -19.7H-19.7002V216.7H216.7V-19.7Z" fill="#1B16A6"/>
<path d="M50.9717 52.5437H54.7857V56.3577H50.9717V52.5437Z" fill="#F8F2EC"/>
<path d="M58.6006 52.5437H62.4128V56.3577H58.6006V52.5437Z" fill="#F8F2EC"/>
<path d="M66.2266 52.5437H70.0406V56.3577H66.2266V52.5437Z" fill="#F8F2EC"/>
<mask id="mask0_935_319" style="mask-type:luminance" maskUnits="userSpaceOnUse" x="43" y="44" width="111" height="108">
<path d="M43.3398 44.916H153.907V151.694H43.3398V44.916Z" fill="white"/>
</mask>
<g mask="url(#mask0_935_319)">
<path d="M146.312 44.916H50.9708C50.7214 44.916 50.4721 44.9286 50.2227 44.9537C49.9751 44.9788 49.7276 45.0147 49.4836 45.0649C49.2378 45.1134 48.9956 45.1743 48.757 45.2461C48.5184 45.3197 48.2834 45.404 48.0538 45.4991C47.8223 45.5941 47.5963 45.7018 47.3774 45.8202C47.1568 45.9368 46.9433 46.066 46.7352 46.2041C46.5271 46.344 46.328 46.4911 46.1342 46.6508C45.9405 46.8087 45.7557 46.9755 45.5799 47.1531C45.4041 47.3289 45.2354 47.5137 45.0776 47.7075C44.9197 47.8994 44.7708 48.1003 44.6309 48.3084C44.4927 48.5165 44.3635 48.73 44.2469 48.9507C44.1285 49.1695 44.0227 49.3956 43.9258 49.627C43.8307 49.8566 43.7464 50.0917 43.6729 50.3303C43.6011 50.5689 43.5401 50.811 43.4917 51.0568C43.4432 51.3008 43.4056 51.5484 43.3804 51.7959C43.3553 52.0453 43.3428 52.2947 43.3428 52.544V128.817C43.3428 129.066 43.3553 129.316 43.3804 129.565C43.4056 129.813 43.4432 130.06 43.4917 130.304C43.5401 130.55 43.6011 130.792 43.6729 131.031C43.7464 131.269 43.8307 131.504 43.9258 131.736C44.0227 131.965 44.1285 132.191 44.2469 132.41C44.3635 132.631 44.4927 132.844 44.6309 133.053C44.7708 133.261 44.9197 133.462 45.0776 133.654C45.2354 133.847 45.4041 134.032 45.5799 134.208C45.7557 134.386 45.9405 134.552 46.1342 134.71C46.328 134.87 46.5271 135.017 46.7352 135.157C46.9433 135.295 47.1568 135.424 47.3774 135.541C47.5963 135.659 47.8223 135.767 48.0538 135.862C48.2834 135.957 48.5184 136.041 48.757 136.115C48.9956 136.187 49.2378 136.248 49.4836 136.296C49.7276 136.346 49.9751 136.382 50.2227 136.407C50.4721 136.432 50.7214 136.445 50.9708 136.445H84.5918L83.5531 147.885H77.667V151.699H119.618V147.885H113.731L112.691 136.445H146.312C146.563 136.445 146.813 136.432 147.06 136.407C147.309 136.382 147.555 136.346 147.801 136.296C148.045 136.248 148.287 136.187 148.526 136.115C148.764 136.041 148.999 135.957 149.231 135.862C149.46 135.767 149.686 135.659 149.907 135.541C150.126 135.424 150.341 135.295 150.548 135.157C150.756 135.017 150.957 134.87 151.149 134.71C151.342 134.552 151.527 134.386 151.703 134.208C151.881 134.032 152.047 133.847 152.207 133.654C152.365 133.462 152.514 133.261 152.652 133.053C152.792 132.844 152.919 132.631 153.038 132.41C153.154 132.191 153.262 131.965 153.357 131.736C153.454 131.504 153.536 131.269 153.61 131.031C153.682 130.792 153.743 130.55 153.793 130.304C153.841 130.06 153.877 129.813 153.902 129.565C153.927 129.316 153.94 129.066 153.94 128.817V52.544C153.94 52.2947 153.927 52.0453 153.902 51.7959C153.877 51.5484 153.841 51.3008 153.793 51.0568C153.743 50.811 153.682 50.5689 153.61 50.3303C153.536 50.0917 153.454 49.8566 153.357 49.627C153.262 49.3956 153.154 49.1695 153.038 48.9507C152.919 48.73 152.792 48.5165 152.652 48.3084C152.514 48.1003 152.365 47.8994 152.207 47.7075C152.047 47.5137 151.881 47.3289 151.703 47.1531C151.527 46.9755 151.342 46.8087 151.149 46.6508C150.957 46.4911 150.756 46.344 150.548 46.2041C150.341 46.066 150.126 45.9368 149.907 45.8202C149.686 45.7018 149.46 45.5941 149.231 45.4991C148.999 45.404 148.764 45.3197 148.526 45.2461C148.287 45.1743 148.045 45.1134 147.801 45.0649C147.555 45.0147 147.309 44.9788 147.06 44.9537C146.813 44.9286 146.563 44.916 146.312 44.916ZM50.9708 48.73H146.312C146.563 48.73 146.811 48.7551 147.057 48.8036C147.302 48.8538 147.541 48.9256 147.772 49.0206C148.002 49.1175 148.223 49.2341 148.431 49.3741C148.639 49.514 148.831 49.6719 149.008 49.8477C149.186 50.0253 149.344 50.2172 149.482 50.4253C149.622 50.6334 149.739 50.8541 149.835 51.0855C149.93 51.3169 150.004 51.5538 150.052 51.7995C150.101 52.0453 150.126 52.2929 150.126 52.544V60.1703H47.1568V52.544C47.1568 52.2929 47.1819 52.0453 47.2303 51.7995C47.2806 51.5538 47.3523 51.3169 47.4492 51.0855C47.5443 50.8541 47.6627 50.6334 47.8008 50.4253C47.9408 50.2172 48.0986 50.0253 48.2762 49.8477C48.452 49.6719 48.6458 49.514 48.8539 49.3741C49.062 49.2341 49.2809 49.1175 49.5123 49.0206C49.7437 48.9256 49.9823 48.8538 50.2263 48.8036C50.4721 48.7551 50.7196 48.73 50.9708 48.73ZM150.126 63.9843V117.377H47.1568V63.9843H150.126ZM109.901 147.885H87.3815L88.422 136.445H108.861L109.901 147.885ZM146.312 132.631H50.9708C50.7196 132.631 50.4721 132.606 50.2263 132.557C49.9823 132.507 49.7437 132.435 49.5123 132.34C49.2809 132.244 49.062 132.127 48.8539 131.987C48.6458 131.847 48.452 131.689 48.2762 131.513C48.0986 131.336 47.9408 131.144 47.8008 130.936C47.6627 130.728 47.5443 130.507 47.4492 130.276C47.3523 130.044 47.2806 129.807 47.2303 129.562C47.1819 129.316 47.1568 129.068 47.1568 128.817V121.191H150.126V128.817C150.126 129.068 150.101 129.316 150.052 129.562C150.004 129.807 149.93 130.044 149.835 130.276C149.739 130.507 149.622 130.728 149.482 130.936C149.344 131.144 149.186 131.336 149.008 131.513C148.831 131.689 148.639 131.847 148.431 131.987C148.223 132.127 148.004 132.244 147.772 132.34C147.541 132.435 147.302 132.507 147.057 132.557C146.811 132.606 146.563 132.631 146.312 132.631Z" fill="#F8F2EC"/>
</g>
<path d="M96.7373 125.003H100.551V128.817H96.7373V125.003Z" fill="#F8F2EC"/>
<path d="M52.8789 84.959H56.6929V88.773H52.8789V84.959Z" fill="#F8F2EC"/>
<path d="M60.5068 84.959H89.1083V88.773H60.5068V84.959Z" fill="#F8F2EC"/>
<path d="M52.8789 92.5874H56.6929V96.4014H52.8789V92.5874Z" fill="#F8F2EC"/>
<path d="M60.5068 92.5874H110.084V96.4014H60.5068V92.5874Z" fill="#F8F2EC"/>
<path d="M52.8789 100.216H56.6929V104.028H52.8789V100.216Z" fill="#F8F2EC"/>
<path d="M60.5068 100.216H96.7363V104.028H60.5068V100.216Z" fill="#F8F2EC"/>
<path d="M52.8789 107.842H56.6929V111.656H52.8789V107.842Z" fill="#F8F2EC"/>
<path d="M60.5068 107.842H115.805V111.656H60.5068V107.842Z" fill="#F8F2EC"/>
<path d="M53.4368 76.7733L57.2508 80.5873L59.9472 77.891L57.4823 75.426L59.9472 72.9611L57.2508 70.2629L53.4368 74.0769C53.3489 74.1649 53.27 74.2617 53.2 74.3658C53.1301 74.4698 53.0709 74.5793 53.0242 74.6959C52.9758 74.8107 52.9399 74.9309 52.9148 75.0529C52.8915 75.1767 52.8789 75.3004 52.8789 75.426C52.8789 75.5516 52.8915 75.6754 52.9148 75.7974C52.9399 75.9212 52.9758 76.0396 53.0242 76.1544C53.0709 76.271 53.1301 76.3804 53.2 76.4845C53.27 76.5885 53.3489 76.6854 53.4368 76.7733Z" fill="#F8F2EC"/>
<path d="M72.5049 77.891L75.2012 80.5873L79.0152 76.7733C79.1049 76.6854 79.1839 76.5885 79.2538 76.4845C79.322 76.3804 79.3812 76.271 79.4297 76.1544C79.4763 76.0396 79.514 75.9212 79.5373 75.7974C79.5624 75.6754 79.575 75.5516 79.575 75.426C79.575 75.3004 79.5624 75.1767 79.5373 75.0529C79.514 74.9309 79.4763 74.8107 79.4297 74.6959C79.3812 74.5793 79.322 74.4698 79.2538 74.3658C79.1839 74.2617 79.1049 74.1649 79.0152 74.0769L75.2012 70.2629L72.5049 72.9611L74.9716 75.426L72.5049 77.891Z" fill="#F8F2EC"/>
<path d="M62.5107 80.5428L66.3247 69.1025L69.9432 70.3081L66.1292 81.7501L62.5107 80.5428Z" fill="#F8F2EC"/>
<path d="M113.897 92.5874H125.338V96.4014H113.897V92.5874Z" fill="#F8F2EC"/>
<path d="M119.618 107.842H123.432V111.656H119.618V107.842Z" fill="#F8F2EC"/>
<path d="M127.244 107.842H131.058V111.656H127.244V107.842Z" fill="#F8F2EC"/>
<path d="M92.9229 84.959H96.7369V88.773H92.9229V84.959Z" fill="#F8F2EC"/>
</g>
<defs>
<clipPath id="clip0_935_319">
<rect width="197" height="197" rx="98.5" fill="white"/>
</clipPath>
</defs>
</svg>
