<svg width="198" height="197" viewBox="0 0 198 197" fill="none" xmlns="http://www.w3.org/2000/svg">
<g clip-path="url(#clip0_935_711)">
<path d="M217.8 -19.7H-19.7998V216.7H217.8V-19.7Z" fill="white"/>
<path d="M217.8 -19.7H-19.7998V216.7H217.8V-19.7Z" fill="#1E16ED"/>
<mask id="mask0_935_711" style="mask-type:luminance" maskUnits="userSpaceOnUse" x="27" y="16" width="144" height="165">
<path d="M27.7471 16.7573H170.307V180.189H27.7471V16.7573Z" fill="white"/>
</mask>
<g mask="url(#mask0_935_711)">
<path d="M97.4761 16.7759C97.177 16.7862 96.8346 16.8949 96.6469 17.1576L54.4276 67.4193C53.7243 68.2935 53.6768 68.4884 54.6194 68.4987L139.184 68.275C140.347 68.1806 140.351 68.2401 139.599 67.2592L98.1134 16.9996C98.0288 16.8662 97.7751 16.7698 97.4761 16.7759ZM105.582 21.2536L143.651 67.3228C144.163 67.9385 144.287 67.9733 145.184 67.5465L165.256 58.4024C166.572 57.8114 166.388 57.6904 165.512 57.0994L105.58 21.2536H105.582ZM87.8071 22.9363C87.7885 22.8993 87.4791 23.1292 86.7861 23.6032L31.5153 59.7978L48.8114 67.6081C49.7148 67.9056 49.9849 67.92 50.5666 67.1956L87.0419 23.8577C87.5575 23.2646 87.8256 22.9732 87.8091 22.9363H87.8071ZM105.295 41.288C107.737 41.288 109.694 42.1274 111.134 43.7957C112.574 45.4579 113.388 47.8321 113.592 50.9082C113.795 53.9761 113.279 56.3503 112.06 58.0207C110.841 59.6829 109.014 60.4976 106.572 60.4976C104.119 60.4976 102.172 59.6829 100.731 58.0207C99.2911 56.3503 98.4784 53.9761 98.2743 50.9082C98.0701 47.8321 98.5857 45.4579 99.8067 43.7957C101.024 42.1274 102.843 41.288 105.295 41.288ZM89.2426 41.4789C91.4701 41.4789 93.1407 41.9632 94.2214 42.94C95.3104 43.9147 95.7003 45.2588 95.4342 47.0031C95.2795 48.0127 94.8773 48.9526 94.2214 49.8288C93.5656 50.6968 92.293 51.8891 90.3914 53.3543L85.8931 56.8141H94.0606L93.5511 60.3068H80.0211L80.5636 56.8141L88.2546 50.8446C88.9435 50.2987 89.4798 49.7775 89.8489 49.2583C90.2202 48.7371 90.4347 48.1687 90.5193 47.6064C90.6513 46.7384 90.4863 46.0407 89.9768 45.5112C89.4756 44.9818 88.7166 44.7171 87.7431 44.7171C86.9944 44.7171 86.1612 44.9038 85.2228 45.226C84.2843 45.54 83.2675 45.9935 82.1579 46.6214L82.7643 42.5583C83.8986 42.2033 85 41.9468 86.0849 41.7641C87.1677 41.5733 88.2299 41.4789 89.2426 41.4789ZM105.518 44.5591C104.489 44.5591 103.789 45.0372 103.412 45.9873C103.035 46.9292 102.907 48.5627 103.061 50.8774C103.216 53.2168 103.546 54.84 104.049 55.7983C104.555 56.7567 105.318 57.2594 106.347 57.2594C107.37 57.2594 108.077 56.7567 108.455 55.7983C108.83 54.84 108.96 53.2168 108.805 50.8774C108.651 48.5627 108.319 46.9292 107.815 45.9873C107.32 45.0372 106.549 44.5591 105.518 44.5591ZM59.6292 47.1303C60.0706 47.1303 60.382 47.2411 60.5223 47.4792C60.8007 47.9553 60.448 48.8828 59.5013 50.3049C58.5505 51.7332 57.4594 52.948 56.2137 53.9248C54.9659 54.8995 53.5861 55.6321 52.0969 56.1164C51.1317 56.4283 50.4655 56.5104 50.0881 56.338C49.7044 56.1616 49.6178 55.7224 49.8323 55.0678C49.1125 55.825 48.3618 56.4817 47.5656 57.005C46.7716 57.5282 45.961 57.9346 45.1092 58.2116C43.8408 58.622 43.0776 58.5933 42.8755 58.1151C42.6713 57.6391 43.0364 56.7259 43.9274 55.3859C44.8143 54.0561 45.8043 52.9275 46.9283 52.0204C48.0462 51.1134 49.261 50.465 50.5336 50.0504C51.3854 49.7755 51.9794 49.7016 52.3218 49.8596C52.6662 50.0135 52.7466 50.3931 52.5754 50.9718C53.3551 50.1346 54.178 49.4287 55.0649 48.8438C55.9497 48.2569 56.8758 47.7932 57.841 47.4792C58.5856 47.237 59.1858 47.1303 59.6292 47.1303ZM144.802 47.8917C145.561 48.5257 146.262 49.1783 146.908 49.798C147.558 50.4157 148.148 51.0129 148.663 51.608C149.798 52.9131 150.4 53.9289 150.449 54.6553C150.505 55.3859 150.012 55.7593 148.983 55.7655C148.387 55.7655 147.692 55.5931 146.908 55.2894C146.128 54.9857 144.893 54.3639 143.175 53.3851L139.089 51.0683L143.27 55.8619L141.195 55.8927L134.302 47.9553L136.377 47.9245L143.367 51.8932C143.996 52.2462 144.538 52.5191 144.994 52.6874C145.448 52.8556 145.842 52.9439 146.174 52.9418C146.685 52.9418 146.929 52.7489 146.939 52.4021C146.955 52.0574 146.733 51.6059 146.238 51.0354C145.856 50.5963 145.349 50.0956 144.705 49.5744C144.068 49.0552 143.295 48.5175 142.408 47.9245L144.802 47.8937V47.8917ZM56.7871 50.0197C56.5499 50.0422 56.2302 50.0915 55.861 50.2105C55.1164 50.4527 54.4585 50.7892 53.8831 51.1935C53.3014 51.6018 52.8291 52.0656 52.4785 52.5909C52.1258 53.1224 52.0495 53.4836 52.2558 53.6395C52.462 53.7955 52.9549 53.7524 53.6913 53.5123C54.4296 53.2722 55.0855 52.9418 55.6692 52.5273C56.2488 52.1169 56.7211 51.6285 57.0738 51.0991C57.4244 50.5737 57.5007 50.2372 57.2986 50.0833C57.1934 50.0074 57.0243 49.9971 56.7871 50.0197ZM49.8633 52.4329C49.6735 52.4473 49.426 52.4945 49.129 52.5909C48.5309 52.7859 48.007 53.0752 47.5326 53.4179C47.05 53.7627 46.6458 54.1505 46.3529 54.5917C46.0518 55.0432 45.9693 55.3407 46.1281 55.4803C46.291 55.6177 46.687 55.5767 47.2769 55.3859C47.875 55.1909 48.3906 54.9365 48.8733 54.5917C49.3579 54.2408 49.7539 53.8365 50.053 53.3851C50.3479 52.9439 50.4387 52.6648 50.2778 52.5273C50.1974 52.4596 50.0509 52.4186 49.8633 52.4329ZM168.189 60.5612C168.018 60.5735 167.745 60.672 167.327 60.8465L146.712 70.2122C145.98 70.5426 146.027 70.9879 146.298 71.546L170.264 132.029L168.54 61.5749C168.486 60.8054 168.476 60.5386 168.189 60.5592V60.5612ZM29.9498 62.4348L27.7471 130.983L48.0441 71.6712C48.3432 70.795 48.337 70.7519 47.7244 70.4646L29.9498 62.4327V62.4348ZM140.3 71.3244L53.8191 71.546C52.5837 71.5276 52.6332 71.5296 53.2437 72.531L97.1543 146.225C97.8968 147.35 97.8164 147.313 98.5919 146.162L140.778 72.3422C141.147 71.7574 141.411 71.347 140.3 71.3264V71.3244ZM143.746 73.2616C143.668 73.2944 143.579 73.594 143.332 74.0557L100.857 148.415C100.395 149.201 100.283 149.482 101.399 149.304L168.832 140.065C169.901 139.821 169.868 139.441 169.503 138.382L144.068 74.0865C143.901 73.4709 143.829 73.2287 143.748 73.2616H143.746ZM50.4985 73.9593C50.416 74.0188 50.3418 74.3327 50.1788 74.7842L28.6381 137.871C28.273 139.213 28.2297 139.716 29.5971 139.969L94.0234 149.238C95.2424 149.421 95.0856 148.811 94.7907 148.222L50.944 74.6221C50.6676 74.066 50.5789 73.8977 50.4964 73.9552L50.4985 73.9593ZM167.741 74.7842L167.869 77.4211L165.699 78.8166L166.209 88.3752L168.379 86.2471L168.54 88.8512L166.337 90.9464L164.008 92.4383L163.369 80.2776L162.348 80.9138L162.381 81.6751C161.902 81.6094 161.436 81.6382 160.976 81.7387C160.512 81.8475 160.073 82.0322 159.636 82.3092C158.984 82.7217 158.493 83.2019 158.167 83.7703C157.837 84.3408 157.687 84.9584 157.722 85.611C157.755 86.2861 157.953 86.6678 158.328 86.7868C158.697 86.9141 159.229 86.7766 159.922 86.3415L160.912 85.7075L161.04 88.1843L160.019 88.8184C159.403 89.2083 158.932 89.6639 158.646 90.1523C158.359 90.6468 158.231 91.1886 158.264 91.8021C158.293 92.3706 158.464 92.7256 158.774 92.8508C159.083 92.9759 159.514 92.8713 160.05 92.5327C160.446 92.2823 160.834 91.9437 161.232 91.5497C161.628 91.1557 162.026 90.7063 162.412 90.183L162.54 92.978C162.065 93.4951 161.607 93.9363 161.135 94.3426C160.665 94.7489 160.191 95.0998 159.731 95.3912C158.493 96.1731 157.569 96.4624 156.924 96.2162C156.274 95.9781 155.905 95.2291 155.839 93.963C155.793 93.097 155.892 92.2885 156.156 91.5497C156.422 90.8151 156.839 90.1358 157.402 89.549C156.746 89.6967 156.235 89.5674 155.87 89.1365C155.5 88.7138 155.315 88.0243 155.263 87.0413C155.189 85.5741 155.474 84.232 156.156 83.009C156.841 81.7921 157.897 80.7414 159.285 79.8652C159.774 79.5553 160.252 79.2885 160.752 79.1038C160.855 79.0628 160.968 79.0423 161.071 79.0074L161.102 78.9766L167.741 74.7842ZM31.7689 79.9288C32.0928 79.9083 32.4351 80.0129 32.8208 80.2469C33.6726 80.7599 34.2976 81.7223 34.6729 83.1362C34.6956 83.2244 34.7142 83.3291 34.7348 83.4214L34.8627 81.7387L39.4579 84.5008L39.2661 86.8176L37.7667 85.9291L37.0964 94.2482L38.6598 94.5663L38.5009 96.8195L36.9046 96.5342L35.3103 95.5492L36.1724 84.9461L34.8627 84.1827C35.0586 85.3996 35.1226 86.8012 34.9906 88.4059C34.8153 90.5401 34.3924 92.0258 33.7469 92.9144C33.0972 93.807 32.3052 93.965 31.3523 93.3904C31.0512 93.2099 30.7686 92.9882 30.4923 92.7235C30.2159 92.4609 29.9251 92.1551 29.6611 91.8042L29.8529 89.4217C30.1107 89.8485 30.3829 90.2015 30.6181 90.4703C30.8553 90.7453 31.0863 90.9628 31.3214 91.1044C31.8246 91.4081 32.2392 91.363 32.5651 90.9772C32.893 90.5996 33.0993 89.8752 33.2354 88.8184C33.0188 88.9846 32.8023 89.0708 32.5651 89.0729C32.3279 89.0831 32.0659 89.0113 31.7999 88.8512C31.1296 88.447 30.6469 87.7431 30.3004 86.7232C29.9498 85.7013 29.8137 84.546 29.9168 83.2942C30.0303 81.9111 30.3458 80.9323 30.8738 80.3741C31.1378 80.0971 31.4431 79.9514 31.7669 79.9288H31.7689ZM32.2474 82.2456C32.1278 82.2723 32.0164 82.3564 31.9278 82.5C31.7463 82.7914 31.639 83.3004 31.5771 84.0555C31.5153 84.8107 31.5235 85.4325 31.6411 85.8983C31.7545 86.3662 31.9793 86.7027 32.2784 86.8812C32.5733 87.0598 32.8002 86.9818 32.9796 86.6925C33.157 86.4052 33.2684 85.8921 33.3323 85.1349C33.3942 84.3798 33.3818 83.7621 33.2684 83.2942C33.1488 82.8304 32.9569 82.5206 32.662 82.342C32.5114 82.2517 32.365 82.2189 32.2474 82.2456ZM82.9231 86.9449H87.4544V90.3103H95.7188V94.4062L88.2526 105.457H82.9231V93.7721H80.2748V90.3103H82.9231V86.9449ZM98.6228 86.9449H111.61V90.2467H107.399V102.219L111.738 101.328V104.568L107.399 105.457H102.834V90.2487H98.6228V86.9449ZM87.4544 93.7721V101.55L92.7199 93.7721H87.4544ZM55.3825 107.773L58.3834 111.839L56.9789 112.758C57.1954 112.807 57.3955 112.844 57.6162 112.918C59.3796 113.509 61.0008 114.816 62.4672 116.79C64.0842 118.968 64.7359 121.024 64.4142 123.014C64.0801 125.001 62.7828 126.729 60.5532 128.19C58.2659 129.688 55.9662 130.186 53.6273 129.651C51.2781 129.109 49.2115 127.605 47.4048 125.173C46.8334 124.404 46.3137 123.646 45.8723 122.856C45.433 122.064 45.0535 121.252 44.7235 120.41L47.2769 118.728C47.5264 119.62 47.8338 120.427 48.1699 121.141C48.502 121.859 48.8753 122.512 49.3188 123.109C50.2758 124.395 51.3194 125.194 52.4476 125.522C53.5675 125.856 54.739 125.719 55.9889 125.079C55.3206 124.783 54.7143 124.381 54.1388 123.903C53.5551 123.429 53.0168 122.838 52.5115 122.157C51.2389 120.443 50.6099 118.793 50.6594 117.203C50.7048 115.606 51.3936 114.367 52.7343 113.489C53.1055 113.246 53.4953 113.064 53.8831 112.918L51.8082 110.123L55.3825 107.773ZM136.82 113.649L140.298 116.314L145.85 129.269L143.074 133.365L133.054 125.744L131.681 127.777L128.713 125.522L130.117 123.458L127.213 121.268L129.608 117.775L132.479 119.998L136.818 113.649H136.82ZM57.775 116.854C57.2346 116.891 56.6592 117.123 56.0508 117.521C55.2423 118.052 54.7968 118.623 54.6792 119.267C54.5493 119.91 54.7514 120.632 55.3186 121.395C55.8796 122.15 56.5086 122.581 57.1996 122.696C57.8802 122.807 58.6248 122.592 59.4333 122.062C60.2438 121.531 60.7079 120.956 60.8378 120.316C60.9574 119.671 60.7615 118.943 60.2005 118.188C59.6333 117.424 58.996 116.998 58.3174 116.887C58.1442 116.858 57.9544 116.842 57.775 116.854ZM138.19 118.221L135.447 122.253L142.084 127.332L138.19 118.221ZM33.7428 143.652L96.9625 179.34C97.7813 179.832 97.9711 179.654 97.8556 178.8L96.5149 153.781C96.4778 152.973 96.3685 152.644 95.527 152.511L33.7469 143.652H33.7428ZM164.452 143.716L100.275 152.542C99.4272 152.665 99.5819 153.079 99.5736 153.685L100.945 179.149C101.015 179.921 100.993 180.198 101.935 179.72L164.452 143.716ZM124.274 154.701L128.966 159.876L132.636 157.717L133.656 158.86L124.018 164.542L122.455 165.464L112.819 171.148L111.798 170.036L115.467 167.877L111.734 163.814L108.288 166.321L107.267 165.209L110.713 162.734L114.638 160.416L119.361 165.591L121.434 164.354L122.997 163.432L125.072 162.193L121.37 158.13L117.893 160.637L116.903 159.527L120.349 157.017L124.274 154.701ZM82.0878 155.462C83.3294 155.519 84.4493 155.946 85.5012 156.732C86.6706 157.606 87.1636 158.548 86.9697 159.591C86.7758 160.631 85.9096 161.674 84.3854 162.702C83.4779 163.313 82.5415 163.732 81.6093 164.003L82.6941 164.83L80.2356 166.479L78.0659 164.86L78.8641 164.321C77.5049 164.232 76.2777 163.789 75.1619 162.956C74.7432 162.642 74.3616 162.336 74.0461 162.004C73.7243 161.674 73.4521 161.318 73.2169 160.955L74.9721 159.781C75.1578 160.18 75.3661 160.514 75.6094 160.828C75.8569 161.14 76.1436 161.44 76.4716 161.686C77.1584 162.201 77.9194 162.464 78.7053 162.48C79.4952 162.492 80.2975 162.236 81.1617 161.749C80.6791 161.688 80.2356 161.591 79.8211 161.431C79.4086 161.273 79.0332 161.066 78.6723 160.797C77.7565 160.112 77.3007 159.344 77.3007 158.542C77.311 157.74 77.7813 157.038 78.7053 156.414C79.7241 155.727 80.8503 155.411 82.0878 155.462ZM82.6302 157.368C82.1455 157.403 81.6484 157.6 81.0978 157.972C80.5429 158.345 80.2171 158.708 80.1408 159.051C80.0686 159.39 80.248 159.701 80.6523 160.003C81.0544 160.305 81.4814 160.448 81.9599 160.416C82.4425 160.379 82.9684 160.155 83.5233 159.781C84.0739 159.41 84.373 159.074 84.4493 158.733C84.5236 158.392 84.3751 158.052 83.9708 157.748C83.5666 157.446 83.1128 157.331 82.6302 157.368Z" fill="#FFF9F3"/>
</g>
</g>
<defs>
<clipPath id="clip0_935_711">
<rect width="198" height="197" rx="98.5" fill="white"/>
</clipPath>
</defs>
</svg>
