<svg width="197" height="197" viewBox="0 0 197 197" fill="none" xmlns="http://www.w3.org/2000/svg">
<g clip-path="url(#clip0_935_347)">
<path d="M216.7 -19.7H-19.7002V216.7H216.7V-19.7Z" fill="white"/>
<path d="M216.7 -19.7H-19.7002V216.7H216.7V-19.7Z" fill="#94B9FF"/>
<path d="M131.471 87.2061C129.797 88.2585 149.477 130.087 151.068 129.303C153.122 128.76 133.136 86.1556 131.471 87.2061Z" fill="#1B16A6"/>
<path d="M162.367 129.761C162.271 131.56 150.791 130.562 150.71 128.952C150.543 128.013 162.464 127.97 162.367 129.761Z" fill="#1B16A6"/>
<path d="M78.5868 107.455C80.7502 107.179 84.1474 93.9964 82.2637 94.0455C81.215 93.9416 76.4234 107.727 78.5868 107.455Z" fill="#1B16A6"/>
<path d="M78.9941 106.833C78.9941 104.239 63.4101 99.7553 63.172 101.992C62.8754 103.237 78.9808 109.416 78.9941 106.833Z" fill="#1B16A6"/>
<path d="M63.7706 101.573C62.4234 100.454 43.138 132.902 44.2717 134.05C47.034 132.484 65.1083 102.688 63.7706 101.573Z" fill="#1B16A6"/>
<path d="M35.2239 133.74C35.1672 132.295 44.4405 132.437 44.6257 133.723C44.826 134.464 35.2787 135.18 35.2239 133.74Z" fill="#1B16A6"/>
<path d="M100.149 87.9315C98.397 88.8592 114.639 132.114 116.292 131.47C118.363 130.903 101.894 87.0208 100.149 87.9315Z" fill="#1B16A6"/>
<path d="M125.158 133.021C124.905 134.443 115.889 132.342 115.966 131.046C115.93 130.281 125.41 131.6 125.158 133.021Z" fill="#1B16A6"/>
<path d="M15.7089 71.1797C12.7142 69.944 30.0969 68.0187 38.6484 65.2507C48.0049 62.2238 61.5275 76.2188 61.5275 76.2188C61.5275 76.2188 61.0551 78.01 59.9272 77.4148C58.7992 76.8178 47.0998 66.0971 41.2388 66.7339C38.6125 67.0211 19.6578 72.8273 15.7089 71.1797Z" fill="#1B16A6"/>
<path d="M80.6968 77.1485C73.9327 69.2091 59.3293 75.8599 57.011 79.7257C54.6945 83.5915 45.2058 94.7296 51.3862 97.0517C57.5646 99.3757 67.0193 98.8788 72.7839 97.7565C82.0553 95.9653 84.5021 81.6227 80.6968 77.1485Z" fill="#1869FF"/>
<path d="M81.9355 86.8619C82.2718 83.9994 93.0566 76.7629 99.9096 81.4184C106.763 86.074 106.014 90.943 105.61 93.5202C105.206 96.0974 102.258 106.627 89.4459 103.621C76.6318 100.615 81.9355 86.8619 81.9355 86.8619Z" fill="#1869FF"/>
<path d="M104.691 91.9676C104.691 91.9676 102.945 85.2166 131.736 79.8998C154.774 75.641 170.934 95.4554 169.791 103.826C168.977 109.781 157.264 118.826 130.442 115.81C121.192 114.769 101.812 101.384 104.691 91.9676Z" fill="#1869FF"/>
<path d="M91.8205 104.156C93.2262 105.543 101.568 95.9991 100.45 94.6292C99.8865 93.7393 90.4167 102.761 91.8205 104.156Z" fill="#1B16A6"/>
<path d="M100.356 94.5842C98.4491 95.1057 105.128 140.845 106.88 140.558C109.028 140.456 102.254 94.0609 100.356 94.5842Z" fill="#1B16A6"/>
<path d="M115.216 143.953C114.67 145.291 106.29 141.321 106.655 140.076C106.782 139.318 115.779 142.617 115.216 143.953Z" fill="#1B16A6"/>
<path d="M88.8438 110.14C90.1816 108.407 83.2266 96.706 81.938 98.0909C81.1218 98.7446 87.508 111.867 88.8438 110.14Z" fill="#1B16A6"/>
<path d="M88.7283 110.158C88.9229 107.575 73.6771 102.017 73.2803 104.231C72.8986 105.45 88.5374 112.735 88.7283 110.158Z" fill="#1B16A6"/>
<path d="M73.713 103.778C72.1164 103.072 62.1497 139.464 63.5649 140.271C65.7925 138.026 75.3039 104.494 73.713 103.778Z" fill="#1B16A6"/>
<path d="M54.7129 142.49C54.2727 141.113 63.2494 138.783 63.7671 139.976C64.1582 140.637 55.1475 143.853 54.7129 142.49Z" fill="#1B16A6"/>
<path d="M99.0577 103.402C103.454 103.788 127.939 93.9683 124.393 93.4809C122.596 93.1011 94.6761 103.015 99.0577 103.402Z" fill="#1B16A6"/>
<path d="M124.164 93.4938C122.381 94.3459 137.094 138.166 138.768 137.568C140.869 137.26 125.94 92.6303 124.164 93.4938Z" fill="#1B16A6"/>
<path d="M149.937 139.323C149.629 141.098 138.345 138.783 138.451 137.162C138.394 136.221 150.241 137.557 149.937 139.323Z" fill="#1B16A6"/>
<path d="M35.2295 52.5067C34.9215 51.8265 49.164 54.6682 58.3126 55.1689C68.6535 55.747 72.0431 77.5624 72.0431 77.5624C72.0431 77.5624 70.5901 78.7149 70.046 77.5624C69.5018 76.4098 65.0107 58.5056 59.7486 57.4192C57.1601 56.8845 37.0963 56.4461 35.2295 52.5067Z" fill="#1B16A6"/>
<path d="M66.8508 83.7481C66.2235 83.3551 65.5395 83.1322 64.8007 83.0831C64.0922 83.0566 63.4328 83.2267 62.8263 83.5913C62.2122 83.9673 61.67 84.4283 61.1938 84.9687C60.7026 85.5053 60.268 86.0986 59.7881 86.6956C60.0413 85.972 60.3889 85.2975 60.8292 84.6721C61.2826 84.0202 61.8476 83.4874 62.5259 83.0755C62.8773 82.8715 63.2514 82.726 63.6482 82.6428C63.9392 82.5824 64.2339 82.5616 64.5305 82.5805C64.8272 82.5994 65.1163 82.6579 65.3978 82.7562C65.6793 82.8526 65.9438 82.9867 66.1895 83.1549C66.4351 83.323 66.6524 83.5214 66.8451 83.7481H66.8508Z" fill="#1B16A6"/>
<path d="M63.6401 85.6359C63.6401 87.1814 62.822 88.4417 61.8112 88.4417C60.9439 88.4417 60.2203 87.514 60.0332 86.2783C60.959 84.6572 61.917 83.7446 62.7937 83.2722C63.0827 83.5972 63.3 83.9637 63.4455 84.3719C63.5929 84.7819 63.6571 85.2032 63.6401 85.6359Z" fill="#1B16A6"/>
<path d="M147.108 84.7644C147.5 84.7946 147.881 84.8721 148.253 84.993C148.616 85.1064 148.969 85.2443 149.313 85.4068C149.659 85.5674 149.99 85.7526 150.309 85.9604C150.64 86.1701 150.944 86.4139 151.216 86.6954C150.825 86.6652 150.443 86.5915 150.071 86.4706C149.342 86.2382 148.658 85.9151 148.015 85.4994C147.685 85.2897 147.382 85.044 147.108 84.7644Z" fill="#1B16A6"/>
<path d="M153.179 84.7644C153.613 84.9099 154.031 85.0951 154.43 85.3237C154.819 85.5447 155.197 85.7866 155.561 86.0492C155.924 86.3137 156.27 86.5971 156.599 86.9032C156.942 87.2093 157.25 87.5475 157.524 87.9197C157.094 87.7743 156.682 87.5853 156.289 87.3567C155.506 86.9146 154.787 86.3893 154.127 85.7771C153.776 85.4729 153.46 85.1347 153.179 84.7644Z" fill="#1B16A6"/>
<path d="M155.348 88.4417C155.771 88.6306 156.173 88.8592 156.551 89.1275C156.925 89.3864 157.282 89.666 157.624 89.9645C157.965 90.2649 158.288 90.5824 158.592 90.9187C158.905 91.2607 159.183 91.6291 159.425 92.0259C159.002 91.8388 158.599 91.6102 158.22 91.3419C157.847 91.0831 157.49 90.8034 157.152 90.503C156.81 90.2045 156.487 89.8871 156.181 89.5507C155.867 89.2069 155.59 88.8384 155.348 88.4417Z" fill="#1B16A6"/>
<path d="M115.967 105.153C116.358 105.299 116.728 105.484 117.08 105.709C117.422 105.928 117.75 106.166 118.062 106.425C118.374 106.684 118.667 106.962 118.943 107.256C119.232 107.56 119.483 107.889 119.697 108.248C119.305 108.105 118.935 107.919 118.584 107.693C118.242 107.474 117.915 107.235 117.601 106.977C117.289 106.716 116.997 106.438 116.721 106.141C116.433 105.839 116.182 105.51 115.967 105.153Z" fill="#1B16A6"/>
<path d="M120.565 106.021C120.917 106.081 121.255 106.183 121.58 106.33C121.894 106.47 122.196 106.635 122.483 106.822C122.772 107.007 123.046 107.213 123.305 107.439C123.575 107.674 123.813 107.938 124.016 108.233C123.664 108.173 123.326 108.071 122.999 107.925C122.685 107.783 122.385 107.621 122.098 107.434C121.807 107.247 121.533 107.041 121.276 106.816C121.006 106.58 120.768 106.315 120.565 106.021Z" fill="#1B16A6"/>
<path d="M94.541 81.0347C94.9038 81.0555 95.2571 81.1216 95.6048 81.2293C95.9392 81.3332 96.2661 81.4598 96.5835 81.6091C96.9009 81.7583 97.2032 81.9303 97.4942 82.1268C97.8003 82.3251 98.0742 82.5613 98.3199 82.8296C97.9571 82.8088 97.6019 82.7446 97.2542 82.635C96.9179 82.5349 96.5929 82.4083 96.2774 82.2552C95.9619 82.1098 95.6577 81.9435 95.3667 81.7527C95.0606 81.5486 94.7848 81.3086 94.541 81.0347Z" fill="#1B16A6"/>
<path d="M96.1162 84.1602C96.4015 84.2301 96.6698 84.3415 96.9192 84.4965C97.401 84.7799 97.8129 85.1427 98.1549 85.5829C98.3382 85.8134 98.4837 86.0666 98.5876 86.3406C98.3023 86.2725 98.034 86.1611 97.7846 86.0061C97.5465 85.8663 97.3217 85.7019 97.1138 85.5187C96.906 85.3297 96.717 85.1238 96.5451 84.9008C96.3656 84.676 96.222 84.4285 96.1162 84.1602Z" fill="#1B16A6"/>
</g>
<defs>
<clipPath id="clip0_935_347">
<rect width="197" height="197" rx="98.5" fill="white"/>
</clipPath>
</defs>
</svg>
