<svg width="197" height="197" viewBox="0 0 197 197" fill="none" xmlns="http://www.w3.org/2000/svg">
<g clip-path="url(#clip0_935_793)">
<path d="M216.7 -19.7H-19.7002V216.7H216.7V-19.7Z" fill="white"/>
<path d="M216.7 -19.7H-19.7002V216.7H216.7V-19.7Z" fill="#1B16A6"/>
<path d="M33.646 124.818L26.6176 125.28C26.3857 125.309 26.2996 125.569 26.4432 125.715C29.3079 128.549 48.0804 145.123 94.1291 141.132C128.84 138.124 146.139 131.122 153.543 127.073C155.655 125.916 155.423 122.879 153.168 122.04C142.32 118.02 115.534 109.487 88.923 111.424C57.3353 113.739 30.8695 119.756 26.6464 120.739C26.4145 120.796 26.3283 121.114 26.5294 121.26C27.8325 122.214 31.6206 124.759 36.0757 125.309" fill="#94B9FF"/>
<path d="M51.3779 116.082L52.129 118.395L72.9269 118.773H103.647L119.497 118.165L134.452 116.312C134.452 116.312 116.17 112.407 113.191 112.148C110.213 111.888 93.8396 110.903 87.1581 111.424C80.4765 111.945 67.3144 113.653 67.3144 113.653L51.3779 116.082Z" fill="#4B89FC"/>
<path d="M65.4923 133.987C66.1305 134.797 65.7529 136.012 64.77 136.302C59.0713 138.036 53.7482 136.302 50.8568 134.97C49.9026 134.537 49.6995 133.264 50.4218 132.511C51.926 131.007 52.794 128.809 53.229 127.363C53.4897 126.552 54.3577 126.09 55.1375 126.351C60.1712 127.999 63.7583 131.789 65.4923 133.987ZM50.51 116.082L41.5137 117.673L30.5802 119.813L26.6464 120.739C26.6464 120.739 26.5581 121.085 27.0219 121.549C28.1793 122.676 32.4312 124.5 32.9524 124.615C32.778 124.644 32.228 124.73 31.6493 124.904C30.9557 125.136 29.3654 125.107 29.3654 125.107C29.3654 125.107 45.0433 130.864 48.3984 128.056C51.7823 125.222 50.51 116.082 50.51 116.082ZM161.411 126.64C160.022 125.744 159.935 123.718 161.267 122.706L168.932 116.891C169.683 116.226 169.307 114.982 168.296 114.896C161.786 114.289 146.543 119.756 146.543 119.756L150.013 121.057L153.168 122.04C153.168 122.04 154.672 123.226 154.873 123.747C155.076 124.268 154.873 125.715 154.325 126.437C153.775 127.159 148.77 129.388 148.77 129.388C148.77 129.388 169.714 136.273 170.436 134.391C170.928 133.09 165.084 129.041 161.411 126.64ZM96.7332 104.078C90.1665 104.164 76.4566 112.553 76.4566 112.553C76.4566 112.553 81.4308 112.235 83.2531 111.917C85.0753 111.599 97.1375 111.192 97.1375 111.192C98.5842 110.355 99.366 109.401 99.7416 108.504C100.638 106.362 99.048 104.049 96.7332 104.078Z" fill="#4B89FC"/>
<path d="M44.0586 119.177C44.0586 119.48 44.0299 119.782 43.9704 120.08C43.9109 120.377 43.8226 120.667 43.7077 120.948C43.5907 121.229 43.4491 121.496 43.2788 121.748C43.1105 122 42.9197 122.234 42.7042 122.45C42.4888 122.663 42.2548 122.856 42.0024 123.024C41.75 123.193 41.4832 123.336 41.2021 123.453C40.921 123.568 40.6316 123.656 40.3341 123.716C40.0365 123.775 39.7349 123.804 39.4312 123.804C39.1275 123.804 38.8258 123.775 38.5282 123.716C38.2307 123.656 37.9413 123.568 37.6602 123.453C37.3791 123.336 37.1123 123.193 36.8599 123.024C36.6075 122.856 36.3736 122.663 36.1581 122.45C35.9447 122.234 35.7518 122 35.5835 121.748C35.4152 121.496 35.2716 121.229 35.1546 120.948C35.0397 120.667 34.9515 120.377 34.892 120.08C34.8324 119.782 34.8037 119.48 34.8037 119.177C34.8037 118.873 34.8324 118.571 34.892 118.274C34.9515 117.976 35.0397 117.687 35.1546 117.406C35.2716 117.125 35.4152 116.858 35.5835 116.606C35.7518 116.353 35.9447 116.119 36.1581 115.904C36.3736 115.688 36.6075 115.497 36.8599 115.329C37.1123 115.159 37.3791 115.017 37.6602 114.9C37.9413 114.785 38.2307 114.697 38.5282 114.638C38.8258 114.578 39.1275 114.549 39.4312 114.549C39.7349 114.549 40.0365 114.578 40.3341 114.638C40.6316 114.697 40.921 114.785 41.2021 114.9C41.4832 115.017 41.75 115.159 42.0024 115.329C42.2548 115.497 42.4888 115.688 42.7042 115.904C42.9197 116.119 43.1105 116.353 43.2788 116.606C43.4491 116.858 43.5907 117.125 43.7077 117.406C43.8226 117.687 43.9109 117.976 43.9704 118.274C44.0299 118.571 44.0586 118.873 44.0586 119.177Z" fill="#FFF9F3"/>
<path d="M40.7916 118.395C40.7916 119.669 39.7492 120.71 38.4769 120.71C37.2046 120.71 36.1621 119.669 36.1621 118.395C36.1621 117.123 37.2046 116.082 38.4769 116.082C39.7492 116.082 40.7916 117.123 40.7916 118.395ZM48.8317 119.409C48.8891 118.945 48.6306 118.541 48.2243 118.483C47.82 118.424 47.4445 118.742 47.385 119.177C47.3275 119.639 47.5881 120.045 47.9924 120.102C48.3987 120.16 48.7742 119.842 48.8317 119.409ZM46.1701 121.085C45.7659 121.028 45.3903 121.346 45.3329 121.781C45.2734 122.243 45.534 122.647 45.9403 122.706C46.3445 122.764 46.7201 122.446 46.7775 122.011C46.837 121.549 46.5764 121.143 46.1701 121.085ZM48.8891 121.492C48.4849 121.432 48.1093 121.75 48.0519 122.185C47.9924 122.647 48.253 123.053 48.6593 123.111C49.0636 123.168 49.4391 122.85 49.4965 122.417C49.5561 121.953 49.2667 121.549 48.8891 121.492ZM117.878 131.093C117.474 131.036 117.096 131.354 117.039 131.789C116.981 132.251 117.242 132.657 117.646 132.714C118.05 132.772 118.428 132.454 118.486 132.019C118.543 131.557 118.254 131.153 117.878 131.093ZM122.824 133.494C122.419 133.437 122.044 133.755 121.986 134.19C121.927 134.652 122.188 135.056 122.594 135.115C122.998 135.173 123.374 134.855 123.431 134.42C123.489 133.987 123.23 133.554 122.824 133.494ZM111.775 133.494C111.369 133.437 110.993 133.755 110.936 134.19C110.878 134.652 111.139 135.056 111.543 135.115C111.948 135.173 112.325 134.855 112.383 134.42C112.44 133.987 112.179 133.554 111.775 133.494ZM101.418 112.785C101.014 112.727 100.639 113.045 100.581 113.478C100.522 113.942 100.782 114.346 101.189 114.404C101.593 114.461 101.968 114.143 102.026 113.71C102.085 113.275 101.825 112.871 101.418 112.785ZM94.2463 116.054C93.84 115.994 93.4645 116.312 93.407 116.747C93.3496 117.209 93.6102 117.615 94.0144 117.673C94.4187 117.73 94.7942 117.412 94.8537 116.979C94.9112 116.544 94.6506 116.111 94.2463 116.054ZM92.1347 112.785C91.7284 112.727 91.3529 113.045 91.2954 113.478C91.238 113.942 91.4986 114.346 91.9029 114.404C92.3071 114.461 92.6826 114.143 92.7422 113.71C92.7996 113.275 92.539 112.871 92.1347 112.785ZM87.0148 115.446C86.6085 115.387 86.2329 115.705 86.1755 116.14C86.118 116.601 86.3786 117.008 86.7829 117.065C87.1872 117.123 87.5627 116.805 87.6222 116.372C87.6797 115.937 87.419 115.504 87.0148 115.446ZM80.2162 114.432C79.812 114.375 79.4364 114.693 79.3769 115.126C79.3195 115.59 79.5801 115.994 79.9843 116.054C80.3907 116.111 80.7662 115.793 80.8237 115.358C80.8811 114.896 80.6225 114.49 80.2162 114.432ZM85.9723 122.3C85.5681 122.243 85.1925 122.561 85.133 122.996C85.0756 123.457 85.3362 123.862 85.7404 123.921C86.1468 123.979 86.5223 123.661 86.5797 123.226C86.668 122.764 86.3786 122.358 85.9723 122.3ZM93.9857 122.676C93.5794 122.618 93.2039 122.936 93.1464 123.371C93.089 123.833 93.3496 124.239 93.7538 124.297C94.1581 124.354 94.5357 124.036 94.5931 123.603C94.6506 123.139 94.39 122.735 93.9857 122.676ZM45.6509 124.701C45.2446 124.644 44.8691 124.962 44.8116 125.395C44.7542 125.858 45.0148 126.263 45.4191 126.322C45.8233 126.38 46.1988 126.062 46.2584 125.626C46.3158 125.165 46.0265 124.758 45.6509 124.701Z" fill="#1B16A6"/>
<mask id="mask0_935_793" style="mask-type:luminance" maskUnits="userSpaceOnUse" x="26" y="103" width="146" height="40">
<path d="M26.0391 103.788H171.031V142.365H26.0391V103.788Z" fill="white"/>
</mask>
<g mask="url(#mask0_935_793)">
<path d="M55.2527 126.119C54.791 125.973 54.2985 126.002 53.8655 126.234C53.4305 126.466 53.1124 126.842 52.9975 127.305C52.1582 130.024 51.0603 131.557 50.2498 132.337C49.8455 132.743 49.6423 133.351 49.7572 133.929C49.8742 134.508 50.221 134.97 50.771 135.23C52.7081 136.127 56.0346 137.313 59.8535 137.313C61.4439 137.313 63.1512 137.11 64.8852 136.591C65.4352 136.417 65.8702 135.984 66.0426 135.462C66.217 134.912 66.1 134.305 65.7532 133.872C63.9885 131.643 60.3152 127.767 55.2527 126.119ZM65.4926 135.259C65.4926 135.288 65.4926 135.288 65.4639 135.317C63.3236 136.012 60.5184 135.635 58.5504 135.202C55.8314 134.594 53.4613 133.64 52.2752 132.975C51.4646 132.54 51.204 132.28 51.1178 132.165C51.522 131.672 51.8976 131.122 52.1869 130.574C52.7656 130.979 54.2698 132.019 56.2952 133.004C58.2919 133.958 61.1545 134.999 64.1342 134.999C64.5959 134.999 65.0596 134.97 65.5214 134.912C65.5521 134.999 65.5214 135.144 65.4926 135.259ZM53.49 127.449C53.5762 127.131 53.8081 126.87 54.0974 126.698C54.3868 126.552 54.7336 126.523 55.0516 126.612C59.3897 128.028 62.6587 131.122 64.5384 133.293C59.7078 132.743 53.7198 128.173 53.3156 127.855C53.4018 127.71 53.4613 127.595 53.49 127.449ZM53.1719 128.403C53.6624 128.781 55.1665 129.879 57.1058 131.007C60.2003 132.801 62.8906 133.784 65.0596 133.901C65.1458 133.987 65.2033 134.102 65.2915 134.19C65.349 134.247 65.4064 134.334 65.4352 134.42C62.1375 134.797 58.811 133.611 56.5558 132.54C54.5017 131.557 52.94 130.486 52.4475 130.11C52.7369 129.503 52.9688 128.924 53.1719 128.403ZM50.9721 134.709C50.5966 134.537 50.3359 134.219 50.2785 133.812C50.1923 133.408 50.3359 133.004 50.6253 132.686C50.6827 132.626 50.7115 132.598 50.771 132.54C50.8572 132.657 50.9721 132.743 51.1465 132.858C52.1007 133.583 54.5017 134.68 57.51 135.462C59.6503 136.012 61.329 136.185 62.6587 136.185C63.5267 136.185 64.2203 136.098 64.7703 136.012C64.7416 136.012 64.7416 136.041 64.7128 136.041C59.0142 137.775 53.6624 135.953 50.9721 134.709ZM38.4769 120.971C39.8949 120.971 41.0503 119.813 41.0503 118.395C41.0503 116.979 39.8949 115.822 38.4769 115.822C37.059 115.822 35.9016 116.979 35.9016 118.395C35.9016 119.813 37.059 120.971 38.4769 120.971ZM38.4769 116.341C39.6056 116.341 40.5311 117.269 40.5311 118.395C40.5311 119.524 39.6056 120.449 38.4769 120.449C37.3483 120.449 36.4228 119.524 36.4228 118.395C36.4228 117.269 37.3483 116.341 38.4769 116.341ZM167.66 130.718C165.749 129.185 163.291 127.537 161.557 126.409C160.978 126.033 160.601 125.395 160.601 124.701C160.572 124.008 160.89 123.343 161.44 122.936L169.076 117.123C169.511 116.747 169.683 116.169 169.511 115.619C169.336 115.069 168.875 114.693 168.325 114.664C165.606 114.404 161.093 115.157 154.933 116.862C150.738 118.048 147.151 119.292 146.573 119.495C141.249 117.759 134.568 115.851 127.047 114.289C116.836 112.149 107.146 111.02 98.092 110.934C99.0175 110.267 99.6557 109.487 100.031 108.619C100.493 107.548 100.378 106.362 99.7419 105.379C99.1058 104.396 98.0058 103.817 96.8485 103.817C96.8197 103.817 96.8197 103.817 96.791 103.817C94.0145 103.846 89.7339 105.293 84.064 108.098C80.1301 110.066 76.8324 112.032 76.4282 112.292C63.4098 113.653 51.9571 115.504 43.8862 116.95C43.0757 115.358 41.4278 114.26 39.5174 114.26C36.9728 114.26 34.8612 116.226 34.658 118.742C30.5231 119.581 27.7158 120.246 26.6754 120.478C26.4723 120.535 26.2999 120.681 26.2404 120.913C26.1829 121.114 26.2691 121.346 26.4435 121.461C27.4265 122.185 29.5976 123.632 32.3453 124.644L26.5892 125.019C26.3861 125.019 26.2116 125.165 26.1255 125.366C26.0393 125.569 26.0967 125.772 26.2404 125.916C27.6584 127.334 33.1251 132.222 44.0012 136.242C50.1636 138.528 57.0463 140.147 64.5097 141.073C69.5147 141.711 74.807 141.998 80.3333 141.998C84.815 141.998 89.4445 141.797 94.1869 141.391C109.489 140.061 122.941 137.835 134.192 134.738C140.47 133.004 145.271 131.239 148.828 129.677C149.552 129.907 154.411 131.5 159.3 132.858C165.084 134.479 167.949 134.97 169.365 134.97C170.321 134.97 170.611 134.738 170.726 134.479C170.957 133.784 170.032 132.626 167.66 130.718ZM154.383 126.813C154.787 127.016 155.801 127.537 157.13 127.97C158.171 128.288 159.56 128.606 161.007 128.606C161.758 128.606 162.54 128.52 163.291 128.317L163.262 128.202C164.709 129.185 165.866 130.024 166.763 130.718C162.829 131.557 154.643 128.809 152.386 128.028C152.85 127.796 153.283 127.566 153.689 127.334C153.948 127.188 154.18 127.016 154.383 126.813ZM161.267 126.87C161.815 127.219 162.337 127.566 162.8 127.884C159.445 128.635 155.741 126.899 154.73 126.38C155.105 125.83 155.308 125.194 155.251 124.5H160.022C160.022 124.558 160.022 124.644 160.022 124.701C160.081 125.598 160.514 126.38 161.267 126.87ZM161.093 122.503C160.601 122.879 160.254 123.4 160.11 123.979H155.191C155.019 123.197 154.526 122.532 153.833 122.099C155.279 121.578 159.3 120.392 163.118 120.971L161.093 122.503ZM153.168 121.781C152.503 121.549 151.807 121.289 151.085 121.028C151.953 120.595 153.862 119.698 156.205 118.945C161.239 117.355 164.795 117.527 167.024 118.02L163.697 120.535C158.953 119.61 153.948 121.461 153.168 121.781ZM168.267 115.186C168.7 115.214 168.932 115.532 169.018 115.793C169.106 116.054 169.076 116.429 168.758 116.719L167.571 117.615C163.551 116.544 159.096 117.47 156.059 118.424C153.139 119.349 150.911 120.507 150.42 120.767C149.466 120.449 148.452 120.102 147.412 119.756C150.506 118.684 162.712 114.636 168.267 115.186ZM133.209 116.226C122.419 118.194 101.593 118.627 85.7118 118.627C85.5969 118.627 85.482 118.627 85.365 118.627C68.7616 118.627 54.1836 118.194 52.3326 118.135C52.1582 117.47 51.9571 116.805 51.7252 116.169C61.8194 114.519 74.8645 112.756 88.9808 111.714C89.8201 111.656 90.6594 111.599 91.5274 111.57L91.5561 111.599L91.5849 111.57C102.403 111.049 114.291 112.149 126.932 114.808C129.072 115.243 131.184 115.734 133.209 116.226ZM97.0804 110.903C95.4613 110.903 93.8688 110.934 92.2785 110.991C93.4071 110.238 94.94 109.516 96.791 108.88C97.9771 108.473 99.0483 108.184 99.5962 108.04C99.5675 108.155 99.5387 108.272 99.4813 108.358C99.077 109.37 98.2665 110.209 97.0804 110.903ZM99.7132 107.49C98.642 107.751 93.9284 108.937 91.3243 111.049C90.5137 111.077 89.7052 111.135 88.8946 111.192C88.4903 111.223 88.1127 111.252 87.7085 111.281C91.6711 108.358 98.6133 106.68 99.5962 106.45C99.7132 106.768 99.7419 107.144 99.7132 107.49ZM99.2494 105.668C99.3069 105.754 99.3664 105.843 99.4238 105.957C98.8164 106.103 96.9654 106.565 94.7656 107.289C91.2381 108.504 88.5478 109.863 86.783 111.338C85.7713 111.424 84.7576 111.51 83.7459 111.599C88.5191 107.404 97.224 105.032 98.2665 104.743C98.642 104.975 98.9888 105.264 99.2494 105.668ZM84.2364 108.59C88.1127 106.68 93.3784 104.396 96.7336 104.338C96.9654 104.338 97.1953 104.367 97.4272 104.425C96.4155 104.714 94.5358 105.293 92.4242 106.103C89.502 107.258 85.482 109.14 82.8779 111.656C81.1131 111.8 79.3483 111.974 77.6143 112.149C78.944 111.395 81.4312 109.977 84.2364 108.59ZM39.4312 114.808C41.8321 114.808 43.8001 116.776 43.8001 119.177C43.8001 121.578 41.8321 123.544 39.4312 123.544C37.0302 123.544 35.0643 121.578 35.0643 119.177C35.0643 116.776 37.0302 114.808 39.4312 114.808ZM36.0473 125.598L36.1047 125.077C31.7666 124.529 28.0626 122.068 26.6754 121.057C26.6754 121.057 26.6754 121.057 26.6754 121.028C26.6754 120.999 26.7041 120.999 26.7041 120.999C27.7158 120.767 30.4923 120.131 34.5431 119.292C34.6293 121.925 36.7983 124.065 39.4312 124.065C42.1502 124.065 44.3192 121.867 44.3192 119.177C44.3192 118.57 44.2043 118.02 44.0012 117.47C45.9116 117.123 47.9925 116.747 50.2498 116.372C50.4221 117.905 51.0891 125.426 48.2243 127.855C46.9233 128.953 43.2788 128.781 37.6951 127.391C34.8899 126.669 32.1996 125.801 30.6954 125.28L33.6176 125.108C34.3974 125.309 35.208 125.483 36.0473 125.598ZM26.618 125.569L29.337 125.395C29.8274 125.569 33.5314 126.899 37.5802 127.913C40.7609 128.723 43.3076 129.099 45.216 129.099C46.8084 129.099 47.935 128.809 48.5999 128.26C50.0466 127.045 50.8572 124.615 51.0008 121.028C51.0891 118.888 50.8859 116.979 50.8284 116.312C50.9434 116.284 51.0603 116.284 51.1752 116.255C52.1582 118.801 52.4763 121.432 52.1007 124.065C51.7827 126.205 51.0295 128.346 49.8147 130.429C48.0232 133.583 45.7372 135.694 45.216 136.156C44.8692 136.041 44.5511 135.924 44.2043 135.78C33.4145 131.789 28.0339 126.93 26.618 125.569ZM94.1007 140.9C83.5428 141.826 73.5922 141.711 64.5671 140.582C57.7994 139.743 51.4933 138.296 45.7659 136.33C46.5478 135.606 48.5711 133.611 50.2498 130.689C51.4933 128.549 52.2752 126.322 52.5932 124.123C52.8538 122.3 52.7943 120.449 52.4188 118.656C54.791 118.742 69.0797 119.148 85.3363 119.148C85.4532 119.148 85.5682 119.148 85.6831 119.148C102.143 119.148 123.952 118.684 134.424 116.544C142.175 118.512 148.627 120.681 153.051 122.329C154.007 122.676 154.643 123.515 154.701 124.5C154.758 125.483 154.266 126.38 153.4 126.87C136.651 136.041 109.056 139.599 94.1007 140.9ZM170.176 134.334C170.176 134.334 169.972 134.769 166.792 134.19C164.969 133.841 162.482 133.265 159.414 132.397C155.251 131.239 151.085 129.907 149.523 129.388C150.332 129.011 151.085 128.664 151.75 128.346C152.3 128.549 154.873 129.474 157.824 130.256C160.775 131.036 163.176 131.412 164.998 131.412C165.895 131.412 166.677 131.325 167.284 131.122C170.233 133.466 170.233 134.161 170.176 134.334Z" fill="#1B16A6"/>
</g>
<path d="M163.35 72.8715L170.378 73.3352C170.61 73.364 170.696 73.6246 170.551 73.7682C167.688 76.6042 148.915 93.1768 102.865 89.1855C68.1536 86.1772 50.8566 79.1775 43.4507 75.1288C41.3391 73.9714 41.571 70.9343 43.8282 70.095C54.6756 66.075 81.4593 57.5403 108.071 59.4796C139.658 61.7923 166.126 67.809 170.349 68.794C170.579 68.8514 170.668 69.1695 170.464 69.3131C169.163 70.2694 165.373 72.814 160.918 73.364" fill="#94B9FF"/>
<path d="M145.617 64.1359L144.864 66.4506L124.066 66.8261H93.3488L77.4965 66.2187L62.543 64.3678C62.543 64.3678 80.8229 60.4626 83.8026 60.202C86.7822 59.9414 103.154 58.9585 109.835 59.4797C116.517 60.0009 129.679 61.7062 129.679 61.7062L145.617 64.1359Z" fill="#4B89FC"/>
<path d="M131.502 82.0423C130.866 82.8508 131.241 84.0656 132.224 84.355C137.923 86.0911 143.246 84.355 146.139 83.0252C147.094 82.5902 147.295 81.3179 146.572 80.5668C145.068 79.0627 144.2 76.8628 143.767 75.4182C143.507 74.6076 142.638 74.1438 141.857 74.4044C136.825 76.0543 133.238 79.8425 131.502 82.0423ZM146.486 64.1358L155.48 65.7282L166.416 67.8686L170.35 68.794C170.35 68.794 170.436 69.1408 169.972 69.6026C168.817 70.7312 164.565 72.5535 164.044 72.6704C164.216 72.6992 164.766 72.7853 165.345 72.9577C166.038 73.1896 167.631 73.1609 167.631 73.1609C167.631 73.1609 151.953 78.917 148.598 76.1118C145.212 73.2778 146.486 64.1358 146.486 64.1358ZM35.5834 74.6938C36.9726 73.797 37.0588 71.7737 35.7291 70.7599L28.0625 64.9464C27.3114 64.2815 27.6869 63.0379 28.7007 62.9497C35.2078 62.3423 50.4528 67.809 50.4528 67.809L46.9806 69.1121L43.8286 70.0951C43.8286 70.0951 42.3245 71.2812 42.1213 71.8024C41.9181 72.3216 42.1213 73.7683 42.6713 74.4927C43.2212 75.215 48.2242 77.4415 48.2242 77.4415C48.2242 77.4415 27.2827 84.3263 26.5583 82.4466C26.0679 81.1455 31.9101 77.0947 35.5834 74.6938ZM100.263 52.1311C106.828 52.2194 120.54 60.6083 120.54 60.6083C120.54 60.6083 115.563 60.2902 113.741 59.9701C111.919 59.652 99.8567 59.2477 99.8567 59.2477C98.4099 58.4084 97.6302 57.4542 97.2546 56.5575C96.3579 54.4171 97.9482 52.1024 100.263 52.1311Z" fill="#4B89FC"/>
<path d="M152.936 67.2325C152.936 67.5362 152.964 67.8358 153.024 68.1334C153.083 68.433 153.172 68.7223 153.289 69.0035C153.403 69.2826 153.547 69.5493 153.715 69.8017C153.884 70.0562 154.077 70.2901 154.292 70.5035C154.505 70.719 154.739 70.9099 154.992 71.0802C155.244 71.2485 155.511 71.39 155.792 71.507C156.073 71.624 156.363 71.7122 156.66 71.7697C156.96 71.8292 157.259 71.86 157.563 71.86C157.867 71.86 158.168 71.8292 158.466 71.7697C158.766 71.7122 159.055 71.624 159.334 71.507C159.615 71.39 159.882 71.2485 160.134 71.0802C160.387 70.9099 160.621 70.719 160.836 70.5035C161.052 70.2901 161.242 70.0562 161.413 69.8017C161.581 69.5493 161.723 69.2826 161.84 69.0035C161.957 68.7223 162.043 68.433 162.102 68.1334C162.162 67.8358 162.192 67.5362 162.192 67.2325C162.192 66.9268 162.162 66.6272 162.102 66.3296C162.043 66.03 161.957 65.7407 161.84 65.4595C161.723 65.1804 161.581 64.9137 161.413 64.6613C161.242 64.4068 161.052 64.1729 160.836 63.9595C160.621 63.744 160.387 63.5531 160.134 63.3828C159.882 63.2145 159.615 63.073 159.334 62.956C159.055 62.839 158.766 62.7508 158.466 62.6933C158.168 62.6338 157.867 62.603 157.563 62.603C157.259 62.603 156.96 62.6338 156.66 62.6933C156.363 62.7508 156.073 62.839 155.792 62.956C155.511 63.073 155.244 63.2145 154.992 63.3828C154.739 63.5531 154.505 63.744 154.292 63.9595C154.077 64.1729 153.884 64.4068 153.715 64.6613C153.547 64.9137 153.403 65.1804 153.289 65.4595C153.172 65.7407 153.083 66.03 153.024 66.3296C152.964 66.6272 152.936 66.9268 152.936 67.2325Z" fill="#FFF9F3"/>
<path d="M156.204 66.4505C156.204 67.7228 157.245 68.7652 158.519 68.7652C159.791 68.7652 160.832 67.7228 160.832 66.4505C160.832 65.1782 159.791 64.1357 158.519 64.1357C157.245 64.1357 156.204 65.1782 156.204 66.4505ZM148.162 67.4621C148.105 67.0004 148.365 66.5941 148.769 66.5366C149.176 66.4792 149.551 66.7973 149.609 67.2323C149.666 67.694 149.406 68.0983 149.001 68.1578C148.597 68.2153 148.219 67.8972 148.162 67.4621ZM150.824 69.1407C151.228 69.0833 151.605 69.4014 151.663 69.8343C151.72 70.2981 151.46 70.7024 151.055 70.7598C150.649 70.8173 150.274 70.4992 150.216 70.0662C150.159 69.6025 150.419 69.1982 150.824 69.1407ZM148.105 69.545C148.509 69.4875 148.886 69.8056 148.944 70.2386C149.001 70.7024 148.741 71.1066 148.336 71.1661C147.93 71.2236 147.555 70.9055 147.497 70.4705C147.44 70.0088 147.729 69.6025 148.105 69.545ZM79.1176 79.1488C79.5219 79.0913 79.8974 79.4094 79.9548 79.8424C80.0123 80.3061 79.7537 80.7104 79.3474 80.7678C78.9432 80.8274 78.5676 80.5072 78.5102 80.0742C78.4507 79.6125 78.74 79.2062 79.1176 79.1488ZM74.17 81.5497C74.5743 81.4922 74.9519 81.8103 75.0093 82.2433C75.0668 82.7071 74.8062 83.1113 74.4019 83.1688C73.9976 83.2262 73.6201 82.9082 73.5626 82.4752C73.5051 82.0422 73.7658 81.6071 74.17 81.5497ZM85.2205 81.5497C85.6248 81.4922 86.0003 81.8103 86.0598 82.2433C86.1173 82.7071 85.8566 83.1113 85.4524 83.1688C85.0461 83.2262 84.6705 82.9082 84.6131 82.4752C84.5556 82.0422 84.8142 81.6071 85.2205 81.5497ZM95.5753 60.838C95.9796 60.7806 96.3571 61.0986 96.4146 61.5337C96.4721 61.9954 96.2114 62.4017 95.8072 62.4592C95.4009 62.5166 95.0253 62.1985 94.9679 61.7635C94.9104 61.3305 95.171 60.9263 95.5753 60.838ZM102.749 64.107C103.154 64.0495 103.529 64.3676 103.589 64.8006C103.646 65.2644 103.386 65.6686 102.981 65.7281C102.575 65.7856 102.199 65.4675 102.142 65.0325C102.085 64.5995 102.343 64.1644 102.749 64.107ZM104.861 60.838C105.265 60.7806 105.641 61.0986 105.7 61.5337C105.758 61.9954 105.497 62.4017 105.093 62.4592C104.687 62.5166 104.311 62.1985 104.254 61.7635C104.196 61.3305 104.455 60.9263 104.861 60.838ZM109.981 63.4996C110.385 63.4421 110.761 63.7602 110.82 64.1932C110.878 64.6569 110.617 65.0612 110.213 65.1207C109.807 65.1782 109.431 64.8601 109.374 64.4251C109.316 63.9921 109.575 63.557 109.981 63.4996ZM116.777 62.4879C117.184 62.4304 117.559 62.7485 117.617 63.1815C117.674 63.6453 117.414 64.0495 117.009 64.107C116.605 64.1644 116.227 63.8464 116.17 63.4134C116.113 62.9496 116.373 62.5453 116.777 62.4879ZM111.021 70.3556C111.428 70.2981 111.803 70.6162 111.861 71.0492C111.918 71.513 111.657 71.9172 111.253 71.9747C110.849 72.0321 110.471 71.7141 110.414 71.2811C110.328 70.8173 110.617 70.413 111.021 70.3556ZM103.01 70.7311C103.414 70.6736 103.79 70.9917 103.847 71.4247C103.907 71.8885 103.646 72.2927 103.24 72.3502C102.836 72.4097 102.46 72.0916 102.403 71.6566C102.343 71.1949 102.604 70.7886 103.01 70.7311ZM151.345 72.7565C151.749 72.6991 152.125 73.0171 152.184 73.4501C152.242 73.9139 151.981 74.3181 151.577 74.3756C151.17 74.4331 150.795 74.115 150.737 73.682C150.68 73.2182 150.969 72.814 151.345 72.7565Z" fill="#1B16A6"/>
<mask id="mask1_935_793" style="mask-type:luminance" maskUnits="userSpaceOnUse" x="26" y="51" width="145" height="40">
<path d="M26.0391 51.8438H170.957V90.3573H26.0391V51.8438Z" fill="white"/>
</mask>
<g mask="url(#mask1_935_793)">
<path d="M141.742 74.1725C142.204 74.0289 142.696 74.0576 143.131 74.2895C143.564 74.5214 143.882 74.8969 143.997 75.3587C144.837 78.0777 145.937 79.6126 146.747 80.3924C147.151 80.7967 147.355 81.4041 147.238 81.9828C147.123 82.5615 146.776 83.0252 146.226 83.2858C144.287 84.1826 140.96 85.3687 137.143 85.3687C135.551 85.3687 133.846 85.1656 132.11 84.6443C131.56 84.472 131.127 84.0369 130.952 83.5157C130.78 82.9678 130.895 82.3604 131.242 81.9253C133.006 79.6988 136.68 75.8224 141.742 74.1725ZM131.502 83.3146C131.502 83.3433 131.502 83.3433 131.531 83.372C133.671 84.0656 136.479 83.6901 138.444 83.2571C141.163 82.6497 143.536 81.6934 144.722 81.0286C145.532 80.5956 145.791 80.335 145.879 80.22C145.473 79.7275 145.097 79.1776 144.808 78.6276C144.229 79.0339 142.725 80.0743 140.702 81.0573C138.705 82.0115 135.84 83.054 132.863 83.054C132.399 83.054 131.935 83.0252 131.474 82.9678C131.445 83.054 131.474 83.1976 131.502 83.3146ZM143.507 75.5043C143.421 75.1863 143.189 74.9257 142.9 74.7512C142.61 74.6076 142.263 74.5789 141.945 74.665C137.605 76.083 134.336 79.1776 132.456 81.3466C137.287 80.7967 143.275 76.2267 143.679 75.9086C143.593 75.765 143.536 75.648 143.507 75.5043ZM143.825 76.4586C143.333 76.8341 141.828 77.934 139.891 79.0627C136.797 80.8562 134.106 81.8391 131.935 81.954C131.849 82.0423 131.792 82.1572 131.705 82.2434C131.648 82.3008 131.588 82.3891 131.56 82.4753C134.857 82.8508 138.184 81.6647 140.441 80.5956C142.493 79.6126 144.057 78.5414 144.547 78.1659C144.258 77.5585 144.028 76.9798 143.825 76.4586ZM146.023 82.7646C146.398 82.5902 146.659 82.2721 146.716 81.8679C146.805 81.4636 146.659 81.0573 146.37 80.7392C146.312 80.6818 146.283 80.653 146.226 80.5956C146.14 80.7105 146.023 80.7967 145.85 80.9136C144.894 81.636 142.493 82.7359 139.485 83.5157C137.345 84.0656 135.668 84.2401 134.336 84.2401C133.47 84.2401 132.775 84.1539 132.225 84.0656C132.255 84.0656 132.255 84.0944 132.284 84.0944C137.981 85.8304 143.333 84.0082 146.023 82.7646ZM158.52 69.0239C157.102 69.0239 155.945 67.8685 155.945 66.4506C155.945 65.0326 157.102 63.8752 158.52 63.8752C159.936 63.8752 161.093 65.0326 161.093 66.4506C161.093 67.8685 159.936 69.0239 158.52 69.0239ZM158.52 64.3964C157.391 64.3964 156.466 65.3219 156.466 66.4506C156.466 67.5792 157.391 68.5047 158.52 68.5047C159.647 68.5047 160.572 67.5792 160.572 66.4506C160.572 65.3219 159.647 64.3964 158.52 64.3964ZM29.3372 78.7733C31.2457 77.2404 33.7041 75.5905 35.4401 74.4619C36.0188 74.0864 36.3943 73.4502 36.3943 72.7566C36.4231 72.063 36.105 71.3961 35.555 70.9918L27.9192 65.1783C27.4862 64.8007 27.3118 64.224 27.4862 63.6741C27.6586 63.1241 28.1224 62.7486 28.6703 62.7199C31.3893 62.4593 35.9018 63.2103 42.0642 64.9177C46.2587 66.1038 49.8457 67.3473 50.4224 67.5505C55.7455 65.8144 62.4271 63.9039 69.948 62.3423C80.1591 60.202 89.8491 59.0733 98.9029 58.9871C97.9774 58.3223 97.3412 57.5404 96.9657 56.6744C96.5019 55.6032 96.6168 54.4171 97.255 53.4342C97.8912 52.4512 98.989 51.8726 100.146 51.8726C100.175 51.8726 100.175 51.8726 100.204 51.8726C102.982 51.9013 107.263 53.348 112.933 56.1532C116.867 58.1191 120.162 60.087 120.569 60.3477C133.585 61.7061 145.04 63.5571 153.111 65.0038C153.919 63.4135 155.569 62.3136 157.478 62.3136C160.022 62.3136 162.134 64.2815 162.337 66.7974C166.474 67.6367 169.279 68.3015 170.322 68.5334C170.523 68.5909 170.697 68.7345 170.755 68.9664C170.812 69.1696 170.726 69.4015 170.551 69.5164C169.568 70.2387 167.399 71.6854 164.652 72.6992L170.408 73.0747C170.611 73.0747 170.783 73.2183 170.869 73.4215C170.958 73.6246 170.9 73.8257 170.755 73.9714C169.337 75.3894 163.87 80.2775 152.994 84.2975C146.833 86.5835 139.949 88.2026 132.485 89.1281C127.482 89.7643 122.188 90.0536 116.664 90.0536C112.18 90.0536 107.552 89.8505 102.808 89.4462C87.5056 88.1165 74.0562 85.8879 62.8026 82.7933C56.5273 81.0573 51.7255 79.2925 48.1671 77.7309C47.4448 77.9627 42.5855 79.5531 37.6954 80.9136C31.9105 82.5327 29.0479 83.0252 27.6299 83.0252C26.6757 83.0252 26.3863 82.7933 26.2694 82.5327C26.0395 81.8391 26.965 80.6818 29.3372 78.7733ZM42.6142 74.8682C42.2079 75.0693 41.1962 75.5905 39.8665 76.0256C38.824 76.3437 37.4347 76.6617 35.9901 76.6617C35.237 76.6617 34.4572 76.5735 33.7041 76.3724L33.7328 76.2554C32.2861 77.2404 31.1307 78.0777 30.234 78.7733C34.1678 79.6126 42.3536 76.8628 44.6088 76.083C44.1471 75.8512 43.7121 75.6193 43.3078 75.3894C43.0472 75.2437 42.8153 75.0693 42.6142 74.8682ZM35.7295 74.9257C35.1795 75.2725 34.6583 75.6193 34.1966 75.9373C37.5517 76.6905 41.2537 74.9544 42.2654 74.4332C41.8898 73.8853 41.6887 73.2471 41.7462 72.5535H36.973C36.973 72.6109 36.973 72.6992 36.973 72.7566C36.9156 73.6534 36.4805 74.4332 35.7295 74.9257ZM35.9018 70.5588C36.3943 70.9344 36.7411 71.4535 36.8868 72.0322H41.8036C41.9781 71.2524 42.4685 70.5876 43.1621 70.1525C41.7174 69.6313 37.6954 68.4472 33.8785 69.0239L35.9018 70.5588ZM43.829 69.8344C44.4939 69.6026 45.1875 69.3419 45.9119 69.0834C45.0439 68.6483 43.1334 67.7516 40.792 67.0005C35.7582 65.4081 32.1999 65.5825 29.9734 66.075L33.2998 68.5909C38.0422 67.6654 43.0472 69.5164 43.829 69.8344ZM28.7298 63.239C28.2948 63.2678 28.0629 63.5858 27.9767 63.8465C27.8905 64.1071 27.9192 64.4826 28.2373 64.772L29.4234 65.6687C33.4434 64.5996 37.8985 65.5251 40.9356 66.4793C43.8578 67.4048 46.0843 68.5622 46.5768 68.8228C47.531 68.5047 48.5427 68.1579 49.5851 67.809C46.4885 66.7399 34.2827 62.6891 28.7298 63.239ZM63.7876 64.2815C74.5754 66.2474 95.402 66.6824 111.283 66.6824C111.398 66.6824 111.515 66.6824 111.63 66.6824C128.233 66.6824 142.811 66.2474 144.664 66.1899C144.837 65.5251 145.04 64.8602 145.272 64.224C135.175 62.5742 122.13 60.8094 108.014 59.769C107.175 59.7115 106.338 59.652 105.47 59.6233L105.441 59.652L105.412 59.6233C94.5935 59.1041 82.7037 60.202 70.0649 62.8635C67.9226 63.2965 65.811 63.789 63.7876 64.2815ZM99.9145 58.9584C101.536 58.9584 103.126 58.9871 104.716 59.0446C103.59 58.2935 102.057 57.5712 100.204 56.933C99.0178 56.5287 97.9486 56.2394 97.3987 56.0957C97.4274 56.2107 97.4561 56.3256 97.5136 56.4138C97.9199 57.4255 98.7284 58.2648 99.9145 58.9584ZM97.2838 55.5458C98.3529 55.8064 103.069 56.9925 105.671 59.1041C106.481 59.1328 107.292 59.1903 108.102 59.2477C108.507 59.2765 108.882 59.3052 109.286 59.3339C105.324 56.4138 98.3816 54.7352 97.3987 54.5033C97.2838 54.8214 97.255 55.199 97.2838 55.5458ZM97.7455 53.7235C97.688 53.8097 97.6306 53.8959 97.5731 54.0129C98.1805 54.1565 100.032 54.6203 102.229 55.3426C105.759 56.5575 108.449 57.918 110.214 59.3934C111.226 59.4796 112.237 59.5658 113.251 59.652C108.478 55.4596 99.7709 53.0874 98.7284 52.798C98.3529 53.0279 98.0061 53.3172 97.7455 53.7235ZM112.759 56.6437C108.882 54.7352 103.619 52.4512 100.263 52.3917C100.032 52.3917 99.7996 52.4205 99.5677 52.48C100.581 52.7693 102.461 53.348 104.573 54.1565C107.495 55.3139 111.515 57.1936 114.117 59.7115C115.882 59.8552 117.647 60.0296 119.383 60.202C118.051 59.4509 115.564 58.0329 112.759 56.6437ZM157.564 62.8635C155.163 62.8635 153.197 64.8315 153.197 67.2324C153.197 69.6313 155.163 71.5992 157.564 71.5992C159.965 71.5992 161.933 69.6313 161.933 67.2324C161.933 64.8315 159.965 62.8635 157.564 62.8635ZM160.95 73.6534L160.89 73.1321C165.23 72.5822 168.932 70.1238 170.322 69.1121C170.322 69.1121 170.322 69.1121 170.322 69.0834C170.322 69.0547 170.293 69.0547 170.293 69.0547C169.279 68.8228 166.503 68.1866 162.454 67.3473C162.366 69.9801 160.197 72.1205 157.564 72.1205C154.845 72.1205 152.676 69.9206 152.676 67.2324C152.676 66.6229 152.793 66.075 152.994 65.5251C151.085 65.1783 149.002 64.8007 146.747 64.4252C146.573 65.9581 145.908 73.4789 148.771 75.9086C150.074 77.0085 153.718 76.8341 159.3 75.4469C162.105 74.7225 164.795 73.8545 166.299 73.3353L163.379 73.1609C162.597 73.364 161.787 73.5364 160.95 73.6534ZM170.379 73.6246L167.66 73.4502C167.167 73.6246 163.465 74.9544 159.415 75.9661C156.234 76.7766 153.689 77.1522 151.779 77.1522C150.189 77.1522 149.06 76.8628 148.395 76.3149C146.948 75.1001 146.14 72.6704 145.994 69.0834C145.908 66.9431 146.109 65.0326 146.168 64.3677C146.052 64.339 145.937 64.339 145.82 64.3102C144.837 66.8548 144.519 69.4876 144.894 72.1205C145.212 74.2608 145.965 76.4011 147.18 78.484C148.974 81.636 151.258 83.7476 151.779 84.2113C152.126 84.0944 152.444 83.9795 152.793 83.8338C163.58 79.8425 168.961 74.9831 170.379 73.6246ZM102.894 88.9537C113.452 89.8812 123.403 89.7643 132.428 88.6356C139.198 87.7984 145.502 86.3517 151.229 84.3837C150.449 83.6614 148.424 81.6647 146.747 78.7446C145.502 76.6043 144.722 74.3757 144.404 72.1779C144.143 70.3557 144.201 68.5047 144.576 66.7112C142.204 66.7974 127.915 67.2016 111.659 67.2016C111.544 67.2016 111.429 67.2016 111.312 67.2016C94.8541 67.2016 73.0425 66.7399 62.5728 64.5996C54.82 66.5655 48.3703 68.7345 43.944 70.3844C42.9897 70.7312 42.3536 71.5705 42.2961 72.5535C42.2366 73.5364 42.7291 74.4332 43.5972 74.9257C60.3442 84.0944 87.9406 87.6527 102.894 88.9537ZM26.8193 82.3891C26.8193 82.3891 27.0225 82.8221 30.2053 82.2434C32.0275 81.8966 34.5146 81.3179 37.5804 80.4499C41.7462 79.2925 45.9119 77.9627 47.4735 77.4415C46.663 77.066 45.9119 76.7192 45.245 76.4011C44.6971 76.6043 42.1217 77.5298 39.1708 78.3095C36.2199 79.0914 33.819 79.4669 31.9967 79.4669C31.1 79.4669 30.3202 79.3807 29.7128 79.1776C26.7619 81.5211 26.7619 82.2147 26.8193 82.3891Z" fill="#1B16A6"/>
</g>
</g>
<defs>
<clipPath id="clip0_935_793">
<rect width="197" height="197" rx="98.5" fill="white"/>
</clipPath>
</defs>
</svg>
