<svg width="500" height="500" viewBox="0 0 500 500" fill="none" xmlns="http://www.w3.org/2000/svg">
<g clip-path="url(#clip0_512_132)">
<path d="M550 -50H-50V550H550V-50Z" fill="white"/>
<path d="M550 -50H-50V550H550V-50Z" fill="#F38143"/>
<mask id="mask0_512_132" style="mask-type:luminance" maskUnits="userSpaceOnUse" x="95" y="41" width="339" height="387">
<path d="M95 41H433.605V427.322H95V41Z" fill="white"/>
</mask>
<g mask="url(#mask0_512_132)">
<path d="M431.718 314.567C430.886 299.851 430.384 285.117 429.347 270.416C428.057 252.068 425.982 233.787 426.307 215.339C426.455 207.161 426.288 198.922 424.224 190.912C422.947 185.955 420.477 184.732 415.535 186.381C413.551 187.04 411.668 188.226 409.647 188.488C400.771 189.65 391.891 190.859 382.901 190.696C378.7 190.62 378.863 190.673 379.006 186.5C379.733 165.237 380.445 143.974 380.99 122.711C381.152 116.201 378.041 113.859 371.933 116.172C364.888 118.835 357.734 118.036 350.603 117.797C346.564 117.659 342.497 116.894 338.698 115.236C336.709 114.366 335.629 113.587 338.048 111.799C339.429 110.772 340.146 109.195 339.319 107.379C338.506 105.577 336.982 105.266 335.18 105.328C333.416 105.39 331.658 105.328 329.97 106.016C328.886 96.7158 329.282 87.5491 329.708 78.3871C330.061 70.874 331.366 63.4183 330.998 55.8574C330.778 51.2979 326.238 47.4171 322.601 49.1664C319.638 50.5858 316.517 51.1163 313.424 51.7472C308.091 52.8417 303.12 51.341 298.508 48.6311C297.729 48.177 296.625 47.6083 297.748 46.3561C299.564 44.3249 298.102 43.1062 296.496 42.1742C294.465 40.9985 292.238 41.0893 290.106 41.9305C285.695 43.6749 281.064 45.0657 276.982 47.398C262.568 55.6232 247.135 61.736 232.444 69.359C228.037 71.6435 223.607 73.8898 218.942 75.639C205.44 80.7003 193.33 88.5862 180.402 94.828C177.587 96.1901 174.083 98.0206 173.562 101.232C172.879 105.472 170.126 106.733 166.986 108.153C146.578 117.386 126.195 126.673 105.763 135.854C103.349 136.939 101.696 138.592 100.807 140.915C97.6811 149.078 96.8112 157.619 96.8542 166.293C96.8829 172.392 96.9546 178.49 96.8399 184.588C96.6105 196.781 96.08 208.968 96.0274 221.16C95.9701 235.331 96.7682 249.52 96.3524 263.672C95.6164 288.4 96.4002 313.143 95.3679 337.866C95.2054 341.819 96.3142 345.824 96.1804 349.781C95.712 363.741 95.8315 377.697 95.7502 391.657C95.7024 399.744 102.417 404.867 107.598 406.206C110.385 406.927 113.09 407.783 115.761 408.806C129.636 414.092 143.161 413.365 156.51 406.803C164.563 402.841 172.09 397.957 180.019 393.779C181.534 392.981 182.576 392.374 182.581 394.969C182.581 397.503 183.212 400.055 183.078 402.573C182.911 405.795 184.34 407.802 186.93 409.331C192.154 412.424 197.899 414.01 203.815 414.933C208.251 415.626 212.351 414.598 215.955 411.716C219.062 409.231 222.307 406.918 225.662 404.399C226.551 409.145 230.298 410.67 234.126 411.974C236.836 412.902 239.641 413.551 242.404 414.331C249.171 416.233 256.226 415.788 263.103 416.935C270.822 418.221 278.057 417.136 283.75 410.846C285.432 408.987 287.755 407.726 289.686 406.072C291.42 404.585 292.142 405.14 292.329 407.157C292.797 412.285 295.975 415.004 300.382 417.155C310.629 422.164 321.827 423.88 332.642 426.895C335.17 427.598 337.823 427.001 340.112 425.94C343.811 424.229 347.334 422.121 350.894 420.123C364.033 412.753 374.973 402.387 386.711 393.177C399.682 382.993 412.901 373.061 425.194 362.011C430.202 357.509 433.596 352.261 433.577 345.088C433.553 334.865 432.291 324.742 431.718 314.567ZM121.157 247.265C121.057 247.279 120.956 247.293 120.861 247.308C120.961 247.293 121.057 247.279 121.157 247.265Z" fill="#055049"/>
</g>
<path d="M322.302 262.567C322.116 284.189 323.636 305.72 325.404 327.255C326.288 338.061 326.814 348.906 328.305 359.65C330.58 376.067 332.502 392.536 335.369 408.872C336.096 413.006 336.368 417.217 336.827 421.394C337.056 423.454 336.363 424.83 334.05 424.137C323.187 420.882 311.821 419.276 301.532 414.105C298.229 412.442 296.37 410.21 295.572 406.439C292.632 392.574 291.189 378.494 289.077 364.515C287.275 352.605 285.497 340.685 283.996 328.732C282.634 317.869 281.382 306.981 280.569 296.065C279.222 277.851 277.181 259.676 277.635 241.352C277.721 237.958 278.696 235.564 281.382 233.409C288.417 227.769 295.94 222.956 304.203 219.41C309.919 216.958 315.081 213.507 320.625 210.788C336.483 203.017 352.441 195.461 368.356 187.804C369.173 187.412 370.1 186.815 370.741 187.69C371.577 188.827 370.392 189.496 369.68 190.084C368.409 191.14 367.104 192.201 365.68 193.038C359.103 196.904 352.689 201.115 345.836 204.417C334.891 209.679 324.252 215.577 313.026 220.27C305.255 223.515 298.277 228.299 290.706 231.941C289.822 232.367 289.024 233.031 288.302 233.71C286.343 235.554 286.625 237.246 289.167 238.217C290.587 238.757 292.169 239.177 293.674 239.153C302.54 239.029 311.406 239.99 320.266 239.282C322.326 239.115 322.326 240.133 322.317 241.6C322.283 248.588 322.302 255.575 322.302 262.567ZM316.83 400.202C320.534 400.35 321.323 399.356 320.778 395.939C319.884 390.275 319.053 384.598 318.398 378.901C316.73 364.309 314.106 349.838 313.451 335.122C312.701 318.308 310.196 301.609 310.278 284.738C310.302 279.529 309.934 274.32 309.647 269.12C309.389 264.422 308.724 263.815 304.017 263.853C299.357 263.891 294.664 264.101 290.147 262.825C287.571 262.099 286.983 262.973 286.993 265.311C287.036 274.401 287.891 283.462 288.603 292.491C290.119 311.737 293.966 330.716 295.878 349.952C297.369 364.969 300.141 379.857 302.344 394.801C302.621 396.685 303.352 397.836 305.484 398.462C309.26 399.562 313.141 399.514 316.83 400.202ZM303.056 256.799C304.27 256.799 305.508 256.937 306.698 256.76C307.984 256.574 310.082 257.171 310.058 255.068C310.039 253.118 308.141 253.276 306.717 253.314C301.594 253.453 296.599 252.784 291.691 251.293C289.913 250.753 288.035 250.48 286.18 250.284C285.492 250.213 284.598 250.523 284.431 251.503C284.269 252.449 284.737 252.98 285.64 253.123C291.495 254.05 296.929 257.071 303.056 256.799ZM323.22 411.238C324.668 410.717 326.886 411.849 326.943 409.393C326.986 407.285 325.031 407.868 323.688 407.615C317.332 406.425 310.889 405.698 304.672 403.801C303.582 403.466 301.966 402.716 301.388 404.049C300.719 405.593 302.569 405.918 303.553 406.348C309.867 409.087 316.72 409.598 323.22 411.238ZM302.062 216.848C318.183 208.37 334.643 200.575 351.079 192.741C356.054 190.366 360.872 187.68 366.072 185.759C370.124 184.263 372.591 185.051 373.623 188.794C373.924 189.888 374.474 189.888 375.243 189.941C376.266 190.007 376.165 189.243 376.228 188.602C376.424 186.624 376.782 184.65 376.787 182.671C376.844 168.486 376.868 154.301 377.561 140.13C377.857 134.051 378.359 127.977 378.12 121.883C377.986 118.361 377.16 117.735 373.967 118.824C370.105 120.139 366.31 121.596 362.645 123.441C343.504 133.052 323.899 141.684 304.428 150.602C299.218 152.987 299.166 152.8 299.625 158.344C299.749 159.888 299.763 161.456 299.663 163C298.803 176.286 299.328 189.601 298.841 202.888C298.659 207.873 298.946 212.767 299.147 217.689C300.385 217.952 301.226 217.288 302.062 216.848Z" fill="#D2C720"/>
<path d="M336.794 108.483C334.62 111.288 331.891 113.372 328.746 114.62C313.591 120.627 298.775 127.419 283.438 133.054C266.816 139.161 249.964 144.983 234.483 153.887C233.623 154.384 232.691 154.838 232.003 155.521C230.335 157.18 229.986 158.714 232.271 160.391C235.129 162.489 238.498 162.638 241.7 163.111C249.457 164.253 257.271 165.008 265.062 165.916C265.171 165.926 265.286 165.902 265.391 165.935C267.203 166.447 269.736 164.544 270.586 165.95C271.533 167.512 270.921 170.026 270.95 172.124C271.227 195.075 271.203 218.03 271.843 240.971C272.632 269.03 271.729 297.094 272.47 325.144C272.785 337.078 273.999 348.988 274.802 360.908C274.859 361.792 274.921 362.681 274.921 363.565C274.917 379.193 275.003 394.827 274.563 410.46C274.491 413.184 273.516 414.001 270.974 414.235C266.247 414.666 261.754 413.217 257.133 412.883C250.069 412.376 243.139 411.263 236.343 409.102C230.211 407.153 228.6 405.413 228.562 399.042C228.447 377.97 228.457 356.893 228.189 335.821C227.979 319.199 228.036 302.562 227.085 285.954C226.086 268.576 226.301 251.16 225.618 233.783C224.681 209.967 224.041 186.152 223.663 162.317C223.572 156.706 225.594 153.418 230.507 151.201C244.181 145.04 257.888 139.009 271.877 133.527C288.93 126.845 305.648 119.275 322.652 112.416C326.328 110.935 330.07 109.616 333.774 108.206C334.735 107.838 335.657 107.742 336.794 108.483ZM250.437 180.541C246.57 180.01 242.747 181.071 239.502 184.001C233.604 189.325 231.64 203.176 235.846 209.986C236.725 211.415 237.915 212.558 239.334 213.494C248.506 219.516 261.123 214.355 263.68 203.525C264.402 200.471 264.674 197.369 264.349 194.281C263.542 186.711 260.88 179.241 250.437 180.541ZM251.063 381.76C254.337 381.358 257.835 380.924 261.338 380.503C262.791 380.326 264.617 380.192 264.302 378.252C263.948 376.116 262.036 377.067 260.76 377.248C253.835 378.242 246.929 378.352 240.018 377.081C239.067 376.909 237.647 375.36 237.103 377.53C236.663 379.265 238.039 379.886 239.33 380.274C243.067 381.402 246.991 381.105 251.063 381.76ZM243.34 390.277C243.139 390.277 242.804 390.253 242.474 390.281C241.418 390.363 239.994 390.066 239.884 391.61C239.769 393.178 241.28 393.12 242.283 393.283C244.893 393.713 247.521 394.033 250.145 394.344C252.315 394.602 254.461 395.371 256.688 394.506C257.539 394.172 258.485 394.071 258.337 392.867C258.218 391.906 257.462 391.758 256.631 391.672C252.243 391.233 247.856 390.755 243.34 390.277ZM275.5 235.503C276.475 233.328 278.186 231.899 279.935 230.413C284.265 226.719 289.231 224.028 294.019 221.06C295.73 219.999 296.543 218.847 296.266 216.811C294.999 207.544 295.75 198.224 295.74 188.933C295.73 178.409 296.094 167.885 296.352 157.361C296.414 154.814 295.774 154.484 293.393 155.574C287.577 158.236 282.258 162.021 276.049 163.713C273.382 164.439 272.971 165.658 273.091 168.105C273.626 179.16 274.133 190.224 274.333 201.288C274.544 212.634 274.381 223.99 274.381 235.341C274.754 235.393 275.127 235.451 275.5 235.503ZM290.072 401.838C290.98 401.159 291.023 400.457 290.851 399.549C288.82 388.905 287.716 378.123 286.019 367.432C283.194 349.624 280.829 331.768 279.065 313.831C277.641 299.355 276.451 284.85 275.17 270.478C275.189 294.274 274.835 318.2 276.905 342.106C278.367 359.001 278.1 376.006 278.181 392.963C278.209 398.803 277.961 404.686 277.803 411.268C282.224 407.85 286.11 404.792 290.072 401.838Z" fill="#FFABDA"/>
<path d="M324.966 253.509C324.966 249.293 325.042 245.073 324.928 240.862C324.889 239.467 325.2 238.721 326.533 238.09C341.727 230.912 356.495 222.959 370.929 214.347C383.838 206.647 396.938 199.268 409.971 191.779C412.37 190.398 414.951 189.38 417.642 188.73C419.343 188.323 420.504 188.667 420.987 190.785C422.33 196.654 422.732 202.585 422.856 208.569C423.085 219.766 423.057 230.979 423.673 242.158C424.438 255.965 425.814 269.739 426.808 283.532C428.018 300.317 428.084 317.169 429.948 333.916C430.465 338.523 430.589 343.283 430.039 347.871C429.47 352.579 426.555 356.302 422.98 359.49C410.802 370.329 397.688 380.032 384.965 390.178C372.262 400.305 360.271 411.46 346.019 419.59C339.896 423.084 340.269 423.189 339.557 416.082C338.692 407.403 337.215 398.781 336.025 390.13C333.961 375.118 331.523 360.154 330.314 345.042C328.722 325.179 327.002 305.321 325.912 285.43C325.334 274.815 324.756 264.162 324.966 253.509ZM382.891 317.083C381.395 316.046 379.77 316.122 378.15 316.634C377.524 316.83 376.994 317.346 376.97 318.096C376.955 318.555 377.199 318.976 377.72 319.019C382.475 319.406 378.681 321.834 378.585 323.205C378.513 324.195 377.486 325.275 376.172 324.969C374.996 324.697 374.422 323.626 374.293 322.479C373.949 319.363 375.23 316.648 376.788 314.125C377.199 313.46 378.967 313.303 377.988 312.141C377.008 310.985 375.646 311.668 374.91 312.743C372.955 315.606 371.593 318.794 371.798 322.283C371.947 324.797 373.141 327.21 376.014 327.488C378.599 327.741 380.349 326.035 381.238 323.693C382.05 321.547 382.972 319.401 382.839 317.016C383.589 318.311 384.143 319.783 385.138 320.844C386.485 322.288 388.531 323.444 389.687 320.926C391.499 316.973 392.039 312.681 391.164 308.342C391.002 307.539 390.658 306.444 389.477 306.741C388.478 306.989 388.784 307.998 388.803 308.724C388.904 312.414 389.219 316.118 387.857 319.564C387.049 319.659 386.82 319.248 386.619 318.871C385.419 316.576 385.338 314.005 384.913 311.525C384.765 310.679 384.459 309.89 383.57 309.967C382.533 310.057 382.695 311.013 382.724 311.792C382.796 313.556 382.839 315.319 382.891 317.083ZM344.943 348.88C344.494 349.434 344.088 349.711 344.002 350.07C342.979 354.381 343.347 358.558 346.439 361.88C349.412 365.077 353.264 366.783 357.766 366.224C364.042 365.44 367.449 361.22 369.414 355.738C370.226 353.473 370.938 353.31 373.251 353.788C383.455 355.915 389.166 353.592 390.662 344.602C391.217 341.257 392.345 340.932 395.208 340.999C403.629 341.19 409.34 335.703 409.373 327.545C409.383 326.016 410 326.04 411.061 325.848C416.452 324.902 418.397 322.986 419.405 317.857C419.616 316.811 419.659 315.687 418.555 315.272C417.465 314.861 417.097 315.941 416.724 316.734C416.447 317.332 416.146 317.929 415.959 318.56C414.913 322.049 412.27 323.172 409.044 322.794C406.09 322.45 405.512 323.521 406.095 326.145C407.084 330.57 405.431 333.925 401.602 336.243C398.324 338.227 394.859 338.103 391.346 337.018C387.475 335.818 387.169 336.067 387.771 340.086C388.473 344.808 386.089 350.175 382.485 350.768C378.494 351.427 374.312 351.853 370.866 348.622C369.141 347.006 367.879 347.465 367.473 349.869C367.005 352.598 366.417 355.275 364.974 357.712C362.288 362.233 358.158 364.14 353.537 362.907C348.337 361.516 345.684 358.004 345.613 352.488C345.593 351.422 345.933 350.285 344.943 348.88ZM337.373 258.928C337.684 255.956 337.65 253.532 338.85 251.324C341.354 246.727 346.105 245.742 349.489 249.092C350.54 250.134 350.702 252.562 352.523 252.18C354.66 251.726 353.666 249.331 353.991 247.869C356.017 238.721 361.298 236.241 369.203 240.925C370.694 241.809 371.937 241.962 372.334 239.778C372.491 238.908 372.692 238.043 372.936 237.197C374.91 230.314 382.241 227.404 387.766 231.294C393.234 235.142 393.234 235.142 394.266 228.427C395.136 222.782 399.753 219.389 403.872 221.468C405.024 222.051 405.913 223.141 406.946 223.968C407.811 224.651 408.752 224.957 409.555 223.934C410.277 223.021 409.665 222.343 409.029 221.635C404.274 216.373 397.592 216.865 393.53 222.629C392.015 224.785 391.814 227.342 390.868 229.674C381.567 224.484 374.857 226.453 370.379 235.825C369.614 237.417 369.151 237.063 367.989 236.585C362.426 234.286 356.763 236.131 353.551 241.173C352.48 242.855 351.85 244.724 351.252 246.607C343.878 243.955 341.177 244.351 337.985 248.514C335.533 251.702 335.117 255.755 337.373 258.928ZM391.68 262.78C391.762 259.559 391.274 255.21 389.635 251.042C389.018 249.46 387.972 248.557 386.16 248.481C384.11 248.395 383.431 249.814 382.992 251.281C381.845 255.081 381.128 258.99 380.917 262.957C380.717 266.738 380.836 270.518 383.173 273.754C384.268 275.269 385.501 276.899 387.742 276.44C389.793 276.024 390.304 274.213 390.887 272.53C391.852 269.753 391.695 266.871 391.68 262.78ZM394.209 253.418C394.07 258.613 394.739 263.746 395.485 268.869C395.595 269.615 395.513 270.59 396.637 270.489C397.736 270.394 397.564 269.409 397.545 268.683C397.483 266.585 397.396 264.491 397.244 262.403C397.143 261.055 396.187 259.177 397.578 258.565C399.28 257.815 400.565 259.449 401.526 260.859C401.961 261.495 402.243 262.245 402.721 262.843C403.82 264.209 403.786 267.808 406.133 266.508C408.451 265.227 405.971 262.795 405.091 261.098C403.022 257.107 402.529 254.746 403.371 250.297C403.428 249.977 403.485 249.642 403.49 249.312C403.576 246.077 401.416 243.276 398.744 243.147C395.877 243.008 394.362 244.867 394.213 248.772C394.161 250.316 394.209 251.869 394.209 253.418ZM365.322 278.71C365.757 280.053 366.154 281.42 366.642 282.753C367.038 283.824 367.129 285.501 368.83 285.033C370.293 284.631 369.724 283.078 369.504 282.184C368.085 276.511 366.35 270.939 362.813 266.155C361.872 264.879 360.93 263.053 358.976 263.607C356.882 264.2 357.035 266.255 356.877 268.019C356.361 273.888 357.542 279.685 357.623 285.535C357.647 287.255 356.419 290.491 358.808 290.505C360.964 290.515 360.395 287.145 360.142 285.391C359.53 281.186 361.537 279.412 365.322 278.71ZM370.728 377.895C371.402 377.541 372.018 377.303 372.549 376.939C381.414 370.889 390.294 364.862 399.107 358.74C401.282 357.225 403.261 355.423 405.278 353.693C406.171 352.923 406.797 351.881 405.794 350.83C404.824 349.817 403.93 350.71 403.208 351.341C394.424 359.017 384.636 365.292 374.934 371.692C373.28 372.781 371.808 374.153 370.259 375.4C369.686 375.864 369.418 376.495 369.705 377.164C369.839 377.475 370.341 377.628 370.728 377.895ZM376.109 276.617C375.818 276.683 375.526 276.746 375.235 276.808C373.481 271.961 371.746 267.11 369.954 262.279C369.633 261.409 369.375 260.128 367.989 260.568C366.56 261.022 367.215 262.068 367.473 263.029C368.84 268.152 370.604 273.132 372.874 277.917C373.619 279.494 374.513 281.468 376.659 281.014C378.819 280.555 378.819 278.27 378.843 276.626C378.934 270.757 379.273 264.859 378.499 259.019C378.303 257.533 379.101 254.708 377.089 254.823C374.532 254.971 375.588 257.848 375.641 259.511C375.813 265.213 376.525 270.905 376.109 276.617ZM337.043 284.808C335.734 281.888 336.608 278.691 336.13 275.67C336.073 275.302 339.763 274.342 341.713 273.644C341.918 273.572 342.1 273.414 342.305 273.352C343.252 273.065 343.997 272.583 343.577 271.469C343.18 270.418 342.286 270.394 341.364 270.748C339.619 271.407 337.927 272.282 336.13 272.707C333.941 273.228 333.53 274.423 333.55 276.507C333.626 284.804 334.845 292.962 336.231 301.106C336.393 302.062 336.226 303.357 337.751 303.07C339.017 302.831 339.022 301.636 338.902 300.647C338.62 298.358 338.343 296.054 337.86 293.803C337.124 290.357 336.584 287.112 340.843 285.449C341.517 285.186 342.018 284.464 342.568 283.924C343.008 283.494 343.132 282.93 342.812 282.414C342.425 281.797 341.846 282.036 341.364 282.309C339.939 283.107 338.534 283.938 337.043 284.808ZM408.174 242.406C408.332 241.235 407.777 239.787 409.388 239.285C410.148 239.046 410.955 239.19 411.381 240.036C411.715 240.709 411.73 242.072 412.901 241.336C413.966 240.666 413.775 239.366 413.144 238.368C412.15 236.805 410.602 236.26 408.833 236.571C406.845 236.924 405.846 238.296 405.54 240.222C404.862 244.495 406.31 248.074 409.321 251.018C411.543 253.198 412.776 255.793 413.374 258.799C413.694 260.41 413.316 261.552 411.883 262.441C411.075 262.943 409.302 263.201 410.081 264.534C410.822 265.801 412.432 265.366 413.68 264.807C415.472 264.004 416.413 262.627 416.27 260.611C415.998 256.687 415.061 253.05 412.231 250.053C410.2 247.902 408.083 245.694 408.174 242.406ZM392.875 307.725C392.483 309.575 393.516 311.558 393.559 313.656C393.592 315.253 393.654 317.972 395.16 317.709C397.282 317.336 396.053 314.822 395.915 313.193C395.819 312.05 394.973 310.492 396.087 309.924C397.287 309.307 398.51 310.54 399.509 311.415C399.762 311.63 399.949 311.921 400.212 312.117C401.32 312.954 402.018 315.621 403.662 314.129C405.335 312.605 402.754 311.448 402.075 310.115C401.985 309.928 401.789 309.747 401.598 309.666C399.643 308.815 399.987 307.739 400.952 306.191C402.262 304.083 401.602 302.066 399.595 300.738C397.721 299.5 394.816 300.542 393.606 302.597C392.708 304.131 392.89 305.79 392.875 307.725ZM370.24 323.664C370.307 321.48 370.451 319.382 369.237 317.499C367.889 315.41 364.811 314.803 363.377 316.361C360.514 319.463 359.874 326.971 362.168 330.561C364.056 333.51 367.201 333.381 368.945 330.26C370.111 328.181 370.446 325.925 370.24 323.664ZM379.393 299.796C379.206 298.042 379.245 296.226 378.771 294.558C378.231 292.661 377.419 290.974 374.757 290.954C372.214 290.94 371.11 292.297 370.46 294.267C369.839 296.15 369.786 298.128 370.14 300.136C370.742 303.586 373.118 306.511 375.431 306.449C377.878 306.387 379.316 303.964 379.393 299.796ZM354.727 322.331C353.106 321.786 352.409 320.529 351.3 319.86C350.287 319.243 349.99 316.835 348.413 318.077C347.72 318.627 348.991 320.338 349.551 321.461C349.646 321.652 349.771 321.872 349.947 321.987C354.454 324.883 355.123 329.519 355.539 334.274C355.582 334.714 355.582 335.201 355.783 335.569C356.227 336.396 356.399 337.773 357.656 337.539C358.976 337.295 358.545 336.162 358.464 335.135C358.024 329.366 356.419 323.607 358.244 317.8C358.435 317.198 358.283 316.481 358.259 315.817C358.235 315.119 358.058 314.421 357.255 314.34C356.395 314.258 356.208 314.999 356.074 315.659C355.625 317.814 355.2 319.975 354.727 322.331ZM384.985 283.819C383.422 283.943 379.03 287.752 379.24 288.985C379.928 292.99 380.793 296.967 381.649 300.939C381.845 301.842 382.428 302.63 383.522 302.396C384.813 302.119 384.583 300.972 384.258 300.255C382.676 296.79 384.425 295.05 387.312 293.626C388.287 293.143 389.888 292.302 389.09 290.95C388.373 289.731 386.93 290.4 385.845 291.05C385.563 291.222 385.286 291.437 384.97 291.518C384.153 291.719 383.288 293.292 382.538 291.786C382.05 290.816 381.601 289.454 382.839 288.455C383.957 287.547 385.147 286.715 385.888 285.43C386.552 284.283 386.108 283.8 384.985 283.819ZM410.325 309.948C409.789 307.07 409.488 303.734 408.489 300.618C407.5 297.531 407.443 295.141 410.511 293.315C411.228 292.89 411.964 292.116 411.175 291.107C410.377 290.089 409.498 290.739 408.853 291.232C406.573 292.962 404.355 294.788 402.142 296.608C401.488 297.149 400.565 297.684 401.287 298.759C401.87 299.634 402.745 299.839 403.59 299.223C405.669 297.708 405.713 299.701 405.923 300.7C406.597 303.93 406.979 307.219 407.667 310.445C407.868 311.391 408.035 313.03 409.426 312.863C410.731 312.71 410.119 311.257 410.325 309.948ZM351.08 294.525C352.227 294.692 353.173 294.142 353.795 293.139C354.402 292.149 355.63 291.021 354.607 289.898C353.408 288.584 352.719 290.305 352.041 290.902C350.354 292.379 349.938 291.127 349.718 289.87C348.987 285.63 348.356 281.382 348.251 277.061C348.198 274.863 347.84 272.664 347.539 270.475C347.448 269.806 346.999 269.256 346.181 269.323C345.55 269.371 345.603 269.945 345.603 270.332C345.603 277.74 345.923 285.129 347.706 292.36C348.093 293.932 349.297 294.706 351.08 294.525ZM381.491 381.857C382.222 381.408 382.934 381.093 383.498 380.61C387.867 376.877 392.612 373.656 397.291 370.334C398.649 369.374 401.607 368.509 400.02 366.406C398.825 364.828 397.191 367.443 395.709 368.083C395.317 368.255 395.002 368.609 394.639 368.857C390.012 372.074 385.429 375.353 381.462 379.396C381.032 379.831 380.263 380.17 380.492 380.944C380.592 381.279 381.08 381.499 381.491 381.857ZM171.593 108.771C172.744 113.173 171.239 115.592 167.267 117.518C160.203 120.949 153.173 124.472 145.746 126.976C134.476 130.785 124.182 136.611 113.533 141.715C111.77 142.557 110.628 143.971 110.694 145.821C110.761 147.709 112.664 148.067 114.102 148.492C124.927 151.718 135.862 154.295 147.256 154.4C150.019 154.424 152.351 153.171 154.894 152.254C155.754 155.164 154.879 157.86 154.473 160.517C153.178 169.005 153.632 177.579 153.46 186.082C152.843 216.679 150.396 247.233 151.237 277.864C151.797 298.166 149.632 318.445 150.621 338.743C151.386 354.424 149.708 369.952 148.461 385.528C147.988 391.478 147.988 397.471 147.892 403.45C147.858 405.696 147.557 406.82 144.752 407.226C138.845 408.081 133.052 409.792 127.035 408.301C118.466 406.179 110.126 403.398 102.512 398.833C99.6924 397.146 99.5252 394.083 99.4439 391.177C99.1811 381.872 99.5491 372.566 99.6399 363.261C99.7402 353.635 99.009 343.995 99.3483 334.384C100.17 311.095 99.7307 287.8 99.9792 264.506C100.099 253.657 99.0186 242.774 99.4774 231.949C100.462 208.669 100.696 185.398 100.648 162.104C100.634 156.063 101.236 149.969 103.301 144.119C104.472 140.798 106.24 138.642 109.638 137.137C128.727 128.701 147.691 119.989 166.679 111.343C168.362 110.578 169.958 109.637 171.593 108.771ZM133.224 349.286C133.224 347.886 133.363 346.648 133.2 345.448C132.087 337.185 129.664 329.442 123.278 323.626C119.89 320.539 118.413 320.868 115.77 324.534C114.929 325.7 114.007 326.823 113.29 328.061C106.388 340.086 104.663 352.417 110.862 365.349C112.143 368.026 116.019 369.23 115.78 372.103C115.545 374.884 113.71 377.604 112.984 380.495C112.276 383.324 113.065 384.376 116.033 384.376C121.978 384.366 127.489 382.445 132.995 380.505C134.715 379.898 134.983 378.808 134.061 377.436C133.009 375.878 132.001 374.196 130.6 372.996C127.675 370.492 127.728 368.002 129.071 364.532C130.983 359.576 134.376 354.907 133.224 349.286ZM134.586 276.382C134.773 273.763 134.156 271.321 133.038 268.998C131.489 265.796 129.124 263.583 125.381 263.54C121.577 263.502 119.388 265.853 117.797 269.032C115.335 273.954 115.111 279.183 116.745 284.187C118.427 289.33 119.402 294.047 116.759 299.199C115.636 301.393 116.817 303.223 119.809 303.151C124.12 303.046 128.364 302.124 132.698 302.32C134.505 302.401 134.921 301.01 134.519 299.548C134.17 298.286 133.611 297.058 132.961 295.92C131.805 293.903 131.599 292.059 132.474 289.736C134.08 285.477 134.061 280.861 134.586 276.382ZM127.202 230.09C127.202 229.096 127.322 228.083 127.183 227.103C126.433 221.869 126.065 216.435 121.472 212.765C116.597 208.86 112.754 210.112 111.282 216.235C109.423 223.953 111.98 231.065 116.019 237.254C118.518 241.087 118.81 244.409 117.706 248.328C117.448 249.241 117.108 250.029 117.94 250.727C118.843 251.482 119.746 251.114 120.721 250.727C123.685 249.551 126.662 248.414 129.673 247.377C133.191 246.163 133.788 244.944 131.274 242.387C127.91 238.96 126.108 235.251 127.207 230.424C127.231 230.319 127.207 230.205 127.202 230.09ZM133.353 178.406C133.229 177.254 133.21 175.692 132.871 174.2C132.034 170.516 128.956 167.581 125.773 167.299C121.921 166.955 120.497 169.703 118.972 172.513C115.775 178.397 117.596 184.27 119.402 189.834C120.831 194.226 121.534 198.011 118.953 202.15C117.62 204.291 118.896 205.519 121.281 205.29C124.784 204.951 128.287 204.554 131.771 204.047C135.561 203.498 135.958 202.962 134.39 199.727C132.469 195.755 131.269 191.87 132.44 187.348C133.152 184.61 133.052 181.661 133.353 178.406ZM152.103 404.812C162.173 400.195 171.401 394.04 181.228 388.974C182.332 388.405 182.37 387.54 182.303 386.464C181.677 376.194 180.888 365.928 180.535 355.643C179.488 325.313 179.273 294.955 177.304 264.644C176.444 251.406 176.042 238.129 175.273 224.871C174.293 208.067 174.326 191.215 173.194 174.406C172.548 164.799 172.185 155.169 171.717 145.548C171.65 144.172 171.425 143.221 169.829 144.392C166.775 146.629 163.281 148.081 159.931 149.778C159.042 150.227 158.578 150.648 158.507 151.704C158.134 157.329 157.317 162.95 157.312 168.57C157.293 187.21 156.428 205.82 155.907 224.445C155.572 236.303 154.707 248.16 154.793 260.013C154.875 270.652 155.496 281.3 155.147 291.939C154.722 305.02 154.225 318.091 154.468 331.187C154.769 347.264 154.626 363.313 152.7 379.334C151.687 387.75 151.625 396.276 151.132 404.745C151.682 404.788 151.935 404.894 152.103 404.812ZM383.675 266.809C383.804 268.931 384.478 270.9 385.706 272.65C386.686 274.04 387.551 274.136 388.177 272.339C388.918 270.227 389.08 268.019 389.042 265.82C388.951 260.826 389.037 255.769 386.122 251.238C384.454 256.347 383.35 261.48 383.675 266.809ZM400.412 248.232C400.278 247.214 399.996 245.876 398.529 245.948C397.244 246.015 397.115 247.324 397.048 248.18C396.88 250.349 396.995 252.543 396.995 255.301C399.619 253.231 400.78 251.038 400.412 248.232ZM359.731 275.159C359.755 277.085 360.323 277.917 362.493 276.97C364.061 276.287 364.453 275.804 363.669 274.155C362.627 271.971 361.805 269.691 359.726 267.431C359.726 270.346 359.702 272.755 359.731 275.159ZM398.811 303.653C398.696 302.96 398.128 302.377 397.392 302.683C395.313 303.543 395.408 305.331 395.709 307.472C397.683 306.745 399.194 305.914 398.811 303.653ZM367.516 320.739C367.368 319.473 366.799 318.201 365.361 318.24C364.061 318.278 363.745 319.578 363.635 320.687C363.525 321.781 363.516 322.89 363.568 323.989C363.678 326.102 363.095 329.495 365.533 329.519C367.975 329.543 367.502 326.178 367.54 324.047C367.54 322.943 367.64 321.829 367.516 320.739ZM374.527 293.65C372.157 293.698 372.902 297.211 372.941 299.314C372.969 301.12 373.753 303.452 375.445 303.319C376.941 303.204 376.066 300.671 376.425 299.275C375.961 297.201 376.931 293.607 374.527 293.65ZM239.966 188.519C236.682 193.767 236.319 199.497 237.705 205.438C238.393 208.392 240.233 210.232 242.9 211.46C249.749 214.624 258.223 210.614 260.23 203.187C261.105 199.951 261.291 196.639 260.947 193.308C260.206 186.216 257.386 183.716 249.864 183.807C245.6 182.607 242.312 184.763 239.966 188.519Z" fill="#BCD1D4"/>
<path d="M359.697 121.363C353.35 124.354 347.017 127.38 340.656 130.338C324.731 137.746 308.778 145.092 292.873 152.533C285.785 155.85 278.793 159.373 271.38 161.949C270.008 162.426 268.622 162.761 267.169 162.704C256.559 162.269 246.03 161.16 235.578 159.286C234.895 159.167 234.321 158.928 233.719 158.135C237.423 155.568 241.17 153.097 245.333 151.348C263.814 143.558 282.645 136.632 301.284 129.244C311.928 125.024 322.791 121.21 332.933 115.776C333.889 115.264 334.61 115.164 335.227 116.043C336.235 117.463 334.634 117.482 334.085 117.754C322.629 123.403 311.354 129.354 299.138 133.435C289.345 136.704 280.241 141.856 270.457 145.293C264.526 147.376 258.61 149.522 253.142 152.672C251.756 153.47 249.314 154.641 250.107 156.008C251.24 157.953 252.975 155.735 254.246 155.028C259.087 152.337 264.306 150.559 269.401 148.48C286.535 141.503 303.702 134.606 320.731 127.385C326.5 124.933 331.924 121.645 337.459 118.657C339.987 117.291 341.712 119.862 343.94 119.57C344.183 120.956 343.041 120.88 342.506 121.143C322.672 131.031 302.407 139.945 281.727 147.931C276.083 150.11 270.477 152.505 265.42 155.941C264.674 156.448 263.398 157.064 264.12 158.225C264.603 159 265.75 158.813 266.558 158.34C279.567 150.688 294.268 146.898 307.736 140.26C321.08 133.688 335.222 128.766 347.921 120.822C349.861 119.609 352.208 120.985 354.387 120.727C356.079 120.531 357.814 120.689 359.53 120.689C359.587 120.913 359.644 121.138 359.697 121.363ZM302.297 53.802C301.365 53.4723 300.668 53.4866 299.822 53.998C289.522 60.2876 278.272 64.7371 267.676 70.3815C249.73 79.9449 231.105 88.0268 212.891 96.9928C211.877 97.4946 210.898 98.5031 209.473 97.8817C209.602 97.5711 209.641 97.1505 209.851 97.0262C238.197 80.3225 268.321 67.0647 298.158 51.6131C296.003 51.5223 295.601 48.7885 293.432 50.2606C286.913 54.6814 279.576 57.5108 272.489 60.8085C263.991 64.7658 255.307 68.3216 246.895 72.4462C235.702 77.9376 224.657 83.7349 213.631 89.5466C208.928 92.0271 204.116 94.1539 199.088 95.8696C193.697 97.7145 188.377 99.76 183.55 103.278C186.021 105.285 188.831 105.93 191.58 106.422C196.899 107.373 202.008 109.046 207.552 105.83C223.677 96.4766 240.859 89.1738 257.682 81.1923C269.444 75.6101 280.7 69.0099 292.786 64.0967C298.804 61.6497 304.677 58.8586 310.819 54.9108C307.449 54.9873 304.811 54.7006 302.297 53.802ZM368.18 194.792C366.551 196.245 364.524 197.277 362.622 198.405C350.081 205.871 337.029 212.385 323.847 218.588C313.949 223.248 304.142 228.047 294.536 233.27C293.346 233.92 291.797 234.178 291.228 235.708C292.06 236.219 292.892 236.444 293.809 236.444C302.465 236.444 311.12 236.645 319.766 236.377C322.528 236.291 325.453 236.286 328.134 234.919C352.346 222.56 375.474 208.27 399.198 195.041C400.613 194.257 402.252 193.655 403.667 191.628C399.38 193.1 395.365 192.307 391.776 194.056C380.554 199.524 370.689 207.405 359.195 212.394C358.091 212.872 357.073 213.57 356.046 214.22C347.008 219.955 336.751 223.64 328.445 230.613C328.278 230.752 328.067 230.843 327.867 230.943C327.236 231.273 326.49 231.411 326.012 230.886C325.377 230.188 326.156 229.681 326.581 229.261C327.36 228.482 328.22 227.774 329.071 227.067C335.595 221.638 343.552 218.622 350.674 214.244C362.111 207.209 374.632 202.09 384.999 194.104C381.089 193.702 381.223 193.965 377.916 195.662C372.764 198.3 368.414 202.176 363.334 204.838C347.194 213.298 330.744 221.16 315.197 230.723C313.629 231.688 311.913 232.611 309.648 232.291C310.632 230.804 311.803 229.992 312.993 229.222C320.798 224.19 328.76 219.425 337.029 215.2C350.377 208.384 363.931 201.937 376.009 193.487C373.289 191.834 370.718 192.531 368.18 194.792ZM147.423 145.422C153.517 140.241 160.629 136.914 167.578 133.34C171.635 131.256 171.932 130.864 170.598 126.128C160.772 132.345 151.113 138.864 138.787 141.632C139.843 139.199 141.32 138.372 142.735 137.674C151.777 133.234 160.485 128.216 169.102 123.016C171.005 121.869 171.564 120.851 170.861 118.758C153.058 129.483 132.407 133.894 114.532 145.178C123.283 147.353 131.489 150.846 140.446 150.564C143.633 150.469 146.85 152.06 149.952 150.655C156.284 147.792 162.622 144.958 168.615 141.364C171.229 139.792 171.659 138.023 170.818 135.175C163.143 139.041 155.782 143.424 147.423 145.422ZM344.006 350.067C342.984 354.378 343.352 358.556 346.444 361.877C349.417 365.075 353.269 366.781 357.771 366.222C364.046 365.438 367.454 361.218 369.418 355.736C370.231 353.47 370.943 353.308 373.256 353.786C383.46 355.913 389.166 353.59 390.667 344.6C391.221 341.254 392.349 340.929 395.212 340.996C403.633 341.188 409.345 335.701 409.378 327.543C409.388 326.013 409.999 326.037 411.065 325.846C416.456 324.9 418.401 322.983 419.41 317.855C419.615 316.808 419.663 315.685 418.559 315.269C417.469 314.858 417.101 315.938 416.729 316.732C416.451 317.329 416.15 317.927 415.964 318.557C414.917 322.046 412.274 323.169 409.048 322.792C406.095 322.448 405.516 323.518 406.099 326.142C407.089 330.568 405.435 333.923 401.607 336.241C398.328 338.224 394.863 338.1 391.35 337.015C387.479 335.816 387.173 336.064 387.771 340.083C388.478 344.805 386.093 350.173 382.49 350.765C378.494 351.425 374.317 351.85 370.871 348.619C369.146 347.004 367.884 347.463 367.478 349.867C367.009 352.596 366.422 355.272 364.978 357.71C362.292 362.231 358.163 364.138 353.536 362.905C348.337 361.514 345.689 358.001 345.612 352.486C345.598 351.42 345.937 350.283 344.948 348.877C344.499 349.432 344.093 349.709 344.006 350.067ZM338.854 251.322C341.359 246.724 346.109 245.74 349.493 249.09C350.545 250.132 350.707 252.56 352.528 252.177C354.664 251.723 353.67 249.329 353.995 247.866C356.022 238.719 361.303 236.238 369.208 240.922C370.699 241.806 371.942 241.959 372.338 239.775C372.496 238.905 372.697 238.04 372.941 237.194C374.914 230.312 382.246 227.401 387.771 231.292C393.234 235.139 393.234 235.139 394.271 228.424C395.14 222.78 399.757 219.386 403.877 221.465C405.029 222.049 405.918 223.138 406.95 223.965C407.81 224.649 408.752 224.954 409.56 223.932C410.277 223.019 409.67 222.34 409.034 221.633C404.279 216.371 397.597 216.863 393.535 222.627C392.02 224.782 391.819 227.339 390.873 229.672C381.572 224.481 374.862 226.45 370.384 235.823C369.619 237.414 369.155 237.06 367.989 236.582C362.431 234.284 356.767 236.128 353.556 241.171C352.48 242.853 351.854 244.722 351.257 246.605C343.882 243.952 341.182 244.349 337.985 248.512C335.538 251.699 335.122 255.752 337.378 258.926C337.688 255.953 337.655 253.53 338.854 251.322ZM261.343 380.502C262.796 380.325 264.622 380.192 264.306 378.251C263.953 376.115 262.041 377.066 260.765 377.248C253.835 378.242 246.934 378.352 240.023 377.08C239.072 376.908 237.652 375.36 237.107 377.529C236.668 379.264 238.044 379.886 239.335 380.273C243.072 381.401 246.996 381.104 251.068 381.754C254.342 381.358 257.84 380.923 261.343 380.502ZM242.479 390.281C241.423 390.362 239.999 390.066 239.889 391.609C239.774 393.177 241.284 393.12 242.288 393.282C244.898 393.712 247.526 394.032 250.15 394.343C252.32 394.601 254.466 395.371 256.693 394.506C257.544 394.171 258.49 394.071 258.342 392.866C258.222 391.906 257.467 391.758 256.636 391.672C252.248 391.232 247.861 390.754 243.344 390.276C243.144 390.276 242.809 390.252 242.479 390.281ZM197.186 142.74C194.657 142.372 191.675 144.862 190.576 148.294C190.275 149.231 190.036 150.196 189.845 151.166C189.673 152.022 189.711 153.135 188.559 153.131C187.536 153.131 187.245 152.046 186.953 151.233C186.231 149.255 185.758 147.219 185.816 145.082C185.844 144.055 185.711 142.884 184.473 142.769C183.001 142.631 182.594 143.993 182.623 145.03C182.695 148.012 183.015 151.013 184.626 153.637C185.72 155.42 187.34 156.691 189.539 156.323C191.637 155.97 192.057 154.02 192.445 152.299C192.832 150.574 193.118 148.815 194.132 147.333C194.691 146.511 195.417 145.794 196.579 145.88C198.041 145.986 197.817 147.247 198.079 148.112C198.639 149.972 198.395 151.812 197.874 153.666C197.692 154.316 197.253 155.367 198.103 155.778C199.035 156.228 199.762 155.353 200.33 154.722C201.516 153.394 201.291 151.611 201.669 150.258C201.702 146.158 199.833 143.118 197.186 142.74ZM196.493 359.01C198.796 357.499 198.801 356.266 196.478 354.88C195.436 354.259 194.323 353.752 193.295 353.112C192.387 352.543 191.862 351.616 192.091 350.569C192.349 349.403 193.501 349.723 194.323 349.633C196.416 349.403 198.519 349.255 200.617 349.059C201.578 348.968 202.419 348.61 202.386 347.491C202.347 346.239 201.286 346.263 200.421 346.258C198.868 346.254 197.31 346.268 195.771 346.416C193.314 346.655 190.356 346.172 189.386 349.355C188.382 352.639 190.021 354.875 192.836 356.438C193.075 356.572 193.195 356.916 193.448 357.27C192.564 357.872 191.742 358.403 190.953 358.976C189.739 359.856 188.808 360.883 189.056 362.57C189.3 364.243 190.705 364.582 191.914 364.955C194.438 365.739 197.004 366.403 199.585 366.972C200.321 367.134 201.501 367.517 201.745 366.198C201.965 365.032 200.952 364.697 200.125 364.458C197.482 363.698 194.82 363.019 191.89 362.236C193.209 360.357 195.04 359.965 196.493 359.01ZM186.829 171.98C185.013 173.734 185.515 176.32 187.565 176.569C190.409 176.917 193.271 177.08 196.134 177.266C197.114 177.328 198.271 177.429 198.519 176.086C198.811 174.49 197.396 174.26 196.435 174.055C194.461 173.639 192.359 174.222 189.907 173.409C191.474 172.281 192.698 171.378 193.941 170.508C195.312 169.543 196.512 168.396 197.444 167.005C198.591 165.294 198.634 163.602 196.249 163.368C193.291 163.076 190.275 163.296 187.292 163.411C186.365 163.444 185.481 164.2 185.462 165.079C185.438 166.288 186.566 166.589 187.603 166.618C189.319 166.661 191.039 166.628 193.405 166.628C190.844 168.687 188.693 170.183 186.829 171.98ZM198.438 186.022C197.855 183.24 195.245 181.247 192.186 181.104C189.204 180.965 187.044 182.06 186.083 185.042C184.788 189.071 185.94 192.842 189.29 195.499C193.706 198.998 196.646 198.037 198.122 192.57C198.433 191.413 198.538 190.199 198.705 189.229C198.61 187.991 198.643 186.983 198.438 186.022ZM193.343 194.434C191.732 194.845 188.239 191.093 188.463 189.296C188.731 187.112 188.712 184.421 191.862 184.082C194.141 183.833 195.785 185.855 195.804 189.143C195.116 190.706 196.316 193.683 193.343 194.434ZM195.078 249.654C194.275 249.09 193.3 248.559 192.841 247.766C192.057 246.409 194.232 238.953 195.432 237.825C196.163 237.142 197.611 236.602 196.784 235.239C196.015 233.973 194.887 234.599 193.874 235.11C190.671 236.726 188.129 239.144 185.816 241.816C184.769 243.02 184.554 244.487 185.696 245.73C188.22 248.488 191.14 250.782 194.552 252.359C195.341 252.722 196.316 252.799 196.708 251.599C196.555 250.619 195.809 250.165 195.078 249.654ZM197.372 321.425C195.064 320.641 192.937 321.105 191.804 322.988C190.103 325.808 189.133 328.948 190.413 332.384C191.537 335.409 194.06 336.69 196.775 336.9C199.59 337.125 200.34 334.391 201.043 332.183C201.473 330.836 201.626 329.402 201.855 328.264C201.731 324.857 200.584 322.519 197.372 321.425ZM196.316 333.631C194.7 334.124 192.526 331.103 192.688 328.546C192.813 326.515 193.023 323.996 195.776 323.948C197.955 323.91 198.844 325.76 199.083 328.054C197.989 329.708 199.136 332.776 196.316 333.631ZM189.166 314.256C189.204 315.585 189.735 316.846 191.245 316.665C192.607 316.502 192.115 315.288 192.091 314.28C192.024 311.322 192.191 308.43 196.483 308.903C197.205 308.98 197.993 308.621 198.729 308.392C199.685 308.091 200.813 307.766 200.503 306.447C200.249 305.381 199.222 305.405 198.318 305.467C196.464 305.591 194.151 306.475 192.875 305.677C191.231 304.654 192.072 302.007 191.723 300.081C191.537 299.024 191.331 297.672 189.821 297.82C187.942 298.002 188.349 299.617 188.569 300.668C189.137 303.412 189.185 306.165 189.147 308.937C189.152 310.705 189.113 312.483 189.166 314.256ZM190.949 274.282C194.055 272.461 196.478 269.856 198.806 267.194C199.637 266.243 199.312 265.039 198.175 264.35C195.03 262.443 192.33 259.987 189.587 257.573C188.841 256.918 187.842 256.35 186.939 257.339C186.016 258.357 186.767 259.251 187.488 259.92C189.357 261.65 191.149 263.533 193.262 264.9C195.422 266.296 194.935 267.256 193.367 268.527C191.909 269.708 190.471 270.917 189.032 272.126C188.497 272.576 188.153 273.135 188.363 273.866C188.554 274.511 189.099 274.607 189.83 274.621C190.112 274.54 190.581 274.497 190.949 274.282ZM189.438 216.127C189.305 215.243 188.841 214.421 187.67 214.578C186.676 214.712 186.485 215.424 186.47 216.256C186.418 220.777 186.819 225.313 186.122 229.825C186.016 230.498 186.394 231.129 187.159 231.301C187.962 231.478 188.392 231.029 188.588 230.307C188.793 229.571 189.18 228.807 189.123 228.085C188.913 225.533 190.313 224.596 192.54 224.161C194.146 223.846 195.714 223.31 197.267 222.785C197.74 222.622 198.352 222.297 198.285 221.628C198.208 220.849 197.592 220.634 196.885 220.543C194.509 220.232 192.363 221.298 190.026 221.719C189.835 219.817 189.72 217.957 189.438 216.127ZM193.52 283.181C191.871 283.181 190.217 283.095 188.578 283.214C187.675 283.281 186.901 283.864 186.905 284.901C186.905 285.637 187.589 286.316 188.158 286.201C191.532 285.528 194.949 286.206 198.318 285.771C199.16 285.661 199.762 285.193 199.747 284.266C199.728 283.229 198.925 283.071 198.132 283.052C196.593 283.018 195.054 283.042 193.52 283.042C193.52 283.09 193.52 283.133 193.52 283.181ZM187.966 204.551C187.154 204.886 186.619 205.455 186.824 206.282C187.044 207.175 187.833 207.376 188.678 207.084C190.284 206.53 191.971 206.836 193.587 206.583C195.121 206.344 197.922 207.534 197.735 204.896C197.597 202.965 194.982 204.193 193.883 203.916C191.627 203.868 189.754 203.811 187.966 204.551ZM128.373 375.56C124.387 371.942 123.178 368.105 125.854 362.89C127.584 359.531 129.506 355.999 129.845 352.089C130.524 344.242 128.478 336.986 124.511 330.248C123.618 328.733 122.614 327.265 121.094 326.233C120.2 325.626 119.622 325.263 118.666 326.376C109.227 337.359 106.813 359.373 117.744 368.597C119.254 369.873 119.579 371.417 118.638 373.328C117.476 375.685 116.563 378.165 116.076 380.932C121.085 381.233 125.658 379.996 130.242 377.926C129.592 377.095 129.09 376.21 128.373 375.56ZM129.205 299.741C131.135 299.689 131.207 298.986 130.419 297.567C129.185 295.339 127.823 293.136 128.923 290.402C130.481 286.55 130.605 282.421 131.121 278.378C131.518 275.29 131.336 272.212 129.477 269.445C127.025 265.798 123.622 265.765 121.323 269.493C118.719 273.723 118.504 278.387 119.699 282.966C121.209 288.754 123.063 294.403 118.556 300.506C122.843 300.181 126.022 299.837 129.205 299.741ZM121.242 247.183C123.909 246.38 126.576 245.572 130.318 244.449C122.786 240.205 123.68 233.734 123.88 227.473C123.89 227.033 123.904 226.575 123.818 226.144C123.025 222.168 122.805 217.938 119.311 215.071C116.688 212.915 115.302 213.293 114.403 216.548C113.041 221.475 114.336 226.14 116.014 230.771C117.978 236.191 122.662 240.755 121.276 247.25L121.242 247.183ZM129.883 201.789C131.494 201.66 132.034 201.053 131.15 199.5C129.109 195.93 128.578 192.183 129.119 188.039C129.678 183.785 130.442 179.479 129.869 175.135C129.544 172.654 128.081 171.072 125.73 170.527C123.388 169.987 122.815 172.057 121.993 173.558C119.034 178.973 120.822 184.431 122.38 189.645C123.684 194.018 124.808 198.075 121.438 202.539C124.851 202.233 127.365 201.995 129.883 201.789Z" fill="#F8F2EC"/>
</g>
<defs>
<clipPath id="clip0_512_132">
<rect width="500" height="500" rx="250" fill="white"/>
</clipPath>
</defs>
</svg>
