<svg width="500" height="500" viewBox="0 0 500 500" fill="none" xmlns="http://www.w3.org/2000/svg">
<g clip-path="url(#clip0_512_71)">
<path d="M550 -50H-50V550H550V-50Z" fill="white"/>
<path d="M550 -50H-50V550H550V-50Z" fill="#BCD1D4"/>
<path d="M583.322 499.995H552.119C552.119 499.995 476.76 479.396 470.859 499.995H418.025C411.536 479.907 378.822 480.74 374.499 499.995H289.213C270.718 475.891 238.76 474.37 236.484 499.995H189.359C183.14 494.808 99.2754 488.605 93.2337 499.995H71.5358C61.2389 474.381 42.2181 481.74 31.3848 499.995H-33.2871C-44.5892 473.876 -83.334 441.36 -83.334 441.36V374.589C-68.3652 364.704 -69.0007 330.214 -83.334 307.865V224.667C-62.5059 204.792 -71.1725 178.542 -83.334 161.532V82.3548C-83.334 82.3548 -75.6934 83.9277 -83.334 78.5579V0.00585938H-52.3132C-52.3132 0.00585938 -46.7715 16.7559 -43.9277 13.4017C-41.0736 10.0579 -39.5892 0.00585938 -39.5892 0.00585938H18.2858C18.2858 0.00585938 33.6035 9.83919 62.0723 6.01107C90.541 2.18294 94.1191 0.00585938 94.1191 0.00585938H122.041C122.041 0.00585938 125.869 17.6725 145.796 12.0215C165.718 6.37044 177.077 0.00585938 177.077 0.00585938H253.244C253.244 0.00585938 259.921 29.1361 270.926 0.00585938H323.104C337.187 14.0736 392.661 0.00585938 392.661 0.00585938H459.979C474.822 16.9173 482.249 4.85482 502.567 0.00585938H521.098C521.098 0.00585938 529.911 23.1152 543.14 18.9277C556.369 14.7454 583.322 5.42773 583.322 5.42773V48.5579C583.322 48.5579 566.572 117.334 583.322 127.157V197.594C573.286 205.798 572.229 265.725 583.322 274.975V335.084C570.098 343.105 568.244 347.917 583.322 359.829V399.287C567.755 421.636 568.744 453.86 583.322 472.329V499.995Z" fill="#FFABDA"/>
<path d="M-41.4277 308.808C-39.1152 330.667 -36.3809 352.256 -34.1673 374.063C-49.4329 376.803 -65.5267 377.433 -83.334 374.584V307.86C-69.0944 311.636 -55.3548 311.48 -41.4277 308.808ZM-40.0527 153.605C-55.4486 158.173 -69.8652 161.355 -83.334 161.532V224.667C-70.9069 226.975 -58.5944 226.98 -46.2402 225.464C-46.0996 209.98 -45.2559 194.11 -43.4121 177.704C-42.4902 169.428 -41.3548 161.396 -40.0527 153.605ZM-39.5892 0.00585938H-52.3132C-59.6361 13.7819 -72.0892 40.2194 -83.334 78.5579V82.3548C-71.8496 84.4277 -51.2923 86.8652 -22.8652 85.2507C-12.2715 54.2559 0.259767 29.5475 11.0983 11.4642C-7.42773 10.1413 -24.1725 6.46419 -39.5892 0.00585938ZM-34.1673 374.063C-31.7506 397.85 -29.9694 421.891 -30.0475 446.839C-8.93294 445.016 11.7754 439.12 32.8952 432.235C31.9108 409.001 29.765 382.907 26.6244 354.381C6.35873 362.527 -13.1256 370.287 -34.1673 374.063ZM14.791 209.553C-6.13606 216.589 -26.2454 223.011 -46.2402 225.464C-46.4902 254.282 -44.2871 281.756 -41.4277 308.808C-22.3652 305.157 -2.95898 296.829 18.5462 287.501C15.2702 259.464 13.2546 234.87 14.791 209.553ZM55.6035 72.4382C25.2129 80.4017 -1.12565 84.0111 -22.8652 85.2507C-29.7559 105.407 -35.8132 128.225 -40.0527 153.605C-18.2767 147.136 5.4681 137.902 31.2858 130.506C37.3431 112.969 45.3014 93.8757 55.6035 72.4382ZM36.7962 279.662C30.5306 282.298 24.4629 284.943 18.5514 287.506C20.3744 303.1 22.5827 319.761 24.7754 338.204C25.4264 343.683 26.0462 349.079 26.6296 354.391C41.7077 348.339 57.2181 342.089 74.1296 337.12C81.3691 335.001 88.5566 333.282 95.7129 331.928C93.416 308.542 91.0514 285.787 90.1764 263.24C72.0202 266.355 55.015 271.98 36.7962 279.662ZM113.65 118.454C84.1191 117.745 56.6973 123.225 31.2858 130.506C21.0827 160.027 16.2858 185.126 14.7962 209.548C40.1608 201.011 66.7077 191.568 95.6712 187.178C100.744 161.579 106.885 138.751 113.65 118.454ZM95.6973 331.917C98.1973 357.381 100.619 383.6 100.942 411.12C126.999 404.771 154.682 401.355 185.171 405.459C181.135 382.563 176.223 357.641 172.562 330.48C147.39 326.964 121.833 326.975 95.6973 331.917ZM170.307 202.24C171.062 198.068 171.864 193.959 172.692 189.896C172.572 189.87 172.463 189.844 172.343 189.818C144.723 183.365 119.39 183.584 95.666 187.183C94.3431 193.844 93.0931 200.683 91.9212 207.73C89.7441 226.251 89.4473 244.678 90.166 263.24C112.614 259.386 136.817 259.386 167.265 264.136C166.937 244.506 167.755 223.896 170.307 202.24ZM167.275 264.126C167.676 287.631 169.76 309.714 172.567 330.49C200.765 334.433 228.463 342.792 255.932 353.553C251.775 330.995 248.187 307.271 245.676 282.454C215.051 273.589 189.494 267.589 167.275 264.126ZM243.218 211.152C244.963 186.464 249.734 162.459 256.27 139.834C233.322 136.365 210.749 132.594 188.864 128.907C182.723 147.568 177.182 167.912 172.692 189.896C203.869 197.193 225.885 204.6 243.218 211.152ZM272.52 360.344C266.999 357.995 261.463 355.73 255.926 353.553C260.984 381.027 266.869 406.771 272.619 430.683C300.755 438.001 327.161 440.933 351.963 440.975C345.411 423.141 339.005 403.23 333.702 378.865C314.083 375.61 293.947 369.459 272.52 360.344ZM243.218 211.152C242.432 222.318 242.26 233.626 242.833 245.006C243.473 257.745 244.447 270.235 245.676 282.454C249.426 283.542 253.249 284.667 257.156 285.839C282.463 293.438 303.859 297.365 322.624 298.751C322.385 295.376 322.156 291.938 321.952 288.438C320.874 269.975 321.343 251.298 322.973 232.761C292.551 233.261 276.593 223.782 243.218 211.152ZM354.14 93.2819C327.124 90.4902 302.442 85.0527 278.827 79.1465C270.437 97.6829 262.546 118.12 256.27 139.839C282.916 143.87 310.077 147.511 337.265 150.178C342.275 130.141 348.093 110.99 354.14 93.2819ZM322.624 298.745C324.9 330.417 328.843 356.516 333.702 378.865C363.406 383.792 391.921 382.074 421.926 373.886C416.327 358.183 410.322 339.563 403.838 316.688C401.364 307.954 399.348 299.204 397.739 290.464C376.046 296.641 352.739 300.969 322.624 298.745ZM386.583 222.923C388.666 222.438 390.739 221.954 392.812 221.48C393.567 198.355 396.536 175.808 400.921 154.386C379.843 153.761 358.546 152.266 337.27 150.178C330.671 176.563 325.468 204.501 322.984 232.756C338.775 232.495 358.489 229.537 386.583 222.923ZM417.369 94.3236C426.546 67.4538 436.958 44.0319 446.15 25.6934C425.036 30.4382 402.994 29.834 380.338 26.4434C372.322 44.5215 362.989 67.3652 354.14 93.2819C373.812 95.3132 394.723 95.9382 417.369 94.3236ZM421.916 373.886C430.218 397.188 437.614 414.079 444.301 428.98C475.499 421.417 503.479 411.933 528.708 405.652C522.687 386.798 516.369 369.256 510.202 352.298C489.88 353.23 469.51 356.881 450.765 364.235C440.952 368.089 431.364 371.308 421.916 373.886ZM397.739 290.464C425.01 282.688 449.739 271.985 482.244 267.662C477.244 248.417 473.369 228.365 471.234 206.459C446.406 210.256 420.041 215.235 392.812 221.48C392.067 244.084 393.458 267.245 397.739 290.464ZM471.265 152.761C473.656 128.178 478.999 104.704 485.682 83.2507C461.135 89.3496 438.494 92.8132 417.369 94.3236C411.025 112.881 405.281 133.074 400.916 154.386C424.744 155.089 448.307 154.683 471.265 152.761ZM502.567 0.00585938H459.979C456.031 6.79232 451.281 15.4486 446.15 25.6882C452.609 24.235 458.989 22.2871 465.265 19.7611C479.958 13.8496 492.255 7.13086 502.567 0.00585938ZM482.244 267.657C489.744 296.532 499.77 323.574 510.213 352.298C535.775 351.126 561.265 354.277 583.322 359.829V335.084C570.822 313.579 561.807 291.511 555.577 269.428C526.312 264.745 502.729 264.933 482.244 267.657ZM470.895 202.881C470.999 204.079 471.109 205.266 471.229 206.454C497.562 202.423 522.171 199.719 544.249 198.235C543.301 178.152 544.13 158.568 546.161 139.938C522.281 146.511 497.156 150.6 471.265 152.761C469.687 169.068 469.4 185.865 470.895 202.881ZM583.322 0.00585938H521.098C510.27 20.1882 496.291 49.1621 485.682 83.2507C509.671 77.2871 535.484 68.8079 563.484 57.1725C570.197 35.5111 577.479 17.7507 583.322 5.42773V0.00585938ZM583.322 274.975V196.85C571.473 196.839 558.38 197.287 544.249 198.245C545.343 221.532 548.822 245.49 555.577 269.433C564.301 270.818 573.525 272.652 583.322 274.975ZM583.322 127.157V48.5579C576.593 51.6048 569.979 54.4746 563.484 57.1725C556.161 80.8027 549.515 109.063 546.161 139.938C558.926 136.423 571.338 132.183 583.322 127.157ZM583.322 472.324V399.282C566.661 397.766 548.536 400.714 528.713 405.652C535.176 425.881 541.317 447.62 546.583 471.761C558.077 471.501 570.307 471.673 583.322 472.324ZM351.963 440.975C359.796 462.271 367.838 480.594 374.499 499.995H418.025C431.562 493.449 447.197 487.277 465.838 482.376C459.479 462.235 452.421 447.074 444.307 428.98C416.239 435.792 385.572 441.032 351.963 440.975ZM185.171 405.459C190.562 436.053 194.385 463.042 191.609 486.985C206.63 489.308 221.718 493.459 236.479 499.99H289.208C284.577 479.016 278.676 455.87 272.619 430.673C260.197 427.443 247.442 423.365 234.338 418.292C217.104 411.631 200.77 407.563 185.171 405.459ZM100.942 411.12C77.2233 416.896 54.8431 425.094 32.8952 432.245C34.015 458.761 33.5983 481.553 31.3796 499.995H71.5254C78.7129 497.61 86.4004 495.318 94.4941 493.266C99.666 464.396 101.244 437.173 100.942 411.12ZM-83.334 441.36V499.256C-82.5996 499.501 -81.8548 499.751 -81.1152 499.995H-33.2871C-31.0475 481.709 -30.0996 464.058 -30.0475 446.839C-47.3913 448.344 -65.0059 447.079 -83.334 441.36ZM94.4941 493.266C94.0983 495.501 93.666 497.745 93.2233 499.995H189.348C190.348 495.761 191.093 491.428 191.609 486.99C157.322 481.688 123.38 485.933 94.4941 493.266ZM470.848 499.995H552.114C550.406 490.219 548.557 480.818 546.577 471.761C514.437 472.49 488.02 476.532 465.833 482.376C467.557 487.829 469.229 493.657 470.848 499.995ZM55.6035 72.4382C57.2702 72.0007 58.9473 71.5527 60.6348 71.0892C60.6504 71.084 60.666 71.084 60.6816 71.0788C62.3796 70.6152 64.0879 70.1361 65.8119 69.6413C69.3639 68.6257 72.9733 67.5475 76.6296 66.4121C99.2598 59.3652 120.202 56.0996 140.171 55.4017C130.926 73.0267 121.827 93.8913 113.64 118.454C122.906 118.673 132.385 119.506 142.067 121.084C157.218 123.558 172.854 126.214 188.854 128.907C197.041 104.032 206.275 82.1517 215.505 63.3548C191.041 58.0371 166.458 54.485 140.166 55.4017C152.854 31.2402 165.807 13.1673 177.077 0.00585938H122.041C111.156 2.30273 100.718 4.31315 90.6973 5.99544C76.7494 30.584 65.166 52.5215 55.6035 72.4382ZM315.406 11.735C300.676 7.75586 285.822 3.64128 270.926 0.00585938H253.244C243.119 13.9746 229.338 35.1934 215.51 63.3548C236.374 67.8965 257.156 73.7142 278.827 79.1361C291.15 51.9069 304.536 28.7715 315.406 11.735ZM392.661 0.00585938H323.104C320.734 3.50586 318.15 7.41732 315.406 11.735C337.406 17.6725 359.14 23.2715 380.338 26.4434C385.02 15.8965 389.244 6.97461 392.661 0.00585938ZM90.6973 5.99544C91.8171 4.01628 92.9629 2.01628 94.1191 0.00585938H18.2858C16.0046 3.4694 13.5983 7.2819 11.0983 11.4642C34.4941 13.1204 60.7337 11.0215 90.6973 5.99544Z" fill="#F38143"/>
</g>
<defs>
<clipPath id="clip0_512_71">
<rect width="500" height="500" rx="250" fill="white"/>
</clipPath>
</defs>
</svg>
