<svg width="500" height="500" viewBox="0 0 500 500" fill="none" xmlns="http://www.w3.org/2000/svg">
<g clip-path="url(#clip0_512_545)">
<path d="M550 -50H-50V550H550V-50Z" fill="white"/>
<path d="M550 -50H-50V550H550V-50Z" fill="#0C776D"/>
<path d="M129.371 133.359H139.051V143.04H129.371V133.359Z" fill="#F8F2EC"/>
<path d="M148.73 133.359H158.406V143.04H148.73V133.359Z" fill="#F8F2EC"/>
<path d="M168.09 133.359H177.77V143.04H168.09V133.359Z" fill="#F8F2EC"/>
<mask id="mask0_512_545" style="mask-type:luminance" maskUnits="userSpaceOnUse" x="110" y="114" width="281" height="272">
<path d="M110 114H390.626V385.01H110V114Z" fill="white"/>
</mask>
<g mask="url(#mask0_512_545)">
<path d="M371.351 114H129.368C128.735 114 128.102 114.032 127.47 114.096C126.841 114.159 126.213 114.25 125.594 114.378C124.97 114.501 124.355 114.656 123.75 114.838C123.144 115.024 122.547 115.238 121.965 115.48C121.377 115.721 120.804 115.994 120.248 116.295C119.688 116.591 119.146 116.919 118.618 117.269C118.09 117.624 117.584 117.998 117.093 118.403C116.601 118.804 116.132 119.227 115.686 119.678C115.24 120.124 114.811 120.593 114.411 121.085C114.01 121.572 113.632 122.082 113.277 122.61C112.926 123.138 112.599 123.68 112.303 124.24C112.002 124.796 111.733 125.369 111.488 125.957C111.246 126.54 111.032 127.136 110.846 127.742C110.663 128.347 110.509 128.962 110.386 129.586C110.263 130.205 110.167 130.833 110.103 131.462C110.04 132.095 110.008 132.728 110.008 133.36V326.947C110.008 327.58 110.04 328.212 110.103 328.845C110.167 329.474 110.263 330.102 110.386 330.721C110.509 331.345 110.663 331.96 110.846 332.565C111.032 333.171 111.246 333.767 111.488 334.355C111.733 334.938 112.002 335.511 112.303 336.067C112.599 336.627 112.926 337.169 113.277 337.697C113.632 338.225 114.01 338.735 114.411 339.222C114.811 339.714 115.24 340.183 115.686 340.629C116.132 341.08 116.601 341.503 117.093 341.904C117.584 342.309 118.09 342.683 118.618 343.038C119.146 343.388 119.688 343.716 120.248 344.012C120.804 344.313 121.377 344.586 121.965 344.827C122.547 345.069 123.144 345.283 123.75 345.469C124.355 345.651 124.97 345.806 125.594 345.929C126.213 346.057 126.841 346.148 127.47 346.211C128.102 346.275 128.735 346.307 129.368 346.307H214.701L212.064 375.343H197.125V385.023H303.599V375.343H288.659L286.018 346.307H371.351C371.989 346.307 372.621 346.275 373.25 346.211C373.883 346.148 374.506 346.057 375.13 345.929C375.749 345.806 376.364 345.651 376.97 345.469C377.575 345.283 378.172 345.069 378.759 344.827C379.342 344.586 379.916 344.313 380.476 344.012C381.031 343.716 381.578 343.388 382.101 343.038C382.629 342.683 383.139 342.309 383.627 341.904C384.118 341.503 384.587 341.08 385.034 340.629C385.484 340.183 385.908 339.714 386.313 339.222C386.714 338.735 387.092 338.225 387.442 337.697C387.797 337.169 388.121 336.627 388.421 336.067C388.717 335.511 388.99 334.938 389.232 334.355C389.478 333.767 389.687 333.171 389.874 332.565C390.056 331.96 390.211 331.345 390.338 330.721C390.461 330.102 390.552 329.474 390.616 328.845C390.68 328.212 390.711 327.58 390.711 326.947V133.36C390.711 132.728 390.68 132.095 390.616 131.462C390.552 130.833 390.461 130.205 390.338 129.586C390.211 128.962 390.056 128.347 389.874 127.742C389.687 127.136 389.478 126.54 389.232 125.957C388.99 125.369 388.717 124.796 388.421 124.24C388.121 123.68 387.797 123.138 387.442 122.61C387.092 122.082 386.714 121.572 386.313 121.085C385.908 120.593 385.484 120.124 385.034 119.678C384.587 119.227 384.118 118.804 383.627 118.403C383.139 117.998 382.629 117.624 382.101 117.269C381.578 116.919 381.031 116.591 380.476 116.295C379.916 115.994 379.342 115.721 378.759 115.48C378.172 115.238 377.575 115.024 376.97 114.838C376.364 114.656 375.749 114.501 375.13 114.378C374.506 114.25 373.883 114.159 373.25 114.096C372.621 114.032 371.989 114 371.351 114ZM129.368 123.68H371.351C371.989 123.68 372.617 123.744 373.241 123.867C373.864 123.994 374.47 124.177 375.057 124.418C375.64 124.664 376.2 124.96 376.728 125.315C377.257 125.67 377.744 126.071 378.195 126.517C378.645 126.968 379.046 127.455 379.397 127.983C379.752 128.511 380.048 129.071 380.294 129.659C380.535 130.246 380.722 130.847 380.845 131.471C380.968 132.095 381.031 132.723 381.031 133.36V152.716H119.688V133.36C119.688 132.723 119.752 132.095 119.875 131.471C120.002 130.847 120.184 130.246 120.43 129.659C120.672 129.071 120.972 128.511 121.323 127.983C121.678 127.455 122.078 126.968 122.529 126.517C122.975 126.071 123.467 125.67 123.995 125.315C124.524 124.96 125.079 124.664 125.666 124.418C126.254 124.177 126.859 123.994 127.479 123.867C128.102 123.744 128.731 123.68 129.368 123.68ZM381.031 162.397V297.911H119.688V162.397H381.031ZM278.938 375.343H221.781L224.422 346.307H276.297L278.938 375.343ZM371.351 336.627H129.368C128.731 336.627 128.102 336.563 127.479 336.44C126.859 336.313 126.254 336.131 125.666 335.889C125.079 335.643 124.524 335.347 123.995 334.992C123.467 334.637 122.975 334.236 122.529 333.79C122.078 333.339 121.678 332.852 121.323 332.324C120.972 331.796 120.672 331.236 120.43 330.648C120.184 330.061 120.002 329.46 119.875 328.836C119.752 328.212 119.688 327.584 119.688 326.947V307.591H381.031V326.947C381.031 327.584 380.968 328.212 380.845 328.836C380.722 329.46 380.535 330.061 380.294 330.648C380.048 331.236 379.752 331.796 379.397 332.324C379.046 332.852 378.645 333.339 378.195 333.79C377.744 334.236 377.257 334.637 376.728 334.992C376.2 335.347 375.645 335.643 375.057 335.889C374.47 336.131 373.864 336.313 373.241 336.44C372.617 336.563 371.989 336.627 371.351 336.627Z" fill="#F8F2EC"/>
</g>
<path d="M245.523 317.266H255.204V326.946H245.523V317.266Z" fill="#F8F2EC"/>
<path d="M134.211 215.633H143.891V225.313H134.211V215.633Z" fill="#F8F2EC"/>
<path d="M153.57 215.633H226.163V225.313H153.57V215.633Z" fill="#F8F2EC"/>
<path d="M134.211 234.992H143.891V244.672H134.211V234.992Z" fill="#F8F2EC"/>
<path d="M153.57 234.992H279.4V244.672H153.57V234.992Z" fill="#F8F2EC"/>
<path d="M134.211 254.354H143.891V264.029H134.211V254.354Z" fill="#F8F2EC"/>
<path d="M153.57 254.354H245.523V264.029H153.57V254.354Z" fill="#F8F2EC"/>
<path d="M134.211 273.711H143.891V283.391H134.211V273.711Z" fill="#F8F2EC"/>
<path d="M153.57 273.711H293.92V283.391H153.57V273.711Z" fill="#F8F2EC"/>
<path d="M135.627 194.856L145.307 204.536L152.151 197.692L145.895 191.436L152.151 185.18L145.307 178.332L135.627 188.012C135.404 188.235 135.204 188.481 135.026 188.745C134.848 189.009 134.698 189.287 134.58 189.583C134.457 189.875 134.366 190.18 134.302 190.489C134.243 190.803 134.211 191.118 134.211 191.436C134.211 191.755 134.243 192.069 134.302 192.379C134.366 192.693 134.457 192.994 134.58 193.285C134.698 193.581 134.848 193.859 135.026 194.123C135.204 194.387 135.404 194.633 135.627 194.856Z" fill="#F8F2EC"/>
<path d="M184.023 197.692L190.867 204.536L200.547 194.856C200.775 194.633 200.975 194.387 201.153 194.123C201.326 193.859 201.476 193.581 201.599 193.285C201.717 192.994 201.813 192.693 201.872 192.379C201.936 192.069 201.968 191.755 201.968 191.436C201.968 191.118 201.936 190.803 201.872 190.489C201.813 190.18 201.717 189.875 201.599 189.583C201.476 189.287 201.326 189.009 201.153 188.745C200.975 188.481 200.775 188.235 200.547 188.012L190.867 178.332L184.023 185.18L190.284 191.436L184.023 197.692Z" fill="#F8F2EC"/>
<path d="M158.656 204.423L168.336 175.387L177.52 178.447L167.84 207.487L158.656 204.423Z" fill="#F8F2EC"/>
<path d="M289.078 234.992H318.114V244.672H289.078V234.992Z" fill="#F8F2EC"/>
<path d="M303.602 273.711H313.282V283.391H303.602V273.711Z" fill="#F8F2EC"/>
<path d="M322.957 273.711H332.637V283.391H322.957V273.711Z" fill="#F8F2EC"/>
<path d="M235.844 215.633H245.524V225.313H235.844V215.633Z" fill="#F8F2EC"/>
</g>
<defs>
<clipPath id="clip0_512_545">
<rect width="500" height="500" rx="250" fill="white"/>
</clipPath>
</defs>
</svg>
