<svg width="500" height="500" viewBox="0 0 500 500" fill="none" xmlns="http://www.w3.org/2000/svg">
<g clip-path="url(#clip0_512_171)">
<path d="M550 -50H-50V550H550V-50Z" fill="white"/>
<path d="M550 -50H-50V550H550V-50Z" fill="#E673A9"/>
<mask id="mask0_512_171" style="mask-type:luminance" maskUnits="userSpaceOnUse" x="70" y="42" width="361" height="416">
<path d="M70.0664 42.5312H430.066V457.333H70.0664V42.5312Z" fill="white"/>
</mask>
<g mask="url(#mask0_512_171)">
<path d="M246.15 42.5788C245.395 42.6049 244.53 42.8809 244.056 43.5476L137.441 171.115C135.665 173.334 135.546 173.829 137.926 173.855L351.473 173.287C354.41 173.048 354.421 173.199 352.52 170.709L247.759 43.1465C247.546 42.808 246.905 42.5632 246.15 42.5788ZM266.618 53.9434L362.754 170.871C364.046 172.433 364.358 172.522 366.624 171.438L417.311 148.23C420.634 146.73 420.171 146.423 417.957 144.923L266.613 53.9434H266.618ZM221.733 58.2143C221.686 58.1205 220.905 58.7038 219.155 59.907L79.582 151.772L123.259 171.594C125.54 172.35 126.223 172.386 127.691 170.548L219.801 60.5528C221.103 59.0476 221.78 58.308 221.738 58.2143H221.733ZM265.895 104.792C272.061 104.792 277.004 106.923 280.639 111.157C284.275 115.376 286.332 121.402 286.848 129.209C287.358 136.996 286.056 143.022 282.978 147.261C279.9 151.48 275.285 153.548 269.118 153.548C262.926 153.548 258.009 151.48 254.368 147.261C250.733 143.022 248.681 136.996 248.165 129.209C247.65 121.402 248.952 115.376 252.035 111.157C255.108 106.923 259.702 104.792 265.895 104.792ZM225.358 105.277C230.983 105.277 235.202 106.506 237.931 108.985C240.681 111.459 241.665 114.871 240.993 119.298C240.603 121.86 239.587 124.246 237.931 126.469C236.275 128.673 233.061 131.699 228.259 135.417L216.9 144.199H237.525L236.238 153.063H202.072L203.441 144.199L222.863 129.048C224.603 127.662 225.957 126.339 226.889 125.022C227.827 123.699 228.368 122.256 228.582 120.829C228.915 118.626 228.499 116.855 227.212 115.511C225.947 114.167 224.03 113.496 221.572 113.496C219.681 113.496 217.577 113.969 215.207 114.787C212.837 115.584 210.27 116.735 207.467 118.329L208.999 108.016C211.863 107.115 214.645 106.464 217.384 106.001C220.118 105.516 222.801 105.277 225.358 105.277ZM266.457 113.094C263.858 113.094 262.092 114.308 261.139 116.719C260.186 119.11 259.863 123.256 260.254 129.131C260.645 135.068 261.478 139.188 262.749 141.621C264.025 144.053 265.952 145.329 268.551 145.329C271.134 145.329 272.921 144.053 273.874 141.621C274.822 139.188 275.15 135.068 274.759 129.131C274.368 123.256 273.53 119.11 272.259 116.719C271.009 114.308 269.061 113.094 266.457 113.094ZM150.577 119.621C151.691 119.621 152.478 119.902 152.832 120.506C153.535 121.714 152.645 124.068 150.254 127.678C147.853 131.303 145.098 134.386 141.952 136.865C138.801 139.339 135.316 141.199 131.556 142.428C129.118 143.219 127.436 143.428 126.483 142.99C125.514 142.542 125.296 141.428 125.837 139.766C124.02 141.688 122.124 143.355 120.113 144.683C118.108 146.011 116.061 147.042 113.91 147.746C110.707 148.787 108.78 148.714 108.27 147.501C107.754 146.292 108.676 143.975 110.926 140.574C113.165 137.199 115.665 134.334 118.504 132.032C121.327 129.73 124.395 128.084 127.608 127.032C129.759 126.334 131.259 126.147 132.124 126.548C132.993 126.938 133.197 127.902 132.764 129.371C134.733 127.246 136.811 125.454 139.051 123.969C141.285 122.48 143.624 121.303 146.061 120.506C147.941 119.891 149.457 119.621 150.577 119.621ZM365.66 121.553C367.577 123.162 369.348 124.818 370.978 126.391C372.618 127.959 374.108 129.475 375.41 130.985C378.275 134.298 379.796 136.876 379.921 138.719C380.061 140.574 378.816 141.522 376.217 141.537C374.712 141.537 372.957 141.1 370.978 140.329C369.009 139.558 365.889 137.98 361.551 135.496L351.233 129.615L361.79 141.782L356.551 141.86L339.145 121.714L344.384 121.636L362.035 131.709C363.624 132.605 364.993 133.298 366.145 133.725C367.29 134.152 368.285 134.376 369.124 134.371C370.415 134.371 371.03 133.881 371.056 133.001C371.098 132.126 370.535 130.98 369.285 129.532C368.322 128.417 367.04 127.147 365.415 125.824C363.806 124.506 361.853 123.141 359.613 121.636L365.66 121.558V121.553ZM143.4 126.954C142.801 127.011 141.993 127.136 141.061 127.438C139.181 128.053 137.52 128.907 136.066 129.933C134.598 130.969 133.405 132.147 132.52 133.48C131.629 134.829 131.436 135.746 131.957 136.141C132.478 136.537 133.723 136.428 135.582 135.818C137.447 135.209 139.103 134.371 140.577 133.318C142.04 132.277 143.233 131.037 144.124 129.693C145.009 128.36 145.202 127.506 144.691 127.115C144.426 126.923 143.999 126.897 143.4 126.954ZM125.915 133.079C125.436 133.115 124.811 133.235 124.061 133.48C122.551 133.975 121.228 134.709 120.03 135.579C118.811 136.454 117.79 137.438 117.051 138.558C116.29 139.704 116.082 140.459 116.483 140.813C116.895 141.162 117.895 141.058 119.384 140.574C120.895 140.079 122.197 139.433 123.415 138.558C124.639 137.667 125.639 136.641 126.395 135.496C127.139 134.376 127.368 133.667 126.962 133.318C126.759 133.147 126.389 133.042 125.915 133.079ZM424.717 153.709C424.285 153.74 423.598 153.99 422.54 154.433L370.483 178.204C368.634 179.042 368.754 180.173 369.436 181.589L429.957 335.1L425.603 156.282C425.467 154.329 425.441 153.652 424.717 153.704V153.709ZM75.6289 158.464L70.0664 332.443L121.322 181.907C122.077 179.683 122.061 179.574 120.514 178.844L75.6289 158.459V158.464ZM354.29 181.027L135.905 181.589C132.785 181.542 132.91 181.548 134.452 184.089L245.337 371.131C247.212 373.985 247.009 373.891 248.967 370.969L355.499 183.61C356.431 182.126 357.098 181.084 354.29 181.032V181.027ZM362.993 185.943C362.796 186.027 362.572 186.787 361.947 187.959L254.686 376.688C253.52 378.683 253.238 379.397 256.056 378.943L426.342 355.496C429.04 354.876 428.957 353.912 428.035 351.225L363.806 188.037C363.384 186.475 363.202 185.86 362.999 185.943H362.993ZM127.52 187.714C127.311 187.865 127.124 188.662 126.712 189.808L72.3164 349.928C71.3945 353.334 71.2852 354.61 74.7383 355.251L237.431 378.777C240.509 379.24 240.113 377.693 239.368 376.199L128.645 189.397C127.947 187.985 127.723 187.558 127.514 187.704L127.52 187.714ZM423.587 189.808L423.91 196.501L418.431 200.042L419.717 224.303L425.197 218.902L425.603 225.511L420.04 230.829L414.16 234.615L412.546 203.751L409.967 205.365L410.051 207.298C408.842 207.131 407.665 207.204 406.504 207.459C405.332 207.735 404.223 208.204 403.118 208.907C401.473 209.954 400.233 211.173 399.41 212.615C398.577 214.063 398.197 215.631 398.285 217.287C398.368 219.001 398.869 219.969 399.816 220.272C400.749 220.594 402.092 220.246 403.842 219.141L406.342 217.532L406.665 223.818L404.087 225.428C402.53 226.417 401.342 227.574 400.618 228.813C399.895 230.068 399.572 231.443 399.655 233.001C399.728 234.443 400.16 235.344 400.941 235.662C401.723 235.98 402.811 235.714 404.165 234.855C405.165 234.219 406.145 233.36 407.15 232.36C408.15 231.36 409.155 230.219 410.129 228.891L410.452 235.985C409.254 237.298 408.098 238.417 406.905 239.449C405.717 240.48 404.52 241.371 403.358 242.11C400.233 244.094 397.9 244.829 396.27 244.204C394.629 243.6 393.697 241.699 393.53 238.485C393.415 236.287 393.665 234.235 394.332 232.36C395.004 230.496 396.056 228.772 397.478 227.282C395.822 227.657 394.53 227.329 393.608 226.235C392.676 225.162 392.207 223.412 392.077 220.917C391.889 217.193 392.608 213.787 394.332 210.683C396.061 207.594 398.728 204.928 402.233 202.704C403.467 201.917 404.676 201.24 405.936 200.772C406.197 200.667 406.483 200.615 406.743 200.527L406.822 200.449L423.587 189.808ZM80.2227 202.865C81.0404 202.813 81.9049 203.079 82.8789 203.673C85.0299 204.975 86.6081 207.417 87.556 211.006C87.6133 211.23 87.6602 211.496 87.7122 211.73L88.0352 207.459L99.6393 214.469L99.1549 220.35L95.3685 218.094L93.6758 239.209L97.6237 240.016L97.2227 245.735L93.1914 245.011L89.1654 242.511L91.3424 215.6L88.0352 213.662C88.5299 216.751 88.6914 220.308 88.3581 224.381C87.9154 229.798 86.8477 233.568 85.2174 235.824C83.5768 238.089 81.5768 238.49 79.1706 237.032C78.4102 236.574 77.6966 236.011 76.9987 235.339C76.3008 234.673 75.5664 233.897 74.8997 233.006L75.3841 226.959C76.0352 228.042 76.7227 228.938 77.3164 229.621C77.9154 230.318 78.4987 230.871 79.0924 231.23C80.3633 232.001 81.4102 231.886 82.2331 230.907C83.0612 229.949 83.582 228.11 83.9258 225.428C83.3789 225.85 82.832 226.068 82.2331 226.074C81.6341 226.1 80.9727 225.917 80.3008 225.511C78.6081 224.485 77.3893 222.699 76.5143 220.11C75.6289 217.516 75.2852 214.584 75.5456 211.407C75.832 207.897 76.6289 205.412 77.9622 203.996C78.6289 203.292 79.3997 202.923 80.2174 202.865H80.2227ZM81.431 208.746C81.1289 208.813 80.8477 209.027 80.6237 209.391C80.1654 210.131 79.8945 211.423 79.7383 213.339C79.582 215.256 79.6029 216.834 79.8997 218.016C80.1862 219.204 80.7539 220.058 81.5091 220.511C82.2539 220.964 82.8268 220.766 83.2799 220.032C83.7279 219.303 84.0091 218.001 84.1706 216.079C84.3268 214.162 84.2956 212.594 84.0091 211.407C83.707 210.23 83.2227 209.443 82.4779 208.99C82.0977 208.761 81.7279 208.678 81.431 208.746ZM209.4 220.673H220.842V229.214H241.712V239.61L222.858 267.657H209.4V238.001H202.712V229.214H209.4V220.673ZM249.046 220.673H281.842V229.053H271.207V259.438L282.165 257.178V265.402L271.207 267.657H259.681V229.058H249.046V220.673ZM220.842 238.001V257.74L234.139 238.001H220.842ZM139.853 273.537L147.431 283.855L143.884 286.188C144.431 286.313 144.936 286.407 145.493 286.594C149.947 288.094 154.04 291.412 157.743 296.423C161.827 301.949 163.473 307.167 162.66 312.219C161.816 317.261 158.54 321.647 152.91 325.355C147.134 329.157 141.327 330.423 135.421 329.063C129.488 327.688 124.27 323.871 119.707 317.699C118.264 315.746 116.952 313.824 115.837 311.818C114.728 309.808 113.77 307.746 112.936 305.61L119.384 301.339C120.014 303.605 120.79 305.652 121.639 307.464C122.478 309.287 123.421 310.943 124.54 312.459C126.957 315.725 129.592 317.751 132.441 318.584C135.27 319.433 138.228 319.084 141.384 317.459C139.697 316.709 138.165 315.688 136.712 314.475C135.238 313.272 133.879 311.772 132.603 310.042C129.389 305.693 127.801 301.506 127.926 297.469C128.04 293.417 129.78 290.272 133.165 288.042C134.103 287.428 135.087 286.964 136.066 286.594L130.827 279.501L139.853 273.537ZM345.504 288.449L354.285 295.214L368.306 328.094L361.296 338.49L335.993 319.147L332.525 324.308L325.03 318.584L328.577 313.344L321.243 307.787L327.29 298.923L334.54 304.563L345.499 288.449H345.504ZM145.895 296.584C144.53 296.678 143.077 297.266 141.54 298.277C139.499 299.626 138.374 301.074 138.077 302.709C137.749 304.339 138.259 306.173 139.691 308.11C141.108 310.027 142.697 311.121 144.441 311.412C146.16 311.693 148.04 311.147 150.082 309.803C152.129 308.454 153.301 306.996 153.629 305.371C153.931 303.735 153.436 301.886 152.02 299.969C150.587 298.032 148.978 296.949 147.264 296.667C146.827 296.594 146.348 296.553 145.895 296.584ZM348.962 300.053L342.035 310.287L358.796 323.178L348.962 300.053ZM85.207 364.6L244.853 455.178C246.921 456.428 247.4 455.975 247.108 453.808L243.723 390.308C243.629 388.256 243.353 387.423 241.228 387.084L85.2174 364.6H85.207ZM415.28 364.761L253.217 387.162C251.077 387.475 251.467 388.527 251.447 390.063L254.91 454.693C255.087 456.652 255.03 457.355 257.41 456.141L415.28 364.761ZM313.822 392.641L325.671 405.777L334.936 400.298L337.514 403.199L313.176 417.62L309.228 419.959L284.895 434.386L282.316 431.563L291.582 426.084L282.155 415.772L273.452 422.136L270.874 419.313L279.577 413.032L289.488 407.147L301.415 420.282L306.65 417.141L310.598 414.803L315.837 411.657L306.488 401.344L297.707 407.709L295.207 404.891L303.91 398.522L313.822 392.641ZM207.29 394.574C210.426 394.719 213.254 395.803 215.91 397.798C218.863 400.016 220.108 402.407 219.618 405.053C219.129 407.693 216.941 410.339 213.092 412.949C210.801 414.501 208.436 415.563 206.082 416.251L208.822 418.35L202.613 422.537L197.134 418.428L199.15 417.058C195.717 416.834 192.618 415.709 189.801 413.594C188.743 412.798 187.78 412.022 186.983 411.178C186.171 410.339 185.483 409.438 184.889 408.516L189.322 405.537C189.79 406.548 190.316 407.397 190.931 408.193C191.556 408.985 192.28 409.745 193.108 410.37C194.842 411.678 196.764 412.344 198.749 412.386C200.743 412.417 202.77 411.766 204.952 410.532C203.733 410.376 202.613 410.131 201.566 409.725C200.525 409.324 199.577 408.798 198.665 408.115C196.353 406.376 195.202 404.428 195.202 402.391C195.228 400.355 196.415 398.574 198.749 396.99C201.322 395.245 204.165 394.443 207.29 394.574ZM208.66 399.412C207.436 399.501 206.181 400.001 204.79 400.943C203.389 401.891 202.566 402.813 202.374 403.683C202.191 404.542 202.645 405.334 203.665 406.1C204.681 406.865 205.759 407.23 206.967 407.147C208.186 407.053 209.514 406.485 210.915 405.537C212.306 404.594 213.061 403.74 213.254 402.876C213.441 402.011 213.066 401.147 212.046 400.376C211.025 399.61 209.879 399.318 208.66 399.412Z" fill="#FFF9F3"/>
</g>
</g>
<defs>
<clipPath id="clip0_512_171">
<rect width="500" height="500" rx="250" fill="white"/>
</clipPath>
</defs>
</svg>
