<svg width="500" height="500" viewBox="0 0 500 500" fill="none" xmlns="http://www.w3.org/2000/svg">
<g clip-path="url(#clip0_512_572)">
<path d="M550 -50H-50V550H550V-50Z" fill="white"/>
<path d="M550 -50H-50V550H550V-50Z" fill="#F38143"/>
<mask id="mask0_512_572" style="mask-type:luminance" maskUnits="userSpaceOnUse" x="101" y="89" width="299" height="323">
<path d="M101 89H399.725V411.24H101V89Z" fill="white"/>
</mask>
<g mask="url(#mask0_512_572)">
<path d="M400.026 105.865H386.699V89H266.231V103.833H250.927V201.594H236.094V216.898H213.922V230.951H191.273V246.881H175.66V261.565H145.827V247.036H130.839V232.049H115.852V201.594H101.02V291.23H115.39V306.535H131.003V321.69H145.84V336.677H160.827V351.201H175.66V411.635H206.12V396.176H190.965V381.343H205.952V366.356H220.943V351.519H236.094V366.356H250.518V411.648H280.606V396.339H266.077V336.523H280.606V321.372H296.065V298.878H310.743V246.423H326.052V260.948H340.577V231.586H310.911V201.448H370.565V186.461H326.052L325.898 170.014H400.026V105.865ZM295.879 126.654H280.892V111.667H295.879V126.654Z" fill="#F8F2EC"/>
</g>
</g>
<defs>
<clipPath id="clip0_512_572">
<rect width="500" height="500" rx="250" fill="white"/>
</clipPath>
</defs>
</svg>
