<svg width="500" height="500" viewBox="0 0 500 500" fill="none" xmlns="http://www.w3.org/2000/svg">
<g clip-path="url(#clip0_512_76)">
<path d="M550 -50H-50V550H550V-50Z" fill="white"/>
<path d="M550 -50H-50V550H550V-50Z" fill="#308B7B"/>
<path d="M85.3968 316.797L67.5583 317.968C66.9697 318.041 66.751 318.703 67.1155 319.073C74.3864 326.265 122.032 368.333 238.907 358.203C327.006 350.567 370.912 332.797 389.704 322.521C395.063 319.583 394.475 311.875 388.751 309.744C361.22 299.541 293.235 277.885 225.694 282.802C145.522 288.677 78.3499 303.948 67.6312 306.442C67.0426 306.588 66.8239 307.396 67.3343 307.765C70.6416 310.187 80.2562 316.646 91.5635 318.041" fill="#D2C720"/>
<path d="M130.402 294.625L132.309 300.495L185.095 301.453H263.064L303.293 299.912L341.251 295.209C341.251 295.209 294.85 285.297 287.288 284.641C279.73 283.979 238.173 281.479 221.215 282.802C204.257 284.125 170.85 288.459 170.85 288.459L130.402 294.625Z" fill="#50B09F"/>
<path d="M166.224 340.068C167.844 342.126 166.886 345.209 164.391 345.943C149.927 350.344 136.417 345.943 129.078 342.563C126.656 341.464 126.141 338.235 127.974 336.324C131.792 332.506 133.995 326.928 135.099 323.256C135.761 321.199 137.964 320.027 139.943 320.688C152.719 324.87 161.823 334.49 166.224 340.068ZM128.198 294.626L105.365 298.662L77.6147 304.094L67.6303 306.443C67.6303 306.443 67.4063 307.324 68.5834 308.501C71.5209 311.36 82.3126 315.99 83.6355 316.282C83.1928 316.355 81.797 316.574 80.3282 317.016C78.5678 317.605 74.5313 317.532 74.5313 317.532C74.5313 317.532 114.323 332.141 122.839 325.016C131.427 317.824 128.198 294.626 128.198 294.626ZM409.672 321.423C406.146 319.147 405.927 314.006 409.307 311.438L428.761 296.678C430.667 294.99 429.714 291.834 427.146 291.615C410.625 290.074 371.938 303.949 371.938 303.949L380.745 307.251L388.75 309.745C388.75 309.745 392.568 312.756 393.078 314.079C393.594 315.402 393.078 319.074 391.688 320.907C390.292 322.74 377.589 328.397 377.589 328.397C377.589 328.397 430.745 345.87 432.578 341.094C433.828 337.792 418.995 327.516 409.672 321.423ZM245.516 264.157C228.849 264.376 194.052 285.667 194.052 285.667C194.052 285.667 206.677 284.86 211.302 284.053C215.927 283.245 246.542 282.214 246.542 282.214C250.214 280.089 252.198 277.667 253.151 275.391C255.427 269.954 251.391 264.084 245.516 264.157Z" fill="#FDA26B"/>
<path d="M111.822 302.479C111.822 303.25 111.749 304.016 111.598 304.771C111.447 305.526 111.223 306.26 110.931 306.974C110.634 307.688 110.275 308.365 109.842 309.005C109.415 309.646 108.931 310.24 108.384 310.786C107.837 311.328 107.243 311.818 106.603 312.245C105.962 312.672 105.285 313.036 104.572 313.333C103.858 313.625 103.124 313.849 102.368 314C101.613 314.151 100.848 314.224 100.077 314.224C99.306 314.224 98.5404 314.151 97.7852 314C97.0299 313.849 96.2956 313.625 95.582 313.333C94.8685 313.036 94.1914 312.672 93.5508 312.245C92.9102 311.818 92.3164 311.328 91.7695 310.786C91.2279 310.24 90.7383 309.646 90.3112 309.005C89.8841 308.365 89.5195 307.688 89.2227 306.974C88.931 306.26 88.707 305.526 88.556 304.771C88.4049 304.016 88.332 303.25 88.332 302.479C88.332 301.708 88.4049 300.943 88.556 300.188C88.707 299.432 88.931 298.698 89.2227 297.984C89.5195 297.271 89.8841 296.594 90.3112 295.953C90.7383 295.312 91.2279 294.719 91.7695 294.172C92.3164 293.625 92.9102 293.141 93.5508 292.714C94.1914 292.281 94.8685 291.922 95.582 291.625C96.2956 291.333 97.0299 291.109 97.7852 290.958C98.5404 290.807 99.306 290.734 100.077 290.734C100.848 290.734 101.613 290.807 102.368 290.958C103.124 291.109 103.858 291.333 104.572 291.625C105.285 291.922 105.962 292.281 106.603 292.714C107.243 293.141 107.837 293.625 108.384 294.172C108.931 294.719 109.415 295.312 109.842 295.953C110.275 296.594 110.634 297.271 110.931 297.984C111.223 298.698 111.447 299.432 111.598 300.188C111.749 300.943 111.822 301.708 111.822 302.479Z" fill="#FFF9F3"/>
<path d="M103.531 300.495C103.531 303.729 100.885 306.37 97.6563 306.37C94.4271 306.37 91.7812 303.729 91.7812 300.495C91.7812 297.266 94.4271 294.625 97.6563 294.625C100.885 294.625 103.531 297.266 103.531 300.495ZM123.938 303.068C124.083 301.891 123.427 300.865 122.396 300.719C121.37 300.568 120.417 301.375 120.266 302.479C120.12 303.651 120.781 304.682 121.807 304.828C122.839 304.974 123.792 304.167 123.938 303.068ZM117.182 307.323C116.156 307.177 115.203 307.984 115.057 309.089C114.906 310.261 115.568 311.287 116.599 311.438C117.625 311.583 118.578 310.776 118.724 309.672C118.875 308.5 118.214 307.469 117.182 307.323ZM124.083 308.354C123.057 308.203 122.104 309.011 121.958 310.115C121.807 311.287 122.469 312.318 123.5 312.464C124.526 312.609 125.479 311.802 125.625 310.703C125.776 309.526 125.042 308.5 124.083 308.354ZM299.182 332.724C298.156 332.578 297.198 333.386 297.052 334.49C296.906 335.662 297.568 336.693 298.594 336.839C299.62 336.984 300.578 336.177 300.724 335.073C300.87 333.901 300.135 332.875 299.182 332.724ZM311.734 338.818C310.708 338.672 309.755 339.479 309.609 340.583C309.458 341.755 310.12 342.781 311.151 342.932C312.177 343.078 313.13 342.271 313.276 341.167C313.422 340.068 312.766 338.969 311.734 338.818ZM283.693 338.818C282.661 338.672 281.708 339.479 281.563 340.583C281.417 341.755 282.078 342.781 283.104 342.932C284.13 343.078 285.089 342.271 285.234 341.167C285.38 340.068 284.719 338.969 283.693 338.818ZM257.406 286.255C256.38 286.109 255.427 286.917 255.281 288.016C255.13 289.193 255.792 290.219 256.823 290.365C257.849 290.511 258.802 289.703 258.948 288.604C259.099 287.5 258.438 286.474 257.406 286.255ZM239.203 294.552C238.172 294.401 237.219 295.208 237.073 296.313C236.927 297.484 237.589 298.516 238.615 298.662C239.641 298.807 240.594 298 240.745 296.901C240.891 295.797 240.229 294.698 239.203 294.552ZM233.844 286.255C232.813 286.109 231.859 286.917 231.714 288.016C231.568 289.193 232.229 290.219 233.255 290.365C234.281 290.511 235.234 289.703 235.385 288.604C235.531 287.5 234.87 286.474 233.844 286.255ZM220.849 293.011C219.818 292.859 218.865 293.667 218.719 294.771C218.573 295.943 219.234 296.974 220.26 297.12C221.286 297.266 222.24 296.458 222.391 295.359C222.536 294.255 221.875 293.156 220.849 293.011ZM203.594 290.438C202.568 290.292 201.615 291.099 201.464 292.198C201.318 293.375 201.979 294.401 203.005 294.552C204.036 294.698 204.99 293.891 205.135 292.787C205.281 291.615 204.625 290.583 203.594 290.438ZM218.203 310.406C217.177 310.261 216.224 311.068 216.073 312.172C215.927 313.344 216.589 314.37 217.615 314.521C218.646 314.667 219.599 313.859 219.745 312.755C219.969 311.583 219.234 310.552 218.203 310.406ZM238.542 311.359C237.51 311.214 236.557 312.021 236.411 313.125C236.266 314.297 236.927 315.328 237.953 315.474C238.979 315.62 239.938 314.813 240.083 313.714C240.229 312.537 239.568 311.511 238.542 311.359ZM115.865 316.5C114.833 316.354 113.88 317.162 113.734 318.261C113.589 319.438 114.25 320.464 115.276 320.615C116.302 320.761 117.255 319.953 117.406 318.849C117.552 317.677 116.818 316.646 115.865 316.5Z" fill="#17392D"/>
<mask id="mask0_512_76" style="mask-type:luminance" maskUnits="userSpaceOnUse" x="66" y="263" width="369" height="99">
<path d="M66.0898 263.422H434.09V361.333H66.0898V263.422Z" fill="white"/>
</mask>
<g mask="url(#mask0_512_76)">
<path d="M140.237 320.098C139.065 319.729 137.815 319.801 136.716 320.39C135.612 320.979 134.805 321.932 134.513 323.109C132.383 330.01 129.596 333.9 127.539 335.88C126.513 336.911 125.997 338.452 126.289 339.921C126.586 341.39 127.466 342.562 128.862 343.223C133.779 345.499 142.221 348.51 151.914 348.51C155.95 348.51 160.284 347.994 164.685 346.676C166.081 346.234 167.185 345.135 167.622 343.812C168.065 342.416 167.768 340.874 166.888 339.775C162.409 334.119 153.086 324.281 140.237 320.098ZM166.226 343.296C166.226 343.369 166.226 343.369 166.154 343.442C160.721 345.208 153.601 344.249 148.607 343.15C141.706 341.609 135.69 339.187 132.68 337.499C130.622 336.395 129.961 335.734 129.742 335.442C130.768 334.192 131.721 332.796 132.456 331.406C133.924 332.432 137.742 335.072 142.883 337.572C147.95 339.994 155.216 342.635 162.779 342.635C163.95 342.635 165.128 342.562 166.299 342.416C166.378 342.635 166.299 343.005 166.226 343.296ZM135.763 323.473C135.982 322.666 136.57 322.005 137.305 321.567C138.039 321.197 138.919 321.124 139.726 321.348C150.737 324.942 159.034 332.796 163.805 338.307C151.544 336.911 136.346 325.312 135.32 324.505C135.539 324.135 135.69 323.843 135.763 323.473ZM134.956 325.895C136.2 326.854 140.018 329.64 144.94 332.505C152.794 337.057 159.622 339.551 165.128 339.848C165.346 340.067 165.492 340.359 165.716 340.583C165.862 340.729 166.008 340.947 166.081 341.166C157.711 342.124 149.268 339.114 143.544 336.395C138.331 333.9 134.367 331.182 133.117 330.229C133.851 328.687 134.44 327.218 134.956 325.895ZM129.372 341.9C128.419 341.463 127.758 340.656 127.612 339.624C127.393 338.598 127.758 337.572 128.492 336.765C128.638 336.614 128.711 336.541 128.862 336.395C129.081 336.692 129.372 336.911 129.815 337.202C132.237 339.041 138.331 341.827 145.966 343.812C151.398 345.208 155.659 345.645 159.034 345.645C161.237 345.645 162.997 345.426 164.393 345.208C164.32 345.208 164.32 345.281 164.247 345.281C149.784 349.682 136.2 345.057 129.372 341.9ZM97.6588 307.031C101.258 307.031 104.19 304.093 104.19 300.494C104.19 296.9 101.258 293.963 97.6588 293.963C94.0598 293.963 91.1223 296.9 91.1223 300.494C91.1223 304.093 94.0598 307.031 97.6588 307.031ZM97.6588 295.281C100.523 295.281 102.872 297.635 102.872 300.494C102.872 303.359 100.523 305.708 97.6588 305.708C94.7942 305.708 92.4452 303.359 92.4452 300.494C92.4452 297.635 94.7942 295.281 97.6588 295.281ZM425.534 331.77C420.685 327.88 414.445 323.697 410.044 320.833C408.575 319.88 407.617 318.26 407.617 316.499C407.544 314.739 408.351 313.051 409.747 312.02L429.128 297.265C430.232 296.312 430.669 294.843 430.232 293.447C429.789 292.051 428.617 291.098 427.221 291.025C420.32 290.364 408.867 292.275 393.232 296.604C382.586 299.614 373.482 302.77 372.013 303.286C358.503 298.88 341.544 294.036 322.456 290.072C296.539 284.64 271.945 281.775 248.966 281.557C251.315 279.864 252.935 277.885 253.888 275.682C255.06 272.963 254.768 269.952 253.154 267.458C251.539 264.963 248.747 263.494 245.81 263.494C245.737 263.494 245.737 263.494 245.664 263.494C238.617 263.567 227.753 267.239 213.362 274.359C203.378 279.354 195.008 284.343 193.982 285.005C160.94 288.458 131.872 293.156 111.388 296.827C109.331 292.786 105.148 289.999 100.299 289.999C93.8411 289.999 88.4817 294.989 87.9661 301.374C77.4713 303.505 70.3463 305.192 67.7056 305.781C67.19 305.926 66.7525 306.296 66.6015 306.885C66.4556 307.395 66.6744 307.984 67.1171 308.275C69.6119 310.114 75.1223 313.786 82.0963 316.354L67.4869 317.307C66.9713 317.307 66.5286 317.676 66.3098 318.187C66.0911 318.702 66.2369 319.218 66.6015 319.583C70.2004 323.182 84.0754 335.588 111.68 345.791C127.32 351.593 144.789 355.702 163.732 358.051C176.435 359.671 189.867 360.4 203.893 360.4C215.268 360.4 227.018 359.89 239.055 358.859C277.893 355.484 312.034 349.833 340.591 341.973C356.523 337.572 368.711 333.093 377.737 329.13C379.575 329.713 391.909 333.755 404.315 337.202C418.997 341.317 426.268 342.562 429.862 342.562C432.289 342.562 433.023 341.973 433.315 341.317C433.904 339.551 431.555 336.614 425.534 331.77ZM391.836 321.859C392.862 322.374 395.435 323.697 398.81 324.796C401.45 325.604 404.976 326.411 408.648 326.411C410.555 326.411 412.539 326.192 414.445 325.676L414.372 325.385C418.044 327.88 420.982 330.01 423.258 331.77C413.273 333.9 392.497 326.926 386.768 324.942C387.945 324.354 389.044 323.77 390.075 323.182C390.732 322.812 391.32 322.374 391.836 321.859ZM409.31 322.005C410.7 322.89 412.023 323.77 413.2 324.577C404.685 326.484 395.284 322.077 392.716 320.76C393.669 319.364 394.185 317.749 394.039 315.989H406.148C406.148 316.135 406.148 316.354 406.148 316.499C406.299 318.775 407.398 320.76 409.31 322.005ZM408.867 310.921C407.617 311.874 406.737 313.197 406.372 314.666H393.888C393.45 312.682 392.2 310.994 390.44 309.895C394.112 308.572 404.315 305.562 414.008 307.031L408.867 310.921ZM388.753 309.088C387.065 308.499 385.299 307.838 383.466 307.176C385.669 306.077 390.513 303.801 396.461 301.89C409.237 297.854 418.263 298.291 423.919 299.541L415.476 305.926C403.435 303.577 390.732 308.275 388.753 309.088ZM427.075 292.348C428.174 292.421 428.763 293.229 428.982 293.89C429.206 294.551 429.128 295.505 428.32 296.239L425.31 298.515C415.107 295.796 403.799 298.145 396.091 300.567C388.68 302.916 383.023 305.854 381.779 306.515C379.357 305.708 376.784 304.827 374.143 303.947C381.997 301.229 412.976 290.952 427.075 292.348ZM338.096 294.989C310.711 299.984 257.851 301.083 217.544 301.083C217.253 301.083 216.961 301.083 216.664 301.083C174.523 301.083 137.523 299.984 132.825 299.833C132.383 298.145 131.872 296.458 131.284 294.843C156.904 290.656 190.013 286.182 225.841 283.536C227.971 283.39 230.101 283.244 232.305 283.171L232.378 283.244L232.45 283.171C259.909 281.848 290.081 284.64 322.164 291.39C327.596 292.494 332.956 293.739 338.096 294.989ZM246.398 281.479C242.289 281.479 238.247 281.557 234.211 281.702C237.075 279.791 240.966 277.958 245.664 276.343C248.674 275.312 251.393 274.577 252.784 274.213C252.711 274.505 252.638 274.801 252.492 275.02C251.466 277.588 249.409 279.718 246.398 281.479ZM253.081 272.817C250.362 273.479 238.398 276.489 231.789 281.848C229.732 281.921 227.68 282.067 225.622 282.213C224.596 282.291 223.638 282.364 222.612 282.437C232.669 275.02 250.289 270.76 252.784 270.176C253.081 270.984 253.154 271.937 253.081 272.817ZM251.904 268.192C252.049 268.411 252.2 268.635 252.346 268.926C250.805 269.296 246.107 270.468 240.523 272.307C231.57 275.39 224.742 278.838 220.263 282.583C217.695 282.801 215.122 283.02 212.555 283.244C224.669 272.598 246.763 266.577 249.409 265.843C250.362 266.432 251.242 267.166 251.904 268.192ZM213.799 275.609C223.638 270.76 237.003 264.963 245.518 264.817C246.107 264.817 246.69 264.89 247.279 265.036C244.711 265.77 239.94 267.239 234.581 269.296C227.164 272.229 216.961 277.005 210.351 283.39C205.872 283.755 201.393 284.197 196.992 284.64C200.367 282.729 206.68 279.13 213.799 275.609ZM100.081 291.39C106.174 291.39 111.169 296.385 111.169 302.479C111.169 308.572 106.174 313.562 100.081 313.562C93.9869 313.562 88.9973 308.572 88.9973 302.479C88.9973 296.385 93.9869 291.39 100.081 291.39ZM91.4921 318.775L91.6379 317.452C80.6275 316.062 71.2265 309.817 67.7056 307.249C67.7056 307.249 67.7056 307.249 67.7056 307.176C67.7056 307.104 67.7786 307.104 67.7786 307.104C70.3463 306.515 77.3931 304.9 87.6744 302.77C87.8931 309.452 93.3984 314.885 100.081 314.885C106.982 314.885 112.487 309.307 112.487 302.479C112.487 300.937 112.195 299.541 111.68 298.145C116.529 297.265 121.81 296.312 127.539 295.359C127.976 299.249 129.669 318.338 122.398 324.505C119.096 327.291 109.846 326.854 95.6744 323.327C88.5546 321.494 81.7265 319.291 77.9088 317.968L85.3254 317.531C87.3046 318.041 89.3619 318.484 91.4921 318.775ZM67.5598 318.702L74.4609 318.26C75.7056 318.702 85.1067 322.077 95.3827 324.65C103.456 326.708 109.919 327.661 114.763 327.661C118.805 327.661 121.664 326.926 123.351 325.531C127.023 322.447 129.081 316.281 129.445 307.176C129.669 301.744 129.154 296.9 129.008 295.208C129.299 295.135 129.596 295.135 129.888 295.062C132.383 301.525 133.19 308.202 132.237 314.885C131.43 320.317 129.518 325.749 126.435 331.036C121.888 339.041 116.086 344.4 114.763 345.572C113.883 345.281 113.075 344.984 112.195 344.619C84.8098 334.489 71.1536 322.156 67.5598 318.702ZM238.836 357.614C212.039 359.963 186.784 359.671 163.878 356.807C146.7 354.676 130.695 351.005 116.159 346.015C118.143 344.176 123.279 339.114 127.539 331.697C130.695 326.265 132.68 320.614 133.487 315.031C134.148 310.406 133.997 305.708 133.044 301.156C139.065 301.374 175.331 302.406 216.591 302.406C216.888 302.406 217.18 302.406 217.471 302.406C259.247 302.406 314.601 301.229 341.18 295.796C360.851 300.791 377.226 306.296 388.456 310.479C390.883 311.359 392.497 313.489 392.643 315.989C392.789 318.484 391.539 320.76 389.341 322.005C346.831 345.281 276.794 354.312 238.836 357.614ZM431.919 340.947C431.919 340.947 431.404 342.051 423.331 340.583C418.706 339.697 412.393 338.234 404.607 336.031C394.039 333.093 383.466 329.713 379.503 328.395C381.555 327.437 383.466 326.557 385.154 325.749C386.549 326.265 393.081 328.614 400.57 330.598C408.06 332.577 414.154 333.531 418.779 333.531C421.055 333.531 423.039 333.312 424.581 332.796C432.065 338.744 432.065 340.51 431.919 340.947Z" fill="#17392D"/>
</g>
<path d="M414.594 184.953L432.432 186.13C433.021 186.203 433.24 186.864 432.87 187.229C425.604 194.427 377.958 236.489 261.078 226.359C172.979 218.724 129.078 200.958 110.281 190.682C104.922 187.744 105.51 180.036 111.24 177.906C138.771 167.703 206.75 146.041 274.292 150.963C354.464 156.833 421.641 172.104 432.359 174.604C432.943 174.75 433.167 175.557 432.651 175.922C429.349 178.349 419.729 184.807 408.422 186.203" fill="#D2C720"/>
<path d="M369.587 162.781L367.676 168.656L314.889 169.609H236.926L196.691 168.067L158.738 163.369C158.738 163.369 205.134 153.458 212.697 152.796C220.259 152.135 261.811 149.64 278.77 150.963C295.728 152.286 329.134 156.614 329.134 156.614L369.587 162.781Z" fill="#50B09F"/>
<path d="M333.76 208.23C332.145 210.282 333.098 213.365 335.593 214.1C350.057 218.506 363.567 214.1 370.911 210.725C373.333 209.62 373.843 206.391 372.01 204.485C368.192 200.667 365.989 195.084 364.89 191.417C364.229 189.36 362.025 188.183 360.041 188.844C347.27 193.032 338.166 202.647 333.76 208.23ZM371.791 162.782L394.619 166.824L422.374 172.256L432.359 174.605C432.359 174.605 432.578 175.485 431.4 176.657C428.468 179.522 417.676 184.147 416.354 184.443C416.791 184.516 418.187 184.735 419.656 185.173C421.416 185.761 425.458 185.688 425.458 185.688C425.458 185.688 385.666 200.298 377.15 193.178C368.557 185.985 371.791 162.782 371.791 162.782ZM90.3119 189.579C93.8379 187.303 94.0567 182.167 90.6817 179.594L71.2233 164.839C69.3171 163.152 70.2702 159.995 72.8431 159.772C89.3588 158.23 128.051 172.105 128.051 172.105L119.239 175.412L111.239 177.907C111.239 177.907 107.421 180.917 106.906 182.24C106.39 183.558 106.906 187.23 108.301 189.068C109.697 190.902 122.395 196.553 122.395 196.553C122.395 196.553 69.2442 214.027 67.4056 209.256C66.1608 205.954 80.989 195.673 90.3119 189.579ZM254.473 132.313C271.135 132.537 305.937 153.829 305.937 153.829C305.937 153.829 293.307 153.022 288.682 152.209C284.057 151.402 253.442 150.376 253.442 150.376C249.77 148.245 247.791 145.824 246.838 143.548C244.562 138.115 248.598 132.24 254.473 132.313Z" fill="#FDA26B"/>
<path d="M388.16 170.641C388.16 171.411 388.233 172.172 388.384 172.927C388.535 173.688 388.759 174.422 389.056 175.135C389.348 175.844 389.712 176.521 390.139 177.161C390.566 177.807 391.056 178.401 391.603 178.943C392.145 179.49 392.738 179.974 393.379 180.406C394.02 180.833 394.697 181.193 395.41 181.49C396.124 181.786 396.858 182.01 397.613 182.156C398.374 182.307 399.134 182.385 399.905 182.385C400.676 182.385 401.441 182.307 402.197 182.156C402.957 182.01 403.691 181.786 404.4 181.49C405.113 181.193 405.79 180.833 406.431 180.406C407.072 179.974 407.665 179.49 408.212 178.943C408.759 178.401 409.243 177.807 409.676 177.161C410.103 176.521 410.462 175.844 410.759 175.135C411.056 174.422 411.275 173.688 411.426 172.927C411.577 172.172 411.655 171.411 411.655 170.641C411.655 169.865 411.577 169.104 411.426 168.349C411.275 167.589 411.056 166.854 410.759 166.141C410.462 165.432 410.103 164.755 409.676 164.115C409.243 163.469 408.759 162.875 408.212 162.333C407.665 161.786 407.072 161.302 406.431 160.87C405.79 160.443 405.113 160.083 404.4 159.786C403.691 159.49 402.957 159.266 402.197 159.12C401.441 158.969 400.676 158.891 399.905 158.891C399.134 158.891 398.374 158.969 397.613 159.12C396.858 159.266 396.124 159.49 395.41 159.786C394.697 160.083 394.02 160.443 393.379 160.87C392.738 161.302 392.145 161.786 391.603 162.333C391.056 162.875 390.566 163.469 390.139 164.115C389.712 164.755 389.348 165.432 389.056 166.141C388.759 166.854 388.535 167.589 388.384 168.349C388.233 169.104 388.16 169.865 388.16 170.641Z" fill="#FFF9F3"/>
<path d="M396.458 168.656C396.458 171.886 399.098 174.531 402.333 174.531C405.562 174.531 408.202 171.886 408.202 168.656C408.202 165.427 405.562 162.781 402.333 162.781C399.098 162.781 396.458 165.427 396.458 168.656ZM376.046 171.224C375.9 170.052 376.562 169.021 377.588 168.875C378.619 168.729 379.572 169.537 379.718 170.641C379.864 171.813 379.202 172.839 378.176 172.99C377.15 173.136 376.192 172.328 376.046 171.224ZM382.801 175.484C383.827 175.339 384.786 176.146 384.932 177.245C385.077 178.422 384.416 179.448 383.39 179.594C382.359 179.74 381.406 178.932 381.26 177.833C381.114 176.656 381.775 175.63 382.801 175.484ZM375.9 176.511C376.926 176.365 377.885 177.172 378.031 178.271C378.176 179.448 377.515 180.474 376.489 180.625C375.458 180.771 374.504 179.964 374.359 178.859C374.213 177.688 374.947 176.656 375.9 176.511ZM200.807 200.886C201.833 200.74 202.786 201.547 202.932 202.646C203.077 203.823 202.421 204.849 201.39 204.995C200.364 205.146 199.411 204.333 199.265 203.234C199.114 202.063 199.848 201.031 200.807 200.886ZM188.249 206.979C189.275 206.833 190.234 207.641 190.379 208.74C190.525 209.917 189.864 210.943 188.838 211.089C187.812 211.234 186.853 210.427 186.708 209.328C186.562 208.229 187.223 207.125 188.249 206.979ZM216.296 206.979C217.322 206.833 218.275 207.641 218.426 208.74C218.572 209.917 217.911 210.943 216.885 211.089C215.853 211.234 214.9 210.427 214.754 209.328C214.609 208.229 215.265 207.125 216.296 206.979ZM242.577 154.412C243.603 154.266 244.562 155.073 244.708 156.177C244.853 157.349 244.192 158.38 243.166 158.526C242.135 158.672 241.182 157.865 241.036 156.761C240.89 155.662 241.551 154.636 242.577 154.412ZM260.786 162.708C261.812 162.563 262.765 163.37 262.916 164.469C263.062 165.646 262.4 166.672 261.374 166.823C260.343 166.969 259.39 166.162 259.244 165.057C259.098 163.958 259.754 162.854 260.786 162.708ZM266.145 154.412C267.171 154.266 268.124 155.073 268.275 156.177C268.421 157.349 267.76 158.38 266.734 158.526C265.702 158.672 264.749 157.865 264.603 156.761C264.458 155.662 265.114 154.636 266.145 154.412ZM279.14 161.167C280.166 161.021 281.119 161.828 281.27 162.927C281.416 164.104 280.754 165.13 279.728 165.281C278.697 165.427 277.744 164.62 277.598 163.516C277.452 162.417 278.109 161.313 279.14 161.167ZM296.39 158.599C297.421 158.453 298.374 159.261 298.52 160.359C298.666 161.537 298.004 162.563 296.978 162.708C295.952 162.854 294.994 162.047 294.848 160.948C294.702 159.771 295.364 158.745 296.39 158.599ZM281.781 178.568C282.812 178.422 283.765 179.229 283.911 180.328C284.057 181.505 283.395 182.531 282.369 182.677C281.343 182.823 280.385 182.016 280.239 180.917C280.02 179.74 280.754 178.714 281.781 178.568ZM261.447 179.521C262.473 179.375 263.426 180.182 263.572 181.281C263.723 182.458 263.062 183.484 262.031 183.63C261.004 183.781 260.051 182.974 259.906 181.87C259.754 180.698 260.416 179.667 261.447 179.521ZM384.124 184.662C385.15 184.516 386.103 185.323 386.254 186.422C386.4 187.599 385.739 188.625 384.713 188.771C383.682 188.917 382.728 188.109 382.583 187.011C382.437 185.833 383.171 184.807 384.124 184.662Z" fill="#17392D"/>
<mask id="mask1_512_76" style="mask-type:luminance" maskUnits="userSpaceOnUse" x="66" y="131" width="368" height="99">
<path d="M66.0898 131.584H433.902V229.334H66.0898V131.584Z" fill="white"/>
</mask>
<g mask="url(#mask1_512_76)">
<path d="M359.75 188.255C360.922 187.891 362.172 187.964 363.276 188.552C364.375 189.141 365.183 190.094 365.474 191.266C367.605 198.167 370.396 202.063 372.454 204.042C373.48 205.068 373.995 206.609 373.698 208.078C373.407 209.547 372.526 210.724 371.131 211.385C366.209 213.661 357.766 216.672 348.079 216.672C344.037 216.672 339.709 216.156 335.302 214.833C333.907 214.396 332.808 213.292 332.365 211.969C331.927 210.578 332.219 209.036 333.099 207.932C337.579 202.281 346.901 192.443 359.75 188.255ZM333.761 211.458C333.761 211.531 333.761 211.531 333.834 211.604C339.266 213.365 346.391 212.411 351.381 211.313C358.282 209.771 364.302 207.344 367.313 205.656C369.37 204.557 370.026 203.896 370.25 203.604C369.219 202.354 368.266 200.958 367.532 199.563C366.063 200.594 362.245 203.234 357.11 205.729C352.042 208.151 344.771 210.797 337.214 210.797C336.037 210.797 334.86 210.724 333.688 210.578C333.615 210.797 333.688 211.161 333.761 211.458ZM364.23 191.635C364.011 190.828 363.422 190.167 362.688 189.724C361.954 189.359 361.073 189.286 360.266 189.505C349.25 193.104 340.954 200.958 336.183 206.464C348.443 205.068 363.641 193.469 364.667 192.661C364.448 192.297 364.302 192 364.23 191.635ZM365.037 194.057C363.787 195.01 359.969 197.802 355.052 200.667C347.198 205.219 340.37 207.714 334.86 208.005C334.641 208.229 334.495 208.521 334.276 208.74C334.131 208.885 333.98 209.109 333.907 209.328C342.276 210.281 350.719 207.271 356.448 204.557C361.657 202.063 365.625 199.344 366.87 198.391C366.136 196.849 365.552 195.38 365.037 194.057ZM370.615 210.063C371.568 209.62 372.23 208.813 372.375 207.786C372.599 206.76 372.23 205.729 371.495 204.922C371.349 204.776 371.276 204.703 371.131 204.557C370.912 204.849 370.615 205.068 370.177 205.365C367.75 207.198 361.657 209.99 354.021 211.969C348.589 213.365 344.334 213.807 340.954 213.807C338.756 213.807 336.99 213.589 335.594 213.365C335.672 213.365 335.672 213.438 335.745 213.438C350.204 217.844 363.787 213.219 370.615 210.063ZM402.334 175.188C398.735 175.188 395.797 172.255 395.797 168.656C395.797 165.057 398.735 162.12 402.334 162.12C405.927 162.12 408.865 165.057 408.865 168.656C408.865 172.255 405.927 175.188 402.334 175.188ZM402.334 163.443C399.469 163.443 397.12 165.792 397.12 168.656C397.12 171.521 399.469 173.87 402.334 173.87C405.193 173.87 407.542 171.521 407.542 168.656C407.542 165.792 405.193 163.443 402.334 163.443ZM74.4587 199.932C79.3025 196.042 85.542 191.854 89.9483 188.99C91.417 188.036 92.3702 186.422 92.3702 184.661C92.4431 182.901 91.6358 181.208 90.24 180.182L70.8598 165.427C69.7608 164.469 69.3181 163.005 69.7608 161.609C70.1983 160.214 71.3754 159.26 72.766 159.188C79.667 158.526 91.1202 160.432 106.761 164.766C117.407 167.776 126.511 170.932 127.974 171.448C141.485 167.042 158.443 162.193 177.532 158.229C203.448 152.797 228.042 149.932 251.021 149.714C248.672 148.026 247.058 146.042 246.105 143.844C244.927 141.125 245.219 138.115 246.839 135.62C248.454 133.125 251.24 131.656 254.177 131.656C254.25 131.656 254.25 131.656 254.323 131.656C261.375 131.729 272.24 135.401 286.631 142.521C296.615 147.51 304.98 152.505 306.011 153.167C339.047 156.615 368.12 161.313 388.605 164.984C390.657 160.948 394.844 158.156 399.688 158.156C406.146 158.156 411.506 163.151 412.021 169.536C422.521 171.667 429.641 173.354 432.287 173.943C432.797 174.089 433.24 174.453 433.386 175.042C433.532 175.557 433.313 176.146 432.87 176.438C430.375 178.271 424.87 181.943 417.896 184.516L432.506 185.469C433.021 185.469 433.459 185.833 433.677 186.349C433.901 186.865 433.756 187.375 433.386 187.745C429.787 191.344 415.912 203.75 388.308 213.953C372.672 219.755 355.198 223.865 336.256 226.214C323.558 227.828 310.12 228.563 296.099 228.563C284.719 228.563 272.974 228.047 260.933 227.021C222.094 223.646 187.959 217.99 159.396 210.135C143.469 205.729 131.282 201.25 122.25 197.286C120.417 197.875 108.084 201.911 95.6723 205.365C80.99 209.474 73.7243 210.724 70.1254 210.724C67.7035 210.724 66.9691 210.135 66.6723 209.474C66.0889 207.714 68.4379 204.776 74.4587 199.932ZM108.157 190.021C107.125 190.531 104.558 191.854 101.183 192.958C98.5368 193.766 95.0108 194.573 91.3441 194.573C89.4327 194.573 87.4535 194.349 85.542 193.839L85.615 193.542C81.9431 196.042 79.0108 198.167 76.7348 199.932C86.7191 202.063 107.495 195.083 113.219 193.104C112.047 192.516 110.943 191.927 109.917 191.344C109.256 190.974 108.667 190.531 108.157 190.021ZM90.6827 190.167C89.2868 191.047 87.9639 191.927 86.792 192.734C95.3077 194.646 104.704 190.24 107.271 188.917C106.318 187.526 105.808 185.906 105.954 184.146H93.8389C93.8389 184.292 93.8389 184.516 93.8389 184.661C93.6931 186.938 92.5889 188.917 90.6827 190.167ZM91.1202 179.083C92.3702 180.036 93.2504 181.354 93.6202 182.823H106.099C106.542 180.844 107.787 179.156 109.547 178.052C105.881 176.729 95.6723 173.724 85.9848 175.188L91.1202 179.083ZM111.24 177.245C112.927 176.656 114.688 175.995 116.526 175.339C114.323 174.234 109.474 171.958 103.532 170.052C90.7556 166.01 81.7243 166.453 76.0733 167.703L84.516 174.089C96.5525 171.74 109.256 176.438 111.24 177.245ZM72.917 160.505C71.8129 160.578 71.2243 161.385 71.0056 162.047C70.7868 162.708 70.8598 163.661 71.667 164.396L74.6775 166.672C84.8806 163.958 96.1879 166.307 103.896 168.729C111.313 171.078 116.964 174.016 118.214 174.677C120.636 173.87 123.204 172.99 125.849 172.104C117.99 169.391 87.0108 159.109 72.917 160.505ZM161.896 163.151C189.276 168.141 242.136 169.245 282.443 169.245C282.735 169.245 283.032 169.245 283.323 169.245C325.464 169.245 362.464 168.141 367.167 167.995C367.605 166.307 368.12 164.62 368.709 163.005C343.084 158.818 309.974 154.339 274.146 151.698C272.016 151.552 269.891 151.401 267.688 151.328L267.615 151.401L267.542 151.328C240.084 150.01 209.907 152.797 177.829 159.552C172.391 160.651 167.032 161.901 161.896 163.151ZM253.589 149.641C257.704 149.641 261.74 149.714 265.776 149.859C262.917 147.953 259.026 146.12 254.323 144.5C251.313 143.474 248.599 142.74 247.204 142.375C247.276 142.667 247.349 142.958 247.495 143.182C248.526 145.75 250.579 147.88 253.589 149.641ZM246.912 140.979C249.625 141.641 261.594 144.651 268.198 150.01C270.256 150.083 272.313 150.229 274.37 150.375C275.396 150.448 276.349 150.521 277.375 150.594C267.318 143.182 249.698 138.922 247.204 138.333C246.912 139.141 246.839 140.099 246.912 140.979ZM248.084 136.354C247.938 136.573 247.792 136.792 247.646 137.089C249.188 137.453 253.886 138.63 259.464 140.464C268.422 143.547 275.25 147 279.73 150.745C282.297 150.964 284.865 151.182 287.438 151.401C275.323 140.76 253.224 134.74 250.579 134.005C249.625 134.589 248.745 135.323 248.084 136.354ZM286.188 143.766C276.349 138.922 262.99 133.125 254.474 132.974C253.886 132.974 253.297 133.047 252.709 133.198C255.282 133.932 260.052 135.401 265.412 137.453C272.829 140.391 283.032 145.161 289.636 151.552C294.115 151.917 298.594 152.359 303 152.797C299.62 150.891 293.308 147.292 286.188 143.766ZM399.907 159.552C393.813 159.552 388.823 164.547 388.823 170.641C388.823 176.729 393.813 181.724 399.907 181.724C406 181.724 410.995 176.729 410.995 170.641C410.995 164.547 406 159.552 399.907 159.552ZM408.5 186.938L408.349 185.615C419.365 184.219 428.761 177.979 432.287 175.411C432.287 175.411 432.287 175.411 432.287 175.339C432.287 175.266 432.214 175.266 432.214 175.266C429.641 174.677 422.594 173.063 412.318 170.932C412.094 177.615 406.589 183.047 399.907 183.047C393.006 183.047 387.5 177.464 387.5 170.641C387.5 169.094 387.797 167.703 388.308 166.307C383.464 165.427 378.177 164.469 372.454 163.516C372.011 167.406 370.323 186.495 377.589 192.661C380.896 195.453 390.146 195.01 404.313 191.49C411.433 189.651 418.261 187.448 422.079 186.13L414.667 185.688C412.683 186.203 410.625 186.641 408.5 186.938ZM432.433 186.865L425.532 186.422C424.282 186.865 414.886 190.24 404.605 192.807C396.532 194.865 390.073 195.818 385.224 195.818C381.188 195.818 378.323 195.083 376.636 193.693C372.964 190.609 370.912 184.443 370.542 175.339C370.323 169.906 370.834 165.057 370.985 163.37C370.688 163.297 370.396 163.297 370.099 163.224C367.605 169.682 366.797 176.365 367.75 183.047C368.558 188.479 370.469 193.911 373.552 199.198C378.105 207.198 383.901 212.557 385.224 213.734C386.105 213.438 386.912 213.146 387.797 212.776C415.177 202.646 428.834 190.313 432.433 186.865ZM261.151 225.771C287.948 228.125 313.204 227.828 336.11 224.964C353.292 222.839 369.292 219.167 383.829 214.172C381.849 212.339 376.709 207.271 372.454 199.859C369.292 194.427 367.313 188.771 366.506 183.193C365.844 178.568 365.99 173.87 366.943 169.318C360.922 169.536 324.657 170.563 283.396 170.563C283.105 170.563 282.813 170.563 282.516 170.563C240.745 170.563 185.386 169.391 158.813 163.958C139.136 168.948 122.766 174.453 111.532 178.641C109.11 179.521 107.495 181.651 107.349 184.146C107.198 186.641 108.448 188.917 110.651 190.167C153.157 213.438 223.198 222.469 261.151 225.771ZM68.0681 209.109C68.0681 209.109 68.5837 210.208 76.6618 208.74C81.2868 207.859 87.5993 206.391 95.3806 204.188C105.954 201.25 116.526 197.875 120.49 196.552C118.433 195.599 116.526 194.719 114.834 193.911C113.443 194.427 106.907 196.776 99.417 198.755C91.9275 200.74 85.8337 201.693 81.2087 201.693C78.9327 201.693 76.9535 201.474 75.4118 200.958C67.9223 206.906 67.9223 208.667 68.0681 209.109Z" fill="#17392D"/>
</g>
</g>
<defs>
<clipPath id="clip0_512_76">
<rect width="500" height="500" rx="250" fill="white"/>
</clipPath>
</defs>
</svg>
