<svg width="500" height="500" viewBox="0 0 500 500" fill="none" xmlns="http://www.w3.org/2000/svg">
<g clip-path="url(#clip0_512_352)">
<path d="M550 -50H-50V550H550V-50Z" fill="white"/>
<path d="M550 -50H-50V550H550V-50Z" fill="#50B09F"/>
<path d="M245.01 179.838C248.839 181.52 252.76 183.297 256.87 183.39C264.156 183.578 270.417 178.906 276.672 175.166C287.51 168.724 299.745 164.708 312.26 163.494C319.734 162.838 327.583 163.026 334.401 159.755C337.854 158.078 342.526 155.739 344.953 158.729C347.292 161.531 344.396 165.828 341.313 167.791C329.26 175.448 312.729 173.859 301.615 182.734C297.969 185.63 295.167 189.552 291.432 192.354C282.932 198.895 271.161 199.083 260.422 198.895C254.443 198.802 247.812 198.427 243.422 194.317C240.807 191.89 239.5 188.432 237.63 185.349C235.76 182.177 233.146 179.375 230.625 176.661C233.615 172.552 241.083 178.156 245.01 179.838Z" fill="#F38143"/>
<path d="M217.547 173.677C212.037 167.417 209.047 159.198 208.209 150.886C207.646 145.558 207.834 140.141 206.339 135.099C205.406 131.922 203.818 129.026 202.229 126.13C198.677 119.5 195.037 112.959 191.485 106.328C188.964 101.563 186.255 96.2398 187.656 91.1044C189.245 85.219 195.599 81.5732 197.089 75.693C197.558 74.0107 197.558 72.0471 198.49 70.5523C200.36 67.6565 205.125 68.1252 207.365 70.6461C209.61 73.1669 209.886 77.0002 209.235 80.3596C208.578 83.7242 207.177 86.9013 206.526 90.2607C204.281 101.75 211.198 112.677 215.584 123.422C219.229 132.485 221.281 142.198 221.469 151.912C221.563 154.808 221.469 157.703 222.5 160.412C223.245 162.37 224.646 164.052 225.953 165.641C230.438 171.151 235.761 176.568 239.313 182.641C231.839 185.724 222.594 178.719 217.547 173.677Z" fill="#F38143"/>
<mask id="mask0_512_352" style="mask-type:luminance" maskUnits="userSpaceOnUse" x="90" y="320" width="177" height="89">
<path d="M90.9297 320.219H266.93V409H90.9297V320.219Z" fill="white"/>
</mask>
<g mask="url(#mask0_512_352)">
<path d="M191.018 350.4C182.612 351.895 173.925 352.827 165.888 355.817C151.784 360.958 140.294 371.604 126.471 377.395C117.039 381.223 106.576 382.906 98.3568 388.791C93.4037 392.343 89.3881 399.442 93.1276 404.296C95.5547 407.473 100.133 407.942 104.055 408.124C109.565 408.406 114.982 408.687 120.492 408.968C124.607 409.156 128.81 409.437 132.826 408.312C138.055 407.005 142.445 403.645 146.742 400.468C166.451 386.458 188.216 375.619 209.138 363.76C228.289 352.921 253.414 339.661 265.742 320.791C241.456 333.682 218.664 345.452 191.018 350.4Z" fill="#D2C720"/>
</g>
<mask id="mask1_512_352" style="mask-type:luminance" maskUnits="userSpaceOnUse" x="39" y="313" width="208" height="62">
<path d="M39 313.553H246.932V374.886H39V313.553Z" fill="white"/>
</mask>
<g mask="url(#mask1_512_352)">
<path d="M180.745 364.412C174.859 367.214 168.88 370.016 162.531 371.604C157.391 372.912 152.068 373.287 146.745 373.568C134.042 374.032 121.151 373.193 109.193 368.896C101.536 366.094 94.5312 361.891 87.526 357.782C79.3958 352.922 71.2708 348.068 63.1458 343.209C53.4322 337.417 42.875 330.506 40.0729 319.578C39.6979 318.084 39.5104 316.401 40.4479 315.282C41.8489 313.412 44.8385 313.974 47.0781 314.813C68 322.287 89.0208 329.761 109.943 337.229C117.042 339.756 124.234 342.37 130.958 345.823C134.229 347.506 137.401 349.375 140.859 350.401C143.943 351.334 147.213 351.615 150.479 351.709C171.125 352.646 191.953 349.657 211.568 343.021C222.219 339.381 234.641 332.657 246.036 333.214C237.724 340.313 223.807 344.328 213.812 349C202.698 354.047 191.766 359.183 180.745 364.412Z" fill="#F38143"/>
</g>
<path d="M227.539 57.5667C233.425 50.098 244.258 48.4157 252.946 53.7386C255.003 55.0459 257.242 56.822 258.086 59.4365C259.857 56.447 272.466 53.0824 275.831 53.5511C284.05 54.7647 287.414 61.3063 293.206 68.5928C296.847 73.072 295.727 78.9574 296.196 84.749C296.289 85.6813 296.289 86.8063 297.034 87.3636C297.503 87.8324 298.154 87.7386 298.716 87.8324C303.571 88.0199 308.524 90.7282 311.982 95.0251C315.435 99.322 317.399 105.114 317.305 110.53C317.305 110.999 317.211 111.65 317.586 112.119C317.956 112.77 318.8 112.77 319.357 112.957C323.19 113.52 336.357 119.499 338.414 123.515C340.654 127.999 344.206 137.713 344.3 142.567C344.3 147.426 330.102 145.28 326.086 146.4C314.597 149.572 301.612 139.207 290.498 131.64C279.383 124.259 269.201 114.921 259.487 105.207C254.347 100.067 249.399 94.6501 245.659 88.2074C240.805 79.5199 238.19 68.6813 230.623 63.0772C229.779 62.4261 228.847 61.9574 228.196 61.1188C227.539 60.1813 226.977 58.3167 227.539 57.5667Z" fill="#E673A9"/>
<path d="M300.956 125.942C301.425 126.13 301.706 125.197 301.8 124.541C302.081 117.723 301.8 110.718 300.768 103.901C300.211 99.8797 299.367 95.7704 297.503 92.5047C295.914 89.8902 293.857 87.9266 291.524 86.2443C281.998 79.3329 269.852 78.4943 260.232 84.1922C259.857 86.1506 260.045 87.2704 260.977 88.9527C265.649 98.1089 271.065 106.703 277.888 113.614C284.8 120.526 292.55 124.166 300.956 125.942Z" fill="#D2C720"/>
<path d="M257.057 171.995C277.047 157.328 299.932 149.203 323.469 146.958C324.963 140.609 323.469 133.417 320.854 127.437C320.109 125.755 319.265 124.073 318.146 122.766C316.745 121.088 315.062 119.963 313.385 119.031C307.5 115.76 300.771 113.333 294.422 113.802C294.14 110.531 293.672 107.26 292.552 104.271C291.432 101.281 289.562 98.5729 287.229 96.9895C284.052 94.8385 280.224 94.9322 276.672 95.1197C276.114 95.2135 275.271 95.3072 275.271 95.8645C274.807 90.0729 273.219 84.3749 270.604 79.427C269.76 77.7447 268.828 76.1562 267.521 74.8489C265.838 73.1666 263.786 72.3281 261.823 71.5781C257.62 70.0833 252.854 70.177 249.12 72.6093C248.182 67.9374 245.474 63.9218 242.021 61.5833C238.562 59.2499 234.547 58.5051 230.812 58.9687C229.693 59.0624 229.036 59.5312 228.104 60.4635C231 67.3749 232.213 75.0364 233.052 82.6979C233.708 88.4895 234.359 94.3697 234.172 100.161C234.078 103.62 233.708 107.167 233.333 110.625C232.026 123.422 226.234 121.552 225.859 134.536C225.672 142.01 228.943 164.896 232.677 171.057C235.573 175.823 240.526 178.25 245.292 177.969C250.052 177.599 253.042 174.891 257.057 171.995Z" fill="#F38143"/>
<mask id="mask2_512_352" style="mask-type:luminance" maskUnits="userSpaceOnUse" x="277" y="43" width="22" height="48">
<path d="M277.598 43H298.931V90.8854H277.598V43Z" fill="white"/>
</mask>
<g mask="url(#mask2_512_352)">
<path d="M281.622 90.0723L278.352 88.8587C283.956 73.541 289.372 58.3171 294.701 43.4629L297.966 44.5827C292.737 59.5306 287.227 74.8483 281.622 90.0723Z" fill="#FFABDA"/>
</g>
<path d="M288.909 95.4017L286.57 92.8757C298.716 81.5736 310.112 71.6725 321.508 62.4277L323.654 65.1361C312.445 74.2923 301.049 84.1934 288.909 95.4017Z" fill="#FFABDA"/>
<path d="M295.729 101.938L294.047 98.9479C307.687 91.0104 321.135 83.5365 333.932 76.9062L335.521 79.9844C322.724 86.6198 309.365 94 295.729 101.938Z" fill="#FFABDA"/>
<mask id="mask3_512_352" style="mask-type:luminance" maskUnits="userSpaceOnUse" x="272" y="43" width="7" height="43">
<path d="M272.266 43H278.932V85.5521H272.266V43Z" fill="white"/>
</mask>
<g mask="url(#mask3_512_352)">
<path d="M276.208 85.2188L272.75 85.125C272.938 80.3594 273.125 75.5052 273.313 70.7396C273.688 61.6771 274.057 52.2448 274.432 43L277.891 43.0885C277.609 52.3385 277.141 61.7708 276.766 70.8333C276.672 75.599 276.396 80.3594 276.208 85.2188Z" fill="#FFABDA"/>
</g>
<path d="M290.123 385.15L287.696 377.114C298.998 373.661 308.243 370.671 316.931 367.775C327.113 364.411 336.826 360.958 345.045 354.979C351.774 350.119 357.378 343.395 362.42 336.952C366.061 332.468 369.332 327.984 370.826 322.937C373.441 313.973 369.05 303.041 360.274 296.88C352.332 291.369 341.217 289.406 329.727 291.369C318.238 293.421 307.405 298.838 298.436 303.791C287.134 310.051 276.3 316.775 266.212 323.968C265.092 324.807 263.967 325.557 262.847 326.395C256.774 330.786 250.613 335.27 243.514 338.354C229.597 344.515 213.436 344.89 199.238 339.473C193.821 337.51 189.618 334.895 186.535 331.437C179.248 323.593 178.316 312.291 178.222 304.536C178.035 289.406 180.181 274.551 184.665 260.447C190.832 241.114 201.108 223.275 210.165 207.489C219.134 191.796 229.41 174.14 245.847 163.119L250.519 170.124C235.665 180.025 226.045 196.838 217.451 211.692C208.576 227.104 198.582 244.479 192.701 262.973C188.498 276.234 186.441 290.156 186.628 304.442C186.722 314.624 188.681 321.354 192.701 325.739C194.941 328.171 198.024 330.036 202.134 331.531C214.368 336.202 228.196 335.827 240.056 330.598C246.316 327.89 251.92 323.781 257.899 319.484C259.019 318.64 260.139 317.895 261.259 317.057C271.628 309.676 282.649 302.671 294.233 296.317C303.852 290.994 315.436 285.202 328.139 282.963C342.056 280.531 355.134 282.963 365.035 289.781C376.618 297.906 382.41 312.666 378.769 324.994C376.899 331.437 372.884 336.859 368.868 341.9C363.352 348.812 357.378 356.005 349.811 361.421C340.655 368.15 330.196 371.791 319.451 375.343C310.858 378.702 301.519 381.692 290.123 385.15Z" fill="#FFA08B"/>
<path d="M339.347 286.885C337.759 273.432 336.826 258.021 346.259 248.401C349.717 244.943 354.108 242.609 357.748 239.339C364.196 233.641 367.837 225.328 373.071 218.51C385.957 201.604 407.628 194.318 427.899 187.964C438.269 184.698 448.54 181.427 458.91 178.25C463.675 188.901 455.826 202.443 446.394 209.26C436.962 216.083 425.378 219.63 416.035 226.542C406.977 233.271 400.154 242.891 390.253 248.401C384.373 251.672 377.644 253.255 371.389 255.781C356.816 261.667 345.983 272.594 339.347 286.885Z" fill="#F38143"/>
<path d="M340.193 286.698C330.943 264.188 328.328 239.057 332.625 215.052C334.12 206.646 336.547 198.333 340.656 190.859C345.797 181.521 353.547 173.766 358.594 164.427C363.448 155.646 366.813 144.625 376.151 140.984C378.584 146.495 376.807 154.057 375.125 159.849C369.709 178.625 364.292 197.589 355.511 215.052C350.932 224.021 345.516 232.615 342.901 242.328C340.938 249.708 340.75 257.37 340.563 264.932C340.38 272.688 340.38 279.036 340.193 286.698Z" fill="#D2C720"/>
<path d="M369.146 162.281C360.37 175.822 351.589 189.458 344.953 204.218C338.229 219.166 334.307 235.041 334.776 251.578C335.052 261.572 336.641 271.474 338.51 281.281C338.698 282.494 340.563 281.932 340.286 280.812C337.109 263.812 334.958 246.531 338.51 229.437C341.781 214.026 348.599 199.64 356.443 186.099C360.927 178.343 365.786 170.781 370.734 163.307C371.391 162.187 369.802 161.25 369.146 162.281Z" fill="#E673A9"/>
<path d="M225.207 343.584C209.702 353.391 194.103 363.011 178.316 372.354C163.931 380.854 149.077 388.979 132.921 393.557C123.952 396.078 114.702 397.386 105.363 397.011C104.15 396.917 104.15 398.787 105.363 398.88C122.082 399.537 138.337 394.771 153.374 387.86C169.254 380.573 184.108 371.136 199.051 361.985C208.113 356.474 217.171 350.87 226.139 345.172C227.165 344.516 226.233 342.927 225.207 343.584Z" fill="#E673A9"/>
<path d="M406.453 207.365L410.948 202.875L412.927 204.854L408.432 209.344L406.453 207.365Z" fill="#D2C720"/>
<path d="M449.27 186.474L454.754 181.266L456.686 183.297L451.197 188.51L449.27 186.474Z" fill="#D2C720"/>
<path d="M451.904 197.588L449.758 195.812C450.596 194.786 451.253 193.755 451.716 192.729L454.237 193.942C453.68 195.062 452.836 196.374 451.904 197.588Z" fill="#D2C720"/>
<path d="M442.099 194.881C441.073 194.037 440.042 193.105 439.297 192.079L441.443 190.303C442.099 191.141 442.938 191.985 443.875 192.73L442.099 194.881Z" fill="#D2C720"/>
<path d="M430.889 196.375L428.738 194.599C429.113 194.13 429.582 193.573 429.957 193.01C430.421 192.448 430.796 191.891 431.264 191.422L433.41 193.198C433.035 193.661 432.572 194.224 432.197 194.786C431.728 195.25 431.264 195.812 430.889 196.375Z" fill="#D2C720"/>
<path d="M440.792 205.244C440.417 205.057 440.042 204.874 439.578 204.781C439.297 204.593 438.922 204.499 438.641 204.312L439.672 201.697C440.042 201.885 440.417 202.072 440.885 202.161C441.167 202.348 441.536 202.442 441.818 202.63L440.792 205.244Z" fill="#D2C720"/>
<path d="M428.646 206.927L426.312 205.432C427.339 203.937 428.182 202.255 429.021 200.578L431.542 201.792C430.609 203.562 429.677 205.339 428.646 206.927Z" fill="#D2C720"/>
<path d="M423.789 216.547C423.133 216.453 422.482 216.359 421.826 216.359C421.174 216.271 420.424 216.177 419.773 216.083L420.143 213.281C420.799 213.375 421.451 213.469 422.107 213.469C422.763 213.557 423.508 213.651 424.164 213.745L423.789 216.547Z" fill="#D2C720"/>
<path d="M422.578 199.922C420.99 198.99 419.401 198.427 417.625 198.24L417.906 195.438C420.052 195.625 422.109 196.375 423.979 197.495L422.578 199.922Z" fill="#D2C720"/>
<path d="M399.035 207.584C398.29 207.115 397.634 206.74 396.889 206.277C396.139 205.808 395.488 205.433 394.738 204.964L396.139 202.537C396.889 203.006 397.54 203.381 398.29 203.844C399.035 204.313 399.691 204.688 400.436 205.152L399.035 207.584Z" fill="#D2C720"/>
<path d="M403.802 222.339L401.188 221.406C401.745 219.818 402.214 218.229 402.682 216.734L405.391 217.484C404.828 219.073 404.365 220.75 403.802 222.339Z" fill="#D2C720"/>
<path d="M388.108 213.468C387.921 213.093 387.733 212.624 387.639 212.249C387.546 211.973 387.452 211.786 387.363 211.505L389.978 210.385C390.072 210.661 390.254 210.942 390.348 211.317C390.441 211.692 390.629 211.973 390.723 212.249L388.108 213.468Z" fill="#D2C720"/>
<path d="M396.982 218.416L394.273 217.577C394.461 216.921 394.643 216.359 394.924 215.708C395.112 215.145 395.299 214.588 395.487 214.025L398.195 214.869C398.008 215.52 397.82 216.083 397.539 216.734C397.352 217.296 397.169 217.854 396.982 218.416Z" fill="#D2C720"/>
<path d="M398.664 232.802C398.57 232.427 398.383 231.958 398.195 231.495C398.008 231.026 397.82 230.557 397.727 230.188L400.341 229.25C400.435 229.625 400.622 230.094 400.81 230.557C400.997 231.026 401.185 231.495 401.279 231.958L398.664 232.802Z" fill="#D2C720"/>
<path d="M385.682 228.693L384.281 226.261C385.682 225.423 386.99 224.584 388.297 223.74L389.792 226.079C388.391 227.011 387.083 227.85 385.682 228.693Z" fill="#D2C720"/>
<path d="M415.941 219.256H413.139C413.139 218.605 412.952 218.042 412.582 217.298L415.009 215.896C415.665 217.11 415.941 218.136 415.941 219.256Z" fill="#D2C720"/>
<path d="M390.721 240.645C389.695 239.244 389.227 237.567 389.039 235.791L391.841 235.604C391.935 236.911 392.31 238.031 392.966 238.968L390.721 240.645Z" fill="#D2C720"/>
<path d="M378.018 223.182L376.617 220.749C377.643 220.192 378.487 219.255 379.044 218.135L381.57 219.348C380.82 221.031 379.607 222.338 378.018 223.182Z" fill="#D2C720"/>
<path d="M374.473 236.166L373.254 233.64C373.91 233.364 374.566 232.989 375.217 232.614C375.874 232.239 376.618 231.869 377.368 231.588L378.582 234.109C377.926 234.39 377.275 234.765 376.618 235.135C375.874 235.416 375.217 235.791 374.473 236.166Z" fill="#D2C720"/>
<path d="M377.927 247.375L375.781 245.599C376.245 245.036 376.62 244.573 377.089 244.01C377.552 243.542 377.927 242.984 378.396 242.516L380.542 244.292C380.078 244.849 379.703 245.318 379.234 245.88C378.771 246.344 378.302 246.812 377.927 247.375Z" fill="#D2C720"/>
<path d="M365.693 242.797L363.172 241.583C363.729 240.464 364.385 239.339 365.036 238.219L367.469 239.62V239.714C366.906 240.646 366.25 241.677 365.693 242.797Z" fill="#D2C720"/>
<path d="M359.993 250.641C359.337 250.083 358.499 249.802 357.473 249.802V247C359.056 247 360.551 247.469 361.676 248.401L359.993 250.641Z" fill="#D2C720"/>
<path d="M350.374 259.141C349.249 257.74 348.41 256.433 347.848 255.126L350.462 254.006C350.931 255.032 351.587 256.152 352.613 257.277L350.374 259.141Z" fill="#D2C720"/>
<path d="M367.65 252.604L365.223 251.297C365.598 250.547 365.973 249.896 366.436 249.146C366.811 248.495 367.186 247.839 367.556 247.188L369.988 248.495C369.613 249.24 369.238 249.896 368.775 250.641C368.4 251.297 368.025 251.948 367.65 252.604Z" fill="#D2C720"/>
<path d="M347.103 267.641C345.889 267.083 344.952 266.052 344.301 264.839L346.822 263.625C347.197 264.281 347.66 264.839 348.316 265.12L347.103 267.641Z" fill="#D2C720"/>
<path d="M356.07 255.969H358.872V259.328H356.07V255.969Z" fill="#D2C720"/>
<path d="M351.306 250.641C350.837 250.453 350.462 250.177 349.999 249.99C349.624 249.802 349.249 249.615 348.879 249.427L349.999 246.906C350.462 247.094 350.837 247.375 351.306 247.563C351.681 247.745 352.051 247.932 352.426 248.12L351.306 250.641Z" fill="#D2C720"/>
<path d="M202.323 351.428L200.922 349.001C201.854 348.438 202.88 347.881 203.818 347.412L205.031 349.933C204.099 350.402 203.161 350.87 202.323 351.428Z" fill="#D2C720"/>
<path d="M192.607 354.885C191.669 354.51 190.924 354.046 190.081 353.671L189.242 353.296L190.456 350.775L191.299 351.244C192.138 351.614 192.883 351.989 193.633 352.364L192.607 354.885Z" fill="#D2C720"/>
<path d="M183.263 357.874L180.461 357.406C180.555 356.848 180.648 356.38 180.836 355.817C180.93 355.354 181.023 354.791 181.117 354.322L183.919 354.791C183.826 355.354 183.732 355.817 183.544 356.38C183.451 356.848 183.357 357.312 183.263 357.874Z" fill="#D2C720"/>
<path d="M165.672 357.308L168.177 356.053L169.849 359.396L167.339 360.646L165.672 357.308Z" fill="#D2C720"/>
<path d="M172.056 366.375L169.629 365.068C170.186 363.948 170.936 363.01 171.587 362.078L173.926 363.667C173.176 364.599 172.618 365.443 172.056 366.375Z" fill="#D2C720"/>
<path d="M152.534 360.678C151.32 359.834 150.57 358.251 150.57 356.662H153.372C153.372 357.407 153.654 358.063 154.216 358.433L152.534 360.678Z" fill="#D2C720"/>
<path d="M158.514 367.682L156.551 365.718C157.113 365.161 157.577 364.317 157.764 363.479L160.473 364.13C160.103 365.442 159.353 366.749 158.514 367.682Z" fill="#D2C720"/>
<path d="M143.38 366.469C142.167 364.693 141.234 363.011 140.578 361.423L143.193 360.396C143.755 361.798 144.5 363.292 145.625 364.881L143.38 366.469Z" fill="#D2C720"/>
<path d="M137.493 357.875L134.879 356.755C135.16 356.099 135.441 355.448 135.723 354.792C135.999 354.135 136.28 353.391 136.561 352.734L139.176 353.859C138.895 354.51 138.618 355.167 138.337 355.818C138.056 356.568 137.775 357.219 137.493 357.875Z" fill="#D2C720"/>
<path d="M132.733 370.391C132.077 369.734 131.332 369.365 130.488 369.271L130.676 366.469C132.077 366.562 133.572 367.307 134.598 368.333L132.733 370.391Z" fill="#D2C720"/>
<path d="M128.811 363.573L126.473 362.078C126.848 361.422 127.316 360.771 127.686 360.208C128.061 359.557 128.53 358.901 128.9 358.25L131.238 359.745C130.77 360.396 130.395 361.052 130.025 361.703C129.556 362.266 129.181 362.917 128.811 363.573Z" fill="#D2C720"/>
<path d="M126.471 353.39L125.445 350.775C126.284 350.4 127.497 350.025 128.898 350.025V352.827C128.154 352.827 127.409 353.015 126.471 353.39Z" fill="#D2C720"/>
<path d="M117.134 366.656C116.103 365.349 115.827 363.479 116.384 361.797L119.092 362.635C118.816 363.479 118.999 364.411 119.467 365.068L117.134 366.656Z" fill="#D2C720"/>
<path d="M116.854 358.807L114.984 356.755C115.922 355.911 116.76 354.885 117.693 353.484L120.031 354.979C119 356.568 117.974 357.781 116.854 358.807Z" fill="#D2C720"/>
<path d="M112.238 344L115.311 343.719L115.566 346.505L112.493 346.786L112.238 344Z" fill="#D2C720"/>
<path d="M103.306 361.329C102.28 359.834 101.629 357.876 101.629 355.912H104.431C104.431 357.313 104.801 358.62 105.551 359.652L103.306 361.329Z" fill="#D2C720"/>
<path d="M104.893 352.177C104.711 351.802 104.523 351.427 104.336 351.057C104.148 350.589 103.867 350.214 103.68 349.75L106.201 348.625C106.388 349 106.576 349.375 106.763 349.75C106.951 350.214 107.232 350.589 107.419 351.057L104.893 352.177Z" fill="#D2C720"/>
<path d="M103.124 342.275L101.066 340.406C101.441 340.031 101.723 339.567 102.092 339.192C102.467 338.723 102.842 338.26 103.217 337.791L105.27 339.661C104.895 340.031 104.618 340.499 104.243 340.874C103.868 341.338 103.493 341.807 103.124 342.275Z" fill="#D2C720"/>
<path d="M83.9714 355.912C83.4141 354.792 82.9453 353.485 82.6641 351.896L85.3724 351.334C85.6536 352.646 86.0286 353.766 86.4922 354.605L83.9714 355.912Z" fill="#D2C720"/>
<path d="M93.0339 352.922C92.1901 351.615 91.6328 350.214 91.6328 348.719H94.4349C94.4349 349.562 94.7161 350.495 95.2734 351.245L93.0339 352.922Z" fill="#D2C720"/>
<path d="M81.5456 345.359L79.957 343.115C81.3581 342.089 83.0404 341.339 84.9049 340.969L85.5612 343.677C83.9727 343.958 82.5716 344.609 81.5456 345.359Z" fill="#D2C720"/>
<path d="M83.7865 336.297L81.3594 334.99C81.9219 333.964 82.4792 332.932 83.0417 332L85.4688 333.401C84.9063 334.333 84.349 335.271 83.7865 336.297Z" fill="#D2C720"/>
<path d="M64.3125 337.38L66.9323 336.375L68.3385 340.036L65.724 341.042L64.3125 337.38Z" fill="#D2C720"/>
<path d="M73.0039 333.083L73.2852 330.016L76.0768 330.271L75.7956 333.339L73.0039 333.083Z" fill="#D2C720"/>
<path d="M62.6758 329.855L62.3008 327.053C63.9831 326.865 65.3841 326.584 66.5977 326.209L67.4414 328.917C66.1341 329.292 64.5456 329.574 62.6758 329.855Z" fill="#D2C720"/>
<path d="M50.9049 328.452L50.6289 326.02L53.431 325.65L53.707 328.077L50.9049 328.452Z" fill="#D2C720"/>
<path d="M57.3529 324.433C56.5091 324.433 55.6706 324.339 54.7383 324.157L55.3893 321.443C56.2331 321.631 57.1654 321.725 58.4727 321.631L58.6602 324.433C58.3789 324.339 57.9102 324.433 57.3529 324.433Z" fill="#D2C720"/>
<path d="M46.7005 324.063L43.8984 323.876C43.9922 322.006 44.6484 320.136 45.7682 318.459L48.1016 320.042C47.263 321.261 46.7943 322.756 46.7005 324.063Z" fill="#D2C720"/>
<path d="M97.332 345.453H99.1966V348.255H97.332V345.453Z" fill="#D2C720"/>
<path d="M73.3268 347.131C72.8581 346.48 72.3893 345.917 72.0195 345.36L74.3529 343.771C74.7279 344.329 75.0977 344.798 75.4727 345.36L73.3268 347.131Z" fill="#D2C720"/>
<path d="M150.384 371.416L147.77 370.39C147.863 370.015 148.051 369.645 148.145 369.364C148.238 368.895 148.426 368.52 148.52 368.057L151.134 369.083C151.04 369.458 150.853 369.827 150.759 370.109C150.665 370.577 150.572 371.046 150.384 371.416Z" fill="#D2C720"/>
<path d="M240.525 119.776C237.348 128.557 234.171 137.526 234.546 147.052C234.64 148.266 236.509 148.266 236.416 147.052C236.041 137.807 239.218 128.932 242.301 120.339C242.671 119.125 240.9 118.656 240.525 119.776Z" fill="#D2C720"/>
<path d="M260.419 116.604C256.867 122.02 253.601 127.718 250.799 133.51C248.091 139.114 244.914 145.187 244.726 151.536C244.632 152.75 246.502 152.75 246.596 151.536C246.69 148.265 247.809 145.281 248.929 142.291C250.143 139.395 251.45 136.5 252.757 133.698C255.466 128.093 258.643 122.671 262.007 117.536C262.658 116.51 261.07 115.573 260.419 116.604Z" fill="#D2C720"/>
<path d="M268.077 143.969C263.597 148.084 259.019 152.099 254.535 156.209C253.603 157.047 255.004 158.354 255.842 157.516C260.327 153.407 264.905 149.391 269.389 145.282C270.321 144.438 269.014 143.131 268.077 143.969Z" fill="#D2C720"/>
<path d="M283.771 147.146C276.115 152.468 267.99 157.047 259.579 160.968C258.459 161.437 259.396 163.12 260.516 162.557C269.016 158.635 277.047 154.057 284.709 148.734C285.735 148.083 284.803 146.401 283.771 147.146Z" fill="#D2C720"/>
<path d="M160.104 359.088C159.823 358.713 159.542 358.249 159.26 357.874C158.979 357.499 158.698 357.124 158.422 356.755L160.661 355.072C160.943 355.447 161.224 355.817 161.505 356.286C161.781 356.661 162.062 357.031 162.344 357.406L160.104 359.088Z" fill="#D2C720"/>
<path d="M269.11 163.865C267.334 160.131 264.25 157.423 261.355 155.089C251.922 147.334 236.511 139.396 225.953 134.35C223.901 141.636 223.339 149.298 224.084 156.86C224.459 160.6 225.115 164.334 226.141 167.98C227.167 171.62 229.131 173.678 231.183 176.662C233.24 179.464 236.23 181.053 239.219 181.334C242.209 181.709 245.198 181.053 248 180.12C256.313 177.225 262.943 171.433 269.11 163.865Z" fill="#FFA08B"/>
<path d="M192.703 181.802C186.631 184.323 181.026 187.781 175.141 190.765C164.865 196.093 154.032 200.297 144.037 206.182C134.042 212.062 124.792 219.817 119.938 230.375C115.641 239.619 115.078 250.547 109.474 259.14C103.589 268.109 92.6618 273.619 89.2035 283.802C86.5889 291.276 88.7399 299.494 89.8597 307.338C91.0733 315.744 91.0733 324.338 89.8597 332.75C89.4847 335.364 89.0212 338.073 89.8597 340.593C90.6983 343.114 93.4066 345.265 95.9326 344.328C100.229 333.682 106.391 323.781 114.146 315.281C117.787 311.265 121.896 307.526 124.98 303.135C133.855 290.338 133.948 273.062 142.261 259.89C145.344 255.125 149.453 251.015 153.469 247C170.657 230.093 188.219 213.651 206.339 197.682C214.839 190.114 224.177 184.229 233.052 177.317C229.693 170.312 198.677 179.281 192.703 181.802Z" fill="#D2C720"/>
<path d="M239.962 219.818C239.124 227.667 237.066 236.167 240.712 243.172C241.832 245.412 243.514 247.282 244.822 249.427C247.811 254.287 249.025 259.891 250.145 265.495C252.572 277.266 255.004 288.938 257.431 300.709C263.967 291.464 265.092 279.318 264.249 268.016C263.41 256.714 260.796 245.505 260.702 234.203C260.702 229.532 261.072 224.771 260.139 220.193C259.207 215.521 257.056 211.13 254.91 206.834C252.478 202.073 250.145 197.401 247.717 192.636C245.566 188.433 243.139 183.854 239.499 180.683C233.707 175.729 231.556 177.88 234.171 184.323C238.655 195.719 241.176 207.396 239.962 219.818Z" fill="#D2C720"/>
<path d="M231.461 176.103C219.877 181.52 208.205 186.562 196.997 192.635C191.575 195.53 186.44 198.707 181.487 202.442C176.445 206.181 171.773 210.385 167.106 214.494L152.158 227.666C147.393 231.869 142.539 235.885 138.429 240.645C130.58 249.52 125.726 260.353 121.336 271.192C115.825 284.64 110.966 298.374 106.575 312.291C106.2 313.411 107.976 313.973 108.351 312.76C112.179 300.52 116.382 288.379 121.148 276.421C125.539 265.4 130.023 254.192 137.309 244.754C141.044 239.994 145.528 235.885 150.013 231.957C154.961 227.572 159.914 223.181 164.862 218.791C169.627 214.588 174.299 210.291 179.247 206.369C184.106 202.536 189.148 199.082 194.565 195.999C206.711 188.994 219.695 183.484 232.398 177.598C233.518 177.223 232.58 175.635 231.461 176.103Z" fill="#E673A9"/>
<path d="M252.297 227.666C250.896 216.359 248 205.338 243.328 194.88C240.807 189.088 237.724 183.578 234.172 178.25C233.521 177.224 231.932 178.156 232.583 179.187C238.75 188.432 243.516 198.614 246.693 209.26C250.052 220.844 251.078 232.708 252.109 244.666C252.76 251.578 253.417 258.489 253.974 265.401C254.068 266.614 255.937 266.614 255.844 265.401C254.724 252.791 253.88 240.182 252.297 227.666Z" fill="#E673A9"/>
</g>
<defs>
<clipPath id="clip0_512_352">
<rect width="500" height="500" rx="250" fill="white"/>
</clipPath>
</defs>
</svg>
