<svg width="500" height="500" viewBox="0 0 500 500" fill="none" xmlns="http://www.w3.org/2000/svg">
<g clip-path="url(#clip0_512_455)">
<path d="M550 -50H-50V550H550V-50Z" fill="white"/>
<path d="M550 -50H-50V550H550V-50Z" fill="#A6A646"/>
<mask id="mask0_512_455" style="mask-type:luminance" maskUnits="userSpaceOnUse" x="50" y="101" width="400" height="298">
<path d="M50.6836 101.334H449.684V398.667H50.6836V101.334Z" fill="white"/>
</mask>
<g mask="url(#mask0_512_455)">
<path d="M446.393 359.74C446.174 359.881 445.966 360.047 445.784 360.224C445.476 360.537 445.252 360.875 445.07 361.224C444.815 361.422 444.549 361.594 444.263 361.73C443.7 362.584 443.08 363.412 442.414 364.193C442.013 364.662 441.601 365.115 441.164 365.553C436.648 370.224 430.429 373.521 424.752 376.162C419.57 378.558 414.383 380.323 408.945 381.969C402.726 383.849 396.502 385.735 390.211 387.349C387.929 387.933 385.638 388.526 383.31 388.896C383.294 388.974 383.284 389.058 383.268 389.141C366.893 392.881 350.325 395.657 333.476 396.844C306.357 398.756 278.857 397.105 252.268 391.287C223.919 385.079 196.789 373.271 172.784 356.969C160.414 348.573 149.091 338.933 138.565 328.308C128.023 317.672 117.851 306.553 108.763 294.646C100.159 283.375 92.4555 271.464 85.5961 259.058C78.6534 246.49 71.2003 234.079 67.1222 220.23C65.0284 213.11 63.2419 205.891 61.0649 198.797C59.0805 192.318 56.7888 185.943 55.1586 179.365C52.1169 167.073 50.6742 154.349 52.9399 141.797L52.9347 141.787C52.8982 141.641 52.8826 141.511 52.8461 141.36C53.0597 140.87 53.2784 140.386 53.518 139.907C53.6169 139.698 53.7263 139.485 53.8305 139.282C54.9034 137.204 56.2055 135.219 57.4972 133.24C58.6065 132.407 59.6794 131.532 60.7315 130.636C61.0284 130.448 61.3201 130.282 61.5961 130.115C74.294 122.672 89.1794 118.579 103.278 114.761C116.919 111.068 130.742 107.834 144.674 105.428C151.054 104.329 157.508 103.672 163.955 103.063C164.133 103.042 164.32 103.026 164.497 103.011C176.299 101.901 188.174 101.266 200.013 101.594C202.69 101.667 205.357 101.787 208.028 101.969C222.794 102.959 237.414 106.224 251.648 110.167C266.023 114.157 280.383 118.526 294.112 124.381C308.258 130.412 322.367 137.084 335.242 145.532C341.575 149.688 347.7 154.141 353.721 158.761C359.877 163.485 366.169 168.157 371.961 173.323C386.45 186.219 398.872 201.355 409.08 217.844C414.377 226.396 419.075 235.313 423.159 244.459C424.107 246.584 425.054 248.719 425.976 250.875L425.982 250.891C436.435 274.943 445.534 300.084 448.877 326.162C449.836 333.605 449.992 341.224 449.164 348.693C448.877 351.219 448.419 356.636 446.393 359.74Z" fill="#F38143"/>
</g>
<path d="M368.53 381.292L368.52 381.287C368.254 381.656 367.967 382.026 367.676 382.38C364.639 382.802 361.587 383.182 358.535 383.505C349.04 384.521 339.457 385.219 329.884 385.635C330.009 385.219 330.113 384.781 330.186 384.599L330.197 384.573C330.618 383.583 331.332 382.667 331.884 381.74C333.52 379.047 335.139 376.323 336.717 373.573C339.717 368.385 342.639 363.146 345.452 357.854C352.858 343.995 359.733 329.87 366.296 315.599C372.848 301.339 378.853 286.854 385.499 272.651C391.332 260.162 397.124 247.708 402.618 235.068C404.447 230.875 406.27 226.646 407.691 222.287C408.113 220.984 408.655 219.443 409.077 217.844C414.374 226.396 419.077 235.313 423.155 244.458C424.108 246.589 425.051 248.724 425.973 250.88L425.978 250.891C425.582 252.964 425.124 255.021 424.634 257.063C423.16 263.229 421.707 269.412 419.884 275.474C415.858 288.839 410.54 301.708 405.077 314.521C395.098 337.917 384.165 361.12 368.53 381.292ZM163.952 103.068C159.368 107.974 154.785 112.88 150.473 118.031C140.665 129.755 131.952 142.333 123.363 154.995C107.697 178.12 92.6758 201.979 82.7591 228.146C82.6029 228.557 82.4466 228.969 82.3008 229.38C87.8216 240.083 94.1602 250.406 100.613 260.531C100.733 260.724 100.868 260.922 100.993 261.115C101.04 261.01 101.092 260.917 101.134 260.818C101.259 260.589 101.374 260.344 101.493 260.115C102.941 257.245 104.415 254.391 105.915 251.542C108.999 245.724 112.155 239.938 115.405 234.214C123.931 219.198 132.952 204.484 142.275 189.958C151.577 175.453 161.374 161.281 170.587 146.724C178.697 133.943 186.796 121.214 195.202 108.625C196.775 106.271 198.358 103.901 200.009 101.594C188.171 101.266 176.296 101.906 164.493 103.01C164.316 103.031 164.129 103.047 163.952 103.068ZM376.634 233.771C375.066 235.297 372.483 236.484 369.322 234.662C369.108 234.542 369.03 234.385 369.051 234.25C368.957 234.229 368.853 234.172 368.759 234.083C368.488 233.818 368.217 233.563 367.931 233.302C365.306 236.896 362.296 240.172 359.077 242.958C357.723 244.141 356.275 245.594 354.322 245.464C352.671 245.354 351.306 244.755 350.186 243.526C349.712 243 349.415 242.469 349.29 241.932C348.65 239.557 350.905 237.172 352.655 235.599C355.546 233.021 357.827 229.781 359.827 226.406C356.077 223.49 352.124 220.74 348.087 218.083C346.79 220.01 345.447 221.901 344.04 223.719C342.15 226.203 340.108 228.62 337.723 230.646C336.296 231.859 334.78 232.948 332.832 232.917C329.155 232.87 328.832 227.537 330.176 225.188C332.738 220.672 335.895 216.422 338.884 212.151C337.191 211.073 335.504 210 333.832 208.927C330.691 206.901 327.551 204.901 324.384 202.906L321.978 207.135C319.785 210.979 317.228 217.162 312.895 219.073C310.207 220.271 307.717 217.266 307.858 214.74C307.999 212.276 309.275 210.089 310.488 208.005C312.108 205.219 313.348 202.25 314.671 199.307C314.952 198.682 315.233 198.047 315.509 197.406C311.764 195.104 307.999 192.833 304.197 190.615C303.155 192.693 302.04 194.729 300.9 196.75C299.624 199.005 298.441 201.427 296.822 203.453C295.16 205.537 291.207 209.005 288.405 206.542C284.947 203.484 288.212 198.417 289.66 195.234C291.223 191.792 292.603 188.26 294.145 184.818L293.962 184.708C288.79 181.797 283.587 178.964 278.332 176.219C278.03 176.625 277.738 177.037 277.457 177.443C275.598 180.078 273.665 182.646 272.103 185.469C270.926 187.573 269.697 189.787 267.65 191.162C265.546 192.568 261.691 191.958 261.353 189.037C260.79 184.333 264.811 178.984 266.999 175.141L269.066 171.516C263.952 168.964 258.796 166.516 253.598 164.172C251.608 168.594 249.676 173.094 247.285 177.287C245.947 179.63 241.197 182.073 239.28 178.938C238.264 177.271 238.415 175.417 238.733 173.568C239.275 170.484 240.311 167.49 241.478 164.594C242.129 162.969 242.827 161.349 243.577 159.745C239.15 157.823 234.676 155.938 230.197 154.146C228.728 157.057 227.488 160.083 226.874 163.245C226.311 166.063 225.077 170.172 221.311 169.401C219.686 169.063 218.473 168.193 217.54 166.833C216.426 165.208 216.941 163.229 217.264 161.464C217.931 157.781 219.004 154.068 220.431 150.458C217.848 149.526 215.254 148.646 212.665 147.813C212.202 147.672 212.165 147.214 212.467 147.135C211.858 146.412 210.936 145.729 210.421 144.958C209.895 144.156 210.051 143.083 210.165 142.396C210.473 140.495 211.113 138.568 212.988 137.615C216.53 135.818 222.092 136.979 226.868 138.406C228.587 135.938 230.493 133.641 232.566 131.583C235.171 129 238.342 127.167 242.113 127.505C245.051 127.776 246.28 129.917 245.921 132.531C245.973 132.604 245.999 132.708 245.988 132.813C246.197 133.063 246.087 133.599 245.639 133.656C245.504 133.677 245.374 133.693 245.243 133.708C243.363 135.583 241.29 137.255 239.681 139.396C238.973 140.349 238.259 141.271 237.561 142.219C239.801 143.094 242.025 144.005 244.249 144.885C246.212 145.662 248.165 146.453 250.129 147.26C251.28 145.37 252.546 143.547 253.91 141.807C254.889 140.557 255.978 139.406 257.118 138.302C257.525 137.927 258.431 137.464 258.723 137.167C258.806 137.073 258.915 137.021 259.014 137.021C259.41 136.662 259.879 136.359 260.478 136.146C261.816 135.667 263.546 135.531 264.499 136.833C266.884 140.047 265.759 143.13 263.686 146.219C262.483 148.016 261.306 149.797 260.197 151.604C264.348 153.464 268.462 155.412 272.54 157.458C273.717 158.047 274.895 158.641 276.061 159.24L277.27 157.125C278.197 155.5 279.129 153.88 280.171 152.323C280.629 151.641 281.171 150.708 281.884 150.115C281.941 149.354 282.717 149.182 283.723 148.802C285.118 148.276 286.525 149.448 287.348 150.401C289.957 153.49 289.108 157.995 287.66 161.354C287.207 162.417 286.691 163.464 286.134 164.495C290.983 167.083 295.811 169.724 300.598 172.412C302.009 169.802 303.415 167.182 304.848 164.594C304.686 164.469 304.618 164.255 304.77 164.026C305.139 163.495 305.546 162.974 306.009 162.495L306.155 162.234C306.243 162.083 306.379 162.005 306.514 161.995C308.259 160.417 310.467 159.615 312.712 161.214C315.79 163.412 314.077 167.901 312.947 170.583C311.947 172.958 310.837 175.276 309.78 177.62C310.889 178.255 311.999 178.896 313.108 179.542C315.988 181.219 318.889 182.901 321.77 184.625C322.254 183.833 322.77 183.063 323.316 182.318C325.467 179.38 328.905 176.344 332.9 177.026C334.139 177.245 335.863 177.859 336.124 179.328C336.311 180.38 336.561 181.13 335.931 181.573C335.78 182.495 335.254 183.438 334.9 184.177C334.092 185.87 333.176 187.5 332.249 189.12L331.467 190.495C336.457 193.583 341.389 196.76 346.186 200.063C346.993 198.495 347.775 196.885 348.551 195.255C350.155 191.896 352.233 189.359 356.202 189.766C357.816 189.932 358.582 191.49 358.853 192.885C358.962 193.505 358.947 194.063 358.842 194.578C358.895 194.662 358.91 194.787 358.868 194.917C358.759 195.318 358.827 196.333 358.697 196.87C358.337 198.417 357.9 199.943 357.322 201.422C356.655 203.135 355.91 204.818 355.072 206.458C358.697 209.203 362.223 212.057 365.587 215.026C365.941 214.167 366.29 213.302 366.65 212.438C367.681 209.953 368.056 207.328 368.712 204.755C368.66 204.635 368.608 204.505 368.556 204.385C368.374 203.969 368.78 203.604 369.108 203.656C369.186 203.594 369.29 203.563 369.379 203.568C371.447 201.927 373.915 201.896 375.634 204.287C377.848 207.354 377.889 211.016 376.988 214.573C376.28 217.396 375.285 220.193 374.046 222.912C375.29 224.224 376.41 225.557 377.275 226.917C379.051 229.714 378.421 232.026 376.634 233.771ZM352.561 244.094C352.009 243.682 351.467 243.302 350.926 242.953C351.014 243.047 351.118 243.141 351.233 243.234C351.665 243.62 352.113 243.906 352.561 244.094Z" fill="#BCD1D4"/>
<path d="M442.413 364.193C442.012 364.661 441.6 365.115 441.163 365.552C438.465 366.37 435.829 367.417 433.084 368.083C429.512 368.937 425.933 369.807 422.366 370.677C415.084 372.458 407.86 374.531 400.569 376.25C389.704 378.802 378.725 380.88 367.678 382.38C364.642 382.802 361.59 383.182 358.538 383.505C349.043 384.521 339.459 385.219 329.887 385.635C324.923 385.849 319.959 385.99 315.006 386.052C300.897 386.224 286.736 385.505 272.819 383.042C244.173 377.958 215.772 369.177 190.741 354.104C165.673 339.026 144.475 319.068 126.23 296.307C117.189 285.042 108.788 273.276 100.996 261.115C100.871 260.922 100.735 260.724 100.616 260.531C94.1626 250.411 87.824 240.083 82.3032 229.38C81.0167 226.911 79.7876 224.411 78.6053 221.896C72.4334 208.76 66.7563 195.13 62.2407 181.323C57.8553 167.906 54.4594 154.036 53.5167 139.911C53.5167 139.854 53.5063 139.792 53.5011 139.74C53.4855 139.479 53.6365 139.328 53.8292 139.281C54.1001 139.213 54.4386 139.359 54.4647 139.729C55.4282 154.375 59.0167 168.859 63.7303 182.734C68.5584 196.969 74.324 211.161 80.9907 224.641C81.574 225.818 82.1626 226.984 82.7615 228.151C88.3865 239.12 94.8136 249.76 101.496 260.115C102.121 261.104 102.756 262.089 103.397 263.062C111.527 275.516 120.241 287.615 129.72 299.078C148.584 321.885 170.538 341.88 196.512 356.344C209.496 363.568 223.241 369.266 237.465 373.557C251.569 377.828 266.173 381.396 280.798 383.286C295.288 385.172 309.918 385.422 324.496 384.818C326.402 384.74 328.303 384.656 330.199 384.573C342.845 383.974 355.47 383.109 368.001 381.37C368.173 381.344 368.35 381.323 368.522 381.292H368.532C383.131 379.245 397.35 376.016 411.61 372.365C418.954 370.495 426.444 369.01 433.741 366.937C436.631 366.099 439.47 364.859 442.413 364.193ZM74.0532 125.318C77.074 124.458 80.3553 124.521 83.4178 123.698C86.1313 122.974 88.8657 122.552 91.6782 122.573C94.5636 122.599 97.4855 121.891 100.308 121.354C106.657 120.146 113.407 120 119.85 119.635C126.449 119.26 133.069 119.151 139.678 119.338C152.548 119.698 165.512 122.38 177.657 126.615C183.558 128.672 189.48 130.708 195.35 132.838C196.61 133.297 211.246 139.312 211.36 139.016C211.314 139.141 211.324 139.245 211.36 139.333C211.402 139.271 211.444 139.203 211.485 139.146C211.522 139.068 211.543 138.984 211.584 138.906C211.689 138.703 211.808 138.516 211.949 138.344C211.512 138.135 211.038 138.115 210.517 137.99C209.157 137.656 207.86 136.828 206.621 136.203C204.152 134.953 201.428 134.057 198.845 133.052C192.772 130.693 186.501 128.828 180.381 126.588C168.548 122.266 155.881 119.172 143.256 118.516C130.366 117.844 117.433 118.604 104.605 119.87C101.605 120.167 98.699 120.708 95.7251 121.208C92.8032 121.693 89.8865 121.521 86.9594 121.948C83.699 122.422 80.5949 123.474 77.3084 123.875C75.7615 124.068 74.1417 124.536 72.5219 124.906C71.9022 125.318 71.298 125.74 70.7094 126.187C71.8397 125.948 72.9438 125.63 74.0532 125.318ZM386.574 243.807C391.209 249.266 395.907 254.599 400.256 260.302C408.376 270.943 415.762 281.792 421.996 293.661C428.142 305.349 432.845 317.568 437.871 329.75C440.439 335.984 443.058 342.203 445.116 348.635C446.064 351.604 446.887 354.594 447.803 357.547C448.006 357.156 448.209 356.76 448.402 356.365C447.512 353.437 446.709 350.474 445.772 347.536C443.72 341.12 441.032 334.922 438.47 328.698C433.517 316.698 428.845 304.714 422.834 293.177C416.777 281.552 409.543 270.953 401.637 260.536C397.595 255.208 393.329 250.12 388.939 245.078C386.918 242.76 384.954 240.391 382.98 238.026C381.345 236.057 379.137 234.714 377.262 232.995C377.116 233.182 376.944 233.339 376.751 233.469C376.699 233.552 376.637 233.625 376.564 233.693C377.793 234.885 379.157 235.943 380.486 237.047C382.824 238.984 384.621 241.505 386.574 243.807ZM230.079 154.391C229.98 154.859 230.725 155.109 230.98 154.672C233.246 150.75 235.824 147.026 238.11 143.115C238.517 143.088 238.772 142.479 238.324 142.224C238.262 142.187 238.199 142.151 238.137 142.115C238.006 142.042 237.887 142.036 237.777 142.073H237.772C237.751 142.078 237.735 142.094 237.715 142.099C237.621 142.141 237.532 142.203 237.48 142.297C235.251 146.151 232.72 149.823 230.465 153.661C230.095 153.687 229.803 154.099 230.079 154.391ZM219.392 150.713C219.366 150.776 219.34 150.844 219.314 150.911C219.262 151.047 219.324 151.281 219.439 151.37C219.496 151.411 219.548 151.458 219.605 151.5C219.907 151.734 220.282 151.651 220.418 151.281C221.387 148.583 222.532 145.932 224.074 143.505C225.027 142.005 226.277 140.583 226.918 138.901C227.137 138.323 226.199 138.088 225.98 138.667C225.324 140.396 223.939 141.922 222.954 143.474C221.59 145.62 220.595 148.026 219.715 150.417C219.579 150.458 219.454 150.547 219.392 150.713ZM246.371 151.984C246.933 150.943 247.465 149.865 248.142 148.896C248.418 148.5 248.704 148.021 249.074 147.713C249.215 147.599 249.288 147.526 249.329 147.49C249.262 147.13 249.777 146.75 250.168 147.052C250.22 147.099 250.277 147.141 250.334 147.182C250.449 147.276 250.517 147.505 250.459 147.641C250.178 148.354 249.418 148.693 248.98 149.37C248.413 150.26 247.902 151.182 247.397 152.109C246.105 154.495 244.225 157.13 244.012 159.885C243.985 160.24 243.631 160.5 243.293 160.307C243.225 160.266 243.152 160.229 243.084 160.187C242.845 160.052 242.793 159.771 242.902 159.531C242.933 159.365 242.959 159.198 242.991 159.026C242.991 158.807 243.11 158.672 243.262 158.604C243.808 156.245 245.235 154.083 246.371 151.984ZM249.485 147.734C249.444 147.703 249.423 147.667 249.397 147.635C249.413 147.667 249.439 147.703 249.485 147.734ZM256.642 157.557C255.433 159.354 254.402 161.224 253.824 163.297C253.772 163.338 253.73 163.391 253.694 163.463C253.491 163.917 253.465 164.036 253.668 164.484C253.845 164.87 254.47 164.755 254.553 164.359C255.048 162.016 256.183 160.021 257.48 158.031C258.751 156.088 259.683 154.021 260.793 151.984C261.095 151.437 260.256 150.958 259.959 151.505C258.845 153.542 257.939 155.63 256.642 157.557ZM269.418 171.875C269.501 171.74 269.579 171.599 269.657 171.458C269.678 171.417 269.683 171.385 269.694 171.344C271.673 167.385 274.084 163.536 276.34 159.74C276.657 159.203 275.819 158.729 275.501 159.26C273.147 163.229 270.605 167.25 268.584 171.401C268.314 171.953 269.111 172.422 269.418 171.875ZM279.345 176.708C280.584 176.172 281.522 173.615 282.23 172.578C283.861 170.198 285.376 167.661 286.834 165.167C287.147 164.63 286.308 164.151 285.996 164.687C284.819 166.698 283.506 168.625 282.329 170.635C281.741 171.641 281.064 172.578 280.423 173.547C280.069 174.078 279.491 175.604 278.866 175.87C278.293 176.12 278.782 176.948 279.345 176.708ZM293.397 185.526C294.319 185.786 294.262 184.786 294.532 184.25C294.584 184.146 294.59 184.047 294.574 183.958C296.381 180.109 298.48 176.417 300.767 172.833C301.1 172.307 300.262 171.833 299.928 172.354C297.381 176.359 295.038 180.484 293.1 184.823C292.97 185.109 293.074 185.437 293.397 185.526ZM303.543 190.615C303.683 191.005 303.746 191.109 304.069 191.354C304.334 191.552 304.694 191.318 304.777 191.052C306.215 186.542 308.194 182.234 310.512 178.109C310.814 177.568 309.98 177.088 309.673 177.63C307.449 181.594 305.548 185.734 304.111 190.047C303.788 189.979 303.407 190.213 303.543 190.615ZM315.022 197.469C314.861 197.995 315.642 198.292 315.907 197.823C316.069 197.547 316.225 197.266 316.387 196.99C316.48 196.823 316.459 196.667 316.387 196.536C317.105 194.677 318.079 192.953 319.1 191.224C320.314 189.167 321.298 187.005 322.439 184.911C322.736 184.365 321.902 183.885 321.605 184.432C320.459 186.526 319.475 188.687 318.262 190.745C316.986 192.911 315.777 195.057 315.022 197.469ZM324.881 203.031C324.647 203.047 324.413 203.198 324.397 203.5C324.387 203.677 324.376 203.859 324.366 204.036C324.34 204.531 325.038 204.667 325.267 204.271C326.444 202.24 327.683 200.255 328.84 198.213C330.116 195.969 330.949 193.552 332.126 191.266C332.413 190.713 331.574 190.234 331.288 190.786C330.246 192.807 329.475 194.943 328.423 196.969C327.345 199.042 326.079 201.021 324.881 203.031ZM338.465 212.292C338.486 212.318 338.506 212.344 338.532 212.365C338.741 212.599 339.142 212.526 339.288 212.266C340.579 210 341.881 207.75 343.308 205.568C344.486 203.766 345.829 202.224 346.47 200.125C346.647 199.531 345.715 199.292 345.532 199.885C344.85 202.146 343.262 203.875 341.996 205.818C340.793 207.661 339.709 209.589 338.616 211.5C338.6 211.51 338.584 211.526 338.569 211.536C338.314 211.729 338.241 212.042 338.465 212.292ZM348.048 218.589C348.105 218.63 348.163 218.677 348.22 218.719C348.459 218.906 348.808 218.917 348.975 218.62C351.22 214.719 353.626 210.917 355.866 207.016C356.178 206.479 355.34 206 355.032 206.542C352.892 210.26 350.605 213.891 348.454 217.604C348.267 217.62 348.084 217.719 348.001 217.932C347.975 218 347.949 218.062 347.923 218.13C347.871 218.266 347.933 218.5 348.048 218.589ZM361.845 220.26C360.548 222.036 359.803 223.948 358.73 225.828C358.423 226.365 359.262 226.844 359.569 226.302C359.605 226.24 359.642 226.172 359.683 226.109C359.683 226.104 359.683 226.104 359.683 226.099C361.074 223.646 362.236 221.281 363.991 219.005C364.814 217.932 366.017 216.167 365.72 214.74C365.6 214.13 364.668 214.385 364.793 214.995C365.121 216.589 362.709 219.083 361.845 220.26ZM367.454 232.755C367.444 232.776 367.433 232.797 367.428 232.818C367.678 233.099 367.902 233.396 368.074 233.729C368.084 233.714 368.105 233.708 368.116 233.687C369.173 231.766 370.1 229.839 371.433 228.078C372.647 226.469 373.819 224.932 374.459 223.016C374.652 222.427 373.72 222.187 373.522 222.776C372.861 224.776 371.491 226.437 370.22 228.083C369.262 229.328 368.564 230.75 367.84 232.146C367.762 232.125 367.683 232.125 367.6 232.141C367.584 232.344 367.538 232.552 367.454 232.755ZM409.407 340.083C402.657 336.693 395.543 333.906 388.626 330.87C381.486 327.734 374.381 324.531 367.355 321.141C353.157 314.292 339.084 307.203 324.824 300.484C310.673 293.823 296.6 286.844 282.881 279.328C275.991 275.552 269.397 271.266 262.475 267.547C255.626 263.865 248.574 260.568 241.782 256.776C227.834 248.995 214.017 240.953 200.235 232.88C186.496 224.828 172.86 216.599 159.423 208.047C146.032 199.526 133.058 190.391 119.834 181.62C107.985 173.76 95.8553 166.26 84.2407 158.062C78.548 154.052 73.2042 149.588 67.7667 145.24C63.7355 142.01 60.673 137.786 57.0376 134.141C56.9282 134.302 56.8136 134.463 56.7094 134.63C56.6469 134.734 56.574 134.823 56.4959 134.911C60.5532 138.875 64.0219 143.417 68.4542 147.026C74.1938 151.693 79.9647 156.312 86.0636 160.505C99.1001 169.458 112.527 177.859 125.668 186.661C138.871 195.505 151.923 204.51 165.397 212.958C178.897 221.427 192.605 229.568 206.381 237.578C220.11 245.562 233.782 253.828 247.881 261.141C254.798 264.724 261.798 268.125 268.538 272.052C275.35 276.021 282.105 279.984 289.069 283.672C302.892 290.995 316.923 297.932 331.126 304.479C345.475 311.094 359.433 318.531 373.736 325.24C386.413 331.182 399.616 336.109 412.064 342.516C418.194 345.667 424.22 349.01 430.387 352.099C435.631 354.729 441.053 356.984 446.392 359.411C446.584 359.141 446.782 358.88 447.001 358.63C441.064 355.906 435.038 353.375 429.204 350.427C422.558 347.068 416.064 343.427 409.407 340.083Z" fill="#055049"/>
</g>
<defs>
<clipPath id="clip0_512_455">
<rect width="500" height="500" rx="250" fill="white"/>
</clipPath>
</defs>
</svg>
