<svg width="500" height="500" viewBox="0 0 500 500" fill="none" xmlns="http://www.w3.org/2000/svg">
<g clip-path="url(#clip0_512_580)">
<path d="M550 -50H-50V550H550V-50Z" fill="white"/>
<path d="M550 -50H-50V550H550V-50Z" fill="#F38143"/>
<path d="M7.23958 458.958C14.099 472.802 20.9687 486.609 28.026 500.266H0V443.901C2.4375 449.089 4.84375 454.12 7.23958 458.958ZM119.948 255.214C108.526 242.885 84.474 236.917 69.1563 232.245C46.4375 225.313 23.2552 220.229 0 215.401V228.292C7.84375 230.089 15.6458 232.042 23.3958 234.24C60.6667 244.818 85.9479 265.104 97.2708 301.755C111.391 347.464 101.203 404.406 103.734 451.797C104.724 470.292 105.844 483.625 111.104 500.266H136.464C137.229 481.099 138.734 461.948 139.938 443.047C142.755 398.875 147.229 353.344 140.016 309.354C137.177 292 132.411 268.667 119.948 255.214ZM212.828 290C209.339 244.635 181.875 225.885 140.625 212.438C94.7969 197.495 46.849 190.281 0 179.078V200.083C37.1719 208.479 74.6667 215.672 110.865 227.573C151.891 241.057 176.583 257.089 181.88 302.042C187.276 347.849 177.698 395.234 170.755 440.375C168.068 457.854 164.026 478.646 161.047 500.266H181.151C185.208 473.49 191.641 447.391 195.719 426.865C204.542 382.417 216.339 335.641 212.828 290ZM237.276 364.188C246.391 316.839 260.13 265.193 253.495 216.641C246.938 168.63 210.057 163.969 169.5 151.786C119.693 136.818 54.6094 124.328 0 99.2865V140.964C50.0104 156.005 101.766 164.453 151.87 179.156C192.109 190.958 227.021 202.38 233.203 248.427C239.714 296.849 226.161 348.292 216.927 395.49C211.458 423.448 201.328 462.661 198.615 500.266H217.646C215.943 453.766 230.427 399.766 237.276 364.188ZM274.661 311.953C284.323 265.849 302.286 209.073 290.854 161.766C280.536 119.063 234.438 125.354 199.24 113.427C126.76 88.8698 70.7552 35.3854 4.45313 0.265625H0V46.8802C57.2448 81.4375 118.594 109.208 182.328 129.464C222.141 142.115 265.349 140.438 272.797 189.432C280.13 237.63 265.594 289.74 256.307 336.682C247.859 379.411 228.109 448.641 238 500.266H261.396C236.87 447.755 264.422 360.813 274.661 311.953ZM349.896 492.984C246.214 472.083 295.302 336.318 311.807 266.938C321.76 225.094 339.453 174.214 330.948 130.932C327.328 112.49 319.953 104.167 301.438 100.286C275.255 94.7969 250.042 96.3281 224.635 85.5052C184.146 68.25 162.271 34.6927 138.401 0.265625H83.4427C91.7135 6.94271 99.8542 14.3333 108.073 22.4323C138.271 52.1875 167.813 81.0573 207.839 97.1615C244.161 111.781 302.167 100.719 310.813 147.74C319.203 193.37 302.745 244.859 292.938 289.068C279.833 348.161 244.266 456.073 296.38 500.266H500V487.901C450.448 487.802 397.104 502.505 349.896 492.984ZM390.406 446C282.63 426.5 335.234 291.469 353.74 221.156C363.552 183.875 385.807 129.276 374.318 90.1563C368.964 71.9271 358.771 70.3646 341.109 69.7292C310.036 68.599 278.677 69.8125 250.724 53.6823C228.328 40.7604 216.854 21.6771 209.161 0.265625H177.443C190.339 28.4688 205.438 54.7031 235.073 69.9531C247.917 76.5677 261.891 80.3281 276.047 82.7969C292.521 85.6667 313.401 82.2813 328.87 86.4479C343.214 90.3073 349.286 98.7344 352.177 113.359C360.411 155.026 341.875 204.786 331.854 244.661C314.083 315.339 263.365 450.411 370.781 469.609C408.896 476.422 455.51 466.615 500 463.714V444.229C463.703 447.339 426.292 452.495 390.406 446ZM448.078 401.109C408.047 394.422 388.932 375.552 387.688 334.115C386.047 279.302 404.495 223.5 417.547 170.927C427.641 130.26 446.323 77.6094 435.188 35.3594C430.109 16.0885 420.125 9.76562 401.156 8.04167C374.672 5.63021 349.115 8.31771 324.146 0.265625H247.432C254.068 11.1771 263.172 20.724 276.266 28.0729C309.927 46.9688 342.818 37.0833 378.443 42.0521C392.286 43.9844 400.01 48.8177 403.833 62.9427C414.667 103.01 392.297 156.74 381.875 194.797C368.229 244.625 349.635 297.797 350.198 350.068C350.656 392.781 372.375 414.807 413.724 422.359C441.979 427.516 471.188 425.464 500 423.073V402.411C481.552 403.604 463.932 403.76 448.078 401.109ZM471.359 301.146C462.984 248.422 479.042 187.073 482.656 134.292C485.62 90.974 490.464 40.9688 471.755 0.265625H449.568C452.385 4.14063 454.807 8.70313 456.755 14.1094C471.958 56.3073 458.734 109.318 451.328 151.781C442.401 202.943 429.526 255.406 431.464 307.682C433.068 350.958 447.167 374.703 490.672 381.354C493.74 381.823 496.849 382.193 500 382.474V321.911C486.406 325.224 474.073 318.229 471.359 301.146ZM489.135 0.265625C493.682 10 497.219 20.1823 500 30.6302V0.265625H489.135ZM0 251.75V371.557C49.5104 422.807 60.4844 500.266 60.4844 500.266H92.7396C92.7396 500.266 79.9271 464.214 79.9219 415.734C80.75 265.12 0 251.75 0 251.75Z" fill="#D6A6DC"/>
</g>
<defs>
<clipPath id="clip0_512_580">
<rect width="500" height="500" rx="250" fill="white"/>
</clipPath>
</defs>
</svg>
