<svg width="500" height="500" viewBox="0 0 500 500" fill="none" xmlns="http://www.w3.org/2000/svg">
<g clip-path="url(#clip0_512_179)">
<path d="M550 -50H-50V550H550V-50Z" fill="white"/>
<path d="M550 -50H-50V550H550V-50Z" fill="#F38143"/>
<path d="M250.001 358.36C252.741 358.36 255.085 356.407 255.085 353.667C255.085 350.928 253.132 348.584 250.392 348.584C247.652 348.584 245.309 350.537 245.309 353.277C245.309 356.016 247.262 357.969 250.001 358.36Z" fill="#F8F2EC"/>
<mask id="mask0_512_179" style="mask-type:luminance" maskUnits="userSpaceOnUse" x="152" y="85" width="228" height="179">
<path d="M152 85.3027H380V264.001H152V85.3027Z" fill="white"/>
</mask>
<g mask="url(#mask0_512_179)">
<path d="M342.712 95.084H363.837L254.3 217.532L210.488 187.016C208.139 185.449 205.399 185.844 203.837 188.188L154.155 255.084C152.587 257.433 152.983 260.173 155.326 262.126C156.108 262.907 157.285 262.907 158.457 262.907C160.024 262.907 161.587 262.126 162.368 260.954L209.311 197.579L252.347 228.094C254.3 229.657 257.04 229.266 258.993 227.308L370.488 102.126V120.12C370.488 122.86 372.446 124.813 375.181 124.813C377.92 124.813 379.879 122.469 379.879 120.12V90.0007C379.879 87.2611 377.53 85.3027 375.181 85.3027H342.321C339.582 85.3027 337.629 87.6517 337.629 90.0007C337.629 92.3444 339.972 95.084 342.712 95.084Z" fill="#F8F2EC"/>
</g>
<mask id="mask1_512_179" style="mask-type:luminance" maskUnits="userSpaceOnUse" x="100" y="146" width="300" height="269">
<path d="M100 146.666H400V414.301H100V146.666Z" fill="white"/>
</mask>
<g mask="url(#mask1_512_179)">
<path d="M399.828 160.41C399.828 152.978 393.964 147.113 386.922 147.113H347.016C344.281 147.113 342.323 149.457 342.323 151.806C342.323 154.155 344.672 156.499 347.016 156.499H386.526C388.484 156.499 389.656 158.066 389.656 160.02V330.191H372.839V187.405C372.839 184.665 370.49 182.712 368.141 182.712H339.974C337.24 182.712 335.281 185.056 335.281 187.405V330.582H314.156V275.816C314.156 273.077 311.807 271.124 309.464 271.124H280.516C277.776 271.124 275.818 273.467 275.818 275.816V330.582H254.693V259.384C254.693 256.65 252.349 254.691 250 254.691H221.833C219.094 254.691 217.141 257.04 217.141 259.384V330.582H196.016V300.072C196.016 297.332 193.667 295.379 191.318 295.379H162.76C160.026 295.379 158.068 297.723 158.068 300.072V330.582H109.948V309.853H135.38C138.115 309.853 140.073 307.504 140.073 305.155C140.073 302.811 137.724 300.462 135.38 300.462H109.948V280.9H135.38C138.115 280.9 140.073 278.556 140.073 276.207C140.073 273.858 137.724 271.514 135.38 271.514H109.948V251.952H135.38C138.115 251.952 140.073 249.608 140.073 247.259C140.073 244.91 137.724 242.566 135.38 242.566H109.948V223.004H135.38C138.115 223.004 140.073 220.655 140.073 218.311C140.073 215.962 137.724 213.613 135.38 213.613H109.948V194.056H135.38C138.115 194.056 140.073 191.707 140.073 189.363C140.073 186.624 137.724 184.665 135.38 184.665H109.948V162.368C109.948 160.41 111.516 158.848 113.078 158.848H292.25C294.99 158.848 296.943 156.499 296.943 154.155C296.943 151.806 294.599 149.457 292.25 149.457H113.469C106.036 149.457 100.563 155.327 100.563 162.759L100.172 360.707C100.563 368.921 106.823 375.181 115.036 375.962H212.052C212.052 383.004 212.052 394.743 211.661 397.478C210.49 401.389 207.359 404.129 203.448 405.306H188.583C185.844 405.306 183.885 407.65 183.885 409.999C183.885 412.348 186.234 414.691 188.583 414.691H311.807C314.547 414.691 316.505 412.348 316.505 409.999C316.505 407.65 314.156 405.306 311.807 405.306H296.161C292.25 404.129 289.51 401.389 288.729 397.478C288.339 394.743 288.339 383.004 287.948 375.962H387.313C395.135 375.962 399.828 368.53 399.828 361.098V160.41ZM390.443 361.098C390.443 363.447 389.266 366.186 387.703 366.186H114.646C111.906 365.79 109.948 363.447 109.557 360.707V340.754H390.047V361.098H390.443Z" fill="#F8F2EC"/>
</g>
</g>
<defs>
<clipPath id="clip0_512_179">
<rect width="500" height="500" rx="250" fill="white"/>
</clipPath>
</defs>
</svg>
