<svg width="197" height="197" viewBox="0 0 197 197" fill="none" xmlns="http://www.w3.org/2000/svg">
<g clip-path="url(#clip0_935_545)">
<path d="M216.7 -19.7H-19.7002V216.7H216.7V-19.7Z" fill="white"/>
<path d="M216.7 -19.7H-19.7002V216.7H216.7V-19.7Z" fill="#087661"/>
<path d="M74.4755 94.7494H87.7793C89.1163 94.7494 90.2001 93.6656 90.2001 92.3305C90.2001 90.9936 89.1163 89.9116 87.7793 89.9116H74.4755C73.1404 89.9116 72.0566 90.9936 72.0566 92.3305C72.0566 93.6656 73.1404 94.7494 74.4755 94.7494Z" fill="#F8F2EC"/>
<path d="M67.2187 92.3305C67.2187 90.9936 66.1349 89.9116 64.7999 89.9116H51.496C50.1591 89.9116 49.0771 90.9936 49.0771 92.3305C49.0771 93.6656 50.1591 94.7494 51.496 94.7494H64.7999C66.1349 94.7494 67.2187 93.6656 67.2187 92.3305Z" fill="#F8F2EC"/>
<mask id="mask0_935_545" style="mask-type:luminance" maskUnits="userSpaceOnUse" x="39" y="36" width="119" height="125">
<path d="M39.4004 36.6421H157.847V160.063H39.4004V36.6421Z" fill="white"/>
</mask>
<g mask="url(#mask0_935_545)">
<path d="M157.931 60.8833C157.931 47.5438 147.08 36.6926 133.742 36.6926C132.388 36.6926 75.4904 36.6926 73.2666 36.6926C67.9319 36.6926 63.591 41.0335 63.591 46.3681V70.5588H41.8193C40.4842 70.5588 39.4004 71.6426 39.4004 72.9777V102.006C39.4004 103.341 40.4842 104.425 41.8193 104.425H63.591V150.385C63.591 155.72 67.9319 160.061 73.2666 160.061H128.904C134.239 160.061 138.58 155.72 138.58 150.385V84.5864C149.607 82.34 157.931 72.5651 157.931 60.8833ZM73.2666 41.5304H119.244C114.596 45.0218 111.239 50.1465 110.037 56.0455H68.4288V46.3681C68.4288 43.7017 70.5983 41.5304 73.2666 41.5304ZM95.0383 75.3965V80.2343H44.2381V75.3965H95.0383ZM44.2381 85.0721H95.0383V99.5872H44.2381V85.0721ZM128.904 155.223H73.2666C70.5983 155.223 68.4288 153.054 68.4288 150.385V140.71H133.742V150.385C133.742 153.054 131.571 155.223 128.904 155.223ZM133.742 135.872H68.4288V104.425H97.4572C98.7923 104.425 99.8761 103.341 99.8761 102.006V72.9777C99.8761 71.6426 98.7923 70.5588 97.4572 70.5588H68.4288V60.8833H109.552C109.552 74.2209 120.403 85.0721 133.742 85.0721V135.872ZM133.742 80.2343C123.071 80.2343 114.389 71.5545 114.389 60.8833C114.389 50.2121 123.071 41.5304 133.742 41.5304C144.412 41.5304 153.093 50.2121 153.093 60.8833C153.093 71.5545 144.412 80.2343 133.742 80.2343Z" fill="#F8F2EC"/>
</g>
<path d="M141.101 52.8226L130.113 63.8125L126.38 60.0792C125.435 59.136 123.905 59.136 122.96 60.0792C122.015 61.0242 122.015 62.5562 122.96 63.5012L128.401 68.9428C129.346 69.8878 130.878 69.8878 131.823 68.9428L144.523 56.2446C145.467 55.2996 145.467 53.7676 144.523 52.8226C143.578 51.8775 142.046 51.8775 141.101 52.8226Z" fill="#F8F2EC"/>
<path d="M107.133 145.548H95.039C93.702 145.548 92.6201 146.632 92.6201 147.967C92.6201 149.302 93.702 150.386 95.039 150.386H107.133C108.468 150.386 109.552 149.302 109.552 147.967C109.552 146.632 108.468 145.548 107.133 145.548Z" fill="#F8F2EC"/>
<path d="M92.62 51.2078H104.714C106.05 51.2078 107.133 50.124 107.133 48.7889C107.133 47.452 106.05 46.3682 104.714 46.3682H92.62C91.2831 46.3682 90.2012 47.452 90.2012 48.7889C90.2012 50.124 91.2831 51.2078 92.62 51.2078Z" fill="#F8F2EC"/>
</g>
<defs>
<clipPath id="clip0_935_545">
<rect width="197" height="197" rx="98.5" fill="white"/>
</clipPath>
</defs>
</svg>
