<svg width="198" height="197" viewBox="0 0 198 197" fill="none" xmlns="http://www.w3.org/2000/svg">
<g clip-path="url(#clip0_935_731)">
<path d="M217.8 -19.7H-19.7998V216.7H217.8V-19.7Z" fill="white"/>
<path d="M217.8 -19.7H-19.7998V216.7H217.8V-19.7Z" fill="#E1D4C8"/>
<mask id="mask0_935_731" style="mask-type:luminance" maskUnits="userSpaceOnUse" x="37" y="16" width="135" height="153">
<path d="M37.6201 16.1541H171.708V168.365H37.6201V16.1541Z" fill="white"/>
</mask>
<g mask="url(#mask0_935_731)">
<path d="M170.961 123.94C170.631 118.142 170.433 112.336 170.022 106.544C169.511 99.315 168.69 92.1123 168.818 84.8437C168.877 81.6218 168.811 78.3754 167.993 75.2194C167.488 73.2667 166.509 72.7847 164.552 73.4343C163.767 73.6942 163.021 74.1612 162.221 74.2647C158.706 74.7223 155.19 75.1987 151.63 75.1347C149.966 75.1046 150.03 75.1253 150.087 73.4814C150.375 65.1037 150.657 56.726 150.872 48.3483C150.937 45.7836 149.705 44.8609 147.286 45.7723C144.496 46.8211 141.663 46.5067 138.839 46.4125C137.24 46.3579 135.629 46.0566 134.125 45.4032C133.337 45.0605 132.91 44.7535 133.867 44.0493C134.414 43.6444 134.698 43.023 134.371 42.3074C134.049 41.5975 133.445 41.4751 132.732 41.4996C132.033 41.5241 131.337 41.4996 130.669 41.7708C130.239 38.1064 130.396 34.4947 130.565 30.8848C130.705 27.9247 131.222 24.9871 131.076 22.0081C130.989 20.2117 129.191 18.6827 127.75 19.3719C126.577 19.9311 125.341 20.1401 124.117 20.3887C122.004 20.8199 120.036 20.2286 118.21 19.161C117.901 18.9821 117.464 18.758 117.909 18.2646C118.628 17.4643 118.049 16.9841 117.413 16.6169C116.609 16.1537 115.727 16.1895 114.883 16.5209C113.136 17.2082 111.302 17.7562 109.685 18.6751C103.977 21.9159 97.8661 24.3243 92.0482 27.3278C90.3032 28.2279 88.5488 29.1129 86.7016 29.8021C81.355 31.7962 76.5591 34.9033 71.4396 37.3625C70.3248 37.8992 68.9375 38.6204 68.7312 39.8858C68.4606 41.5561 67.3705 42.0532 66.127 42.6125C58.0456 46.2506 49.9736 49.9093 41.8827 53.5267C40.9269 53.9541 40.272 54.6057 39.92 55.5208C38.6822 58.7371 38.3378 62.1021 38.3548 65.5198C38.3662 67.9226 38.3946 70.3254 38.3491 72.7282C38.2583 77.5318 38.0482 82.3336 38.0274 87.1373C38.0047 92.7205 38.3208 98.3113 38.1561 103.887C37.8646 113.63 38.175 123.379 37.7662 133.12C37.7019 134.677 38.141 136.255 38.088 137.814C37.9025 143.314 37.9498 148.813 37.9176 154.313C37.8987 157.499 40.5578 159.518 42.6094 160.045C43.7128 160.33 44.784 160.667 45.842 161.07C51.3363 163.152 56.6923 162.866 61.9784 160.281C65.1675 158.72 68.1483 156.795 71.2882 155.149C71.8881 154.835 72.3007 154.596 72.3026 155.618C72.3026 156.616 72.5524 157.622 72.4994 158.614C72.4332 159.883 72.9991 160.674 74.0249 161.277C76.0935 162.495 78.3684 163.12 80.7115 163.484C82.4678 163.757 84.0917 163.352 85.5187 162.217C86.7489 161.237 88.034 160.326 89.3626 159.334C89.7146 161.203 91.1984 161.804 92.7144 162.318C93.7875 162.684 94.8985 162.94 95.9924 163.247C98.6724 163.996 101.466 163.821 104.189 164.273C107.246 164.779 110.111 164.352 112.365 161.874C113.032 161.141 113.951 160.644 114.716 159.993C115.403 159.407 115.689 159.625 115.763 160.42C115.948 162.441 117.207 163.512 118.952 164.359C123.009 166.333 127.444 167.009 131.727 168.197C132.728 168.474 133.778 168.239 134.685 167.82C136.15 167.146 137.545 166.316 138.955 165.529C144.158 162.625 148.49 158.541 153.138 154.912C158.274 150.899 163.509 146.986 168.377 142.633C170.361 140.859 171.704 138.791 171.697 135.965C171.687 131.937 171.188 127.949 170.961 123.94ZM47.9788 97.4225C47.939 97.4282 47.8993 97.4338 47.8614 97.4395C47.9012 97.4338 47.939 97.4282 47.9788 97.4225Z" fill="#0B5648"/>
</g>
<path d="M127.632 103.452C127.558 111.971 128.16 120.454 128.86 128.939C129.21 133.197 129.419 137.469 130.009 141.702C130.91 148.171 131.671 154.66 132.806 161.096C133.094 162.725 133.202 164.384 133.384 166.029C133.474 166.841 133.2 167.383 132.284 167.11C127.982 165.828 123.481 165.195 119.407 163.158C118.099 162.503 117.363 161.623 117.047 160.137C115.883 154.675 115.311 149.127 114.474 143.619C113.761 138.927 113.057 134.23 112.463 129.521C111.923 125.241 111.427 120.951 111.106 116.65C110.572 109.474 109.764 102.313 109.944 95.093C109.978 93.756 110.364 92.8126 111.427 91.9633C114.213 89.7413 117.192 87.8451 120.465 86.4479C122.728 85.4818 124.772 84.1223 126.968 83.0508C133.247 79.989 139.567 77.0119 145.869 73.9952C146.193 73.8408 146.56 73.6054 146.814 73.95C147.145 74.3982 146.675 74.6618 146.393 74.8934C145.89 75.3096 145.373 75.7276 144.809 76.0572C142.205 77.5806 139.665 79.2395 136.951 80.5407C132.617 82.614 128.404 84.9376 123.958 86.7868C120.881 88.0654 118.118 89.9503 115.12 91.3852C114.77 91.5528 114.454 91.8146 114.168 92.082C113.392 92.8088 113.504 93.4754 114.51 93.8577C115.073 94.0705 115.699 94.2362 116.295 94.2267C119.806 94.1778 123.317 94.5563 126.826 94.2776C127.641 94.2117 127.641 94.6128 127.638 95.1909C127.624 97.9439 127.632 100.697 127.632 103.452ZM125.465 157.68C126.932 157.738 127.244 157.347 127.028 156C126.674 153.769 126.345 151.532 126.086 149.287C125.425 143.538 124.386 137.836 124.127 132.038C123.83 125.414 122.838 118.834 122.87 112.187C122.88 110.135 122.734 108.082 122.62 106.033C122.518 104.182 122.255 103.943 120.391 103.958C118.545 103.973 116.687 104.056 114.898 103.554C113.878 103.267 113.646 103.612 113.649 104.533C113.666 108.114 114.005 111.685 114.287 115.242C114.887 122.825 116.411 130.302 117.168 137.882C117.758 143.798 118.856 149.664 119.728 155.552C119.838 156.294 120.128 156.748 120.972 156.995C122.467 157.428 124.004 157.409 125.465 157.68ZM120.01 101.179C120.491 101.179 120.981 101.234 121.453 101.164C121.962 101.09 122.792 101.326 122.783 100.497C122.775 99.729 122.024 99.7912 121.46 99.8062C119.431 99.8608 117.453 99.5972 115.51 99.0097C114.806 98.7969 114.062 98.6896 113.328 98.6124C113.055 98.5841 112.701 98.7065 112.635 99.0926C112.571 99.4654 112.756 99.6744 113.114 99.7309C115.432 100.096 117.584 101.286 120.01 101.179ZM127.995 162.028C128.569 161.823 129.447 162.269 129.47 161.301C129.487 160.471 128.713 160.7 128.181 160.601C125.664 160.132 123.112 159.846 120.65 159.098C120.219 158.966 119.579 158.67 119.35 159.196C119.085 159.804 119.817 159.932 120.207 160.102C122.707 161.181 125.421 161.382 127.995 162.028ZM119.617 85.4385C126 82.098 132.519 79.0267 139.027 75.9404C140.998 75.0045 142.905 73.9463 144.964 73.1893C146.569 72.5999 147.546 72.9106 147.955 74.385C148.074 74.8162 148.292 74.8162 148.596 74.8369C149.001 74.8633 148.962 74.562 148.986 74.3097C149.064 73.5301 149.206 72.7524 149.208 71.9728C149.23 66.3839 149.24 60.795 149.514 55.2118C149.632 52.8165 149.83 50.4232 149.736 48.0223C149.683 46.6345 149.355 46.3878 148.091 46.8171C146.562 47.335 145.059 47.9093 143.607 48.6361C136.028 52.423 128.264 55.8238 120.554 59.3375C118.491 60.2772 118.47 60.2037 118.651 62.3881C118.701 62.9963 118.706 63.6139 118.667 64.2222C118.326 69.4571 118.534 74.7032 118.341 79.9381C118.269 81.9022 118.383 83.8304 118.462 85.77C118.952 85.8735 119.285 85.6118 119.617 85.4385Z" fill="#087661"/>
<path d="M133.371 42.742C132.509 43.8474 131.429 44.6684 130.183 45.1599C124.182 47.5268 118.315 50.2027 112.241 52.4228C105.659 54.8293 98.9855 57.1229 92.8554 60.631C92.5147 60.8269 92.1456 61.0057 91.8731 61.275C91.2126 61.9284 91.0744 62.5329 91.9791 63.1939C93.1109 64.0205 94.4452 64.0789 95.7132 64.2653C98.7849 64.7154 101.879 65.0129 104.964 65.3707C105.008 65.3744 105.053 65.365 105.095 65.3782C105.812 65.5797 106.815 64.8302 107.152 65.3838C107.527 65.9996 107.285 66.9901 107.296 67.8167C107.406 76.8592 107.396 85.9035 107.65 94.9421C107.962 105.998 107.604 117.055 107.898 128.106C108.023 132.808 108.503 137.501 108.821 142.197C108.844 142.546 108.869 142.896 108.869 143.244C108.867 149.402 108.901 155.561 108.727 161.721C108.698 162.794 108.312 163.116 107.305 163.208C105.434 163.378 103.655 162.807 101.824 162.676C99.0272 162.476 96.2829 162.037 93.5916 161.186C91.1634 160.418 90.5256 159.732 90.5104 157.222C90.465 148.92 90.4688 140.616 90.3628 132.313C90.2795 125.764 90.3022 119.209 89.9256 112.665C89.53 105.819 89.6152 98.9568 89.3446 92.11C88.9736 82.7268 88.72 73.3435 88.5705 63.9527C88.5345 61.742 89.3351 60.4465 91.2807 59.5727C96.6955 57.1455 102.123 54.7691 107.663 52.6092C114.416 49.9767 121.036 46.9939 127.77 44.2918C129.226 43.708 130.708 43.1883 132.174 42.6328C132.555 42.4878 132.92 42.4501 133.371 42.742ZM99.1729 71.1328C97.6418 70.9238 96.1277 71.3418 94.8426 72.4961C92.5071 74.5939 91.7293 80.0509 93.3948 82.7343C93.743 83.2973 94.2143 83.7474 94.7764 84.1165C98.4083 86.4891 103.405 84.4554 104.417 80.1884C104.703 78.9851 104.811 77.763 104.682 76.5466C104.362 73.5638 103.308 70.6206 99.1729 71.1328ZM99.4208 150.413C100.717 150.255 102.103 150.084 103.49 149.918C104.065 149.848 104.788 149.795 104.663 149.031C104.523 148.189 103.766 148.564 103.261 148.636C100.519 149.027 97.7837 149.071 95.047 148.57C94.6704 148.502 94.1083 147.892 93.8925 148.747C93.7184 149.43 94.2635 149.675 94.7745 149.827C96.2545 150.272 97.8083 150.155 99.4208 150.413ZM96.3624 153.769C96.2829 153.769 96.1504 153.759 96.0198 153.771C95.6015 153.803 95.0375 153.686 94.994 154.294C94.9486 154.912 95.5467 154.889 95.9441 154.953C96.9775 155.123 98.0184 155.249 99.0575 155.371C99.9167 155.473 100.766 155.776 101.648 155.435C101.985 155.303 102.36 155.264 102.301 154.789C102.254 154.411 101.955 154.352 101.626 154.319C99.8883 154.145 98.1509 153.957 96.3624 153.769ZM109.098 92.7879C109.484 91.9311 110.161 91.3681 110.854 90.7825C112.569 89.3269 114.535 88.2667 116.432 87.0973C117.109 86.6793 117.431 86.2255 117.321 85.4233C116.82 81.7721 117.117 78.1001 117.113 74.4394C117.109 70.293 117.253 66.1465 117.355 62C117.38 60.9963 117.126 60.8664 116.184 61.2957C113.88 62.3446 111.774 63.836 109.315 64.5026C108.259 64.7888 108.097 65.269 108.144 66.2331C108.356 70.5886 108.556 74.9479 108.636 79.3071C108.719 83.7775 108.655 88.2516 108.655 92.7239C108.803 92.7446 108.95 92.7672 109.098 92.7879ZM114.868 158.324C115.228 158.056 115.245 157.78 115.177 157.422C114.372 153.228 113.935 148.98 113.263 144.768C112.145 137.751 111.208 130.716 110.51 123.649C109.946 117.946 109.474 112.23 108.967 106.568C108.975 115.944 108.835 125.37 109.654 134.789C110.233 141.446 110.127 148.146 110.16 154.827C110.171 157.128 110.072 159.446 110.01 162.039C111.761 160.693 113.299 159.488 114.868 158.324Z" fill="#208E7A"/>
<path d="M128.687 99.8821C128.687 98.2212 128.717 96.5585 128.672 94.8995C128.657 94.3497 128.78 94.0559 129.308 93.8074C135.324 90.979 141.173 87.8456 146.888 84.4524C152 81.4188 157.188 78.5113 162.349 75.5606C163.299 75.0164 164.321 74.6153 165.387 74.3592C166.06 74.1991 166.52 74.3347 166.711 75.1689C167.243 77.4813 167.402 79.8182 167.451 82.1758C167.542 86.5877 167.531 91.0054 167.775 95.4098C168.078 100.85 168.623 106.277 169.017 111.711C169.496 118.325 169.522 124.964 170.26 131.563C170.465 133.378 170.514 135.253 170.296 137.061C170.071 138.916 168.916 140.383 167.501 141.639C162.678 145.91 157.485 149.732 152.447 153.73C147.416 157.72 142.668 162.115 137.024 165.318C134.6 166.695 134.747 166.736 134.465 163.936C134.123 160.516 133.538 157.119 133.067 153.711C132.249 147.796 131.284 141.901 130.805 135.946C130.175 128.12 129.493 120.296 129.062 112.459C128.833 108.277 128.604 104.079 128.687 99.8821ZM151.625 124.93C151.033 124.522 150.39 124.552 149.748 124.753C149.5 124.831 149.29 125.034 149.281 125.33C149.275 125.51 149.371 125.676 149.578 125.693C151.461 125.846 149.958 126.802 149.92 127.343C149.892 127.732 149.485 128.158 148.964 128.038C148.499 127.93 148.272 127.508 148.221 127.056C148.084 125.829 148.592 124.759 149.209 123.765C149.371 123.503 150.072 123.441 149.684 122.983C149.296 122.528 148.756 122.797 148.465 123.221C147.691 124.349 147.151 125.605 147.233 126.979C147.291 127.97 147.765 128.921 148.902 129.03C149.926 129.13 150.619 128.457 150.971 127.535C151.292 126.689 151.658 125.844 151.605 124.904C151.902 125.414 152.121 125.994 152.515 126.412C153.049 126.981 153.859 127.437 154.317 126.444C155.034 124.887 155.248 123.196 154.902 121.486C154.837 121.17 154.701 120.739 154.233 120.856C153.838 120.953 153.959 121.351 153.967 121.637C154.006 123.091 154.131 124.55 153.592 125.908C153.272 125.945 153.181 125.784 153.102 125.635C152.627 124.731 152.594 123.718 152.426 122.74C152.367 122.407 152.246 122.096 151.894 122.127C151.484 122.162 151.548 122.539 151.559 122.846C151.588 123.541 151.605 124.236 151.625 124.93ZM136.598 137.458C136.42 137.677 136.259 137.786 136.225 137.927C135.82 139.626 135.966 141.272 137.191 142.58C138.368 143.84 139.893 144.512 141.676 144.292C144.161 143.983 145.51 142.32 146.288 140.161C146.61 139.268 146.892 139.204 147.808 139.392C151.849 140.23 154.11 139.315 154.703 135.773C154.922 134.455 155.369 134.327 156.503 134.353C159.838 134.429 162.099 132.267 162.112 129.052C162.116 128.45 162.36 128.459 162.781 128.384C164.915 128.011 165.686 127.256 166.085 125.236C166.168 124.823 166.185 124.381 165.748 124.217C165.317 124.055 165.171 124.48 165.023 124.793C164.913 125.028 164.794 125.264 164.72 125.512C164.306 126.887 163.259 127.329 161.982 127.181C160.812 127.045 160.583 127.467 160.814 128.501C161.206 130.244 160.551 131.566 159.035 132.48C157.737 133.261 156.365 133.212 154.974 132.785C153.44 132.312 153.319 132.41 153.558 133.994C153.836 135.854 152.892 137.969 151.465 138.202C149.884 138.462 148.228 138.63 146.864 137.357C146.18 136.72 145.681 136.901 145.52 137.848C145.334 138.923 145.102 139.978 144.53 140.938C143.466 142.72 141.831 143.471 140.001 142.985C137.942 142.437 136.891 141.053 136.863 138.88C136.856 138.46 136.99 138.012 136.598 137.458ZM133.6 102.017C133.723 100.846 133.71 99.8915 134.185 99.0215C135.177 97.21 137.058 96.8221 138.398 98.1422C138.814 98.5527 138.879 99.5093 139.6 99.3586C140.446 99.1797 140.052 98.2363 140.181 97.6601C140.983 94.0559 143.075 93.0786 146.205 94.924C146.796 95.2724 147.288 95.3326 147.445 94.4721C147.507 94.1294 147.587 93.7885 147.683 93.4552C148.465 90.7436 151.368 89.5969 153.556 91.1297C155.721 92.6455 155.721 92.6455 156.13 89.9998C156.474 87.776 158.303 86.439 159.934 87.2581C160.39 87.4878 160.742 87.9172 161.151 88.2429C161.494 88.5122 161.866 88.6327 162.184 88.2298C162.47 87.8701 162.228 87.6027 161.976 87.324C160.093 85.2508 157.447 85.4447 155.838 87.7157C155.238 88.5649 155.159 89.5724 154.784 90.4913C151.101 88.4463 148.444 89.2221 146.671 92.9148C146.368 93.5419 146.184 93.4025 145.724 93.2142C143.521 92.3085 141.279 93.0353 140.007 95.0219C139.583 95.6848 139.333 96.421 139.096 97.163C136.176 96.1179 135.107 96.2742 133.842 97.9143C132.872 99.1703 132.707 100.767 133.6 102.017ZM155.106 103.535C155.138 102.266 154.945 100.552 154.296 98.9104C154.052 98.2872 153.637 97.9313 152.92 97.9011C152.108 97.8672 151.839 98.4265 151.665 99.0046C151.211 100.502 150.927 102.042 150.844 103.605C150.764 105.094 150.812 106.584 151.737 107.859C152.171 108.456 152.659 109.098 153.546 108.917C154.358 108.753 154.561 108.039 154.792 107.377C155.174 106.283 155.112 105.147 155.106 103.535ZM156.107 99.8463C156.052 101.893 156.317 103.916 156.613 105.934C156.656 106.228 156.624 106.612 157.069 106.573C157.504 106.535 157.436 106.147 157.428 105.861C157.404 105.034 157.37 104.209 157.309 103.386C157.269 102.855 156.891 102.115 157.441 101.874C158.115 101.579 158.624 102.223 159.005 102.778C159.177 103.029 159.289 103.324 159.478 103.56C159.913 104.098 159.9 105.516 160.829 105.004C161.747 104.499 160.765 103.541 160.417 102.872C159.597 101.3 159.402 100.37 159.735 98.6167C159.758 98.4905 159.781 98.3587 159.783 98.2288C159.817 96.954 158.961 95.8505 157.903 95.7996C156.768 95.745 156.168 96.4775 156.109 98.016C156.088 98.6242 156.107 99.2362 156.107 99.8463ZM144.668 109.811C144.84 110.341 144.998 110.879 145.191 111.405C145.348 111.826 145.384 112.487 146.057 112.303C146.637 112.145 146.411 111.533 146.324 111.18C145.762 108.945 145.075 106.75 143.675 104.865C143.302 104.362 142.929 103.643 142.155 103.861C141.326 104.094 141.386 104.904 141.324 105.599C141.12 107.911 141.587 110.196 141.619 112.5C141.629 113.178 141.142 114.453 142.089 114.459C142.942 114.463 142.717 113.135 142.617 112.444C142.374 110.787 143.169 110.088 144.668 109.811ZM146.809 148.89C147.076 148.751 147.32 148.657 147.53 148.514C151.041 146.13 154.557 143.755 158.047 141.343C158.908 140.746 159.692 140.036 160.49 139.355C160.844 139.051 161.092 138.641 160.695 138.227C160.311 137.828 159.957 138.18 159.671 138.428C156.192 141.452 152.316 143.925 148.474 146.446C147.819 146.876 147.237 147.416 146.623 147.907C146.396 148.09 146.29 148.339 146.404 148.602C146.457 148.725 146.655 148.785 146.809 148.89ZM148.94 108.987C148.824 109.013 148.709 109.038 148.594 109.062C147.899 107.153 147.212 105.241 146.502 103.338C146.375 102.995 146.273 102.49 145.724 102.663C145.158 102.842 145.418 103.255 145.52 103.633C146.061 105.652 146.76 107.614 147.659 109.499C147.954 110.12 148.308 110.898 149.158 110.719C150.013 110.538 150.013 109.638 150.022 108.99C150.058 106.678 150.193 104.354 149.886 102.053C149.809 101.468 150.125 100.355 149.328 100.4C148.315 100.458 148.734 101.592 148.754 102.247C148.823 104.494 149.105 106.736 148.94 108.987ZM133.47 112.214C132.951 111.064 133.297 109.804 133.108 108.614C133.085 108.469 134.547 108.09 135.319 107.815C135.4 107.787 135.472 107.725 135.553 107.701C135.928 107.588 136.223 107.397 136.057 106.959C135.9 106.544 135.546 106.535 135.181 106.674C134.49 106.934 133.82 107.279 133.108 107.446C132.241 107.652 132.079 108.122 132.086 108.943C132.116 112.212 132.599 115.427 133.148 118.635C133.212 119.012 133.146 119.522 133.75 119.409C134.251 119.315 134.253 118.844 134.206 118.455C134.094 117.553 133.984 116.645 133.793 115.758C133.502 114.4 133.288 113.122 134.974 112.467C135.241 112.363 135.44 112.079 135.658 111.866C135.832 111.696 135.881 111.474 135.754 111.271C135.601 111.028 135.372 111.122 135.181 111.229C134.617 111.544 134.06 111.871 133.47 112.214ZM161.637 95.5078C161.7 95.0464 161.48 94.4759 162.118 94.2781C162.419 94.184 162.739 94.2405 162.907 94.5738C163.04 94.8393 163.045 95.376 163.509 95.086C163.931 94.8223 163.856 94.3101 163.606 93.9166C163.212 93.3008 162.599 93.0862 161.899 93.2086C161.111 93.3479 160.716 93.8883 160.595 94.6472C160.326 96.3307 160.899 97.7411 162.092 98.901C162.972 99.7597 163.46 100.782 163.697 101.967C163.823 102.601 163.674 103.051 163.106 103.402C162.786 103.599 162.084 103.701 162.393 104.226C162.686 104.725 163.324 104.554 163.818 104.334C164.527 104.017 164.9 103.475 164.843 102.68C164.736 101.134 164.365 99.7013 163.244 98.5207C162.44 97.6733 161.601 96.8033 161.637 95.5078ZM155.579 121.243C155.424 121.972 155.833 122.754 155.85 123.58C155.863 124.209 155.888 125.281 156.484 125.177C157.324 125.03 156.838 124.04 156.783 123.398C156.745 122.948 156.41 122.334 156.851 122.11C157.326 121.867 157.811 122.353 158.206 122.697C158.306 122.782 158.38 122.897 158.484 122.974C158.923 123.304 159.2 124.354 159.851 123.767C160.513 123.166 159.491 122.71 159.222 122.185C159.186 122.112 159.109 122.04 159.033 122.008C158.259 121.673 158.395 121.249 158.778 120.639C159.296 119.809 159.035 119.014 158.24 118.49C157.498 118.003 156.348 118.413 155.869 119.223C155.513 119.827 155.585 120.481 155.579 121.243ZM146.616 127.523C146.642 126.663 146.699 125.836 146.218 125.094C145.685 124.271 144.466 124.032 143.898 124.646C142.764 125.868 142.511 128.827 143.419 130.241C144.167 131.403 145.412 131.352 146.103 130.122C146.565 129.303 146.697 128.414 146.616 127.523ZM150.24 118.119C150.166 117.428 150.181 116.713 149.994 116.056C149.78 115.308 149.458 114.643 148.404 114.636C147.397 114.63 146.96 115.165 146.703 115.941C146.457 116.683 146.436 117.462 146.576 118.253C146.814 119.613 147.755 120.765 148.671 120.741C149.64 120.716 150.21 119.761 150.24 118.119ZM140.472 126.998C139.831 126.783 139.554 126.288 139.115 126.025C138.714 125.782 138.597 124.833 137.972 125.322C137.698 125.539 138.201 126.213 138.423 126.655C138.46 126.731 138.51 126.817 138.58 126.862C140.364 128.004 140.629 129.83 140.794 131.704C140.811 131.877 140.811 132.069 140.891 132.214C141.067 132.54 141.135 133.082 141.632 132.99C142.155 132.894 141.985 132.448 141.952 132.043C141.778 129.77 141.142 127.501 141.865 125.213C141.941 124.976 141.88 124.693 141.871 124.431C141.861 124.157 141.791 123.882 141.474 123.85C141.133 123.818 141.059 124.109 141.006 124.369C140.828 125.219 140.66 126.07 140.472 126.998ZM152.454 111.824C151.836 111.873 150.096 113.374 150.18 113.86C150.452 115.438 150.795 117.005 151.133 118.57C151.211 118.925 151.442 119.236 151.875 119.144C152.386 119.035 152.295 118.583 152.167 118.3C151.54 116.935 152.233 116.25 153.376 115.688C153.762 115.498 154.396 115.167 154.08 114.634C153.796 114.154 153.225 114.417 152.795 114.673C152.683 114.741 152.574 114.826 152.449 114.858C152.125 114.937 151.783 115.557 151.485 114.963C151.292 114.581 151.114 114.045 151.605 113.651C152.048 113.293 152.519 112.966 152.812 112.459C153.075 112.007 152.899 111.817 152.454 111.824ZM162.489 122.119C162.277 120.985 162.158 119.671 161.762 118.443C161.371 117.227 161.348 116.285 162.563 115.566C162.847 115.398 163.138 115.093 162.826 114.696C162.51 114.295 162.162 114.551 161.906 114.745C161.003 115.427 160.125 116.146 159.249 116.863C158.99 117.076 158.624 117.287 158.91 117.711C159.141 118.055 159.487 118.136 159.822 117.894C160.646 117.297 160.663 118.082 160.746 118.475C161.013 119.748 161.164 121.044 161.437 122.315C161.516 122.688 161.583 123.334 162.133 123.268C162.65 123.207 162.408 122.635 162.489 122.119ZM139.028 116.042C139.482 116.108 139.857 115.892 140.103 115.496C140.344 115.107 140.83 114.662 140.425 114.22C139.95 113.702 139.677 114.38 139.409 114.615C138.741 115.197 138.576 114.704 138.489 114.208C138.199 112.538 137.949 110.864 137.908 109.162C137.887 108.296 137.745 107.429 137.626 106.567C137.59 106.303 137.412 106.087 137.088 106.113C136.839 106.132 136.859 106.358 136.859 106.51C136.859 109.429 136.986 112.34 137.692 115.189C137.845 115.809 138.322 116.114 139.028 116.042ZM151.071 150.451C151.361 150.274 151.643 150.15 151.866 149.96C153.596 148.489 155.475 147.22 157.328 145.911C157.865 145.533 159.037 145.192 158.409 144.364C157.935 143.742 157.288 144.772 156.701 145.025C156.546 145.092 156.421 145.232 156.278 145.33C154.445 146.597 152.63 147.889 151.06 149.482C150.889 149.653 150.585 149.787 150.675 150.092C150.715 150.224 150.908 150.31 151.071 150.451ZM67.9512 42.8557C68.4073 44.59 67.8112 45.5428 66.2384 46.3017C63.4411 47.6537 60.6571 49.0415 57.716 50.0283C53.2532 51.5291 49.1765 53.8245 44.9598 55.8356C44.2614 56.167 43.8091 56.7244 43.8355 57.4531C43.862 58.1969 44.6153 58.3382 45.185 58.5058C49.4717 59.7768 53.802 60.7918 58.314 60.8332C59.408 60.8426 60.3316 60.3493 61.3384 59.9877C61.6791 61.1345 61.3327 62.1966 61.1719 63.2435C60.659 66.5878 60.8388 69.966 60.7706 73.316C60.5265 85.3713 59.5575 97.4097 59.8906 109.478C60.112 117.477 59.2547 125.467 59.6464 133.464C59.9492 139.643 59.2849 145.761 58.791 151.898C58.6036 154.242 58.6036 156.603 58.5657 158.959C58.5525 159.844 58.4333 160.287 57.3223 160.447C54.983 160.784 52.6892 161.458 50.3064 160.87C46.9129 160.034 43.6103 158.938 40.5954 157.14C39.4788 156.475 39.4125 155.268 39.3803 154.123C39.2762 150.457 39.422 146.791 39.4579 143.125C39.4977 139.332 39.2081 135.534 39.3425 131.747C39.668 122.571 39.4939 113.393 39.5923 104.215C39.6396 99.9405 39.2119 95.6528 39.3936 91.3876C39.7835 82.2153 39.8762 73.0467 39.8573 63.8687C39.8516 61.4885 40.0901 59.0876 40.9077 56.7828C41.3714 55.4741 42.0716 54.6248 43.4173 54.0316C50.9764 50.708 58.4863 47.2752 66.0056 43.8688C66.6718 43.5675 67.3039 43.1965 67.9512 42.8557ZM52.7573 137.618C52.7573 137.067 52.8122 136.579 52.7479 136.106C52.3069 132.851 51.3473 129.8 48.8188 127.508C47.4769 126.292 46.8921 126.422 45.8455 127.866C45.5124 128.326 45.1471 128.768 44.8632 129.256C42.1303 133.994 41.4471 138.852 43.9018 143.947C44.409 145.002 45.9439 145.476 45.8493 146.608C45.7566 147.704 45.0298 148.776 44.7421 149.915C44.462 151.03 44.7743 151.444 45.9496 151.444C48.304 151.44 50.4862 150.683 52.6665 149.919C53.3478 149.679 53.4538 149.25 53.0885 148.71C52.6722 148.096 52.2728 147.433 51.7183 146.96C50.56 145.974 50.5808 144.993 51.1126 143.625C51.8697 141.673 53.2134 139.833 52.7573 137.618ZM53.2967 108.894C53.3705 107.862 53.1264 106.9 52.6835 105.985C52.0703 104.723 51.1335 103.852 49.6515 103.835C48.145 103.82 47.2782 104.746 46.648 105.998C45.6733 107.938 45.5843 109.998 46.2316 111.969C46.8978 113.996 47.2839 115.854 46.2373 117.884C45.7925 118.748 46.26 119.47 47.4448 119.441C49.1519 119.4 50.8325 119.037 52.5491 119.114C53.2645 119.146 53.4292 118.598 53.2702 118.022C53.1321 117.524 52.9106 117.04 52.6532 116.592C52.1952 115.798 52.1138 115.071 52.4602 114.156C53.0961 112.478 53.0885 110.659 53.2967 108.894ZM50.3726 90.6551C50.3726 90.2635 50.4199 89.8643 50.3651 89.4782C50.0679 87.4163 49.9222 85.2753 48.1034 83.8291C46.1729 82.2906 44.6513 82.784 44.0683 85.1962C43.3321 88.2373 44.3447 91.0393 45.9439 93.4778C46.9338 94.988 47.0492 96.2968 46.612 97.8409C46.5098 98.2005 46.3754 98.5112 46.7047 98.7862C47.0625 99.0837 47.4202 98.9387 47.8062 98.7862C48.9797 98.3229 50.1588 97.8748 51.3511 97.4661C52.7441 96.9878 52.9807 96.5077 51.9851 95.5002C50.6527 94.1501 49.9392 92.6888 50.3745 90.787C50.384 90.7455 50.3745 90.7003 50.3726 90.6551ZM52.8084 70.2918C52.7592 69.838 52.7516 69.2222 52.6173 68.6347C52.2861 67.1829 51.0672 66.0267 49.8067 65.9156C48.2813 65.78 47.7173 66.8628 47.1136 67.97C45.8474 70.288 46.5685 72.6023 47.2839 74.7942C47.8498 76.5247 48.128 78.0161 47.106 79.6468C46.5779 80.4904 47.0833 80.9744 48.0277 80.884C49.415 80.7503 50.8023 80.594 52.182 80.3944C53.6828 80.1778 53.8399 79.9669 53.2191 78.6921C52.4583 77.1273 51.9832 75.5964 52.4469 73.815C52.7289 72.736 52.6892 71.5742 52.8084 70.2918ZM60.2331 159.496C64.2209 157.677 67.8755 155.251 71.7667 153.255C72.2039 153.031 72.2191 152.69 72.1926 152.267C71.9446 148.22 71.6323 144.175 71.4923 140.123C71.0778 128.173 70.9926 116.212 70.2129 104.27C69.8722 99.0536 69.7132 93.8224 69.4085 88.5988C69.0205 81.978 69.0338 75.3384 68.5852 68.7157C68.3297 64.9307 68.1859 61.1364 68.0004 57.3458C67.9739 56.8035 67.885 56.4288 67.2528 56.8901C66.0435 57.7714 64.66 58.3438 63.3332 59.0123C62.9812 59.1893 62.7976 59.355 62.7692 59.7712C62.6216 61.9875 62.298 64.202 62.2961 66.4165C62.2885 73.7604 61.946 81.093 61.7397 88.4313C61.6072 93.1031 61.2646 97.775 61.2987 102.445C61.3309 106.637 61.5769 110.832 61.4387 115.024C61.2703 120.178 61.0735 125.328 61.17 130.487C61.2892 136.822 61.2324 143.145 60.4697 149.457C60.0685 152.773 60.0439 156.133 59.8489 159.469C60.0666 159.486 60.1669 159.528 60.2331 159.496ZM151.936 105.123C151.987 105.959 152.254 106.735 152.74 107.424C153.128 107.972 153.471 108.009 153.719 107.301C154.012 106.469 154.076 105.599 154.061 104.733C154.025 102.765 154.059 100.773 152.905 98.9876C152.244 101.001 151.807 103.023 151.936 105.123ZM158.564 97.8032C158.511 97.4021 158.399 96.8749 157.818 96.9031C157.309 96.9295 157.258 97.4454 157.231 97.7825C157.165 98.6374 157.211 99.5017 157.211 100.588C158.25 99.7729 158.71 98.9086 158.564 97.8032ZM142.454 108.412C142.463 109.171 142.689 109.499 143.548 109.126C144.169 108.857 144.324 108.667 144.013 108.017C143.601 107.156 143.275 106.258 142.452 105.367C142.452 106.516 142.443 107.465 142.454 108.412ZM157.93 119.639C157.884 119.366 157.659 119.136 157.368 119.257C156.544 119.596 156.582 120.3 156.701 121.144C157.483 120.857 158.081 120.53 157.93 119.639ZM145.537 126.371C145.478 125.872 145.253 125.371 144.683 125.386C144.169 125.401 144.044 125.913 144 126.35C143.957 126.782 143.953 127.218 143.974 127.651C144.017 128.484 143.786 129.821 144.752 129.83C145.719 129.84 145.531 128.514 145.546 127.674C145.546 127.239 145.586 126.8 145.537 126.371ZM148.313 115.698C147.375 115.717 147.67 117.101 147.685 117.929C147.696 118.641 148.007 119.56 148.677 119.507C149.269 119.462 148.923 118.464 149.065 117.914C148.881 117.097 149.265 115.681 148.313 115.698ZM95.0269 74.2763C93.7267 76.3439 93.5829 78.6017 94.1317 80.9423C94.4043 82.1061 95.1329 82.8311 96.189 83.315C98.9011 84.5616 102.257 82.9817 103.052 80.0554C103.398 78.7806 103.472 77.4756 103.335 76.1632C103.042 73.3687 101.925 72.3839 98.9465 72.4197C97.2583 71.947 95.9562 72.7963 95.0269 74.2763Z" fill="#F8F2EC"/>
<path d="M142.44 47.8172C139.927 48.996 137.419 50.1879 134.9 51.3535C128.594 54.2723 122.277 57.1665 115.978 60.0984C113.171 61.4053 110.402 62.7931 107.467 63.8081C106.924 63.9964 106.375 64.1282 105.8 64.1056C101.598 63.9342 97.4285 63.4974 93.2893 62.7592C93.0187 62.7121 92.7916 62.618 92.5531 62.3054C94.0199 61.2942 95.5037 60.3206 97.1522 59.6315C104.471 56.5621 111.928 53.8335 119.309 50.9223C123.524 49.2596 127.826 47.7569 131.842 45.6159C132.22 45.4144 132.506 45.3749 132.75 45.7213C133.15 46.2806 132.516 46.2881 132.298 46.3955C127.761 48.6212 123.297 50.9656 118.459 52.5738C114.581 53.8618 110.976 55.8917 107.102 57.2456C104.753 58.0666 102.41 58.9121 100.245 60.1531C99.6958 60.4675 98.7287 60.9289 99.0429 61.4674C99.4914 62.2338 100.178 61.3601 100.682 61.0814C102.599 60.0212 104.666 59.3207 106.683 58.5016C113.468 55.7524 120.267 53.0351 127.01 50.1898C129.294 49.2238 131.443 47.9283 133.634 46.7514C134.635 46.2128 135.319 47.2259 136.201 47.111C136.297 47.6571 135.845 47.627 135.633 47.7306C127.778 51.6266 119.754 55.1385 111.564 58.2851C109.329 59.1437 107.109 60.0871 105.107 61.4411C104.812 61.6407 104.306 61.8836 104.592 62.3412C104.783 62.6462 105.237 62.5728 105.557 62.3864C110.709 59.3716 116.531 57.8783 121.864 55.2628C127.148 52.6736 132.748 50.734 137.777 47.6044C138.545 47.1261 139.475 47.6684 140.338 47.5667C141.008 47.4895 141.695 47.5517 142.374 47.5517C142.397 47.6402 142.42 47.7287 142.44 47.8172ZM119.71 21.1983C119.341 21.0684 119.065 21.074 118.73 21.2755C114.651 23.7536 110.196 25.5068 106 27.7306C98.8934 31.4986 91.5179 34.6829 84.3051 38.2155C83.9039 38.4132 83.5159 38.8105 82.9519 38.5657C83.003 38.4433 83.0181 38.2776 83.1014 38.2287C94.3265 31.6474 106.256 26.4238 118.071 20.3359C117.218 20.3001 117.059 19.223 116.199 19.803C113.618 21.5448 110.713 22.6596 107.906 23.9589C104.541 25.5181 101.102 26.919 97.771 28.5441C93.3385 30.7077 88.9647 32.9919 84.5985 35.2817C82.7361 36.259 80.8303 37.0969 78.8392 37.773C76.7044 38.4998 74.5979 39.3058 72.6864 40.6917C73.6648 41.4826 74.7777 41.7368 75.866 41.9307C77.9724 42.3055 79.9956 42.9645 82.1911 41.6972C88.5767 38.0121 95.3807 35.1348 102.043 31.9901C106.7 29.7907 111.157 27.1902 115.944 25.2544C118.327 24.2903 120.653 23.1906 123.085 21.6352C121.75 21.6653 120.706 21.5523 119.71 21.1983ZM145.8 76.7484C145.154 77.3209 144.352 77.7276 143.599 78.172C138.633 81.1133 133.464 83.6799 128.244 86.1241C124.324 87.9601 120.441 89.8507 116.637 91.9089C116.165 92.165 115.552 92.2666 115.327 92.8692C115.656 93.0707 115.986 93.1592 116.349 93.1592C119.776 93.1592 123.204 93.2383 126.628 93.1329C127.722 93.099 128.88 93.0971 129.942 92.5585C139.53 87.6889 148.688 82.0586 158.083 76.8463C158.643 76.5375 159.292 76.3002 159.853 75.5018C158.155 76.0818 156.565 75.7692 155.144 76.4584C150.7 78.6126 146.793 81.7178 142.242 83.6837C141.805 83.872 141.401 84.1469 140.995 84.403C137.416 86.6627 133.354 88.1145 130.065 90.8619C129.998 90.9165 129.915 90.9523 129.836 90.9918C129.586 91.1217 129.291 91.1764 129.101 90.9692C128.85 90.6943 129.158 90.4947 129.327 90.329C129.635 90.022 129.976 89.7434 130.313 89.4647C132.896 87.3255 136.047 86.1373 138.867 84.4124C143.396 81.6406 148.355 79.6238 152.46 76.4772C150.912 76.3191 150.965 76.4226 149.655 77.0911C147.615 78.1306 145.893 79.6577 143.881 80.7066C137.489 84.0396 130.975 87.1372 124.818 90.9052C124.198 91.2856 123.518 91.649 122.621 91.5228C123.011 90.9372 123.475 90.6171 123.946 90.3139C127.036 88.3311 130.19 86.4537 133.464 84.789C138.75 82.1038 144.117 79.5636 148.9 76.2343C147.823 75.5828 146.805 75.8577 145.8 76.7484ZM58.3801 57.2965C60.7932 55.2552 63.6094 53.9446 66.3613 52.5361C67.9681 51.7151 68.0854 51.5607 67.5574 49.6946C63.6662 52.1444 59.8412 54.7129 54.9602 55.8032C55.3784 54.8447 55.9632 54.519 56.5235 54.244C60.1043 52.4947 63.5526 50.5175 66.965 48.4687C67.7183 48.0168 67.9397 47.6157 67.6615 46.7909C60.6115 51.0165 52.4335 52.7545 45.3552 57.2004C48.8205 58.0572 52.0701 59.4337 55.6169 59.3226C56.8793 59.285 58.153 59.912 59.3813 59.3584C61.889 58.2305 64.3986 57.1138 66.772 55.6978C67.8072 55.0782 67.9775 54.3815 67.6444 53.2592C64.6049 54.7826 61.6903 56.5093 58.3801 57.2965ZM136.227 137.927C135.822 139.625 135.968 141.271 137.192 142.58C138.369 143.84 139.895 144.512 141.678 144.292C144.163 143.983 145.512 142.32 146.29 140.16C146.612 139.268 146.894 139.204 147.81 139.392C151.851 140.23 154.11 139.315 154.705 135.773C154.924 134.455 155.371 134.327 156.504 134.353C159.839 134.428 162.101 132.266 162.114 129.052C162.118 128.45 162.36 128.459 162.782 128.384C164.917 128.011 165.687 127.256 166.087 125.235C166.168 124.823 166.187 124.38 165.75 124.216C165.318 124.054 165.173 124.48 165.025 124.793C164.915 125.028 164.796 125.263 164.722 125.512C164.308 126.887 163.261 127.329 161.984 127.18C160.814 127.045 160.585 127.467 160.816 128.5C161.208 130.244 160.553 131.566 159.037 132.479C157.738 133.261 156.366 133.212 154.975 132.784C153.442 132.312 153.321 132.41 153.558 133.993C153.838 135.854 152.893 137.968 151.466 138.202C149.884 138.462 148.23 138.629 146.865 137.356C146.182 136.72 145.683 136.901 145.522 137.848C145.336 138.923 145.103 139.978 144.532 140.938C143.468 142.719 141.833 143.471 140.001 142.985C137.942 142.437 136.893 141.053 136.863 138.88C136.857 138.46 136.992 138.012 136.6 137.458C136.422 137.676 136.261 137.786 136.227 137.927ZM134.187 99.0212C135.179 97.2097 137.06 96.8218 138.4 98.1418C138.816 98.5523 138.88 99.5089 139.602 99.3582C140.448 99.1793 140.054 98.2359 140.183 97.6597C140.985 94.0555 143.076 93.0782 146.207 94.9236C146.797 95.272 147.289 95.3323 147.446 94.4717C147.509 94.129 147.588 93.7882 147.685 93.4548C148.467 90.7433 151.37 89.5965 153.558 91.1293C155.721 92.6451 155.721 92.6451 156.132 89.9995C156.476 87.7756 158.304 86.4386 159.936 87.2577C160.392 87.4875 160.744 87.9168 161.153 88.2426C161.493 88.5118 161.866 88.6324 162.186 88.2294C162.47 87.8697 162.23 87.6023 161.978 87.3236C160.095 85.2504 157.449 85.4443 155.84 87.7153C155.24 88.5646 155.161 89.572 154.786 90.4909C151.103 88.4459 148.446 89.2217 146.672 92.9144C146.37 93.5415 146.186 93.4021 145.724 93.2138C143.523 92.3081 141.28 93.0349 140.008 95.0216C139.583 95.6844 139.335 96.4207 139.098 97.1626C136.178 96.1175 135.108 96.2738 133.842 97.9139C132.873 99.1699 132.709 100.767 133.602 102.017C133.725 100.846 133.712 99.8911 134.187 99.0212ZM103.492 149.918C104.068 149.849 104.791 149.796 104.666 149.031C104.526 148.19 103.769 148.564 103.263 148.636C100.519 149.028 97.7862 149.071 95.0495 148.57C94.6728 148.502 94.1107 147.892 93.895 148.747C93.7209 149.43 94.2659 149.675 94.7769 149.828C96.257 150.272 97.8108 150.155 99.4233 150.412C100.72 150.255 102.105 150.084 103.492 149.918ZM96.0223 153.771C95.604 153.803 95.04 153.686 94.9965 154.294C94.951 154.912 95.5491 154.889 95.9466 154.953C96.9799 155.123 98.0209 155.249 99.0599 155.372C99.9192 155.473 100.769 155.776 101.651 155.436C101.988 155.304 102.363 155.264 102.304 154.79C102.257 154.411 101.957 154.353 101.628 154.319C99.8908 154.146 98.1534 153.957 96.3648 153.769C96.2853 153.769 96.1529 153.76 96.0223 153.771ZM78.086 56.2401C77.0848 56.0951 75.9038 57.0761 75.4685 58.4282C75.3493 58.7973 75.2546 59.1776 75.1789 59.5599C75.1108 59.897 75.1259 60.3357 74.6698 60.3338C74.2648 60.3338 74.1494 59.9064 74.0339 59.5863C73.7481 58.8067 73.5608 58.0045 73.5835 57.1628C73.5948 56.7579 73.5418 56.2966 73.0516 56.2514C72.4687 56.1968 72.3078 56.7334 72.3192 57.1421C72.3476 58.3171 72.4744 59.4996 73.1122 60.5334C73.5456 61.2358 74.1872 61.7367 75.0578 61.5917C75.8887 61.4524 76.0552 60.6841 76.2085 60.0062C76.3618 59.3264 76.4754 58.6334 76.8766 58.0497C77.098 57.7258 77.3857 57.4433 77.8456 57.4772C78.4248 57.5187 78.3358 58.0158 78.4399 58.3566C78.6613 59.0891 78.5648 59.8141 78.3585 60.5447C78.2866 60.8008 78.1125 61.2151 78.4494 61.377C78.8184 61.554 79.1061 61.2094 79.3313 60.9609C79.8007 60.4374 79.7117 59.735 79.8613 59.2021C79.8745 57.5865 79.1345 56.3888 78.086 56.2401ZM77.8116 141.45C78.7238 140.855 78.7257 140.369 77.8059 139.823C77.3933 139.578 76.9523 139.379 76.5454 139.126C76.1858 138.902 75.9776 138.537 76.0685 138.125C76.1707 137.665 76.6268 137.791 76.9523 137.756C77.7813 137.665 78.614 137.607 79.4449 137.53C79.8253 137.494 80.1584 137.353 80.1451 136.912C80.13 136.419 79.7098 136.428 79.3673 136.426C78.7522 136.424 78.1352 136.43 77.5258 136.488C76.553 136.582 75.3814 136.392 74.9972 137.646C74.5998 138.94 75.249 139.821 76.3637 140.437C76.4583 140.49 76.5057 140.625 76.606 140.765C76.2558 141.002 75.9303 141.211 75.618 141.437C75.1373 141.783 74.7682 142.188 74.8667 142.853C74.9632 143.512 75.5196 143.646 75.9984 143.793C76.9977 144.101 78.0141 144.363 79.0361 144.587C79.3275 144.651 79.795 144.802 79.8915 144.282C79.9786 143.823 79.5774 143.691 79.2499 143.597C78.2033 143.297 77.1491 143.03 75.989 142.721C76.5113 141.981 77.2362 141.827 77.8116 141.45ZM73.9847 67.7606C73.2655 68.4517 73.4642 69.4704 74.2762 69.5683C75.4023 69.7058 76.5359 69.7698 77.6696 69.8432C78.0576 69.8677 78.5156 69.9073 78.614 69.3781C78.7295 68.7492 78.1693 68.6588 77.7888 68.5778C77.0072 68.414 76.1744 68.6437 75.2035 68.3236C75.8243 67.8792 76.3088 67.5233 76.8009 67.1806C77.3441 66.8002 77.8191 66.3483 78.1882 65.8003C78.6424 65.1262 78.6594 64.4596 77.715 64.3673C76.5435 64.2525 75.3493 64.3391 74.1683 64.3843C73.8011 64.3975 73.451 64.695 73.4434 65.0415C73.4339 65.5179 73.8806 65.6365 74.2913 65.6478C74.9707 65.6648 75.6521 65.6516 76.5889 65.6516C75.5745 66.4632 74.7228 67.0526 73.9847 67.7606ZM78.5818 73.293C78.351 72.1971 77.3176 71.4118 76.1063 71.3553C74.9253 71.3007 74.0699 71.7319 73.6894 72.907C73.1766 74.4944 73.6327 75.9801 74.9594 77.0271C76.7082 78.4055 77.8721 78.027 78.4569 75.8728C78.58 75.4171 78.6216 74.9388 78.6878 74.5565C78.65 74.0688 78.6632 73.6715 78.5818 73.293ZM76.5643 76.6072C75.9265 76.7691 74.543 75.2909 74.632 74.5829C74.738 73.7223 74.7304 72.6622 75.9776 72.5285C76.8804 72.4306 77.5314 73.2271 77.539 74.5226C77.2665 75.1384 77.7415 76.3115 76.5643 76.6072ZM77.2513 98.364C76.9334 98.1418 76.5473 97.9328 76.3656 97.6202C76.0552 97.0854 76.9164 94.1478 77.3914 93.7034C77.681 93.4341 78.2544 93.2214 77.927 92.6847C77.6223 92.1857 77.1756 92.4324 76.7744 92.6338C75.5064 93.2703 74.4995 94.2231 73.5835 95.2758C73.169 95.7503 73.0838 96.3284 73.5361 96.818C74.5354 97.9045 75.6918 98.8084 77.0432 99.4298C77.3554 99.5729 77.7415 99.603 77.8967 99.1304C77.8362 98.7443 77.5409 98.5655 77.2513 98.364ZM78.1598 126.642C77.2457 126.333 76.4035 126.516 75.9549 127.258C75.2811 128.369 74.8969 129.606 75.4042 130.96C75.8489 132.152 76.8482 132.656 77.9232 132.739C79.038 132.828 79.3351 131.751 79.6133 130.881C79.7837 130.35 79.8442 129.785 79.9351 129.336C79.8859 127.994 79.4316 127.073 78.1598 126.642ZM77.7415 131.451C77.1018 131.645 76.2407 130.455 76.305 129.448C76.3542 128.647 76.4375 127.655 77.5277 127.636C78.3907 127.621 78.7427 128.35 78.8374 129.254C78.4039 129.905 78.8582 131.114 77.7415 131.451ZM74.9102 123.817C74.9253 124.341 75.1354 124.838 75.7335 124.766C76.2729 124.702 76.0779 124.224 76.0685 123.827C76.042 122.661 76.1082 121.522 77.8078 121.708C78.0936 121.738 78.4058 121.597 78.6973 121.507C79.0758 121.388 79.5225 121.26 79.3995 120.74C79.2991 120.32 78.8922 120.33 78.5345 120.354C77.8002 120.403 76.8842 120.752 76.3788 120.437C75.7278 120.034 76.0609 118.991 75.9227 118.232C75.8489 117.816 75.7675 117.283 75.1695 117.341C74.4257 117.413 74.5865 118.049 74.6736 118.464C74.8988 119.545 74.9178 120.629 74.9026 121.721C74.9045 122.418 74.8894 123.119 74.9102 123.817ZM75.6161 108.067C76.8463 107.35 77.8059 106.324 78.7276 105.275C79.0569 104.9 78.9282 104.426 78.4778 104.154C77.2324 103.403 76.1631 102.435 75.0767 101.484C74.7815 101.226 74.3859 101.002 74.0282 101.392C73.663 101.793 73.9601 102.145 74.2459 102.409C74.9859 103.09 75.6956 103.832 76.5322 104.371C77.3876 104.921 77.1946 105.299 76.5738 105.8C75.9965 106.265 75.4269 106.742 74.8572 107.218C74.6452 107.395 74.509 107.615 74.5922 107.904C74.6679 108.158 74.8837 108.195 75.1733 108.201C75.2849 108.169 75.4704 108.152 75.6161 108.067ZM75.0181 85.1544C74.9651 84.806 74.7815 84.4821 74.3178 84.5442C73.9241 84.597 73.8484 84.8775 73.8428 85.2052C73.8219 86.9866 73.9809 88.7736 73.7046 90.5512C73.663 90.8167 73.8125 91.0653 74.1153 91.133C74.4332 91.2027 74.6036 91.0257 74.6812 90.7414C74.7626 90.4514 74.9159 90.1501 74.8931 89.8658C74.8099 88.8602 75.3644 88.4911 76.2464 88.3198C76.8823 88.1955 77.5031 87.9846 78.1182 87.7775C78.3055 87.7134 78.5478 87.5854 78.5213 87.3217C78.491 87.0148 78.2469 86.9301 77.9668 86.8943C77.0261 86.7719 76.1763 87.1918 75.2509 87.3575C75.1751 86.6081 75.1297 85.8756 75.0181 85.1544ZM76.6344 111.574C75.9814 111.574 75.3266 111.54 74.6774 111.587C74.3197 111.613 74.0131 111.843 74.015 112.251C74.015 112.541 74.2856 112.809 74.5108 112.764C75.847 112.498 77.2002 112.766 78.5345 112.594C78.8676 112.551 79.1061 112.366 79.1004 112.001C79.0929 111.592 78.7749 111.53 78.4607 111.523C77.8513 111.51 77.2419 111.519 76.6344 111.519C76.6344 111.538 76.6344 111.555 76.6344 111.574ZM74.4351 80.5936C74.1134 80.7254 73.9014 80.9495 73.9828 81.2753C74.0699 81.6274 74.3821 81.7065 74.7171 81.5916C75.3531 81.3732 76.0211 81.4937 76.6608 81.3939C77.2684 81.2997 78.3774 81.7686 78.3036 80.7292C78.2487 79.9684 77.2135 80.4524 76.7782 80.3432C75.8849 80.3243 75.143 80.3017 74.4351 80.5936ZM50.8362 147.971C49.2577 146.546 48.7789 145.034 49.8388 142.979C50.5239 141.655 51.2847 140.264 51.4191 138.723C51.6878 135.631 50.8778 132.773 49.3069 130.118C48.953 129.521 48.5556 128.943 47.9537 128.536C47.5998 128.297 47.3708 128.154 46.9923 128.593C43.2544 132.92 42.2986 141.593 46.627 145.228C47.2251 145.73 47.3538 146.339 46.9809 147.092C46.521 148.02 46.1595 148.997 45.9665 150.088C47.9499 150.206 49.7612 149.719 51.5762 148.903C51.3188 148.576 51.1201 148.227 50.8362 147.971ZM51.1655 118.098C51.9301 118.078 51.9585 117.801 51.6462 117.242C51.1579 116.364 50.6185 115.496 51.0538 114.419C51.6708 112.901 51.72 111.274 51.9244 109.681C52.0815 108.465 52.0096 107.252 51.2734 106.162C50.3024 104.725 48.9549 104.712 48.0446 106.181C47.0131 107.847 46.9279 109.685 47.4011 111.489C47.9991 113.769 48.7335 115.995 46.9487 118.4C48.6464 118.272 49.905 118.136 51.1655 118.098ZM48.0124 97.3904C49.0685 97.0741 50.1245 96.7558 51.6065 96.3133C48.6237 94.6412 48.9776 92.0915 49.0571 89.6247C49.0609 89.4515 49.0666 89.2707 49.0325 89.1012C48.7183 87.5345 48.6313 85.868 47.2478 84.7382C46.2087 83.8889 45.6599 84.0377 45.3041 85.3201C44.7647 87.2615 45.2776 89.0993 45.9419 90.924C46.7197 93.0594 48.5745 94.8577 48.0256 97.4168L48.0124 97.3904ZM51.4342 79.5052C52.072 79.4543 52.2859 79.2152 51.9358 78.6032C51.1276 77.1966 50.9175 75.7203 51.1314 74.0877C51.3528 72.4117 51.6557 70.7151 51.4285 69.0034C51.2999 68.0261 50.7207 67.4028 49.7895 67.1881C48.8622 66.9754 48.6351 67.7907 48.3095 68.382C47.138 70.5155 47.8458 72.6659 48.4628 74.7204C48.9795 76.4433 49.4243 78.0421 48.09 79.8008C49.4413 79.6803 50.4368 79.5862 51.4342 79.5052Z" fill="#F8F2EC"/>
</g>
<defs>
<clipPath id="clip0_935_731">
<rect width="198" height="197" rx="98.5" fill="white"/>
</clipPath>
</defs>
</svg>
