<svg width="197" height="197" viewBox="0 0 197 197" fill="none" xmlns="http://www.w3.org/2000/svg">
<g clip-path="url(#clip0_935_302)">
<path d="M216.7 -19.7H-19.7002V216.7H216.7V-19.7Z" fill="white"/>
<path d="M216.7 -19.7H-19.7002V216.7H216.7V-19.7Z" fill="#F8F2EC"/>
<mask id="mask0_935_302" style="mask-type:luminance" maskUnits="userSpaceOnUse" x="39" y="35" width="119" height="128">
<path d="M39.7939 35.0659H157.492V162.029H39.7939V35.0659Z" fill="white"/>
</mask>
<g mask="url(#mask0_935_302)">
<path d="M157.609 41.7107H152.359V35.0659H104.894V40.9101H98.8642V79.4278H93.02V85.4578H84.2842V90.9945H75.3607V97.2712H69.2092V103.056H57.4547V97.3319H51.5498V91.427H45.6449V79.4278H39.8008V114.745H45.4626V120.775H51.6142V126.746H57.4601V132.651H63.365V138.373H69.2092V162.184H81.2102V156.093H75.2392V150.249H81.1441V144.344H87.0508V138.498H93.02V144.344H98.7033V162.189H110.558V156.158H104.833V132.59H110.558V126.621H116.649V117.758H122.432V97.0907H128.464V102.813H134.186V91.2447H122.498V79.3706H146.002V73.4657H128.464L128.403 66.9853H157.609V41.7107ZM116.575 49.9015H110.67V43.9966H116.575V49.9015Z" fill="#0B5648"/>
</g>
</g>
<defs>
<clipPath id="clip0_935_302">
<rect width="197" height="197" rx="98.5" fill="white"/>
</clipPath>
</defs>
</svg>
