<svg width="197" height="197" viewBox="0 0 197 197" fill="none" xmlns="http://www.w3.org/2000/svg">
<g clip-path="url(#clip0_935_441)">
<path d="M216.7 -19.7H-19.7002V216.7H216.7V-19.7Z" fill="white"/>
<path d="M216.7 -19.7H-19.7002V216.7H216.7V-19.7Z" fill="#0B5648"/>
<path d="M96.5341 70.8562C98.0423 71.5191 99.5876 72.2188 101.207 72.2558C104.078 72.3296 106.544 70.4889 109.009 69.0155C113.279 66.4771 118.099 64.8949 123.031 64.4168C125.975 64.1582 129.068 64.2321 131.754 62.9434C133.115 62.2826 134.955 61.3612 135.911 62.5391C136.833 63.6432 135.692 65.3361 134.477 66.1098C129.729 69.1263 123.215 68.5004 118.836 71.9972C117.4 73.1382 116.296 74.6834 114.824 75.7874C111.475 78.3648 106.838 78.4387 102.606 78.3648C100.25 78.3279 97.6381 78.1801 95.9082 76.561C94.878 75.6048 94.363 74.2422 93.6263 73.0273C92.8896 71.7776 91.8594 70.6736 90.8662 69.6045C92.0441 67.9854 94.9868 70.1934 96.5341 70.8562Z" fill="#087661"/>
<path d="M85.714 68.4287C83.5428 65.9621 82.365 62.7239 82.0346 59.4488C81.8129 57.3495 81.8868 55.2153 81.2979 53.2289C80.9305 51.9771 80.3047 50.8362 79.6788 49.6952C78.2793 47.0829 76.8448 44.5055 75.4453 41.8932C74.4521 40.0155 73.385 37.9183 73.937 35.8949C74.5629 33.5761 77.0665 32.1396 77.6534 29.8228C77.8381 29.16 77.8381 28.3864 78.2054 27.7974C78.9421 26.6565 80.8197 26.8411 81.7021 27.8344C82.5866 28.8276 82.6953 30.3379 82.4388 31.6615C82.1803 32.9871 81.6283 34.2389 81.3717 35.5625C80.4873 40.0894 83.2125 44.3947 84.9403 48.6281C86.3768 52.1987 87.1853 56.0259 87.2592 59.853C87.2961 60.994 87.2592 62.1349 87.6655 63.202C87.9589 63.9736 88.5109 64.6364 89.026 65.2623C90.7929 67.4334 92.8901 69.5676 94.2896 71.9603C91.3449 73.1751 87.7024 70.4151 85.714 68.4287Z" fill="#087661"/>
<mask id="mask0_935_441" style="mask-type:luminance" maskUnits="userSpaceOnUse" x="35" y="126" width="71" height="36">
<path d="M35.8262 126.166H105.17V161.146H35.8262V126.166Z" fill="white"/>
</mask>
<g mask="url(#mask0_935_441)">
<path d="M75.2614 138.058C71.9493 138.647 68.5264 139.014 65.3601 140.192C59.803 142.218 55.2761 146.412 49.8299 148.694C46.1136 150.202 41.9909 150.865 38.7527 153.184C36.8012 154.583 35.2191 157.38 36.6925 159.293C37.6487 160.545 39.4525 160.729 40.9977 160.801C43.1688 160.912 45.303 161.023 47.4741 161.134C49.0952 161.207 50.7513 161.318 52.3334 160.875C54.3937 160.36 56.1236 159.036 57.8166 157.785C65.5817 152.265 74.1573 147.994 82.4006 143.322C89.9461 139.051 99.8453 133.827 104.703 126.392C95.1337 131.471 86.1538 136.108 75.2614 138.058Z" fill="#4E938F"/>
</g>
<mask id="mask1_935_441" style="mask-type:luminance" maskUnits="userSpaceOnUse" x="15" y="123" width="83" height="25">
<path d="M15.3662 123.54H97.2915V147.705H15.3662V123.54Z" fill="white"/>
</mask>
<g mask="url(#mask1_935_441)">
<path d="M71.2137 143.578C68.8949 144.682 66.5391 145.786 64.0376 146.412C62.0122 146.927 59.915 147.075 57.8177 147.186C52.8127 147.368 47.7338 147.038 43.0222 145.345C40.0057 144.241 37.2456 142.585 34.4856 140.966C31.2823 139.051 28.081 137.139 24.8798 135.224C21.0526 132.942 16.893 130.219 15.789 125.914C15.6413 125.325 15.5674 124.662 15.9368 124.221C16.4888 123.484 17.6667 123.706 18.5491 124.036C26.7923 126.981 35.0745 129.926 43.3177 132.868C46.1147 133.864 48.9486 134.894 51.5979 136.254C52.8866 136.917 54.1363 137.654 55.4989 138.058C56.7137 138.425 58.0024 138.536 59.2891 138.573C67.4235 138.943 75.6298 137.765 83.358 135.15C87.5545 133.716 92.4487 131.067 96.9387 131.286C93.6635 134.083 88.1804 135.665 84.2424 137.506C79.8633 139.495 75.556 141.518 71.2137 143.578Z" fill="#087661"/>
</g>
<path d="M89.6505 22.6812C91.9693 19.7385 96.2377 19.0756 99.6605 21.1729C100.471 21.6879 101.353 22.3877 101.686 23.4178C102.384 22.24 107.352 20.9143 108.677 21.099C111.916 21.5771 113.241 24.1545 115.523 27.0254C116.958 28.7902 116.516 31.1091 116.701 33.391C116.738 33.7583 116.738 34.2015 117.031 34.4211C117.216 34.6058 117.473 34.5689 117.694 34.6058C119.607 34.6797 121.558 35.7468 122.921 37.4397C124.281 39.1327 125.055 41.4146 125.018 43.5488C125.018 43.7335 124.981 43.99 125.129 44.1747C125.275 44.4312 125.607 44.4312 125.827 44.5051C127.337 44.7267 132.525 47.0825 133.335 48.6646C134.218 50.4315 135.617 54.2586 135.654 56.1712C135.654 58.0857 130.06 57.2403 128.478 57.6815C123.951 58.9312 118.835 54.8476 114.456 51.8659C110.077 48.9581 106.065 45.2787 102.238 41.4516C100.213 39.4262 98.2631 37.292 96.7897 34.7536C94.8771 31.3307 93.847 27.0603 90.8653 24.8523C90.5329 24.5957 90.1655 24.4111 89.909 24.0807C89.6505 23.7113 89.4288 22.9767 89.6505 22.6812Z" fill="#F8F2EC"/>
<path d="M118.577 49.6212C118.761 49.6951 118.872 49.3277 118.909 49.0692C119.02 46.383 118.909 43.623 118.503 40.9368C118.283 39.3526 117.951 37.7335 117.216 36.4468C116.59 35.4167 115.78 34.643 114.86 33.9802C111.107 31.2571 106.322 30.9267 102.531 33.1717C102.384 33.9433 102.457 34.3845 102.825 35.0473C104.666 38.6549 106.8 42.0408 109.488 44.7639C112.211 47.487 115.265 48.9214 118.577 49.6212Z" fill="#4E938F"/>
<path d="M101.28 67.7659C109.156 61.9873 118.173 58.786 127.446 57.9016C128.035 55.4001 127.446 52.5661 126.416 50.2104C126.123 49.5475 125.79 48.8847 125.349 48.3696C124.797 47.7089 124.134 47.2656 123.474 46.8983C121.155 45.6096 118.503 44.6533 116.002 44.838C115.891 43.5493 115.707 42.2606 115.265 41.0827C114.824 39.9048 114.087 38.8377 113.168 38.2139C111.916 37.3664 110.408 37.4033 109.009 37.4772C108.789 37.5141 108.456 37.551 108.456 37.7706C108.274 35.4887 107.648 33.2437 106.618 31.2942C106.285 30.6314 105.918 30.0055 105.403 29.4905C104.74 28.8276 103.932 28.4973 103.158 28.2018C101.502 27.6128 99.6243 27.6497 98.153 28.6081C97.7836 26.7674 96.7165 25.1852 95.356 24.2638C93.9934 23.3445 92.4113 23.051 90.9399 23.2337C90.4987 23.2706 90.2402 23.4553 89.8728 23.8226C91.0138 26.5457 91.4919 29.5643 91.8223 32.583C92.0809 34.8649 92.3374 37.1817 92.2635 39.4636C92.2266 40.8262 92.0809 42.2236 91.9331 43.5862C91.418 48.6282 89.1361 47.8915 88.9884 53.0073C88.9145 55.9521 90.2032 64.9689 91.6746 67.3965C92.8155 69.2742 94.767 70.2305 96.6447 70.1197C98.5203 69.974 99.6982 68.9069 101.28 67.7659Z" fill="#087661"/>
<mask id="mask2_935_441" style="mask-type:luminance" maskUnits="userSpaceOnUse" x="109" y="16" width="9" height="20">
<path d="M109.374 16.9419H117.779V35.8087H109.374V16.9419Z" fill="white"/>
</mask>
<g mask="url(#mask2_935_441)">
<path d="M110.961 35.4886L109.672 35.0105C111.88 28.9753 114.014 22.9771 116.113 17.1245L117.4 17.5657C115.34 23.4552 113.169 29.4904 110.961 35.4886Z" fill="#F8F2EC"/>
</g>
<path d="M113.831 37.5882L112.909 36.5929C117.695 32.1399 122.185 28.2389 126.675 24.5964L127.52 25.6635C123.104 29.2711 118.614 33.1721 113.831 37.5882Z" fill="#F8F2EC"/>
<path d="M116.517 40.1633L115.854 38.9854C121.229 35.8581 126.527 32.9133 131.569 30.301L132.195 31.5138C127.153 34.1282 121.89 37.036 116.517 40.1633Z" fill="#F8F2EC"/>
<mask id="mask3_935_441" style="mask-type:luminance" maskUnits="userSpaceOnUse" x="107" y="16" width="3" height="18">
<path d="M107.272 16.9419H109.899V33.7074H107.272V16.9419Z" fill="white"/>
</mask>
<g mask="url(#mask3_935_441)">
<path d="M108.825 33.5761L107.463 33.5391C107.537 31.6615 107.611 29.7489 107.685 27.8713C107.832 24.3007 107.978 20.5843 108.126 16.9419L109.488 16.9768C109.377 20.6213 109.193 24.3376 109.045 27.9082C109.008 29.7859 108.899 31.6615 108.825 33.5761Z" fill="#F8F2EC"/>
</g>
<path d="M114.308 151.749L113.352 148.583C117.805 147.222 121.448 146.044 124.87 144.903C128.882 143.578 132.709 142.217 135.948 139.861C138.599 137.947 140.807 135.298 142.793 132.759C144.228 130.992 145.516 129.225 146.105 127.237C147.135 123.705 145.406 119.398 141.948 116.97C138.818 114.799 134.439 114.026 129.912 114.799C125.385 115.608 121.117 117.742 117.583 119.694C113.13 122.16 108.862 124.809 104.887 127.643C104.446 127.974 104.003 128.269 103.562 128.6C101.169 130.329 98.7412 132.096 95.9442 133.311C90.461 135.739 84.0934 135.887 78.4995 133.752C76.3653 132.979 74.7093 131.949 73.4944 130.586C70.6236 127.496 70.2562 123.043 70.2193 119.987C70.1454 114.026 70.9909 108.173 72.7577 102.616C75.1874 94.9987 79.2361 87.9704 82.8047 81.7505C86.3384 75.5676 90.3872 68.611 96.8635 64.2688L98.7043 67.0289C92.8517 70.9299 89.0615 77.554 85.6756 83.4065C82.1788 89.4786 78.2409 96.3244 75.9241 103.611C74.2681 108.836 73.4575 114.321 73.5314 119.95C73.5683 123.962 74.3399 126.613 75.9241 128.341C76.8065 129.299 78.0213 130.034 79.6404 130.623C84.4608 132.464 89.909 132.316 94.5816 130.256C97.0482 129.189 99.2563 127.569 101.612 125.876C102.053 125.544 102.494 125.251 102.936 124.92C107.021 122.012 111.364 119.252 115.927 116.749C119.718 114.652 124.281 112.37 129.286 111.487C134.77 110.529 139.922 111.487 143.823 114.173C148.387 117.375 150.669 123.19 149.235 128.048C148.498 130.586 146.916 132.722 145.334 134.709C143.161 137.432 140.807 140.266 137.825 142.4C134.218 145.051 130.097 146.486 125.864 147.885C122.478 149.209 118.798 150.387 114.308 151.749Z" fill="#F8F2EC"/>
<path d="M133.703 113.033C133.077 107.732 132.71 101.66 136.426 97.87C137.789 96.5074 139.519 95.5881 140.953 94.2994C143.494 92.0544 144.928 88.7793 146.99 86.0931C152.067 79.432 160.606 76.5611 168.593 74.0576C172.678 72.7709 176.725 71.4822 180.811 70.2305C182.688 74.427 179.596 79.7624 175.88 82.4486C172.163 85.1368 167.599 86.5343 163.918 89.2574C160.349 91.9087 157.661 95.6989 153.76 97.87C151.443 99.1587 148.792 99.7825 146.328 100.778C140.586 103.097 136.317 107.402 133.703 113.033Z" fill="#087661"/>
<path d="M134.036 112.959C130.392 104.09 129.361 94.1886 131.054 84.7305C131.643 81.4185 132.6 78.1433 134.219 75.1986C136.244 71.5192 139.298 68.4637 141.286 64.7843C143.199 61.3245 144.524 56.9823 148.204 55.5479C149.162 57.719 148.462 60.6986 147.799 62.9805C145.665 70.3783 143.531 77.8499 140.071 84.7305C138.267 88.2642 136.133 91.6502 135.103 95.4773C134.33 98.3851 134.256 101.404 134.182 104.383C134.11 107.439 134.11 109.94 134.036 112.959Z" fill="#4E938F"/>
<path d="M145.443 63.9385C141.986 69.2739 138.526 74.6462 135.911 80.4618C133.262 86.3513 131.717 92.6061 131.902 99.1214C132.01 103.059 132.636 106.96 133.373 110.824C133.447 111.303 134.181 111.081 134.073 110.64C132.821 103.942 131.973 97.133 133.373 90.398C134.662 84.3259 137.348 78.6581 140.438 73.3226C142.205 70.2671 144.12 67.2875 146.069 64.3427C146.328 63.9015 145.702 63.5321 145.443 63.9385Z" fill="#F8F2EC"/>
<path d="M88.7313 135.372C82.6223 139.236 76.4763 143.026 70.2564 146.707C64.5886 150.056 58.736 153.258 52.3705 155.061C48.8368 156.055 45.1923 156.57 41.5129 156.422C41.0348 156.385 41.0348 157.122 41.5129 157.159C48.1001 157.417 54.5046 155.54 60.429 152.816C66.6858 149.946 72.5383 146.227 78.4258 142.622C81.9964 140.451 85.565 138.243 89.0987 135.998C89.5029 135.739 89.1356 135.113 88.7313 135.372Z" fill="#F8F2EC"/>
<path d="M160.143 81.7015L161.914 79.9326L162.693 80.7124L160.922 82.4813L160.143 81.7015Z" fill="#4E938F"/>
<path d="M177.013 73.4705L179.174 71.4185L179.935 72.2188L177.772 74.2729L177.013 73.4705Z" fill="#4E938F"/>
<path d="M178.051 77.8494L177.205 77.1496C177.535 76.7454 177.794 76.3391 177.977 75.9348L178.97 76.4129C178.75 76.8541 178.418 77.3713 178.051 77.8494Z" fill="#4E938F"/>
<path d="M174.187 76.783C173.783 76.4506 173.376 76.0833 173.083 75.679L173.928 74.9792C174.187 75.3096 174.517 75.6421 174.887 75.9355L174.187 76.783Z" fill="#4E938F"/>
<path d="M169.77 77.3717L168.923 76.6719C169.071 76.4872 169.255 76.2677 169.403 76.0461C169.586 75.8244 169.733 75.6049 169.918 75.4202L170.764 76.1199C170.616 76.3026 170.433 76.5242 170.285 76.7458C170.101 76.9284 169.918 77.1501 169.77 77.3717Z" fill="#4E938F"/>
<path d="M173.672 80.866C173.524 80.7921 173.376 80.7203 173.194 80.6833C173.083 80.6095 172.935 80.5725 172.824 80.4987L173.231 79.4685C173.376 79.5424 173.524 79.6163 173.709 79.6511C173.819 79.725 173.965 79.762 174.076 79.8358L173.672 80.866Z" fill="#4E938F"/>
<path d="M168.887 81.5291L167.968 80.9401C168.372 80.3512 168.704 79.6884 169.035 79.0276L170.028 79.5057C169.661 80.2034 169.293 80.9032 168.887 81.5291Z" fill="#4E938F"/>
<path d="M166.973 85.3194C166.714 85.2824 166.458 85.2455 166.199 85.2455C165.943 85.2106 165.647 85.1737 165.391 85.1367L165.536 84.0327C165.795 84.0697 166.051 84.1066 166.31 84.1066C166.569 84.1415 166.862 84.1784 167.121 84.2154L166.973 85.3194Z" fill="#4E938F"/>
<path d="M166.496 78.769C165.871 78.4017 165.245 78.1801 164.545 78.1062L164.656 77.0022C165.501 77.0761 166.312 77.3716 167.048 77.8128L166.496 78.769Z" fill="#4E938F"/>
<path d="M157.22 81.788C156.927 81.6033 156.668 81.4556 156.375 81.273C156.079 81.0883 155.823 80.9405 155.527 80.7558L156.079 79.7996C156.375 79.9842 156.631 80.132 156.927 80.3146C157.22 80.4993 157.479 80.6471 157.772 80.8297L157.22 81.788Z" fill="#4E938F"/>
<path d="M159.099 87.6014L158.068 87.234C158.288 86.6081 158.473 85.9823 158.657 85.3933L159.724 85.6888C159.503 86.3147 159.32 86.9755 159.099 87.6014Z" fill="#4E938F"/>
<path d="M152.915 84.1064C152.841 83.9587 152.767 83.774 152.73 83.6262C152.693 83.5175 152.656 83.4436 152.621 83.3328L153.651 82.8916C153.688 83.0004 153.76 83.1112 153.797 83.2589C153.834 83.4067 153.908 83.5175 153.945 83.6262L152.915 84.1064Z" fill="#4E938F"/>
<path d="M156.411 86.0558L155.344 85.7254C155.418 85.4669 155.489 85.2453 155.6 84.9888C155.674 84.7671 155.748 84.5476 155.822 84.3259L156.889 84.6584C156.815 84.9149 156.741 85.1365 156.63 85.393C156.557 85.6146 156.485 85.8342 156.411 86.0558Z" fill="#4E938F"/>
<path d="M157.073 91.724C157.037 91.5762 156.963 91.3915 156.889 91.2089C156.815 91.0242 156.741 90.8395 156.704 90.6938L157.734 90.3245C157.771 90.4722 157.845 90.6569 157.919 90.8395C157.993 91.0242 158.067 91.2089 158.104 91.3915L157.073 91.724Z" fill="#4E938F"/>
<path d="M151.959 90.1051L151.407 89.1468C151.959 88.8164 152.474 88.486 152.989 88.1536L153.578 89.0749C153.026 89.4423 152.511 89.7727 151.959 90.1051Z" fill="#4E938F"/>
<path d="M163.881 86.3866H162.777C162.777 86.1301 162.703 85.9084 162.558 85.615L163.514 85.063C163.772 85.5411 163.881 85.9454 163.881 86.3866Z" fill="#4E938F"/>
<path d="M153.944 94.8141C153.54 94.262 153.355 93.6013 153.281 92.9015L154.385 92.8276C154.422 93.3427 154.57 93.7839 154.829 94.1533L153.944 94.8141Z" fill="#4E938F"/>
<path d="M148.94 87.9335L148.388 86.9752C148.792 86.7556 149.124 86.3863 149.344 85.9451L150.339 86.4232C150.044 87.086 149.566 87.6011 148.94 87.9335Z" fill="#4E938F"/>
<path d="M147.543 93.0494L147.062 92.0541C147.321 91.9454 147.58 91.7976 147.836 91.6499C148.095 91.5021 148.388 91.3564 148.684 91.2456L149.162 92.2388C148.903 92.3496 148.647 92.4974 148.388 92.6431C148.095 92.7539 147.836 92.9016 147.543 93.0494Z" fill="#4E938F"/>
<path d="M148.903 97.4656L148.058 96.7659C148.24 96.5442 148.388 96.3616 148.573 96.14C148.755 95.9553 148.903 95.7357 149.088 95.551L149.933 96.2508C149.751 96.4704 149.603 96.655 149.418 96.8767C149.236 97.0593 149.051 97.244 148.903 97.4656Z" fill="#4E938F"/>
<path d="M144.083 95.6619L143.09 95.1838C143.309 94.7426 143.568 94.2994 143.824 93.8582L144.783 94.4102V94.4471C144.561 94.8144 144.303 95.2207 144.083 95.6619Z" fill="#4E938F"/>
<path d="M141.838 98.7523C141.579 98.5327 141.249 98.4219 140.845 98.4219V97.3179C141.469 97.3179 142.058 97.5026 142.501 97.8699L141.838 98.7523Z" fill="#4E938F"/>
<path d="M138.047 102.101C137.604 101.549 137.273 101.034 137.052 100.519L138.082 100.078C138.267 100.482 138.525 100.924 138.929 101.367L138.047 102.101Z" fill="#4E938F"/>
<path d="M144.854 99.526L143.897 99.0109C144.045 98.7154 144.193 98.4589 144.376 98.1634C144.523 97.9069 144.671 97.6484 144.817 97.3918L145.775 97.9069C145.627 98.2004 145.48 98.4589 145.297 98.7524C145.149 99.0109 145.001 99.2675 144.854 99.526Z" fill="#4E938F"/>
<path d="M136.758 105.45C136.28 105.231 135.911 104.824 135.654 104.346L136.648 103.868C136.795 104.127 136.978 104.346 137.236 104.457L136.758 105.45Z" fill="#4E938F"/>
<path d="M140.292 100.852H141.396V102.175H140.292V100.852Z" fill="#4E938F"/>
<path d="M138.415 98.7523C138.231 98.6785 138.083 98.5697 137.9 98.4958C137.752 98.422 137.605 98.3481 137.459 98.2742L137.9 97.281C138.083 97.3549 138.231 97.4657 138.415 97.5396C138.563 97.6114 138.709 97.6853 138.856 97.7591L138.415 98.7523Z" fill="#4E938F"/>
<path d="M79.7151 138.463L79.1631 137.506C79.5304 137.285 79.9347 137.065 80.304 136.88L80.7822 137.874C80.4149 138.058 80.0455 138.243 79.7151 138.463Z" fill="#4E938F"/>
<path d="M75.8872 139.824C75.5178 139.677 75.2243 139.494 74.8919 139.346L74.5615 139.199L75.0397 138.205L75.3721 138.39C75.7025 138.536 75.9959 138.683 76.2914 138.831L75.8872 139.824Z" fill="#4E938F"/>
<path d="M72.2056 141.002L71.1016 140.818C71.1385 140.598 71.1754 140.413 71.2493 140.192C71.2862 140.009 71.3232 139.787 71.3601 139.603L72.4641 139.787C72.4272 140.009 72.3903 140.192 72.3164 140.413C72.2795 140.598 72.2425 140.781 72.2056 141.002Z" fill="#4E938F"/>
<path d="M65.2754 140.779L66.2624 140.285L66.9212 141.602L65.9321 142.095L65.2754 140.779Z" fill="#4E938F"/>
<path d="M67.7903 144.352L66.834 143.837C67.0536 143.395 67.3491 143.026 67.6056 142.659L68.527 143.285C68.2315 143.652 68.0119 143.984 67.7903 144.352Z" fill="#4E938F"/>
<path d="M60.0988 142.107C59.6207 141.774 59.3252 141.151 59.3252 140.525H60.4292C60.4292 140.818 60.54 141.077 60.7617 141.222L60.0988 142.107Z" fill="#4E938F"/>
<path d="M62.4553 144.866L61.6816 144.093C61.9033 143.873 62.0859 143.541 62.1598 143.21L63.2269 143.467C63.0812 143.984 62.7857 144.499 62.4553 144.866Z" fill="#4E938F"/>
<path d="M56.4917 144.389C56.0136 143.689 55.6463 143.026 55.3877 142.4L56.4178 141.996C56.6395 142.548 56.9329 143.137 57.3762 143.763L56.4917 144.389Z" fill="#4E938F"/>
<path d="M54.1727 141.003L53.1426 140.562C53.2534 140.303 53.3642 140.046 53.475 139.788C53.5838 139.529 53.6946 139.236 53.8054 138.977L54.8355 139.421C54.7247 139.677 54.616 139.936 54.5052 140.192C54.3943 140.488 54.2835 140.744 54.1727 141.003Z" fill="#4E938F"/>
<path d="M52.2966 145.934C52.038 145.675 51.7445 145.53 51.4121 145.493L51.486 144.389C52.038 144.426 52.6269 144.719 53.0312 145.123L52.2966 145.934Z" fill="#4E938F"/>
<path d="M50.7515 143.248L49.8301 142.659C49.9778 142.4 50.1625 142.144 50.3082 141.922C50.456 141.665 50.6407 141.407 50.7863 141.15L51.7077 141.739C51.523 141.996 51.3753 142.254 51.2296 142.511C51.0449 142.733 50.8972 142.989 50.7515 143.248Z" fill="#4E938F"/>
<path d="M49.83 139.236L49.4258 138.205C49.7562 138.058 50.2343 137.91 50.7863 137.91V139.014C50.4929 139.014 50.1994 139.088 49.83 139.236Z" fill="#4E938F"/>
<path d="M46.1509 144.462C45.7446 143.947 45.6359 143.211 45.8554 142.548L46.9225 142.878C46.8138 143.211 46.8856 143.578 47.0703 143.837L46.1509 144.462Z" fill="#4E938F"/>
<path d="M46.0404 141.37L45.3037 140.561C45.6731 140.229 46.0035 139.825 46.3708 139.273L47.2922 139.862C46.8859 140.488 46.4816 140.966 46.0404 141.37Z" fill="#4E938F"/>
<path d="M44.2217 135.536L45.4324 135.425L45.533 136.523L44.3222 136.634L44.2217 135.536Z" fill="#4E938F"/>
<path d="M40.7028 142.363C40.2985 141.774 40.042 141.003 40.042 140.229H41.146C41.146 140.781 41.2917 141.296 41.5872 141.703L40.7028 142.363Z" fill="#4E938F"/>
<path d="M41.3277 138.758C41.2559 138.61 41.182 138.462 41.1082 138.316C41.0343 138.132 40.9235 137.984 40.8496 137.801L41.8428 137.358C41.9167 137.506 41.9906 137.654 42.0644 137.801C42.1383 137.984 42.2491 138.132 42.323 138.316L41.3277 138.758Z" fill="#4E938F"/>
<path d="M40.6309 134.856L39.8203 134.12C39.9681 133.972 40.0789 133.789 40.2246 133.642C40.3723 133.457 40.5201 133.274 40.6678 133.09L41.4763 133.826C41.3286 133.972 41.2198 134.157 41.0721 134.304C40.9243 134.487 40.7766 134.672 40.6309 134.856Z" fill="#4E938F"/>
<path d="M33.0854 140.229C32.8658 139.788 32.6811 139.273 32.5703 138.647L33.6374 138.426C33.7482 138.943 33.896 139.384 34.0786 139.714L33.0854 140.229Z" fill="#4E938F"/>
<path d="M36.6555 139.051C36.3231 138.536 36.1035 137.984 36.1035 137.395H37.2075C37.2075 137.727 37.3183 138.095 37.5379 138.39L36.6555 139.051Z" fill="#4E938F"/>
<path d="M32.1288 136.071L31.5029 135.187C32.0549 134.783 32.7178 134.487 33.4524 134.342L33.711 135.409C33.0851 135.519 32.5331 135.776 32.1288 136.071Z" fill="#4E938F"/>
<path d="M33.0119 132.501L32.0557 131.986C32.2773 131.581 32.4969 131.175 32.7185 130.808L33.6748 131.36C33.4531 131.727 33.2336 132.097 33.0119 132.501Z" fill="#4E938F"/>
<path d="M25.3389 132.928L26.3711 132.532L26.9251 133.974L25.895 134.37L25.3389 132.928Z" fill="#4E938F"/>
<path d="M28.7637 131.235L28.8745 130.026L29.9744 130.127L29.8636 131.335L28.7637 131.235Z" fill="#4E938F"/>
<path d="M24.6946 129.963L24.5469 128.859C25.2097 128.785 25.7617 128.674 26.2398 128.526L26.5723 129.593C26.0572 129.741 25.4313 129.852 24.6946 129.963Z" fill="#4E938F"/>
<path d="M20.057 129.41L19.9482 128.452L21.0523 128.306L21.161 129.262L20.057 129.41Z" fill="#4E938F"/>
<path d="M22.5975 127.827C22.2651 127.827 21.9347 127.79 21.5674 127.718L21.8239 126.649C22.1563 126.723 22.5237 126.759 23.0387 126.723L23.1126 127.827C23.0018 127.79 22.8171 127.827 22.5975 127.827Z" fill="#4E938F"/>
<path d="M18.3999 127.681L17.2959 127.607C17.3328 126.87 17.5914 126.133 18.0326 125.473L18.9519 126.096C18.6215 126.577 18.4369 127.166 18.3999 127.681Z" fill="#4E938F"/>
<path d="M38.3486 136.108H39.0833V137.212H38.3486V136.108Z" fill="#4E938F"/>
<path d="M28.891 136.769C28.7064 136.513 28.5217 136.291 28.376 136.072L29.2953 135.446C29.4431 135.665 29.5888 135.85 29.7365 136.072L28.891 136.769Z" fill="#4E938F"/>
<path d="M59.2518 146.338L58.2217 145.933C58.2586 145.786 58.3325 145.64 58.3694 145.529C58.4064 145.345 58.4802 145.197 58.5172 145.014L59.5473 145.418C59.5104 145.566 59.4365 145.712 59.3996 145.823C59.3626 146.007 59.3257 146.192 59.2518 146.338Z" fill="#4E938F"/>
<path d="M94.7671 47.1918C93.5153 50.6516 92.2636 54.1853 92.4113 57.9385C92.4483 58.4167 93.185 58.4167 93.148 57.9385C93.0003 54.2961 94.252 50.7993 95.4669 47.4134C95.6126 46.9352 94.9149 46.7506 94.7671 47.1918Z" fill="#4E938F"/>
<path d="M102.605 45.9417C101.206 48.0759 99.919 50.3209 98.815 52.6028C97.7479 54.8108 96.4961 57.2035 96.4222 59.705C96.3853 60.1832 97.122 60.1832 97.1589 59.705C97.1959 58.4163 97.6371 57.2405 98.0783 56.0626C98.5564 54.9216 99.0715 53.7807 99.5866 52.6766C100.654 50.4686 101.905 48.3324 103.231 46.309C103.488 45.9048 102.862 45.5354 102.605 45.9417Z" fill="#4E938F"/>
<path d="M105.622 56.7238C103.857 58.3449 102.053 59.9271 100.287 61.5461C99.9192 61.8765 100.471 62.3916 100.802 62.0612C102.568 60.4421 104.372 58.86 106.139 57.2409C106.506 56.9084 105.991 56.3934 105.622 56.7238Z" fill="#4E938F"/>
<path d="M111.806 57.9754C108.789 60.0726 105.588 61.8764 102.274 63.4216C101.833 63.6063 102.202 64.2691 102.643 64.0475C105.992 62.5023 109.157 60.6985 112.175 58.6012C112.58 58.3447 112.212 57.6819 111.806 57.9754Z" fill="#4E938F"/>
<path d="M63.0808 141.481C62.97 141.333 62.8592 141.15 62.7484 141.002C62.6375 140.855 62.5267 140.707 62.418 140.561L63.3004 139.898C63.4112 140.046 63.522 140.192 63.6328 140.377C63.7416 140.524 63.8524 140.67 63.9632 140.818L63.0808 141.481Z" fill="#4E938F"/>
<path d="M106.029 64.5627C105.329 63.0914 104.114 62.0243 102.974 61.105C99.2572 58.0494 93.1851 54.9221 89.0255 52.9336C88.217 55.8045 87.9954 58.8231 88.2888 61.8027C88.4366 63.2761 88.6951 64.7474 89.0994 66.1839C89.5036 67.6183 90.2773 68.4289 91.0858 69.6047C91.8964 70.7087 93.0743 71.3346 94.2522 71.4454C95.4301 71.5932 96.608 71.3346 97.712 70.9673C100.987 69.8263 103.599 67.5444 106.029 64.5627Z" fill="#F8F2EC"/>
<path d="M75.9258 71.6298C73.5331 72.623 71.325 73.9856 69.0062 75.1614C64.9574 77.2607 60.6891 78.9167 56.7511 81.2356C52.8132 83.5524 49.1687 86.6079 47.2561 90.7675C45.5632 94.4099 45.3415 98.7152 43.1335 102.101C40.8146 105.635 36.5094 107.806 35.1468 111.818C34.1166 114.763 34.9641 118.001 35.4053 121.091C35.8835 124.403 35.8835 127.789 35.4053 131.103C35.2576 132.133 35.075 133.2 35.4053 134.194C35.7357 135.187 36.8028 136.034 37.7981 135.665C39.491 131.471 41.9187 127.57 44.9742 124.221C46.4086 122.638 48.0277 121.165 49.2425 119.435C52.7393 114.393 52.7762 107.586 56.0514 102.397C57.2662 100.519 58.8853 98.8999 60.4674 97.3177C67.2393 90.6567 74.1589 84.1783 81.2981 77.8866C84.6471 74.9049 88.3265 72.586 91.8233 69.8629C90.4997 67.1029 78.2795 70.6366 75.9258 71.6298Z" fill="#4E938F"/>
<path d="M94.5455 86.6082C94.2151 89.7007 93.4045 93.0497 94.841 95.8097C95.2822 96.6921 95.945 97.4288 96.4601 98.2743C97.638 100.189 98.1161 102.397 98.5573 104.605C99.5136 109.243 100.472 113.841 101.428 118.479C104.004 114.837 104.447 110.051 104.114 105.598C103.784 101.145 102.754 96.729 102.717 92.276C102.717 90.4353 102.863 88.5597 102.495 86.7559C102.128 84.9152 101.28 83.1853 100.435 81.4923C99.4767 79.6167 98.5573 77.776 97.6011 75.8983C96.7535 74.2423 95.7973 72.4385 94.3629 71.1888C92.0809 69.2373 91.2334 70.0848 92.2636 72.6232C94.0304 77.1132 95.0236 81.7139 94.5455 86.6082Z" fill="#4E938F"/>
<path d="M91.1959 69.3846C86.6321 71.5188 82.0334 73.5052 77.6173 75.8979C75.4811 77.0389 73.4577 78.2907 71.5062 79.762C69.5198 81.2354 67.679 82.8914 65.8404 84.5105L59.9509 89.7002C58.0732 91.3563 56.1607 92.9384 54.5416 94.814C51.4491 98.3108 49.5366 102.579 47.8067 106.849C45.6356 112.148 43.721 117.559 41.9911 123.042C41.8433 123.484 42.5431 123.705 42.6908 123.227C44.1991 118.405 45.8551 113.621 47.7328 108.91C49.4627 104.568 51.2295 100.152 54.1004 96.4331C55.5718 94.5575 57.3386 92.9384 59.1054 91.3912C61.0549 89.6633 63.0065 87.9334 64.9559 86.2035C66.8336 84.5475 68.6743 82.8545 70.6238 81.3093C72.5384 79.7989 74.5248 78.4384 76.659 77.2236C81.4444 74.4635 86.5603 72.2924 91.5653 69.9736C92.0065 69.8258 91.6371 69.1999 91.1959 69.3846Z" fill="#F8F2EC"/>
<path d="M99.4048 89.7005C98.8528 85.2454 97.7118 80.9032 95.8711 76.7826C94.8779 74.5007 93.6631 72.3296 92.2636 70.2303C92.007 69.826 91.3812 70.1934 91.6377 70.5997C94.0673 74.2421 95.945 78.2539 97.1968 82.4484C98.5204 87.0122 98.9246 91.6869 99.3309 96.3985C99.5874 99.1216 99.846 101.845 100.066 104.568C100.103 105.046 100.839 105.046 100.802 104.568C100.361 99.5997 100.029 94.6316 99.4048 89.7005Z" fill="#F8F2EC"/>
</g>
<defs>
<clipPath id="clip0_935_441">
<rect width="197" height="197" rx="98.5" fill="white"/>
</clipPath>
</defs>
</svg>
