<svg width="197" height="197" viewBox="0 0 197 197" fill="none" xmlns="http://www.w3.org/2000/svg">
<g clip-path="url(#clip0_935_431)">
<path d="M216.7 -19.7H-19.7002V216.7H216.7V-19.7Z" fill="#F8F2EC"/>
<path d="M216.7 -19.7H-19.7002V216.7H216.7V-19.7Z" fill="#F8F2EC"/>
<mask id="mask0_935_431" style="mask-type:luminance" maskUnits="userSpaceOnUse" x="19" y="39" width="159" height="119">
<path d="M19.9688 39.9253H177.175V157.075H19.9688V39.9253Z" fill="white"/>
</mask>
<g mask="url(#mask0_935_431)">
<path d="M175.878 141.737C175.792 141.793 175.71 141.858 175.638 141.928C175.517 142.051 175.429 142.185 175.357 142.322C175.256 142.4 175.151 142.468 175.039 142.521C174.817 142.858 174.573 143.184 174.31 143.492C174.152 143.677 173.99 143.855 173.818 144.028C172.038 145.868 169.588 147.167 167.352 148.208C165.31 149.152 163.266 149.847 161.123 150.496C158.673 151.236 156.221 151.979 153.742 152.615C152.843 152.845 151.94 153.079 151.023 153.225C151.017 153.256 151.013 153.289 151.007 153.321C144.555 154.795 138.027 155.889 131.389 156.356C120.704 157.11 109.869 156.459 99.3927 154.167C88.2232 151.721 77.5339 147.069 68.0758 140.646C63.2021 137.338 58.7409 133.539 54.5936 129.353C50.4402 125.163 46.4325 120.782 42.8516 116.09C39.4616 111.65 36.4265 106.957 33.7239 102.069C30.9885 97.1169 28.052 92.2268 26.4452 86.7703C25.6203 83.9651 24.9164 81.1209 24.0586 78.326C23.2768 75.7732 22.3739 73.2614 21.7316 70.6696C20.5332 65.8267 19.9647 60.8135 20.8574 55.868L20.8553 55.8639C20.841 55.8064 20.8348 55.7551 20.8204 55.6956C20.9046 55.5027 20.9908 55.3119 21.0852 55.1231C21.1242 55.041 21.1672 54.9568 21.2083 54.8768C21.631 54.058 22.144 53.2762 22.653 52.4964C23.0901 52.1681 23.5128 51.8233 23.9273 51.4704C24.0443 51.3965 24.1592 51.3308 24.2679 51.2651C29.2709 48.3327 35.1358 46.7198 40.6908 45.2156C46.0652 43.7607 51.5114 42.4863 57.0007 41.5383C59.5145 41.1053 62.0571 40.8467 64.5975 40.6066C64.6673 40.5984 64.7412 40.5923 64.811 40.5861C69.461 40.149 74.1397 39.8987 78.8041 40.0279C79.8589 40.0567 80.9095 40.1039 81.9623 40.1757C87.7799 40.5656 93.5401 41.8522 99.1485 43.4057C104.812 44.9776 110.47 46.6993 115.879 49.0058C121.453 51.3821 127.012 54.0108 132.084 57.3393C134.58 58.9769 136.993 60.7314 139.365 62.5516C141.791 64.4128 144.27 66.2536 146.552 68.2892C152.26 73.3702 157.155 79.3335 161.177 85.8304C163.264 89.2 165.115 92.7131 166.724 96.3166C167.097 97.1538 167.471 97.9952 167.834 98.8447L167.836 98.8509C171.954 108.327 175.539 118.233 176.857 128.508C177.234 131.44 177.296 134.442 176.97 137.385C176.857 138.38 176.676 140.514 175.878 141.737Z" fill="#0B5648"/>
</g>
<path d="M145.201 150.229L145.197 150.227C145.092 150.373 144.979 150.518 144.865 150.658C143.668 150.824 142.466 150.974 141.263 151.101C137.522 151.501 133.746 151.776 129.975 151.94C130.024 151.776 130.065 151.604 130.094 151.532L130.098 151.522C130.264 151.132 130.545 150.771 130.763 150.405C131.407 149.345 132.045 148.271 132.667 147.188C133.849 145.144 135 143.08 136.108 140.995C139.026 135.534 141.735 129.969 144.321 124.346C146.902 118.727 149.268 113.021 151.887 107.425C154.185 102.504 156.467 97.5972 158.632 92.6168C159.352 90.9648 160.07 89.2985 160.631 87.5809C160.797 87.0679 161.01 86.4605 161.177 85.8305C163.263 89.2 165.117 92.7132 166.723 96.3167C167.099 97.156 167.47 97.9973 167.833 98.8469L167.836 98.851C167.68 99.6677 167.499 100.478 167.306 101.283C166.725 103.712 166.153 106.148 165.435 108.537C163.848 113.802 161.753 118.873 159.601 123.921C155.669 133.139 151.361 142.281 145.201 150.229ZM64.5973 40.6088C62.7914 42.5418 60.9856 44.4749 59.2865 46.5044C55.4224 51.1236 51.9893 56.0794 48.6054 61.068C42.4327 70.1793 36.5145 79.5799 32.6073 89.8895C32.5458 90.0517 32.4842 90.2138 32.4268 90.3759C34.602 94.5929 37.0994 98.6601 39.6419 102.649C39.6891 102.725 39.7424 102.803 39.7917 102.879C39.8102 102.838 39.8307 102.801 39.8471 102.762C39.8963 102.672 39.9415 102.576 39.9887 102.485C40.5592 101.355 41.1399 100.23 41.7309 99.1075C42.9457 96.8153 44.1893 94.5355 45.4698 92.2802C48.8291 86.3641 52.3833 80.5669 56.0565 74.8437C59.7215 69.1286 63.5815 63.5449 67.2116 57.8093C70.4067 52.7735 73.5977 47.7582 76.9098 42.7983C77.5295 41.8708 78.1533 40.9371 78.8038 40.028C74.1395 39.8987 69.4607 40.1511 64.8107 40.5862C64.7409 40.5944 64.667 40.6006 64.5973 40.6088ZM148.394 92.1058C147.776 92.7071 146.759 93.1749 145.513 92.4567C145.429 92.4095 145.398 92.3479 145.406 92.2946C145.369 92.2864 145.328 92.2638 145.291 92.2289C145.185 92.1243 145.078 92.0237 144.965 91.9211C143.931 93.337 142.745 94.6278 141.477 95.7257C140.943 96.1915 140.372 96.764 139.603 96.7127C138.952 96.6696 138.415 96.4336 137.974 95.9493C137.787 95.7421 137.67 95.5328 137.621 95.3214C137.368 94.3857 138.257 93.4458 138.946 92.8261C140.085 91.8103 140.984 90.5339 141.772 89.2041C140.295 88.055 138.737 86.9715 137.147 85.9249C136.636 86.6842 136.106 87.4291 135.552 88.1453C134.807 89.1241 134.003 90.0763 133.063 90.8745C132.501 91.3527 131.904 91.7816 131.136 91.7692C129.687 91.7508 129.56 89.6494 130.09 88.724C131.099 86.9448 132.343 85.2703 133.521 83.5876C132.854 83.1628 132.189 82.7401 131.53 82.3174C130.293 81.5191 129.055 80.7311 127.808 79.9451L126.86 81.6114C125.996 83.1259 124.988 85.5617 123.281 86.3148C122.222 86.7868 121.241 85.6027 121.296 84.6075C121.352 83.6368 121.854 82.775 122.333 81.9541C122.971 80.8563 123.459 79.6866 123.98 78.5272C124.091 78.2809 124.202 78.0306 124.311 77.7781C122.835 76.8711 121.352 75.9764 119.854 75.1022C119.443 75.921 119.004 76.7234 118.555 77.5196C118.052 78.4081 117.586 79.3624 116.948 80.1606C116.293 80.9814 114.736 82.3481 113.632 81.3775C112.269 80.1729 113.556 78.1763 114.126 76.9224C114.742 75.566 115.286 74.1747 115.893 72.8183L115.821 72.7752C113.784 71.6281 111.734 70.5117 109.663 69.4303C109.544 69.5903 109.429 69.7524 109.318 69.9125C108.586 70.9509 107.824 71.9625 107.209 73.0748C106.745 73.9038 106.261 74.7759 105.454 75.3177C104.625 75.8718 103.107 75.6317 102.973 74.4804C102.752 72.6274 104.336 70.5199 105.198 69.0055L106.012 67.5772C103.997 66.5717 101.966 65.6072 99.9177 64.6838C99.1338 66.426 98.3725 68.199 97.4306 69.8509C96.9032 70.7744 95.0317 71.7368 94.2766 70.5015C93.8764 69.8448 93.9359 69.1143 94.0611 68.3858C94.2745 67.1709 94.6829 65.991 95.1425 64.85C95.399 64.2098 95.674 63.5716 95.9695 62.9395C94.2253 62.1823 92.4625 61.4395 90.6977 60.7335C90.119 61.8807 89.6306 63.0729 89.3885 64.3185C89.1669 65.4287 88.6805 67.0478 87.1969 66.7441C86.5566 66.6107 86.0785 66.268 85.7112 65.7324C85.272 65.0922 85.4752 64.3124 85.6024 63.6167C85.8651 62.1659 86.2878 60.7028 86.8501 59.2807C85.8322 58.9133 84.8103 58.5665 83.7904 58.2382C83.6078 58.1828 83.5934 58.0022 83.7124 57.9714C83.4723 57.6862 83.1091 57.4174 82.906 57.1137C82.6987 56.7976 82.7603 56.3749 82.8054 56.104C82.9265 55.355 83.1789 54.5958 83.9176 54.2202C85.313 53.5123 87.5047 53.9699 89.3864 54.5321C90.0636 53.5595 90.8147 52.6545 91.6314 51.8439C92.6575 50.8261 93.9072 50.1037 95.3929 50.2371C96.5503 50.3438 97.0346 51.1872 96.893 52.2174C96.9135 52.2461 96.9237 52.2872 96.9196 52.3282C97.0017 52.4267 96.9586 52.6381 96.7821 52.6606C96.7288 52.6689 96.6775 52.675 96.6262 52.6812C95.8854 53.4199 95.0687 54.0786 94.4346 54.922C94.1555 55.2976 93.8743 55.6608 93.5994 56.0343C94.4818 56.379 95.358 56.7381 96.2342 57.0849C97.0079 57.3907 97.7774 57.7026 98.551 58.0207C99.0046 57.2758 99.5032 56.5576 100.041 55.8722C100.427 55.3797 100.856 54.9261 101.305 54.4911C101.465 54.3434 101.822 54.1607 101.937 54.0437C101.97 54.0068 102.013 53.9863 102.052 53.9863C102.208 53.8447 102.393 53.7257 102.629 53.6415C103.156 53.4527 103.837 53.3994 104.213 53.9124C105.153 55.1786 104.709 56.3934 103.893 57.6103C103.419 58.3182 102.955 59.0201 102.518 59.7321C104.153 60.4647 105.774 61.2322 107.381 62.0387C107.845 62.2706 108.309 62.5045 108.768 62.7405L109.244 61.9073C109.61 61.2671 109.977 60.6289 110.387 60.0153C110.568 59.7465 110.781 59.3792 111.063 59.1452C111.085 58.8456 111.391 58.7779 111.787 58.6281C112.337 58.4208 112.891 58.8826 113.215 59.2581C114.243 60.475 113.909 62.25 113.338 63.5736C113.16 63.9923 112.957 64.4047 112.737 64.811C114.648 65.8309 116.55 66.8713 118.436 67.9302C118.992 66.9021 119.546 65.8699 120.11 64.85C120.047 64.8008 120.02 64.7166 120.079 64.6263C120.225 64.417 120.385 64.2118 120.568 64.023L120.625 63.9204C120.66 63.8609 120.714 63.8301 120.767 63.826C121.454 63.2043 122.324 62.8882 123.209 63.5182C124.422 64.3842 123.747 66.1531 123.301 67.2099C122.907 68.1457 122.47 69.0588 122.054 69.9823C122.491 70.2326 122.928 70.485 123.365 70.7395C124.5 71.4003 125.643 72.0631 126.777 72.7423C126.968 72.4304 127.171 72.1267 127.387 71.8333C128.234 70.6759 129.589 69.4795 131.163 69.7483C131.651 69.8345 132.33 70.0767 132.433 70.6554C132.507 71.0699 132.605 71.3654 132.357 71.5398C132.298 71.903 132.09 72.2745 131.951 72.5659C131.633 73.2328 131.272 73.8751 130.906 74.5133L130.598 75.055C132.564 76.2719 134.508 77.5237 136.398 78.8247C136.716 78.207 137.023 77.5729 137.329 76.9306C137.961 75.607 138.78 74.6077 140.344 74.7677C140.98 74.8334 141.282 75.447 141.388 75.9969C141.431 76.2411 141.425 76.4607 141.384 76.6639C141.405 76.6967 141.411 76.7459 141.394 76.7972C141.351 76.9553 141.378 77.3554 141.327 77.5668C141.185 78.1763 141.013 78.7775 140.785 79.3603C140.522 80.0354 140.229 80.6983 139.898 81.3447C141.327 82.4261 142.716 83.5507 144.042 84.7203C144.181 84.3818 144.319 84.0411 144.46 83.7005C144.867 82.7216 145.014 81.6874 145.273 80.6736C145.252 80.6264 145.232 80.5751 145.211 80.5279C145.139 80.3638 145.3 80.2201 145.429 80.2406C145.46 80.216 145.501 80.2037 145.536 80.2058C146.35 79.5594 147.323 79.547 148 80.4889C148.872 81.6976 148.889 83.1402 148.534 84.5418C148.255 85.654 147.863 86.756 147.374 87.8272C147.865 88.3443 148.306 88.8697 148.646 89.4053C149.346 90.5072 149.098 91.4183 148.394 92.1058ZM138.909 96.173C138.692 96.0109 138.478 95.8611 138.265 95.7236C138.3 95.7606 138.341 95.7975 138.386 95.8344C138.556 95.9863 138.733 96.0991 138.909 96.173Z" fill="#087661"/>
<path d="M174.31 143.492C174.152 143.677 173.99 143.855 173.817 144.028C172.754 144.35 171.716 144.762 170.634 145.025C169.227 145.361 167.817 145.704 166.411 146.047C163.542 146.749 160.696 147.565 157.823 148.243C153.543 149.248 149.217 150.067 144.864 150.658C143.668 150.824 142.465 150.974 141.263 151.101C137.522 151.501 133.746 151.776 129.974 151.94C128.019 152.024 126.063 152.08 124.112 152.105C118.553 152.172 112.973 151.889 107.49 150.918C96.2033 148.916 85.0133 145.456 75.151 139.517C65.2743 133.576 56.9223 125.713 49.7339 116.745C46.1714 112.306 42.8614 107.671 39.7915 102.879C39.7423 102.803 39.6889 102.725 39.6417 102.649C37.0992 98.6621 34.6018 94.5928 32.4266 90.3758C31.9197 89.4031 31.4354 88.4181 30.9696 87.427C28.5379 82.2516 26.3011 76.8813 24.522 71.4412C22.7941 66.1551 21.4561 60.6904 21.0847 55.1251C21.0847 55.1025 21.0806 55.0779 21.0786 55.0574C21.0724 54.9548 21.1319 54.8953 21.2078 54.8768C21.3146 54.8501 21.4479 54.9076 21.4582 55.0533C21.8378 60.8238 23.2517 66.5306 25.1089 71.9973C27.0111 77.6057 29.2828 83.1976 31.9095 88.5084C32.1393 88.9722 32.3712 89.4319 32.6072 89.8915C34.8234 94.2132 37.3557 98.4056 39.9885 102.485C40.2348 102.875 40.4851 103.263 40.7375 103.647C43.9408 108.553 47.374 113.32 51.1088 117.837C58.5414 126.823 67.1909 134.701 77.4247 140.399C82.5405 143.246 87.956 145.491 93.5602 147.182C99.1172 148.864 104.871 150.27 110.634 151.015C116.342 151.758 122.107 151.856 127.851 151.618C128.602 151.587 129.351 151.555 130.098 151.522C135.08 151.286 140.054 150.945 144.992 150.26C145.059 150.249 145.129 150.241 145.197 150.229H145.201C150.953 149.422 156.555 148.15 162.174 146.712C165.067 145.975 168.018 145.39 170.893 144.573C172.032 144.243 173.15 143.755 174.31 143.492ZM29.1761 49.3752C30.3663 49.0366 31.6591 49.0612 32.8657 48.737C33.9349 48.4517 35.0122 48.2855 36.1203 48.2937C37.2572 48.304 38.4084 48.0249 39.5206 47.8135C42.0221 47.3375 44.6816 47.28 47.2201 47.1364C49.82 46.9886 52.4282 46.9455 55.0323 47.0194C60.103 47.161 65.2107 48.2178 69.9961 49.8862C72.3211 50.6967 74.6544 51.4991 76.9671 52.3384C77.4637 52.519 83.23 54.8891 83.2752 54.7722C83.2567 54.8214 83.2608 54.8625 83.2752 54.8973C83.2916 54.8727 83.308 54.846 83.3244 54.8235C83.3388 54.7927 83.347 54.7598 83.3634 54.7291C83.4044 54.649 83.4516 54.5752 83.507 54.5074C83.3347 54.4254 83.1479 54.4172 82.9427 54.3679C82.4071 54.2366 81.8962 53.9103 81.4078 53.664C80.4351 53.1715 79.3618 52.8186 78.344 52.4225C75.9513 51.4929 73.4806 50.7583 71.0694 49.8759C66.407 48.1727 61.4164 46.9537 56.4421 46.6952C51.3632 46.4304 46.2679 46.73 41.2136 47.2287C40.0316 47.3457 38.8865 47.5591 37.7148 47.7561C36.5636 47.9469 35.4144 47.8792 34.2611 48.0475C32.9765 48.2342 31.7535 48.6487 30.4586 48.8068C29.8492 48.8827 29.211 49.0674 28.5728 49.2131C28.3286 49.3752 28.0905 49.5414 27.8586 49.7179C28.3039 49.6235 28.739 49.4983 29.1761 49.3752ZM152.309 96.0601C154.136 98.2107 155.987 100.312 157.7 102.559C160.899 106.751 163.809 111.026 166.266 115.703C168.687 120.307 170.54 125.122 172.52 129.922C173.532 132.378 174.564 134.828 175.375 137.362C175.748 138.532 176.072 139.71 176.434 140.873C176.514 140.72 176.594 140.564 176.67 140.408C176.319 139.254 176.003 138.087 175.633 136.929C174.825 134.401 173.766 131.959 172.756 129.507C170.805 124.779 168.964 120.057 166.596 115.512C164.209 110.932 161.359 106.756 158.244 102.651C156.652 100.552 154.971 98.5472 153.241 96.5608C152.445 95.6476 151.671 94.7139 150.893 93.7823C150.249 93.0066 149.379 92.4771 148.64 91.8C148.583 91.8738 148.515 91.9354 148.439 91.9867C148.419 92.0195 148.394 92.0483 148.365 92.0749C148.849 92.5449 149.387 92.9614 149.91 93.3965C150.832 94.1599 151.54 95.1531 152.309 96.0601ZM90.6504 60.8299C90.6114 61.0146 90.9048 61.1131 91.0054 60.9407C91.898 59.3955 92.9138 57.9283 93.8147 56.3872C93.9747 56.3769 94.0753 56.1368 93.8988 56.0362C93.8742 56.0219 93.8495 56.0075 93.8249 55.9932C93.7736 55.9644 93.7264 55.9624 93.6833 55.9767H93.6813C93.6731 55.9788 93.6669 55.9849 93.6587 55.987C93.6218 56.0034 93.5869 56.028 93.5664 56.065C92.6881 57.5835 91.6908 59.0302 90.8022 60.5426C90.6565 60.5529 90.5416 60.715 90.6504 60.8299ZM86.4395 59.3811C86.4292 59.4058 86.4189 59.4324 86.4087 59.4591C86.3882 59.5125 86.4128 59.6048 86.4579 59.6397C86.4805 59.6561 86.501 59.6746 86.5236 59.691C86.6426 59.7833 86.7904 59.7505 86.8437 59.6048C87.2254 58.5418 87.6769 57.4973 88.2843 56.5411C88.6598 55.9501 89.1523 55.3898 89.4047 54.727C89.4909 54.4992 89.1215 54.4069 89.0354 54.6347C88.7768 55.316 88.2309 55.9172 87.8431 56.5287C87.3055 57.3742 86.9135 58.3223 86.5667 59.2642C86.5133 59.2806 86.4641 59.3155 86.4395 59.3811ZM97.0693 59.8818C97.2909 59.4714 97.5002 59.0467 97.767 58.665C97.8757 58.509 97.9886 58.3202 98.1343 58.1991C98.1897 58.154 98.2184 58.1253 98.2348 58.1109C98.2082 57.9693 98.4113 57.8195 98.5652 57.9385C98.5858 57.957 98.6083 57.9734 98.6309 57.9898C98.676 58.0268 98.7027 58.1171 98.6802 58.1704C98.5693 58.4515 98.2697 58.5849 98.0974 58.8517C97.8737 59.2026 97.6726 59.5658 97.4735 59.9311C96.9646 60.871 96.2238 61.9093 96.1397 62.9949C96.1294 63.1344 95.9899 63.237 95.8565 63.1611C95.8298 63.1447 95.8011 63.1303 95.7744 63.1139C95.68 63.0605 95.6595 62.9497 95.7026 62.8553C95.7149 62.7897 95.7252 62.724 95.7375 62.6563C95.7375 62.5701 95.7847 62.5167 95.8442 62.49C96.0596 61.5605 96.6219 60.7088 97.0693 59.8818ZM98.2964 58.2073C98.28 58.195 98.2718 58.1807 98.2615 58.1684C98.2677 58.1807 98.2779 58.195 98.2964 58.2073ZM101.116 62.0776C100.64 62.7855 100.234 63.5222 100.006 64.339C99.9853 64.3554 99.9689 64.3759 99.9545 64.4046C99.8745 64.5832 99.8642 64.6304 99.9442 64.8069C100.014 64.9587 100.26 64.9136 100.293 64.7576C100.488 63.8342 100.935 63.0482 101.446 62.2643C101.947 61.4989 102.314 60.6842 102.751 59.8818C102.871 59.6664 102.54 59.4776 102.423 59.6931C101.984 60.4954 101.627 61.3183 101.116 62.0776ZM106.15 67.7188C106.183 67.6654 106.213 67.61 106.244 67.5546C106.252 67.5382 106.254 67.5259 106.258 67.5094C107.038 65.9499 107.988 64.4334 108.877 62.9374C109.002 62.726 108.672 62.5393 108.547 62.7486C107.619 64.3123 106.618 65.8965 105.821 67.532C105.715 67.7495 106.029 67.9342 106.15 67.7188ZM110.061 69.6231C110.549 69.4117 110.919 68.4042 111.198 67.9958C111.84 67.058 112.437 66.0586 113.012 65.0757C113.135 64.8643 112.805 64.6755 112.682 64.8869C112.218 65.679 111.701 66.4383 111.237 67.2304C111.005 67.6264 110.738 67.9958 110.486 68.3775C110.346 68.5868 110.118 69.188 109.872 69.2927C109.646 69.3912 109.839 69.7175 110.061 69.6231ZM115.598 73.0973C115.961 73.1999 115.938 72.8059 116.045 72.5945C116.065 72.5535 116.067 72.5145 116.061 72.4796C116.773 70.9631 117.6 69.5082 118.501 68.0963C118.633 67.8891 118.302 67.7023 118.171 67.9075C117.167 69.4856 116.244 71.1108 115.481 72.8202C115.429 72.9331 115.47 73.0624 115.598 73.0973ZM119.595 75.1022C119.65 75.2561 119.675 75.2971 119.802 75.3935C119.907 75.4715 120.048 75.3792 120.081 75.2745C120.648 73.4974 121.427 71.8004 122.341 70.1751C122.46 69.9617 122.131 69.7729 122.01 69.9863C121.134 71.5479 120.385 73.1793 119.819 74.8785C119.691 74.8518 119.542 74.9441 119.595 75.1022ZM124.118 77.8027C124.054 78.01 124.362 78.1269 124.467 77.9422C124.53 77.8335 124.592 77.7227 124.655 77.6139C124.692 77.5482 124.684 77.4867 124.655 77.4354C124.939 76.7028 125.322 76.0235 125.725 75.3422C126.203 74.5317 126.591 73.6801 127.04 72.8551C127.157 72.6397 126.829 72.4509 126.712 72.6663C126.26 73.4913 125.872 74.3429 125.394 75.1535C124.891 76.0071 124.415 76.8526 124.118 77.8027ZM128.002 79.9943C127.91 80.0005 127.818 80.06 127.812 80.179C127.807 80.2488 127.803 80.3206 127.799 80.3904C127.789 80.5853 128.064 80.6387 128.154 80.4827C128.618 79.6824 129.106 78.9006 129.562 78.0961C130.065 77.2117 130.393 76.2595 130.857 75.3587C130.97 75.1411 130.639 74.9523 130.526 75.1699C130.116 75.9661 129.812 76.8074 129.398 77.6057C128.973 78.4224 128.474 79.2022 128.002 79.9943ZM133.354 83.6429C133.362 83.6532 133.371 83.6634 133.381 83.6717C133.463 83.764 133.621 83.7353 133.678 83.6327C134.187 82.74 134.7 81.8535 135.263 80.9937C135.726 80.2837 136.256 79.6762 136.508 78.8493C136.578 78.6153 136.211 78.5209 136.139 78.7549C135.87 79.6455 135.244 80.3268 134.746 81.0922C134.271 81.8186 133.845 82.5779 133.414 83.331C133.408 83.3351 133.401 83.3413 133.395 83.3454C133.295 83.4213 133.266 83.5444 133.354 83.6429ZM137.13 86.1239C137.153 86.1403 137.175 86.1588 137.198 86.1752C137.292 86.2491 137.43 86.2532 137.495 86.1362C138.38 84.5992 139.328 83.1012 140.21 81.5642C140.333 81.3528 140.003 81.164 139.882 81.3774C139.038 82.8426 138.138 84.2729 137.29 85.736C137.216 85.7422 137.144 85.7812 137.112 85.8653C137.101 85.892 137.091 85.9166 137.081 85.9433C137.06 85.9967 137.085 86.089 137.13 86.1239ZM142.566 86.7826C142.055 87.4824 141.762 88.2355 141.339 88.9763C141.218 89.1877 141.548 89.3764 141.669 89.163C141.684 89.1384 141.698 89.1117 141.714 89.0871C141.714 89.085 141.714 89.085 141.714 89.083C142.262 88.1165 142.72 87.1848 143.411 86.2881C143.736 85.8653 144.21 85.1697 144.093 84.6074C144.046 84.3673 143.678 84.4679 143.727 84.708C143.857 85.3359 142.907 86.3188 142.566 86.7826ZM144.776 91.7056C144.772 91.7138 144.768 91.722 144.766 91.7302C144.864 91.841 144.953 91.958 145.02 92.0893C145.024 92.0831 145.033 92.0811 145.037 92.0729C145.453 91.3157 145.819 90.5564 146.344 89.8628C146.822 89.2287 147.284 88.6233 147.536 87.8682C147.612 87.6363 147.245 87.5419 147.167 87.7738C146.906 88.5618 146.366 89.2164 145.866 89.8648C145.488 90.3553 145.213 90.9155 144.928 91.4655C144.897 91.4573 144.866 91.4573 144.834 91.4634C144.827 91.5434 144.809 91.6255 144.776 91.7056ZM161.306 133.993C158.646 132.657 155.843 131.559 153.118 130.363C150.304 129.127 147.505 127.865 144.737 126.529C139.143 123.831 133.598 121.038 127.98 118.391C122.404 115.766 116.86 113.016 111.454 110.055C108.739 108.568 106.142 106.879 103.414 105.413C100.716 103.963 97.9373 102.664 95.2614 101.17C89.7659 98.104 84.3217 94.9355 78.8919 91.7548C73.4785 88.5823 68.1062 85.34 62.8118 81.9705C57.5359 78.6133 52.4241 75.0139 47.2139 71.5582C42.5454 68.4616 37.7661 65.5066 33.19 62.2766C30.947 60.6965 28.8416 58.9379 26.6992 57.2244C25.1109 55.9521 23.9043 54.2879 22.4719 52.8514C22.4288 52.915 22.3837 52.9786 22.3426 53.0443C22.318 53.0853 22.2893 53.1202 22.2585 53.1551C23.8571 54.7168 25.2238 56.5062 26.9701 57.9283C29.2315 59.7669 31.5052 61.5871 33.9082 63.2391C39.0446 66.7666 44.3348 70.0766 49.5122 73.5446C54.7143 77.0291 59.8568 80.5771 65.1655 83.9056C70.4845 87.2423 75.8856 90.4497 81.3134 93.6058C86.7227 96.7516 92.1094 100.008 97.6644 102.889C100.39 104.301 103.148 105.641 105.803 107.189C108.487 108.752 111.149 110.314 113.892 111.767C119.338 114.652 124.867 117.385 130.463 119.965C136.116 122.571 141.616 125.501 147.251 128.144C152.246 130.486 157.448 132.427 162.352 134.951C164.767 136.193 167.142 137.51 169.571 138.727C171.638 139.763 173.774 140.652 175.877 141.608C175.953 141.501 176.031 141.399 176.118 141.3C173.778 140.227 171.404 139.23 169.106 138.068C166.487 136.745 163.928 135.31 161.306 133.993Z" fill="#0B5648"/>
</g>
<defs>
<clipPath id="clip0_935_431">
<rect width="197" height="197" rx="98.5" fill="white"/>
</clipPath>
</defs>
</svg>
