<svg width="197" height="197" viewBox="0 0 197 197" fill="none" xmlns="http://www.w3.org/2000/svg">
<g clip-path="url(#clip0_935_298)">
<path d="M216.7 -19.7H-19.7002V216.7H216.7V-19.7Z" fill="white"/>
<path d="M216.7 -19.7H-19.7002V216.7H216.7V-19.7Z" fill="#0B5648"/>
<path d="M2.8524 180.83C5.55499 186.284 8.26169 191.724 11.0423 197.105H0V174.897C0.960375 176.941 1.90844 178.923 2.8524 180.83ZM47.2595 100.554C42.7593 95.6969 33.2827 93.3452 27.2476 91.5045C18.2964 88.7732 9.16255 86.7704 0 84.8681V89.947C3.09044 90.655 6.16446 91.4245 9.21796 92.2905C23.9027 96.4583 33.8635 104.451 38.3247 118.892C43.8879 136.901 39.874 159.336 40.8713 178.008C41.2612 185.295 41.7024 190.548 43.775 197.105H53.7666C54.0683 189.553 54.6613 182.008 55.1354 174.561C56.2456 157.157 58.0083 139.218 55.1662 121.886C54.0478 115.048 52.1701 105.855 47.2595 100.554ZM83.8543 114.26C82.4794 96.3864 71.6588 88.9989 55.4063 83.7005C37.35 77.813 18.4585 74.9709 0 70.5569V78.8329C14.6457 82.1409 29.4187 84.9748 43.6806 89.6638C59.8449 94.9767 69.5738 101.293 71.6608 119.004C73.7868 137.053 70.013 155.722 67.2776 173.508C66.2187 180.395 64.6263 188.587 63.4525 197.105H71.3735C72.9721 186.555 75.5064 176.272 77.1132 168.185C80.5894 150.672 85.2374 132.242 83.8543 114.26ZM93.4868 143.49C97.0779 124.834 102.491 104.486 99.877 85.3565C97.2934 66.4404 82.7626 64.6038 66.783 59.8039C47.1589 53.9063 21.5161 48.9854 0 39.1189V55.5397C19.7041 61.4661 40.0957 64.7946 59.8367 70.5876C75.6911 75.2377 89.4462 79.7379 91.882 97.8804C94.4471 116.959 89.1076 137.227 85.4693 155.823C83.3146 166.839 79.3233 182.289 78.2541 197.105H85.7525C85.0814 178.784 90.7883 157.508 93.4868 143.49ZM108.217 122.91C112.023 104.745 119.101 82.3748 114.597 63.7357C110.531 46.9107 92.3684 49.3896 78.5004 44.6904C49.9436 35.0148 27.8776 13.9419 1.75453 0.104736H0V18.4709C22.5544 32.0865 46.7259 43.0282 71.8373 51.0087C87.5234 55.9932 104.547 55.3325 107.482 74.6364C110.371 93.6264 104.644 114.157 100.985 132.653C97.6566 149.488 89.8751 176.764 93.772 197.105H102.99C93.3267 176.416 104.182 142.16 108.217 122.91ZM137.859 194.236C97.0081 186.001 116.349 132.509 122.852 105.173C126.774 88.687 133.745 68.6402 130.393 51.5874C128.967 44.321 126.062 41.0417 118.766 39.5129C108.451 37.35 98.5164 37.9534 88.5064 33.6891C72.5535 26.8906 63.9347 13.669 54.53 0.104736H32.8764C36.1351 2.73551 39.3425 5.64741 42.5807 8.8384C54.4787 20.562 66.1181 31.9367 81.8884 38.2817C96.1996 44.0419 119.054 39.6833 122.46 58.2095C125.766 76.1878 119.281 96.4747 115.417 113.893C110.254 137.176 96.2407 179.693 116.774 197.105H197V192.233C177.476 192.194 156.459 197.987 137.859 194.236ZM153.82 175.724C111.356 168.041 132.082 114.839 139.373 87.1356C143.24 72.4468 152.008 50.9348 147.481 35.5216C145.372 28.3394 141.356 27.7237 134.397 27.4734C122.154 27.0281 109.799 27.5062 98.7852 21.1509C89.9613 16.0597 85.4405 8.54085 82.4096 0.104736H69.9124C74.9934 11.2168 80.9424 21.5531 92.6187 27.5616C97.6792 30.1678 103.185 31.6494 108.762 32.622C115.253 33.7527 123.48 32.4189 129.575 34.0606C135.226 35.5812 137.619 38.9014 138.758 44.6637C142.002 61.0803 134.699 80.6859 130.751 96.3967C123.749 124.243 103.766 177.462 146.088 185.026C161.105 187.71 179.471 183.846 197 182.703V175.026C182.699 176.251 167.959 178.283 153.82 175.724ZM176.543 158.037C160.77 155.402 153.239 147.968 152.749 131.641C152.102 110.045 159.371 88.0591 164.513 67.3454C168.49 51.3227 175.851 30.5782 171.464 13.9317C169.463 6.33897 165.529 3.84774 158.056 3.1685C147.621 2.21838 137.551 3.27726 127.713 0.104736H97.4883C100.103 4.40385 103.69 8.16532 108.849 11.0608C122.111 18.5058 135.07 14.6109 149.106 16.5686C154.561 17.3299 157.604 19.2343 159.11 24.7995C163.379 40.5862 154.565 61.7555 150.459 76.7501C145.082 96.3823 137.756 117.332 137.978 137.927C138.159 154.756 146.716 163.434 163.007 166.41C174.14 168.441 185.648 167.633 197 166.691V158.55C189.732 159.02 182.789 159.082 176.543 158.037ZM185.716 118.652C182.416 97.8783 188.742 73.7068 190.167 52.911C191.334 35.8438 193.243 16.1418 185.872 0.104736H177.13C178.24 1.63149 179.194 3.42911 179.962 5.55917C185.952 22.1852 180.741 43.0713 177.823 59.8019C174.306 79.9595 169.233 100.63 169.997 121.227C170.629 138.278 176.184 147.633 193.325 150.254C194.533 150.438 195.758 150.584 197 150.695V126.833C191.644 128.138 186.785 125.382 185.716 118.652ZM192.719 0.104736C194.511 3.94008 195.904 7.9519 197 12.0684V0.104736H192.719ZM0 99.1896V146.394C19.5071 166.586 23.8308 197.105 23.8308 197.105H36.5394C36.5394 197.105 31.4913 182.9 31.4892 163.799C31.8155 104.457 0 99.1896 0 99.1896Z" fill="#0C776D"/>
</g>
<defs>
<clipPath id="clip0_935_298">
<rect width="197" height="197" rx="98.5" fill="white"/>
</clipPath>
</defs>
</svg>
