<svg width="197" height="197" viewBox="0 0 197 197" fill="none" xmlns="http://www.w3.org/2000/svg">
<g clip-path="url(#clip0_935_697)">
<path d="M216.7 -19.7H-19.7002V216.7H216.7V-19.7Z" fill="#0B5648"/>
<path d="M216.7 -19.7H-19.7002V216.7H216.7V-19.7Z" fill="#F8F2EC"/>
<path d="M98.5003 141.194C99.5797 141.194 100.503 140.424 100.503 139.345C100.503 138.265 99.7336 137.342 98.6542 137.342C97.5748 137.342 96.6514 138.111 96.6514 139.191C96.6514 140.27 97.4209 141.04 98.5003 141.194Z" fill="#0B5648"/>
<mask id="mask0_935_697" style="mask-type:luminance" maskUnits="userSpaceOnUse" x="59" y="33" width="91" height="72">
<path d="M59.8877 33.6091H149.72V104.016H59.8877V33.6091Z" fill="white"/>
</mask>
<g mask="url(#mask0_935_697)">
<path d="M135.029 37.4629H143.352L100.195 85.7074L82.9328 73.6843C82.0073 73.0666 80.9279 73.2225 80.3123 74.146L60.7374 100.503C60.1198 101.428 60.2757 102.508 61.1992 103.277C61.507 103.585 61.9708 103.585 62.4325 103.585C63.0501 103.585 63.6658 103.277 63.9736 102.816L82.469 77.8459L99.4254 89.869C100.195 90.4847 101.274 90.3308 102.044 89.5592L145.973 40.2374V47.3273C145.973 48.4067 146.744 49.1762 147.822 49.1762C148.901 49.1762 149.673 48.2528 149.673 47.3273V35.4601C149.673 34.3807 148.747 33.6091 147.822 33.6091H134.875C133.796 33.6091 133.026 34.5346 133.026 35.4601C133.026 36.3835 133.95 37.4629 135.029 37.4629Z" fill="#0B5648"/>
</g>
<mask id="mask1_935_697" style="mask-type:luminance" maskUnits="userSpaceOnUse" x="39" y="57" width="119" height="107">
<path d="M39.4004 57.7866H157.6V163.235H39.4004V57.7866Z" fill="white"/>
</mask>
<g mask="url(#mask1_935_697)">
<path d="M157.532 63.2021C157.532 60.2738 155.222 57.9631 152.447 57.9631H136.724C135.647 57.9631 134.875 58.8866 134.875 59.8121C134.875 60.7376 135.801 61.661 136.724 61.661H152.291C153.063 61.661 153.525 62.2787 153.525 63.0482V130.096H146.898V73.8381C146.898 72.7587 145.973 71.9891 145.047 71.9891H133.95C132.872 71.9891 132.101 72.9126 132.101 73.8381V130.25H123.778V108.672C123.778 107.593 122.852 106.823 121.929 106.823H110.523C109.444 106.823 108.672 107.747 108.672 108.672V130.25H100.349V102.198C100.349 101.12 99.4255 100.349 98.5001 100.349H87.4024C86.323 100.349 85.5535 101.274 85.5535 102.198V130.25H77.2302V118.229C77.2302 117.149 76.3047 116.38 75.3792 116.38H64.1277C63.0503 116.38 62.2787 117.303 62.2787 118.229V130.25H43.3195V122.083H53.3399C54.4172 122.083 55.1888 121.157 55.1888 120.232C55.1888 119.308 54.2633 118.383 53.3399 118.383H43.3195V110.675H53.3399C54.4172 110.675 55.1888 109.752 55.1888 108.826C55.1888 107.901 54.2633 106.977 53.3399 106.977H43.3195V99.2695H53.3399C54.4172 99.2695 55.1888 98.3461 55.1888 97.4206C55.1888 96.4951 54.2633 95.5717 53.3399 95.5717H43.3195V87.864H53.3399C54.4172 87.864 55.1888 86.9386 55.1888 86.0151C55.1888 85.0896 54.2633 84.1641 53.3399 84.1641H43.3195V76.4586H53.3399C54.4172 76.4586 55.1888 75.5331 55.1888 74.6096C55.1888 73.5302 54.2633 72.7587 53.3399 72.7587H43.3195V63.9737C43.3195 63.2021 43.9372 62.5865 44.5528 62.5865H115.147C116.226 62.5865 116.995 61.661 116.995 60.7376C116.995 59.8121 116.072 58.8866 115.147 58.8866H44.7067C41.7784 58.8866 39.6217 61.1993 39.6217 64.1276L39.4678 142.119C39.6217 145.355 42.0883 147.822 45.3244 148.13H83.5486C83.5486 150.904 83.5486 155.529 83.3947 156.607C82.933 158.148 81.6996 159.227 80.1585 159.691H74.3019C73.2225 159.691 72.4509 160.615 72.4509 161.54C72.4509 162.465 73.3764 163.389 74.3019 163.389H122.852C123.932 163.389 124.703 162.465 124.703 161.54C124.703 160.615 123.778 159.691 122.852 159.691H116.688C115.147 159.227 114.067 158.148 113.759 156.607C113.605 155.529 113.605 150.904 113.452 148.13H152.601C155.683 148.13 157.532 145.201 157.532 142.273V63.2021ZM153.834 142.273C153.834 143.198 153.371 144.278 152.755 144.278H45.1705C44.0911 144.122 43.3195 143.198 43.1656 142.119V134.258H153.679V142.273H153.834Z" fill="#0B5648"/>
</g>
</g>
<rect x="2" y="2" width="193" height="193" rx="96.5" stroke="#0B5648" stroke-width="4"/>
<defs>
<clipPath id="clip0_935_697">
<rect width="197" height="197" rx="98.5" fill="white"/>
</clipPath>
</defs>
</svg>
