<svg width="197" height="197" viewBox="0 0 197 197" fill="none" xmlns="http://www.w3.org/2000/svg">
<g clip-path="url(#clip0_935_151)">
<path d="M216.7 -19.7H-19.7002V216.7H216.7V-19.7Z" fill="white"/>
<path d="M216.7 -19.7H-19.7002V216.7H216.7V-19.7Z" fill="#F8F2EC"/>
<path d="M54.3518 167.518C50.2476 168.065 46.521 167.928 43.0674 167.074L43.7507 164.304C49.0164 165.603 55.1377 165.057 62.4206 162.697C68.1664 160.815 72.2685 158.628 75.3138 155.72C77.844 153.293 79.929 150.112 81.468 146.215C85.2295 136.81 84.854 126.757 84.4764 116.053C84.306 111.096 84.1008 105.965 84.3738 100.973C85.367 82.7809 92.6149 65.2725 104.79 51.698L106.91 53.6126C95.18 66.709 88.1701 83.6017 87.2139 101.145C86.9389 106 87.1441 111.061 87.3165 115.951C87.692 126.449 88.1024 137.323 84.1008 147.274C82.3915 151.515 80.0993 155.072 77.2612 157.772C73.9102 160.988 69.4654 163.381 63.3112 165.398C60.1305 166.424 57.1549 167.142 54.3518 167.518Z" fill="#087661"/>
<path d="M86.1182 96.3924C91.4187 95.8445 99.5921 93.5523 103.183 89.6205C103.867 88.8674 104.482 87.9788 105.371 87.5007C106.362 86.9877 107.56 87.0226 108.687 87.1252C111.56 87.433 114.706 87.9788 117.133 86.4398C119.733 84.7653 120.724 81.0715 123.632 80.0455C125.102 79.5325 126.743 79.8403 128.317 79.8752C133.035 80.0127 137.72 77.3449 140.045 73.2059C138.541 74.6095 136.764 73.4111 134.882 72.5225C133.035 71.634 131.463 70.1975 129.649 69.2741C126.811 67.8376 123.324 67.7022 120.384 68.9314C117.306 70.1975 114.878 72.8652 111.697 73.7538C107.285 75.0199 102.087 72.8304 98.1906 75.258C95.0447 77.2423 94.1213 81.4819 91.351 83.9096C90.4953 84.6627 89.4364 85.2783 88.7182 86.1668C86.701 88.6622 86.4957 94.7835 86.1182 96.3924Z" fill="#E1D4C8"/>
<path d="M67.8583 160.988C66.9349 159.244 67.2776 157.089 68.0286 155.277C68.7817 153.43 69.8755 151.754 70.3885 149.839C70.9015 147.924 70.7641 145.667 69.3276 144.333C67.7906 142.897 65.2255 142.967 63.7193 141.495C62.2848 140.129 62.2151 137.802 62.6953 135.854C63.1734 133.905 64.0968 132.058 64.302 130.073C64.5401 127.748 63.6515 125.321 62.0099 123.679C59.4119 121.081 55 120.09 53.8385 116.601C52.9828 114.001 54.4541 111.198 54.0765 108.498C53.7359 105.898 51.5114 103.675 48.9135 103.3C47.3067 103.06 45.5624 103.47 44.0911 102.717C41.8009 101.556 41.5957 98.4097 40.2619 96.255C38.4499 93.3472 34.7561 92.391 31.4051 91.6727C32.4311 94.1352 32.7389 96.7332 32.2936 99.366C31.9858 101.248 31.3025 103.06 31.0624 104.974C30.8244 106.889 31.1999 108.976 32.6363 110.275C34.278 111.746 36.8759 111.711 38.6202 113.078C40.8775 114.857 40.8426 118.208 40.6046 121.081C40.3645 124.432 40.2619 128.229 42.6218 130.656C44.9119 132.981 49.051 133.494 50.1796 136.572C51.1708 139.205 49.2213 141.941 48.7083 144.676C48.1952 147.479 49.289 150.522 51.4786 152.369C52.8453 153.498 54.5218 154.148 56.1286 154.867C58.4536 155.926 60.6432 157.227 62.6953 158.731C64.575 160.065 65.601 161.193 67.8583 160.988Z" fill="#0B5648"/>
<path d="M91.5202 139.171C95.5567 137.939 99.6588 135.957 101.881 132.366C104.686 127.818 103.933 121.8 106.533 117.148C108.788 113.148 113.166 110.856 117.44 109.249C119.937 108.293 122.708 107.369 124.109 105.077C125.1 103.47 125.203 101.486 125.511 99.6064C126.777 92.4241 131.975 86.0298 138.78 83.397C140.832 82.5761 143.292 81.8928 144.183 79.8756C144.593 78.9522 144.593 77.9261 144.729 76.9678C145.515 72.1475 149.824 68.7964 153.826 65.9912C151.808 69.5475 151.158 73.8568 152.081 77.8235C152.662 80.4215 153.893 82.884 154.474 85.484C155.262 89.073 154.749 92.9043 153.04 96.1527C149.278 103.436 140.181 107.3 137.786 115.165C136.625 118.962 137.273 123.236 135.634 126.86C134.676 128.947 133.069 130.656 131.324 132.126C129.375 133.767 127.187 135.169 124.793 135.957C121.749 136.913 118.398 136.846 115.39 137.904C109.269 140.059 105.405 146.523 99.2484 148.505C94.2556 150.112 86.6301 148.608 82.1504 145.908C82.1853 145.873 89.6056 139.751 91.5202 139.171Z" fill="#0C776D"/>
<path d="M158.477 91.7074C160.426 94.7158 158.75 98.7501 156.562 101.588C152.425 107.026 146.407 111.368 144.525 117.935C143.466 121.697 143.944 125.731 143.944 129.663C143.944 133.597 143.329 137.836 140.558 140.641C138.028 143.239 134.267 144.06 130.848 145.257C127.051 146.59 123.325 148.642 120.965 151.926C119.186 154.353 118.195 157.397 115.904 159.311C114.536 160.475 112.826 161.09 111.15 161.706C106.535 163.313 101.677 164.679 96.857 163.961C93.4711 163.448 90.3252 161.909 87.0091 160.988C82.87 159.824 78.4601 159.654 74.2533 160.475L71.0049 160.783C76.3054 161.501 81.7414 162.287 86.2909 165.125C89.1966 166.972 91.5914 169.537 94.3945 171.519C102.671 177.298 114.844 176.717 122.537 170.185C124.761 168.306 126.573 166.013 128.831 164.201C136.421 158.08 147.603 157.977 155.023 151.686C160.392 147.138 163.024 139.58 161.623 132.673C161.077 130.04 159.981 127.51 159.879 124.808C159.641 118.721 164.358 113.523 165.249 107.504C166.17 101.52 162.479 96.2199 158.477 91.7074Z" fill="#0B5648"/>
<path d="M86.1183 117.353C84.7845 114.652 85.0246 111.472 84.9568 108.463C84.8871 105.453 84.3063 102.102 81.9464 100.257C79.8266 98.6152 76.7157 98.4778 74.9714 96.4934C72.7818 94.0329 73.7402 90.134 72.4063 87.1256C71.4151 84.8683 69.2256 83.3642 66.9354 82.4407C64.6433 81.5173 62.2157 81.0371 59.9255 80.1486C59.275 79.9105 58.5917 79.6027 58.1135 79.0897C57.1552 78.0636 57.1552 76.4897 56.95 75.0881C56.3344 71.0866 53.3589 67.4975 49.4948 66.1964C48.2984 65.786 47.0672 65.5808 45.8359 65.273C43.0328 64.5219 40.4328 63.0506 37.9026 61.6141C38.5531 64.0089 36.9114 66.9496 38.4505 68.9319C39.339 70.0605 40.7755 70.5407 41.8015 71.5319C43.3057 73.0011 43.5786 75.2933 43.6135 77.4131C43.6484 79.9782 43.476 82.5433 43.8187 85.0736C44.1943 87.6038 45.1875 90.1689 47.2047 91.7408C50.1802 94.1007 54.6927 93.8955 57.3953 96.5632C59.1724 98.3074 59.7532 100.905 61.1568 102.957C63.174 105.863 66.6276 107.402 69.9787 108.498C73.3646 109.592 76.886 110.446 79.7938 112.498C82.2891 114.242 83.2803 116.259 86.1183 117.353Z" fill="#087661"/>
<path d="M103.42 55.9375C103.83 53.7828 104.07 51.5953 104.651 49.5083C105.882 45.1661 109.096 41.1645 113.473 40.0708C115.868 39.4551 118.466 39.763 120.826 38.9421C124.417 37.7109 126.707 34.1546 130.128 32.5129C133.376 30.941 137.173 31.214 140.729 31.5218C141.48 31.5895 142.266 31.6593 143.019 31.5218C144.01 31.3515 144.866 30.8384 145.789 30.4629C149.311 28.9916 153.277 29.1619 157.109 29.402C155.432 29.4697 154.03 31.1791 153.142 32.6155C152.251 34.052 151.773 35.6937 150.917 37.165C149.584 39.4551 147.396 41.1994 144.901 42.0202C141.72 43.0463 138.061 42.6359 135.256 44.4479C132.385 46.2947 131.119 50.0562 128.111 51.7307C124.998 53.4421 121.168 52.3463 117.645 52.0385C112.209 51.5953 107.694 52.5187 103.42 55.9375Z" fill="#E1D4C8"/>
<path d="M91.453 76.5568C91.1103 73.7886 91.7957 70.9834 92.1035 68.2131C92.4092 65.4448 92.2389 62.3667 90.4269 60.212C88.6827 58.1271 85.6743 57.2713 84.203 54.9812C83.0743 53.237 83.1092 51.0145 82.4258 49.0651C81.4675 46.227 79.005 43.9349 76.0644 43.1838C74.7654 42.8411 73.3967 42.8062 72.1326 42.2932C69.7378 41.2671 68.4737 38.7041 66.4565 37.0953C64.8826 35.8312 62.8305 35.1807 60.8482 35.3182C61.669 36.6848 61.2586 38.0187 61.3612 39.6604C61.4638 41.7473 60.9159 43.7974 60.8133 45.8843C60.7107 47.9693 61.2237 50.2963 62.9003 51.4927C64.8477 52.8943 67.6878 52.4161 69.6701 53.7828C71.8597 55.289 72.1654 58.3651 72.0977 61.0328C72.03 63.7005 72.03 66.676 73.9097 68.5558C76.0993 70.7453 79.8956 70.3349 82.4258 72.112C83.3144 72.7276 83.9977 73.6162 84.8863 74.2318C87.2462 76.011 89.1608 74.8474 91.453 76.5568Z" fill="#0C776D"/>
<mask id="mask0_935_151" style="mask-type:luminance" maskUnits="userSpaceOnUse" x="86" y="17" width="21" height="42">
<path d="M86.6797 17.9802H106.117V58.8372H86.6797V17.9802Z" fill="white"/>
</mask>
<g mask="url(#mask0_935_151)">
<path d="M101.438 58.7756C102.054 56.5532 103.455 54.6735 104.549 52.6543C105.643 50.6371 106.464 48.2772 105.781 46.0897C105.097 43.9699 103.113 42.3631 102.702 40.1735C102.395 38.499 103.113 36.8225 103.215 35.148C103.388 32.6855 102.224 30.1881 100.242 28.7188C99.3513 28.0683 98.3253 27.5901 97.5393 26.8042C96.07 25.298 95.8977 22.9401 94.8716 21.0932C94.0857 19.6568 92.7169 18.5281 91.1799 17.9802C91.3851 19.2792 90.6669 20.1698 90.2216 21.4339C89.6409 23.0407 88.5799 24.4443 87.8617 25.9833C87.1435 27.5204 86.8028 29.437 87.6914 30.9063C88.7174 32.5829 91.0424 33.1287 92.1034 34.7704C93.2997 36.5824 92.5466 39.012 91.693 41.0292C90.8372 43.0464 89.8461 45.3037 90.6997 47.3209C91.693 49.6808 94.6664 50.5345 96.0352 52.6892C96.5133 53.4423 96.7534 54.2959 97.2315 55.0839C98.4279 57.0314 100.242 56.7584 101.438 58.7756Z" fill="#0C776D"/>
</g>
<path d="M150.749 71.1212C150.749 71.1212 150.749 71.156 150.714 71.156C150.133 71.8743 149.688 72.6602 149.382 73.4811C148.664 75.0201 148.151 76.6597 147.946 78.3712C147.911 78.4389 147.911 78.5066 147.911 78.5415C147.295 83.8071 146.201 89.9634 141.584 93.2118C140.901 93.5874 140.25 94.0655 139.669 94.5785C139.362 94.8186 139.019 95.0915 138.711 95.3316C138.506 95.4691 138.268 95.6395 138.063 95.8098C137.002 96.5957 136.078 97.5192 135.327 98.5801C134.506 99.7087 133.924 100.94 133.343 102.204C132.079 105.009 130.813 107.812 129.581 110.618C128.385 113.353 127.291 116.191 126.025 118.892C124.931 121.217 123.427 123.236 121.305 124.705C121.273 124.74 121.238 124.74 121.238 124.74C120.179 125.253 119.118 125.731 118.057 126.244C117.614 126.449 117.168 126.655 116.69 126.895C115.767 127.235 114.843 127.613 113.955 128.091C109.851 130.314 107.388 134.418 104.447 137.871C102.908 139.683 101.164 141.29 99.0792 142.486C97.3001 143.513 95.3527 144.198 93.3683 144.814C92.5126 144.984 91.624 145.121 90.7704 145.292C89.6068 145.292 88.4433 145.257 87.2818 145.154C86.4261 145.086 85.6053 145.019 84.7516 144.949C84.2037 144.916 84.1011 145.632 84.5115 145.907C84.5464 145.975 84.6141 146.01 84.6818 146.043C84.7167 146.043 84.7516 146.078 84.8193 146.078C85.9131 147.001 87.3167 147.446 88.7511 147.411C89.0261 147.479 89.299 147.479 89.5719 147.479C89.6417 147.479 89.7094 147.479 89.7772 147.479C89.9146 147.514 90.0521 147.549 90.2573 147.479C90.2902 147.479 90.2902 147.479 90.3251 147.479C90.6678 147.479 90.9756 147.446 91.3162 147.446C91.5214 147.411 91.7615 147.411 91.9667 147.377C93.8136 147.171 95.5907 146.658 97.2324 145.872C98.1907 145.497 99.147 145.052 99.9678 144.403C100.003 144.368 100.07 144.368 100.105 144.333C101.507 143.547 102.773 142.521 103.867 141.325C104.38 140.777 104.823 140.196 105.268 139.616C107.901 136.605 110.056 133.016 113.304 130.621C114.295 129.903 115.356 129.322 116.485 128.877C117.819 128.364 119.153 127.921 120.452 127.305C122.093 126.484 123.598 125.356 124.829 123.987C125.923 123.236 126.983 122.415 127.872 121.389C128.966 120.158 129.719 118.721 130.3 117.182C131.291 114.412 131.633 111.471 132.419 108.668C132.83 107.745 133.24 106.821 133.651 105.898C134.199 104.667 134.744 103.47 135.327 102.239C136.181 100.905 137.139 99.641 138.233 98.4775C138.986 97.6566 139.807 96.9035 140.661 96.1874C141.652 95.5368 142.678 94.9561 143.636 94.3056C144.012 94.0655 144.389 93.7926 144.765 93.5196C145.551 93.0066 146.269 92.3233 146.782 91.5024C147.465 90.6467 147.978 89.6207 148.218 88.5269C148.459 87.8764 148.594 87.1931 148.629 86.5097C148.731 85.9967 148.799 85.5165 148.834 85.0035C148.902 84.6629 148.937 84.2853 148.972 83.9097C149.004 83.7394 149.004 83.5691 149.039 83.3639C149.074 82.8509 149.107 82.3378 149.107 81.8248C149.107 81.5498 149.107 81.242 149.107 80.9691C149.21 80.216 149.244 79.4649 149.279 78.7118C149.279 78.679 149.279 78.6092 149.312 78.5764C149.312 78.5415 149.312 78.4738 149.312 78.4389C149.415 77.6529 149.485 76.8998 149.585 76.1139C149.825 74.9852 150.065 73.8915 150.373 72.7957L150.543 72.5227C150.578 72.455 150.578 72.4201 150.543 72.3852C150.714 72.0446 150.886 71.7019 151.091 71.3612C151.124 71.156 150.886 70.9508 150.749 71.1212Z" fill="#0B5648"/>
<path d="M162.58 107.231C162.375 106.411 161.554 105.932 160.733 105.965C160.255 105.965 159.809 106.103 159.399 106.308C160.117 105.282 160.733 104.153 161.076 102.922C161.349 101.999 161.416 101.042 161.246 100.084C161.211 99.8788 160.87 99.9486 160.903 100.187C161.281 102.581 160.255 104.631 158.851 106.478C158.954 106 158.954 105.522 158.783 105.077C158.578 104.531 158.133 104.051 157.552 103.915C157.347 103.88 157.244 104.188 157.45 104.256C157.963 104.358 158.338 104.769 158.476 105.247C158.681 105.863 158.51 106.513 158.305 107.094C158.305 107.129 158.305 107.129 158.305 107.164C157.484 108.19 156.561 109.214 155.808 110.207C155.878 109.591 155.843 108.941 155.705 108.325C155.57 107.607 155.159 106.889 154.406 106.683C154.201 106.616 154.099 106.958 154.304 107.026C154.987 107.231 155.262 107.95 155.397 108.565C155.535 109.316 155.5 110.069 155.365 110.788C155.262 110.925 155.159 111.061 155.09 111.198C154.441 112.189 153.928 113.25 153.553 114.344C153.518 114.104 153.483 113.866 153.415 113.626C153.313 113.215 153.142 112.772 152.867 112.394C152.629 112.087 152.321 111.814 151.944 111.746C151.568 111.676 151.193 111.779 150.953 112.054C150.815 112.224 151.055 112.464 151.193 112.292C151.398 112.054 151.706 112.019 151.979 112.087C152.321 112.189 152.559 112.464 152.732 112.737C153.142 113.42 153.313 114.309 153.278 115.097C153.278 115.13 153.278 115.165 153.278 115.165C152.834 116.704 152.629 118.311 152.527 119.952C152.424 119.747 152.321 119.577 152.184 119.404C151.876 119.029 151.568 118.653 151.158 118.378C150.782 118.105 150.337 117.968 149.892 118.071C149.448 118.173 149.106 118.481 148.868 118.859C148.765 119.064 149.038 119.234 149.176 119.029C149.381 118.721 149.654 118.448 150.029 118.378C150.405 118.311 150.782 118.516 151.09 118.756C151.398 118.994 151.671 119.302 151.911 119.61C152.184 119.917 152.389 120.295 152.424 120.738C152.424 120.808 152.457 120.841 152.527 120.876C152.527 121.491 152.527 122.072 152.527 122.653C152.559 123.679 152.629 124.705 152.697 125.731C152.424 125.218 152.014 124.775 151.533 124.432C151.123 124.124 150.577 123.954 150.097 124.192C149.859 124.294 149.619 124.5 149.448 124.672C149.278 124.842 149.141 125.048 149.141 125.321C149.141 125.526 149.483 125.526 149.483 125.321C149.483 125.08 149.654 124.945 149.824 124.807C149.994 124.672 150.167 124.5 150.372 124.432C150.815 124.294 151.26 124.602 151.568 124.877C152.184 125.423 152.697 126.176 152.765 127.03C152.765 127.065 152.765 127.065 152.8 127.1C152.902 128.536 153.04 129.971 153.072 131.374C152.902 131.031 152.697 130.689 152.424 130.416C152.116 130.073 151.671 129.8 151.193 129.868C150.713 129.903 150.337 130.246 150.064 130.621C149.927 130.791 150.234 130.964 150.372 130.791C150.61 130.484 150.953 130.211 151.363 130.211C151.773 130.246 152.116 130.518 152.354 130.826C152.8 131.339 153.072 131.99 153.142 132.673C153.142 133.699 153.107 134.725 153.005 135.716C152.902 136.675 152.732 137.596 152.492 138.487C152.457 138.041 152.354 137.596 152.184 137.188C152.014 136.777 151.773 136.367 151.398 136.092C150.953 135.784 150.475 135.887 150.029 136.059C149.824 136.127 149.927 136.469 150.132 136.4C150.577 136.264 150.988 136.162 151.328 136.502C151.636 136.777 151.808 137.153 151.944 137.528C152.219 138.314 152.252 139.17 152.014 139.956C152.014 139.991 152.014 139.991 152.014 140.026C152.014 140.059 151.979 140.093 151.979 140.128C151.979 140.161 151.979 140.196 151.979 140.231C151.533 141.46 150.918 142.624 150.2 143.717C150.269 143.102 150.234 142.453 150.029 141.838C149.927 141.46 149.756 141.052 149.448 140.812C149.176 140.572 148.765 140.504 148.422 140.674C148.217 140.777 148.388 141.085 148.593 140.982C148.901 140.812 149.208 141.052 149.381 141.29C149.584 141.563 149.687 141.94 149.756 142.248C149.927 142.966 149.892 143.685 149.687 144.403C149.687 144.403 149.687 144.403 149.687 144.436C149.176 145.121 148.593 145.804 147.977 146.42C147.191 147.206 146.303 147.889 145.379 148.505C145.822 147.787 145.96 146.933 145.72 146.112C145.584 145.599 145.277 145.018 144.764 144.778C144.285 144.573 143.703 144.641 143.225 144.916C143.019 145.018 143.19 145.326 143.395 145.224C143.805 145.018 144.318 144.916 144.729 145.154C145.139 145.394 145.379 145.94 145.447 146.42C145.652 147.411 145.277 148.402 144.523 149.018C144.491 149.053 144.491 149.053 144.491 149.088C144.08 149.326 143.635 149.566 143.225 149.771C141.515 150.592 139.736 151.208 137.924 151.788C138.54 151.24 139.053 150.522 138.95 149.736C138.882 149.223 138.677 148.71 138.267 148.402C137.889 148.095 137.343 148.027 136.933 148.3C136.728 148.402 136.933 148.71 137.103 148.608C137.479 148.402 137.924 148.505 138.197 148.813C138.505 149.121 138.642 149.634 138.607 150.044C138.607 150.522 138.3 150.933 137.992 151.275C137.684 151.618 137.343 151.891 136.933 152.096C136.898 152.131 136.865 152.164 136.865 152.199C135.154 152.779 133.479 153.395 131.872 154.216C131.29 154.524 130.744 154.832 130.196 155.174C130.436 154.694 130.571 154.148 130.571 153.565C130.571 152.507 130.058 151.138 128.794 151.138C128.589 151.138 128.589 151.48 128.794 151.48C129.923 151.48 130.264 152.849 130.196 153.738C130.161 154.421 129.888 155.072 129.478 155.617C128.589 156.233 127.733 156.918 126.913 157.704C125.854 158.696 124.963 159.824 124.109 160.988C124.212 160.508 124.177 160.029 124.042 159.584C123.734 158.628 122.981 157.91 122.022 157.635C121.817 157.567 121.715 157.91 121.92 157.977C122.741 158.217 123.459 158.866 123.699 159.687C123.972 160.542 123.734 161.534 123.118 162.217C123.048 162.287 123.048 162.354 123.083 162.389C122.022 163.894 120.894 165.398 119.492 166.629C119.697 166.253 119.835 165.876 119.903 165.467C120.005 164.577 119.562 163.586 118.741 163.175C118.536 163.073 118.364 163.381 118.569 163.483C119.287 163.859 119.63 164.679 119.562 165.5C119.459 166.286 118.979 166.972 118.398 167.485C118.296 167.552 118.193 167.62 118.091 167.723C118.056 167.758 118.056 167.758 118.023 167.792C116.621 168.681 115.115 169.332 113.576 169.912C112.995 170.117 112.38 170.356 111.764 170.596C112.482 169.912 113.03 169.057 113.2 168.065C113.406 166.902 113.063 165.638 112.244 164.782C112.107 164.612 111.834 164.852 112.004 165.022C112.755 165.808 113.063 166.972 112.858 168.065C112.655 169.159 111.969 170.117 111.081 170.766C111.046 170.801 111.013 170.836 111.013 170.869C109.747 171.279 108.483 171.622 107.182 171.657C105.918 171.689 104.754 171.416 103.593 171.006C104.617 170.801 105.472 169.775 105.815 168.819C106.156 167.895 105.883 166.697 104.892 166.321C104.686 166.253 104.584 166.561 104.789 166.664C105.678 167.004 105.745 168.133 105.405 168.886C105.027 169.672 104.311 170.528 103.42 170.698C103.318 170.733 103.285 170.836 103.318 170.903C102.464 170.561 101.608 170.15 100.822 169.707C99.7286 169.126 98.6327 168.544 97.5041 167.998C97.9843 167.825 98.3598 167.552 98.6676 167.142C99.0432 166.594 99.1807 165.911 99.0103 165.295C98.9754 165.09 98.6327 165.16 98.6676 165.398C98.8051 165.946 98.6676 166.526 98.3598 167.004C98.052 167.45 97.5739 167.723 97.0609 167.792C96.2051 167.347 95.3515 166.902 94.5306 166.459C92.5114 165.398 90.4942 164.304 88.4093 163.346C86.4947 162.457 84.5103 161.704 82.4254 161.431C81.3993 161.296 80.3733 161.261 79.3473 161.398C79.1421 161.431 79.1421 161.774 79.3473 161.739C83.9296 161.193 88.1363 163.518 92.0681 165.535C93.6749 166.356 95.2489 167.21 96.8556 168.031C96.8208 168.133 96.8556 168.203 96.9582 168.236C97.1635 168.271 97.2312 168.544 97.2312 168.749C97.2312 169.024 97.1963 169.297 97.1286 169.537C96.9911 170.048 96.6833 170.528 96.24 170.836C96.0697 170.971 96.3077 171.211 96.4781 171.074C96.9911 170.663 97.3687 170.083 97.5041 169.434C97.5739 169.159 97.6067 168.716 97.5041 168.373C97.8468 168.544 98.1546 168.716 98.4973 168.886C100.069 169.707 101.643 170.631 103.318 171.279C104.208 172.272 104.106 173.879 103.01 174.7C102.84 174.835 103.01 175.143 103.182 175.008C103.798 174.527 104.208 173.844 104.276 173.093C104.344 172.545 104.173 171.964 103.9 171.519C104.106 171.587 104.276 171.657 104.481 171.689C106.669 172.305 108.858 171.929 110.978 171.246C111.183 171.176 111.354 171.109 111.559 171.041C113.235 171.144 114.74 172.237 115.287 173.844C115.355 174.049 115.698 173.947 115.628 173.741C115.115 172.237 113.816 171.144 112.312 170.801C113.851 170.288 115.355 169.707 116.792 168.954C117.305 168.681 117.818 168.373 118.331 168.065C118.331 168.065 118.364 168.065 118.364 168.031L118.398 167.998C118.569 167.895 118.741 167.758 118.911 167.62C119.322 167.382 119.732 167.21 120.178 167.107C120.518 167.039 120.896 167.039 121.202 167.21C121.477 167.347 121.715 167.587 121.887 167.86C122.022 168.031 122.33 167.86 122.195 167.69C121.749 167.074 121.134 166.664 120.348 166.766C120.21 166.799 120.075 166.799 119.937 166.834C120.518 166.321 121.031 165.773 121.544 165.192C122.16 164.441 122.741 163.688 123.289 162.902C123.356 162.902 123.426 162.902 123.459 162.833C123.904 162.114 124.657 161.499 125.511 161.398C126.332 161.296 127.187 161.671 127.563 162.389C127.666 162.595 127.973 162.422 127.871 162.217C127.426 161.398 126.434 160.953 125.511 161.055C125.066 161.09 124.657 161.261 124.28 161.499C124.555 161.123 124.828 160.748 125.135 160.372C126.194 159.038 127.393 157.807 128.759 156.781C128.794 156.781 128.829 156.781 128.862 156.781C129.683 156.371 130.744 156.371 131.462 156.951C132.11 157.464 132.418 158.388 132.11 159.174C132.043 159.379 132.351 159.482 132.453 159.276C132.796 158.388 132.453 157.294 131.7 156.713C131.119 156.268 130.366 156.13 129.648 156.233C129.683 156.2 129.718 156.165 129.751 156.098C129.751 156.098 129.751 156.098 129.785 156.098C131.495 154.899 133.409 154.046 135.359 153.327C135.839 153.157 136.352 152.985 136.865 152.814C136.898 152.849 136.933 152.849 137.001 152.849C137.856 152.677 139.018 152.507 139.531 153.395C140.044 154.216 139.703 155.207 139.428 156.028C139.36 156.233 139.703 156.336 139.771 156.13C140.114 155.207 140.421 154.046 139.806 153.157C139.395 152.609 138.813 152.439 138.197 152.404C140.319 151.686 142.439 150.967 144.388 149.874C144.421 149.907 144.456 149.907 144.523 149.907C144.901 149.804 145.309 149.701 145.72 149.771C146.063 149.839 146.37 150.009 146.61 150.249C147.123 150.83 147.156 151.651 146.883 152.336C146.816 152.541 147.123 152.644 147.226 152.439C147.534 151.618 147.464 150.695 146.848 150.009C146.576 149.701 146.233 149.496 145.822 149.428C145.617 149.394 145.412 149.394 145.209 149.394C145.652 149.121 146.097 148.813 146.541 148.505C147.807 147.549 148.97 146.385 149.927 145.119C150.507 144.711 151.193 144.368 151.911 144.23C152.252 144.163 152.594 144.198 152.867 144.436C153.107 144.641 153.21 144.949 153.313 145.257C153.38 145.462 153.688 145.394 153.653 145.154C153.448 144.436 152.97 143.787 152.149 143.855C151.568 143.89 150.988 144.095 150.475 144.368C151.398 142.999 152.149 141.495 152.662 139.923C152.902 139.443 153.245 139.033 153.688 138.76C154.339 138.349 155.192 138.247 155.878 138.657C156.083 138.76 156.253 138.487 156.048 138.349C155.295 137.904 154.304 137.974 153.551 138.417C153.313 138.554 153.107 138.725 152.937 138.93C153.313 137.391 153.518 135.854 153.551 134.28C153.62 134.28 153.688 134.212 153.688 134.11C153.688 133.116 153.791 132.023 154.474 131.202C155.057 130.518 156.116 130.176 156.869 130.759C157.039 130.894 157.279 130.656 157.109 130.518C156.253 129.835 155.057 130.073 154.339 130.826C153.961 131.237 153.723 131.715 153.551 132.228C153.518 130.656 153.38 129.047 153.278 127.475C153.313 127.44 153.347 127.407 153.347 127.338C153.347 126.449 153.448 125.458 154.099 124.773C154.679 124.159 155.638 123.987 156.424 124.329C156.629 124.432 156.801 124.124 156.596 124.022C155.74 123.611 154.646 123.781 153.928 124.432C153.551 124.807 153.313 125.286 153.175 125.799C153.072 124.329 152.97 122.79 153.005 121.286C153.04 121.286 153.04 121.251 153.072 121.216C153.278 120.909 153.347 120.5 153.62 120.192C153.858 119.917 154.166 119.712 154.509 119.577C155.125 119.337 156.288 119.097 156.526 119.952C156.596 120.157 156.904 120.09 156.869 119.85C156.766 119.439 156.424 119.166 156.048 119.064C155.57 118.926 155.057 119.029 154.612 119.166C154.201 119.302 153.826 119.507 153.518 119.815C153.38 119.952 153.245 120.157 153.142 120.328C153.107 120.398 153.072 120.43 153.072 120.5C153.142 118.686 153.38 116.909 153.893 115.2C153.928 115.2 153.961 115.2 153.996 115.165C154.544 114.754 155.159 114.139 155.878 114.104C156.561 114.104 157.142 114.584 157.279 115.267C157.314 115.473 157.655 115.405 157.62 115.165C157.45 114.379 156.801 113.796 156.013 113.763C155.262 113.728 154.679 114.206 154.099 114.652C154.236 114.276 154.371 113.934 154.509 113.558C154.884 112.737 155.33 111.951 155.843 111.233C155.878 111.233 155.91 111.198 155.945 111.13V111.095C156.013 110.993 156.083 110.89 156.151 110.788C156.731 110.342 157.45 110.035 158.168 110.137C158.818 110.24 159.399 110.65 159.604 111.266C159.672 111.471 160.015 111.403 159.947 111.163C159.707 110.412 159.024 109.899 158.27 109.797C157.722 109.727 157.212 109.829 156.698 110.035C157.177 109.419 157.69 108.803 158.203 108.223C158.408 107.985 158.578 107.744 158.783 107.539C158.818 107.539 158.886 107.504 158.921 107.471C159.091 107.129 159.364 106.924 159.707 106.786C160.082 106.616 160.493 106.478 160.903 106.445C161.587 106.411 162.305 106.753 162.477 107.471C162.305 107.539 162.613 107.471 162.58 107.231Z" fill="#50B09F"/>
<path d="M66.5252 159.79C65.4643 158.866 64.8836 157.5 64.9184 156.063V156.028C64.8836 153.806 64.2002 151.618 62.9012 149.804C62.3533 149.053 61.7377 148.403 61.0544 147.787C61.157 147.685 61.2247 147.549 61.2596 147.447C61.395 147.172 61.5325 146.899 61.67 146.626C61.9429 146.078 62.183 145.53 62.4211 144.984C62.6263 144.471 62.8315 143.958 63.0367 143.445C63.2091 143.069 63.4143 142.624 63.8226 142.487C64.233 142.384 64.0627 141.701 63.6523 141.838C62.6612 142.111 62.3882 143.275 62.0455 144.095C61.8054 144.676 61.5674 145.224 61.3273 145.77C61.1898 146.043 61.0872 146.283 60.9518 146.556C60.882 146.693 60.8143 146.831 60.7466 146.966C60.7117 147.036 60.6768 147.104 60.6091 147.206C60.6091 147.241 60.5742 147.274 60.5742 147.309C60.5742 147.309 60.5742 147.309 60.5742 147.344C60.5413 147.344 60.5413 147.344 60.5065 147.377C59.583 146.626 58.6268 145.907 57.9085 144.949C56.6773 143.275 56.2997 141.188 56.0617 139.17C56.0617 139.136 56.0617 139.103 56.0617 139.033C56.0945 139 56.1294 138.965 56.1294 138.898C56.6424 137.461 57.4981 136.195 58.6268 135.204C59.7205 134.213 61.395 133.322 62.8315 134.245C63.2091 134.486 63.5497 133.905 63.1742 133.665C61.6002 132.639 59.7205 133.425 58.4215 134.52C57.3606 135.409 56.5398 136.503 55.9242 137.734C55.7867 136.162 55.6163 134.588 55.1731 133.084C54.8981 132.126 54.4549 131.202 53.8721 130.416C53.2565 129.561 52.4705 128.844 51.6846 128.159C51.6148 128.091 51.582 128.056 51.5122 127.989C51.5122 127.954 51.5122 127.954 51.5122 127.921C51.6497 126.244 51.9226 124.5 52.846 123.064C53.6669 121.8 55.2059 120.841 56.745 121.149C57.1903 121.217 57.3606 120.568 56.9153 120.501C55.1731 120.158 53.4617 121.081 52.4356 122.483C51.3767 123.919 51.034 125.697 50.8637 127.441C50.3856 126.998 49.9054 126.552 49.495 126.004C48.7439 125.081 48.3335 123.987 48.196 122.826C47.9559 120.568 48.4689 118.276 48.196 116.054C48.2637 116.021 48.2986 115.951 48.2986 115.883C48.5387 114.892 49.1195 114.002 50.008 113.489C50.8986 112.943 51.9924 112.84 52.8809 113.489C53.2236 113.764 53.5643 113.148 53.2236 112.908C52.1976 112.157 50.796 112.259 49.7351 112.873C48.9491 113.353 48.3335 114.071 47.9559 114.892C47.4429 113.113 46.3491 111.574 45.0851 110.24C43.5788 108.668 41.8366 107.3 40.3304 105.761C40.433 105.728 40.5028 105.625 40.5028 105.453C40.433 104.667 40.433 103.846 40.6054 103.095C40.708 102.547 40.946 101.761 41.6314 101.691C42.0747 101.658 42.0747 100.973 41.6314 101.008C40.7408 101.076 40.2278 101.829 40.0226 102.65C39.8174 103.47 39.7845 104.359 39.8174 105.215C39.7496 105.145 39.6819 105.077 39.647 105.009C37.9725 103.06 36.5689 100.563 37.0819 97.9298C37.5621 97.0063 38.4158 96.3579 39.4069 96.1527C39.5793 96.1178 39.6819 95.9126 39.647 95.7423C39.6122 95.5719 39.4069 95.4693 39.2366 95.5022C38.3132 95.7074 37.4595 96.2553 36.8767 97.0412C36.6387 96.1178 36.0231 95.297 35.4403 94.6136C34.6215 93.6553 33.6283 92.8693 32.4996 92.2886C32.1241 92.0834 31.7486 92.6641 32.159 92.8693C33.1501 93.3824 34.0387 94.0657 34.7918 94.8865C35.1673 95.297 35.4752 95.7423 35.7481 96.1876C35.8856 96.4256 36.0231 96.6657 36.1257 96.9386C36.0908 96.9386 36.0559 96.9037 36.0559 96.9037C35.6804 96.7334 35.3048 96.5959 34.9293 96.4933C34.1762 96.323 33.3902 96.323 32.672 96.5959C32.4996 96.6657 32.3642 96.836 32.4319 97.0063C32.4668 97.1787 32.672 97.3142 32.8423 97.2464C33.4231 97.0063 34.0736 97.0063 34.6892 97.1438C34.997 97.2115 35.3048 97.3142 35.5778 97.4516C35.7152 97.5194 35.8856 97.5891 36.0231 97.6568C36.1257 97.7246 36.2283 97.7595 36.296 97.8621C36.296 97.8621 36.296 97.8621 36.296 97.8969C36.296 97.9298 36.296 97.9995 36.296 98.0324C36.296 98.135 36.296 98.2048 36.3637 98.2725C35.9882 100.973 37.2871 103.333 39.0663 105.385C37.7673 105.248 36.4335 105.385 35.1673 105.761C34.4491 106.001 33.698 106.274 33.2179 106.889C32.672 107.197 32.4319 107.882 32.397 108.601C32.3642 109.044 33.0475 109.044 33.0824 108.601C33.1153 107.985 33.3553 107.334 33.8335 106.924C34.3465 106.479 35.0319 106.241 35.6804 106.068C37.0142 105.728 38.4158 105.658 39.7496 105.898C40.708 106.924 41.7668 107.847 42.6903 108.703C44.2971 110.173 45.9059 111.712 46.8293 113.694C46.9997 114.037 47.1023 114.379 47.2049 114.72C46.2465 114.037 45.1179 113.626 43.9215 113.831C43.2033 113.934 42.52 114.242 42.0069 114.755C41.6991 115.028 41.459 115.336 41.1512 115.643C40.9132 115.883 40.6731 116.191 40.6382 116.534C40.5705 116.977 41.221 117.148 41.2887 116.704C41.3236 116.396 41.5288 116.226 41.734 116.021C41.972 115.781 42.1773 115.508 42.4173 115.303C42.8627 114.857 43.4762 114.617 44.0918 114.515C45.358 114.344 46.5543 114.995 47.4429 115.849C47.683 117.455 47.5127 119.097 47.4429 120.739C47.4101 121.902 47.4429 123.099 47.7856 124.227C48.0934 125.253 48.6742 126.142 49.3924 126.895C49.5299 127.03 49.6674 127.168 49.8028 127.305C48.5715 127.27 47.4101 127.578 46.2814 128.126C44.9127 128.775 43.6486 129.801 43.4762 131.375C43.4434 131.818 44.1267 131.818 44.1616 131.375C44.2971 130.006 45.5981 129.185 46.7596 128.639C47.9908 128.056 49.2898 127.851 50.6236 128.024C51.7872 129.082 53.0184 130.108 53.8044 131.51C54.8304 133.392 55.0356 135.512 55.2408 137.597C54.7278 137.188 54.1471 136.811 53.5314 136.573C52.5731 136.162 51.5122 136.092 50.521 136.435C50.1106 136.573 50.283 137.221 50.6934 137.086C51.582 136.811 52.5054 136.845 53.3591 137.221C54.0773 137.529 54.7278 138.007 55.3434 138.52C55.5137 140.231 55.719 141.906 56.3695 143.48C56.7799 144.436 57.3257 145.292 58.044 146.01C58.557 146.556 59.1726 147.036 59.7533 147.514C58.0788 147.822 56.3346 147.685 54.6929 148.165C53.8044 148.403 52.9486 148.813 52.1627 149.293C51.4116 149.737 50.8288 150.352 50.521 151.208C50.3856 151.618 51.034 151.789 51.1715 151.378C51.4445 150.523 52.1627 150.044 52.9158 149.634C53.7366 149.191 54.5575 148.848 55.446 148.678C57.0877 148.37 58.7622 148.473 60.369 148.062C60.4716 148.165 60.6091 148.267 60.7117 148.37C62.4559 149.942 63.6523 152.062 64.0627 154.387C64.1653 154.969 64.2002 155.55 64.2002 156.131C64.2002 156.131 64.2002 156.131 64.2002 156.166C64.2002 157.705 64.8487 159.209 66.0122 160.235C66.3549 160.543 66.833 160.065 66.5252 159.79Z" fill="#50B09F"/>
<path d="M83.5198 113.148C82.5286 111.096 81.125 109.214 79.3479 107.745C78.4594 106.992 77.501 106.376 76.475 105.795C75.4161 105.18 74.3901 104.599 73.5344 103.71C72.0302 102.136 71.2771 100.084 70.3536 98.1696C69.4302 96.255 68.3364 94.5457 66.6619 93.2118C63.4135 90.6118 59.2744 89.5529 55.8557 87.2279C54.8973 86.5774 53.9411 85.7915 53.2906 84.7983C52.6072 83.7394 52.3671 82.5081 52.2296 81.2769C52.0942 80.1134 52.0593 78.9519 51.8192 77.8232C51.614 76.7972 51.3082 75.7711 50.8978 74.8149C49.9744 72.693 48.503 70.7456 46.5207 69.5472C45.3572 68.8289 44.0233 68.5211 42.7921 67.9055C41.6983 67.3597 40.6046 66.4711 40.502 65.1701C40.4671 64.7268 39.7837 64.7268 39.8166 65.1701C40.0218 67.5998 42.4843 68.5211 44.4338 69.3091C46.5207 70.13 48.2301 71.4967 49.3916 73.4113C50.59 75.3279 51.1708 77.4805 51.376 79.6701C51.4786 80.8665 51.5463 82.0628 51.8541 83.2264C52.1619 84.3878 52.7426 85.4139 53.5984 86.2696C56.5739 89.3128 60.951 90.4066 64.5072 92.5613C66.3192 93.6899 67.8583 95.0915 68.9172 96.9384C69.9781 98.7853 70.6614 100.87 71.825 102.649C72.4057 103.538 73.1239 104.359 73.9797 105.009C74.9359 105.76 76.0646 106.273 77.0906 106.924C79.1078 108.19 80.7844 109.899 82.0485 111.917C82.3563 112.395 82.6312 112.908 82.8693 113.421C83.1094 113.899 83.6901 113.558 83.5198 113.148Z" fill="#0C776D"/>
<path d="M133.548 74.6777C130.232 73.4813 126.06 72.1803 122.776 74.1298C121.1 75.123 120.246 77.0027 118.639 78.0287C117.133 78.987 115.321 79.0896 113.577 79.0199C111.697 78.9521 109.85 78.6443 107.971 78.7121C106.259 78.7469 104.618 79.1225 103.113 79.9782C100.243 81.5501 98.3259 84.3553 96.3087 86.8506C95.1472 88.2871 93.9488 89.6886 92.5123 90.8522C90.6326 92.3564 88.3753 93.3475 86.1529 94.271C85.5373 94.511 85.8102 95.5022 86.4258 95.2642C88.3753 94.4762 90.2899 93.6225 92.0342 92.459C93.5055 91.4678 94.7368 90.2714 95.8654 88.9376C97.9503 86.51 99.7295 83.6719 102.293 81.6876C103.559 80.7293 105.028 80.0459 106.637 79.8407C108.484 79.6027 110.329 79.8407 112.175 79.9782C113.92 80.1136 115.767 80.2162 117.441 79.7053C118.262 79.4652 119.05 79.0548 119.733 78.5068C120.486 77.8912 121.1 77.1053 121.75 76.387C122.434 75.636 123.187 74.9855 124.178 74.6428C125.101 74.3021 126.093 74.1995 127.086 74.2324C129.206 74.3021 131.291 74.9855 133.275 75.7037C133.891 75.874 134.163 74.8829 133.548 74.6777Z" fill="#0C776D"/>
<path d="M148.424 31.1115C145.586 30.8037 143.294 32.6505 141.312 34.4297C139.225 36.2745 137.037 38.5318 134.062 38.6016C132.968 38.6344 131.839 38.4641 130.745 38.5667C129.855 38.6344 129.034 38.9094 128.248 39.2849C126.709 40.036 125.445 41.1995 124.146 42.2933C122.709 43.4896 121.238 44.448 119.426 44.961C117.477 45.5089 115.459 45.6792 113.51 46.0896C110.056 46.773 105.849 48.9277 105.747 52.9292C105.714 53.5777 106.74 53.5777 106.773 52.9292C106.876 49.5084 110.637 47.7313 113.51 47.1157C115.392 46.7053 117.339 46.5349 119.221 46.0547C120.998 45.6115 122.537 44.8235 123.973 43.6948C125.272 42.6709 126.471 41.5073 127.907 40.6188C128.591 40.2084 129.309 39.8657 130.095 39.6953C131.121 39.4552 132.182 39.5927 133.206 39.6256C134.815 39.6605 136.251 39.3526 137.653 38.5667C138.849 37.8834 139.91 36.9927 140.901 36.1042C142.986 34.2573 145.313 31.7948 148.356 32.1375C149.075 32.2052 149.075 31.1792 148.424 31.1115Z" fill="#0C776D"/>
<path d="M99.5575 48.5851C98.8392 47.3887 97.9507 46.1574 97.7804 44.721C97.608 43.2866 98.121 41.8501 98.4986 40.4814C98.8392 39.2173 99.1142 37.8485 98.7038 36.5496C98.396 35.4887 97.7106 34.5652 96.9595 33.7444C96.1736 32.8558 95.283 32.0699 94.5319 31.1793C93.7111 30.1881 93.1632 29.0595 92.9929 27.7605C92.6153 24.7522 93.7788 21.5714 92.3075 18.7334C92.1043 18.3579 91.5215 18.6985 91.7267 19.074C92.9929 21.5365 92.1371 24.4772 92.2746 27.11C92.3423 28.3761 92.6153 29.5725 93.3007 30.6683C93.9163 31.6246 94.7371 32.4454 95.5231 33.2662C96.309 34.0871 97.1299 34.9079 97.6778 35.8991C98.2934 37.0626 98.3262 38.3267 98.0184 39.5928C97.7106 40.9267 97.1976 42.2605 97.0621 43.6272C96.9246 44.996 97.3699 46.26 98.0533 47.4564C98.8392 48.8929 99.7627 50.159 100.243 51.7658C100.721 53.4074 100.824 55.1866 100.481 56.8611C100.413 57.3064 101.062 57.4767 101.131 57.0314C101.747 54.058 101.131 51.1502 99.5575 48.5851Z" fill="#E1D4C8"/>
<path d="M89.4351 69.1719C88.7497 67.4625 87.6231 66.2313 85.9814 65.4105C85.9814 65.3756 85.9814 65.3427 85.9814 65.3079C85.7762 64.6922 85.9117 64.0417 86.1518 63.461C86.357 63.0177 86.7325 62.1969 87.3481 62.4021C87.7585 62.5375 87.9309 61.8891 87.5205 61.7516C86.5971 61.4438 85.9117 62.2995 85.571 63.0177C85.2632 63.6662 85.0908 64.3844 85.1934 65.0678C84.545 64.76 83.8945 64.4193 83.3814 63.9391C82.8684 63.461 82.458 62.8802 82.1502 62.2646C82.0148 61.9917 81.8773 61.6839 81.7747 61.3761C81.8095 61.3412 81.8773 61.2735 81.8773 61.2037C82.0476 60.5203 82.2877 59.7672 82.8356 59.2891C83.2788 58.8787 83.9642 58.7761 84.4424 59.1188C84.5778 59.2214 84.8179 59.1537 84.9205 58.9813C85.0231 58.811 84.9554 58.6406 84.783 58.5032C84.0997 57.9901 83.1085 58.1605 82.458 58.6735C81.945 59.0839 81.6372 59.6667 81.3991 60.2803C81.1939 59.4943 81.0564 58.7084 80.9189 57.9224C80.7137 56.6912 80.5085 55.3922 80.0981 54.1261C80.133 54.0912 80.1679 54.0583 80.1679 53.9886C80.2007 53.8531 80.2007 53.7156 80.2356 53.613C80.2705 53.5453 80.2705 53.4755 80.3033 53.4078C80.3033 53.3729 80.3382 53.3401 80.3382 53.3052C80.3382 53.3052 80.3382 53.2703 80.3731 53.2703C80.4059 53.1677 80.4757 53.0323 80.5434 52.9297C80.5783 52.8599 80.6111 52.8271 80.646 52.7573C80.6809 52.7245 80.6809 52.6896 80.7137 52.6896C80.7137 52.6896 80.7137 52.6896 80.7486 52.6547C80.8163 52.5521 80.9189 52.4495 81.0215 52.3818C81.0564 52.3469 81.0564 52.3469 81.0913 52.3141C81.0913 52.3141 81.0913 52.3141 81.1242 52.3141C81.1939 52.2792 81.2268 52.2443 81.2965 52.2115C81.3294 52.2115 81.3294 52.1766 81.3642 52.1766C81.3642 52.1766 81.3991 52.1417 81.432 52.1417C81.4669 52.1417 81.5017 52.1089 81.5346 52.1089C81.5346 52.1089 81.5695 52.1089 81.6043 52.1089C81.6372 52.1089 81.6372 52.1089 81.6721 52.1089C81.7069 52.1089 81.7398 52.1089 81.7398 52.1417L81.7747 52.1766C81.9122 52.2792 82.1502 52.2115 82.2528 52.0391C82.3554 51.8688 82.2877 51.6636 82.1174 51.561C81.5017 51.1854 80.7835 51.6287 80.3731 52.1089C80.0981 52.4167 79.9278 52.7573 79.7575 53.1C79.2444 51.9365 78.4913 50.9453 77.295 50.2969C76.3366 49.7838 75.2429 49.5786 74.184 49.4063C74.2168 49.3385 74.184 49.2359 74.1491 49.1333C73.909 48.6203 73.8064 48.0724 73.8762 47.5266C73.9439 47.0813 74.0814 46.4656 74.5247 46.2276C74.9022 46.0224 74.5595 45.4396 74.184 45.6448C73.5684 45.9875 73.2934 46.7406 73.1908 47.3891C73.0882 48.0396 73.1908 48.688 73.4658 49.3037C72.883 49.2359 72.3022 49.1333 71.7564 49.0307C70.833 48.8255 69.9423 48.45 69.2241 47.7995C68.8137 47.424 68.5059 46.9787 68.1981 46.5005C68.3356 45.8849 68.4382 45.2344 68.8137 44.6885C69.1215 44.2432 69.6017 43.9005 70.1147 43.9005C70.558 43.9005 70.558 43.2172 70.1147 43.2172C69.3616 43.2172 68.7111 43.6625 68.3007 44.2432C68.0278 44.6188 67.8574 45.0641 67.7199 45.5422C67.3095 44.551 67.0366 43.3875 66.7288 42.226C66.7637 42.1583 66.7965 42.1234 66.7965 42.0557C66.7965 41.9531 66.7965 41.8505 66.7965 41.7479C66.7965 41.713 66.7965 41.713 66.7965 41.6781C66.7965 41.6453 66.8314 41.5755 66.8314 41.5427C66.8663 41.4401 66.8991 41.3375 66.934 41.2677C66.934 41.2349 66.9689 41.2349 66.9689 41.2C67.0017 41.1651 67.0017 41.0974 67.0366 41.0625C67.0715 40.9948 67.1392 40.8922 67.1741 40.8245C67.1741 40.7896 67.2069 40.7896 67.2069 40.7547C67.2418 40.7218 67.2767 40.687 67.3095 40.6521C67.3793 40.5844 67.447 40.5166 67.5147 40.4469C67.5496 40.4469 67.5496 40.414 67.5845 40.414C67.6173 40.3792 67.6871 40.3443 67.7199 40.3443C67.8903 40.2417 67.96 40.0365 67.8574 39.8661C67.7548 39.6958 67.5496 39.6609 67.3793 39.7286C66.8991 40.0036 66.5236 40.4469 66.3184 40.9271C65.6679 38.602 64.6767 36.4474 62.2491 35.6594C61.8387 35.5239 61.6335 36.1724 62.0788 36.3099C63.7882 36.8578 64.7793 38.4994 65.3949 40.1062C65.5324 40.5166 65.6679 40.9271 65.7705 41.3375C65.4298 41.0625 65.0522 40.8573 64.6418 40.7547C64.0262 40.5844 63.3428 40.687 62.8996 41.1651C62.5918 41.4729 63.0699 41.9531 63.3777 41.6453C63.6855 41.3375 64.1637 41.3375 64.5741 41.4401C65.0871 41.6104 65.5324 41.9859 65.908 42.3286C65.9428 42.3635 66.0106 42.3963 66.0783 42.3963C66.3184 43.3547 66.5236 44.3109 66.8663 45.2344C66.8991 45.3719 66.9689 45.5094 67.0366 45.6448C66.934 45.5771 66.7965 45.5094 66.6939 45.4396C66.3184 45.2693 65.9428 45.1667 65.5324 45.1318C64.7116 45.0641 63.9236 45.337 63.31 45.8849C62.9673 46.1578 63.4455 46.638 63.7882 46.363C64.2663 45.9526 64.9168 45.7823 65.5324 45.8172C66.2507 45.8849 66.7965 46.2953 67.3095 46.7734C67.4121 46.8432 67.5147 46.876 67.5845 46.8432C68.1304 47.8344 68.8835 48.688 69.9095 49.2011C70.6277 49.5786 71.3788 49.749 72.1648 49.9193C72.097 49.9542 72.0622 49.9891 71.9944 50.0568C71.4814 50.5021 71.1408 51.1177 70.833 51.6984C70.7303 51.8688 70.7981 52.074 70.9684 52.1766C71.1408 52.2792 71.346 52.2115 71.4486 52.0391C71.7215 51.5281 71.9595 51.0151 72.4049 50.6375C72.7475 50.2969 73.2606 50.0917 73.7038 50.1943C73.7387 50.1943 73.8064 50.1943 73.8413 50.1943C74.3543 50.262 74.9022 50.3297 75.4153 50.4672C77.2601 50.9125 78.321 51.9037 79.0044 53.2026C78.6288 53.0323 78.2184 52.8948 77.7731 52.8948C77.0898 52.8599 76.3366 53.1 75.8585 53.613C75.5507 53.9208 76.0288 54.4339 76.3366 54.0912C76.7142 53.6808 77.2601 53.5453 77.808 53.5781C78.3887 53.613 78.9366 53.9208 79.4497 54.2635C80.0981 56.1433 80.2705 58.4005 80.7835 60.4526C80.2705 60.0422 79.6549 59.8021 78.9715 59.7344C78.0132 59.6667 76.7142 60.0073 76.3715 60.9985C76.2012 61.4089 76.8845 61.5813 77.022 61.1709C77.1575 60.863 77.5351 60.6578 77.8429 60.5552C78.2184 60.4177 78.6637 60.3829 79.0741 60.4177C79.8252 60.5203 80.5085 60.9308 80.9189 61.5115C80.9887 61.6141 81.0564 61.649 81.159 61.649C81.6043 62.9828 82.3226 64.1443 83.4841 64.9652C83.7241 65.1375 83.9642 65.273 84.2023 65.4105C83.7241 65.4782 83.2788 65.5808 82.8356 65.786C82.0825 66.1287 81.2616 66.7443 81.0913 67.6C81.0564 67.7704 81.1242 67.9756 81.3294 68.0084C81.5017 68.0433 81.7069 67.9407 81.7398 67.7704C81.8773 67.087 82.5606 66.6417 83.1762 66.3688C83.8616 66.061 84.6127 65.9584 85.3658 66.061C85.4335 66.061 85.5012 66.061 85.571 66.0261C85.9117 66.1964 86.2195 66.3688 86.5273 66.574C87.3481 67.1198 87.9637 67.873 88.4419 68.7615C89.4002 70.5735 89.6403 72.6605 89.8455 74.6777C89.8783 75.123 90.5637 75.123 90.5289 74.6777C90.3585 72.7631 90.1533 70.8813 89.4351 69.1719Z" fill="#E1D4C8"/>
<path d="M66.0785 89.8262C65.7707 88.835 65.3951 87.8767 64.917 86.9882L66.1134 86.3376C66.6264 87.3309 67.0717 88.3548 67.3795 89.4158L66.0785 89.8262Z" fill="#0B5648"/>
<path d="M64.1652 99.6059L62.8662 99.2303C63.1063 98.3746 63.2417 97.4861 63.2766 96.5955L64.6433 96.6303C64.5756 97.6215 64.4381 98.6475 64.1652 99.6059Z" fill="#0B5648"/>
<path d="M68.4735 102.171C67.4823 102.171 66.4891 101.966 65.6006 101.589L66.1136 100.325C66.8667 100.632 67.6527 100.803 68.4735 100.803V102.171Z" fill="#0B5648"/>
<path d="M69.7046 93.3475C69.6697 93.0068 69.327 92.6641 68.9863 92.6293L69.0889 91.2626C70.115 91.3303 70.9686 92.186 71.0712 93.2121L69.7046 93.3475Z" fill="#0B5648"/>
<path d="M75.382 100.462C74.6986 99.9136 74.2533 99.1277 74.083 98.3069L75.4169 98.0668C75.5195 98.5798 75.7924 99.0579 76.2028 99.4006L75.382 100.462Z" fill="#0B5648"/>
<path d="M71.1064 95.7421H72.4731V98.1697H71.1064V95.7421Z" fill="#0B5648"/>
<path d="M69.1895 106.544L69.4891 105.21L71.9249 105.758L71.6253 107.092L69.1895 106.544Z" fill="#0B5648"/>
<path d="M75.7705 102.896L76.6529 102.194L77.5066 103.263L76.6242 103.967L75.7705 102.896Z" fill="#0B5648"/>
<path d="M80.5439 103.06H81.9127V104.804H80.5439V103.06Z" fill="#0B5648"/>
<path d="M75.8896 109.671L76.0825 108.317L77.3015 108.491L77.1065 109.844L75.8896 109.671Z" fill="#0B5648"/>
<path d="M61.121 95.8796L59.7872 95.5717C59.8549 95.3316 59.8221 95.0238 59.6846 94.8186L60.9158 94.203C61.1559 94.716 61.2585 95.2968 61.121 95.8796Z" fill="#0B5648"/>
<path d="M60.8479 87.6715L60.4375 86.3726C61.2912 86.0996 62.2495 86.0648 63.1052 86.3049L62.7625 87.6387C62.112 87.4335 61.4635 87.4663 60.8479 87.6715Z" fill="#0B5648"/>
<path d="M52.0156 91.9521L53.7681 91.2688L54.2647 92.5452L52.5122 93.2265L52.0156 91.9521Z" fill="#0B5648"/>
<path d="M56.4082 91.1454L57.7482 90.8724L58.1012 92.6147L56.7612 92.8876L56.4082 91.1454Z" fill="#0B5648"/>
<path d="M55.9893 85.0815L56.1596 83.7251L57.5509 83.8975L57.3806 85.256L55.9893 85.0815Z" fill="#0B5648"/>
<path d="M64.5801 84.8455L64.7196 83.485L66.4536 83.6635L66.3141 85.024L64.5801 84.8455Z" fill="#0B5648"/>
<path d="M58.5273 82.3173L59.6129 81.4841L60.8195 83.0581L59.736 83.8892L58.5273 82.3173Z" fill="#0B5648"/>
<path d="M48.6602 86.8343L49.5508 85.7959L50.7697 86.8404L49.8791 87.8808L48.6602 86.8343Z" fill="#0B5648"/>
<path d="M47.2041 89.1079H48.5708V90.3392H47.2041V89.1079Z" fill="#0B5648"/>
<path d="M48.845 81.3795C48.4346 81.004 47.9544 80.6962 47.4414 80.491L47.9544 79.2249C48.6049 79.4998 49.2206 79.8754 49.7685 80.3535L48.845 81.3795Z" fill="#0B5648"/>
<path d="M45.2588 83.9608L45.4496 82.0544L46.8102 82.1919L46.6193 84.0963L45.2588 83.9608Z" fill="#0B5648"/>
<path d="M52.8984 81.5188L53.9696 80.6692L54.5216 81.3648L53.4504 82.2165L52.8984 81.5188Z" fill="#0B5648"/>
<path d="M55.0346 76.7297C54.8643 76.5245 54.5893 76.3522 54.3164 76.3522V74.9855C55.0346 74.9855 55.718 75.361 56.1284 75.9089L55.0346 76.7297Z" fill="#0B5648"/>
<path d="M52.9153 74.1295L51.6143 73.7191C51.7517 73.2409 51.8195 72.7628 51.7517 72.2826L53.1205 72.0774C53.1882 72.7628 53.1205 73.4461 52.9153 74.1295Z" fill="#0B5648"/>
<path d="M46.4865 75.4983C46.2464 75.3608 46.0084 75.2931 45.7334 75.2931L45.8032 73.9243C46.2813 73.9592 46.7594 74.0967 47.1699 74.3347L46.4865 75.4983Z" fill="#0B5648"/>
<path d="M45.2432 76.7603L46.2815 76.4176L46.7084 77.7186L45.67 78.0593L45.2432 76.7603Z" fill="#0B5648"/>
<path d="M48.0249 69.8225C47.6145 69.3423 47.3416 68.7267 47.2041 68.1111L48.538 67.8381C48.6057 68.2486 48.8109 68.6241 49.051 68.9668L48.0249 69.8225Z" fill="#0B5648"/>
<path d="M44.331 67.9754C44.2962 67.9405 44.2284 67.9405 44.1936 67.9405L43.8857 66.6066C44.331 66.504 44.8092 66.6066 45.1519 66.8816L44.331 67.9754Z" fill="#0B5648"/>
<path d="M44.208 71.4167L44.5404 70.089L45.2382 70.2634L44.9057 71.5891L44.208 71.4167Z" fill="#0B5648"/>
<path d="M39.0537 68.1315L39.93 67.0808L40.9806 67.9571L40.1044 69.0077L39.0537 68.1315Z" fill="#0B5648"/>
<path d="M63.3107 93.8599C63.0706 93.7573 62.7976 93.7245 62.5575 93.7922L62.2148 92.4583C62.7976 92.3229 63.3784 92.3557 63.9242 92.6287L63.3107 93.8599Z" fill="#0B5648"/>
<path d="M66.5244 99.0934C66.2515 98.683 66.0791 98.17 66.0791 97.657L67.4478 97.6221C67.4478 97.8622 67.5156 98.1023 67.653 98.3075L66.5244 99.0934Z" fill="#0B5648"/>
<path d="M82.2537 108.463C81.7407 108.463 81.2626 108.19 81.0225 107.779L82.186 107.061C82.186 107.094 82.2537 107.094 82.2537 107.094L82.3235 108.463C82.2886 108.463 82.2537 108.463 82.2537 108.463Z" fill="#0B5648"/>
<path d="M78.6934 110.862L79.9164 110.25L80.2673 110.954L79.0443 111.565L78.6934 110.862Z" fill="#0B5648"/>
<path d="M51.6865 89.3085L52.374 88.0074L53.5826 88.6456L52.8973 89.9467L51.6865 89.3085Z" fill="#0B5648"/>
<path d="M69.9436 103.743C69.5332 103.368 69.4306 102.752 69.6358 102.274L70.8342 102.787L69.9436 103.743Z" fill="#0B5648"/>
<path d="M90.0537 25.9159L90.6016 24.4404L91.2419 24.6785L90.694 26.1539L90.0537 25.9159Z" fill="#E1D4C8"/>
<path d="M94.8044 27.59C94.6341 27.2124 94.394 26.8718 94.1211 26.564L94.6341 26.1187C94.9419 26.4614 95.2149 26.8718 95.4201 27.2822L94.8044 27.59Z" fill="#E1D4C8"/>
<path d="M88.0977 28.5879L88.1777 27.9087L89.1278 28.0216L89.0478 28.7008L88.0977 28.5879Z" fill="#E1D4C8"/>
<path d="M90.975 29.5399L90.3594 29.2321C90.5297 28.8894 90.6672 28.5467 90.7698 28.1711L91.4182 28.3415C91.3156 28.7519 91.1802 29.1623 90.975 29.5399Z" fill="#E1D4C8"/>
<path d="M92.0684 31.8979H93.197V32.5833H92.0684V31.8979Z" fill="#E1D4C8"/>
<path d="M91.6926 22.7681C91.2822 22.4602 90.9743 21.9821 90.9395 21.4691L91.6228 21.4014C91.6577 21.7092 91.828 22.017 92.103 22.2222L91.6926 22.7681Z" fill="#E1D4C8"/>
<path d="M93.5376 24.0666C93.5048 23.6562 93.5376 23.2458 93.6402 22.8374L94.3256 22.9728C94.2559 23.3155 94.223 23.6562 94.2559 23.9989L93.5376 24.0666Z" fill="#E1D4C8"/>
<path d="M98.7033 29.3342C98.4981 29.2644 98.2929 29.2644 98.0528 29.2993L97.9502 28.616C98.258 28.5462 98.6007 28.5811 98.9085 28.6837L98.7033 29.3342Z" fill="#E1D4C8"/>
<path d="M95.8983 30.4283C95.7957 30.1205 95.7957 29.7778 95.8305 29.47L96.5139 29.5726C96.479 29.7778 96.479 30.0179 96.5488 30.2231L95.8983 30.4283Z" fill="#E1D4C8"/>
<path d="M98.3564 31.4581L98.537 30.7974L99.4933 31.058L99.3127 31.7187L98.3564 31.4581Z" fill="#E1D4C8"/>
<path d="M94.2754 35.6139L94.3616 34.832L95.0408 34.908L94.9546 35.6898L94.2754 35.6139Z" fill="#E1D4C8"/>
<path d="M96.7542 32.9586C96.5141 32.6856 96.3766 32.3778 96.3438 32.0351L97.0271 32.0002C97.0271 32.2055 97.1297 32.3778 97.2323 32.5133L96.7542 32.9586Z" fill="#E1D4C8"/>
<path d="M100.958 32.3428H101.643V33.3011H100.958V32.3428Z" fill="#E1D4C8"/>
<path d="M101.061 36.5827C100.788 36.4473 100.515 36.3447 100.207 36.2749L100.345 35.5916C100.72 35.6593 101.061 35.7968 101.403 35.9671L101.061 36.5827Z" fill="#E1D4C8"/>
<path d="M95.3232 39.275L95.7665 38.3865L96.378 38.6922L95.9348 39.5808L95.3232 39.275Z" fill="#E1D4C8"/>
<path d="M92.998 39.1745L93.4126 38.4666L94.0015 38.8113L93.587 39.5193L92.998 39.1745Z" fill="#E1D4C8"/>
<path d="M96.4117 37.5756C96.2762 37.5756 96.1736 37.5756 96.0361 37.5407L96.1387 36.8574C96.4117 36.8902 96.6846 36.8902 96.9596 36.7876L97.1648 37.4381C96.8898 37.5407 96.6518 37.5756 96.4117 37.5756Z" fill="#E1D4C8"/>
<path d="M101.677 40.6193C101.609 40.4469 101.439 40.3115 101.233 40.2766L101.369 39.5933C101.779 39.661 102.122 39.9339 102.292 40.3115L101.677 40.6193Z" fill="#E1D4C8"/>
<path d="M99.1279 42.6256L99.2203 41.5708L99.9016 41.6283L99.8092 42.6851L99.1279 42.6256Z" fill="#E1D4C8"/>
<path d="M101.503 42.7227L101.985 42.2405L102.687 42.9402L102.203 43.4245L101.503 42.7227Z" fill="#E1D4C8"/>
<path d="M95.5895 44.3109L95.0088 43.9702C95.1114 43.7978 95.1463 43.5926 95.1114 43.3874L95.7947 43.2869C95.8645 43.6275 95.7947 44.003 95.5895 44.3109Z" fill="#E1D4C8"/>
<path d="M91.7295 43.9944L92.6776 42.8699L93.2008 43.3111L92.2528 44.4356L91.7295 43.9944Z" fill="#E1D4C8"/>
<path d="M94.5156 42.0904L94.6777 41.4255L95.3754 41.5959L95.2133 42.2587L94.5156 42.0904Z" fill="#E1D4C8"/>
<path d="M94.4293 46.0225C94.1543 45.9527 93.8814 45.9199 93.6085 45.9527L93.5059 45.2694C93.8814 45.2016 94.2569 45.2345 94.5996 45.3371L94.4293 46.0225Z" fill="#E1D4C8"/>
<path d="M92.0605 47.0417L92.4279 46.4651L93.1194 46.9042L92.7521 47.4829L92.0605 47.0417Z" fill="#E1D4C8"/>
<path d="M96.1735 47.0482C96.1386 46.8759 96.0011 46.6706 95.7959 46.6378L95.9683 45.9873C96.4115 46.0899 96.7871 46.5003 96.8568 46.9785L96.1735 47.0482Z" fill="#E1D4C8"/>
<path d="M95.7783 49.8659L95.8399 49.1846L96.7941 49.2708L96.7325 49.952L95.7783 49.8659Z" fill="#E1D4C8"/>
<path d="M100.685 45.2013C100.547 44.9961 100.309 44.8586 100.069 44.8237L100.139 44.1404C100.582 44.1753 101.028 44.4133 101.266 44.7909L100.685 45.2013Z" fill="#E1D4C8"/>
<path d="M104.379 46.6708C104.139 46.4327 103.934 46.1577 103.764 45.8499L104.344 45.5093C104.482 45.7473 104.652 45.9874 104.857 46.1577L104.379 46.6708Z" fill="#E1D4C8"/>
<path d="M101.712 47.9367L101.097 47.6289C101.267 47.2862 101.337 46.9456 101.337 46.568L102.02 46.5352C102.02 47.0482 101.918 47.5263 101.712 47.9367Z" fill="#E1D4C8"/>
<path d="M104.004 49.0307C103.866 48.7906 103.661 48.5854 103.456 48.4151L103.866 47.8672C104.139 48.0724 104.379 48.3474 104.585 48.6552L104.004 49.0307Z" fill="#E1D4C8"/>
<path d="M102.112 49.5864L102.792 49.5063L102.886 50.2861L102.207 50.3682L102.112 49.5864Z" fill="#E1D4C8"/>
<path d="M97.9531 51.2491L98.737 50.9084L99.0099 51.5343L98.2261 51.875L97.9531 51.2491Z" fill="#E1D4C8"/>
<path d="M97.8838 54.2469L98.1157 53.6025L99.0802 53.9534L98.8462 54.5957L97.8838 54.2469Z" fill="#E1D4C8"/>
<path d="M93.8145 48.5628L94.0812 47.7871L94.7276 48.0087L94.4609 48.7844L93.8145 48.5628Z" fill="#E1D4C8"/>
<path d="M102.303 53.0383L102.45 52.3713L103.253 52.5478L103.103 53.2168L102.303 53.0383Z" fill="#E1D4C8"/>
<path d="M99.1201 45.9608L99.7809 45.7864L100.06 46.8453L99.3992 47.0197L99.1201 45.9608Z" fill="#E1D4C8"/>
<path d="M103.86 50.8079L104.488 50.5391L104.745 51.1362L104.117 51.405L103.86 50.8079Z" fill="#E1D4C8"/>
<path d="M99.0111 34.6349L98.498 34.1896C98.7361 33.9495 98.8736 33.6088 98.9085 33.2661L99.5918 33.3338C99.5241 33.814 99.3189 34.2922 99.0111 34.6349Z" fill="#E1D4C8"/>
<path d="M89.5537 30.3443L90.0914 30.252L90.2083 30.925L89.6686 31.0174L89.5537 30.3443Z" fill="#E1D4C8"/>
<path d="M96.1221 51.3782L96.83 51.2654L96.9367 51.9426L96.2288 52.0534L96.1221 51.3782Z" fill="#0C776D"/>
<path d="M100.451 85.8961L101.229 85.0302L101.738 85.4878L100.96 86.3517L100.451 85.8961Z" fill="#0C776D"/>
<path d="M104.857 84.6953C104.549 84.4224 104.071 84.2849 103.661 84.3875L103.523 83.7041C104.174 83.5687 104.857 83.739 105.335 84.1843L104.857 84.6953Z" fill="#0C776D"/>
<path d="M99.7286 89.5181L99.0781 89.3477C99.2156 88.8676 99.3859 88.3894 99.626 87.979L100.242 88.3217C100.002 88.6972 99.8312 89.1076 99.7286 89.5181Z" fill="#0C776D"/>
<path d="M91.4385 86.873L93.0104 86.8217L93.0329 87.505L91.461 87.5563L91.4385 86.873Z" fill="#0C776D"/>
<path d="M89.196 90.0663L89.1611 89.3809C89.7768 89.348 90.3595 89.2783 90.9752 89.1757L91.1106 89.8611C90.4622 89.9288 89.8116 89.9965 89.196 90.0663Z" fill="#0C776D"/>
<path d="M95.1794 84.9009L94.1533 84.7655C94.2559 84.1847 94.2559 83.602 94.2231 83.0561L95.2491 82.9863C95.3169 83.602 95.282 84.2525 95.1794 84.9009Z" fill="#0C776D"/>
<path d="M97.7443 81.8251C97.299 81.6527 96.8557 81.4824 96.4453 81.2423L96.9583 80.3538C97.299 80.559 97.6766 80.7293 98.087 80.8668L97.7443 81.8251Z" fill="#0C776D"/>
<path d="M96.582 92.4589L95.5581 92.3912C95.5909 91.8433 95.5581 91.2975 95.4883 90.7495L96.5143 90.5792C96.582 91.1948 96.6169 91.8105 96.582 92.4589Z" fill="#0C776D"/>
<path d="M91.9785 93.8579L93.4519 93.308L93.811 94.2684L92.3376 94.8204L91.9785 93.8579Z" fill="#0C776D"/>
<path d="M107.083 84.1871L107.623 83.3149L108.932 84.1255L108.39 84.9976L107.083 84.1871Z" fill="#0C776D"/>
<path d="M110.398 85.3464H111.424V86.235H110.398V85.3464Z" fill="#0C776D"/>
<path d="M105.063 82.2499L105.685 81.308L106.541 81.8744L105.919 82.8163L105.063 82.2499Z" fill="#0C776D"/>
<path d="M101.301 78.9173C100.958 78.747 100.618 78.6095 100.242 78.5069L100.447 77.5157C100.926 77.6184 101.369 77.7887 101.814 78.0288L101.301 78.9173Z" fill="#0C776D"/>
<path d="M98.6679 77.7881L97.6768 77.55C97.7794 77.0699 97.9846 76.6266 98.2924 76.249L99.1132 76.8318C98.908 77.1047 98.7356 77.4474 98.6679 77.7881Z" fill="#0C776D"/>
<path d="M104.108 77.6035L104.451 76.637L105.935 77.1623L105.592 78.1288L104.108 77.6035Z" fill="#0C776D"/>
<path d="M102.737 76.5921L101.813 76.1139C101.984 75.8061 102.086 75.4634 102.121 75.0879L103.147 75.1556C103.112 75.6686 102.977 76.1468 102.737 76.5921Z" fill="#0C776D"/>
<path d="M109.235 77.9938C108.824 77.7209 108.346 77.5157 107.868 77.3454L108.176 76.3522C108.757 76.5245 109.27 76.7975 109.783 77.1053L109.235 77.9938Z" fill="#0C776D"/>
<path d="M112.244 76.3189L111.286 76.0111C111.424 75.5658 111.629 75.1902 111.937 74.8147L112.755 75.4632C112.517 75.7032 112.347 76.0111 112.244 76.3189Z" fill="#0C776D"/>
<path d="M114.046 77.9136L114.229 77.0455L115.234 77.2569L115.049 78.127L114.046 77.9136Z" fill="#0C776D"/>
<path d="M112.004 82.986C111.764 82.7131 111.389 82.5756 111.046 82.6105L110.943 81.5844C111.629 81.5167 112.312 81.7896 112.755 82.3026L112.004 82.986Z" fill="#0C776D"/>
<path d="M115.023 85.8754L115.208 84.3815L116.228 84.5087L116.041 86.0026L115.023 85.8754Z" fill="#0C776D"/>
<path d="M115.218 82.4406L115.013 81.4474C115.526 81.3448 116.039 81.3119 116.552 81.3448L116.484 82.3708C116.039 82.338 115.628 82.338 115.218 82.4406Z" fill="#0C776D"/>
<path d="M119.357 82.6457L118.364 82.4405C118.467 81.8926 118.742 81.3796 119.117 81.004L119.87 81.7223C119.63 81.9603 119.425 82.303 119.357 82.6457Z" fill="#0C776D"/>
<path d="M117.25 75.7876L117.956 75.4387L118.411 76.356L117.706 76.7069L117.25 75.7876Z" fill="#0C776D"/>
<path d="M115.048 74.1293L114.808 73.1382C115.218 73.0356 115.596 73.0007 116.006 73.0356L115.936 74.0616C115.628 74.0267 115.356 74.0616 115.048 74.1293Z" fill="#0C776D"/>
<path d="M118.706 71.2917H119.732V72.5907H118.706V71.2917Z" fill="#0C776D"/>
<path d="M119.925 73.5631L120.801 73.4133L120.973 74.425L120.097 74.5748L119.925 73.5631Z" fill="#0C776D"/>
<path d="M122.571 71.6345C122.023 71.3615 121.613 70.8814 121.442 70.3006L122.434 69.9928C122.536 70.3006 122.741 70.5735 123.016 70.711L122.571 71.6345Z" fill="#0C776D"/>
<path d="M124.2 72.0258L125.161 71.1516L125.852 71.9109L124.89 72.7851L124.2 72.0258Z" fill="#0C776D"/>
<path d="M123.754 69.8942L124.238 68.9893L125.203 69.5064L124.718 70.4114L123.754 69.8942Z" fill="#0C776D"/>
<path d="M128.186 71.1522L128.586 70.2083L129.624 70.6453L129.226 71.5914L128.186 71.1522Z" fill="#0C776D"/>
<path d="M126.019 69.7726L127.038 69.668L127.131 70.5524L126.109 70.6571L126.019 69.7726Z" fill="#0C776D"/>
<path d="M124.109 78.4735L123.391 77.7204C123.631 77.4803 123.801 77.1397 123.836 76.797L124.862 76.9345C124.792 77.5152 124.519 78.0631 124.109 78.4735Z" fill="#0C776D"/>
<path d="M128.419 78.9522C128.144 78.6444 127.768 78.3714 127.393 78.234L127.768 77.2756C128.316 77.4808 128.794 77.8584 129.17 78.2688L128.419 78.9522Z" fill="#0C776D"/>
<path d="M121.339 80.0803C121.066 79.6699 121.031 79.1569 121.201 78.7115L122.16 79.0891C122.092 79.2246 122.125 79.3969 122.195 79.4995L121.339 80.0803Z" fill="#0C776D"/>
<path d="M127.462 76.0441C127.154 75.9087 126.778 75.8738 126.436 75.9764L126.128 74.9852C126.709 74.8149 127.359 74.8478 127.907 75.1227L127.462 76.0441Z" fill="#0C776D"/>
<path d="M130.777 79.0897C130.572 78.8147 130.299 78.5418 130.026 78.3715L130.607 77.5157C131.018 77.7887 131.36 78.0965 131.633 78.5069L130.777 79.0897Z" fill="#0C776D"/>
<path d="M131.053 76.9001C130.778 76.7626 130.505 76.6949 130.197 76.6949L130.265 75.6688C130.71 75.7037 131.121 75.8063 131.496 75.9766L131.053 76.9001Z" fill="#0C776D"/>
<path d="M134.192 76.8301L134.97 75.7897L135.793 76.4032L135.015 77.4437L134.192 76.8301Z" fill="#0C776D"/>
<path d="M132.52 78.5066C132.282 78.0634 132.213 77.5155 132.35 77.0024L133.341 77.2425C133.274 77.5155 133.306 77.7884 133.444 78.0285L132.52 78.5066Z" fill="#0C776D"/>
<path d="M131.771 73.0355C131.531 72.8981 131.291 72.7954 131.018 72.7626L131.188 71.7366C131.598 71.8043 132.009 71.9418 132.351 72.1798L131.771 73.0355Z" fill="#0C776D"/>
<path d="M134.574 73.8219H135.36V74.8479H134.574V73.8219Z" fill="#0C776D"/>
<path d="M102.188 87.5358H103.215V88.6624H102.188V87.5358Z" fill="#0C776D"/>
<path d="M95.1504 80.2342L95.2448 78.9393L96.2688 79.0132L96.1723 80.3101L95.1504 80.2342Z" fill="#0C776D"/>
<path d="M87.3799 91.4227L88.3649 91.1395L88.6953 92.2887L87.7103 92.5719L87.3799 91.4227Z" fill="#0C776D"/>
</g>
<rect x="2" y="2" width="193" height="193" rx="96.5" stroke="#087661" stroke-width="4"/>
<defs>
<clipPath id="clip0_935_151">
<rect width="197" height="197" rx="98.5" fill="white"/>
</clipPath>
</defs>
</svg>
