<svg width="197" height="197" viewBox="0 0 197 197" fill="none" xmlns="http://www.w3.org/2000/svg">
<g clip-path="url(#clip0_935_788)">
<path d="M216.7 -19.7H-19.7002V216.7H216.7V-19.7Z" fill="white"/>
<path d="M216.7 -19.7H-19.7002V216.7H216.7V-19.7Z" fill="#F8F2EC"/>
<path d="M152.763 70.4561C148.977 70.3884 145.975 69.6886 142.757 71.1559C144.007 70.5895 141.056 64.5174 137.869 61.7491C129.597 54.5607 116.29 53.4772 105.982 52.9108C91.2377 52.0756 76.2944 53.2432 61.6015 54.3288C53.1284 54.9608 43.9392 55.3795 35.934 58.4802C23.6934 63.2348 25.6613 76.3764 26.6935 87.1827C29.7121 118.922 52.5457 144.922 84.433 144.922C107.133 144.922 125.544 131.764 135.136 112.717C139.57 117.071 145.659 119.755 152.38 119.755C166.155 119.755 177.298 108.448 177.013 94.605C176.746 81.4122 165.956 70.6716 152.763 70.4561ZM153.248 111.717C147.175 112.033 141.756 109.066 138.62 104.445C140.488 98.9924 141.707 93.187 142.156 87.1827C142.306 85.266 142.423 83.4479 142.474 81.7303C145.242 79.6782 148.661 78.4777 152.363 78.4777C161.77 78.4777 169.358 86.2838 168.991 95.7727C168.659 104.295 161.77 111.282 153.248 111.717Z" fill="#087661"/>
<path d="M139.338 68.7878C139.338 75.8922 114.67 81.6298 84.2503 81.6298C53.8302 81.6298 29.1621 75.8757 29.1621 68.7878C29.1621 59.3975 53.8466 56.7134 84.2503 55.9459C119.441 55.045 139.338 61.6999 139.338 68.7878Z" fill="#C8B8AA"/>
</g>
<rect x="2" y="2" width="193" height="193" rx="96.5" stroke="#087661" stroke-width="4"/>
<defs>
<clipPath id="clip0_935_788">
<rect width="197" height="197" rx="98.5" fill="white"/>
</clipPath>
</defs>
</svg>
