<svg width="198" height="197" viewBox="0 0 198 197" fill="none" xmlns="http://www.w3.org/2000/svg">
<g clip-path="url(#clip0_935_414)">
<path d="M217.8 -19.7H-19.7998V216.7H217.8V-19.7Z" fill="white"/>
<path d="M217.8 -19.7H-19.7998V216.7H217.8V-19.7Z" fill="#F8F2EC"/>
<mask id="mask0_935_414" style="mask-type:luminance" maskUnits="userSpaceOnUse" x="27" y="49" width="144" height="99">
<path d="M27.584 49.5352H170.54V147.619H27.584V49.5352Z" fill="white"/>
</mask>
<g mask="url(#mask0_935_414)">
<path d="M170.414 136.492C170.416 136.562 170.414 136.63 170.414 136.699C170.412 136.794 170.41 136.888 170.404 136.981C170.398 137.067 170.392 137.151 170.383 137.235C170.377 137.29 170.367 137.344 170.361 137.397C170.336 137.565 170.305 137.732 170.266 137.894C170.256 137.931 170.247 137.968 170.237 138.003C170.157 138.3 170.049 138.583 169.915 138.848C169.89 138.897 169.864 138.944 169.839 138.992C169.789 139.08 169.738 139.166 169.682 139.25C169.626 139.338 169.565 139.423 169.501 139.505C169.484 139.527 169.472 139.552 169.453 139.572C169.428 139.603 169.402 139.628 169.377 139.657C169.336 139.704 169.294 139.751 169.251 139.796C169.21 139.837 169.173 139.878 169.131 139.917C169.055 139.989 168.977 140.057 168.896 140.122C168.884 140.133 168.87 140.145 168.857 140.155C168.771 140.223 168.68 140.287 168.587 140.346C168.583 140.348 168.579 140.35 168.575 140.354L158.252 146.872C157.652 147.249 156.963 147.442 156.206 147.442H50.845C50.7275 147.442 50.612 147.432 50.4944 147.422C50.4635 147.434 50.4305 147.442 50.3975 147.442C50.3438 147.442 50.2923 147.426 50.2448 147.397C47.8049 147.065 45.4805 144.772 44.8988 141.996L28.0358 61.6281C27.5883 59.4981 28.2442 57.5876 29.7457 56.6395L40.0664 50.1221C40.0747 50.1159 40.0829 50.1118 40.0912 50.1077C40.0953 50.1057 40.0994 50.1036 40.1035 50.1016C40.12 50.0913 40.1386 50.0811 40.1572 50.0708C40.25 50.0133 40.3469 49.9641 40.4459 49.9169C40.4624 49.9087 40.4789 49.9005 40.4975 49.8923C40.613 49.8389 40.7326 49.7917 40.8543 49.7507C40.8584 49.7486 40.8646 49.7466 40.8708 49.7445C41.1203 49.6624 41.3823 49.607 41.6525 49.5762C41.6731 49.5742 41.6958 49.5721 41.7164 49.5701C41.8463 49.5578 41.9783 49.5496 42.1145 49.5496H147.473C149.443 49.5496 151.423 50.9019 152.568 52.8288C152.961 53.4937 153.258 54.2242 153.421 54.9958L170.284 135.364C170.322 135.54 170.346 135.714 170.369 135.889C170.375 135.938 170.381 135.987 170.385 136.039C170.4 136.191 170.412 136.342 170.414 136.492Z" fill="#0B5648"/>
</g>
<path d="M42.1138 50.116C41.1135 50.116 40.2307 50.5223 39.6285 51.259C38.8695 52.1865 38.6096 53.5491 38.9128 54.9958L55.7758 135.364C56.3553 138.12 58.7726 140.36 61.1672 140.36H75.1344L75.2478 121.791C75.252 121.018 75.4644 120.342 75.8295 119.817C76.341 119.08 77.1536 118.637 78.1415 118.637H140.437C142.075 118.637 143.752 119.891 144.515 121.684L152.466 140.36H166.528C167.528 140.36 168.409 139.954 169.011 139.217C169.77 138.29 170.032 136.927 169.727 135.479L152.864 55.1107C152.286 52.3568 149.867 50.116 147.472 50.116H42.1138ZM147.347 53.1633C147.644 52.8001 148.073 52.601 148.559 52.601C149.611 52.601 150.669 53.5614 150.919 54.7414C151.053 55.3857 150.929 56.0034 150.577 56.4343C150.28 56.7976 149.848 56.9966 149.364 56.9966C148.293 56.9966 147.258 56.0567 147.006 54.8563C146.87 54.2119 146.994 53.5942 147.347 53.1633ZM44.3227 56.4343C44.0278 56.7976 43.5967 56.9966 43.11 56.9966C42.0395 56.9966 41.0042 56.0567 40.7525 54.8563C40.6164 54.2119 40.7402 53.5942 41.0928 53.1633C41.3898 52.8001 41.8209 52.601 42.3077 52.601C43.376 52.601 44.4114 53.5409 44.663 54.7414C44.7992 55.3857 44.6754 56.0034 44.3227 56.4343ZM61.293 137.313C61.2703 137.342 61.2435 137.366 61.2187 137.393C60.9279 137.703 60.5278 137.875 60.0802 137.875C59.0098 137.875 57.9744 136.933 57.7228 135.733C57.7145 135.698 57.7104 135.663 57.7042 135.628C57.698 135.583 57.6877 135.538 57.6836 135.493C57.6217 134.937 57.7558 134.418 58.0631 134.04C58.3601 133.679 58.7912 133.478 59.2779 133.478C60.3463 133.478 61.3817 134.418 61.6333 135.618C61.7694 136.264 61.6457 136.882 61.293 137.313ZM71.4982 135.173C70.6505 136.209 69.4151 136.78 68.0188 136.78C64.8528 136.78 61.6642 133.859 60.9093 130.266C60.5051 128.339 60.866 126.509 61.8993 125.245C62.0045 125.116 62.118 124.992 62.2335 124.877C63.0564 124.073 64.1557 123.636 65.3788 123.636C68.5447 123.636 71.7333 126.558 72.4862 130.151C72.5398 130.408 72.579 130.662 72.6058 130.915C72.7811 132.554 72.3933 134.077 71.4982 135.173ZM59.1768 113.878C57.696 113.878 56.2068 112.522 55.8583 110.854L45.0446 59.3155C44.8548 58.4105 45.026 57.5486 45.5148 56.9494C45.9232 56.4507 46.5172 56.1758 47.1875 56.1758H145.179C146.66 56.1758 148.147 57.5322 148.498 59.2005L159.311 110.739C159.501 111.642 159.33 112.505 158.839 113.105C158.431 113.603 157.839 113.878 157.168 113.878H59.1768ZM164.317 134.04C164.612 133.679 165.043 133.478 165.53 133.478C166.582 133.478 167.64 134.438 167.887 135.618C168.023 136.262 167.899 136.88 167.547 137.311C167.25 137.674 166.819 137.875 166.334 137.875C165.264 137.875 164.228 136.933 163.977 135.733C163.925 135.491 163.911 135.253 163.931 135.027C163.966 134.652 164.096 134.311 164.317 134.04ZM162.405 130.151C162.809 132.078 162.448 133.909 161.417 135.173C160.569 136.209 159.334 136.78 157.938 136.78C154.772 136.78 151.583 133.857 150.83 130.266C150.426 128.339 150.785 126.509 151.818 125.245C152.666 124.208 153.901 123.636 155.298 123.636C158.464 123.636 161.65 126.558 162.405 130.151Z" fill="#087661"/>
<path d="M97.8263 96.9528H94.6831C93.5343 96.9528 92.371 95.8673 92.0905 94.5355L89.6856 83.0725C89.5413 82.383 89.663 81.7346 90.0198 81.2995C90.3003 80.9548 90.6983 80.7722 91.1686 80.7722H94.3902C95.902 83.3455 96.9704 86.0871 97.5644 88.9189C98.1501 91.7118 98.2388 94.4144 97.8263 96.9528ZM146.943 72.7013C146.658 73.0481 146.256 73.2328 145.782 73.2328H53.7425C52.5833 73.2328 51.4118 72.139 51.1293 70.7949L49.337 62.248C49.1905 61.5503 49.3122 60.8977 49.6731 60.4565C49.9557 60.1097 50.3579 59.925 50.8323 59.925H142.869C144.03 59.925 145.202 61.0188 145.485 62.3629L147.279 70.9099C147.423 71.6076 147.302 72.2601 146.943 72.7013ZM55.0645 63.0175H140.547C140.704 63.0175 140.829 62.8903 140.829 62.7344C140.829 62.5784 140.704 62.4532 140.547 62.4532H55.0645C54.9078 62.4532 54.7799 62.5784 54.7799 62.7344C54.7799 62.8903 54.9078 63.0175 55.0645 63.0175ZM56.4732 66.8611H141.956C142.112 66.8611 142.24 66.7359 142.24 66.58C142.24 66.424 142.112 66.2968 141.956 66.2968H56.4732C56.3165 66.2968 56.1906 66.424 56.1906 66.58C56.1906 66.7359 56.3165 66.8611 56.4732 66.8611ZM143.649 70.4235C143.649 70.2675 143.523 70.1403 143.366 70.1403H57.884C57.7272 70.1403 57.5993 70.2675 57.5993 70.4235C57.5993 70.5795 57.7272 70.7067 57.884 70.7067H143.366C143.523 70.7067 143.649 70.5795 143.649 70.4235ZM111.282 80.7722H108.139C107.726 83.3085 107.815 86.0091 108.401 88.804C108.997 91.64 110.063 94.3795 111.575 96.9528H114.797C114.914 96.9528 115.026 96.9405 115.133 96.918C115.296 96.8851 115.444 96.8256 115.58 96.7435C115.716 96.6614 115.838 96.5547 115.945 96.4255C116.302 95.9884 116.424 95.342 116.277 94.6504L113.873 83.1875C113.592 81.8557 112.431 80.7722 111.282 80.7722Z" fill="#F8F2EC"/>
<path d="M50.8156 138.116L34.5982 60.8362L39.0428 58.3819L55.2211 135.479C55.7347 137.933 57.6115 140.012 59.7256 140.691L55.6604 143.361C53.4267 142.874 51.3601 140.709 50.8156 138.116ZM34.4785 60.2575L38.9212 57.8011L38.3581 55.1108C38.09 53.8386 38.2282 52.6217 38.719 51.6428L33.3772 55.0144L34.4785 60.2575ZM28.5901 61.5133L28.9655 63.3007L33.9588 60.5427L32.8657 55.3366L30.0483 57.1157C28.751 57.9345 28.192 59.6193 28.5901 61.5133ZM161.691 144.03H56.5885C56.3204 144.03 56.0543 143.999 55.7883 143.954L51.3415 146.878H156.203C156.853 146.878 157.439 146.716 157.946 146.396L161.691 144.03ZM50.3598 146.845L55.0334 143.773C52.7915 143.045 50.8073 140.837 50.2608 138.23L34.0805 61.1234L29.0872 63.8814L45.4531 141.881C45.9914 144.45 48.1323 146.57 50.3598 146.845ZM166.528 140.925H152.28C152.278 140.925 152.278 140.925 152.278 140.925H61.1673C60.9404 140.925 60.7135 140.9 60.4867 140.865L56.539 143.461C56.5555 143.461 56.572 143.465 56.5885 143.465H162.587L166.617 140.921C166.588 140.921 166.557 140.925 166.528 140.925ZM159.435 133.205C159.66 132.932 159.827 132.612 159.938 132.257C160.122 131.664 160.147 130.978 159.996 130.266C159.567 128.227 157.863 126.542 156.096 126.339C155.978 126.324 155.859 126.318 155.741 126.318C155.644 126.318 155.547 126.322 155.452 126.333C154.79 126.402 154.213 126.706 153.8 127.211C153.204 127.939 153 129.013 153.239 130.151C153.697 132.329 155.605 134.1 157.492 134.1C158.276 134.1 158.965 133.782 159.435 133.205ZM74.953 93.1011L75.4955 92.2884C75.6935 91.9929 76.1451 91.9663 76.4401 92.2392L77.5889 93.296C77.7621 93.4561 77.857 93.6797 77.857 93.8932C77.857 93.9342 77.8529 93.9773 77.8467 94.0183C77.8323 94.1004 77.8013 94.1784 77.756 94.2482L77.1558 95.147C78.0055 95.7236 78.9171 96.1279 79.8205 96.3351L79.573 95.1511C79.5297 94.9459 79.573 94.7448 79.6906 94.5991C79.7978 94.4678 79.9525 94.3959 80.1278 94.3959H81.4375C81.7758 94.3959 82.0893 94.6709 82.1676 95.0362L82.4461 96.3618C83.2628 96.173 84.0033 95.7852 84.6138 95.227L83.6052 94.2995C83.3288 94.0409 83.2546 93.6243 83.4361 93.3494L84.1435 92.2905C84.3415 91.995 84.7932 91.9663 85.0882 92.2392L86.0121 93.0887C86.3174 92.2474 86.4515 91.2973 86.404 90.3082H85.2655C85.0531 90.3082 84.851 90.1994 84.7107 90.0311C84.6839 89.9963 84.6571 89.9593 84.6344 89.9224C84.589 89.8444 84.556 89.7582 84.5375 89.6679L84.2219 88.172C84.1786 87.9668 84.2219 87.7636 84.3415 87.6199C84.4488 87.4886 84.6035 87.4168 84.7767 87.4168H85.777C85.3934 86.4215 84.8448 85.4673 84.1703 84.6219L83.6279 85.4345C83.4278 85.732 82.9803 85.7567 82.6853 85.4878L81.5345 84.429C81.2581 84.1704 81.1838 83.7538 81.3653 83.4788L81.9676 82.5759C81.1178 82.0013 80.2083 81.595 79.3028 81.3878L79.5524 82.5739C79.5957 82.7791 79.5524 82.9802 79.4328 83.1238C79.3255 83.2552 79.1708 83.329 78.9955 83.329H77.6858C77.3517 83.329 77.032 83.0479 76.9578 82.6888L76.6793 81.3611C75.8605 81.5499 75.1201 81.9398 74.5096 82.4979L75.5161 83.4255C75.7945 83.6799 75.8688 84.0986 75.6873 84.3756L74.9798 85.4365C74.7798 85.732 74.3302 85.7567 74.0352 85.4878L73.1112 84.6342C72.806 85.4776 72.6719 86.4256 72.7193 87.4168H73.8578C74.1961 87.4168 74.5096 87.6918 74.5859 88.057L74.9015 89.553C74.9448 89.7582 74.9015 89.9593 74.7818 90.105C74.6746 90.2364 74.5199 90.3082 74.3446 90.3082H73.3463C73.7279 91.3014 74.2786 92.2556 74.953 93.1011ZM139.998 100.162C139.637 100.608 139.126 100.842 138.521 100.842H72.5873C71.1333 100.842 69.6627 99.4728 69.31 97.7901L65.5398 79.8179C65.3562 78.9396 65.5109 78.1168 65.9667 77.5586C66.3276 77.1153 66.8391 76.8814 67.4414 76.8814H133.375C134.832 76.8814 136.302 78.2501 136.655 79.9328L140.427 97.907C140.611 98.7833 140.454 99.6041 139.998 100.162ZM117.146 88.9189C117.676 91.445 118.954 93.7659 120.65 95.5759C121.858 96.8707 123.284 97.9029 124.8 98.5678C126.012 99.0973 127.283 99.3907 128.553 99.3907C128.691 99.3907 128.83 99.3886 128.966 99.3804C129.785 99.3394 130.564 99.1711 131.286 98.8859C132.369 98.457 133.322 97.7634 134.079 96.8379C135.731 94.8166 136.306 91.8883 135.659 88.804C134.446 83.0294 129.331 78.3322 124.253 78.3322C122.036 78.3322 120.072 79.2392 118.725 80.8871C117.075 82.9084 116.5 85.8346 117.146 88.9189ZM89.1306 83.1874L91.5355 94.6504C91.8655 96.2325 93.2783 97.5171 94.6829 97.5171H114.794C115.034 97.5171 115.263 97.4802 115.475 97.4104C115.547 97.3858 115.615 97.3591 115.683 97.3284C115.953 97.2032 116.191 97.0185 116.385 96.7825C116.442 96.7107 116.496 96.6348 116.545 96.5568C116.836 96.0848 116.956 95.4876 116.884 94.8556C116.873 94.7489 116.855 94.6422 116.832 94.5355L116.032 90.7145L114.427 83.0725C114.365 82.775 114.264 82.4897 114.134 82.2209C113.567 81.0553 112.42 80.2058 111.282 80.2058H91.1684C90.5311 80.2058 89.966 80.4684 89.5782 80.9425C89.1141 81.5109 88.9492 82.3297 89.1306 83.1874ZM70.0443 86.3005C70.0319 87.1521 70.1185 88.0324 70.3041 88.9189C70.564 90.1543 71.0054 91.3629 71.6159 92.5121C71.6592 92.5921 71.7025 92.6722 71.7458 92.7522C71.8325 92.9102 71.9232 93.0662 72.0181 93.2201C72.0655 93.2981 72.113 93.374 72.1604 93.4499C72.2573 93.6018 72.3563 93.7536 72.4574 93.9014C72.509 93.9753 72.5605 94.0491 72.6121 94.1209C72.7152 94.2666 72.8225 94.4123 72.9318 94.5519C72.9854 94.6237 73.0411 94.6935 73.0968 94.7632C73.4309 95.1778 73.7877 95.5759 74.161 95.9473C74.225 96.0089 74.2868 96.0704 74.3508 96.132C76.5473 98.2333 79.1626 99.3927 81.7118 99.3927C82.9267 99.3927 84.0569 99.126 85.0696 98.6027C85.1253 98.574 85.181 98.5432 85.2366 98.5145C86.1091 98.0302 86.8598 97.3673 87.4683 96.5404C87.5178 96.4726 87.5652 96.4029 87.6147 96.3331C87.6704 96.249 87.7281 96.1648 87.7818 96.0766C87.821 96.015 87.8581 95.9535 87.8952 95.8898C88.1159 95.5143 88.3098 95.108 88.4706 94.6873C88.4975 94.6176 88.5243 94.5457 88.549 94.4739C88.6006 94.3323 88.648 94.1866 88.6913 94.0389C88.712 93.9629 88.7346 93.8891 88.7532 93.8152C88.7945 93.6654 88.8295 93.5135 88.8625 93.3596C88.879 93.2816 88.8955 93.2057 88.91 93.1277C88.9388 92.9718 88.9636 92.8138 88.9863 92.6537C88.9966 92.5737 89.0069 92.4936 89.0151 92.4136C89.0605 92.0073 89.0832 91.5907 89.0791 91.1701C89.0729 90.3985 88.9863 89.6023 88.8192 88.804C87.7962 83.9324 83.993 79.8261 79.7793 78.6626C79.1564 78.4902 78.5232 78.3835 77.888 78.3466C77.7291 78.3384 77.5703 78.3322 77.4115 78.3322C75.1056 78.3322 73.0906 79.3049 71.7396 81.0718L71.6757 81.1579C71.5746 81.2954 71.4777 81.437 71.3849 81.5807C71.3148 81.6915 71.2467 81.8023 71.1807 81.9172C71.1415 81.9849 71.1023 82.0567 71.0652 82.1265C70.9951 82.2579 70.9291 82.3912 70.8672 82.5267C70.8404 82.5862 70.8115 82.6478 70.7868 82.7093C70.6898 82.9309 70.6032 83.1608 70.5248 83.3927C70.4856 83.5096 70.4506 83.6286 70.4155 83.7477C70.3186 84.0863 70.2402 84.4372 70.1804 84.7922L70.168 84.8681C70.1474 85.0035 70.1288 85.141 70.1123 85.2806C70.1 85.377 70.0917 85.4755 70.0835 85.572C70.069 85.7259 70.0608 85.8798 70.0525 86.0357C70.0484 86.124 70.0463 86.2122 70.0443 86.3005ZM131.93 92.2371L132.854 93.0887C133.006 92.666 133.116 92.2187 133.182 91.7528C133.215 91.5189 133.235 91.2809 133.245 91.0408C133.256 90.7986 133.256 90.5544 133.243 90.3082H132.105C131.767 90.3082 131.455 90.0311 131.377 89.6659L131.063 88.1699C131.02 87.9647 131.063 87.7636 131.183 87.6179C131.29 87.4866 131.445 87.4147 131.618 87.4147H132.618C132.235 86.4195 131.686 85.4673 131.01 84.6219L130.469 85.4345C130.269 85.732 129.82 85.7567 129.525 85.4878L128.376 84.4269C128.097 84.1704 128.025 83.7538 128.207 83.4768L128.809 82.5759C127.957 81.9993 127.048 81.595 126.144 81.3878L126.392 82.5739C126.435 82.7791 126.392 82.9781 126.274 83.1238C126.167 83.2552 126.012 83.327 125.837 83.327H124.527C124.187 83.327 123.873 83.0541 123.797 82.6888L123.519 81.3611C122.7 81.5499 121.959 81.9377 121.349 82.4959L122.358 83.4255C122.496 83.5527 122.584 83.721 122.615 83.8934C122.638 84.0206 122.628 84.1519 122.582 84.2668C122.568 84.3058 122.547 84.3428 122.525 84.3756L121.821 85.4345C121.621 85.732 121.172 85.7567 120.877 85.4878L119.953 84.6342C119.876 84.8455 119.81 85.0631 119.755 85.2847C119.701 85.5084 119.656 85.7361 119.625 85.9701C119.559 86.4359 119.536 86.9202 119.561 87.4168H120.697C121.038 87.4168 121.351 87.6918 121.427 88.057L121.741 89.553C121.784 89.7582 121.741 89.9593 121.621 90.105C121.541 90.2035 121.434 90.2692 121.312 90.2938C121.273 90.3041 121.229 90.3082 121.186 90.3082H120.186C120.569 91.3034 121.118 92.2577 121.794 93.1031L122.335 92.2905C122.533 91.995 122.985 91.9663 123.282 92.2392L124.428 93.296C124.707 93.5525 124.781 93.9711 124.595 94.2482L123.995 95.149C124.847 95.7236 125.757 96.1279 126.662 96.3372L126.412 95.1511C126.369 94.9459 126.412 94.7448 126.532 94.5991C126.639 94.4678 126.794 94.3959 126.967 94.3959H128.279C128.617 94.3959 128.931 94.6709 129.007 95.0362L129.285 96.3639C130.104 96.173 130.845 95.7852 131.455 95.227L130.447 94.2995C130.17 94.043 130.096 93.6264 130.278 93.3494L130.985 92.2905C131.183 91.9929 131.635 91.9663 131.93 92.2371ZM143.125 134.697C142.807 133.186 141.487 131.955 140.182 131.955C139.643 131.955 139.188 132.165 138.866 132.561C138.829 132.604 138.798 132.653 138.765 132.7C138.662 132.854 138.579 133.024 138.521 133.211C138.396 133.619 138.381 134.091 138.484 134.582C138.8 136.094 140.12 137.326 141.425 137.326C141.966 137.326 142.419 137.116 142.743 136.72C142.877 136.554 142.98 136.363 143.055 136.152C143.108 136.002 143.145 135.842 143.168 135.674C143.185 135.544 143.195 135.413 143.193 135.275C143.189 135.087 143.166 134.894 143.125 134.697ZM130.049 133.439C130.457 132.94 130.595 132.204 130.43 131.418C130.113 129.905 128.793 128.676 127.487 128.676C127.285 128.676 127.095 128.705 126.918 128.762C126.625 128.859 126.373 129.033 126.171 129.279C126.016 129.468 125.903 129.688 125.827 129.932C125.752 130.176 125.715 130.443 125.721 130.724C125.726 130.913 125.748 131.106 125.79 131.303C126.105 132.815 127.425 134.044 128.731 134.044C129.271 134.044 129.725 133.835 130.049 133.439ZM86.6928 134.697C86.3751 133.186 85.0531 131.955 83.7475 131.955C83.6815 131.955 83.6155 131.959 83.5495 131.965C83.4856 131.972 83.4216 131.982 83.3598 131.994C82.9906 132.072 82.673 132.263 82.4316 132.561C82.1264 132.934 81.9717 133.441 81.982 134.005C81.982 134.009 81.9841 134.016 81.9841 134.022C81.9882 134.204 82.0109 134.391 82.0501 134.582C82.3677 136.094 83.6877 137.323 84.9933 137.323C85.5316 137.323 85.9874 137.114 86.3112 136.72C86.4123 136.595 86.4968 136.455 86.5649 136.304C86.7691 135.85 86.8165 135.288 86.6928 134.697ZM95.0665 128.676C94.7303 128.676 94.4271 128.758 94.1673 128.916C94.0105 129.01 93.8703 129.132 93.7506 129.281C93.6475 129.404 93.563 129.544 93.4949 129.696C93.4619 129.772 93.431 129.852 93.4062 129.932C93.2804 130.338 93.2639 130.812 93.3691 131.303C93.6846 132.815 95.0067 134.044 96.3123 134.044C96.8506 134.044 97.3043 133.837 97.6282 133.441C98.0365 132.942 98.1747 132.206 98.0097 131.418C97.6921 129.905 96.3721 128.676 95.0665 128.676ZM63.3205 130.151C63.4051 130.56 63.5412 130.954 63.7206 131.325C63.7784 131.448 63.8423 131.569 63.9125 131.686C64.0486 131.922 64.2012 132.148 64.3683 132.357C65.2057 133.408 66.3937 134.1 67.5734 134.1C67.7693 134.1 67.9591 134.079 68.1406 134.04C68.6871 133.925 69.1636 133.638 69.5163 133.207C69.8133 132.842 70.0133 132.392 70.1103 131.892C70.2052 131.389 70.1969 130.837 70.0773 130.266C69.6194 128.089 67.7116 126.318 65.8223 126.318C65.6264 126.318 65.4366 126.339 65.2551 126.376C65.1644 126.396 65.0757 126.421 64.9891 126.449C64.8138 126.507 64.6488 126.583 64.4961 126.675C64.4178 126.722 64.3435 126.774 64.2713 126.829C64.129 126.94 63.997 127.067 63.8795 127.211C63.731 127.393 63.6072 127.597 63.5082 127.818C63.4092 128.038 63.335 128.276 63.2875 128.526C63.2401 128.779 63.2174 129.041 63.2236 129.314C63.2277 129.587 63.2607 129.866 63.3205 130.151Z" fill="#0B5648"/>
<path d="M150.307 55.7817C150.264 55.8904 150.208 55.991 150.136 56.0772C149.948 56.3091 149.68 56.4322 149.364 56.4322C148.566 56.4322 147.758 55.6729 147.562 54.7392C147.525 54.5607 147.512 54.3863 147.525 54.2221C147.545 53.9492 147.636 53.705 147.789 53.5203C147.976 53.2884 148.244 53.1653 148.56 53.1653C149.346 53.1653 150.171 53.9389 150.363 54.8562C150.433 55.1948 150.412 55.517 150.307 55.7817ZM161.999 131.565C162.003 131.772 161.995 131.978 161.979 132.179C161.979 132.181 161.979 132.183 161.979 132.185C161.962 132.386 161.935 132.583 161.898 132.774C161.898 132.776 161.898 132.778 161.898 132.78C161.861 132.973 161.814 133.16 161.758 133.342C161.756 133.344 161.756 133.344 161.756 133.346C161.698 133.527 161.632 133.705 161.556 133.876C161.556 133.876 161.556 133.876 161.554 133.878C161.477 134.048 161.391 134.212 161.296 134.368C161.296 134.368 161.296 134.368 161.294 134.368C161.199 134.526 161.092 134.676 160.976 134.816V134.818C160.24 135.719 159.161 136.215 157.938 136.215C155.028 136.215 152.089 133.494 151.388 130.151C151.016 128.391 151.336 126.732 152.26 125.6C152.388 125.446 152.526 125.308 152.673 125.177C153.376 124.547 154.286 124.202 155.298 124.202C158.21 124.202 161.15 126.923 161.851 130.266C161.851 130.27 161.851 130.272 161.851 130.274C161.896 130.49 161.931 130.703 161.956 130.917C161.956 130.919 161.956 130.923 161.956 130.927C161.981 131.138 161.995 131.35 161.999 131.557C161.999 131.559 161.999 131.561 161.999 131.565ZM160.661 131.114C160.657 130.802 160.622 130.478 160.553 130.151C160.52 129.999 160.483 129.85 160.438 129.702C159.774 127.488 157.753 125.754 155.742 125.754C154.787 125.754 153.939 126.144 153.359 126.854C152.831 127.5 152.561 128.362 152.576 129.304C152.578 129.46 152.588 129.62 152.607 129.78C152.623 129.942 152.65 130.104 152.685 130.266C153.192 132.692 155.35 134.664 157.493 134.664C157.971 134.664 158.423 134.565 158.827 134.379C159.229 134.194 159.586 133.917 159.877 133.562C160.405 132.917 160.675 132.056 160.661 131.114ZM110.748 96.6407C110.666 96.4909 110.583 96.3391 110.503 96.1893C110.406 96.0066 110.313 95.824 110.22 95.6414C110.144 95.4916 110.068 95.3397 109.993 95.1878C109.903 95.0032 109.818 94.8144 109.731 94.6276C109.663 94.4758 109.593 94.326 109.527 94.1721C109.445 93.9812 109.366 93.7883 109.286 93.5954C109.226 93.4456 109.162 93.2958 109.104 93.146C109.026 92.947 108.956 92.7459 108.882 92.5448C108.83 92.3991 108.774 92.2534 108.723 92.1056C108.653 91.8943 108.587 91.6829 108.519 91.4695C108.475 91.3299 108.428 91.1924 108.387 91.0529C108.316 90.8169 108.253 90.5789 108.191 90.3408C108.158 90.2239 108.125 90.1089 108.094 89.9899C108.005 89.6349 107.921 89.2778 107.846 88.9187C107.77 88.5576 107.702 88.1964 107.642 87.8393C107.624 87.7183 107.609 87.6013 107.59 87.4823C107.555 87.2442 107.518 87.0041 107.489 86.7682C107.473 86.6266 107.461 86.487 107.446 86.3475C107.423 86.1341 107.401 85.9206 107.384 85.7093C107.372 85.5595 107.368 85.4117 107.36 85.264C107.347 85.0629 107.335 84.8618 107.329 84.6607C107.324 84.5088 107.324 84.357 107.322 84.203C107.32 84.0101 107.318 83.8173 107.322 83.6264C107.324 83.4705 107.333 83.3186 107.337 83.1647C107.345 82.9759 107.351 82.7892 107.364 82.6024C107.374 82.4485 107.388 82.2946 107.403 82.1407C107.417 81.9581 107.434 81.7754 107.454 81.5948C107.473 81.4409 107.494 81.2891 107.516 81.1352C107.533 81.0141 107.545 80.891 107.564 80.772H95.0464C95.1041 80.8746 95.1598 80.9792 95.2176 81.0839C95.3001 81.2337 95.3826 81.3835 95.4651 81.5353C95.5599 81.7159 95.6528 81.8986 95.7456 82.0812C95.8219 82.233 95.9002 82.3849 95.9724 82.5368C96.0632 82.7214 96.1478 82.9082 96.2344 83.0949C96.3024 83.2468 96.3726 83.3986 96.4406 83.5525C96.5231 83.7434 96.6015 83.9342 96.6778 84.1251C96.7397 84.2769 96.8036 84.4288 96.8634 84.5806C96.9398 84.7776 97.0119 84.9767 97.0841 85.1757C97.1377 85.3235 97.1914 85.4712 97.2429 85.621C97.3151 85.8283 97.3811 86.0397 97.4471 86.251C97.4904 86.3906 97.5379 86.5301 97.5791 86.6717C97.6493 86.9056 97.7132 87.1416 97.7751 87.3776C97.8081 87.4966 97.8431 87.6136 97.872 87.7326C97.9627 88.0876 98.0452 88.4447 98.1216 88.8038C98.1958 89.165 98.2639 89.5241 98.3237 89.8832C98.3423 90.0022 98.3567 90.1192 98.3753 90.2382C98.4124 90.4763 98.4474 90.7164 98.4763 90.9523C98.4949 91.0939 98.5052 91.2335 98.5196 91.373C98.5423 91.5864 98.565 91.7999 98.5815 92.0133C98.5939 92.161 98.598 92.3088 98.6063 92.4565C98.6186 92.6576 98.631 92.8608 98.6372 93.0598C98.6413 93.2137 98.6413 93.3635 98.6434 93.5154C98.6454 93.7083 98.6475 93.9032 98.6434 94.0961C98.6413 94.25 98.6331 94.4019 98.6269 94.5558C98.6207 94.7446 98.6145 94.9313 98.6021 95.1201C98.5918 95.274 98.5774 95.4259 98.5629 95.5798C98.5464 95.7624 98.532 95.9451 98.5114 96.1277C98.4928 96.2816 98.4701 96.4335 98.4495 96.5874C98.433 96.7084 98.4206 96.8316 98.4021 96.9526H110.919C110.86 96.85 110.806 96.7433 110.748 96.6407ZM157.169 113.314H59.1774C57.9502 113.314 56.7127 112.159 56.4137 110.739L45.6 59.2005C45.4453 58.4617 45.5752 57.7722 45.9568 57.3064C46.2579 56.937 46.6849 56.74 47.1881 56.74H145.18C145.487 56.74 145.794 56.8139 146.087 56.9432C146.621 57.1812 147.108 57.6163 147.459 58.158C147.686 58.5069 147.855 58.8988 147.941 59.3154L158.757 110.853C158.833 111.223 158.84 111.58 158.78 111.902C158.718 112.226 158.59 112.516 158.398 112.748C158.097 113.117 157.672 113.314 157.169 113.314ZM140.982 97.7899L137.212 79.8177C136.806 77.8867 135.086 76.3148 133.376 76.3148H67.4419C66.6746 76.3148 65.994 76.6309 65.5258 77.2013C64.9627 77.8929 64.7647 78.8881 64.9834 79.9327L68.7557 97.9069C69.1599 99.8358 70.8801 101.406 72.5878 101.406H138.522C139.291 101.406 139.972 101.092 140.44 100.519C141.005 99.8276 141.201 98.8344 140.982 97.7899ZM147.834 70.7947L146.042 62.2478C145.708 60.6554 144.284 59.3605 142.87 59.3605H50.8326C50.1911 59.3605 49.6219 59.6232 49.2321 60.1013C48.8216 60.602 48.6442 61.2977 48.7288 62.0405C48.7391 62.1349 48.7556 62.2314 48.7742 62.3278C48.7762 62.3401 48.7783 62.3504 48.7804 62.3627L50.5747 70.9117C50.9089 72.5021 52.3299 73.7969 53.7427 73.7969H145.782C146.423 73.7969 146.993 73.5343 147.382 73.0561C147.851 72.4836 148.016 71.6587 147.834 70.7947ZM130.037 98.6723C129.917 98.699 129.797 98.7195 129.676 98.74C129.311 98.7975 128.937 98.8262 128.554 98.8262C128.253 98.8262 127.949 98.8077 127.65 98.7749C127.349 98.74 127.048 98.6887 126.749 98.623C126.302 98.5225 125.858 98.387 125.421 98.2167C125.13 98.1039 124.841 97.9766 124.557 97.8371C121.285 96.2159 118.536 92.7746 117.703 88.8038C117.09 85.8878 117.625 83.1319 119.167 81.2439C120.403 79.7295 122.21 78.8964 124.253 78.8964C126.665 78.8964 129.086 80.0209 131.051 81.8349C131.175 81.9499 131.295 82.0648 131.414 82.1838C131.771 82.5409 132.112 82.9184 132.431 83.3186C132.539 83.452 132.642 83.5874 132.745 83.7249C133.867 85.2414 134.704 87.0185 135.102 88.9187C135.715 91.8368 135.181 94.5927 133.638 96.4807C132.712 97.6155 131.464 98.3665 130.037 98.6723ZM133.172 93.7575C133.19 93.735 133.213 93.7165 133.223 93.6878C133.283 93.5544 133.339 93.4148 133.388 93.2753C133.419 93.1932 133.444 93.107 133.471 93.0229C133.675 92.3847 133.793 91.6973 133.817 90.9811C133.828 90.6589 133.819 90.3326 133.793 90.0022C133.78 89.8545 133.658 89.7416 133.51 89.7416H132.105C132.054 89.7416 131.957 89.6616 131.934 89.5508L131.621 88.0548C131.621 88.0528 131.621 88.0528 131.621 88.0507C131.612 88.0056 131.621 87.9809 131.619 87.9789H133.021C133.114 87.9789 133.199 87.9358 133.252 87.8619C133.279 87.825 133.295 87.7839 133.302 87.7388C133.31 87.6957 133.306 87.6505 133.291 87.6075C132.846 86.2941 132.124 85.0341 131.202 83.9629C131.144 83.8952 131.058 83.8583 130.969 83.8645C130.88 83.8706 130.798 83.9178 130.748 83.9917L130.544 84.2995L130.002 85.1162C129.983 85.1162 129.948 85.1039 129.911 85.0711L128.762 84.0143C128.675 83.9322 128.661 83.8193 128.682 83.7885L129.437 82.6578C129.521 82.5326 129.488 82.3623 129.366 82.272C128.267 81.482 127.058 80.9587 125.868 80.7576C125.854 80.7555 125.84 80.7514 125.825 80.7473C125.815 80.7473 125.802 80.7473 125.79 80.7473C125.78 80.7473 125.767 80.7453 125.757 80.7453C125.687 80.7514 125.623 80.7802 125.573 80.8315C125.526 80.8828 125.499 80.9484 125.495 81.0162C125.495 81.0387 125.497 81.0613 125.501 81.0839L125.837 82.6886C125.84 82.6948 125.837 82.6968 125.84 82.703C125.842 82.7173 125.842 82.7338 125.842 82.742C125.84 82.7543 125.837 82.7625 125.837 82.7625H124.528C124.489 82.7625 124.427 82.7194 124.388 82.6537C124.373 82.6291 124.361 82.6024 124.354 82.5716L124.018 80.969C123.987 80.8192 123.843 80.7227 123.69 80.7494C123.645 80.7576 123.602 80.7679 123.556 80.7781C122.845 80.9197 122.183 81.1947 121.595 81.5907C121.288 81.798 120.997 82.034 120.735 82.3049C120.681 82.3603 120.652 82.4341 120.654 82.5101C120.656 82.584 120.689 82.6578 120.745 82.7091L121.972 83.8378C122.059 83.9178 122.073 84.0307 122.053 84.0635L121.787 84.4616L121.354 85.1162C121.335 85.1162 121.3 85.1039 121.263 85.0711L120.036 83.9404C119.972 83.8809 119.885 83.8562 119.798 83.8686C119.794 83.8706 119.79 83.8706 119.784 83.8706C119.695 83.8891 119.619 83.9506 119.582 84.0327C119.103 85.1183 118.907 86.3926 119.013 87.7203C119.025 87.866 119.147 87.9789 119.295 87.9789H120.7C120.753 87.9789 120.85 88.061 120.873 88.1718L121.187 89.6657C121.197 89.7149 121.187 89.7416 121.189 89.7416H119.784C119.693 89.7416 119.607 89.7868 119.553 89.8606C119.499 89.9345 119.487 90.0289 119.516 90.1151C119.627 90.4434 119.755 90.7677 119.902 91.0878C120.19 91.728 120.545 92.3437 120.953 92.9223C121.158 93.2117 121.374 93.4908 121.605 93.7596C121.663 93.8253 121.75 93.8643 121.838 93.856C121.927 93.8519 122.009 93.8047 122.057 93.7309L122.806 92.6043C122.824 92.6043 122.859 92.6166 122.896 92.6515L124.045 93.7103C124.088 93.7493 124.113 93.7965 124.126 93.8396C124.126 93.8437 124.126 93.8458 124.126 93.8499C124.134 93.8868 124.134 93.9197 124.124 93.934L123.699 94.5722L123.371 95.0647C123.35 95.0955 123.336 95.1304 123.329 95.1653C123.309 95.2699 123.348 95.3828 123.441 95.4485C124.553 96.2488 125.778 96.7762 126.982 96.9732C127.075 96.9896 127.168 96.9567 127.234 96.8911C127.298 96.8234 127.325 96.729 127.306 96.6366L127.172 95.9943L126.97 95.036C126.966 95.0196 126.968 95.0093 126.968 94.9991C126.968 94.9929 126.966 94.9847 126.966 94.9806C126.968 94.9662 126.97 94.9601 126.97 94.9601H128.279C128.333 94.9601 128.43 95.0401 128.453 95.1509L128.789 96.7536C128.818 96.8849 128.935 96.9773 129.067 96.9773C129.084 96.9773 129.1 96.9752 129.117 96.9732C130.257 96.7721 131.28 96.2344 132.072 95.4156C132.099 95.389 132.12 95.3561 132.132 95.3212C132.147 95.2884 132.153 95.2494 132.153 95.2125C132.151 95.1365 132.118 95.0647 132.06 95.0134L130.835 93.8848C130.748 93.8027 130.734 93.6898 130.752 93.659L131.456 92.6063C131.472 92.6063 131.507 92.6186 131.544 92.6515L132.772 93.7822C132.807 93.813 132.848 93.8355 132.891 93.8478C132.935 93.8581 132.978 93.8601 133.023 93.8519C133.083 93.8396 133.13 93.8027 133.172 93.7575ZM44.1088 54.8562C43.9129 53.9246 43.1044 53.1673 42.3082 53.1673C41.9906 53.1673 41.7225 53.2884 41.5348 53.5203C41.3203 53.7809 41.2316 54.1544 41.2791 54.5628C41.2852 54.6223 41.2956 54.6818 41.3079 54.7413C41.5039 55.6729 42.3124 56.4322 43.1126 56.4322C43.4282 56.4322 43.6942 56.3111 43.884 56.0792C43.9438 56.0054 43.9954 55.9212 44.0346 55.8289C44.0366 55.8268 44.0366 55.8268 44.0366 55.8248C44.0614 55.7694 44.0799 55.7119 44.0964 55.6524C44.1624 55.4144 44.1686 55.1414 44.1088 54.8562ZM70.6161 86.4993C70.6161 86.0479 70.6429 85.6067 70.6986 85.1778C70.7027 85.147 70.7068 85.1162 70.7109 85.0854C70.7274 84.9705 70.7481 84.8577 70.7666 84.7448C70.7811 84.6709 70.7955 84.597 70.812 84.5232C70.8285 84.439 70.8471 84.3549 70.8656 84.2728C70.8862 84.1907 70.9069 84.1086 70.9296 84.0266C70.9522 83.9424 70.9749 83.8583 70.9997 83.7762C71.0141 83.7311 71.0286 83.6839 71.043 83.6387C71.0574 83.5915 71.076 83.5443 71.0925 83.4971C71.1502 83.3268 71.2142 83.1585 71.2843 82.9944C71.3029 82.9492 71.3194 82.9041 71.34 82.8589C71.3524 82.8323 71.3627 82.8056 71.3751 82.7768C71.3998 82.7255 71.4266 82.6742 71.4514 82.6229C71.4906 82.545 71.5277 82.4649 71.5669 82.3911C71.5751 82.3746 71.5834 82.3603 71.5916 82.3459C71.637 82.2597 71.6865 82.1776 71.7339 82.0956C71.7669 82.0401 71.7999 81.9847 71.835 81.9293C71.8659 81.8821 71.8969 81.8349 71.9278 81.7898C71.9835 81.7036 72.0412 81.6195 72.1011 81.5394C72.1526 81.4676 72.2062 81.3958 72.2619 81.326C72.3052 81.2727 72.3465 81.2193 72.3898 81.168C72.4207 81.1311 72.4537 81.0962 72.4847 81.0593C72.5342 81.0018 72.5857 80.9464 72.6373 80.893C72.6703 80.8561 72.7054 80.8192 72.7404 80.7843C72.7899 80.735 72.8415 80.6858 72.8931 80.6365C72.9322 80.5996 72.9714 80.5626 73.0127 80.5257C73.0601 80.4826 73.1076 80.4416 73.1571 80.4005C73.2024 80.3615 73.2499 80.3226 73.2973 80.2856C73.3406 80.2507 73.386 80.2158 73.4314 80.183C73.485 80.142 73.5386 80.1009 73.5943 80.0619C73.6335 80.0353 73.6747 80.0086 73.7139 79.9819C73.7758 79.9388 73.8377 79.8998 73.9016 79.8608C73.9367 79.8383 73.9717 79.8177 74.0089 79.7972C74.0769 79.7562 74.1471 79.7151 74.2172 79.6782C74.2481 79.6597 74.2811 79.6454 74.3121 79.629C74.3884 79.59 74.4647 79.551 74.5431 79.514C74.5699 79.5017 74.5987 79.4894 74.6256 79.4771C74.7081 79.4402 74.7906 79.4032 74.8751 79.3704C74.9019 79.3601 74.9267 79.3499 74.9535 79.3417C75.0401 79.3068 75.1267 79.276 75.2154 79.2452C75.2402 79.237 75.267 79.2308 75.2938 79.2226C75.3825 79.1939 75.4712 79.1652 75.5619 79.1406C75.5908 79.1323 75.6197 79.1262 75.6486 79.118C75.7372 79.0954 75.8259 79.0728 75.9167 79.0544C75.9497 79.0462 75.9868 79.04 76.0219 79.0338C76.1064 79.0174 76.191 78.999 76.2776 78.9866C76.323 78.9784 76.3684 78.9743 76.4117 78.9682C76.4901 78.9559 76.5684 78.9456 76.6468 78.9374C76.7107 78.9312 76.7767 78.9271 76.8427 78.921C76.9026 78.9169 76.9644 78.9107 77.0243 78.9066C77.1521 78.9005 77.2821 78.8964 77.412 78.8964C78.0142 78.8964 78.6186 78.9682 79.2146 79.1016C79.5137 79.1672 79.8107 79.2514 80.1056 79.3478C83.9295 80.6181 87.3203 84.4288 88.2628 88.9187C88.302 89.1055 88.335 89.2902 88.3659 89.4748C88.3783 89.5508 88.3866 89.6267 88.3969 89.7026C88.4113 89.8093 88.4278 89.916 88.4402 90.0228C88.4526 90.1274 88.4587 90.23 88.467 90.3347C88.4753 90.4106 88.4835 90.4865 88.4876 90.5625C88.4938 90.6794 88.4979 90.7964 88.5021 90.9113C88.5041 90.9729 88.5062 91.0344 88.5083 91.096C88.5103 91.1986 88.5083 91.3012 88.5062 91.4059C88.5041 91.4879 88.5041 91.57 88.5 91.6542C88.4959 91.7547 88.4897 91.8553 88.4835 91.9538C88.4773 92.0358 88.4711 92.1179 88.4629 92.2C88.4216 92.633 88.3515 93.0557 88.2525 93.4641C88.2422 93.5092 88.2319 93.5564 88.2195 93.6016C88.1886 93.7247 88.1535 93.8458 88.1164 93.9648C88.0999 94.0202 88.0813 94.0756 88.0648 94.129C88.0256 94.2439 87.9885 94.3588 87.9452 94.4696C87.9452 94.4737 87.9431 94.4758 87.9431 94.4799C87.939 94.4901 87.9349 94.4983 87.9307 94.5086C87.8647 94.6769 87.7926 94.8431 87.7163 95.0073C87.6956 95.0524 87.6709 95.0976 87.6482 95.1448C87.5863 95.272 87.5182 95.3972 87.4502 95.5203C87.4151 95.5818 87.3801 95.6455 87.3429 95.705C87.3347 95.7193 87.3264 95.7358 87.3161 95.7501C87.2501 95.8589 87.1779 95.9635 87.1058 96.0682C87.0851 96.099 87.0645 96.1277 87.0418 96.1585C87.0191 96.1913 86.9944 96.2221 86.9696 96.2529C86.7098 96.5997 86.4231 96.9178 86.1096 97.1989C86.091 97.2153 86.0745 97.2317 86.058 97.2461C85.9116 97.3733 85.7589 97.4944 85.6022 97.6073C85.5692 97.6319 85.5362 97.6565 85.5011 97.6811C85.3526 97.7837 85.2 97.8781 85.0433 97.9684C84.7813 98.1182 84.5111 98.2496 84.2306 98.3604C84.2286 98.3624 84.2286 98.3624 84.2286 98.3624C84.1192 98.4055 84.0079 98.4445 83.8965 98.4814C83.8924 98.4835 83.8903 98.4835 83.8882 98.4855C83.7789 98.5204 83.6676 98.5553 83.5541 98.5861C83.5479 98.5882 83.5417 98.5882 83.5356 98.5902C83.4263 98.6189 83.3169 98.6456 83.2056 98.6702C83.1932 98.6723 83.1787 98.6764 83.1643 98.6784C83.0612 98.701 82.956 98.7195 82.8487 98.7379C82.8219 98.7421 82.7951 98.7441 82.7683 98.7482C82.6734 98.7626 82.5786 98.7749 82.4837 98.7851C82.4301 98.7913 82.3764 98.7954 82.3228 98.7995C82.2506 98.8057 82.1784 98.8118 82.1042 98.8159C81.9742 98.8241 81.8443 98.8262 81.7103 98.8262C80.2087 98.8262 78.7011 98.3911 77.3047 97.6237C77.2986 97.6196 77.2924 97.6175 77.2882 97.6134C77.1913 97.5621 77.0964 97.5047 77.0016 97.4492C76.95 97.4164 76.8964 97.3877 76.8427 97.3548C76.7871 97.32 76.7314 97.283 76.6757 97.2481C76.5808 97.1886 76.488 97.1291 76.3952 97.0655C76.3746 97.0511 76.3519 97.0347 76.3312 97.0204C75.7847 96.6428 75.2526 96.2118 74.7431 95.7255C74.6833 95.666 74.6235 95.6085 74.5637 95.549C74.2048 95.192 73.8604 94.8082 73.5407 94.4101C73.4871 94.3444 73.4334 94.2767 73.3819 94.209C73.2767 94.0736 73.1736 93.934 73.0746 93.7945C73.0251 93.7247 72.9756 93.6529 72.9261 93.5831C72.8271 93.4395 72.7322 93.2958 72.6394 93.1501C72.5981 93.0845 72.5569 93.0167 72.5177 92.9511C72.5094 92.9388 72.5032 92.9264 72.495 92.9162C72.4146 92.7808 72.3341 92.6433 72.2557 92.5037C72.2392 92.475 72.2227 92.4442 72.2083 92.4155C72.1774 92.3601 72.1464 92.3047 72.1176 92.2493C71.9897 92.0092 71.8701 91.765 71.7587 91.5187C71.7381 91.4736 71.7154 91.4284 71.6947 91.3833C71.6576 91.2971 71.6226 91.2109 71.5854 91.1247C71.5566 91.055 71.5277 90.9852 71.4988 90.9154C71.4699 90.8395 71.4411 90.7636 71.4122 90.6876C71.3812 90.6055 71.3503 90.5214 71.3214 90.4393C71.2967 90.3696 71.2719 90.2998 71.2492 90.23C71.2183 90.1377 71.1894 90.0453 71.1606 89.9509C71.1399 89.8894 71.1193 89.8258 71.1007 89.7621C71.0698 89.6554 71.0409 89.5487 71.0121 89.44C70.9997 89.3887 70.9852 89.3374 70.9708 89.2861C70.9316 89.126 70.8924 88.9659 70.8594 88.8038C70.8594 88.7997 70.8574 88.7956 70.8574 88.7915C70.8161 88.5986 70.7831 88.4057 70.7522 88.2128C70.7419 88.143 70.7336 88.0733 70.7233 88.0035C70.7047 87.8804 70.6882 87.7552 70.6759 87.6321C70.6676 87.5459 70.6594 87.4597 70.6532 87.3735C70.6429 87.2689 70.6367 87.1642 70.6305 87.0616C70.6243 86.9651 70.6202 86.8708 70.6181 86.7764C70.6161 86.684 70.6161 86.5917 70.6161 86.4993ZM72.1712 87.7203C72.1836 87.866 72.3052 87.9789 72.4537 87.9789H73.8583C73.9119 87.9789 74.0089 88.061 74.0316 88.1718L74.3451 89.6657C74.3554 89.7149 74.3451 89.7416 74.3451 89.7416H72.9426C72.8497 89.7416 72.7652 89.7868 72.7116 89.8606C72.6724 89.916 72.6538 89.9817 72.66 90.0494C72.6621 90.072 72.6662 90.0925 72.6744 90.1151C72.7301 90.2793 72.7899 90.4414 72.8539 90.6055C72.9817 90.9298 73.1282 91.2499 73.287 91.5618C73.4479 91.8758 73.6252 92.1836 73.815 92.4811C74.0996 92.9285 74.4172 93.3574 74.7637 93.7575C74.8215 93.8253 74.9081 93.8643 74.9968 93.856C75.0855 93.8519 75.1659 93.8047 75.2154 93.7309L75.9641 92.6043C75.9724 92.6043 75.9868 92.6084 76.0012 92.6145C76.0177 92.6227 76.0363 92.6351 76.0549 92.6515L77.2037 93.7083C77.2903 93.7883 77.3027 93.9012 77.2821 93.934L76.8551 94.5722L76.5292 95.0627C76.5086 95.0955 76.4942 95.1283 76.488 95.1653C76.4653 95.2699 76.5066 95.3828 76.5994 95.4485C77.7111 96.2488 78.9362 96.7762 80.1407 96.9732C80.2314 96.9875 80.3263 96.9567 80.3902 96.889C80.4398 96.8398 80.4666 96.7741 80.4686 96.7043C80.4707 96.6818 80.4686 96.6592 80.4645 96.6366L80.1283 95.0339C80.1221 95.0114 80.1221 94.9929 80.1242 94.9785C80.1242 94.9662 80.1262 94.9601 80.1262 94.9601H81.438C81.4916 94.9601 81.5865 95.0401 81.6112 95.1509L81.9474 96.7515C81.9742 96.8849 82.0918 96.9773 82.2238 96.9773C82.2403 96.9773 82.2568 96.9752 82.2733 96.9732C83.4159 96.7721 84.4369 96.2344 85.2309 95.4156C85.2825 95.3623 85.3114 95.2884 85.3093 95.2125C85.3073 95.1365 85.2743 95.0647 85.2186 95.0134L83.9914 93.8848C83.9274 93.8232 83.9027 93.7452 83.9027 93.696C83.9027 93.6796 83.9068 93.6652 83.9109 93.659L84.5173 92.75L84.6122 92.6063C84.6307 92.6063 84.6658 92.6166 84.7029 92.6515L85.9301 93.7822C85.9466 93.7965 85.9652 93.8109 85.9837 93.8212C86.025 93.8437 86.0683 93.856 86.1137 93.8581C86.1343 93.8581 86.157 93.856 86.1797 93.8519C86.2704 93.8314 86.3447 93.7719 86.3818 93.6878C86.8624 92.6022 87.0583 91.3279 86.9531 90.0022C86.9408 89.8545 86.817 89.7416 86.6685 89.7416H85.266C85.2392 89.7416 85.2021 89.7211 85.167 89.6883C85.134 89.6534 85.1031 89.6062 85.0928 89.5508L84.7772 88.0548C84.7689 88.0076 84.7772 87.9809 84.7772 87.9789H86.1818C86.2725 87.9789 86.3571 87.9358 86.4107 87.8619C86.4643 87.788 86.4787 87.6936 86.4499 87.6075C86.0023 86.2921 85.2804 85.0321 84.3585 83.9629C84.3441 83.9465 84.3296 83.9322 84.3111 83.9178C84.2657 83.885 84.21 83.8686 84.1543 83.8665C84.1461 83.8665 84.1357 83.8645 84.1254 83.8645C84.0368 83.8706 83.9563 83.9178 83.9068 83.9917L83.55 84.5273L83.1581 85.1162C83.1396 85.1162 83.1045 85.1039 83.0694 85.0711L82.0382 84.123L81.9206 84.0122C81.8546 83.9527 81.8299 83.8727 81.8319 83.8255C81.8319 83.8214 81.8319 83.8214 81.8319 83.8173C81.834 83.8049 81.8361 83.7947 81.8402 83.7865L82.593 82.6578C82.6776 82.5306 82.6466 82.3603 82.5229 82.272C82.3063 82.1161 82.0856 81.9745 81.8629 81.839C80.943 81.287 79.9674 80.9136 79.0042 80.7514C78.9981 80.7514 78.9898 80.7494 78.9836 80.7473C78.9176 80.7371 78.8516 80.7514 78.7959 80.7822C78.7732 80.7966 78.7506 80.8109 78.732 80.8315C78.6681 80.8992 78.6392 80.9936 78.6598 81.0839L78.996 82.6886C79.0063 82.7358 78.996 82.7604 78.996 82.7625H77.6863C77.6327 82.7625 77.5357 82.6824 77.5131 82.5716L77.1769 80.969C77.1439 80.8192 76.9995 80.7227 76.8489 80.7494C76.7891 80.7576 76.7334 80.774 76.6736 80.7863C75.9456 80.9382 75.2711 81.2275 74.6751 81.6441C74.3966 81.839 74.1326 82.0566 73.8934 82.3049C73.8397 82.3603 73.8109 82.4341 73.8129 82.5101C73.815 82.584 73.848 82.6578 73.9037 82.7091L75.1309 83.8378C75.2175 83.9178 75.2319 84.0327 75.2113 84.0635L74.9576 84.4452L74.5101 85.1162C74.4915 85.1162 74.4585 85.1039 74.4214 85.0711L73.1942 83.9404C73.1261 83.8788 73.0333 83.8521 72.9446 83.8706C72.9426 83.8706 72.9426 83.8706 72.9426 83.8706C72.8518 83.8891 72.7776 83.9506 72.7404 84.0327C72.2619 85.1183 72.0639 86.3926 72.1712 87.7203ZM151.85 140.36H75.7022L75.8156 121.795C75.8259 120.268 76.7809 119.203 78.1421 119.203H140.438C141.853 119.203 143.315 120.314 143.992 121.904L151.85 140.36ZM87.2481 134.582C86.8789 132.823 85.3093 131.391 83.748 131.391C83.0447 131.391 82.4198 131.678 81.9907 132.203C81.8629 132.361 81.7556 132.536 81.669 132.725C81.4091 133.291 81.3452 133.982 81.4958 134.697C81.8649 136.457 83.4345 137.89 84.9937 137.89C85.6991 137.89 86.3241 137.6 86.751 137.075C87.2666 136.445 87.4481 135.536 87.2481 134.582ZM98.6454 132.006C98.6434 131.776 98.6166 131.541 98.5671 131.302C98.1958 129.542 96.6283 128.111 95.067 128.111C94.9804 128.111 94.8917 128.116 94.8071 128.124C94.209 128.185 93.6851 128.464 93.3097 128.924C93.2458 129.002 93.186 129.086 93.1324 129.172C93.0437 129.314 92.9756 129.468 92.9158 129.628C92.8911 129.698 92.8684 129.768 92.8478 129.839C92.7694 130.114 92.7302 130.408 92.7343 130.714C92.7364 130.943 92.7632 131.179 92.8127 131.417C92.9715 132.17 93.351 132.864 93.8522 133.41C93.8646 133.422 93.8749 133.435 93.8852 133.447C94.0543 133.627 94.2399 133.788 94.4318 133.931C94.6628 134.102 94.9061 134.249 95.1598 134.358C95.4383 134.479 95.7291 134.561 96.0199 134.594C96.1168 134.604 96.2158 134.61 96.3128 134.61C96.5768 134.61 96.8304 134.569 97.0656 134.491C97.3007 134.411 97.5193 134.296 97.7132 134.145C97.8431 134.044 97.9627 133.927 98.0679 133.796C98.4557 133.324 98.6537 132.694 98.6454 132.006ZM130.988 131.302C130.618 129.542 129.047 128.111 127.487 128.111C127.223 128.111 126.97 128.15 126.735 128.23C126.5 128.308 126.281 128.423 126.087 128.575C125.957 128.676 125.837 128.793 125.73 128.924C125.215 129.556 125.033 130.465 125.233 131.417C125.512 132.737 126.462 133.874 127.58 134.358C127.859 134.479 128.147 134.561 128.44 134.594C128.537 134.604 128.634 134.61 128.731 134.61C129.437 134.61 130.061 134.321 130.49 133.796C131.006 133.164 131.188 132.257 130.988 131.302ZM143.682 134.582C143.313 132.823 141.741 131.391 140.182 131.391C139.477 131.391 138.854 131.678 138.425 132.203C137.909 132.835 137.728 133.744 137.928 134.697C138.297 136.457 139.867 137.89 141.426 137.89C142.131 137.89 142.756 137.6 143.185 137.077C143.701 136.445 143.882 135.536 143.682 134.582ZM62.3392 125.602C63.0776 124.699 64.1563 124.202 65.3794 124.202C68.2896 124.202 71.2286 126.923 71.9319 130.266C72.2991 132.027 71.9814 133.685 71.0574 134.816C70.3211 135.719 69.2424 136.215 68.0194 136.215C65.1071 136.215 62.1681 133.496 61.4668 130.151C61.0976 128.391 61.4152 126.732 62.3392 125.602ZM62.6857 129.78C62.7043 129.942 62.7291 130.104 62.7641 130.266C62.9869 131.327 63.5252 132.302 64.2388 133.063C65.1587 134.04 66.3694 134.664 67.5739 134.664C67.9327 134.664 68.2772 134.608 68.5969 134.504C68.8093 134.432 69.0114 134.34 69.2012 134.223C69.2961 134.165 69.3868 134.104 69.4755 134.034C69.6508 133.898 69.8117 133.74 69.9581 133.562C70.2221 133.24 70.4201 132.864 70.5521 132.45C70.7728 131.76 70.8037 130.968 70.6326 130.151C70.1231 127.726 67.9657 125.754 65.8228 125.754C64.8658 125.754 64.0202 126.144 63.4406 126.856C62.8239 127.609 62.5579 128.655 62.6857 129.78ZM59.2785 134.044C58.9609 134.044 58.6927 134.165 58.5051 134.397C58.2596 134.697 58.1771 135.14 58.2782 135.618C58.4741 136.552 59.2826 137.309 60.0808 137.309C60.3984 137.309 60.6645 137.188 60.8522 136.956C61.0976 136.658 61.1801 136.213 61.0791 135.733C60.8831 134.801 60.0746 134.044 59.2785 134.044ZM164.532 135.618C164.728 136.552 165.536 137.311 166.335 137.311C166.65 137.311 166.918 137.188 167.106 136.956C167.351 136.658 167.434 136.213 167.333 135.735C167.141 134.818 166.316 134.044 165.53 134.044C165.215 134.044 164.947 134.167 164.759 134.397C164.513 134.695 164.431 135.14 164.532 135.618Z" fill="#208E7A"/>
<mask id="mask1_935_414" style="mask-type:luminance" maskUnits="userSpaceOnUse" x="27" y="49" width="144" height="99">
<path d="M27.584 49.5352H170.54V147.619H27.584V49.5352Z" fill="white"/>
</mask>
<g mask="url(#mask1_935_414)">
<path d="M137.212 79.8178C136.806 77.8868 135.086 76.3149 133.376 76.3149H67.4422C66.675 76.3149 65.9944 76.6309 65.5262 77.2014C64.9631 77.8929 64.7651 78.8882 64.9837 79.9327L68.7561 97.9069C69.1603 99.8359 70.8804 101.406 72.5882 101.406H138.522C139.291 101.406 139.972 101.092 140.44 100.519C141.003 99.8277 141.201 98.8344 140.983 97.7899L137.212 79.8178ZM139.999 100.162C139.638 100.607 139.126 100.841 138.522 100.841H72.5882C71.1341 100.841 69.6636 99.4726 69.3109 97.7899L65.5406 79.8178C65.3571 78.9395 65.5117 78.1166 65.9676 77.5584C66.3285 77.1152 66.84 76.8813 67.4422 76.8813H133.376C134.832 76.8813 136.303 78.25 136.656 79.9327L140.428 97.9069C140.611 98.7831 140.455 99.604 139.999 100.162ZM146.04 62.2479C145.708 60.6554 144.285 59.3606 142.87 59.3606H50.8329C50.1915 59.3606 49.6222 59.6232 49.2324 60.1014C48.822 60.6021 48.6446 61.2977 48.7292 62.0406C48.7395 62.135 48.756 62.2314 48.7746 62.3279C48.7766 62.3402 48.7787 62.3505 48.7807 62.3628L50.5751 70.9117C50.9092 72.5021 52.3303 73.797 53.7431 73.797H145.782C146.424 73.797 146.993 73.5343 147.383 73.0562C147.851 72.4836 148.016 71.6587 147.834 70.7948L146.04 62.2479ZM145.782 73.2327H53.7431C52.584 73.2327 51.4125 72.1389 51.1299 70.7948L49.3376 62.2479C49.1912 61.5501 49.3129 60.8976 49.6738 60.4564C49.9564 60.1096 50.3586 59.9249 50.8329 59.9249H142.87C144.031 59.9249 145.203 61.0187 145.485 62.3628L147.28 70.9097C147.424 71.6074 147.302 72.26 146.941 72.7012C146.659 73.048 146.257 73.2327 145.782 73.2327ZM133.224 93.6878C133.283 93.5544 133.339 93.4149 133.389 93.2754C133.42 93.1933 133.444 93.1071 133.471 93.0229C133.675 92.3848 133.793 91.6973 133.818 90.9811C133.828 90.6589 133.82 90.3327 133.793 90.0023C133.78 89.8545 133.659 89.7417 133.51 89.7417H132.106C132.054 89.7417 131.957 89.6616 131.935 89.5508L131.621 88.0549C131.621 88.0528 131.621 88.0528 131.621 88.0508C131.613 88.0056 131.621 87.981 131.619 87.9789H133.021C133.114 87.9789 133.199 87.9358 133.252 87.862C133.279 87.825 133.296 87.7819 133.302 87.7388C133.31 87.6957 133.306 87.6506 133.292 87.6075C132.846 86.2942 132.124 85.0342 131.202 83.963C131.145 83.8953 131.058 83.8583 130.969 83.8645C130.881 83.8707 130.798 83.9179 130.749 83.9917L130.544 84.2995L130.002 85.1163C129.983 85.1163 129.948 85.104 129.911 85.0711L128.762 84.0122C128.676 83.9322 128.661 83.8194 128.682 83.7886L129.437 82.6579C129.521 82.5306 129.488 82.3624 129.367 82.2721C128.267 81.482 127.059 80.9587 125.869 80.7576C125.854 80.7535 125.84 80.7515 125.825 80.7474C125.815 80.7453 125.803 80.7474 125.79 80.7474C125.78 80.7453 125.768 80.7453 125.757 80.7453C125.687 80.7515 125.623 80.7802 125.574 80.8315C125.526 80.8808 125.5 80.9485 125.495 81.0162C125.495 81.0388 125.497 81.0614 125.502 81.0839L125.838 82.6887C125.84 82.6948 125.838 82.6969 125.84 82.701C125.842 82.7174 125.842 82.7338 125.842 82.742C125.84 82.7543 125.838 82.7605 125.838 82.7625H124.528C124.489 82.7625 124.427 82.7194 124.388 82.6517C124.373 82.6291 124.361 82.6025 124.355 82.5717L124.019 80.969C123.988 80.8192 123.843 80.7228 123.691 80.7474C123.645 80.7556 123.602 80.7679 123.557 80.7782C122.845 80.9198 122.183 81.1947 121.595 81.5887C121.288 81.796 120.997 82.034 120.735 82.3049C120.682 82.3603 120.653 82.4342 120.655 82.5081C120.657 82.584 120.69 82.6558 120.745 82.7092L121.973 83.8378C122.059 83.9179 122.074 84.0307 122.053 84.0635L121.787 84.4617L121.354 85.1163C121.335 85.1163 121.3 85.104 121.263 85.0711L120.036 83.9404C119.972 83.8809 119.885 83.8563 119.799 83.8686C119.795 83.8707 119.791 83.8686 119.784 83.8707C119.696 83.8891 119.619 83.9486 119.582 84.0328C119.104 85.1183 118.908 86.3927 119.013 87.7204C119.025 87.8661 119.147 87.9789 119.296 87.9789H120.7C120.754 87.9789 120.851 88.059 120.873 88.1698L121.187 89.6657C121.197 89.715 121.187 89.7417 121.189 89.7417H119.784C119.694 89.7417 119.607 89.7868 119.553 89.8586C119.5 89.9346 119.487 90.029 119.516 90.1151C119.628 90.4435 119.755 90.7677 119.902 91.0878C120.191 91.726 120.545 92.3437 120.954 92.9224C121.158 93.2117 121.375 93.4908 121.606 93.7576C121.663 93.8253 121.75 93.8643 121.839 93.8561C121.927 93.852 122.01 93.8048 122.057 93.7309L122.806 92.6043C122.824 92.6043 122.86 92.6166 122.897 92.6515L124.045 93.7083C124.089 93.7494 124.114 93.7966 124.126 93.8397C124.126 93.8438 124.126 93.8458 124.126 93.8499C124.134 93.8869 124.134 93.9197 124.124 93.9341L123.699 94.5723L123.371 95.0627C123.35 95.0956 123.336 95.1284 123.33 95.1653C123.309 95.27 123.348 95.3828 123.441 95.4485C124.553 96.2488 125.778 96.7762 126.982 96.9732C127.075 96.9876 127.168 96.9568 127.234 96.8891C127.298 96.8234 127.325 96.729 127.306 96.6367L127.172 95.9944L126.97 95.034C126.966 95.0196 126.968 95.0094 126.968 94.9971C126.968 94.9929 126.966 94.9827 126.966 94.9786C126.968 94.9663 126.97 94.9601 126.97 94.9601H128.28C128.333 94.9601 128.43 95.0401 128.453 95.151L128.789 96.7516C128.818 96.885 128.936 96.9773 129.068 96.9773C129.084 96.9773 129.101 96.9753 129.117 96.9732C130.258 96.7721 131.281 96.2345 132.073 95.4157C132.1 95.389 132.12 95.3562 132.133 95.3213C132.147 95.2864 132.153 95.2495 132.153 95.2125C132.151 95.1366 132.118 95.0648 132.06 95.0135L130.835 93.8828C130.749 93.8027 130.734 93.6899 130.753 93.6591L131.456 92.6043C131.473 92.6043 131.508 92.6166 131.545 92.6515L132.772 93.7822C132.807 93.813 132.848 93.8356 132.892 93.8479C132.935 93.8581 132.978 93.8602 133.024 93.852C133.083 93.8397 133.133 93.8027 133.172 93.7576C133.191 93.735 133.213 93.7166 133.224 93.6878ZM130.278 93.3472C130.097 93.6242 130.171 94.0408 130.447 94.2973L131.456 95.2248C130.846 95.783 130.105 96.1729 129.286 96.3617L129.008 95.034C128.932 94.6708 128.618 94.3937 128.28 94.3937H126.968C126.795 94.3937 126.64 94.4676 126.533 94.5969C126.413 94.7426 126.37 94.9437 126.413 95.151L126.663 96.335C125.757 96.1278 124.848 95.7214 123.998 95.1469L124.596 94.246C124.782 93.969 124.708 93.5503 124.429 93.2938L123.282 92.237C122.985 91.9661 122.534 91.9928 122.338 92.2883L121.795 93.1009C121.119 92.2555 120.57 91.3013 120.189 90.306H121.187C121.23 90.306 121.273 90.3019 121.315 90.2937C121.436 90.267 121.544 90.2013 121.624 90.1028C121.742 89.9571 121.785 89.756 121.742 89.5508L121.428 88.0549C121.352 87.6896 121.038 87.4146 120.698 87.4146H119.562C119.539 86.9201 119.56 86.4337 119.626 85.9679C119.659 85.7339 119.702 85.5062 119.755 85.2825C119.811 85.0609 119.877 84.8433 119.953 84.634L120.877 85.4856C121.172 85.7545 121.622 85.7298 121.822 85.4343L122.525 84.3755C122.548 84.3406 122.569 84.3036 122.583 84.2647C122.629 84.1497 122.639 84.0205 122.616 83.8912C122.585 83.7209 122.499 83.5505 122.358 83.4233L121.35 82.4958C121.96 81.9376 122.703 81.5497 123.52 81.3589L123.798 82.6866C123.874 83.0519 124.188 83.3269 124.528 83.3269H125.838C126.013 83.3269 126.168 83.253 126.275 83.1216C126.393 82.978 126.436 82.7769 126.395 82.5717L126.145 81.3856C127.051 81.5928 127.96 81.9992 128.81 82.5737L128.208 83.4746C128.026 83.7516 128.1 84.1682 128.377 84.4268L129.528 85.4856C129.823 85.7545 130.27 85.7298 130.47 85.4323L131.013 84.6197C131.687 85.4651 132.236 86.4193 132.619 87.4126H131.619C131.446 87.4126 131.291 87.4864 131.184 87.6157C131.066 87.7614 131.023 87.9625 131.064 88.1698L131.38 89.6657C131.456 90.031 131.77 90.306 132.108 90.306H133.244C133.257 90.5522 133.259 90.7985 133.246 91.0386C133.236 91.2807 133.215 91.5188 133.182 91.7507C133.116 92.2165 133.007 92.6659 132.854 93.0866L131.93 92.237C131.635 91.9641 131.184 91.9907 130.986 92.2883L130.278 93.3472ZM169.453 139.572C169.47 139.552 169.484 139.527 169.501 139.507C169.565 139.425 169.625 139.338 169.682 139.25C169.738 139.168 169.788 139.082 169.837 138.994C169.864 138.944 169.889 138.897 169.913 138.848C170.05 138.583 170.155 138.3 170.237 138.005C170.245 137.968 170.256 137.931 170.264 137.894C170.303 137.732 170.336 137.568 170.359 137.397C170.367 137.344 170.375 137.29 170.382 137.237C170.392 137.153 170.398 137.067 170.402 136.981C170.408 136.888 170.413 136.794 170.413 136.699C170.415 136.632 170.417 136.562 170.415 136.492C170.41 136.342 170.4 136.191 170.386 136.039C170.38 135.989 170.373 135.938 170.367 135.889C170.347 135.714 170.32 135.54 170.283 135.364L153.42 54.9958C153.259 54.2242 152.962 53.4937 152.568 52.8288C151.423 50.9019 149.443 49.5496 147.473 49.5496H42.1147C41.9786 49.5496 41.8466 49.5578 41.7167 49.5701C41.6961 49.5721 41.6734 49.5742 41.6527 49.5762C41.3826 49.607 41.1206 49.6624 40.8711 49.7445C40.8649 49.7466 40.8607 49.7486 40.8546 49.7507C40.7329 49.7917 40.6132 49.8389 40.4977 49.8923C40.4792 49.9005 40.4627 49.9087 40.4462 49.9169C40.3472 49.9641 40.2523 50.0133 40.1574 50.0708C40.1389 50.0811 40.1203 50.0893 40.1038 50.1016C40.0997 50.1036 40.0956 50.1057 40.0914 50.1077C40.0832 50.1118 40.0749 50.1159 40.0687 50.1221L29.7439 56.6395C28.2424 57.5876 27.5886 59.4981 28.0341 61.6281L44.8971 141.996C45.4807 144.772 47.8052 147.067 50.2451 147.397C50.2905 147.426 50.3441 147.442 50.3977 147.442C50.4307 147.442 50.4637 147.434 50.4947 147.424C50.6122 147.432 50.7277 147.442 50.8453 147.442H156.206C156.963 147.442 157.652 147.251 158.25 146.872L168.573 140.354C168.579 140.352 168.583 140.348 168.587 140.346C168.68 140.287 168.769 140.223 168.855 140.155C168.87 140.145 168.882 140.133 168.897 140.122C168.977 140.057 169.055 139.989 169.13 139.917C169.171 139.878 169.21 139.837 169.249 139.796C169.293 139.751 169.334 139.706 169.375 139.659C169.402 139.63 169.429 139.603 169.453 139.572ZM152.865 55.1107L169.728 135.479C170.031 136.927 169.771 138.288 169.012 139.217C168.41 139.954 167.529 140.36 166.529 140.36H152.467L144.516 121.682C143.753 119.891 142.076 118.637 140.438 118.637H78.1425C77.1546 118.637 76.3419 119.08 75.8304 119.817C75.4654 120.342 75.2529 121.017 75.2488 121.791L75.1333 140.36H61.1681C58.7736 140.36 56.3542 138.117 55.7767 135.364L38.9137 54.9958C38.6106 53.5491 38.8704 52.1865 39.6294 51.2589C40.2317 50.5222 41.1144 50.1159 42.1147 50.1159H147.473C149.868 50.1159 152.287 52.3568 152.865 55.1107ZM38.3589 55.1107L38.922 57.801L34.4794 60.2573L33.378 55.0143L38.7199 51.6406C38.229 52.6215 38.0908 53.8384 38.3589 55.1107ZM39.0437 58.3817L55.2219 135.479C55.7355 137.933 57.6124 140.012 59.7264 140.691L55.6612 143.361C53.4276 142.874 51.3609 140.709 50.8164 138.115L34.599 60.836L39.0437 58.3817ZM75.7026 140.36L75.816 121.795C75.8263 120.268 76.7812 119.203 78.1425 119.203H140.438C141.853 119.203 143.315 120.314 143.992 121.904L151.85 140.36H75.7026ZM32.8665 55.3364L33.9596 60.5426L28.9663 63.3006L28.5909 61.5132C28.1929 59.6191 28.7518 57.9344 30.0491 57.1156L32.8665 55.3364ZM34.0813 61.1233L50.2616 138.23C50.8082 140.836 52.7923 143.045 55.0342 143.773L50.3606 146.845C48.1331 146.57 45.9922 144.45 45.4539 141.881L29.088 63.8813L34.0813 61.1233ZM51.3424 146.878L55.7912 143.954C56.0552 143.999 56.3233 144.03 56.5894 144.03H161.692L157.947 146.396C157.439 146.716 156.854 146.878 156.206 146.878H51.3424ZM162.587 143.465H56.5894C56.5729 143.465 56.5564 143.461 56.5399 143.461L60.4875 140.867C60.7144 140.9 60.9412 140.925 61.1681 140.925H152.279C152.279 140.925 152.279 140.925 152.281 140.925H166.529C166.56 140.925 166.589 140.921 166.618 140.921L162.587 143.465ZM151.819 125.245C150.788 126.509 150.427 128.339 150.831 130.266C151.584 133.857 154.773 136.78 157.939 136.78C159.335 136.78 160.57 136.209 161.418 135.173C162.449 133.909 162.81 132.078 162.406 130.151C161.651 126.558 158.464 123.636 155.299 123.636C153.902 123.636 152.667 124.208 151.819 125.245ZM161.979 132.179C161.979 132.181 161.979 132.183 161.979 132.185C161.962 132.386 161.936 132.583 161.899 132.774C161.899 132.776 161.899 132.778 161.899 132.78C161.861 132.973 161.814 133.16 161.756 133.342C161.756 133.344 161.756 133.344 161.756 133.346C161.699 133.527 161.632 133.705 161.556 133.876C161.556 133.876 161.554 133.876 161.554 133.878C161.478 134.048 161.391 134.212 161.296 134.368C161.294 134.368 161.294 134.368 161.294 134.368C161.199 134.526 161.092 134.676 160.977 134.816V134.818C160.24 135.719 159.162 136.215 157.939 136.215C155.028 136.215 152.089 133.494 151.386 130.151C151.017 128.391 151.336 126.733 152.26 125.6C152.386 125.446 152.527 125.308 152.673 125.177C153.374 124.547 154.286 124.202 155.299 124.202C158.209 124.202 161.148 126.923 161.851 130.266C161.851 130.27 161.851 130.272 161.851 130.274C161.896 130.49 161.932 130.703 161.956 130.917C161.956 130.919 161.956 130.923 161.956 130.927C161.981 131.138 161.995 131.35 162 131.557C162 131.559 162 131.561 162 131.565C162.004 131.772 161.995 131.978 161.979 132.179ZM59.2789 133.478C58.7921 133.478 58.3611 133.679 58.0641 134.04C57.7567 134.418 57.6227 134.937 57.6846 135.493C57.6887 135.538 57.699 135.583 57.7052 135.628C57.7114 135.663 57.7155 135.698 57.7237 135.733C57.9754 136.933 59.0107 137.875 60.0812 137.875C60.5287 137.875 60.9289 137.703 61.2197 137.393C61.2444 137.366 61.2712 137.342 61.2939 137.313C61.6466 136.882 61.7704 136.264 61.6342 135.618C61.3826 134.418 60.3472 133.478 59.2789 133.478ZM60.8526 136.956C60.6649 137.188 60.3988 137.309 60.0812 137.309C59.283 137.309 58.4745 136.552 58.2786 135.618C58.1775 135.14 58.26 134.697 58.5054 134.397C58.6931 134.165 58.9612 134.044 59.2789 134.044C60.075 134.044 60.8835 134.801 61.0794 135.733C61.1805 136.213 61.098 136.658 60.8526 136.956ZM42.3086 52.601C41.8219 52.601 41.3908 52.8001 41.0938 53.1633C40.7411 53.5942 40.6174 54.2119 40.7535 54.8562C41.0051 56.0567 42.0405 56.9966 43.1109 56.9966C43.5977 56.9966 44.0287 56.7975 44.3237 56.4343C44.6764 56.0034 44.8001 55.3857 44.6661 54.7393C44.4124 53.5409 43.377 52.601 42.3086 52.601ZM44.037 55.8248C44.037 55.8269 44.037 55.8269 44.0349 55.8289C43.9957 55.9213 43.9442 56.0054 43.8823 56.0793C43.6946 56.3112 43.4286 56.4322 43.1109 56.4322C42.3127 56.4322 41.5042 55.673 41.3083 54.7413C41.2959 54.6818 41.2856 54.6223 41.2794 54.5628C41.232 54.1544 41.3207 53.781 41.5352 53.5203C41.7229 53.2885 41.991 53.1674 42.3086 53.1674C43.1047 53.1674 43.9132 53.9246 44.1092 54.8562C44.169 55.1415 44.1628 55.4144 44.0968 55.6525C44.0803 55.712 44.0617 55.7694 44.037 55.8248ZM147.007 54.8562C147.259 56.0567 148.294 56.9966 149.365 56.9966C149.849 56.9966 150.28 56.7975 150.577 56.4343C150.93 56.0034 151.054 55.3857 150.92 54.7413C150.672 53.5614 149.614 52.601 148.56 52.601C148.074 52.601 147.645 52.8001 147.348 53.1633C146.995 53.5942 146.871 54.2119 147.007 54.8562ZM150.136 56.0772C149.948 56.3091 149.68 56.4322 149.365 56.4322C148.567 56.4322 147.758 55.673 147.562 54.7393C147.525 54.5607 147.513 54.3863 147.525 54.2222C147.546 53.9492 147.636 53.705 147.789 53.5203C147.977 53.2885 148.245 53.1653 148.56 53.1653C149.346 53.1653 150.171 53.939 150.363 54.8562C150.433 55.1948 150.412 55.515 150.307 55.7817C150.264 55.8905 150.208 55.9911 150.136 56.0772ZM157.169 113.878C157.84 113.878 158.432 113.603 158.84 113.105C159.331 112.505 159.502 111.641 159.312 110.739L148.498 59.2005C148.148 57.5322 146.661 56.1757 145.18 56.1757H47.1885C46.5182 56.1757 45.9242 56.4507 45.5179 56.9494C45.027 57.5486 44.8558 58.4105 45.0456 59.3154L55.8592 110.854C56.2099 112.522 57.6969 113.878 59.1778 113.878H157.169ZM56.4141 110.739L45.6004 59.2005C45.4457 58.4618 45.5756 57.7723 45.9572 57.3064C46.2583 56.9371 46.6852 56.7401 47.1885 56.7401H145.18C145.487 56.7401 145.795 56.8139 146.087 56.9432C146.622 57.1813 147.108 57.6163 147.459 58.1581C147.686 58.5069 147.855 58.8989 147.942 59.3154L158.757 110.854C158.834 111.223 158.84 111.58 158.78 111.902C158.718 112.226 158.59 112.516 158.398 112.748C158.097 113.119 157.673 113.314 157.169 113.314H59.1778C57.9506 113.314 56.7131 112.159 56.4141 110.739ZM72.4871 130.151C71.7343 126.56 68.5457 123.636 65.3797 123.636C64.1567 123.636 63.0574 124.073 62.2344 124.877C62.1169 124.992 62.0055 125.115 61.9003 125.245C60.867 126.509 60.5061 128.339 60.9103 130.268C61.6652 133.859 64.8538 136.78 68.0197 136.78C69.4161 136.78 70.6515 136.209 71.4992 135.173C72.3943 134.077 72.7821 132.556 72.6067 130.915C72.5799 130.662 72.5407 130.408 72.4871 130.151ZM65.3797 124.202C68.2899 124.202 71.229 126.923 71.9323 130.266C72.2994 132.027 71.9818 133.685 71.0578 134.816C70.3215 135.719 69.2428 136.215 68.0197 136.215C65.1075 136.215 62.1684 133.496 61.4672 130.151C61.098 128.391 61.4156 126.733 62.3396 125.602C63.078 124.699 64.1567 124.202 65.3797 124.202ZM160.438 129.702C159.774 127.488 157.753 125.754 155.742 125.754C154.787 125.754 153.939 126.144 153.36 126.854C152.832 127.5 152.562 128.362 152.576 129.304C152.578 129.46 152.588 129.62 152.607 129.78C152.623 129.942 152.65 130.104 152.685 130.266C153.193 132.692 155.35 134.664 157.493 134.664C157.972 134.664 158.423 134.567 158.827 134.381C159.23 134.194 159.587 133.917 159.877 133.562C160.405 132.918 160.675 132.056 160.661 131.114C160.657 130.802 160.622 130.478 160.554 130.151C160.521 129.999 160.484 129.85 160.438 129.702ZM157.493 134.1C155.606 134.1 153.698 132.329 153.24 130.151C153.001 129.012 153.205 127.939 153.801 127.211C154.212 126.708 154.791 126.402 155.453 126.332C155.548 126.322 155.645 126.318 155.742 126.318C155.86 126.318 155.979 126.324 156.097 126.339C157.864 126.542 159.568 128.226 159.997 130.268C160.145 130.978 160.123 131.666 159.939 132.257C159.828 132.612 159.661 132.934 159.436 133.207C158.966 133.781 158.277 134.1 157.493 134.1ZM72.4541 87.9789H73.8587C73.9123 87.9789 74.0092 88.061 74.0319 88.1718L74.3454 89.6657C74.3557 89.715 74.3454 89.7417 74.3454 89.7417H72.9429C72.8501 89.7417 72.7656 89.7868 72.7119 89.8607C72.6727 89.9161 72.6542 89.9818 72.6604 90.0495C72.6624 90.0721 72.6666 90.0926 72.6748 90.1151C72.7305 90.2793 72.7903 90.4414 72.8542 90.6056C72.9821 90.9298 73.1286 91.2499 73.2874 91.5619C73.4482 91.8758 73.6256 92.1836 73.8154 92.4812C74.1 92.9286 74.4176 93.3574 74.7641 93.7576C74.8219 93.8253 74.9085 93.8643 74.9972 93.8561C75.0859 93.852 75.1663 93.8048 75.2158 93.7309L75.9645 92.6043C75.9727 92.6043 75.9872 92.6084 76.0016 92.6146C76.0181 92.6228 76.0367 92.6351 76.0552 92.6515L77.2041 93.7083C77.2907 93.7884 77.3031 93.9012 77.2824 93.9341L76.8555 94.5723L76.5296 95.0627C76.509 95.0956 76.4946 95.1284 76.4884 95.1653C76.4657 95.27 76.5069 95.3828 76.5997 95.4485C77.7114 96.2488 78.9366 96.7762 80.1411 96.9732C80.2318 96.9876 80.3267 96.9568 80.3906 96.8891C80.4401 96.8398 80.4669 96.7742 80.469 96.7044C80.4711 96.6818 80.469 96.6592 80.4649 96.6367L80.1287 95.034C80.1225 95.0114 80.1225 94.9929 80.1246 94.9786C80.1246 94.9663 80.1266 94.9601 80.1266 94.9601H81.4384C81.492 94.9601 81.5869 95.0401 81.6116 95.151L81.9478 96.7516C81.9746 96.885 82.0922 96.9773 82.2242 96.9773C82.2407 96.9773 82.2572 96.9753 82.2737 96.9732C83.4163 96.7721 84.4372 96.2345 85.2313 95.4157C85.2829 95.3623 85.3117 95.2884 85.3097 95.2125C85.3076 95.1366 85.2746 95.0648 85.2189 95.0135L83.9917 93.8848C83.9278 93.8233 83.9031 93.7453 83.9031 93.696C83.9031 93.6796 83.9072 93.6652 83.9113 93.6591L84.5177 92.75L84.6126 92.6064C84.6311 92.6064 84.6662 92.6166 84.7033 92.6515L85.9305 93.7822C85.947 93.7966 85.9656 93.8109 85.9841 93.8212C86.0254 93.8438 86.0687 93.8561 86.1141 93.8581C86.1347 93.8581 86.1574 93.8561 86.1801 93.852C86.2708 93.8315 86.3451 93.772 86.3822 93.6878C86.8627 92.6023 87.0587 91.3279 86.9535 90.0023C86.9411 89.8545 86.8174 89.7417 86.6689 89.7417H85.2664C85.2396 89.7417 85.2024 89.7211 85.1674 89.6883C85.1344 89.6534 85.1034 89.6062 85.0931 89.5508L84.7776 88.0549C84.7693 88.0077 84.7776 87.981 84.7776 87.9789H86.1821C86.2729 87.9789 86.3574 87.9358 86.4111 87.862C86.4647 87.7881 86.4791 87.6937 86.4502 87.6075C86.0027 86.2921 85.2808 85.0321 84.3589 83.963C84.3444 83.9466 84.33 83.9322 84.3114 83.9179C84.2661 83.885 84.2104 83.8686 84.1547 83.8666C84.1464 83.8666 84.1361 83.8645 84.1258 83.8645C84.0371 83.8707 83.9567 83.9179 83.9072 83.9917L83.5504 84.5273L83.1585 85.1163C83.1399 85.1163 83.1049 85.104 83.0698 85.0711L82.0386 84.1231L81.921 84.0122C81.855 83.9527 81.8302 83.8727 81.8323 83.8255C81.8323 83.8214 81.8323 83.8214 81.8323 83.8173C81.8344 83.805 81.8364 83.7947 81.8406 83.7865L82.5934 82.6579C82.6779 82.5306 82.647 82.3603 82.5232 82.2721C82.3067 82.1161 82.086 81.9745 81.8632 81.8391C80.9434 81.2871 79.9678 80.9136 79.0046 80.7515C78.9984 80.7515 78.9902 80.7494 78.984 80.7474C78.918 80.7371 78.852 80.7515 78.7963 80.7823C78.7736 80.7966 78.7509 80.811 78.7324 80.8315C78.6684 80.8992 78.6396 80.9936 78.6602 81.0839L78.9964 82.6887C79.0067 82.7359 78.9964 82.7605 78.9964 82.7625H77.6867C77.6331 82.7625 77.5361 82.6825 77.5134 82.5717L77.1772 80.969C77.1442 80.8192 76.9999 80.7228 76.8493 80.7494C76.7895 80.7576 76.7338 80.7741 76.674 80.7864C75.9459 80.9382 75.2715 81.2276 74.6754 81.6441C74.397 81.8391 74.133 82.0566 73.8937 82.3049C73.8401 82.3603 73.8112 82.4342 73.8133 82.5101C73.8154 82.584 73.8484 82.6579 73.9041 82.7092L75.1312 83.8378C75.2179 83.9179 75.2323 84.0328 75.2117 84.0635L74.958 84.4452L74.5104 85.1163C74.4919 85.1163 74.4589 85.104 74.4217 85.0711L73.1946 83.9404C73.1265 83.8789 73.0337 83.8522 72.945 83.8707C72.9429 83.8707 72.9429 83.8707 72.9429 83.8707C72.8522 83.8891 72.7779 83.9507 72.7408 84.0328C72.2623 85.1183 72.0643 86.3927 72.1716 87.7204C72.1839 87.8661 72.3056 87.9789 72.4541 87.9789ZM74.3454 90.308C74.5207 90.308 74.6754 90.2342 74.7827 90.1028C74.9002 89.9592 74.9436 89.756 74.9023 89.5508L74.5867 88.0549C74.5104 87.6896 74.1969 87.4146 73.8587 87.4146H72.7202C72.6727 86.4255 72.8068 85.4754 73.1121 84.634L74.0361 85.4877C74.331 85.7565 74.7806 85.7298 74.9807 85.4343L75.6881 84.3755C75.8696 84.0964 75.7954 83.6798 75.5169 83.4254L74.5104 82.4958C75.1209 81.9376 75.8614 81.5497 76.6802 81.361L76.9586 82.6887C77.0329 83.0457 77.3526 83.3269 77.6867 83.3269H78.9964C79.1717 83.3269 79.3264 83.255 79.4336 83.1237C79.5532 82.978 79.5945 82.7769 79.5532 82.5737L79.3037 81.3876C80.2091 81.5949 81.1187 81.9992 81.9684 82.5758L81.3662 83.4767C81.1847 83.7537 81.2589 84.1703 81.5353 84.4268L82.6862 85.4856C82.9811 85.7545 83.4287 85.7298 83.6287 85.4343L84.1712 84.6217C84.8456 85.4651 85.3942 86.4193 85.7779 87.4146H84.7776C84.6043 87.4146 84.4496 87.4864 84.3424 87.6178C84.2227 87.7635 84.1794 87.9646 84.2227 88.1698L84.5383 89.6657C84.5569 89.7581 84.5899 89.8443 84.6352 89.9202C84.6579 89.9592 84.6847 89.9961 84.7116 90.029C84.8539 90.1993 85.056 90.306 85.2664 90.306H86.4049C86.4523 91.2971 86.3182 92.2473 86.013 93.0886L85.089 92.237C84.7941 91.9661 84.3424 91.9928 84.1444 92.2883L83.4369 93.3472C83.2554 93.6242 83.3297 94.0408 83.6061 94.2973L84.6146 95.2248C84.0062 95.783 83.2637 96.1729 82.4469 96.3617L82.1685 95.034C82.0901 94.6687 81.7766 94.3937 81.4384 94.3937H80.1287C79.9534 94.3937 79.7987 94.4676 79.6914 94.5969C79.5739 94.7426 79.5306 94.9437 79.5739 95.151L79.8214 96.335C78.918 96.1278 78.0064 95.7214 77.1566 95.1469L77.7568 94.246C77.8022 94.1762 77.8331 94.1003 77.8476 94.0162C77.8537 93.9751 77.8579 93.9341 77.8579 93.891C77.8579 93.6796 77.763 93.4559 77.5897 93.2938L76.4409 92.237C76.146 91.9641 75.6943 91.9928 75.4963 92.2883L74.9539 93.1009C74.2794 92.2555 73.7308 91.3013 73.3472 90.306H74.3454V90.308ZM91.5364 94.6502C91.8664 96.2324 93.2792 97.517 94.6837 97.517H114.795C115.034 97.517 115.263 97.4801 115.476 97.4103C115.548 97.3857 115.616 97.359 115.684 97.3282C115.954 97.203 116.191 97.0184 116.385 96.7824C116.443 96.7105 116.497 96.6346 116.546 96.5566C116.837 96.0847 116.957 95.4875 116.884 94.8555C116.874 94.7487 116.856 94.642 116.833 94.5353L116.033 90.7144L114.428 83.0724C114.366 82.7748 114.265 82.4896 114.135 82.2208C113.568 81.0552 112.421 80.2056 111.283 80.2056H91.1692C90.5319 80.2056 89.9668 80.4683 89.5791 80.9423C89.1129 81.5108 88.95 82.3295 89.1294 83.1873L91.5364 94.6502ZM116.278 94.6502C116.423 95.3418 116.301 95.9882 115.944 96.4253C115.839 96.5546 115.717 96.6613 115.581 96.7434C115.445 96.8255 115.296 96.885 115.133 96.9178C115.026 96.9404 114.913 96.9527 114.795 96.9527H111.576C110.064 94.3794 108.997 91.6398 108.401 88.8039C107.816 86.0089 107.727 83.3084 108.139 80.772H111.283C112.432 80.772 113.593 81.8555 113.873 83.1873L116.278 94.6502ZM94.6837 96.9527C93.5349 96.9527 92.3717 95.8671 92.0912 94.5353L89.6863 83.0724C89.5419 82.3829 89.6636 81.7344 90.0204 81.2994C90.303 80.9546 90.7011 80.772 91.1713 80.772H94.3909C95.9047 83.3453 96.9711 86.0869 97.5651 88.9188C98.1529 91.7117 98.2395 94.4143 97.827 96.9527H94.6837ZM98.4499 96.5874C98.4705 96.4335 98.4932 96.2817 98.5117 96.1278C98.5324 95.9472 98.5468 95.7625 98.5633 95.5798C98.5777 95.4259 98.5922 95.2741 98.6025 95.1202C98.6149 94.9334 98.6211 94.7446 98.6272 94.5559C98.6334 94.4019 98.6417 94.2501 98.6437 94.0962C98.6479 93.9033 98.6437 93.7104 98.6437 93.5154C98.6417 93.3636 98.6417 93.2138 98.6376 93.0599C98.6314 92.8608 98.619 92.6577 98.6066 92.4566C98.5984 92.3088 98.5942 92.1611 98.5819 92.0133C98.5654 91.7999 98.5427 91.5865 98.52 91.3731C98.5056 91.2335 98.4952 91.094 98.4767 90.9524C98.4478 90.7164 98.4107 90.4763 98.3756 90.2383C98.3571 90.1192 98.3447 90.0023 98.3241 89.8833C98.2642 89.5241 98.1962 89.165 98.1219 88.8039C98.0456 88.4447 97.9631 88.0877 97.8724 87.7327C97.8435 87.6137 97.8084 87.4967 97.7754 87.3777C97.7136 87.1417 97.6496 86.9057 97.5795 86.6717C97.5382 86.5302 97.4908 86.3906 97.4475 86.2511C97.3815 86.0397 97.3155 85.8304 97.2433 85.6211C97.1938 85.4713 97.1381 85.3235 97.0845 85.1758C97.0123 84.9767 96.9401 84.7777 96.8638 84.5807C96.804 84.4288 96.7401 84.277 96.6782 84.1251C96.5998 83.9343 96.5235 83.7434 96.441 83.5526C96.3729 83.4007 96.3028 83.2489 96.2347 83.095C96.1481 82.9082 96.0636 82.7235 95.9728 82.5368C95.9006 82.3849 95.8223 82.2331 95.7459 82.0812C95.6531 81.8986 95.5603 81.716 95.4654 81.5354C95.3829 81.3835 95.3004 81.2337 95.2179 81.0839C95.1602 80.9793 95.1045 80.8746 95.0467 80.772H107.564C107.545 80.8931 107.533 81.0142 107.517 81.1352C107.494 81.2891 107.473 81.441 107.455 81.5949C107.434 81.7755 107.418 81.9581 107.403 82.1407C107.389 82.2947 107.374 82.4486 107.364 82.6045C107.352 82.7892 107.345 82.9759 107.337 83.1647C107.333 83.3186 107.325 83.4705 107.323 83.6265C107.319 83.8173 107.321 84.0102 107.323 84.2031C107.325 84.357 107.325 84.5089 107.329 84.6628C107.335 84.8618 107.347 85.0629 107.36 85.264C107.368 85.4118 107.372 85.5595 107.385 85.7093C107.401 85.9207 107.424 86.1341 107.446 86.3475C107.461 86.4871 107.471 86.6287 107.49 86.7682C107.519 87.0062 107.556 87.2443 107.591 87.4823C107.609 87.6013 107.624 87.7204 107.642 87.8394C107.702 88.1985 107.77 88.5576 107.847 88.9188C107.921 89.2779 108.005 89.635 108.094 89.992C108.125 90.109 108.16 90.2239 108.191 90.3409C108.253 90.5789 108.317 90.817 108.387 91.0529C108.428 91.1925 108.476 91.332 108.519 91.4695C108.585 91.6829 108.653 91.8943 108.723 92.1057C108.775 92.2534 108.83 92.3991 108.882 92.5448C108.956 92.7459 109.026 92.947 109.105 93.1461C109.162 93.2959 109.226 93.4457 109.286 93.5975C109.367 93.7884 109.445 93.9813 109.528 94.1742C109.594 94.326 109.664 94.4758 109.732 94.6277C109.818 94.8144 109.903 95.0032 109.994 95.1879C110.068 95.3397 110.144 95.4916 110.221 95.6414C110.313 95.824 110.406 96.0067 110.503 96.1893C110.584 96.3412 110.666 96.491 110.749 96.6408C110.806 96.7434 110.86 96.8501 110.92 96.9527H98.4024C98.421 96.8316 98.4334 96.7085 98.4499 96.5874ZM120.651 95.5757C121.859 96.8706 123.284 97.9028 124.8 98.5677C126.013 99.0971 127.284 99.3906 128.554 99.3906C128.692 99.3906 128.83 99.3885 128.967 99.3803C129.785 99.3393 130.565 99.171 131.287 98.8857C132.37 98.4569 133.323 97.7633 134.08 96.8378C135.732 94.8165 136.307 91.8881 135.659 88.8039C134.447 83.0293 129.332 78.3321 124.254 78.3321C122.037 78.3321 120.073 79.2391 118.726 80.8869C117.076 82.9082 116.501 85.8366 117.146 88.9188C117.676 91.4449 118.955 93.7658 120.651 95.5757ZM130.037 98.6723C129.917 98.699 129.798 98.7195 129.676 98.7401C129.311 98.7975 128.938 98.8262 128.554 98.8262C128.253 98.8262 127.95 98.8078 127.651 98.7749C127.35 98.7401 127.049 98.6887 126.749 98.6231C126.302 98.5225 125.858 98.3871 125.421 98.2168C125.13 98.1039 124.842 97.9767 124.557 97.8371C121.286 96.216 118.537 92.7746 117.703 88.8039C117.091 85.8879 117.625 83.1319 119.168 81.244C120.403 79.7296 122.21 78.8964 124.254 78.8964C126.665 78.8964 129.086 80.0209 131.052 81.835C131.176 81.9499 131.295 82.0648 131.415 82.1838C131.772 82.5409 132.112 82.9185 132.432 83.3186C132.539 83.452 132.642 83.5875 132.745 83.725C133.867 85.2414 134.704 87.0186 135.103 88.9188C135.715 91.8368 135.181 94.5928 133.638 96.4807C132.712 97.6155 131.464 98.3666 130.037 98.6723ZM70.305 88.9188C70.5649 90.1541 71.0062 91.3628 71.6167 92.512C71.6601 92.5941 71.7034 92.672 71.7467 92.7521C71.8333 92.9101 71.9241 93.066 72.0189 93.2199C72.0664 93.2979 72.1138 93.3739 72.1612 93.4498C72.2582 93.6037 72.3572 93.7535 72.4582 93.9012C72.5098 93.9751 72.5614 94.049 72.6129 94.1208C72.7161 94.2686 72.8233 94.4122 72.9326 94.5538C72.9862 94.6236 73.0419 94.6933 73.0976 94.7631C73.4317 95.1776 73.7886 95.5757 74.1619 95.9472C74.2258 96.0108 74.2877 96.0723 74.3516 96.1319C76.5482 98.2332 79.1634 99.3926 81.7127 99.3926C82.9275 99.3926 84.0577 99.1258 85.0704 98.6026C85.1261 98.5738 85.1818 98.5451 85.2375 98.5143C86.1099 98.0321 86.8607 97.3672 87.4691 96.5402C87.5186 96.4725 87.5661 96.4027 87.6156 96.333C87.6712 96.2488 87.729 96.1647 87.7826 96.0785C87.8218 96.0169 87.8589 95.9533 87.8961 95.8918C88.1167 95.5142 88.3106 95.1099 88.4715 94.6872C88.4983 94.6174 88.5251 94.5456 88.5499 94.4758C88.6014 94.3322 88.6489 94.1865 88.6922 94.0387C88.7128 93.9649 88.7355 93.8889 88.7541 93.8151C88.7953 93.6652 88.8304 93.5134 88.8634 93.3595C88.8799 93.2815 88.8964 93.2056 88.9108 93.1276C88.9397 92.9716 88.9644 92.8136 88.9871 92.6536C88.9974 92.5735 89.0077 92.4935 89.016 92.4135C89.0614 92.0072 89.0841 91.5906 89.0799 91.172C89.0737 90.3983 88.9871 89.6021 88.8201 88.8039C87.7971 83.9322 83.9938 79.826 79.7801 78.6625C79.1572 78.4901 78.5241 78.3834 77.8888 78.3464C77.73 78.3382 77.5712 78.3321 77.4124 78.3321C75.1065 78.3321 73.0914 79.3048 71.7405 81.0737L71.6766 81.1578C71.5755 81.2953 71.4786 81.4369 71.3857 81.5805C71.3156 81.6913 71.2476 81.8022 71.1816 81.9171C71.1424 81.9868 71.1032 82.0566 71.0661 82.1284C70.9959 82.2577 70.9299 82.3911 70.8681 82.5265C70.8412 82.5881 70.8124 82.6476 70.7876 82.7092C70.6907 82.9308 70.6041 83.1606 70.5257 83.3925C70.4865 83.5095 70.4514 83.6285 70.4164 83.7475C70.3194 84.0861 70.2411 84.437 70.1812 84.792L70.1689 84.868C70.1482 85.0034 70.1297 85.1409 70.1132 85.2804C70.1008 85.3769 70.0926 85.4754 70.0843 85.5718C70.0699 85.7257 70.0616 85.8796 70.0534 86.0356C70.0513 86.1238 70.0472 86.2121 70.0472 86.3003C70.0327 87.1519 70.1194 88.0323 70.305 88.9188ZM70.7113 85.0855C70.7278 84.9706 70.7484 84.8577 70.767 84.7448C70.7814 84.671 70.7959 84.5971 70.8124 84.5232C70.8289 84.4391 70.8474 84.3549 70.866 84.2729C70.8866 84.1908 70.9072 84.1087 70.9299 84.0266C70.9526 83.9425 70.9753 83.8583 71.0001 83.7763C71.0145 83.7291 71.0289 83.6839 71.0434 83.6388C71.0578 83.5895 71.0764 83.5444 71.0929 83.4951C71.1506 83.3248 71.2146 83.1586 71.2847 82.9944C71.3032 82.9493 71.3197 82.9041 71.3404 82.859C71.3527 82.8323 71.3631 82.8036 71.3754 82.7769C71.4002 82.7256 71.427 82.6743 71.4517 82.6209C71.4909 82.545 71.5281 82.465 71.5672 82.389C71.5755 82.3747 71.5837 82.3603 71.592 82.3439C71.6374 82.2598 71.6869 82.1777 71.7343 82.0956C71.7673 82.0402 71.8003 81.9848 71.8354 81.9294C71.8663 81.8822 71.8972 81.835 71.9282 81.7878C71.9839 81.7037 72.0416 81.6195 72.1014 81.5374C72.153 81.4656 72.2066 81.3958 72.2623 81.3261C72.3056 81.2727 72.3469 81.2194 72.3902 81.1681C72.4211 81.1311 72.4541 81.0942 72.4851 81.0593C72.5346 81.0018 72.5861 80.9464 72.6377 80.891C72.6707 80.8561 72.7057 80.8192 72.7408 80.7843C72.7903 80.7351 72.8419 80.6858 72.8934 80.6366C72.9326 80.5996 72.9718 80.5627 73.0131 80.5258C73.0605 80.4827 73.1079 80.4416 73.1574 80.4006C73.2028 80.3616 73.2502 80.3226 73.2977 80.2857C73.341 80.2487 73.3864 80.2159 73.4317 80.181C73.4854 80.142 73.539 80.101 73.5947 80.062C73.6339 80.0353 73.6751 80.0086 73.7143 79.9799C73.7762 79.9389 73.8381 79.8978 73.902 79.8588C73.9371 79.8383 73.9721 79.8178 74.0092 79.7952C74.0773 79.7562 74.1474 79.7152 74.2176 79.6762C74.2485 79.6598 74.2815 79.6434 74.3124 79.629C74.3887 79.588 74.4651 79.551 74.5434 79.5141C74.5702 79.5018 74.5991 79.4895 74.6259 79.4771C74.7084 79.4402 74.7909 79.4033 74.8755 79.3704C74.9023 79.3602 74.9271 79.3499 74.9539 79.3397C75.0405 79.3068 75.1271 79.276 75.2158 79.2453C75.2406 79.2371 75.2674 79.2288 75.2942 79.2206C75.3829 79.194 75.4716 79.1652 75.5623 79.1406C75.5912 79.1324 75.6201 79.1262 75.6489 79.118C75.7376 79.0955 75.8263 79.0729 75.9171 79.0544C75.9501 79.0462 75.9872 79.0401 76.0222 79.0339C76.1068 79.0175 76.1914 78.999 76.278 78.9867C76.3234 78.9785 76.3687 78.9744 76.4121 78.9682C76.4904 78.9559 76.5688 78.9457 76.6472 78.9374C76.7111 78.9292 76.7771 78.9272 76.8431 78.921C76.9029 78.9169 76.9648 78.9108 77.0246 78.9067C77.1525 78.9005 77.2824 78.8964 77.4124 78.8964C78.0146 78.8964 78.6189 78.9662 79.215 79.1016C79.5141 79.1673 79.8111 79.2494 80.106 79.3479C83.9299 80.6181 87.3206 84.4288 88.2632 88.9188C88.3024 89.1035 88.3354 89.2902 88.3663 89.4749C88.3787 89.5508 88.3869 89.6268 88.3972 89.7027C88.4117 89.8094 88.4282 89.9161 88.4406 90.0228C88.4529 90.1275 88.4591 90.2301 88.4674 90.3347C88.4756 90.4106 88.4839 90.4866 88.488 90.5625C88.4942 90.6795 88.4983 90.7964 88.5024 90.9114C88.5045 90.9729 88.5066 91.0345 88.5086 91.096C88.5107 91.1986 88.5086 91.3013 88.5066 91.4039C88.5045 91.488 88.5045 91.5701 88.5004 91.6542C88.4962 91.7548 88.4901 91.8533 88.4839 91.9538C88.4777 92.0359 88.4715 92.118 88.4632 92.2001C88.422 92.6331 88.3519 93.0558 88.2529 93.4641C88.2426 93.5093 88.2322 93.5565 88.2199 93.6016C88.1889 93.7248 88.1539 93.8458 88.1167 93.9649C88.1002 94.0203 88.0817 94.0757 88.0652 94.129C88.026 94.2439 87.9889 94.3589 87.9456 94.4697C87.9456 94.4738 87.9435 94.4758 87.9435 94.4799C87.9394 94.4902 87.9352 94.4984 87.9311 94.5087C87.8651 94.6769 87.7929 94.8431 87.7166 95.0053C87.696 95.0525 87.6712 95.0976 87.6486 95.1427C87.5867 95.272 87.5186 95.3972 87.4506 95.5203C87.4155 95.5819 87.3804 95.6455 87.3433 95.705C87.3351 95.7194 87.3268 95.7358 87.3165 95.7502C87.2505 95.8569 87.1783 95.9636 87.1061 96.0682C87.0855 96.097 87.0649 96.1278 87.0422 96.1585C87.0195 96.1893 86.9947 96.2201 86.97 96.2529C86.7101 96.5997 86.4234 96.9157 86.1099 97.1989C86.0914 97.2133 86.0749 97.2297 86.0584 97.2461C85.9119 97.3734 85.7593 97.4924 85.6026 97.6073C85.5696 97.6319 85.5366 97.6566 85.5015 97.6791C85.353 97.7838 85.2004 97.8782 85.0436 97.9685C84.7817 98.1162 84.5115 98.2496 84.231 98.3604C84.2289 98.3604 84.2289 98.3625 84.2289 98.3625C84.1196 98.4056 84.0082 98.4445 83.8969 98.4815C83.8927 98.4835 83.8907 98.4835 83.8886 98.4856C83.7793 98.5205 83.6679 98.5554 83.5545 98.5861C83.5483 98.5861 83.5421 98.5882 83.5359 98.5902C83.4266 98.619 83.3173 98.6457 83.2059 98.6703C83.1936 98.6723 83.1791 98.6764 83.1647 98.6785C83.0616 98.7011 82.9564 98.7195 82.8491 98.738C82.8223 98.7421 82.7955 98.7442 82.7687 98.7483C82.6738 98.7626 82.5789 98.7749 82.4841 98.7852C82.4304 98.7914 82.3768 98.7955 82.3232 98.7996C82.251 98.8057 82.1788 98.8119 82.1046 98.816C81.9746 98.8221 81.8447 98.8262 81.7106 98.8262C80.2091 98.8262 78.7014 98.3912 77.3051 97.6237C77.2989 97.6196 77.2927 97.6176 77.2886 97.6135C77.1917 97.5601 77.0968 97.5047 77.0019 97.4493C76.9504 97.4165 76.8967 97.3877 76.8431 97.3549C76.7874 97.32 76.7317 97.2831 76.6761 97.2482C76.5812 97.1887 76.4884 97.1292 76.3956 97.0656C76.3749 97.0512 76.3522 97.0348 76.3316 97.0204C75.7851 96.6428 75.2529 96.2119 74.7435 95.7235C74.6837 95.666 74.6239 95.6086 74.5641 95.5491C74.2052 95.192 73.8607 94.8083 73.5411 94.4102C73.4874 94.3445 73.4338 94.2768 73.3822 94.209C73.2771 94.0736 73.1739 93.9341 73.0749 93.7945C73.0254 93.7248 72.9759 93.6529 72.9264 93.5832C72.8274 93.4395 72.7326 93.2959 72.6397 93.1502C72.5985 93.0825 72.5572 93.0168 72.5181 92.9491C72.5098 92.9388 72.5036 92.9265 72.4954 92.9162C72.4149 92.7808 72.3345 92.6433 72.2561 92.5038C72.2396 92.475 72.2231 92.4443 72.2087 92.4155C72.1777 92.3601 72.1468 92.3047 72.1179 92.2493C71.9901 92.0072 71.8704 91.765 71.7591 91.5188C71.7384 91.4736 71.7157 91.4285 71.6951 91.3833C71.658 91.2971 71.6229 91.211 71.5858 91.1227C71.5569 91.055 71.5281 90.9852 71.4992 90.9155C71.4703 90.8395 71.4414 90.7636 71.4126 90.6877C71.3816 90.6056 71.3507 90.5215 71.3218 90.4394C71.2971 90.3696 71.2723 90.2998 71.2496 90.2301C71.2187 90.1377 71.1898 90.0454 71.1609 89.951C71.1403 89.8874 71.1197 89.8258 71.1011 89.7622C71.0702 89.6555 71.0413 89.5467 71.0124 89.44C71.0001 89.3887 70.9856 89.3374 70.9712 89.2861C70.932 89.126 70.8928 88.966 70.8598 88.8039C70.8598 88.7998 70.8577 88.7957 70.8577 88.7915C70.8165 88.5987 70.7835 88.4058 70.7526 88.2129C70.7422 88.1431 70.734 88.0733 70.7237 88.0036C70.7051 87.8784 70.6886 87.7552 70.6762 87.6321C70.668 87.5459 70.6597 87.4597 70.6536 87.3736C70.6432 87.2689 70.6371 87.1642 70.6309 87.0616C70.6247 86.9652 70.6206 86.8708 70.6185 86.7764C70.6164 86.6841 70.6144 86.5917 70.6144 86.4994C70.6144 86.0479 70.6412 85.6067 70.6969 85.1778C70.7031 85.147 70.7072 85.1163 70.7113 85.0855ZM98.5674 131.303C98.1962 129.542 96.6287 128.112 95.0674 128.112C94.9807 128.112 94.8921 128.116 94.8075 128.124C94.2094 128.185 93.6855 128.464 93.3101 128.924C93.2462 129.002 93.1864 129.086 93.1327 129.172C93.0441 129.314 92.976 129.468 92.9162 129.628C92.8914 129.698 92.8687 129.768 92.8481 129.839C92.7697 130.114 92.7306 130.408 92.7347 130.714C92.7367 130.943 92.7636 131.179 92.8131 131.417C92.9719 132.171 93.3514 132.864 93.8526 133.41C93.8649 133.422 93.8752 133.435 93.8856 133.447C94.0547 133.628 94.2403 133.788 94.4321 133.931C94.6631 134.102 94.9065 134.249 95.1602 134.358C95.4386 134.479 95.7294 134.561 96.0202 134.594C96.1172 134.604 96.2162 134.61 96.3131 134.61C96.5771 134.61 96.8308 134.569 97.0659 134.491C97.3011 134.411 97.5197 134.297 97.7136 134.145C97.8435 134.044 97.9631 133.927 98.0683 133.796C98.4561 133.322 98.6541 132.694 98.6458 132.004C98.6437 131.777 98.6169 131.541 98.5674 131.303ZM97.629 133.441C97.3052 133.835 96.8514 134.044 96.3131 134.044C95.0076 134.044 93.6855 132.815 93.3699 131.303C93.2668 130.81 93.2812 130.338 93.4071 129.932C93.4318 129.85 93.4627 129.772 93.4958 129.696C93.5638 129.544 93.6484 129.404 93.7515 129.281C93.8711 129.131 94.0114 129.01 94.1681 128.916C94.428 128.758 94.7312 128.676 95.0674 128.676C96.3729 128.676 97.6929 129.905 98.0106 131.417C98.1756 132.203 98.0374 132.942 97.629 133.441ZM83.7484 131.391C83.0451 131.391 82.4201 131.68 81.9911 132.203C81.8632 132.361 81.756 132.536 81.6694 132.725C81.4095 133.291 81.3456 133.983 81.4961 134.697C81.8653 136.457 83.4349 137.89 84.9941 137.89C85.6995 137.89 86.3244 137.6 86.7514 137.077C87.267 136.445 87.4485 135.536 87.2484 134.582C86.8792 132.823 85.3097 131.391 83.7484 131.391ZM86.3121 136.72C85.9882 137.116 85.5324 137.323 84.9941 137.323C83.6886 137.323 82.3686 136.094 82.0509 134.582C82.0117 134.391 81.9891 134.204 81.9849 134.022C81.9849 134.017 81.9829 134.011 81.9829 134.005C81.9726 133.443 82.1272 132.934 82.4325 132.56C82.6759 132.263 82.9914 132.072 83.3606 131.994C83.4225 131.982 83.4864 131.971 83.5504 131.965C83.6164 131.959 83.6824 131.955 83.7484 131.955C85.056 131.955 86.376 133.186 86.6936 134.699C86.8174 135.288 86.7699 135.85 86.5657 136.303C86.4977 136.455 86.4131 136.595 86.3121 136.72ZM127.488 128.112C127.224 128.112 126.97 128.151 126.735 128.231C126.5 128.309 126.281 128.423 126.087 128.575C125.957 128.676 125.838 128.793 125.731 128.924C125.215 129.556 125.033 130.465 125.233 131.417C125.512 132.737 126.463 133.874 127.581 134.358C127.859 134.479 128.148 134.561 128.441 134.594C128.538 134.604 128.635 134.61 128.731 134.61C129.437 134.61 130.062 134.321 130.491 133.796C131.006 133.166 131.188 132.257 130.988 131.303C130.619 129.542 129.047 128.112 127.488 128.112ZM125.79 131.303C125.749 131.106 125.726 130.913 125.722 130.726C125.716 130.443 125.753 130.176 125.827 129.932C125.904 129.688 126.019 129.468 126.172 129.281C126.372 129.033 126.626 128.858 126.919 128.762C127.096 128.705 127.286 128.676 127.488 128.676C128.793 128.676 130.113 129.907 130.431 131.417C130.596 132.203 130.458 132.942 130.049 133.441C129.726 133.835 129.272 134.044 128.731 134.044C127.428 134.044 126.108 132.815 125.79 131.303ZM140.182 131.391C139.477 131.391 138.854 131.68 138.425 132.203C137.91 132.835 137.728 133.744 137.928 134.699C138.297 136.457 139.867 137.89 141.426 137.89C142.132 137.89 142.757 137.6 143.185 137.077C143.701 136.445 143.881 135.536 143.68 134.582C143.313 132.823 141.742 131.391 140.182 131.391ZM143.056 136.152C142.981 136.361 142.88 136.554 142.744 136.72C142.42 137.116 141.967 137.323 141.426 137.323C140.123 137.323 138.801 136.094 138.485 134.582C138.382 134.091 138.396 133.617 138.522 133.211C138.58 133.024 138.662 132.854 138.766 132.7C138.799 132.653 138.829 132.604 138.867 132.56C139.188 132.164 139.644 131.955 140.182 131.955C141.488 131.955 142.808 133.184 143.126 134.697C143.167 134.894 143.19 135.087 143.194 135.275C143.196 135.411 143.185 135.544 143.169 135.673C143.146 135.84 143.109 136.002 143.056 136.152ZM62.7645 130.266C62.9872 131.327 63.5256 132.302 64.2392 133.063C65.1591 134.04 66.3697 134.664 67.5742 134.664C67.9331 134.664 68.2776 134.608 68.5972 134.504C68.8097 134.432 69.0118 134.34 69.2016 134.223C69.2964 134.165 69.3872 134.104 69.4759 134.034C69.6512 133.898 69.8121 133.74 69.9585 133.562C70.2225 133.24 70.4205 132.864 70.5525 132.45C70.7732 131.76 70.8041 130.968 70.6329 130.151C70.1235 127.726 67.9661 125.754 65.8232 125.754C64.8662 125.754 64.0206 126.144 63.441 126.856C62.8243 127.609 62.5582 128.655 62.6861 129.78C62.7047 129.942 62.7294 130.104 62.7645 130.266ZM63.5091 127.818C63.6081 127.596 63.7318 127.393 63.8803 127.211C63.9979 127.067 64.1299 126.94 64.2722 126.829C64.3444 126.774 64.4186 126.722 64.4949 126.675C64.6496 126.583 64.8146 126.507 64.9899 126.449C65.0766 126.421 65.1652 126.396 65.256 126.378C65.4375 126.339 65.6272 126.318 65.8232 126.318C67.7124 126.318 69.6202 128.089 70.0781 130.268C70.1957 130.837 70.206 131.391 70.1091 131.891C70.0142 132.392 69.8141 132.842 69.5171 133.207C69.1644 133.64 68.688 133.925 68.1414 134.042C67.9599 134.081 67.7702 134.1 67.5742 134.1C66.3945 134.1 65.2065 133.408 64.3691 132.357C64.2021 132.148 64.0474 131.922 63.9112 131.686C63.8432 131.569 63.7792 131.448 63.7215 131.325C63.5421 130.954 63.4059 130.56 63.3193 130.151C63.2595 129.866 63.2286 129.587 63.2224 129.314C63.2182 129.041 63.2389 128.778 63.2884 128.528C63.3358 128.276 63.4101 128.038 63.5091 127.818ZM163.978 135.733C164.229 136.933 165.265 137.875 166.335 137.875C166.82 137.875 167.251 137.674 167.548 137.313C167.9 136.88 168.024 136.264 167.888 135.618C167.641 134.438 166.582 133.48 165.531 133.48C165.044 133.48 164.613 133.679 164.318 134.04C164.097 134.311 163.967 134.652 163.932 135.029C163.912 135.255 163.926 135.493 163.978 135.733ZM164.759 134.397C164.947 134.165 165.215 134.044 165.531 134.044C166.316 134.044 167.141 134.818 167.333 135.733C167.434 136.211 167.352 136.656 167.106 136.956C166.919 137.188 166.651 137.309 166.335 137.309C165.537 137.309 164.728 136.552 164.532 135.618C164.431 135.14 164.514 134.695 164.759 134.397ZM140.548 63.0174H55.0652C54.9084 63.0174 54.7806 62.8902 54.7806 62.7342C54.7806 62.5782 54.9084 62.4531 55.0652 62.4531H140.548C140.704 62.4531 140.83 62.5782 140.83 62.7342C140.83 62.8902 140.704 63.0174 140.548 63.0174ZM141.956 66.8609H56.4739C56.3171 66.8609 56.1913 66.7358 56.1913 66.5798C56.1913 66.4238 56.3171 66.2966 56.4739 66.2966H141.956C142.113 66.2966 142.241 66.4238 142.241 66.5798C142.241 66.7358 142.113 66.8609 141.956 66.8609ZM143.65 70.4234C143.65 70.5793 143.524 70.7065 143.367 70.7065H57.8846C57.7279 70.7065 57.6 70.5793 57.6 70.4234C57.6 70.2674 57.7279 70.1402 57.8846 70.1402H143.367C143.524 70.1402 143.65 70.2674 143.65 70.4234Z" fill="#0B5648"/>
</g>
</g>
<defs>
<clipPath id="clip0_935_414">
<rect width="198" height="197" rx="98.5" fill="white"/>
</clipPath>
</defs>
</svg>
