<svg width="500" height="500" viewBox="0 0 500 500" fill="none" xmlns="http://www.w3.org/2000/svg">
<g clip-path="url(#clip0_1167_751)">
<mask id="mask0_1167_751" style="mask-type:luminance" maskUnits="userSpaceOnUse" x="0" y="0" width="500" height="500">
<path d="M500 250C500 111.929 388.071 0 250 0C111.929 0 0 111.929 0 250C0 388.071 111.929 500 250 500C388.071 500 500 388.071 500 250Z" fill="white"/>
</mask>
<g mask="url(#mask0_1167_751)">
<path d="M500 250C500 111.929 388.071 0 250 0C111.929 0 0 111.929 0 250C0 388.071 111.929 500 250 500C388.071 500 500 388.071 500 250Z" fill="#308B7B"/>
<path d="M470.846 163.593C468.657 161.501 461.792 156.373 454.219 151.526C463.167 153.099 471.874 153.964 474.931 153.896C482.066 153.735 487.745 147.796 487.584 140.662C487.424 133.527 481.485 127.848 474.35 128.008C471.211 128.079 462.308 129.38 453.238 131.439C460.929 126.107 468.019 120.319 470.211 118.027C475.153 112.858 474.969 104.664 469.8 99.7221C464.631 94.7804 456.437 94.9643 451.496 100.133C449.383 102.342 444.177 109.332 439.311 116.966C440.884 108.019 441.749 99.3114 441.681 96.2539C441.521 89.1196 435.581 83.4406 428.447 83.6007C421.312 83.7608 415.633 89.7005 415.793 96.8348C415.865 100.015 417.212 109.162 419.316 118.394C413.984 110.743 408.218 103.674 405.967 101.522C400.798 96.5798 392.604 96.7637 387.662 101.932C382.72 107.101 382.904 115.295 388.073 120.237C390.261 122.329 397.168 127.497 404.761 132.323C395.999 130.807 387.578 129.976 384.602 130.043C377.467 130.203 371.788 136.142 371.948 143.277C372.109 150.411 378.048 156.09 385.183 155.93C388.118 155.864 396.208 154.704 404.712 152.861C397.707 157.851 391.459 162.968 389.446 165.073C384.504 170.241 384.688 178.435 389.857 183.377C395.025 188.319 403.22 188.135 408.161 182.966C410.234 180.799 415.302 173.996 420.11 166.506C418.593 175.268 417.763 183.689 417.829 186.665C417.99 193.799 423.929 199.478 431.064 199.318C438.198 199.158 443.877 193.219 443.717 186.084C443.652 183.19 442.517 175.323 440.738 166.96C445.73 174.007 450.908 180.274 453.013 182.286C458.181 187.228 466.375 187.044 471.317 181.876C476.259 176.707 476.014 168.535 470.846 163.593Z" fill="#F8F2EC"/>
<path d="M419.749 152.475C426 158.451 435.747 158.4 441.521 152.362C447.295 146.323 446.908 136.583 440.657 130.607C434.407 124.631 424.659 124.681 418.886 130.72C413.112 136.759 413.499 146.499 419.749 152.475Z" fill="#0B5648"/>
<path d="M378.044 260.655C375.855 258.563 368.99 253.435 361.417 248.588C370.364 250.162 379.072 251.027 382.129 250.958C389.263 250.798 394.942 244.858 394.782 237.724C394.622 230.59 388.682 224.911 381.548 225.071C378.409 225.141 369.506 226.442 360.436 228.502C368.127 223.169 375.217 217.382 377.409 215.089C382.35 209.921 382.166 201.726 376.998 196.785C371.829 191.843 363.635 192.027 358.693 197.195C356.581 199.404 351.374 206.394 346.508 214.029C348.082 205.081 348.947 196.374 348.878 193.316C348.718 186.182 342.779 180.503 335.644 180.663C328.51 180.823 322.831 186.763 322.991 193.897C323.062 197.077 324.41 206.224 326.514 215.456C321.182 207.806 315.415 200.736 313.164 198.584C307.996 193.642 299.802 193.826 294.86 198.995C289.918 204.163 290.102 212.358 295.271 217.299C297.459 219.392 304.366 224.559 311.959 229.386C303.196 227.869 294.775 227.038 291.799 227.105C284.665 227.265 278.986 233.205 279.146 240.339C279.306 247.473 285.246 253.152 292.38 252.992C295.316 252.926 303.406 251.766 311.91 249.923C304.904 254.914 298.656 260.03 296.644 262.135C291.702 267.304 291.886 275.498 297.055 280.44C302.223 285.381 310.417 285.198 315.359 280.029C317.431 277.861 322.5 271.059 327.308 263.568C325.791 272.331 324.96 280.752 325.027 283.728C325.187 290.862 331.127 296.541 338.261 296.381C345.396 296.221 351.075 290.281 350.914 283.147C350.85 280.252 349.714 272.385 347.936 264.023C352.928 271.069 358.105 277.336 360.21 279.349C365.379 284.291 373.573 284.107 378.515 278.938C383.457 273.769 383.212 265.597 378.044 260.655Z" fill="#F8F2EC"/>
<path d="M326.947 249.537C333.197 255.513 342.945 255.462 348.718 249.424C354.492 243.385 354.105 233.645 347.855 227.669C341.604 221.693 331.857 221.743 326.083 227.782C320.309 233.821 320.696 243.561 326.947 249.537Z" fill="#0B5648"/>
<path d="M472.421 350.89C470.233 348.797 463.367 343.669 455.794 338.822C464.742 340.396 473.449 341.261 476.506 341.192C483.641 341.032 489.32 335.093 489.16 327.958C488.999 320.824 483.06 315.145 475.925 315.305C472.786 315.376 463.883 316.677 454.813 318.736C462.504 313.404 469.594 307.616 471.786 305.323C476.728 300.155 476.544 291.961 471.375 287.019C466.207 282.077 458.012 282.261 453.071 287.43C450.958 289.639 445.752 296.628 440.886 304.263C442.459 295.316 443.324 286.608 443.256 283.551C443.096 276.416 437.156 270.738 430.022 270.898C422.887 271.058 417.208 276.997 417.368 284.132C417.44 287.312 418.787 296.459 420.891 305.691C415.56 298.04 409.793 290.97 407.542 288.818C402.373 283.877 394.179 284.061 389.237 289.229C384.296 294.398 384.479 302.592 389.648 307.534C391.836 309.626 398.743 314.794 406.336 319.62C397.574 318.103 389.153 317.273 386.177 317.339C379.042 317.5 373.363 323.439 373.524 330.574C373.684 337.708 379.623 343.387 386.758 343.227C389.693 343.161 397.784 342 406.287 340.158C399.282 345.148 393.034 350.265 391.021 352.37C386.079 357.538 386.263 365.732 391.432 370.674C396.6 375.616 404.795 375.432 409.736 370.263C411.809 368.096 416.877 361.293 421.685 353.802C420.168 362.565 419.338 370.986 419.405 373.962C419.565 381.096 425.504 386.775 432.639 386.615C439.773 386.455 445.452 380.515 445.292 373.381C445.227 370.487 444.092 362.62 442.313 354.257C447.305 361.304 452.483 367.571 454.588 369.583C459.756 374.525 467.951 374.341 472.892 369.172C477.834 364.004 477.589 355.831 472.421 350.89Z" fill="#F8F2EC"/>
<path d="M421.325 339.772C427.575 345.748 437.323 345.697 443.096 339.659C448.87 333.62 448.483 323.88 442.233 317.904C435.982 311.928 426.235 311.978 420.461 318.017C414.687 324.056 415.074 333.796 421.325 339.772Z" fill="#0B5648"/>
<path d="M565.223 253.827C563.035 251.735 556.169 246.607 548.596 241.76C557.544 243.333 566.251 244.199 569.308 244.13C576.443 243.97 582.122 238.03 581.962 230.896C581.802 223.762 575.862 218.083 568.728 218.243C565.589 218.313 556.685 219.614 547.615 221.674C555.307 216.341 562.396 210.554 564.588 208.261C569.53 203.092 569.346 194.898 564.177 189.956C559.009 185.015 550.814 185.199 545.873 190.367C543.761 192.576 538.554 199.566 533.688 207.2C535.261 198.253 536.126 189.546 536.058 186.488C535.898 179.354 529.958 173.675 522.824 173.835C515.689 173.995 510.01 179.935 510.171 187.069C510.242 190.249 511.589 199.396 513.693 208.628C508.362 200.978 502.595 193.908 500.344 191.756C495.175 186.814 486.981 186.998 482.039 192.167C477.098 197.335 477.282 205.529 482.45 210.471C484.638 212.563 491.546 217.731 499.138 222.557C490.376 221.041 481.955 220.21 478.979 220.277C471.845 220.437 466.166 226.377 466.326 233.511C466.486 240.645 472.425 246.324 479.56 246.164C482.495 246.098 490.586 244.938 499.089 243.095C492.084 248.086 485.836 253.202 483.823 255.307C478.882 260.476 479.065 268.67 484.234 273.612C489.403 278.553 497.597 278.369 502.539 273.201C504.611 271.033 509.679 264.23 514.487 256.74C512.971 265.503 512.14 273.923 512.207 276.899C512.367 284.034 518.306 289.713 525.441 289.553C532.575 289.393 538.254 283.453 538.094 276.319C538.029 273.424 536.894 265.557 535.116 257.195C540.107 264.241 545.285 270.508 547.39 272.521C552.558 277.462 560.753 277.279 565.694 272.11C570.636 266.941 570.392 258.769 565.223 253.827Z" fill="#F8F2EC"/>
<path d="M280.702 -18.2773C278.516 -20.3671 271.659 -25.4891 264.095 -30.3305C273.032 -28.7588 281.729 -27.8947 284.783 -27.9633C291.909 -28.1232 297.581 -34.056 297.421 -41.1821C297.262 -48.3081 291.329 -53.9805 284.203 -53.8206C281.067 -53.7503 272.174 -52.4507 263.115 -50.3937C270.797 -55.7198 277.878 -61.5009 280.068 -63.7908C285.004 -68.9534 284.82 -77.1382 279.658 -82.0742C274.495 -87.0102 266.31 -86.8265 261.374 -81.6639C259.264 -79.4573 254.064 -72.4758 249.203 -64.8501C250.775 -73.7872 251.639 -82.4844 251.571 -85.5384C251.411 -92.6644 245.478 -98.3368 238.352 -98.1769C231.226 -98.017 225.553 -92.0842 225.713 -84.9582C225.784 -81.782 227.13 -72.6455 229.232 -63.4242C223.906 -71.0658 218.146 -78.1273 215.898 -80.2768C210.735 -85.2128 202.551 -85.0291 197.614 -79.8665C192.678 -74.7039 192.862 -66.5192 198.025 -61.5832C200.211 -59.4933 207.11 -54.3315 214.694 -49.5109C205.941 -51.0256 197.53 -51.8554 194.558 -51.7887C187.431 -51.6288 181.759 -45.696 181.919 -38.5699C182.079 -31.4439 188.012 -25.7715 195.138 -25.9314C198.07 -25.9971 206.151 -27.1563 214.645 -28.9969C207.647 -24.0121 201.407 -18.9017 199.396 -16.7991C194.46 -11.6365 194.644 -3.45173 199.807 1.48428C204.969 6.42028 213.154 6.23662 218.09 1.07401C220.16 -1.09096 225.222 -7.88602 230.025 -15.3679C228.51 -6.61535 227.68 1.79586 227.747 4.76844C227.907 11.8944 233.84 17.5669 240.966 17.407C248.092 17.2471 253.764 11.3142 253.604 4.18822C253.539 1.29709 252.406 -6.56081 250.629 -14.9136C255.615 -7.87542 260.787 -1.61555 262.89 0.394676C268.052 5.33068 276.237 5.14702 281.173 -0.0155869C286.109 -5.1782 285.865 -13.3413 280.702 -18.2773Z" fill="#F8F2EC"/>
<path d="M188.007 78.673C185.821 76.5832 178.964 71.4611 171.399 66.6198C180.337 68.1915 189.034 69.0555 192.088 68.987C199.214 68.8271 204.886 62.8943 204.726 55.7682C204.566 48.6422 198.634 42.9698 191.508 43.1297C188.372 43.2 179.479 44.4996 170.42 46.5566C178.102 41.2305 185.183 35.4494 187.373 33.1595C192.309 27.9969 192.125 19.8121 186.962 14.8761C181.8 9.94007 173.615 10.1238 168.679 15.2864C166.569 17.493 161.369 24.4745 156.508 32.1002C158.08 23.1631 158.944 14.4659 158.875 11.4119C158.716 4.28584 152.783 -1.38659 145.657 -1.22668C138.531 -1.06678 132.858 4.86605 133.018 11.9921C133.089 15.1683 134.435 24.3048 136.537 33.5261C131.211 25.8845 125.451 18.823 123.203 16.6735C118.04 11.7375 109.855 11.9211 104.919 17.0838C99.9835 22.2464 100.167 30.4311 105.33 35.3671C107.515 37.457 114.415 42.6188 121.999 47.4394C113.246 45.9247 104.835 45.0949 101.862 45.1616C94.7365 45.3215 89.0641 51.2543 89.224 58.3804C89.3839 65.5064 95.3167 71.1788 102.443 71.0189C105.375 70.9532 113.456 69.794 121.95 67.9534C114.952 72.9382 108.712 78.0486 106.701 80.1512C101.765 85.3138 101.949 93.4985 107.112 98.4345C112.274 103.371 120.459 103.187 125.395 98.0243C127.465 95.8593 132.527 89.0642 137.33 81.5824C135.815 90.3349 134.985 98.7461 135.052 101.719C135.212 108.845 141.145 114.517 148.271 114.357C155.397 114.197 161.069 108.265 160.909 101.138C160.844 98.2474 159.711 90.3895 157.934 82.0367C162.92 89.0748 168.092 95.3347 170.194 97.3449C175.357 102.281 183.542 102.097 188.478 96.9347C193.414 91.7721 193.17 83.609 188.007 78.673Z" fill="#F8F2EC"/>
<path d="M136.969 67.5679C143.213 73.5372 152.949 73.4867 158.716 67.455C164.483 61.4233 164.097 51.6946 157.853 45.7253C151.61 39.7561 141.874 39.8066 136.107 45.8383C130.34 51.87 130.726 61.5987 136.969 67.5679Z" fill="#0B5648"/>
<path d="M282.275 168.804C280.089 166.714 273.232 161.592 265.668 156.751C274.605 158.322 283.302 159.186 286.356 159.118C293.482 158.958 299.154 153.025 298.994 145.899C298.834 138.773 292.902 133.101 285.776 133.261C282.64 133.331 273.747 134.63 264.688 136.687C272.37 131.361 279.451 125.58 281.641 123.29C286.577 118.128 286.393 109.943 281.231 105.007C276.068 100.071 267.883 100.255 262.947 105.417C260.837 107.624 255.637 114.605 250.776 122.231C252.348 113.294 253.212 104.597 253.144 101.543C252.984 94.4167 247.051 88.7443 239.925 88.9042C232.799 89.0641 227.126 94.997 227.286 102.123C227.357 105.299 228.703 114.436 230.805 123.657C225.479 116.015 219.719 108.954 217.471 106.804C212.308 101.868 204.124 102.052 199.187 107.215C194.251 112.377 194.435 120.562 199.598 125.498C201.784 127.588 208.683 132.75 216.267 137.57C207.514 136.056 199.103 135.226 196.131 135.292C189.004 135.452 183.332 141.385 183.492 148.511C183.652 155.637 189.585 161.31 196.711 161.15C199.643 161.084 207.724 159.925 216.218 158.084C209.22 163.069 202.98 168.18 200.969 170.282C196.033 175.445 196.217 183.629 201.38 188.565C206.542 193.501 214.727 193.318 219.663 188.155C221.733 185.99 226.795 179.195 231.598 171.713C230.083 180.466 229.253 188.877 229.32 191.85C229.48 198.976 235.413 204.648 242.539 204.488C249.665 204.328 255.337 198.395 255.177 191.269C255.112 188.378 253.979 180.52 252.202 172.168C257.188 179.206 262.36 185.466 264.463 187.476C269.625 192.412 277.81 192.228 282.746 187.066C287.682 181.903 287.438 173.74 282.275 168.804Z" fill="#F8F2EC"/>
<path d="M231.238 157.698C237.481 163.668 247.218 163.617 252.984 157.585C258.751 151.554 258.365 141.825 252.122 135.856C245.879 129.886 236.142 129.937 230.375 135.969C224.609 142 224.995 151.729 231.238 157.698Z" fill="#0B5648"/>
<path d="M374.97 71.8537C372.785 69.7639 365.927 64.6418 358.363 59.8004C367.3 61.3721 375.997 62.2362 379.051 62.1677C386.177 62.0078 391.85 56.0749 391.69 48.9489C391.53 41.8229 385.597 36.1504 378.471 36.3103C375.335 36.3807 366.442 37.6802 357.383 39.7372C365.065 34.4112 372.147 28.63 374.336 26.3402C379.272 21.1776 379.088 12.9928 373.926 8.05674C368.763 3.12073 360.578 3.30439 355.642 8.467C353.533 10.6736 348.332 17.6552 343.472 25.2809C345.043 16.3438 345.907 7.64656 345.839 4.59255C345.679 -2.53349 339.746 -8.20592 332.62 -8.04602C325.494 -7.88612 319.822 -1.95328 319.982 5.17276C320.053 8.34894 321.399 17.4854 323.5 26.7068C318.175 19.0652 312.414 12.0037 310.166 9.85412C305.004 4.91811 296.819 5.10177 291.883 10.2644C286.947 15.427 287.13 23.6118 292.293 28.5478C294.479 30.6376 301.378 35.7995 308.962 40.6201C300.21 39.1053 291.798 38.2756 288.826 38.3423C281.7 38.5022 276.027 44.435 276.187 51.561C276.347 58.6871 282.28 64.3595 289.406 64.1996C292.338 64.1338 300.419 62.9747 308.913 61.1341C301.916 66.1189 295.675 71.2293 293.665 73.3318C288.729 78.4944 288.912 86.6792 294.075 91.6152C299.238 96.5512 307.422 96.3675 312.358 91.2049C314.428 89.04 319.491 82.2449 324.293 74.7631C322.778 83.5156 321.949 91.9268 322.015 94.8994C322.175 102.025 328.108 107.698 335.234 107.538C342.36 107.378 348.033 101.445 347.873 94.3192C347.808 91.428 346.674 83.5701 344.898 75.2174C349.883 82.2555 355.055 88.5154 357.158 90.5256C362.32 95.4616 370.505 95.278 375.441 90.1153C380.377 84.9527 380.133 76.7897 374.97 71.8537Z" fill="#F8F2EC"/>
<path d="M323.933 60.7486C330.177 66.7179 339.913 66.6673 345.68 60.6357C351.447 54.604 351.061 44.8753 344.817 38.906C338.574 32.9367 328.838 32.9873 323.071 39.019C317.304 45.0506 317.69 54.7793 323.933 60.7486Z" fill="#0B5648"/>
<path d="M287.713 355.133C285.525 353.041 278.659 347.913 271.087 343.066C280.034 344.639 288.741 345.504 291.799 345.436C298.933 345.276 304.612 339.336 304.452 332.202C304.292 325.067 298.352 319.388 291.218 319.548C288.079 319.619 279.175 320.92 270.106 322.979C277.797 317.647 284.886 311.859 287.078 309.567C292.02 304.398 291.836 296.204 286.667 291.262C281.499 286.32 273.305 286.504 268.363 291.673C266.251 293.882 261.044 300.872 256.178 308.506C257.752 299.559 258.617 290.851 258.548 287.794C258.388 280.66 252.448 274.981 245.314 275.141C238.18 275.301 232.501 281.241 232.661 288.375C232.732 291.555 234.079 300.702 236.183 309.934C230.852 302.283 225.085 295.214 222.834 293.062C217.666 288.12 209.471 288.304 204.53 293.472C199.588 298.641 199.772 306.835 204.94 311.777C207.129 313.869 214.036 319.037 221.629 323.863C212.866 322.347 204.445 321.516 201.469 321.583C194.335 321.743 188.656 327.682 188.816 334.817C188.976 341.951 194.916 347.63 202.05 347.47C204.985 347.404 213.076 346.244 221.58 344.401C214.574 349.391 208.326 354.508 206.313 356.613C201.372 361.781 201.556 369.975 206.724 374.917C211.893 379.859 220.087 379.675 225.029 374.506C227.101 372.339 232.169 365.536 236.977 358.046C235.461 366.808 234.63 375.229 234.697 378.205C234.857 385.339 240.797 391.018 247.931 390.858C255.065 390.698 260.744 384.759 260.584 377.624C260.519 374.73 259.384 366.863 257.606 358.5C262.597 365.547 267.775 371.814 269.88 373.826C275.049 378.768 283.243 378.584 288.185 373.416C293.126 368.247 292.882 360.075 287.713 355.133Z" fill="#F8F2EC"/>
<path d="M236.617 344.015C242.867 349.991 252.615 349.94 258.388 343.902C264.162 337.863 263.775 328.123 257.525 322.147C251.274 316.171 241.527 316.221 235.753 322.26C229.979 328.299 230.366 338.039 236.617 344.015Z" fill="#0B5648"/>
<path d="M194.91 452.195C192.722 450.103 185.856 444.975 178.283 440.128C187.231 441.702 195.938 442.567 198.995 442.498C206.13 442.338 211.809 436.398 211.649 429.264C211.489 422.13 205.549 416.451 198.415 416.611C195.276 416.681 186.372 417.982 177.302 420.042C184.994 414.709 192.083 408.922 194.275 406.629C199.217 401.461 199.033 393.266 193.864 388.325C188.696 383.383 180.501 383.567 175.56 388.735C173.448 390.945 168.241 397.934 163.375 405.569C164.948 396.621 165.813 387.914 165.745 384.856C165.585 377.722 159.645 372.043 152.511 372.203C145.376 372.363 139.697 378.303 139.858 385.437C139.929 388.617 141.276 397.764 143.38 406.996C138.049 399.346 132.282 392.276 130.031 390.124C124.862 385.182 116.668 385.366 111.726 390.535C106.785 395.703 106.968 403.898 112.137 408.839C114.325 410.932 121.233 416.099 128.825 420.926C120.063 419.409 111.642 418.578 108.666 418.645C101.532 418.805 95.853 424.745 96.0131 431.879C96.1732 439.013 102.112 444.692 109.247 444.532C112.182 444.467 120.273 443.306 128.776 441.463C121.771 446.454 115.523 451.57 113.51 453.675C108.569 458.844 108.752 467.038 113.921 471.98C119.09 476.921 127.284 476.738 132.225 471.569C134.298 469.401 139.366 462.599 144.174 455.108C142.658 463.871 141.827 472.292 141.894 475.268C142.054 482.402 147.993 488.081 155.128 487.921C162.262 487.761 167.941 481.821 167.781 474.687C167.716 471.792 166.581 463.925 164.803 455.563C169.794 462.609 174.972 468.876 177.077 470.889C182.245 475.831 190.44 475.647 195.381 470.478C200.323 465.31 200.079 457.137 194.91 452.195Z" fill="#F8F2EC"/>
<path d="M143.815 441.077C150.065 447.053 159.813 447.003 165.586 440.964C171.36 434.925 170.973 425.185 164.723 419.209C158.472 413.233 148.725 413.283 142.951 419.322C137.178 425.361 137.564 435.101 143.815 441.077Z" fill="#0B5648"/>
<path d="M289.288 542.43C287.1 540.337 280.235 535.209 272.662 530.363C281.609 531.936 290.316 532.801 293.374 532.732C300.508 532.572 306.187 526.633 306.027 519.498C305.867 512.364 299.927 506.685 292.793 506.845C289.654 506.916 280.751 508.217 271.681 510.276C279.372 504.944 286.462 499.156 288.653 496.864C293.595 491.695 293.411 483.501 288.243 478.559C283.074 473.617 274.88 473.801 269.938 478.97C267.826 481.179 262.619 488.168 257.753 495.803C259.327 486.856 260.192 478.148 260.123 475.091C259.963 467.957 254.023 462.278 246.889 462.438C239.755 462.598 234.076 468.537 234.236 475.672C234.307 478.852 235.655 487.999 237.758 497.231C232.427 489.58 226.66 482.511 224.409 480.358C219.241 475.417 211.046 475.601 206.105 480.769C201.163 485.938 201.347 494.132 206.516 499.074C208.704 501.166 215.611 506.334 223.204 511.16C214.441 509.643 206.02 508.813 203.044 508.88C195.91 509.04 190.231 514.979 190.391 522.114C190.551 529.248 196.491 534.927 203.625 534.767C206.56 534.701 214.651 533.54 223.155 531.698C216.149 536.688 209.901 541.805 207.889 543.91C202.947 549.078 203.131 557.272 208.299 562.214C213.468 567.156 221.662 566.972 226.604 561.803C228.676 559.636 233.744 552.833 238.553 545.342C237.036 554.105 236.205 562.526 236.272 565.502C236.432 572.636 242.372 578.315 249.506 578.155C256.64 577.995 262.319 572.055 262.159 564.921C262.094 562.027 260.959 554.16 259.181 545.797C264.172 552.844 269.35 559.111 271.455 561.123C276.624 566.065 284.818 565.881 289.76 560.712C294.702 555.544 294.457 547.371 289.288 542.43Z" fill="#F8F2EC"/>
<path d="M238.192 531.312C244.442 537.288 254.19 537.237 259.963 531.199C265.737 525.16 265.35 515.42 259.1 509.444C252.849 503.468 243.102 503.518 237.328 509.557C231.555 515.596 231.941 525.336 238.192 531.312Z" fill="#0B5648"/>
<path d="M382.09 445.367C379.902 443.275 373.037 438.147 365.464 433.3C374.411 434.874 383.118 435.739 386.176 435.67C393.31 435.51 398.989 429.57 398.829 422.436C398.669 415.302 392.729 409.623 385.595 409.783C382.456 409.853 373.553 411.154 364.483 413.214C372.174 407.881 379.264 402.094 381.455 399.801C386.397 394.632 386.213 386.438 381.045 381.497C375.876 376.555 367.682 376.739 362.74 381.907C360.628 384.116 355.421 391.106 350.555 398.741C352.129 389.793 352.994 381.086 352.925 378.028C352.765 370.894 346.825 365.215 339.691 365.375C332.557 365.535 326.878 371.475 327.038 378.609C327.109 381.789 328.457 390.936 330.56 400.168C325.229 392.518 319.462 385.448 317.211 383.296C312.043 378.354 303.848 378.538 298.907 383.707C293.965 388.875 294.149 397.07 299.318 402.011C301.506 404.103 308.413 409.271 316.006 414.097C307.243 412.581 298.822 411.75 295.846 411.817C288.712 411.977 283.033 417.917 283.193 425.051C283.353 432.185 289.293 437.864 296.427 437.704C299.362 437.638 307.453 436.478 315.957 434.635C308.951 439.626 302.703 444.742 300.691 446.847C295.749 452.016 295.933 460.21 301.101 465.152C306.27 470.093 314.464 469.909 319.406 464.741C321.478 462.573 326.546 455.77 331.355 448.28C329.838 457.043 329.007 465.464 329.074 468.44C329.234 475.574 335.174 481.253 342.308 481.093C349.442 480.933 355.121 474.993 354.961 467.859C354.896 464.964 353.761 457.097 351.983 448.735C356.974 455.781 362.152 462.048 364.257 464.061C369.426 469.002 377.62 468.819 382.562 463.65C387.504 458.481 387.259 450.309 382.09 445.367Z" fill="#F8F2EC"/>
<path d="M330.993 434.249C337.244 440.225 346.992 440.174 352.765 434.136C358.539 428.097 358.152 418.357 351.902 412.381C345.651 406.405 335.904 406.455 330.13 412.494C324.356 418.533 324.743 428.273 330.993 434.249Z" fill="#0B5648"/>
<path d="M97.5696 173.263C95.3838 171.173 88.5263 166.051 80.9621 161.21C89.8992 162.781 98.5964 163.645 101.65 163.577C108.776 163.417 114.449 157.484 114.289 150.358C114.129 143.232 108.196 137.56 101.07 137.72C97.9347 137.79 89.0416 139.089 79.9822 141.146C87.6646 135.82 94.746 130.039 96.9353 127.749C101.871 122.587 101.688 114.402 96.5251 109.466C91.3625 104.53 83.1777 104.714 78.2417 109.876C76.1319 112.083 70.9312 119.064 66.0708 126.69C67.6425 117.753 68.5066 109.056 68.4381 106.002C68.2782 98.8757 62.3453 93.2033 55.2193 93.3632C48.0933 93.5231 42.4208 99.4559 42.5807 106.582C42.652 109.758 43.9978 118.895 46.0991 128.116C40.7739 120.474 35.0136 113.413 32.7654 111.263C27.6028 106.327 19.418 106.511 14.482 111.674C9.54605 116.836 9.72971 125.021 14.8923 129.957C17.0781 132.047 23.9772 137.209 31.5613 142.029C22.8088 140.515 14.3976 139.685 11.425 139.751C4.29903 139.911 -1.3734 145.844 -1.2135 152.97C-1.0536 160.096 4.87924 165.769 12.0053 165.609C14.9371 165.543 23.0185 164.384 31.5124 162.543C24.515 167.528 18.2741 172.638 16.2639 174.741C11.3279 179.904 11.5115 188.088 16.6741 193.024C21.8367 197.96 30.0215 197.777 34.9575 192.614C37.0275 190.449 42.0898 183.654 46.8923 176.172C45.3776 184.925 44.5478 193.336 44.6145 196.309C44.7744 203.435 50.7072 209.107 57.8333 208.947C64.9593 208.787 70.6317 202.854 70.4718 195.728C70.407 192.837 69.2732 184.979 67.4969 176.627C72.4826 183.665 77.6546 189.925 79.7571 191.935C84.9197 196.871 93.1044 196.687 98.0405 191.525C102.976 186.362 102.732 178.199 97.5696 173.263Z" fill="#F8F2EC"/>
<path d="M46.532 162.157C52.7753 168.127 62.5115 168.076 68.2784 162.044C74.0454 156.013 73.6592 146.284 67.4159 140.315C61.1725 134.345 51.4363 134.396 45.6694 140.428C39.9025 146.459 40.2886 156.188 46.532 162.157Z" fill="#0B5648"/>
<path d="M4.87429 270.213C2.68851 268.123 -4.16901 263.001 -11.7332 258.16C-2.79608 259.731 5.90107 260.596 8.95509 260.527C16.0811 260.367 21.7536 254.434 21.5937 247.308C21.4338 240.182 15.5009 234.51 8.37487 234.67C5.23942 234.74 -3.65364 236.04 -12.713 238.097C-5.03069 232.771 2.05069 226.989 4.24005 224.7C9.17606 219.537 8.9924 211.352 3.82979 206.416C-1.33282 201.48 -9.51759 201.664 -14.4536 206.826C-16.5633 209.033 -21.7641 216.015 -26.6244 223.64C-25.0528 214.703 -24.1887 206.006 -24.2572 202.952C-24.4171 195.826 -30.3499 190.153 -37.476 190.313C-44.602 190.473 -50.2744 196.406 -50.1145 203.532C-50.0433 206.708 -48.6975 215.845 -46.5961 225.066C-51.9213 217.425 -57.6816 210.363 -59.9299 208.214C-65.0925 203.278 -73.2772 203.461 -78.2132 208.624C-83.1492 213.786 -82.9656 221.971 -77.803 226.907C-75.6172 228.997 -68.718 234.159 -61.1339 238.979C-69.8864 237.465 -78.2977 236.635 -81.2702 236.702C-88.3963 236.862 -94.0687 242.794 -93.9088 249.92C-93.7489 257.046 -87.8161 262.719 -80.69 262.559C-77.7582 262.493 -69.6768 261.334 -61.1829 259.493C-68.1803 264.478 -74.4212 269.589 -76.4314 271.691C-81.3674 276.854 -81.1837 285.039 -76.0211 289.975C-70.8585 294.911 -62.6738 294.727 -57.7378 289.564C-55.6678 287.399 -50.6055 280.604 -45.803 273.122C-47.3177 281.875 -48.1475 290.286 -48.0808 293.259C-47.9209 300.385 -41.988 306.057 -34.862 305.897C-27.736 305.737 -22.0635 299.805 -22.2234 292.679C-22.2883 289.787 -23.422 281.929 -25.1984 273.577C-20.2127 280.615 -15.0407 286.875 -12.9382 288.885C-7.7756 293.821 0.409167 293.637 5.34518 288.475C10.2812 283.312 10.0369 275.149 4.87429 270.213Z" fill="#F8F2EC"/>
<path d="M99.1419 360.344C96.9561 358.254 90.0986 353.132 82.5344 348.291C91.4715 349.862 100.168 350.726 103.222 350.658C110.348 350.498 116.021 344.565 115.861 337.439C115.701 330.313 109.768 324.641 102.642 324.801C99.507 324.871 90.6139 326.17 81.5545 328.227C89.2369 322.901 96.3183 317.12 98.5076 314.83C103.443 309.668 103.26 301.483 98.0974 296.547C92.9348 291.611 84.75 291.795 79.814 296.957C77.7042 299.164 72.5035 306.145 67.6431 313.771C69.2148 304.834 70.0789 296.137 70.0104 293.083C69.8505 285.957 63.9176 280.284 56.7916 280.444C49.6656 280.604 43.9931 286.537 44.153 293.663C44.2243 296.839 45.5701 305.976 47.6714 315.197C42.3462 307.555 36.5859 300.494 34.3377 298.344C29.1751 293.408 20.9903 293.592 16.0543 298.755C11.1183 303.917 11.302 312.102 16.4646 317.038C18.6504 319.128 25.5495 324.29 33.1336 329.11C24.3811 327.596 15.9699 326.766 12.9973 326.832C5.8713 326.992 0.198865 332.925 0.358768 340.051C0.51867 347.177 6.45151 352.85 13.5775 352.69C16.5094 352.624 24.5908 351.465 33.0847 349.624C26.0873 354.609 19.8464 359.72 17.8362 361.822C12.9002 366.985 13.0838 375.169 18.2464 380.105C23.409 385.041 31.5938 384.858 36.5298 379.695C38.5998 377.53 43.6621 370.735 48.4646 363.253C46.9499 372.006 46.1201 380.417 46.1868 383.39C46.3467 390.516 52.2795 396.188 59.4056 396.028C66.5316 395.868 72.204 389.935 72.0441 382.809C71.9793 379.918 70.8455 372.06 69.0692 363.708C74.0549 370.746 79.2269 377.006 81.3294 379.016C86.492 383.952 94.6767 383.768 99.6128 378.606C104.548 373.443 104.304 365.28 99.1419 360.344Z" fill="#F8F2EC"/>
<path d="M48.1052 349.239C54.3485 355.209 64.0847 355.158 69.8517 349.126C75.6186 343.095 75.2324 333.366 68.9891 327.397C62.7458 321.427 53.0096 321.478 47.2426 327.51C41.4757 333.541 41.8619 343.27 48.1052 349.239Z" fill="#0B5648"/>
<path d="M191.838 263.394C189.652 261.304 182.794 256.182 175.23 251.34C184.167 252.912 192.865 253.776 195.919 253.708C203.045 253.548 208.717 247.615 208.557 240.489C208.397 233.363 202.464 227.69 195.338 227.85C192.203 227.921 183.31 229.22 174.25 231.277C181.933 225.951 189.014 220.17 191.204 217.88C196.14 212.718 195.956 204.533 190.793 199.597C185.631 194.661 177.446 194.844 172.51 200.007C170.4 202.214 165.199 209.195 160.339 216.821C161.911 207.884 162.775 199.187 162.706 196.133C162.546 189.007 156.614 183.334 149.488 183.494C142.361 183.654 136.689 189.587 136.849 196.713C136.92 199.889 138.266 209.025 140.367 218.247C135.042 210.605 129.282 203.544 127.034 201.394C121.871 196.458 113.686 196.642 108.75 201.804C103.814 206.967 103.998 215.152 109.161 220.088C111.346 222.178 118.245 227.34 125.83 232.16C117.077 230.645 108.666 229.816 105.693 229.882C98.5676 230.042 92.8952 235.975 93.0551 243.101C93.215 250.227 99.1478 255.9 106.273 255.74C109.205 255.674 117.287 254.515 125.781 252.674C118.783 257.659 112.542 262.769 110.532 264.872C105.596 270.034 105.78 278.219 110.942 283.155C116.105 288.091 124.29 287.908 129.226 282.745C131.296 280.58 136.358 273.785 141.16 266.303C139.646 275.056 138.816 283.467 138.883 286.439C139.043 293.565 144.975 299.238 152.101 299.078C159.228 298.918 164.9 292.985 164.74 285.859C164.675 282.968 163.541 275.11 161.765 266.757C166.751 273.796 171.923 280.055 174.025 282.066C179.188 287.002 187.373 286.818 192.309 281.655C197.245 276.493 197 268.33 191.838 263.394Z" fill="#F8F2EC"/>
<path d="M140.801 252.288C147.044 258.257 156.78 258.207 162.547 252.175C168.314 246.144 167.928 236.415 161.684 230.446C155.441 224.476 145.705 224.527 139.938 230.559C134.171 236.59 134.557 246.319 140.801 252.288Z" fill="#0B5648"/>
</g>
</g>
<defs>
<clipPath id="clip0_1167_751">
<rect width="500" height="500" fill="white"/>
</clipPath>
</defs>
</svg>
