<svg width="197" height="197" viewBox="0 0 197 197" fill="none" xmlns="http://www.w3.org/2000/svg">
<g clip-path="url(#clip0_935_2)">
<path d="M216.7 -19.7H-19.7002V216.7H216.7V-19.7Z" fill="white"/>
<path d="M216.7 -19.7H-19.7002V216.7H216.7V-19.7Z" fill="#F8F2EC"/>
<mask id="mask0_935_2" style="mask-type:luminance" maskUnits="userSpaceOnUse" x="79" y="105" width="22" height="79">
<path d="M79.8506 105.442H100.339V183.998H79.8506V105.442Z" fill="white"/>
</mask>
<g mask="url(#mask0_935_2)">
<path d="M92.0192 115.85C92.9016 128.53 93.1335 141.304 91.5554 153.892C90.8105 159.557 89.7435 165.365 91.0896 170.891C91.9269 174.283 93.6445 177.394 94.8983 180.647C95.3169 181.761 95.6883 182.875 95.9202 184.037C95.9674 184.037 96.0146 184.037 96.0146 184.037C97.3136 183.71 98.6146 183.433 99.9608 183.294C99.6365 181.946 99.2651 180.647 98.6146 179.438C96.9422 176.093 93.784 173.446 92.994 169.824C91.9269 165.225 94.8531 160.674 95.3641 155.981C95.8751 151.105 93.784 146.367 93.6445 141.444C93.5521 137.309 94.9455 133.268 95.3641 129.133C96.0146 123.281 94.7587 117.383 93.5521 111.623C93.2258 110.137 92.9016 108.604 91.8797 107.49C89.6963 105.027 85.7029 105.817 82.5427 106.792C82.2185 108.883 81.4756 110.88 80.4065 112.692C79.7108 113.899 80.4537 116.035 81.4756 116.964C81.6603 114.828 82.0317 112.645 83.2876 110.927C84.5414 109.207 86.9567 108.186 88.9062 109.068C91.3215 110.182 91.8325 113.248 92.0192 115.85Z" fill="#087661"/>
</g>
<path d="M140.42 85.1471C139.443 83.3823 137.399 82.2208 135.355 82.268C134.659 82.3131 133.962 82.4527 133.451 82.9185C132.987 83.3823 132.755 84.0328 132.568 84.6833C130.619 92.3006 133.127 100.661 130.34 108.001C129.782 109.532 128.992 110.927 128.435 112.458C126.623 117.428 127.319 122.91 127.785 128.206C128.296 133.5 128.481 139.121 125.833 143.72C124.998 145.158 123.929 146.414 123.279 147.947C122.583 149.48 122.351 151.197 122.117 152.87C121.561 156.958 121.003 160.998 120.447 165.086C120.168 166.99 119.936 168.895 119.285 170.707C118.356 173.307 116.73 175.582 115.848 178.184C115.337 179.717 115.103 181.25 115.011 182.875C115.103 182.875 115.15 182.875 115.243 182.875C116.636 182.828 118.077 182.783 119.47 182.783C119.562 179.206 119.889 175.63 120.631 172.145C121.142 169.777 121.84 167.454 122.443 165.133C123.186 162.16 123.744 159.186 124.161 156.168C124.44 153.845 124.627 151.522 125.322 149.293C125.881 147.576 126.716 145.948 127.366 144.276C130.061 137.401 129.734 129.784 129.318 122.399C129.178 119.983 129.039 117.523 129.597 115.2C130.34 112.274 132.197 109.626 132.616 106.606C132.847 105.028 132.661 103.402 132.616 101.822C132.476 97.1784 133.638 92.6249 134.799 88.1205C135.078 87.0986 135.402 85.9843 136.332 85.5185C137.259 85.0547 138.7 86.0295 138.189 86.9119L140.42 85.1471Z" fill="#087661"/>
<path d="M108.974 115.664C107.533 112.134 106.047 108.465 103.353 105.723C102.61 104.935 101.773 104.238 101.17 103.308C100.334 102.009 100.195 100.382 99.9609 98.8488C98.707 90.07 95.5489 81.7098 92.3907 73.442C90.7655 69.1695 89.093 64.8027 85.9349 61.505C84.2152 59.693 82.079 58.2545 80.5933 56.2558C78.2703 53.0976 77.8066 48.9647 76.0397 45.4331C74.2749 41.9035 69.9101 38.93 66.5653 41.0211C64.5214 42.2749 63.5918 45.0617 61.3632 45.9441C60.2017 45.0165 60.2489 43.065 60.8974 41.7168C61.5479 40.3706 62.7094 39.3487 63.8709 38.3739C65.4038 37.1201 67.1686 35.7719 69.1673 35.8191C71.0716 35.9114 72.6025 37.2124 73.9507 38.5586C78.6418 43.2969 82.3581 49.0099 84.7262 55.281C85.2844 56.7667 85.8405 58.3468 87.0963 59.2744C87.9315 59.9249 88.9535 60.204 89.8359 60.7621C91.8326 61.9688 92.8545 64.1994 93.8313 66.3356C97.129 73.8134 100.472 81.3856 101.728 89.4667C102.052 91.5106 102.191 93.5544 102.795 95.506C103.724 98.7113 105.676 101.498 107.254 104.469C109.019 107.862 110.32 111.483 111.063 115.2C109.996 115.943 109.158 114.457 108.974 115.664Z" fill="#087661"/>
<path d="M107.581 182.923C108.603 182.923 109.625 182.923 110.647 182.923C110.368 179.391 110.228 175.862 110.089 172.332C109.902 166.527 109.949 160.674 109.902 154.867C109.857 152.87 109.81 150.873 109.902 148.829C109.391 145.066 109.067 141.304 109.346 137.401C109.578 133.779 109.857 130.11 110.552 126.534C111.343 122.399 112.689 118.266 112.504 114.038C112.364 111.065 111.482 108.139 110.739 105.26C107.998 94.4369 107.534 83.1504 109.346 72.141C109.81 69.4015 110.413 66.6147 111.806 64.1071C112.689 62.5742 113.805 61.1336 114.593 59.5535C116.824 54.9548 115.615 49.7076 116.36 44.7826C116.452 44.1793 116.592 43.576 117.056 43.1122C117.521 42.6464 118.264 42.4617 118.96 42.3222C122.352 41.6245 124.301 40.2311 126.206 37.6763C122.584 39.6278 117.056 38.2796 114.408 41.2059C113.294 42.4617 113.107 44.1321 112.968 45.7122C112.689 48.778 112.457 51.8439 112.178 54.9097C111.993 57.0931 111.806 59.3216 110.971 61.3655C110.321 62.9908 109.346 64.4785 108.556 66.0566C103.122 77.0188 108.463 89.4216 109.206 101.311C109.438 104.935 109.206 108.557 108.974 112.134C108.509 119.844 108.045 127.555 107.581 135.312C107.302 139.679 107.07 144.044 106.42 148.364C106.14 150.455 105.722 152.499 105.582 154.588C105.35 157.608 105.63 160.627 105.909 163.6L107.581 182.923Z" fill="#087661"/>
<mask id="mask1_935_2" style="mask-type:luminance" maskUnits="userSpaceOnUse" x="107" y="73" width="68" height="76">
<path d="M107.168 73.3962H174.823V148.519H107.168V73.3962Z" fill="white"/>
</mask>
<g mask="url(#mask1_935_2)">
<path d="M131.686 84.4959C127.366 84.4959 123.094 84.4508 118.774 84.4508C117.426 84.4508 115.988 84.4508 114.871 85.1936C113.849 85.8442 113.246 86.9112 112.688 87.9332C111.481 90.1166 110.273 92.3 109.019 94.5286C108.368 95.6901 107.72 96.8987 107.625 98.1997C107.486 99.825 108.184 101.403 108.879 102.891C111.202 107.767 113.478 112.692 115.801 117.567C116.544 119.195 117.334 120.82 118.588 122.074C119.657 123.143 121.05 123.838 122.396 124.536C128.528 127.555 134.939 130.11 140.512 134.011C143.483 136.102 146.178 138.517 149.059 140.746C152.541 143.487 156.258 145.902 160.206 147.992C160.485 148.131 160.809 148.318 161.136 148.178C161.415 148.084 161.599 147.807 161.739 147.528C164.944 141.211 167.916 134.754 170.61 128.205C172.19 124.397 173.676 120.541 174.234 116.5C174.651 113.342 174.513 110.09 174.279 106.884C173.768 99.4064 172.746 91.6495 168.521 85.4727C165.779 81.4301 161.831 78.3643 157.977 75.3929C157.048 74.6952 156.071 73.9523 154.912 73.86C154.074 73.8128 153.284 74.0919 152.541 74.371C149.244 75.5324 145.854 76.7391 143.206 79.0148C141.44 80.5026 140.141 85.0069 138.608 85.8893C136.935 86.7717 133.777 84.4959 131.686 84.4959Z" fill="#087661"/>
</g>
<path d="M135.124 94.2044L132.29 90.1166L115.43 88.5837L130.896 92.6243L135.124 94.2044Z" fill="#0B5648"/>
<path d="M132.94 99.8257L124.069 94.1127L115.43 91.2788L111.295 95.4117L112.411 99.5467L120.168 97.7347L132.94 99.8257Z" fill="#0B5648"/>
<path d="M132.848 104.841L123.187 102.009C123.187 102.009 113.293 102.844 113.478 103.263C113.665 103.634 117.102 107.954 117.102 107.954L130.48 105.771L137.446 108.186L132.848 104.841Z" fill="#0B5648"/>
<path d="M137.446 112.087L121.978 110.509L117.519 111.81C119.425 115.107 120.724 117.662 120.724 117.662C120.724 117.662 124.393 117.707 125.37 117.151C126.345 116.593 132.987 113.759 132.755 113.759C132.569 113.759 137.446 112.087 137.446 112.087Z" fill="#0B5648"/>
<path d="M144.6 110.788L132.708 117.847L129.55 121.471C129.55 121.471 131.454 124.769 131.454 124.211C131.454 123.607 132.661 120.728 132.661 120.728C136.609 117.662 144.6 110.788 144.6 110.788Z" fill="#0B5648"/>
<path d="M146.689 115.292L137.354 120.03L135.961 124.35C137.307 126.997 138.793 129.739 138.793 129.739L141.303 121.61L144.553 118.729L146.689 115.292Z" fill="#0B5648"/>
<path d="M147.758 122.538L142.229 129.739C141.998 131.688 146.457 133.687 146.457 133.687C146.457 133.687 146.133 128.53 146.504 128.111C146.875 127.695 149.662 123.654 149.662 123.654L149.709 119.983L147.758 122.538Z" fill="#0B5648"/>
<path d="M151.798 126.857L151.38 127.926L148.408 135.22C149.941 137.169 151.659 137.959 151.659 137.959L151.706 132.386L153.146 124.489L151.798 126.857Z" fill="#0B5648"/>
<path d="M156.397 131.317L153.052 136.287L152.217 140.933C155.467 141.536 156.397 131.317 156.397 131.317Z" fill="#0B5648"/>
<path d="M158.626 136.195L156.258 142.139L157.372 143.488L158.626 136.195Z" fill="#0B5648"/>
<path d="M145.622 87.9807C145.622 87.9807 147.292 79.992 147.758 80.0371C148.177 80.0371 153.75 77.3427 153.75 77.3427C153.75 77.3427 156.629 76.5547 157.048 76.7866C159.416 78.1328 159.416 78.1328 159.416 78.1328L153.703 80.6876L149.059 81.6644L145.622 87.9807Z" fill="#0B5648"/>
<path d="M144.832 92.8117L145.762 91.6502L151.335 84.8681L156.956 82.4528L161.692 80.3638L166.012 84.6362L160.438 86.6329L144.832 92.8117Z" fill="#0B5648"/>
<path d="M150.034 95.83C150.917 94.7157 154.354 89.6984 154.865 89.8379C155.376 89.9774 162.901 88.6313 163.504 88.2126C164.107 87.794 167.405 88.2598 167.405 88.2598C167.405 88.2598 162.158 90.5356 161.415 90.6751C160.67 90.8147 156.026 91.929 156.026 91.929C156.026 91.929 155.747 94.808 154.772 95.0871C153.796 95.3662 150.034 95.83 150.034 95.83Z" fill="#0B5648"/>
<path d="M151.148 100.01L152.31 99.5464L165.872 93.9258L171.261 94.6686L163.04 99.2674L157.931 98.8959L151.148 100.01Z" fill="#0B5648"/>
<path d="M152.263 103.215C152.681 102.936 158.394 101.822 159.092 101.682C159.788 101.543 164.202 101.311 164.758 101.311C165.316 101.311 171.169 100.289 171.169 100.289L172.747 103.447C172.747 103.447 163.596 103.215 163.18 103.355C162.761 103.494 157.093 105.91 156.722 105.446C156.305 104.98 152.263 103.215 152.263 103.215Z" fill="#0B5648"/>
<mask id="mask2_935_2" style="mask-type:luminance" maskUnits="userSpaceOnUse" x="150" y="107" width="25" height="8">
<path d="M150.771 107.018H174.823V114.372H150.771V107.018Z" fill="white"/>
</mask>
<g mask="url(#mask2_935_2)">
<path d="M151.056 107.256L159.603 108.465L169.775 108.604L174.466 110.137C174.466 110.137 172.19 114.178 172.609 114.27C173.025 114.364 168.566 113.435 168.566 113.435L158.999 110.74C158.999 110.74 155.283 109.811 154.585 109.347C153.935 108.883 151.056 107.256 151.056 107.256Z" fill="#0B5648"/>
</g>
<path d="M155.144 112.505C155.236 112.505 155.468 112.553 155.839 112.598C158.813 113.156 170.286 115.524 170.286 115.524L169.496 119.056C167.312 120.03 166.617 118.405 165.595 117.802C164.573 117.244 159.787 115.384 159.787 115.384L155.144 112.505Z" fill="#0B5648"/>
<path d="M153.284 115.85C153.703 115.989 159.787 118.126 159.787 118.126C159.787 118.126 164.107 119.89 164.107 120.728C164.107 121.563 166.988 123.235 166.988 123.235C168.566 123.978 166.941 126.997 166.941 126.997C166.941 126.997 164.757 125.882 163.783 124.629C162.761 123.328 158.905 119.24 158.905 119.24L153.284 115.85Z" fill="#0B5648"/>
<path d="M155.051 119.24C155.699 119.52 163.179 126.115 163.179 126.115L166.058 130.016C166.058 130.016 164.712 132.247 164.293 132.526C163.83 132.805 155.051 119.24 155.051 119.24Z" fill="#0B5648"/>
<path d="M157.604 126.952C158.209 127.229 162.018 131.828 162.481 132.525C162.945 133.221 162.9 136.242 162.9 136.242L160.669 139.028L160.764 132.989L157.604 126.952Z" fill="#0B5648"/>
<path d="M140.094 88.863C140.233 89.2345 141.208 94.9947 141.208 95.7375C141.208 96.4804 141.951 98.5242 142.649 99.9176C143.067 100.847 143.81 103.123 144.274 104.748C144.506 105.631 144.692 106.281 144.692 106.421C144.692 106.839 145.714 111.53 146.736 112.413C147.758 113.295 149.755 117.662 149.755 117.662C149.755 117.662 153.611 122.306 153.89 122.632C154.167 122.956 156.398 126.905 156.398 126.905C156.398 126.905 156.35 124.629 154.957 122.632C153.564 120.633 153.053 118.31 152.031 116.964C151.009 115.618 150.777 113.295 149.755 112.413C148.733 111.53 148.083 110.137 146.689 108.278C145.296 106.421 144.042 100.987 143.718 99.9176C143.346 98.8485 141.859 96.1561 141.534 95.0398C140.652 91.9288 140.094 88.863 140.094 88.863Z" fill="#0B5648"/>
<mask id="mask3_935_2" style="mask-type:luminance" maskUnits="userSpaceOnUse" x="22" y="28" width="66" height="85">
<path d="M22.3447 28.7434H87.7303V112.797H22.3447V28.7434Z" fill="white"/>
</mask>
<g mask="url(#mask3_935_2)">
<path d="M41.5748 29.2236C40.1814 34.4257 34.5608 37.2596 31.8212 41.8563C30.6146 43.855 30.0093 46.1759 29.4059 48.4537C27.3621 55.9766 25.3182 63.5488 23.2743 71.0738C22.8105 72.7463 22.3447 74.4639 22.3447 76.2287C22.3447 78.0406 22.7634 79.8526 23.2292 81.6646C25.6445 91.8368 27.1302 102.241 27.6412 112.692C37.4419 110.277 47.2427 107.814 57.0434 105.399C59.5982 104.749 62.2454 104.098 64.3817 102.473C68.7936 99.175 69.676 92.9511 72.6495 88.3052C75.112 84.4965 78.9658 81.757 81.3832 77.9011C83.1008 75.2067 83.9832 72.0486 84.726 68.9376C86.3061 62.2478 87.1885 55.4205 87.3732 48.546C87.4204 47.6637 87.4204 46.7341 87.0962 45.8989C86.3513 43.9001 84.1227 43.0177 82.0788 42.3672C78.3625 41.1606 74.3219 40.0463 70.5605 41.1606C68.4222 41.7639 64.7079 45.2935 62.6169 44.9693C59.7829 44.5978 60.1544 41.0683 60.8049 39.0244C54.86 35.1685 47.846 32.3818 41.5748 29.2236Z" fill="#087661"/>
</g>
<path d="M59.8779 51.936C61.3636 50.914 68.5172 46.2229 68.5172 46.2229L73.3478 43.5286C73.3478 43.5286 80.0355 44.7824 80.7333 44.7824C81.4761 44.7824 84.6343 45.5724 84.6343 45.5724C82.1266 46.8735 78.084 46.502 78.084 46.502C78.084 46.502 75.2049 45.8987 73.5797 45.9911C71.9996 46.1306 71.1172 46.5472 69.9557 46.9658C68.7942 47.3844 66.6129 48.9645 65.7305 49.102C64.846 49.2416 59.8779 51.936 59.8779 51.936Z" fill="#0B5648"/>
<path d="M57.0439 55.6992C57.4626 55.6992 63.8712 54.3059 63.8712 54.3059C63.8712 54.3059 70.561 52.6334 71.583 52.0752C72.6028 51.5171 77.8521 51.0061 77.8521 51.0061L81.3365 51.4719C83.1936 53.0972 84.4475 56.7212 84.4475 56.7212L80.175 56.674L74.6467 55.7444C74.6467 55.7444 70.1424 54.8168 69.4447 54.8168C68.7018 54.8168 65.0799 55.652 65.0799 55.652L57.0891 54.8168L57.0439 55.6992Z" fill="#0B5648"/>
<path d="M58.0186 60.9012C58.2976 60.8068 63.8239 61.5517 64.7083 60.9935C66.0073 60.1583 73.0213 59.5078 73.0213 59.5078L78.0838 60.0188L80.0826 63.3616L76.4134 66.5218L72.0938 63.5484C72.0938 63.5484 65.7303 62.155 64.103 61.8759C62.5249 61.5517 58.2976 60.854 58.2976 60.854L58.0186 60.9012Z" fill="#0B5648"/>
<path d="M57.9707 65.4055C59.1322 65.4055 70.1416 66.4275 70.1416 66.4275L78.9656 67.6813C79.5237 68.8428 78.2227 70.1438 78.2227 70.1438C78.2227 70.1438 74.7403 69.9591 73.4393 69.3537C72.1855 68.7976 57.9707 65.4055 57.9707 65.4055Z" fill="#0B5648"/>
<path d="M54.9993 47.5695C54.9993 47.5695 54.1621 42.9728 53.6983 42.2279C53.2345 41.485 53.1401 39.0246 52.584 38.4192C52.0259 37.8159 48.96 36.3302 48.2644 35.9116C47.5215 35.4478 44.0843 32.3348 43.5261 32.2424C40.4603 31.7315 39.2988 34.9368 39.2988 34.9368L44.0843 37.0259C46.5447 38.2345 49.5654 41.0213 49.5654 41.0213L52.584 43.9475L54.9993 47.5695Z" fill="#0B5648"/>
<path d="M51.609 50.6821L48.5883 46.5472C48.5883 46.5472 46.5917 45.0615 45.7093 44.7824C42.3644 43.7153 40.7863 43.112 40.7863 43.112L38.5085 39.7671L33.957 43.0648C33.6328 44.9691 37.2547 47.3372 38.2766 47.3844C39.2986 47.4768 44.361 47.4768 44.361 47.4768L47.0554 49.1964L51.609 50.6821Z" fill="#0B5648"/>
<path d="M48.6817 52.818L42.7368 52.4466C42.7368 52.4466 38.5567 50.0785 37.8138 49.939C37.071 49.7994 33.8656 49.4731 33.8656 49.4731C32.7041 50.1709 31.5427 51.6114 31.5427 51.6114C30.7998 53.7948 30.7998 53.7948 30.7998 53.7948L37.6271 54.0267L42.6916 54.3509L49.3794 55.0015C51.5156 56.3476 48.6817 52.818 48.6817 52.818Z" fill="#0B5648"/>
<path d="M51.515 57.5092C51.515 57.5092 43.6658 57.975 42.6438 57.4168C41.6219 56.8135 33.7727 57.3245 33.7727 57.3245L31.3102 57.0454L29.8696 58.9969C29.7301 60.2959 35.677 59.0421 35.677 59.0421L42.0857 58.1145L46.9635 58.1597L51.515 57.5092Z" fill="#0B5648"/>
<path d="M47.5669 61.6897C47.5669 61.6897 40.1815 60.8545 39.02 60.715C37.8606 60.5754 31.3103 61.505 31.3103 61.505L27.083 62.4797L26.7588 65.9642L30.707 65.1269L35.0718 63.3621L40.6924 62.6193L47.5669 61.6897Z" fill="#0B5648"/>
<path d="M56.0674 66.2881C56.486 66.2881 59.6442 69.2144 60.5266 69.9593C61.409 70.7021 65.1253 74.6955 65.5439 74.4636C65.9625 74.2317 71.2097 74.5108 71.2097 74.5108L73.8117 74.5559L72.8822 79.3865L68.423 77.4371L63.7791 76.5075L60.3419 71.2131C57.9266 68.1924 56.0674 66.2881 56.0674 66.2881Z" fill="#0B5648"/>
<path d="M56.0215 71.3525L61.0368 77.9479L64.197 81.7566C64.197 81.7566 68.5618 83.2423 68.3771 84.3566C68.1903 85.4729 67.587 89.0477 67.587 89.0477L67.5398 92.2079C66.0541 94.1122 65.8222 91.5102 65.8222 91.5102C65.8222 91.5102 63.963 87.7015 63.963 87.1433C63.963 86.54 62.1059 82.9181 62.1059 82.9181C62.1059 82.9181 60.2488 78.227 60.1092 77.9479C59.9697 77.6689 57.5544 75.9041 57.8335 75.0217C58.1105 74.1393 56.0215 71.3525 56.0215 71.3525Z" fill="#0B5648"/>
<path d="M54.6738 75.7173C54.6738 75.7173 55.1397 76.8788 55.743 78.1798C56.3463 79.4808 57.1363 80.827 57.7868 81.2907C59.0879 82.1731 60.4812 85.6104 60.4812 85.6104L60.2945 90.5805C60.2945 90.5805 61.2713 93.9726 61.4088 94.6231C61.5483 95.2736 61.3636 97.7813 61.3636 97.7813C58.856 99.4537 57.9264 99.4537 57.9264 99.4537C57.9264 99.4537 57.6473 93.0902 57.6945 92.1134C57.6945 91.1387 58.1111 86.7267 58.1111 86.7267C58.1111 86.7267 57.9264 84.1719 57.834 83.1499C57.6001 82.128 54.6738 75.7173 54.6738 75.7173Z" fill="#0B5648"/>
<path d="M53.0033 79.1548C53.0033 79.1548 52.5847 81.7569 52.4452 84.1722C52.3528 86.0765 52.3528 87.8413 52.8638 88.1655C54.0253 88.9104 54.4418 92.7642 54.4418 92.7642L53.4671 97.642L51.7023 101.079C50.8199 103.123 48.3574 102.936 48.3574 102.936L52.5375 93.5071L52.8638 90.4885L51.6551 78.5515L53.0033 79.1548Z" fill="#0B5648"/>
<path d="M48.5442 86.5876L48.4046 87.47L47.1036 96.807L44.4092 105.91L42.0411 107.396C40.461 107.072 43.2477 103.495 43.3873 102.891C43.5268 102.286 45.0125 98.2455 45.0125 98.2455C45.0125 98.2455 45.5235 95.0874 45.663 94.4369C45.8498 93.7412 48.5442 86.5876 48.5442 86.5876Z" fill="#0B5648"/>
<path d="M47.5221 64.1519C47.5221 64.1519 42.9686 66.1485 42.552 66.1485C42.1334 66.1485 37.116 67.4496 37.116 67.4496L28.6163 68.4263C26.4329 68.9825 26.7119 71.5845 26.7119 71.5845C25.0867 73.5812 28.2449 75.3932 28.2449 75.3932L30.615 72.4197L35.5831 70.934L40.3686 69.7253L45.4783 68.1924L47.5221 64.1519Z" fill="#0B5648"/>
<path d="M45.3385 71.9558L43.1551 72.3744L34.1895 74.092L30.5204 76.2754L26.1084 79.6655L26.527 83.8456C26.6666 85.1015 32.7961 81.8017 32.7961 81.8017L33.541 78.3645C35.9091 76.926 45.3385 71.9558 45.3385 71.9558Z" fill="#0B5648"/>
<path d="M43.2946 78.1328C42.8759 78.18 35.6772 81.8491 35.6772 81.8491L32.6114 85.4731L30.3808 88.6313L27.7336 90.2093L27.6885 94.2519C27.826 96.0619 30.3357 92.5323 30.3357 92.5323L33.4015 89.3269C33.4015 89.3269 34.4234 87.5621 35.5828 86.8665C36.7443 86.1688 38.0925 84.0798 38.0925 84.0798L40.1364 81.1063L43.2946 78.1328Z" fill="#0B5648"/>
<path d="M43.9457 84.3565C43.9457 84.3565 43.0161 85.3785 41.9018 86.4948C40.6008 87.841 39.0679 89.2815 38.6492 89.3739C37.9064 89.4662 33.3549 94.2968 33.3549 94.2968L29.4067 97.4098L29.3595 102.751C28.7562 104.469 29.3143 105.77 29.3143 105.77L32.4253 99.8251C32.4253 99.8251 33.913 97.0384 34.6559 96.2955C35.3987 95.5506 38.2778 93.7407 38.6041 93.3693C41.2513 90.5353 43.9457 83.4741 43.9457 83.4741V84.3565Z" fill="#0B5648"/>
<path d="M42.2252 91.929L37.6737 98.4772C37.6737 98.4772 36.6517 100.336 36.6989 100.94C36.7441 101.543 33.6331 103.819 33.2145 104.098L30.7068 108.278L30.1035 110.74L33.1673 109.905L36.0935 107.303C38.1374 105.167 38.9275 99.6386 39.2538 99.2221C39.5308 98.8034 41.0185 96.9442 41.0185 96.9442L42.2252 91.929Z" fill="#0B5648"/>
<path d="M57.1827 47.6162C57.1827 47.6162 56.1136 48.9644 54.907 50.6348C53.4192 52.7259 51.7468 55.3731 51.9335 56.3478C52.2577 58.1147 52.0731 61.5971 51.4697 62.7585C50.8644 63.92 48.7754 69.8649 48.7754 69.8649C48.7754 69.8649 47.6139 71.0264 47.4271 72.6988C47.2425 74.3713 45.2909 79.1547 45.2909 79.1547C45.2909 79.1547 45.6623 81.4304 45.2458 82.0358C44.8271 82.6391 44.8271 82.6391 44.8271 82.6391L46.0338 79.2942C46.0338 79.2942 47.1501 76.1361 47.382 75.6723C50.2139 69.5858 50.8192 68.1473 51.4225 66.2881C52.0259 64.3838 51.283 64.431 51.8412 63.5958C53.6511 60.807 53.9774 60.1113 54.1169 58.6256C54.3016 57.1379 54.1621 56.4422 54.3016 55.4203C54.4412 54.3983 54.8126 53.3764 54.9521 52.5864C55.0917 51.7963 56.0664 49.0568 56.0664 49.0568" fill="#0B5648"/>
<mask id="mask4_935_2" style="mask-type:luminance" maskUnits="userSpaceOnUse" x="109" y="22" width="59" height="47">
<path d="M109.794 22.064H167.581V68.6688H109.794V22.064Z" fill="white"/>
</mask>
<g mask="url(#mask4_935_2)">
<path d="M119.424 40.7421C117.009 42.8784 114.592 44.9694 112.131 47.1056C111.388 47.7562 110.598 48.499 110.319 49.4737C110.087 50.311 110.272 51.2406 110.459 52.123C110.877 53.9801 111.249 55.7921 111.665 57.6492C111.899 58.626 112.084 59.6008 112.687 60.3908C113.432 61.3656 114.592 61.8765 115.708 62.3875C119.424 64.0128 123.186 65.5929 126.902 67.2181C128.109 67.7291 129.363 68.2872 130.711 68.3324C131.825 68.3796 132.987 68.1005 134.056 67.8214C138.979 66.4753 143.857 64.7105 148.919 64.1523C151.613 63.8281 154.353 63.8732 157.047 63.6885C160.345 63.5018 163.643 62.9908 166.893 62.248C167.127 62.2008 167.404 62.1084 167.499 61.9237C167.591 61.737 167.544 61.4579 167.499 61.2732C166.15 56.1163 164.617 51.0067 162.9 45.9914C161.878 43.0651 160.809 40.186 159.091 37.584C157.743 35.5873 156.073 33.8677 154.353 32.1501C150.358 28.2018 145.946 24.346 140.464 22.9998C136.935 22.1174 133.171 22.3493 129.549 22.5812C128.667 22.6263 127.785 22.7207 127.087 23.2317C126.623 23.6031 126.297 24.1592 125.973 24.6702C124.719 26.948 123.418 29.3161 123.046 31.9161C122.814 33.5886 124.3 36.7939 123.882 38.0949C123.51 39.4411 120.584 39.7202 119.424 40.7421Z" fill="#087661"/>
</g>
<path d="M126.205 44.5053L122.536 43.6208L112.316 51.1007L123 45.7119L126.205 44.5053Z" fill="#0B5648"/>
<path d="M127.738 48.7305L119.936 49.9391L113.665 52.6787L113.386 56.9983L116.08 58.8103L119.517 53.9325L127.738 48.7305Z" fill="#0B5648"/>
<path d="M130.201 51.6114L123.372 54.8168C123.372 54.8168 118.264 60.2035 118.541 60.343C118.82 60.4826 122.908 61.1803 122.908 61.1803L129.364 53.329L134.474 51.24L130.201 51.6114Z" fill="#0B5648"/>
<path d="M136.333 53.3762L126.856 60.2035L124.999 63.177C127.693 64.1066 129.735 64.8494 129.735 64.8494C129.735 64.8494 131.826 63.0374 132.105 62.2474C132.384 61.4573 134.705 56.5816 134.568 56.6739C134.428 56.7663 136.333 53.3762 136.333 53.3762Z" fill="#0B5648"/>
<path d="M139.722 49.1023L136.517 58.9502L136.564 62.5742C136.564 62.5742 139.258 63.5018 138.979 63.1775C138.7 62.8513 137.91 60.6227 137.91 60.6227C138.653 56.9536 139.722 49.1023 139.722 49.1023Z" fill="#0B5648"/>
<path d="M143.159 50.5896L140.28 57.8807L141.626 60.9937C143.67 61.8289 145.899 62.6189 145.899 62.6189L143.299 56.8136L143.67 53.6082L143.159 50.5896Z" fill="#0B5648"/>
<path d="M147.387 54.1666L147.851 60.9467C148.688 62.1554 152.171 61.0411 152.171 61.0411C152.171 61.0411 149.431 58.2995 149.431 57.8809C149.431 57.4643 148.965 53.7952 148.965 53.7952L147.155 51.7041L147.387 54.1666Z" fill="#0B5648"/>
<path d="M151.752 54.5833L152.031 55.4206L153.982 60.9941C155.794 61.3183 157.188 60.9017 157.188 60.9017L154.446 57.7436L151.335 52.5867L151.752 54.5833Z" fill="#0B5648"/>
<path d="M156.537 54.7698L157.14 59.229L159 62.2476C161.136 60.9937 156.537 54.7698 156.537 54.7698Z" fill="#0B5648"/>
<path d="M160.253 56.395L161.831 60.9465L163.179 61.1333L160.253 56.395Z" fill="#0B5648"/>
<path d="M128.991 35.8188C128.991 35.8188 125.973 30.5224 126.252 30.2905C126.484 30.0586 128.295 25.7862 128.295 25.7862C128.295 25.7862 129.502 23.927 129.874 23.8346C131.872 23.416 131.872 23.416 131.872 23.416L129.921 27.6905L127.785 30.5224L128.991 35.8188Z" fill="#0B5648"/>
<path d="M130.943 38.8845L130.896 37.7681L130.619 31.22L132.616 27.0399L134.194 23.5554L138.747 23.7873L136.656 27.6904L130.943 38.8845Z" fill="#0B5648"/>
<path d="M135.355 38.0472C135.31 36.9801 134.752 32.4266 135.078 32.2891C135.403 32.1495 138.979 27.596 139.119 27.085C139.258 26.574 141.348 25.1807 141.348 25.1807C141.348 25.1807 139.536 29.0837 139.164 29.5003C138.84 29.9189 136.749 32.8924 136.749 32.8924C136.749 32.8924 138.005 34.6572 137.631 35.3077C137.26 35.8638 135.355 38.0472 135.355 38.0472Z" fill="#0B5648"/>
<path d="M138.05 39.8122L138.468 38.977L143.299 29.0839L146.689 26.8081L144.366 33.4486L141.302 35.8188L138.05 39.8122Z" fill="#0B5648"/>
<path d="M140.28 41.0683C140.373 40.6949 143.02 37.2597 143.391 36.7939C143.763 36.3301 146.086 34.0543 146.41 33.7752C146.736 33.4962 149.476 30.0117 149.476 30.0117L151.938 31.0337C151.938 31.0337 146.689 35.4477 146.504 35.7268C146.318 36.0038 144.366 40.1859 143.902 40.1388C143.438 40.0916 140.28 41.0683 140.28 41.0683Z" fill="#0B5648"/>
<path d="M141.579 43.8996L146.968 40.3228L152.728 35.3527L156.118 33.8669C156.118 33.8669 156.816 37.259 157.14 37.1195C157.419 36.9328 154.446 38.6524 154.446 38.6524L147.758 41.9029C147.758 41.9029 145.203 43.2039 144.6 43.2963C144.042 43.3886 141.579 43.8996 141.579 43.8996Z" fill="#0B5648"/>
<path d="M146.504 44.877C146.549 44.8298 146.689 44.7374 146.92 44.5979C148.919 43.3892 156.537 39.0244 156.537 39.0244L157.838 41.3925C157.093 43.0178 155.886 42.4617 155.051 42.6463C154.214 42.8331 150.592 44.1792 150.592 44.1792L146.504 44.877Z" fill="#0B5648"/>
<path d="M147.107 47.6634C147.432 47.5239 151.891 45.7119 151.891 45.7119C151.891 45.7119 155.189 44.5504 155.607 45.0162C156.026 45.48 158.488 45.0162 158.488 45.0162C159.742 44.6427 160.345 47.1524 160.345 47.1524C160.345 47.1524 158.581 47.6162 157.372 47.3843C156.165 47.1524 151.985 46.781 151.985 46.781L147.107 47.6634Z" fill="#0B5648"/>
<path d="M149.802 48.6858C150.313 48.499 157.791 48.499 157.791 48.499L161.32 49.2891C161.32 49.2891 161.692 51.1934 161.552 51.5648C161.414 51.9363 149.802 48.6858 149.802 48.6858Z" fill="#0B5648"/>
<path d="M155.051 51.7043C155.562 51.5647 159.927 52.2152 160.577 52.3999C161.18 52.5867 162.668 54.2591 162.668 54.2591L162.808 56.9535L159.834 53.5163L155.051 51.7043Z" fill="#0B5648"/>
<path d="M126.299 39.0244C126.576 39.164 129.968 41.9035 130.339 42.3221C130.711 42.7387 132.151 43.4836 133.218 43.9474C133.916 44.2264 135.494 45.154 136.563 45.8517C137.119 46.2231 137.538 46.5022 137.63 46.5945C137.864 46.8264 140.743 48.9647 141.765 48.9175C142.787 48.8703 146.085 50.3581 146.085 50.3581C146.085 50.3581 150.544 51.0537 150.868 51.1009C151.195 51.1461 154.4 52.2624 154.4 52.2624C154.4 52.2624 153.239 51.0065 151.474 50.59C149.709 50.1241 148.268 49.1022 147.015 48.8703C145.806 48.6384 144.505 47.4318 143.483 47.4769C142.461 47.4769 141.394 47.0132 139.722 46.6417C138.004 46.2703 134.612 43.855 133.916 43.4364C133.171 43.0178 130.99 42.2277 130.245 41.8111C128.156 40.4629 126.299 39.0244 126.299 39.0244Z" fill="#0B5648"/>
<path d="M98.2907 113.388C97.0348 116.64 98.8468 120.309 98.5226 123.792C98.383 125.325 97.8249 126.765 97.2688 128.206C95.4096 132.944 93.5524 137.68 91.6933 142.418C91.2767 143.488 90.8581 144.555 90.2076 145.484C89.5119 146.459 88.5823 147.202 87.6527 147.992C82.4507 152.406 77.6201 157.282 73.3476 162.578C69.1675 157.514 64.9402 152.451 60.7602 147.389C59.6438 146.042 58.5295 144.694 58.0186 143.022C56.9966 139.584 58.901 136.008 59.18 132.386C59.3668 129.412 58.39 126.486 58.6219 123.56C58.7614 121.471 59.5043 119.472 60.3415 117.568C62.1063 113.48 64.2897 109.532 66.8446 105.863C67.1688 105.399 67.5402 104.888 68.0061 104.564C69.1675 103.819 70.6984 104.19 71.9994 104.656C74.4147 105.446 76.9696 106.421 78.5025 108.465C79.3849 109.626 79.9882 112.877 81.1969 113.527C82.8221 114.409 84.0308 112.413 84.4474 111.112C89.0009 111.391 93.7371 112.645 98.2907 113.388Z" fill="#087661"/>
<path d="M79.8503 118.266C79.4769 117.196 77.5274 111.949 77.5274 111.949L76.0396 108.65C76.0396 108.65 72.0463 106.7 71.6748 106.468C71.3034 106.234 69.3047 105.352 69.3047 105.352C70.0947 106.979 72.3705 108.372 72.3705 108.372C72.3705 108.372 74.1353 109.16 74.9253 109.858C75.7154 110.554 75.9945 111.112 76.4583 111.763C76.9241 112.413 77.435 114.131 77.8516 114.502C78.2702 114.876 79.8503 118.266 79.8503 118.266Z" fill="#0B5648"/>
<path d="M79.8961 121.284C79.6642 121.099 76.8303 117.939 76.8303 117.939C76.8303 117.939 73.9512 114.457 73.625 113.759C73.3007 113.063 70.7459 110.787 70.7459 110.787L68.7492 109.671C67.124 109.811 65.0801 111.204 65.0801 111.204L67.401 112.876L70.6535 114.502C70.6535 114.502 73.3479 115.758 73.7645 116.035C74.1831 116.314 75.7632 118.173 75.7632 118.173L80.2675 120.82L79.8961 121.284Z" fill="#0B5648"/>
<path d="M77.388 123.654C77.2957 123.515 74.0903 121.748 73.8585 121.099C73.487 120.123 70.0949 117.104 70.0949 117.104L67.2159 115.384L64.8457 116.361L65.5434 119.427L68.9335 119.566C68.9335 119.566 72.8365 121.284 73.7641 121.748C74.7408 122.214 77.2013 123.467 77.2013 123.467L77.388 123.654Z" fill="#0B5648"/>
<path d="M75.6683 126.07C75.065 125.604 68.8882 121.887 68.8882 121.887L63.7313 119.148C62.9885 119.519 63.1752 120.728 63.1752 120.728C63.1752 120.728 65.0795 121.982 66.0071 122.167C66.9367 122.353 75.6683 126.07 75.6683 126.07Z" fill="#0B5648"/>
<path d="M84.123 117.847C84.123 117.847 86.3516 115.758 86.8626 115.571C87.3735 115.339 88.3955 114.085 88.9065 113.991C89.4174 113.898 91.6008 114.317 92.159 114.364C92.7151 114.409 95.7358 114.085 96.06 114.27C97.872 115.199 97.2215 117.336 97.2215 117.336L93.9238 116.593C92.159 116.269 89.5118 116.546 89.5118 116.546L86.7702 116.917L84.123 117.847Z" fill="#0B5648"/>
<path d="M84.6816 120.773L87.8398 119.798C87.8398 119.798 89.465 119.798 90.0232 119.983C92.1594 120.728 93.2265 121.005 93.2265 121.005L95.7362 120.123L96.8505 123.607C96.2923 124.721 93.4605 124.582 92.9023 124.21C92.3441 123.839 89.6518 121.887 89.6518 121.887L87.5607 121.748L84.6816 120.773Z" fill="#0B5648"/>
<path d="M85.4239 123.049L88.6744 125.185C88.6744 125.185 91.7874 125.559 92.204 125.743C92.6226 125.93 94.4346 126.997 94.4346 126.997C94.7588 127.834 94.806 129.041 94.806 129.041C94.3423 130.481 94.3423 130.481 94.3423 130.481L90.6711 127.974L87.8844 126.207L84.1229 123.978C82.5428 123.792 85.4239 123.049 85.4239 123.049Z" fill="#0B5648"/>
<path d="M82.0791 124.397C82.0791 124.397 86.0273 127.695 86.7702 127.787C87.513 127.879 91.4612 131.177 91.4612 131.177L92.8546 131.967V133.592C92.438 134.337 89.7888 131.364 89.7888 131.364L86.7702 128.39L84.1702 126.533L82.0791 124.397Z" fill="#0B5648"/>
<path d="M82.5898 128.112C82.5898 128.112 86.7699 130.527 87.4676 130.9C88.1182 131.272 91.2291 134.29 91.2291 134.29L93.0883 136.427L91.9268 138.378L90.162 136.427L88.5347 133.827L85.8875 131.272L82.5898 128.112Z" fill="#0B5648"/>
<path d="M76.3184 127.229C76.0865 127.044 73.2998 127.368 72.5569 127.415C71.8141 127.463 68.2825 128.158 68.1901 127.834C68.0506 127.555 65.1715 125.696 65.1715 125.696L63.7781 124.721L62.3848 127.6L65.4957 128.298L68.2825 129.599L72.1383 128.158C74.6008 127.508 76.3184 127.229 76.3184 127.229Z" fill="#0B5648"/>
<path d="M74.3692 129.923L69.2123 131.456L66.1013 132.246C66.1013 132.246 63.2202 131.364 62.896 131.967C62.5697 132.617 61.5026 134.754 61.5026 134.754L60.2939 136.426C60.3411 138.006 61.4554 136.752 61.4554 136.752C61.4554 136.752 63.8707 135.451 64.1026 135.172C64.3345 134.893 66.7047 133.639 66.7047 133.639C66.7047 133.639 69.4914 131.922 69.6761 131.782C69.8628 131.643 71.8143 131.688 71.999 131.132C72.2309 130.574 74.3692 129.923 74.3692 129.923Z" fill="#0B5648"/>
<path d="M73.3926 132.71C73.3926 132.71 72.6969 133.129 71.9069 133.593C71.0717 134.011 70.1421 134.475 69.6311 134.43C68.6092 134.383 66.5181 135.636 66.5181 135.636L64.7082 138.331C64.7082 138.331 62.8962 139.724 62.5699 140.003C62.2457 140.282 61.3633 141.676 61.3633 141.676C62.0138 143.533 62.5248 143.859 62.5248 143.859C62.5248 143.859 65.1248 140.607 65.4962 140.096C65.8676 139.585 67.3554 137.124 67.3554 137.124C67.3554 137.124 68.4224 135.823 68.8883 135.359C69.352 134.941 73.3926 132.71 73.3926 132.71Z" fill="#0B5648"/>
<path d="M72.9292 135.173C72.9292 135.173 72.1391 136.706 71.2567 138.007C70.6062 139.029 69.8634 139.956 69.4919 139.956C68.6095 139.911 66.8899 141.768 66.8899 141.768L65.4965 144.695L65.1251 147.157C64.8009 148.55 66.1942 149.433 66.1942 149.433L67.6348 142.883L68.6095 141.165L73.8588 135.36L72.9292 135.173Z" fill="#0B5648"/>
<path d="M72.4184 140.793L72.1393 141.304L69.213 146.738L67.124 152.544L67.7725 154.216C68.7021 154.682 68.6569 151.708 68.7944 151.337C68.934 150.966 69.724 148.271 69.724 148.271C69.724 148.271 70.6536 146.414 70.8383 145.995C71.025 145.624 72.4184 140.793 72.4184 140.793Z" fill="#0B5648"/>
<path d="M81.6152 129.412C81.6152 129.412 83.2405 132.199 83.4724 132.386C83.7043 132.57 85.8405 135.172 85.8405 135.172L89.9282 138.981C90.8578 140.095 89.6963 141.396 89.6963 141.396C89.7887 143.069 87.4206 142.79 87.4206 142.79L87.3282 140.327L85.2844 137.635L83.2405 135.125L81.1494 132.338L81.6152 129.412Z" fill="#0B5648"/>
<path d="M79.7568 134.382L80.7336 135.451L84.7742 139.816L85.8413 142.371L86.8181 145.856L85.0061 147.899C84.4479 148.503 82.4984 144.415 82.4984 144.415L83.426 142.326C82.7775 140.653 79.7568 134.382 79.7568 134.382Z" fill="#0B5648"/>
<path d="M78.457 138.423C78.6889 138.61 81.0098 143.301 81.0098 143.301L81.2438 146.367L81.1966 148.875L81.9866 150.734L80.4537 152.87C79.7109 153.752 79.756 150.966 79.756 150.966L79.3846 148.085C79.3846 148.085 79.5241 146.786 79.1999 145.948C78.8285 145.113 78.9659 143.488 78.9659 143.488L79.0603 141.165L78.457 138.423Z" fill="#0B5648"/>
<path d="M75.7154 141.397C75.7154 141.397 75.8078 142.279 75.9473 143.301C76.134 144.51 76.3659 145.856 76.5506 146.043C76.8769 146.367 77.4351 150.686 77.4351 150.686L78.3175 153.845L76.2736 156.679C75.9022 157.84 75.1121 158.259 75.1121 158.259L75.7626 153.937C75.7626 153.937 76.0396 151.895 75.9473 151.245C75.855 150.594 75.0198 148.503 75.0198 148.179C74.7407 145.669 76.0396 140.886 76.0396 140.886L75.7154 141.397Z" fill="#0B5648"/>
<path d="M73.6719 146.042L73.5324 151.245C73.5324 151.245 73.3477 152.638 73.1138 152.917C72.8819 153.194 73.6248 155.609 73.7191 155.936L73.4401 159.094L72.7896 160.627L71.5357 159.001L70.9776 156.492C70.7457 154.542 72.4653 151.384 72.4653 151.011C72.4653 150.639 72.4181 149.153 72.4181 149.153L73.6719 146.042Z" fill="#0B5648"/>
<path d="M82.9608 117.012C82.9608 117.012 83.008 118.126 82.9608 119.472C82.9136 121.145 82.7762 123.188 82.3103 123.607C81.4751 124.397 80.2213 126.302 80.0818 127.137C79.9422 127.974 78.7807 131.922 78.7807 131.922C78.7807 131.922 78.9654 132.989 78.4093 133.919C77.8512 134.848 77.0611 138.146 77.0611 138.146C77.0611 138.146 75.994 139.213 75.9468 139.679C75.9017 140.143 75.9468 140.143 75.9468 140.143L76.5973 137.912C76.5973 137.912 77.2006 135.823 77.295 135.497C78.1774 131.224 78.4093 130.25 78.8279 128.996C79.2445 127.787 79.6159 128.066 79.6631 127.416C79.8027 125.232 79.895 124.769 80.3609 123.931C80.8246 123.096 81.1961 122.77 81.5203 122.167C81.8466 121.563 82.0312 120.913 82.2652 120.449C82.4971 119.983 83.0532 118.173 83.0532 118.173" fill="#0B5648"/>
</g>
<defs>
<clipPath id="clip0_935_2">
<rect width="197" height="197" rx="98.5" fill="white"/>
</clipPath>
</defs>
</svg>
