<svg width="197" height="197" viewBox="0 0 197 197" fill="none" xmlns="http://www.w3.org/2000/svg">
<g clip-path="url(#clip0_935_310)">
<path d="M216.7 -19.7H-19.7002V216.7H216.7V-19.7Z" fill="white"/>
<path d="M216.7 -19.7H-19.7002V216.7H216.7V-19.7Z" fill="#E1D4C8"/>
<path d="M128.113 94.7981V98.5001H131.815V94.7981H128.113ZM124.411 98.5001V102.204H128.113V98.5001H124.411ZM120.709 94.7981V98.5001H124.411V94.7981H120.709ZM120.709 102.204V105.906H124.411V102.204H120.709ZM117.008 98.5001V102.204H120.709V98.5001H117.008ZM113.306 102.204V105.906H117.008V102.204H113.306ZM68.8821 94.7981V98.5001H72.584V94.7981H68.8821ZM65.1801 98.5001V102.204H68.8821V98.5001H65.1801ZM61.4781 94.7981V98.5001H65.1801V94.7981H61.4781ZM61.4781 102.204V105.906H65.1801V102.204H61.4781ZM57.7762 98.5001V102.204H61.4781V98.5001H57.7762ZM57.7762 102.204V105.906H54.0742V102.204H57.7762Z" fill="white"/>
<mask id="mask0_935_310" style="mask-type:luminance" maskUnits="userSpaceOnUse" x="27" y="94" width="143" height="24">
<path d="M27.9736 94.9541H169.288V117.018H27.9736V94.9541Z" fill="white"/>
</mask>
<g mask="url(#mask0_935_310)">
<path d="M165.264 102.356V106.058H168.966V102.356H165.264ZM161.562 98.6562V102.356H165.264V98.6562H161.562ZM157.863 94.9521V98.6562H161.562V94.9521H157.863ZM154.159 94.9521V98.6562H157.863V94.9521H154.159ZM150.457 94.9521V98.6562H154.159V94.9521H150.457ZM146.755 94.9521V98.6562H150.457V94.9521H146.755ZM143.053 94.9521V98.6562H146.755V94.9521H143.053ZM139.351 94.9521V98.6562H143.053V94.9521H139.351ZM139.351 98.6562V102.356H143.053V98.6562H139.351ZM135.649 94.9521V98.6562H139.351V94.9521H135.649ZM135.649 98.6562V102.356H139.351V98.6562H135.649ZM135.649 102.356V106.058H139.351V102.356H135.649ZM131.947 94.9521V98.6562H135.649V94.9521H131.947ZM131.947 98.6562V102.356H135.649V98.6562H131.947ZM131.947 102.356V106.058H135.649V102.356H131.947ZM131.947 106.058V109.762H135.649V106.058H131.947ZM128.245 94.9521V98.6562H131.947V94.9521H128.245ZM128.245 98.6562V102.356H131.947V98.6562H128.245ZM128.245 106.058V109.762H131.947V106.058H128.245ZM128.245 109.762V113.464H131.947V109.762H128.245ZM124.543 94.9521V98.6562H128.245V94.9521H124.543ZM124.543 98.6562V102.356H128.245V98.6562H124.543ZM124.543 102.356V106.058H128.245V102.356H124.543ZM124.543 109.762V113.464H128.245V109.762H124.543ZM124.543 113.464V117.166H128.245V113.464H124.543ZM120.841 94.9521V98.6562H124.543V94.9521H120.841ZM120.841 98.6562V102.356H124.543V98.6562H120.841ZM120.841 106.058V109.762H124.543V106.058H120.841ZM120.841 113.464V117.166H124.543V113.464H120.841ZM117.139 94.9521V98.6562H120.841V94.9521H117.139ZM117.139 98.6562V102.356H120.841V98.6562H117.139ZM117.139 102.356V106.058H120.841V102.356H117.139ZM117.139 109.762V113.464H120.841V109.762H117.139ZM117.139 113.464V117.166H120.841V113.464H117.139ZM113.437 94.9521V98.6562H117.139V94.9521H113.437ZM113.437 98.6562V102.356H117.139V98.6562H113.437ZM113.437 102.356V106.058H117.139V102.356H113.437ZM113.437 106.058V109.762H117.139V106.058H113.437ZM113.437 113.464V117.166H117.139V113.464H113.437ZM109.735 94.9521V98.6562H113.437V94.9521H109.735ZM109.735 98.6562V102.356H113.437V98.6562H109.735ZM109.735 102.356V106.058H113.437V102.356H109.735ZM109.735 106.058V109.762H113.437V106.058H109.735ZM109.735 109.762V113.464H113.437V109.762H109.735ZM109.735 113.464V117.166H113.437V113.464H109.735ZM106.035 94.9521V98.6562H109.735V94.9521H106.035ZM106.035 98.6562V102.356H109.735V98.6562H106.035ZM106.035 102.356V106.058H109.735V102.356H106.035ZM106.035 106.058V109.762H109.735V106.058H106.035ZM106.035 109.762V113.464H109.735V109.762H106.035ZM106.035 113.464V117.166H109.735V113.464H106.035ZM102.331 94.9521V98.6562H106.035V94.9521H102.331ZM102.331 98.6562V102.356H106.035V98.6562H102.331ZM102.331 102.356V106.058H106.035V102.356H102.331ZM102.331 106.058V109.762H106.035V106.058H102.331ZM102.331 109.762V113.464H106.035V109.762H102.331ZM102.331 113.464V117.166H106.035V113.464H102.331ZM98.6292 94.9521V98.6562H102.331V94.9521H98.6292ZM98.6292 98.6562V102.356H102.331V98.6562H98.6292ZM98.6292 102.356V106.058H102.331V102.356H98.6292ZM98.6292 106.058V109.762H102.331V106.058H98.6292ZM98.6292 109.762V113.464H102.331V109.762H98.6292ZM98.6292 113.464V117.166H102.331V113.464H98.6292ZM94.9272 94.9521V98.6562H98.6292V94.9521H94.9272ZM94.9272 98.6562V102.356H98.6292V98.6562H94.9272ZM94.9272 102.356V106.058H98.6292V102.356H94.9272ZM94.9272 106.058V109.762H98.6292V106.058H94.9272ZM94.9272 109.762V113.464H98.6292V109.762H94.9272ZM91.2253 94.9521V98.6562H94.9272V94.9521H91.2253ZM91.2253 98.6562V102.356H94.9272V98.6562H91.2253ZM91.2253 102.356V106.058H94.9272V102.356H91.2253ZM91.2253 106.058V109.762H94.9272V106.058H91.2253ZM87.5233 94.9521V98.6562H91.2253V94.9521H87.5233ZM87.5233 98.6562V102.356H91.2253V98.6562H87.5233ZM87.5233 102.356V106.058H91.2253V102.356H87.5233ZM83.8214 94.9521V98.6562H87.5233V94.9521H83.8214ZM83.8214 98.6562V102.356H87.5233V98.6562H83.8214ZM80.1194 94.9521V98.6562H83.8214V94.9521H80.1194ZM80.1194 98.6562V102.356H83.8214V98.6562H80.1194ZM76.4174 94.9521V98.6562H80.1194V94.9521H76.4174ZM76.4174 98.6562V102.356H80.1194V98.6562H76.4174ZM76.4174 102.356V106.058H80.1194V102.356H76.4174ZM72.7155 94.9521V98.6562H76.4174V94.9521H72.7155ZM72.7155 98.6562V102.356H76.4174V98.6562H72.7155ZM72.7155 102.356V106.058H76.4174V102.356H72.7155ZM72.7155 106.058V109.762H76.4174V106.058H72.7155ZM69.0135 94.9521V98.6562H72.7155V94.9521H69.0135ZM69.0135 98.6562V102.356H72.7155V98.6562H69.0135ZM69.0135 106.058V109.762H72.7155V106.058H69.0135ZM69.0135 109.762V113.464H72.7155V109.762H69.0135ZM65.3116 94.9521V98.6562H69.0135V94.9521H65.3116ZM65.3116 98.6562V102.356H69.0135V98.6562H65.3116ZM65.3116 102.356V106.058H69.0135V102.356H65.3116ZM65.3116 109.762V113.464H69.0135V109.762H65.3116ZM65.3116 113.464V117.166H69.0135V113.464H65.3116ZM61.6096 94.9521V98.6562H65.3116V94.9521H61.6096ZM61.6096 98.6562V102.356H65.3116V98.6562H61.6096ZM61.6096 106.058V109.762H65.3116V106.058H61.6096ZM61.6096 113.464V117.166H65.3116V113.464H61.6096ZM57.9077 94.9521V98.6562H61.6096V94.9521H57.9077ZM57.9077 98.6562V102.356H61.6096V98.6562H57.9077ZM57.9077 102.356V106.058H61.6096V102.356H57.9077ZM57.9077 109.762V113.464H61.6096V109.762H57.9077ZM57.9077 113.464V117.166H61.6096V113.464H57.9077ZM54.2057 94.9521V98.6562H57.9077V94.9521H54.2057ZM54.2057 98.6562V102.356H57.9077V98.6562H54.2057ZM54.2057 102.356V106.058H57.9077V102.356H54.2057ZM54.2057 106.058V109.762H57.9077V106.058H54.2057ZM54.2057 113.464V117.166H57.9077V113.464H54.2057ZM50.5037 94.9521V98.6562H54.2057V94.9521H50.5037ZM50.5037 98.6562V102.356H54.2057V98.6562H50.5037ZM50.5037 102.356V106.058H54.2057V102.356H50.5037ZM50.5037 106.058V109.762H54.2057V106.058H50.5037ZM50.5037 109.762V113.464H54.2057V109.762H50.5037ZM50.5037 113.464V117.166H54.2057V113.464H50.5037ZM46.8018 94.9521V98.6562H50.5037V94.9521H46.8018ZM46.8018 98.6562V102.356H50.5037V98.6562H46.8018ZM46.8018 102.356V106.058H50.5037V102.356H46.8018ZM46.8018 106.058V109.762H50.5037V106.058H46.8018ZM46.8018 109.762V113.464H50.5037V109.762H46.8018ZM46.8018 113.464V117.166H50.5037V113.464H46.8018ZM43.0998 94.9521V98.6562H46.8018V94.9521H43.0998ZM43.0998 98.6562V102.356H46.8018V98.6562H43.0998ZM43.0998 102.356V106.058H46.8018V102.356H43.0998ZM43.0998 106.058V109.762H46.8018V106.058H43.0998ZM43.0998 109.762V113.464H46.8018V109.762H43.0998ZM43.0998 113.464V117.166H46.8018V113.464H43.0998ZM39.3979 94.9521V98.6562H43.0998V94.9521H39.3979ZM39.3979 98.6562V102.356H43.0998V98.6562H39.3979ZM39.3979 102.356V106.058H43.0998V102.356H39.3979ZM39.3979 106.058V109.762H43.0998V106.058H39.3979ZM39.3979 109.762V113.464H43.0998V109.762H39.3979ZM39.3979 113.464V117.166H43.0998V113.464H39.3979ZM35.6959 94.9521V98.6562H39.3979V94.9521H35.6959ZM35.6959 98.6562V102.356H39.3979V98.6562H35.6959ZM35.6959 102.356V106.058H39.3979V102.356H35.6959ZM35.6959 106.058V109.762H39.3979V106.058H35.6959ZM35.6959 109.762V113.464H39.3979V109.762H35.6959ZM31.994 94.9521V98.6562H35.6959V94.9521H31.994ZM31.994 98.6562V102.356H35.6959V98.6562H31.994ZM31.994 102.356V106.058H35.6959V102.356H31.994ZM31.994 106.058V109.762H35.6959V106.058H31.994ZM28.292 94.9521V98.6562H31.994V94.9521H28.292ZM28.292 98.6562V102.356H31.994V98.6562H28.292ZM31.994 102.356V106.058H28.292V102.356H31.994Z" fill="#0B5648"/>
</g>
</g>
<defs>
<clipPath id="clip0_935_310">
<rect width="197" height="197" rx="98.5" fill="white"/>
</clipPath>
</defs>
</svg>
