<svg width="500" height="500" viewBox="0 0 500 500" fill="none" xmlns="http://www.w3.org/2000/svg">
<g clip-path="url(#clip0_512_584)">
<path d="M550 -50H-50V550H550V-50Z" fill="white"/>
<path d="M550 -50H-50V550H550V-50Z" fill="#FFABDA"/>
<path d="M137.949 425.171C127.533 426.562 118.074 426.213 109.309 424.046L111.043 417.015C124.408 420.312 139.944 418.926 158.428 412.937C173.012 408.161 183.423 402.609 191.152 395.229C197.574 389.067 202.866 380.994 206.772 371.104C216.319 347.234 215.366 321.718 214.408 294.551C213.975 281.968 213.454 268.947 214.147 256.275C216.668 210.104 235.064 165.666 265.965 131.213L271.345 136.072C241.574 169.312 223.783 212.187 221.355 256.713C220.658 269.036 221.178 281.88 221.616 294.291C222.569 320.937 223.611 348.536 213.454 373.791C209.116 384.557 203.298 393.583 196.095 400.437C187.59 408.598 176.309 414.671 160.689 419.791C152.616 422.395 145.064 424.218 137.949 425.171Z" fill="#308B7B"/>
<path d="M218.574 244.651C232.027 243.26 252.772 237.442 261.887 227.463C263.621 225.552 265.184 223.296 267.439 222.083C269.954 220.781 272.996 220.869 275.855 221.13C283.147 221.911 291.132 223.296 297.293 219.39C303.892 215.14 306.408 205.765 313.788 203.161C317.517 201.859 321.684 202.64 325.678 202.729C337.652 203.078 349.543 196.307 355.444 185.802C351.626 189.364 347.116 186.322 342.34 184.067C337.652 181.812 333.663 178.166 329.059 175.822C321.855 172.177 313.007 171.833 305.543 174.953C297.73 178.166 291.569 184.937 283.496 187.192C272.298 190.406 259.105 184.849 249.215 191.01C241.23 196.046 238.887 206.807 231.855 212.968C229.684 214.88 226.996 216.442 225.173 218.697C220.053 225.031 219.533 240.567 218.574 244.651Z" fill="#A6A646"/>
<path d="M172.231 408.599C169.887 404.172 170.757 398.703 172.663 394.104C174.575 389.417 177.351 385.161 178.653 380.302C179.955 375.443 179.606 369.714 175.96 366.328C172.059 362.682 165.548 362.859 161.726 359.125C158.085 355.656 157.908 349.75 159.127 344.807C160.34 339.859 162.684 335.172 163.205 330.135C163.809 324.234 161.554 318.073 157.387 313.906C150.793 307.313 139.595 304.797 136.647 295.943C134.476 289.344 138.21 282.229 137.252 275.375C136.387 268.776 130.741 263.135 124.147 262.182C120.069 261.573 115.642 262.615 111.908 260.703C106.095 257.755 105.575 249.771 102.189 244.302C97.5902 236.922 88.2152 234.495 79.7099 232.672C82.3141 238.922 83.0954 245.516 81.9652 252.198C81.1839 256.974 79.4495 261.573 78.8402 266.432C78.236 271.292 79.1891 276.589 82.8349 279.885C87.0016 283.62 93.5954 283.531 98.0224 287C103.752 291.516 103.663 300.021 103.059 307.313C102.45 315.818 102.189 325.453 108.179 331.615C113.991 337.516 124.496 338.818 127.361 346.63C129.877 353.313 124.929 360.255 123.627 367.198C122.325 374.313 125.101 382.036 130.658 386.724C134.127 389.589 138.382 391.24 142.46 393.063C148.361 395.75 153.918 399.052 159.127 402.87C163.897 406.255 166.502 409.12 172.231 408.599Z" fill="#03351D"/>
<path d="M232.285 353.225C242.53 350.1 252.941 345.068 258.582 335.954C265.702 324.412 263.79 309.136 270.389 297.329C276.113 287.178 287.223 281.36 298.072 277.282C304.41 274.855 311.441 272.511 314.999 266.693C317.514 262.615 317.775 257.579 318.556 252.808C321.77 234.579 334.962 218.35 352.233 211.667C357.441 209.584 363.686 207.85 365.947 202.73C366.988 200.386 366.988 197.782 367.332 195.35C369.327 183.115 380.264 174.61 390.421 167.49C385.301 176.516 383.65 187.454 385.993 197.521C387.467 204.115 390.592 210.365 392.066 216.964C394.066 226.074 392.764 235.798 388.426 244.042C378.879 262.527 355.79 272.334 349.712 292.298C346.764 301.933 348.41 312.782 344.249 321.98C341.816 327.277 337.738 331.615 333.311 335.344C328.363 339.511 322.811 343.068 316.733 345.068C309.009 347.495 300.504 347.324 292.868 350.011C277.332 355.48 267.525 371.886 251.9 376.917C239.228 380.995 219.874 377.178 208.504 370.324C208.592 370.235 227.426 354.699 232.285 353.225Z" fill="#0C776D"/>
<path d="M402.225 232.76C407.173 240.395 402.918 250.635 397.366 257.838C386.866 271.64 371.59 282.661 366.814 299.327C364.126 308.874 365.34 319.114 365.34 329.093C365.34 339.077 363.777 349.838 356.746 356.958C350.324 363.551 340.777 365.635 332.1 368.671C322.465 372.057 313.007 377.265 307.017 385.598C302.501 391.76 299.986 399.484 294.173 404.343C290.699 407.296 286.361 408.859 282.105 410.421C270.392 414.499 258.064 417.968 245.829 416.145C237.236 414.843 229.251 410.937 220.835 408.598C210.329 405.645 199.137 405.213 188.46 407.296L180.215 408.077C193.668 409.9 207.465 411.895 219.012 419.098C226.387 423.786 232.465 430.296 239.579 435.327C260.585 449.994 291.48 448.52 311.007 431.942C316.652 427.171 321.251 421.354 326.98 416.755C346.246 401.218 374.626 400.958 393.46 384.989C407.085 373.447 413.767 354.265 410.21 336.734C408.824 330.051 406.043 323.63 405.783 316.77C405.178 301.322 417.152 288.13 419.413 272.854C421.751 257.666 412.382 244.213 402.225 232.76Z" fill="#03351D"/>
<path d="M218.575 297.85C215.189 290.995 215.798 282.923 215.627 275.287C215.45 267.646 213.976 259.141 207.986 254.459C202.606 250.292 194.71 249.943 190.283 244.907C184.726 238.662 187.158 228.766 183.772 221.131C181.257 215.402 175.7 211.584 169.887 209.24C164.069 206.896 157.908 205.678 152.095 203.423C150.444 202.818 148.71 202.037 147.496 200.735C145.064 198.131 145.064 194.136 144.543 190.579C142.981 180.423 135.429 171.313 125.621 168.011C122.585 166.969 119.46 166.449 116.335 165.667C109.22 163.761 102.621 160.027 96.1995 156.381C97.8505 162.459 93.6839 169.923 97.5901 174.954C99.8453 177.818 103.491 179.037 106.095 181.553C109.913 185.282 110.606 191.1 110.694 196.48C110.783 202.99 110.345 209.501 111.215 215.923C112.168 222.344 114.689 228.855 119.809 232.844C127.361 238.834 138.814 238.313 145.673 245.084C150.184 249.511 151.658 256.105 155.22 261.313C160.34 268.688 169.106 272.594 177.611 275.376C186.205 278.152 195.142 280.318 202.522 285.527C208.856 289.954 211.371 295.074 218.575 297.85Z" fill="#308B7B"/>
<path d="M262.488 141.973C263.53 136.505 264.139 130.953 265.613 125.656C268.738 114.635 276.895 104.479 288.004 101.703C294.082 100.14 300.676 100.921 306.665 98.838C315.78 95.713 321.592 86.6869 330.275 82.5203C338.52 78.5307 348.155 79.2234 357.181 80.0046C359.087 80.1765 361.082 80.3536 362.993 80.0046C365.509 79.5723 367.681 78.2703 370.025 77.3171C378.962 73.5828 389.03 74.015 398.754 74.6244C394.499 74.7963 390.941 79.1348 388.686 82.7807C386.426 86.4265 385.212 90.5932 383.04 94.3275C379.655 100.14 374.103 104.567 367.77 106.65C359.697 109.255 350.41 108.213 343.29 112.812C336.004 117.499 332.79 127.046 325.155 131.296C317.254 135.64 307.535 132.859 298.592 132.078C284.796 130.953 273.337 133.296 262.488 141.973Z" fill="#A6A646"/>
<path d="M232.114 194.306C231.244 187.28 232.984 180.161 233.765 173.129C234.541 166.103 234.109 158.291 229.51 152.822C225.083 147.53 217.447 145.358 213.713 139.546C210.848 135.119 210.937 129.478 209.202 124.53C206.77 117.327 200.52 111.51 193.057 109.603C189.76 108.733 186.286 108.645 183.077 107.343C176.999 104.739 173.791 98.2335 168.671 94.1501C164.676 90.9418 159.468 89.2908 154.437 89.6397C156.52 93.1085 155.478 96.4939 155.739 100.661C155.999 105.957 154.609 111.161 154.348 116.457C154.088 121.749 155.39 127.655 159.645 130.692C164.588 134.249 171.796 133.036 176.827 136.504C182.385 140.327 183.161 148.135 182.989 154.905C182.817 161.676 182.817 169.228 187.588 173.999C193.145 179.556 202.78 178.515 209.202 183.025C211.458 184.588 213.192 186.843 215.447 188.405C221.437 192.921 226.296 189.968 232.114 194.306Z" fill="#0C776D"/>
<mask id="mask0_512_584" style="mask-type:luminance" maskUnits="userSpaceOnUse" x="220" y="45" width="50" height="105">
<path d="M220 45.6348H269.333V149.333H220V45.6348Z" fill="white"/>
</mask>
<g mask="url(#mask0_512_584)">
<path d="M257.46 149.176C259.023 143.536 262.58 138.765 265.356 133.64C268.132 128.52 270.215 122.531 268.481 116.979C266.747 111.598 261.71 107.52 260.669 101.963C259.887 97.7129 261.71 93.4577 261.971 89.2077C262.408 82.9577 259.455 76.6191 254.424 72.89C252.163 71.2389 249.559 70.0254 247.564 68.0306C243.835 64.2077 243.398 58.2233 240.794 53.5358C238.799 49.89 235.325 47.0254 231.424 45.6348C231.945 48.9316 230.122 51.1921 228.991 54.4004C227.517 58.4785 224.825 62.041 223.002 65.9473C221.179 69.8483 220.314 74.7129 222.57 78.4421C225.174 82.6973 231.075 84.0827 233.767 88.2494C236.804 92.8483 234.892 99.015 232.726 104.135C230.554 109.255 228.038 114.984 230.205 120.104C232.726 126.093 240.273 128.26 243.747 133.729C244.96 135.64 245.57 137.807 246.783 139.807C249.82 144.749 254.424 144.057 257.46 149.176Z" fill="#0C776D"/>
</g>
<path d="M382.61 180.51C382.61 180.51 382.61 180.599 382.522 180.599C381.048 182.422 379.918 184.417 379.142 186.5C377.319 190.406 376.017 194.568 375.496 198.911C375.407 199.083 375.407 199.255 375.407 199.344C373.845 212.708 371.069 228.333 359.35 236.578C357.616 237.531 355.965 238.745 354.491 240.047C353.709 240.656 352.84 241.349 352.058 241.958C351.538 242.307 350.933 242.739 350.413 243.172C347.72 245.167 345.376 247.51 343.47 250.203C341.386 253.068 339.907 256.193 338.433 259.401C335.225 266.521 332.011 273.635 328.886 280.755C325.85 287.698 323.074 294.901 319.86 301.755C317.084 307.656 313.267 312.781 307.881 316.51C307.798 316.599 307.709 316.599 307.709 316.599C305.022 317.901 302.329 319.114 299.636 320.417C298.511 320.937 297.381 321.458 296.168 322.068C293.824 322.932 291.48 323.89 289.225 325.104C278.808 330.745 272.558 341.161 265.095 349.927C261.189 354.526 256.761 358.604 251.47 361.64C246.954 364.245 242.011 365.984 236.975 367.547C234.803 367.979 232.548 368.328 230.381 368.76C227.428 368.76 224.475 368.672 221.527 368.411C219.355 368.239 217.272 368.068 215.105 367.89C213.715 367.807 213.454 369.625 214.496 370.323C214.584 370.495 214.756 370.583 214.928 370.667C215.017 370.667 215.105 370.755 215.277 370.755C218.053 373.099 221.616 374.229 225.256 374.14C225.954 374.312 226.647 374.312 227.34 374.312C227.517 374.312 227.689 374.312 227.86 374.312C228.209 374.401 228.558 374.489 229.079 374.312C229.163 374.312 229.163 374.312 229.251 374.312C230.121 374.312 230.902 374.229 231.767 374.229C232.288 374.14 232.897 374.14 233.418 374.052C238.105 373.531 242.616 372.229 246.782 370.234C249.215 369.281 251.642 368.151 253.725 366.505C253.814 366.417 253.985 366.417 254.074 366.328C257.631 364.333 260.845 361.729 263.621 358.693C264.923 357.302 266.048 355.828 267.178 354.354C273.86 346.713 279.329 337.604 287.574 331.526C290.09 329.703 292.782 328.229 295.647 327.099C299.032 325.797 302.418 324.672 305.715 323.109C309.881 321.026 313.699 318.161 316.824 314.687C319.6 312.781 322.293 310.698 324.548 308.094C327.324 304.969 329.235 301.323 330.709 297.417C333.225 290.385 334.095 282.922 336.09 275.807C337.131 273.463 338.173 271.12 339.215 268.776C340.605 265.651 341.991 262.614 343.47 259.489C345.636 256.104 348.069 252.896 350.845 249.943C352.756 247.859 354.84 245.948 357.006 244.13C359.522 242.479 362.126 241.005 364.558 239.354C365.511 238.745 366.47 238.052 367.423 237.359C369.418 236.057 371.241 234.323 372.543 232.239C374.277 230.068 375.579 227.463 376.189 224.687C376.798 223.036 377.142 221.302 377.23 219.568C377.491 218.265 377.663 217.047 377.751 215.745C377.923 214.88 378.011 213.922 378.1 212.969C378.183 212.536 378.183 212.104 378.272 211.583C378.36 210.281 378.444 208.979 378.444 207.677C378.444 206.979 378.444 206.198 378.444 205.505C378.704 203.594 378.793 201.687 378.881 199.776C378.881 199.693 378.881 199.515 378.965 199.432C378.965 199.344 378.965 199.172 378.965 199.083C379.225 197.088 379.402 195.177 379.657 193.182C380.267 190.318 380.876 187.542 381.657 184.76L382.09 184.068C382.178 183.896 382.178 183.807 382.09 183.719C382.522 182.854 382.959 181.984 383.48 181.12C383.564 180.599 382.959 180.078 382.61 180.51Z" fill="#03351D"/>
<path d="M412.641 272.161C412.12 270.078 410.036 268.864 407.953 268.947C406.74 268.947 405.609 269.296 404.568 269.817C406.391 267.213 407.953 264.348 408.823 261.223C409.516 258.88 409.688 256.453 409.255 254.02C409.167 253.499 408.302 253.677 408.385 254.281C409.344 260.359 406.74 265.562 403.177 270.249C403.438 269.036 403.438 267.822 403.005 266.692C402.484 265.307 401.354 264.088 399.88 263.744C399.359 263.656 399.099 264.437 399.62 264.609C400.922 264.869 401.875 265.911 402.224 267.124C402.745 268.687 402.313 270.338 401.792 271.812C401.792 271.9 401.792 271.9 401.792 271.989C399.708 274.593 397.365 277.192 395.453 279.713C395.63 278.15 395.542 276.499 395.193 274.937C394.849 273.114 393.807 271.291 391.896 270.77C391.375 270.598 391.115 271.468 391.635 271.64C393.37 272.161 394.068 273.984 394.411 275.546C394.76 277.453 394.672 279.364 394.328 281.187C394.068 281.536 393.807 281.88 393.63 282.229C391.984 284.744 390.682 287.437 389.729 290.213C389.641 289.604 389.552 288.999 389.38 288.39C389.12 287.348 388.688 286.223 387.99 285.265C387.385 284.484 386.604 283.791 385.646 283.619C384.693 283.442 383.74 283.703 383.13 284.4C382.781 284.833 383.391 285.442 383.74 285.005C384.26 284.4 385.042 284.312 385.734 284.484C386.604 284.744 387.208 285.442 387.646 286.135C388.688 287.869 389.12 290.124 389.031 292.124C389.031 292.208 389.031 292.296 389.031 292.296C387.906 296.203 387.385 300.281 387.125 304.447C386.865 303.927 386.604 303.494 386.255 303.057C385.474 302.104 384.693 301.15 383.651 300.453C382.698 299.76 381.568 299.411 380.438 299.671C379.313 299.932 378.443 300.713 377.839 301.671C377.578 302.192 378.271 302.624 378.62 302.104C379.141 301.322 379.833 300.63 380.786 300.453C381.74 300.281 382.698 300.802 383.479 301.411C384.26 302.015 384.953 302.796 385.563 303.578C386.255 304.359 386.776 305.317 386.865 306.442C386.865 306.619 386.948 306.703 387.125 306.791C387.125 308.354 387.125 309.828 387.125 311.302C387.208 313.906 387.385 316.51 387.557 319.114C386.865 317.812 385.823 316.687 384.604 315.817C383.563 315.036 382.177 314.604 380.958 315.208C380.354 315.468 379.745 315.989 379.313 316.427C378.88 316.859 378.531 317.38 378.531 318.072C378.531 318.593 379.401 318.593 379.401 318.072C379.401 317.463 379.833 317.119 380.266 316.77C380.698 316.427 381.135 315.989 381.656 315.817C382.781 315.468 383.911 316.249 384.693 316.947C386.255 318.333 387.557 320.244 387.729 322.411C387.729 322.499 387.729 322.499 387.818 322.588C388.078 326.234 388.427 329.874 388.51 333.437C388.078 332.567 387.557 331.697 386.865 331.005C386.083 330.135 384.953 329.442 383.74 329.614C382.521 329.703 381.568 330.572 380.875 331.525C380.526 331.958 381.307 332.395 381.656 331.958C382.26 331.177 383.13 330.484 384.172 330.484C385.214 330.572 386.083 331.265 386.688 332.046C387.818 333.348 388.51 334.999 388.688 336.734C388.688 339.338 388.599 341.942 388.339 344.458C388.078 346.89 387.646 349.229 387.036 351.489C386.948 350.359 386.688 349.229 386.255 348.192C385.823 347.15 385.214 346.109 384.26 345.411C383.13 344.63 381.917 344.89 380.786 345.328C380.266 345.499 380.526 346.369 381.047 346.192C382.177 345.848 383.219 345.588 384.083 346.453C384.865 347.15 385.302 348.104 385.646 349.057C386.344 351.052 386.427 353.223 385.823 355.218C385.823 355.307 385.823 355.307 385.823 355.395C385.823 355.479 385.734 355.567 385.734 355.656C385.734 355.739 385.734 355.828 385.734 355.916C384.604 359.036 383.042 361.989 381.219 364.765C381.396 363.203 381.307 361.557 380.786 359.994C380.526 359.036 380.094 357.999 379.313 357.39C378.62 356.781 377.578 356.609 376.708 357.041C376.188 357.302 376.62 358.083 377.141 357.822C377.922 357.39 378.703 357.999 379.141 358.604C379.656 359.296 379.917 360.255 380.094 361.036C380.526 362.859 380.438 364.682 379.917 366.505C379.917 366.505 379.917 366.505 379.917 366.588C378.62 368.328 377.141 370.062 375.578 371.624C373.583 373.619 371.328 375.354 368.984 376.916C370.109 375.093 370.458 372.927 369.849 370.843C369.505 369.541 368.724 368.067 367.422 367.458C366.208 366.937 364.729 367.109 363.516 367.807C362.995 368.067 363.427 368.848 363.948 368.588C364.99 368.067 366.292 367.807 367.333 368.411C368.375 369.02 368.984 370.406 369.156 371.624C369.677 374.14 368.724 376.656 366.813 378.218C366.729 378.307 366.729 378.307 366.729 378.395C365.688 378.999 364.557 379.609 363.516 380.13C359.177 382.213 354.661 383.775 350.063 385.249C351.625 383.859 352.927 382.036 352.667 380.041C352.495 378.739 351.974 377.437 350.932 376.656C349.974 375.874 348.589 375.703 347.547 376.395C347.026 376.656 347.547 377.437 347.979 377.177C348.932 376.656 350.063 376.916 350.755 377.697C351.536 378.479 351.885 379.781 351.797 380.822C351.797 382.036 351.016 383.078 350.234 383.947C349.453 384.817 348.589 385.51 347.547 386.031C347.458 386.119 347.375 386.203 347.375 386.291C343.031 387.765 338.781 389.328 334.703 391.411C333.224 392.192 331.839 392.973 330.448 393.843C331.057 392.624 331.401 391.239 331.401 389.76C331.401 387.072 330.099 383.598 326.891 383.598C326.37 383.598 326.37 384.468 326.891 384.468C329.755 384.468 330.62 387.942 330.448 390.197C330.359 391.932 329.667 393.583 328.625 394.968C326.37 396.531 324.198 398.27 322.115 400.265C319.427 402.781 317.167 405.645 315 408.598C315.26 407.38 315.172 406.166 314.828 405.036C314.047 402.609 312.135 400.786 309.703 400.088C309.182 399.916 308.922 400.786 309.443 400.958C311.526 401.567 313.349 403.213 313.958 405.296C314.651 407.468 314.047 409.984 312.484 411.718C312.307 411.895 312.307 412.067 312.396 412.156C309.703 415.973 306.839 419.791 303.281 422.916C303.802 421.963 304.151 421.005 304.323 419.968C304.583 417.708 303.458 415.192 301.375 414.15C300.854 413.89 300.417 414.671 300.938 414.932C302.76 415.885 303.63 417.968 303.458 420.052C303.198 422.046 301.979 423.786 300.505 425.088C300.245 425.26 299.984 425.432 299.724 425.692C299.635 425.781 299.635 425.781 299.552 425.869C295.995 428.124 292.172 429.775 288.266 431.249C286.792 431.77 285.229 432.374 283.667 432.984C285.49 431.249 286.88 429.078 287.313 426.562C287.833 423.609 286.964 420.4 284.885 418.229C284.536 417.796 283.844 418.406 284.276 418.838C286.182 420.833 286.964 423.786 286.443 426.562C285.927 429.338 284.188 431.77 281.932 433.416C281.844 433.505 281.76 433.593 281.76 433.677C278.547 434.718 275.339 435.588 272.036 435.677C268.828 435.76 265.875 435.067 262.927 434.025C265.526 433.505 267.698 430.9 268.568 428.473C269.432 426.13 268.74 423.088 266.224 422.135C265.703 421.963 265.443 422.744 265.964 423.005C268.219 423.869 268.391 426.734 267.526 428.645C266.568 430.64 264.75 432.812 262.49 433.244C262.229 433.333 262.146 433.593 262.229 433.765C260.063 432.895 257.891 431.854 255.896 430.729C253.12 429.255 250.339 427.775 247.474 426.39C248.693 425.953 249.646 425.26 250.427 424.218C251.38 422.828 251.729 421.093 251.297 419.531C251.208 419.01 250.339 419.187 250.427 419.791C250.776 421.182 250.427 422.656 249.646 423.869C248.865 424.999 247.651 425.692 246.349 425.869C244.177 424.739 242.01 423.609 239.927 422.484C234.802 419.791 229.682 417.015 224.391 414.583C219.531 412.328 214.495 410.416 209.203 409.723C206.599 409.38 203.995 409.291 201.391 409.64C200.87 409.723 200.87 410.593 201.391 410.505C213.021 409.119 223.698 415.02 233.677 420.14C237.755 422.223 241.75 424.39 245.828 426.473C245.74 426.734 245.828 426.911 246.089 426.994C246.609 427.083 246.781 427.775 246.781 428.296C246.781 428.994 246.693 429.687 246.521 430.296C246.172 431.593 245.391 432.812 244.266 433.593C243.833 433.937 244.438 434.546 244.87 434.197C246.172 433.156 247.13 431.682 247.474 430.036C247.651 429.338 247.734 428.213 247.474 427.343C248.344 427.775 249.125 428.213 249.995 428.645C253.984 430.729 257.979 433.072 262.229 434.718C264.49 437.239 264.229 441.317 261.448 443.4C261.016 443.744 261.448 444.525 261.885 444.182C263.448 442.963 264.49 441.229 264.661 439.322C264.833 437.932 264.401 436.458 263.708 435.328C264.229 435.499 264.661 435.677 265.182 435.76C270.734 437.322 276.292 436.369 281.672 434.635C282.193 434.458 282.625 434.286 283.146 434.114C287.401 434.374 291.219 437.15 292.609 441.229C292.781 441.749 293.651 441.489 293.474 440.968C292.172 437.15 288.875 434.374 285.057 433.505C288.964 432.203 292.781 430.729 296.427 428.817C297.729 428.124 299.031 427.343 300.333 426.562C300.333 426.562 300.417 426.562 300.417 426.473L300.505 426.39C300.938 426.13 301.375 425.781 301.807 425.432C302.849 424.828 303.891 424.39 305.021 424.13C305.885 423.958 306.844 423.958 307.62 424.39C308.318 424.739 308.922 425.348 309.359 426.041C309.703 426.473 310.484 426.041 310.141 425.609C309.01 424.046 307.448 423.005 305.453 423.265C305.104 423.348 304.76 423.348 304.411 423.437C305.885 422.135 307.188 420.744 308.49 419.27C310.052 417.364 311.526 415.453 312.917 413.458C313.089 413.458 313.266 413.458 313.349 413.281C314.479 411.458 316.391 409.895 318.557 409.64C320.641 409.38 322.813 410.333 323.766 412.156C324.026 412.677 324.807 412.239 324.547 411.718C323.417 409.64 320.901 408.51 318.557 408.77C317.427 408.859 316.391 409.291 315.432 409.895C316.13 408.942 316.823 407.989 317.604 407.036C320.292 403.65 323.333 400.525 326.802 397.921C326.891 397.921 326.979 397.921 327.063 397.921C329.146 396.88 331.839 396.88 333.661 398.354C335.307 399.656 336.089 401.999 335.307 403.994C335.135 404.515 335.917 404.775 336.177 404.255C337.047 401.999 336.177 399.223 334.266 397.749C332.792 396.619 330.88 396.27 329.057 396.531C329.146 396.447 329.234 396.359 329.318 396.187C329.318 396.187 329.318 396.187 329.406 396.187C333.745 393.145 338.604 390.979 343.552 389.156C344.771 388.723 346.073 388.286 347.375 387.854C347.458 387.942 347.547 387.942 347.719 387.942C349.891 387.505 352.839 387.072 354.141 389.328C355.443 391.411 354.578 393.927 353.88 396.01C353.708 396.531 354.578 396.791 354.75 396.27C355.62 393.927 356.401 390.979 354.839 388.723C353.797 387.333 352.318 386.9 350.755 386.812C356.141 384.989 361.521 383.166 366.469 380.39C366.552 380.473 366.641 380.473 366.813 380.473C367.771 380.213 368.807 379.953 369.849 380.13C370.719 380.302 371.5 380.734 372.109 381.343C373.411 382.817 373.495 384.9 372.802 386.64C372.63 387.161 373.411 387.421 373.672 386.9C374.453 384.817 374.276 382.473 372.714 380.734C372.021 379.953 371.151 379.432 370.109 379.26C369.589 379.171 369.068 379.171 368.552 379.171C369.677 378.479 370.807 377.697 371.932 376.916C375.146 374.489 378.099 371.536 380.526 368.322C382 367.286 383.74 366.416 385.563 366.067C386.427 365.895 387.297 365.984 387.99 366.588C388.599 367.109 388.859 367.89 389.12 368.671C389.292 369.192 390.073 369.02 389.984 368.411C389.464 366.588 388.25 364.942 386.167 365.114C384.693 365.203 383.219 365.723 381.917 366.416C384.26 362.942 386.167 359.124 387.469 355.135C388.078 353.916 388.948 352.874 390.073 352.182C391.724 351.14 393.891 350.88 395.63 351.921C396.151 352.182 396.583 351.489 396.063 351.14C394.151 350.01 391.635 350.187 389.724 351.312C389.12 351.661 388.599 352.093 388.167 352.614C389.12 348.708 389.641 344.807 389.724 340.812C389.901 340.812 390.073 340.64 390.073 340.38C390.073 337.859 390.333 335.083 392.068 332.999C393.547 331.265 396.234 330.395 398.146 331.874C398.578 332.218 399.188 331.614 398.755 331.265C396.583 329.531 393.547 330.135 391.724 332.046C390.766 333.088 390.161 334.302 389.724 335.604C389.641 331.614 389.292 327.531 389.031 323.541C389.12 323.453 389.208 323.369 389.208 323.192C389.208 320.937 389.464 318.421 391.115 316.682C392.589 315.124 395.021 314.687 397.016 315.557C397.536 315.817 397.974 315.036 397.453 314.775C395.281 313.734 392.505 314.166 390.682 315.817C389.724 316.77 389.12 317.984 388.771 319.286C388.51 315.557 388.25 311.65 388.339 307.833C388.427 307.833 388.427 307.744 388.51 307.656C389.031 306.874 389.208 305.838 389.901 305.057C390.505 304.359 391.286 303.838 392.156 303.494C393.719 302.885 396.672 302.275 397.276 304.447C397.453 304.968 398.234 304.796 398.146 304.187C397.885 303.145 397.016 302.453 396.063 302.192C394.849 301.843 393.547 302.104 392.417 302.453C391.375 302.796 390.422 303.317 389.641 304.098C389.292 304.447 388.948 304.968 388.688 305.4C388.599 305.578 388.51 305.661 388.51 305.838C388.688 301.234 389.292 296.723 390.594 292.385C390.682 292.385 390.766 292.385 390.854 292.296C392.245 291.255 393.807 289.692 395.63 289.604C397.365 289.604 398.839 290.822 399.188 292.557C399.276 293.078 400.141 292.906 400.052 292.296C399.62 290.302 397.974 288.822 395.974 288.739C394.068 288.65 392.589 289.864 391.115 290.994C391.464 290.041 391.807 289.171 392.156 288.218C393.109 286.135 394.24 284.14 395.542 282.317C395.63 282.317 395.714 282.229 395.802 282.057V281.968C395.974 281.708 396.151 281.447 396.323 281.187C397.797 280.057 399.62 279.275 401.443 279.536C403.094 279.796 404.568 280.838 405.089 282.4C405.26 282.921 406.13 282.749 405.958 282.14C405.349 280.234 403.615 278.932 401.703 278.671C400.313 278.494 399.016 278.755 397.714 279.275C398.927 277.713 400.229 276.15 401.531 274.677C402.052 274.072 402.484 273.463 403.005 272.942C403.094 272.942 403.266 272.854 403.354 272.77C403.786 271.9 404.479 271.38 405.349 271.031C406.302 270.598 407.344 270.249 408.385 270.166C410.12 270.078 411.943 270.947 412.38 272.77C411.943 272.942 412.724 272.77 412.641 272.161Z" fill="#50B09F"/>
<path d="M168.845 405.558C166.152 403.214 164.678 399.745 164.767 396.099V396.011C164.678 390.37 162.944 384.818 159.647 380.214C158.256 378.308 156.694 376.657 154.96 375.094C155.22 374.834 155.392 374.49 155.48 374.23C155.824 373.532 156.173 372.839 156.522 372.146C157.215 370.756 157.824 369.365 158.428 367.98C158.949 366.677 159.47 365.375 159.991 364.073C160.428 363.12 160.949 361.99 161.986 361.641C163.027 361.381 162.595 359.646 161.553 359.995C159.038 360.688 158.345 363.641 157.475 365.724C156.866 367.198 156.262 368.589 155.652 369.974C155.303 370.667 155.043 371.276 154.699 371.969C154.522 372.318 154.35 372.667 154.178 373.011C154.09 373.188 154.001 373.36 153.829 373.62C153.829 373.709 153.741 373.792 153.741 373.881C153.741 373.881 153.741 373.881 153.741 373.969C153.658 373.969 153.658 373.969 153.569 374.052C151.225 372.146 148.798 370.323 146.975 367.891C143.85 363.641 142.892 358.344 142.288 353.224C142.288 353.136 142.288 353.052 142.288 352.875C142.371 352.792 142.46 352.703 142.46 352.532C143.762 348.886 145.934 345.672 148.798 343.157C151.574 340.641 155.824 338.381 159.47 340.724C160.428 341.334 161.293 339.86 160.34 339.25C156.345 336.646 151.574 338.641 148.277 341.422C145.585 343.677 143.501 346.453 141.939 349.578C141.59 345.589 141.158 341.594 140.033 337.776C139.335 335.344 138.21 333 136.73 331.006C135.168 328.834 133.173 327.016 131.178 325.276C131.001 325.105 130.918 325.016 130.741 324.844C130.741 324.756 130.741 324.756 130.741 324.672C131.09 320.417 131.783 315.99 134.126 312.344C136.21 309.136 140.116 306.703 144.022 307.485C145.152 307.657 145.585 306.011 144.454 305.839C140.033 304.969 135.689 307.313 133.085 310.87C130.397 314.516 129.527 319.026 129.095 323.453C127.881 322.328 126.663 321.198 125.621 319.808C123.715 317.464 122.673 314.688 122.324 311.74C121.715 306.011 123.017 300.193 122.324 294.552C122.496 294.469 122.585 294.292 122.585 294.12C123.194 291.605 124.668 289.344 126.923 288.042C129.184 286.657 131.96 286.396 134.215 288.042C135.085 288.74 135.949 287.177 135.085 286.568C132.48 284.662 128.923 284.922 126.23 286.48C124.236 287.698 122.673 289.521 121.715 291.605C120.413 287.089 117.637 283.183 114.428 279.797C110.605 275.808 106.184 272.334 102.361 268.427C102.621 268.344 102.798 268.084 102.798 267.646C102.621 265.651 102.621 263.568 103.059 261.662C103.319 260.271 103.923 258.276 105.663 258.099C106.788 258.016 106.788 256.276 105.663 256.365C103.402 256.537 102.1 258.448 101.579 260.532C101.059 262.615 100.975 264.87 101.059 267.042C100.887 266.865 100.715 266.693 100.626 266.521C96.3763 261.573 92.8138 255.235 94.1158 248.552C95.3346 246.209 97.5013 244.563 100.017 244.042C100.454 243.953 100.715 243.433 100.626 243C100.538 242.568 100.017 242.308 99.5846 242.391C97.2408 242.912 95.0742 244.302 93.595 246.297C92.9908 243.953 91.4283 241.87 89.9492 240.136C87.8711 237.703 85.3502 235.709 82.4856 234.235C81.5325 233.714 80.5794 235.188 81.6211 235.709C84.1367 237.011 86.3919 238.745 88.3033 240.828C89.2565 241.87 90.0377 243 90.7304 244.131C91.0794 244.735 91.4283 245.344 91.6888 246.037C91.6002 246.037 91.5117 245.948 91.5117 245.948C90.5586 245.516 89.6054 245.167 88.6523 244.907C86.7408 244.474 84.7461 244.474 82.9231 245.167C82.4856 245.344 82.1419 245.776 82.3138 246.209C82.4023 246.646 82.9231 246.99 83.3554 246.818C84.8294 246.209 86.4804 246.209 88.0429 246.558C88.8242 246.73 89.6054 246.99 90.2981 247.339C90.6471 247.511 91.0794 247.688 91.4283 247.86C91.6888 248.032 91.9492 248.12 92.1211 248.381C92.1211 248.381 92.1211 248.381 92.1211 248.469C92.1211 248.552 92.1211 248.73 92.1211 248.813C92.1211 249.073 92.1211 249.25 92.2929 249.422C91.3398 256.276 94.6367 262.266 99.1523 267.474C95.8554 267.125 92.47 267.474 89.2565 268.427C87.4336 269.037 85.5273 269.73 84.3086 271.292C82.9231 272.073 82.3138 273.813 82.2252 275.636C82.1419 276.761 83.8763 276.761 83.9648 275.636C84.0481 274.073 84.6575 272.422 85.8711 271.381C87.1731 270.25 88.9127 269.646 90.5586 269.209C93.944 268.344 97.5013 268.167 100.887 268.776C103.319 271.381 106.006 273.724 108.35 275.896C112.428 279.625 116.512 283.532 118.855 288.563C119.288 289.433 119.548 290.302 119.809 291.167C117.376 289.433 114.512 288.391 111.475 288.912C109.652 289.172 107.918 289.953 106.616 291.256C105.835 291.948 105.225 292.73 104.444 293.511C103.84 294.12 103.23 294.901 103.142 295.771C102.97 296.896 104.621 297.328 104.793 296.203C104.881 295.422 105.402 294.99 105.923 294.469C106.527 293.86 107.048 293.167 107.658 292.646C108.788 291.516 110.345 290.907 111.908 290.646C115.121 290.214 118.158 291.865 120.413 294.032C121.022 298.11 120.59 302.276 120.413 306.443C120.329 309.396 120.413 312.433 121.283 315.297C122.064 317.901 123.538 320.157 125.361 322.068C125.71 322.412 126.059 322.761 126.402 323.11C123.277 323.021 120.329 323.802 117.465 325.193C113.991 326.839 110.783 329.443 110.345 333.438C110.262 334.563 111.996 334.563 112.085 333.438C112.428 329.964 115.73 327.881 118.678 326.495C121.803 325.016 125.1 324.495 128.486 324.933C131.439 327.62 134.564 330.224 136.559 333.782C139.163 338.558 139.684 343.938 140.204 349.23C138.902 348.193 137.428 347.235 135.866 346.631C133.434 345.589 130.741 345.412 128.225 346.282C127.184 346.631 127.621 348.276 128.663 347.933C130.918 347.235 133.262 347.323 135.428 348.276C137.251 349.058 138.902 350.271 140.465 351.573C140.897 355.917 141.418 360.167 143.069 364.162C144.111 366.589 145.496 368.761 147.319 370.584C148.621 371.969 150.184 373.188 151.658 374.401C147.408 375.183 142.98 374.834 138.814 376.052C136.559 376.657 134.387 377.698 132.392 378.917C130.486 380.042 129.006 381.605 128.225 383.776C127.881 384.818 129.527 385.25 129.876 384.209C130.569 382.037 132.392 380.823 134.303 379.782C136.387 378.657 138.47 377.787 140.725 377.355C144.892 376.573 149.142 376.834 153.22 375.792C153.48 376.052 153.829 376.313 154.09 376.573C158.517 380.563 161.553 385.943 162.595 391.844C162.855 393.323 162.944 394.797 162.944 396.271C162.944 396.271 162.944 396.271 162.944 396.36C162.944 400.266 164.59 404.084 167.543 406.688C168.413 407.469 169.626 406.256 168.845 405.558Z" fill="#50B09F"/>
<path d="M211.979 287.177C209.464 281.969 205.901 277.193 201.391 273.464C199.136 271.552 196.703 269.99 194.099 268.516C191.412 266.953 188.808 265.479 186.636 263.224C182.818 259.229 180.907 254.021 178.563 249.161C176.219 244.302 173.443 239.964 169.193 236.578C160.948 229.979 150.443 227.292 141.766 221.391C139.334 219.74 136.907 217.745 135.256 215.224C133.521 212.536 132.912 209.411 132.563 206.286C132.219 203.333 132.131 200.385 131.521 197.521C131 194.917 130.224 192.313 129.183 189.885C126.839 184.5 123.104 179.557 118.073 176.516C115.12 174.693 111.735 173.911 108.61 172.349C105.834 170.964 103.058 168.708 102.797 165.406C102.709 164.281 100.974 164.281 101.058 165.406C101.578 171.573 107.828 173.911 112.776 175.911C118.073 177.995 122.412 181.464 125.36 186.323C128.401 191.188 129.875 196.651 130.396 202.208C130.657 205.245 130.828 208.281 131.61 211.234C132.391 214.182 133.865 216.786 136.037 218.958C143.589 226.682 154.698 229.458 163.724 234.927C168.323 237.792 172.229 241.349 174.917 246.036C177.61 250.724 179.344 256.016 182.297 260.531C183.771 262.786 185.594 264.87 187.766 266.521C190.193 268.427 193.058 269.729 195.662 271.38C200.782 274.594 205.037 278.932 208.245 284.052C209.026 285.266 209.724 286.568 210.328 287.87C210.938 289.083 212.412 288.219 211.979 287.177Z" fill="#0C776D"/>
<path d="M338.954 189.537C330.538 186.501 319.949 183.199 311.616 188.147C307.361 190.667 305.194 195.438 301.116 198.042C297.293 200.475 292.694 200.735 288.267 200.558C283.496 200.386 278.808 199.605 274.038 199.777C269.694 199.865 265.527 200.818 261.709 202.99C254.423 206.98 249.558 214.1 244.439 220.433C241.491 224.079 238.449 227.636 234.803 230.589C230.032 234.407 224.303 236.923 218.663 239.266C217.1 239.876 217.793 242.391 219.355 241.787C224.303 239.787 229.163 237.621 233.59 234.667C237.324 232.152 240.449 229.115 243.314 225.73C248.605 219.568 253.121 212.365 259.626 207.329C262.84 204.897 266.569 203.162 270.652 202.641C275.34 202.037 280.022 202.641 284.709 202.99C289.137 203.334 293.824 203.595 298.074 202.298C300.157 201.688 302.157 200.647 303.892 199.256C305.803 197.693 307.361 195.699 309.012 193.876C310.746 191.97 312.657 190.318 315.173 189.449C317.517 188.584 320.032 188.324 322.553 188.407C327.933 188.584 333.225 190.318 338.262 192.141C339.824 192.574 340.517 190.058 338.954 189.537Z" fill="#0C776D"/>
<path d="M376.71 78.9628C369.507 78.1816 363.689 82.8691 358.658 87.3847C353.361 92.067 347.809 97.7962 340.257 97.9733C337.481 98.0566 334.617 97.6243 331.841 97.8847C329.58 98.0566 327.497 98.7545 325.502 99.7076C321.596 101.614 318.387 104.567 315.091 107.343C311.445 110.38 307.71 112.812 303.111 114.114C298.163 115.505 293.044 115.937 288.096 116.978C279.33 118.713 268.653 124.182 268.393 134.338C268.309 135.984 270.913 135.984 270.997 134.338C271.257 125.656 280.804 121.145 288.096 119.583C292.872 118.541 297.814 118.109 302.591 116.89C307.101 115.765 311.007 113.765 314.653 110.9C317.95 108.301 320.992 105.348 324.637 103.093C326.372 102.051 328.195 101.182 330.189 100.749C332.794 100.14 335.486 100.489 338.085 100.572C342.169 100.661 345.814 99.8795 349.372 97.8847C352.408 96.1503 355.101 93.8899 357.617 91.6347C362.908 86.9472 368.814 80.6972 376.538 81.567C378.361 81.7389 378.361 79.1347 376.71 78.9628Z" fill="#0C776D"/>
<path d="M252.684 123.312C250.861 120.276 248.606 117.151 248.173 113.505C247.736 109.864 249.038 106.219 249.996 102.745C250.861 99.5363 251.559 96.0623 250.517 92.7655C249.736 90.0728 247.996 87.729 246.09 85.6457C244.095 83.3905 241.835 81.3957 239.928 79.1353C237.845 76.6196 236.455 73.7551 236.022 70.4582C235.064 62.8228 238.017 54.7498 234.283 47.5467C233.767 46.5936 232.288 47.4582 232.809 48.4113C236.022 54.6613 233.85 62.1248 234.199 68.8071C234.371 72.0207 235.064 75.0571 236.803 77.8384C238.366 80.2655 240.449 82.3488 242.444 84.4321C244.439 86.5155 246.522 88.5988 247.913 91.1144C249.475 94.0676 249.559 97.2759 248.777 100.489C247.996 103.875 246.694 107.26 246.35 110.729C246.001 114.203 247.132 117.411 248.866 120.448C250.861 124.094 253.205 127.307 254.423 131.385C255.637 135.552 255.897 140.068 255.027 144.318C254.856 145.448 256.501 145.88 256.678 144.75C258.241 137.203 256.678 129.823 252.684 123.312Z" fill="#A6A646"/>
<path d="M226.994 175.563C225.255 171.225 222.395 168.1 218.229 166.016C218.229 165.928 218.229 165.844 218.229 165.756C217.708 164.193 218.052 162.542 218.661 161.068C219.182 159.943 220.135 157.86 221.697 158.381C222.739 158.725 223.177 157.079 222.135 156.73C219.791 155.949 218.052 158.12 217.187 159.943C216.406 161.589 215.968 163.412 216.229 165.147C214.583 164.365 212.932 163.501 211.63 162.282C210.328 161.068 209.286 159.594 208.505 158.032C208.161 157.339 207.812 156.558 207.552 155.777C207.64 155.688 207.812 155.516 207.812 155.339C208.244 153.605 208.854 151.693 210.244 150.48C211.369 149.438 213.109 149.178 214.322 150.048C214.666 150.308 215.275 150.136 215.536 149.699C215.796 149.266 215.624 148.834 215.187 148.485C213.453 147.183 210.937 147.615 209.286 148.917C207.984 149.959 207.203 151.438 206.598 152.995C206.078 151.001 205.729 149.006 205.38 147.011C204.859 143.886 204.338 140.589 203.296 137.376C203.385 137.287 203.473 137.204 203.473 137.027C203.557 136.683 203.557 136.334 203.645 136.074C203.734 135.902 203.734 135.725 203.817 135.553C203.817 135.464 203.906 135.381 203.906 135.292C203.906 135.292 203.906 135.204 203.994 135.204C204.078 134.943 204.255 134.6 204.427 134.339C204.515 134.162 204.598 134.079 204.687 133.902C204.775 133.818 204.775 133.73 204.859 133.73C204.859 133.73 204.859 133.73 204.947 133.641C205.119 133.381 205.38 133.12 205.64 132.949C205.729 132.86 205.729 132.86 205.817 132.777C205.817 132.777 205.817 132.777 205.9 132.777C206.078 132.688 206.161 132.6 206.338 132.516C206.421 132.516 206.421 132.428 206.51 132.428C206.51 132.428 206.598 132.339 206.682 132.339C206.77 132.339 206.859 132.256 206.942 132.256C206.942 132.256 207.031 132.256 207.119 132.256C207.203 132.256 207.203 132.256 207.291 132.256C207.38 132.256 207.463 132.256 207.463 132.339L207.552 132.428C207.9 132.688 208.505 132.516 208.765 132.079C209.025 131.647 208.854 131.126 208.421 130.865C206.859 129.912 205.036 131.037 203.994 132.256C203.296 133.037 202.864 133.902 202.432 134.772C201.13 131.818 199.218 129.303 196.182 127.657C193.749 126.355 190.973 125.834 188.286 125.397C188.369 125.225 188.286 124.964 188.197 124.704C187.588 123.402 187.328 122.011 187.505 120.626C187.677 119.495 188.025 117.933 189.15 117.329C190.109 116.808 189.239 115.329 188.286 115.85C186.723 116.719 186.025 118.631 185.765 120.277C185.505 121.928 185.765 123.574 186.463 125.136C184.984 124.964 183.51 124.704 182.124 124.443C179.781 123.923 177.52 122.969 175.697 121.318C174.656 120.365 173.874 119.235 173.093 118.022C173.442 116.459 173.703 114.808 174.656 113.423C175.437 112.292 176.656 111.423 177.958 111.423C179.083 111.423 179.083 109.688 177.958 109.688C176.046 109.688 174.395 110.818 173.354 112.292C172.661 113.245 172.229 114.376 171.88 115.589C170.838 113.074 170.145 110.12 169.364 107.173C169.453 107.001 169.536 106.912 169.536 106.74C169.536 106.48 169.536 106.219 169.536 105.959C169.536 105.87 169.536 105.87 169.536 105.782C169.536 105.699 169.624 105.522 169.624 105.438C169.713 105.178 169.796 104.917 169.885 104.74C169.885 104.657 169.973 104.657 169.973 104.568C170.057 104.48 170.057 104.308 170.145 104.219C170.234 104.048 170.406 103.787 170.494 103.615C170.494 103.527 170.578 103.527 170.578 103.438C170.666 103.355 170.755 103.266 170.838 103.178C171.015 103.006 171.187 102.834 171.359 102.657C171.447 102.657 171.447 102.574 171.536 102.574C171.619 102.485 171.796 102.397 171.88 102.397C172.312 102.136 172.489 101.615 172.229 101.183C171.968 100.751 171.447 100.662 171.015 100.834C169.796 101.532 168.843 102.657 168.322 103.876C166.671 97.9747 164.156 92.5059 157.994 90.5059C156.953 90.1622 156.432 91.808 157.562 92.157C161.9 93.5476 164.416 97.7142 165.979 101.792C166.328 102.834 166.671 103.876 166.932 104.917C166.067 104.219 165.109 103.699 164.067 103.438C162.505 103.006 160.77 103.266 159.645 104.48C158.864 105.261 160.078 106.48 160.859 105.699C161.64 104.917 162.854 104.917 163.895 105.178C165.197 105.61 166.328 106.563 167.281 107.433C167.369 107.522 167.541 107.605 167.713 107.605C168.322 110.037 168.843 112.464 169.713 114.808C169.796 115.157 169.973 115.506 170.145 115.85C169.885 115.678 169.536 115.506 169.275 115.329C168.322 114.897 167.369 114.636 166.328 114.548C164.244 114.376 162.244 115.068 160.687 116.459C159.817 117.152 161.031 118.37 161.9 117.673C163.114 116.631 164.765 116.199 166.328 116.287C168.15 116.459 169.536 117.501 170.838 118.714C171.098 118.891 171.359 118.975 171.536 118.891C172.921 121.407 174.833 123.574 177.437 124.876C179.26 125.834 181.166 126.266 183.161 126.699C182.989 126.787 182.9 126.876 182.729 127.048C181.427 128.178 180.562 129.74 179.781 131.214C179.52 131.647 179.692 132.167 180.124 132.428C180.562 132.688 181.083 132.516 181.343 132.079C182.036 130.782 182.64 129.48 183.77 128.522C184.64 127.657 185.942 127.136 187.067 127.397C187.156 127.397 187.328 127.397 187.416 127.397C188.718 127.568 190.109 127.74 191.411 128.089C196.093 129.219 198.786 131.735 200.52 135.032C199.567 134.6 198.525 134.251 197.395 134.251C195.661 134.162 193.749 134.772 192.536 136.074C191.755 136.855 192.968 138.157 193.749 137.287C194.708 136.245 196.093 135.902 197.484 135.985C198.958 136.074 200.348 136.855 201.65 137.725C203.296 142.495 203.734 148.225 205.036 153.433C203.734 152.391 202.171 151.782 200.437 151.61C198.005 151.438 194.708 152.303 193.838 154.818C193.406 155.86 195.14 156.298 195.489 155.256C195.833 154.475 196.791 153.954 197.572 153.693C198.525 153.344 199.656 153.256 200.697 153.344C202.604 153.605 204.338 154.647 205.38 156.12C205.557 156.381 205.729 156.469 205.989 156.469C207.119 159.855 208.942 162.803 211.89 164.886C212.499 165.324 213.109 165.667 213.713 166.016C212.499 166.188 211.369 166.449 210.244 166.969C208.333 167.839 206.249 169.402 205.817 171.574C205.729 172.006 205.9 172.527 206.421 172.61C206.859 172.699 207.38 172.438 207.463 172.006C207.812 170.272 209.546 169.141 211.109 168.449C212.848 167.667 214.755 167.407 216.666 167.667C216.838 167.667 217.01 167.667 217.187 167.579C218.052 168.011 218.833 168.449 219.614 168.969C221.697 170.355 223.26 172.266 224.473 174.522C226.906 179.12 227.515 184.417 228.036 189.537C228.119 190.667 229.859 190.667 229.77 189.537C229.338 184.678 228.817 179.902 226.994 175.563Z" fill="#A6A646"/>
<path d="M167.714 227.985C166.932 225.469 165.979 223.037 164.766 220.782L167.802 219.131C169.104 221.652 170.234 224.251 171.016 226.943L167.714 227.985Z" fill="#03351D"/>
<path d="M162.855 252.807L159.559 251.854C160.168 249.682 160.512 247.426 160.6 245.166L164.069 245.255C163.897 247.77 163.548 250.374 162.855 252.807Z" fill="#03351D"/>
<path d="M173.792 259.318C171.276 259.318 168.755 258.798 166.5 257.839L167.802 254.631C169.714 255.412 171.708 255.844 173.792 255.844V259.318Z" fill="#03351D"/>
<path d="M176.917 236.923C176.828 236.058 175.958 235.188 175.094 235.1L175.354 231.631C177.958 231.803 180.125 233.975 180.385 236.579L176.917 236.923Z" fill="#03351D"/>
<path d="M191.324 254.979C189.59 253.588 188.46 251.593 188.027 249.51L191.413 248.9C191.673 250.202 192.366 251.416 193.408 252.286L191.324 254.979Z" fill="#03351D"/>
<path d="M180.473 243H183.941V249.161H180.473V243Z" fill="#03351D"/>
<path d="M175.609 270.417L176.37 267.031L182.552 268.422L181.792 271.807L175.609 270.417Z" fill="#03351D"/>
<path d="M192.312 261.156L194.552 259.375L196.719 262.089L194.479 263.875L192.312 261.156Z" fill="#03351D"/>
<path d="M204.426 261.572H207.9V265.999H204.426V261.572Z" fill="#03351D"/>
<path d="M192.613 278.354L193.103 274.916L196.197 275.359L195.702 278.791L192.613 278.354Z" fill="#03351D"/>
<path d="M155.13 243.349L151.745 242.568C151.917 241.958 151.833 241.177 151.484 240.656L154.609 239.094C155.219 240.396 155.479 241.87 155.13 243.349Z" fill="#03351D"/>
<path d="M154.436 222.517L153.395 219.22C155.561 218.527 157.993 218.438 160.165 219.048L159.296 222.433C157.645 221.912 155.999 221.996 154.436 222.517Z" fill="#03351D"/>
<path d="M132.02 233.381L136.467 231.646L137.728 234.886L133.28 236.615L132.02 233.381Z" fill="#03351D"/>
<path d="M143.168 231.333L146.569 230.641L147.465 235.063L144.064 235.755L143.168 231.333Z" fill="#03351D"/>
<path d="M142.105 215.943L142.538 212.5L146.069 212.938L145.637 216.385L142.105 215.943Z" fill="#03351D"/>
<path d="M163.91 215.344L164.264 211.891L168.665 212.344L168.311 215.797L163.91 215.344Z" fill="#03351D"/>
<path d="M148.547 208.927L151.302 206.812L154.365 210.807L151.615 212.917L148.547 208.927Z" fill="#03351D"/>
<path d="M123.504 220.391L125.764 217.756L128.858 220.407L126.598 223.048L123.504 220.391Z" fill="#03351D"/>
<path d="M119.809 226.162H123.277V229.287H119.809V226.162Z" fill="#03351D"/>
<path d="M123.973 206.547C122.931 205.594 121.712 204.813 120.41 204.292L121.712 201.078C123.363 201.776 124.926 202.729 126.316 203.943L123.973 206.547Z" fill="#03351D"/>
<path d="M114.871 213.098L115.355 208.26L118.809 208.609L118.324 213.442L114.871 213.098Z" fill="#03351D"/>
<path d="M134.262 206.9L136.98 204.744L138.382 206.51L135.663 208.671L134.262 206.9Z" fill="#03351D"/>
<path d="M139.682 194.745C139.25 194.225 138.552 193.787 137.859 193.787V190.318C139.682 190.318 141.417 191.271 142.458 192.662L139.682 194.745Z" fill="#03351D"/>
<path d="M134.302 188.146L131 187.104C131.349 185.891 131.521 184.677 131.349 183.458L134.823 182.938C134.995 184.677 134.823 186.411 134.302 188.146Z" fill="#03351D"/>
<path d="M117.986 191.62C117.376 191.271 116.772 191.099 116.074 191.099L116.251 187.625C117.465 187.714 118.678 188.063 119.72 188.667L117.986 191.62Z" fill="#03351D"/>
<path d="M114.832 194.823L117.467 193.953L118.551 197.255L115.915 198.12L114.832 194.823Z" fill="#03351D"/>
<path d="M121.892 177.214C120.85 175.995 120.158 174.433 119.809 172.87L123.194 172.178C123.366 173.219 123.887 174.173 124.496 175.042L121.892 177.214Z" fill="#03351D"/>
<path d="M112.517 172.526C112.428 172.438 112.257 172.438 112.168 172.438L111.387 169.052C112.517 168.792 113.73 169.052 114.6 169.75L112.517 172.526Z" fill="#03351D"/>
<path d="M112.203 181.26L113.047 177.891L114.818 178.333L113.974 181.698L112.203 181.26Z" fill="#03351D"/>
<path d="M99.1211 172.923L101.345 170.256L104.012 172.48L101.788 175.146L99.1211 172.923Z" fill="#03351D"/>
<path d="M160.688 238.223C160.078 237.963 159.385 237.879 158.776 238.051L157.906 234.666C159.385 234.322 160.859 234.405 162.245 235.098L160.688 238.223Z" fill="#03351D"/>
<path d="M168.845 251.506C168.152 250.464 167.715 249.162 167.715 247.86L171.189 247.771C171.189 248.381 171.361 248.99 171.71 249.511L168.845 251.506Z" fill="#03351D"/>
<path d="M208.766 275.286C207.464 275.286 206.25 274.593 205.641 273.551L208.594 271.729C208.594 271.812 208.766 271.812 208.766 271.812L208.943 275.286C208.854 275.286 208.766 275.286 208.766 275.286Z" fill="#03351D"/>
<path d="M199.73 281.374L202.835 279.822L203.725 281.609L200.621 283.161L199.73 281.374Z" fill="#03351D"/>
<path d="M131.184 226.671L132.928 223.369L135.996 224.989L134.257 228.291L131.184 226.671Z" fill="#03351D"/>
<path d="M177.522 263.307C176.48 262.354 176.22 260.792 176.741 259.578L179.783 260.88L177.522 263.307Z" fill="#03351D"/>
<path d="M228.562 65.776L229.953 62.0312L231.578 62.6354L230.188 66.3802L228.562 65.776Z" fill="#A6A646"/>
<path d="M240.621 70.0254C240.189 69.0671 239.579 68.2025 238.887 67.4212L240.189 66.291C240.97 67.1608 241.663 68.2025 242.184 69.2441L240.621 70.0254Z" fill="#A6A646"/>
<path d="M223.598 72.5579L223.801 70.834L226.212 71.1204L226.009 72.8444L223.598 72.5579Z" fill="#A6A646"/>
<path d="M230.902 74.974L229.34 74.1927C229.772 73.3229 230.121 72.4531 230.382 71.5L232.027 71.9323C231.767 72.974 231.423 74.0156 230.902 74.974Z" fill="#A6A646"/>
<path d="M233.676 80.959H236.54V82.6986H233.676V80.959Z" fill="#A6A646"/>
<path d="M232.724 57.7871C231.682 57.0059 230.901 55.7923 230.812 54.4902L232.547 54.3184C232.635 55.0996 233.068 55.8809 233.766 56.4017L232.724 57.7871Z" fill="#A6A646"/>
<path d="M237.406 61.0827C237.323 60.041 237.406 58.9993 237.667 57.9629L239.406 58.3066C239.229 59.1764 239.146 60.041 239.229 60.9108L237.406 61.0827Z" fill="#A6A646"/>
<path d="M250.517 74.4524C249.996 74.2753 249.475 74.2753 248.866 74.3638L248.605 72.6295C249.387 72.4524 250.257 72.5409 251.038 72.8013L250.517 74.4524Z" fill="#A6A646"/>
<path d="M243.397 77.2292C243.137 76.4479 243.137 75.5781 243.225 74.7969L244.959 75.0573C244.871 75.5781 244.871 76.1875 245.048 76.7083L243.397 77.2292Z" fill="#A6A646"/>
<path d="M249.637 79.8431L250.095 78.166L252.522 78.8275L252.064 80.5046L249.637 79.8431Z" fill="#A6A646"/>
<path d="M239.277 90.3906L239.496 88.4062L241.22 88.599L241.001 90.5833L239.277 90.3906Z" fill="#A6A646"/>
<path d="M245.569 83.651C244.96 82.9583 244.611 82.1771 244.527 81.3073L246.262 81.2188C246.262 81.7396 246.522 82.1771 246.783 82.5208L245.569 83.651Z" fill="#A6A646"/>
<path d="M256.238 82.0879H257.978V84.5202H256.238V82.0879Z" fill="#A6A646"/>
<path d="M256.499 92.8496C255.806 92.5059 255.113 92.2454 254.332 92.0684L254.681 90.334C255.634 90.5059 256.499 90.8548 257.368 91.2871L256.499 92.8496Z" fill="#A6A646"/>
<path d="M241.938 99.6829L243.063 97.4277L244.615 98.2038L243.49 100.459L241.938 99.6829Z" fill="#A6A646"/>
<path d="M236.035 99.4277L237.087 97.6309L238.582 98.5059L237.53 100.303L236.035 99.4277Z" fill="#A6A646"/>
<path d="M244.699 95.3691C244.355 95.3691 244.095 95.3691 243.746 95.2806L244.007 93.5462C244.699 93.6296 245.392 93.6296 246.09 93.3691L246.611 95.0202C245.913 95.2806 245.309 95.3691 244.699 95.3691Z" fill="#A6A646"/>
<path d="M258.063 103.094C257.891 102.657 257.458 102.313 256.938 102.225L257.281 100.49C258.323 100.662 259.193 101.355 259.625 102.313L258.063 103.094Z" fill="#A6A646"/>
<path d="M251.594 108.187L251.828 105.51L253.557 105.656L253.323 108.338L251.594 108.187Z" fill="#A6A646"/>
<path d="M257.621 108.433L258.845 107.209L260.626 108.985L259.397 110.214L257.621 108.433Z" fill="#A6A646"/>
<path d="M242.615 112.464L241.141 111.6C241.401 111.162 241.49 110.641 241.401 110.12L243.135 109.865C243.313 110.73 243.135 111.683 242.615 112.464Z" fill="#A6A646"/>
<path d="M232.816 111.661L235.223 108.807L236.551 109.926L234.145 112.781L232.816 111.661Z" fill="#A6A646"/>
<path d="M239.887 106.828L240.298 105.141L242.069 105.573L241.658 107.255L239.887 106.828Z" fill="#A6A646"/>
<path d="M239.668 116.808C238.97 116.631 238.277 116.548 237.585 116.631L237.324 114.897C238.277 114.725 239.23 114.808 240.1 115.069L239.668 116.808Z" fill="#A6A646"/>
<path d="M233.656 119.395L234.589 117.932L236.344 119.046L235.411 120.515L233.656 119.395Z" fill="#A6A646"/>
<path d="M244.095 119.411C244.007 118.974 243.658 118.453 243.137 118.37L243.574 116.719C244.699 116.979 245.652 118.021 245.829 119.234L244.095 119.411Z" fill="#A6A646"/>
<path d="M243.094 126.563L243.25 124.834L245.672 125.053L245.516 126.782L243.094 126.563Z" fill="#A6A646"/>
<path d="M255.547 114.724C255.198 114.203 254.594 113.854 253.984 113.766L254.161 112.031C255.286 112.12 256.417 112.724 257.021 113.682L255.547 114.724Z" fill="#A6A646"/>
<path d="M264.922 118.454C264.313 117.85 263.792 117.152 263.359 116.37L264.833 115.506C265.182 116.11 265.615 116.719 266.135 117.152L264.922 118.454Z" fill="#A6A646"/>
<path d="M258.152 121.667L256.59 120.885C257.022 120.016 257.199 119.151 257.199 118.193L258.934 118.109C258.934 119.411 258.673 120.625 258.152 121.667Z" fill="#A6A646"/>
<path d="M263.969 124.443C263.62 123.834 263.099 123.313 262.578 122.881L263.62 121.49C264.312 122.011 264.922 122.709 265.443 123.49L263.969 124.443Z" fill="#A6A646"/>
<path d="M259.168 125.854L260.892 125.65L261.132 127.63L259.408 127.838L259.168 125.854Z" fill="#A6A646"/>
<path d="M248.613 130.074L250.603 129.209L251.296 130.798L249.306 131.662L248.613 130.074Z" fill="#A6A646"/>
<path d="M248.438 137.682L249.026 136.047L251.474 136.938L250.88 138.568L248.438 137.682Z" fill="#A6A646"/>
<path d="M238.109 123.256L238.786 121.287L240.427 121.85L239.75 123.818L238.109 123.256Z" fill="#A6A646"/>
<path d="M259.652 134.615L260.027 132.922L262.064 133.37L261.684 135.068L259.652 134.615Z" fill="#A6A646"/>
<path d="M251.574 116.652L253.251 116.209L253.96 118.896L252.283 119.339L251.574 116.652Z" fill="#A6A646"/>
<path d="M263.605 128.954L265.199 128.271L265.85 129.787L264.257 130.469L263.605 128.954Z" fill="#A6A646"/>
<path d="M251.298 87.9056L249.996 86.7754C250.6 86.166 250.949 85.3014 251.038 84.4316L252.772 84.6035C252.6 85.8223 252.079 87.0358 251.298 87.9056Z" fill="#A6A646"/>
<path d="M227.293 77.0156L228.658 76.7812L228.954 78.4896L227.585 78.724L227.293 77.0156Z" fill="#A6A646"/>
<path d="M243.965 130.402L245.762 130.115L246.033 131.834L244.236 132.115L243.965 130.402Z" fill="#0C776D"/>
<path d="M254.953 218.01L256.927 215.812L258.219 216.974L256.245 219.167L254.953 218.01Z" fill="#0C776D"/>
<path d="M266.135 214.963C265.354 214.27 264.141 213.921 263.099 214.181L262.75 212.447C264.401 212.103 266.135 212.536 267.349 213.666L266.135 214.963Z" fill="#0C776D"/>
<path d="M253.12 227.203L251.469 226.771C251.818 225.552 252.25 224.339 252.859 223.297L254.422 224.167C253.813 225.12 253.38 226.161 253.12 227.203Z" fill="#0C776D"/>
<path d="M232.078 220.49L236.068 220.359L236.125 222.094L232.135 222.224L232.078 220.49Z" fill="#0C776D"/>
<path d="M226.385 228.594L226.297 226.855C227.859 226.771 229.339 226.594 230.901 226.334L231.245 228.074C229.599 228.245 227.948 228.417 226.385 228.594Z" fill="#0C776D"/>
<path d="M241.573 215.484L238.969 215.141C239.229 213.667 239.229 212.188 239.146 210.802L241.75 210.625C241.922 212.188 241.833 213.839 241.573 215.484Z" fill="#0C776D"/>
<path d="M248.082 207.678C246.952 207.24 245.827 206.808 244.785 206.199L246.087 203.943C246.952 204.464 247.91 204.896 248.952 205.245L248.082 207.678Z" fill="#0C776D"/>
<path d="M245.132 234.667L242.533 234.495C242.616 233.105 242.533 231.719 242.355 230.329L244.96 229.896C245.132 231.459 245.22 233.021 245.132 234.667Z" fill="#0C776D"/>
<path d="M233.449 238.218L237.189 236.822L238.1 239.26L234.361 240.661L233.449 238.218Z" fill="#0C776D"/>
<path d="M271.785 213.673L273.155 211.459L276.478 213.516L275.103 215.73L271.785 213.673Z" fill="#0C776D"/>
<path d="M280.199 216.615H282.803V218.87H280.199V216.615Z" fill="#0C776D"/>
<path d="M266.66 208.756L268.238 206.365L270.41 207.803L268.832 210.193L266.66 208.756Z" fill="#0C776D"/>
<path d="M257.109 200.298C256.24 199.865 255.375 199.516 254.422 199.256L254.943 196.74C256.156 197.001 257.281 197.433 258.411 198.042L257.109 200.298Z" fill="#0C776D"/>
<path d="M250.426 197.432L247.91 196.827C248.171 195.609 248.691 194.484 249.473 193.525L251.556 195.005C251.035 195.697 250.598 196.567 250.426 197.432Z" fill="#0C776D"/>
<path d="M264.234 196.963L265.104 194.51L268.87 195.843L268 198.296L264.234 196.963Z" fill="#0C776D"/>
<path d="M260.754 194.396L258.41 193.182C258.842 192.401 259.103 191.531 259.191 190.578L261.796 190.75C261.707 192.052 261.363 193.266 260.754 194.396Z" fill="#0C776D"/>
<path d="M277.246 197.954C276.204 197.261 274.991 196.74 273.777 196.308L274.559 193.787C276.033 194.225 277.335 194.917 278.637 195.699L277.246 197.954Z" fill="#0C776D"/>
<path d="M284.885 193.702L282.453 192.921C282.802 191.791 283.323 190.838 284.104 189.885L286.182 191.531C285.578 192.14 285.146 192.921 284.885 193.702Z" fill="#0C776D"/>
<path d="M289.457 197.75L289.921 195.547L292.473 196.083L292.004 198.292L289.457 197.75Z" fill="#0C776D"/>
<path d="M284.275 210.624C283.665 209.931 282.712 209.583 281.842 209.671L281.582 207.067C283.322 206.895 285.056 207.588 286.181 208.89L284.275 210.624Z" fill="#0C776D"/>
<path d="M291.938 217.958L292.406 214.166L294.995 214.489L294.521 218.281L291.938 217.958Z" fill="#0C776D"/>
<path d="M292.431 209.24L291.91 206.719C293.212 206.459 294.514 206.375 295.816 206.459L295.645 209.063C294.514 208.98 293.473 208.98 292.431 209.24Z" fill="#0C776D"/>
<path d="M302.939 209.76L300.418 209.24C300.678 207.849 301.376 206.547 302.329 205.594L304.241 207.417C303.632 208.021 303.111 208.891 302.939 209.76Z" fill="#0C776D"/>
<path d="M297.59 192.354L299.382 191.469L300.538 193.797L298.746 194.688L297.59 192.354Z" fill="#0C776D"/>
<path d="M292 188.145L291.391 185.63C292.432 185.369 293.391 185.281 294.432 185.369L294.255 187.973C293.474 187.885 292.781 187.973 292 188.145Z" fill="#0C776D"/>
<path d="M301.285 180.943H303.889V184.24H301.285V180.943Z" fill="#0C776D"/>
<path d="M304.379 186.708L306.603 186.328L307.04 188.896L304.816 189.276L304.379 186.708Z" fill="#0C776D"/>
<path d="M311.095 181.813C309.704 181.12 308.663 179.902 308.23 178.428L310.746 177.646C311.007 178.428 311.527 179.12 312.225 179.469L311.095 181.813Z" fill="#0C776D"/>
<path d="M315.23 182.807L317.668 180.588L319.423 182.515L316.98 184.734L315.23 182.807Z" fill="#0C776D"/>
<path d="M314.098 177.396L315.327 175.1L317.775 176.412L316.546 178.709L314.098 177.396Z" fill="#0C776D"/>
<path d="M325.344 180.589L326.359 178.193L328.995 179.303L327.984 181.704L325.344 180.589Z" fill="#0C776D"/>
<path d="M319.844 177.088L322.432 176.822L322.667 179.067L320.073 179.333L319.844 177.088Z" fill="#0C776D"/>
<path d="M314.999 199.171L313.176 197.26C313.785 196.65 314.217 195.786 314.306 194.916L316.91 195.265C316.733 196.739 316.04 198.13 314.999 199.171Z" fill="#0C776D"/>
<path d="M325.936 200.386C325.238 199.605 324.285 198.912 323.332 198.563L324.285 196.131C325.676 196.652 326.889 197.61 327.842 198.652L325.936 200.386Z" fill="#0C776D"/>
<path d="M307.968 203.249C307.275 202.208 307.187 200.906 307.619 199.775L310.051 200.734C309.879 201.077 309.963 201.515 310.14 201.775L307.968 203.249Z" fill="#0C776D"/>
<path d="M323.507 193.005C322.725 192.661 321.772 192.573 320.902 192.833L320.121 190.318C321.595 189.885 323.246 189.969 324.637 190.667L323.507 193.005Z" fill="#0C776D"/>
<path d="M331.922 200.735C331.401 200.037 330.708 199.344 330.016 198.912L331.49 196.74C332.531 197.433 333.401 198.214 334.094 199.256L331.922 200.735Z" fill="#0C776D"/>
<path d="M332.621 195.178C331.923 194.829 331.23 194.657 330.449 194.657L330.621 192.053C331.751 192.141 332.793 192.402 333.746 192.834L332.621 195.178Z" fill="#0C776D"/>
<path d="M340.59 195L342.564 192.359L344.652 193.917L342.678 196.557L340.59 195Z" fill="#0C776D"/>
<path d="M336.348 199.255C335.744 198.13 335.567 196.74 335.916 195.438L338.431 196.047C338.259 196.74 338.343 197.432 338.692 198.042L336.348 199.255Z" fill="#0C776D"/>
<path d="M334.443 185.369C333.833 185.02 333.224 184.76 332.531 184.676L332.964 182.072C334.005 182.244 335.047 182.593 335.917 183.197L334.443 185.369Z" fill="#0C776D"/>
<path d="M341.559 187.365H343.553V189.969H341.559V187.365Z" fill="#0C776D"/>
<path d="M259.363 222.172H261.967V225.031H259.363V222.172Z" fill="#0C776D"/>
<path d="M241.5 203.64L241.74 200.354L244.339 200.541L244.094 203.833L241.5 203.64Z" fill="#0C776D"/>
<path d="M221.777 232.037L224.277 231.318L225.116 234.235L222.616 234.954L221.777 232.037Z" fill="#0C776D"/>
</g>
<defs>
<clipPath id="clip0_512_584">
<rect width="500" height="500" rx="250" fill="white"/>
</clipPath>
</defs>
</svg>
