<svg width="500" height="500" viewBox="0 0 500 500" fill="none" xmlns="http://www.w3.org/2000/svg">
<rect width="500" height="500" rx="250" fill="#308B7B"/>
<path d="M410 170V90H250V170C250 125.771 214.141 90 170 90C125.771 90 90 125.859 90 170V250H170C125.771 250 90 285.859 90 330V410H250V330C250 374.229 285.859 410 330 410C374.229 410 410 374.141 410 330V250H330C374.229 250 410 214.141 410 170ZM250 250V330C250 285.771 214.141 250 170 250H250V170C250 214.229 285.859 250 330 250H250Z" fill="#F38143"/>
</svg>
