<svg width="500" height="500" viewBox="0 0 500 500" fill="none" xmlns="http://www.w3.org/2000/svg">
<g clip-path="url(#clip0_512_99)">
<path d="M550 -50H-50V550H550V-50Z" fill="white"/>
<path d="M550 -50H-50V550H550V-50Z" fill="#D6A6DC"/>
<path d="M387.724 178.823C378.115 178.651 370.495 176.875 362.328 180.599C365.5 179.161 358.01 163.75 349.922 156.724C328.927 138.479 295.151 135.729 268.99 134.291C231.568 132.172 193.641 135.135 156.349 137.89C134.844 139.494 111.521 140.557 91.203 148.427C60.1353 160.494 65.1301 193.849 67.7499 221.276C75.4114 301.833 133.364 367.823 214.297 367.823C271.911 367.823 318.641 334.427 342.984 286.083C354.24 297.135 369.693 303.948 386.75 303.948C421.713 303.948 449.995 275.25 449.271 240.114C448.594 206.63 421.208 179.369 387.724 178.823ZM388.953 283.547C373.542 284.349 359.786 276.817 351.828 265.088C356.568 251.25 359.661 236.515 360.802 221.276C361.182 216.411 361.479 211.797 361.609 207.437C368.635 202.229 377.312 199.182 386.708 199.182C410.583 199.182 429.844 218.994 428.911 243.078C428.068 264.708 410.583 282.442 388.953 283.547Z" fill="#D5CB2C"/>
<path d="M353.651 174.589C353.651 192.621 291.042 207.183 213.833 207.183C136.625 207.183 74.0156 192.579 74.0156 174.589C74.0156 150.756 136.667 143.943 213.833 141.996C303.151 139.709 353.651 156.6 353.651 174.589Z" fill="#A6A646"/>
</g>
<defs>
<clipPath id="clip0_512_99">
<rect width="500" height="500" rx="250" fill="white"/>
</clipPath>
</defs>
</svg>
