<svg width="500" height="500" viewBox="0 0 500 500" fill="none" xmlns="http://www.w3.org/2000/svg">
<g clip-path="url(#clip0_512_465)">
<path d="M550 -50H-50V550H550V-50Z" fill="white"/>
<path d="M550 -50H-50V550H550V-50Z" fill="#FFA08B"/>
<mask id="mask0_512_465" style="mask-type:luminance" maskUnits="userSpaceOnUse" x="69" y="125" width="362" height="250">
<path d="M69.6562 125.725H430.656V374.667H69.6562V125.725Z" fill="white"/>
</mask>
<g mask="url(#mask0_512_465)">
<path d="M430.34 346.428C430.346 346.605 430.34 346.777 430.34 346.954C430.335 347.194 430.33 347.434 430.314 347.668C430.299 347.887 430.283 348.1 430.262 348.314C430.247 348.454 430.221 348.59 430.205 348.725C430.142 349.152 430.064 349.574 429.965 349.986C429.939 350.079 429.918 350.173 429.892 350.262C429.689 351.017 429.418 351.736 429.08 352.408C429.017 352.533 428.95 352.652 428.887 352.772C428.762 352.996 428.632 353.215 428.491 353.428C428.351 353.652 428.195 353.866 428.033 354.074C427.991 354.132 427.96 354.194 427.913 354.246C427.851 354.324 427.783 354.387 427.721 354.46C427.616 354.579 427.512 354.699 427.403 354.814C427.299 354.918 427.205 355.022 427.101 355.121C426.908 355.303 426.71 355.475 426.507 355.642C426.476 355.668 426.439 355.699 426.408 355.725C426.189 355.897 425.96 356.059 425.726 356.21C425.715 356.215 425.705 356.22 425.695 356.23L399.627 372.772C398.111 373.73 396.372 374.22 394.46 374.22H128.398C128.101 374.22 127.809 374.194 127.512 374.168C127.434 374.199 127.351 374.22 127.267 374.22C127.132 374.22 127.002 374.178 126.882 374.105C120.721 373.262 114.851 367.444 113.382 360.397L70.7987 156.418C69.6685 151.012 71.3247 146.163 75.1164 143.757L101.179 127.215C101.2 127.199 101.221 127.189 101.241 127.178C101.252 127.173 101.262 127.168 101.273 127.163C101.314 127.137 101.361 127.111 101.408 127.085C101.642 126.939 101.887 126.814 102.137 126.694C102.179 126.673 102.221 126.652 102.267 126.632C102.559 126.496 102.861 126.376 103.168 126.272C103.179 126.267 103.195 126.262 103.21 126.257C103.84 126.048 104.502 125.908 105.184 125.829C105.236 125.824 105.293 125.819 105.346 125.814C105.674 125.783 106.007 125.762 106.351 125.762H372.408C377.382 125.762 382.382 129.194 385.273 134.085C386.267 135.772 387.017 137.626 387.429 139.585L430.012 343.564C430.106 344.012 430.168 344.454 430.226 344.897C430.241 345.022 430.257 345.147 430.267 345.277C430.304 345.663 430.335 346.048 430.34 346.428Z" fill="#054D47"/>
</g>
<path d="M106.349 127.197C103.823 127.197 101.594 128.229 100.073 130.098C98.1562 132.452 97.4999 135.911 98.2655 139.583L140.849 343.562C142.312 350.557 148.417 356.244 154.463 356.244H189.734L190.021 309.114C190.031 307.15 190.568 305.437 191.49 304.104C192.781 302.234 194.833 301.109 197.328 301.109H354.641C358.776 301.109 363.01 304.291 364.937 308.843L385.016 356.244H420.526C423.052 356.244 425.276 355.213 426.797 353.343C428.713 350.989 429.375 347.531 428.604 343.854L386.021 139.874C384.562 132.885 378.453 127.197 372.406 127.197H106.349ZM372.088 134.932C372.838 134.01 373.922 133.505 375.151 133.505C377.807 133.505 380.479 135.942 381.109 138.937C381.448 140.572 381.135 142.14 380.245 143.234C379.495 144.156 378.406 144.661 377.182 144.661C374.479 144.661 371.865 142.275 371.229 139.229C370.885 137.593 371.198 136.025 372.088 134.932ZM111.927 143.234C111.182 144.156 110.094 144.661 108.865 144.661C106.161 144.661 103.547 142.275 102.911 139.229C102.568 137.593 102.88 136.025 103.771 134.932C104.521 134.01 105.609 133.505 106.838 133.505C109.536 133.505 112.151 135.89 112.786 138.937C113.13 140.572 112.818 142.14 111.927 143.234ZM154.781 348.51C154.724 348.583 154.656 348.645 154.594 348.713C153.859 349.499 152.849 349.937 151.719 349.937C149.016 349.937 146.401 347.546 145.766 344.499C145.745 344.411 145.734 344.322 145.719 344.234C145.703 344.119 145.677 344.005 145.667 343.89C145.51 342.479 145.849 341.161 146.625 340.202C147.375 339.286 148.463 338.775 149.693 338.775C152.391 338.775 155.005 341.161 155.641 344.208C155.984 345.848 155.672 347.416 154.781 348.51ZM180.552 343.077C178.411 345.708 175.292 347.156 171.766 347.156C163.771 347.156 155.719 339.744 153.812 330.624C152.792 325.734 153.703 321.088 156.312 317.88C156.578 317.551 156.865 317.239 157.156 316.947C159.234 314.906 162.01 313.796 165.099 313.796C173.094 313.796 181.146 321.213 183.047 330.333C183.182 330.984 183.281 331.63 183.349 332.27C183.792 336.432 182.812 340.296 180.552 343.077ZM149.437 289.031C145.698 289.031 141.937 285.588 141.057 281.354L113.75 150.546C113.271 148.249 113.703 146.062 114.937 144.541C115.969 143.275 117.469 142.577 119.161 142.577H366.615C370.354 142.577 374.109 146.02 374.995 150.255L402.302 281.062C402.781 283.354 402.349 285.546 401.109 287.067C400.078 288.333 398.583 289.031 396.891 289.031H149.437ZM414.943 340.202C415.687 339.286 416.776 338.775 418.005 338.775C420.661 338.775 423.333 341.213 423.958 344.208C424.302 345.843 423.99 347.411 423.099 348.505C422.349 349.426 421.26 349.937 420.036 349.937C417.333 349.937 414.719 347.546 414.083 344.499C413.953 343.885 413.917 343.281 413.969 342.708C414.057 341.755 414.385 340.89 414.943 340.202ZM410.115 330.333C411.135 335.223 410.224 339.869 407.62 343.077C405.479 345.708 402.359 347.156 398.833 347.156C390.838 347.156 382.786 339.739 380.885 330.624C379.865 325.734 380.771 321.088 383.38 317.88C385.521 315.249 388.641 313.796 392.167 313.796C400.161 313.796 408.208 321.213 410.115 330.333Z" fill="#E673A9"/>
<path d="M247.038 246.073H239.101C236.2 246.073 233.262 243.318 232.554 239.938L226.481 210.844C226.117 209.094 226.424 207.448 227.325 206.344C228.033 205.469 229.038 205.005 230.226 205.005H238.361C242.179 211.536 244.877 218.495 246.377 225.682C247.856 232.771 248.08 239.63 247.038 246.073ZM371.07 184.521C370.351 185.401 369.335 185.87 368.137 185.87H135.715C132.788 185.87 129.83 183.094 129.117 179.682L124.59 157.99C124.221 156.219 124.528 154.563 125.439 153.443C126.153 152.563 127.169 152.094 128.367 152.094H360.783C363.716 152.094 366.674 154.87 367.387 158.281L371.919 179.974C372.283 181.745 371.976 183.401 371.07 184.521ZM139.054 159.943H354.919C355.314 159.943 355.632 159.62 355.632 159.224C355.632 158.828 355.314 158.51 354.919 158.51H139.054C138.658 158.51 138.335 158.828 138.335 159.224C138.335 159.62 138.658 159.943 139.054 159.943ZM142.611 169.698H358.476C358.872 169.698 359.195 169.38 359.195 168.984C359.195 168.589 358.872 168.266 358.476 168.266H142.611C142.215 168.266 141.898 168.589 141.898 168.984C141.898 169.38 142.215 169.698 142.611 169.698ZM362.752 178.74C362.752 178.344 362.434 178.021 362.038 178.021H146.174C145.778 178.021 145.455 178.344 145.455 178.74C145.455 179.135 145.778 179.458 146.174 179.458H362.038C362.434 179.458 362.752 179.135 362.752 178.74ZM281.018 205.005H273.08C272.038 211.443 272.262 218.297 273.742 225.391C275.247 232.589 277.939 239.542 281.757 246.073H289.893C290.189 246.073 290.471 246.042 290.742 245.984C291.153 245.901 291.528 245.75 291.872 245.542C292.215 245.333 292.523 245.063 292.794 244.734C293.695 243.625 294.002 241.984 293.632 240.229L287.559 211.135C286.851 207.755 283.919 205.005 281.018 205.005Z" fill="#A6A646"/>
<path d="M128.323 350.546L87.3695 154.406L98.5935 148.176L139.448 343.854C140.745 350.083 145.484 355.359 150.823 357.083L140.557 363.859C134.916 362.624 129.698 357.13 128.323 350.546ZM87.0674 152.937L98.2862 146.702L96.8643 139.874C96.1872 136.645 96.5362 133.557 97.7758 131.072L84.2862 139.63L87.0674 152.937ZM72.1976 156.124L73.1456 160.661L85.7549 153.661L82.9945 140.447L75.8799 144.963C72.6039 147.041 71.1924 151.317 72.1976 156.124ZM408.312 365.557H142.901C142.224 365.557 141.552 365.479 140.88 365.364L129.651 372.786H394.453C396.093 372.786 397.573 372.374 398.854 371.562L408.312 365.557ZM127.172 372.702L138.974 364.906C133.312 363.057 128.302 357.452 126.922 350.838L86.0622 155.135L73.4529 162.135L114.781 360.104C116.14 366.624 121.547 372.005 127.172 372.702ZM420.526 357.676H384.547C384.541 357.676 384.541 357.676 384.541 357.676H154.463C153.89 357.676 153.317 357.614 152.745 357.525L142.776 364.114C142.817 364.114 142.859 364.124 142.901 364.124H410.573L420.75 357.666C420.677 357.666 420.599 357.676 420.526 357.676ZM402.614 338.083C403.182 337.39 403.604 336.577 403.885 335.676C404.349 334.171 404.411 332.432 404.031 330.624C402.948 325.447 398.646 321.171 394.182 320.656C393.885 320.619 393.583 320.604 393.286 320.604C393.041 320.604 392.797 320.614 392.557 320.64C390.885 320.817 389.427 321.588 388.385 322.869C386.88 324.718 386.364 327.442 386.968 330.333C388.125 335.859 392.942 340.354 397.708 340.354C399.687 340.354 401.427 339.546 402.614 338.083ZM189.276 236.296L190.646 234.234C191.146 233.484 192.286 233.416 193.031 234.109L195.932 236.791C196.37 237.197 196.609 237.765 196.609 238.307C196.609 238.411 196.599 238.52 196.583 238.624C196.547 238.833 196.468 239.031 196.354 239.208L194.838 241.489C196.984 242.952 199.286 243.979 201.567 244.505L200.942 241.499C200.833 240.979 200.942 240.468 201.239 240.098C201.51 239.765 201.901 239.583 202.343 239.583H205.651C206.505 239.583 207.297 240.281 207.495 241.208L208.198 244.572C210.26 244.093 212.13 243.109 213.672 241.692L211.125 239.338C210.427 238.682 210.239 237.624 210.698 236.926L212.484 234.239C212.984 233.489 214.125 233.416 214.87 234.109L217.203 236.265C217.974 234.13 218.312 231.718 218.192 229.208H215.317C214.781 229.208 214.271 228.932 213.916 228.505C213.849 228.416 213.781 228.322 213.724 228.229C213.609 228.031 213.526 227.812 213.479 227.583L212.682 223.786C212.573 223.265 212.682 222.749 212.984 222.385C213.255 222.051 213.646 221.869 214.083 221.869H216.609C215.64 219.343 214.255 216.921 212.552 214.775L211.182 216.838C210.677 217.593 209.547 217.656 208.802 216.973L205.896 214.286C205.198 213.63 205.01 212.572 205.468 211.874L206.989 209.583C204.843 208.124 202.547 207.093 200.26 206.567L200.89 209.577C201 210.098 200.89 210.609 200.588 210.973C200.317 211.307 199.927 211.494 199.484 211.494H196.177C195.333 211.494 194.526 210.781 194.338 209.869L193.635 206.499C191.567 206.979 189.698 207.968 188.156 209.385L190.698 211.739C191.401 212.385 191.588 213.447 191.13 214.15L189.343 216.843C188.838 217.593 187.703 217.656 186.958 216.973L184.625 214.807C183.854 216.947 183.515 219.354 183.635 221.869H186.51C187.364 221.869 188.156 222.567 188.349 223.494L189.146 227.291C189.255 227.812 189.146 228.322 188.843 228.692C188.573 229.025 188.182 229.208 187.739 229.208H185.218C186.182 231.729 187.573 234.15 189.276 236.296ZM353.531 254.218C352.62 255.348 351.328 255.942 349.802 255.942H183.302C179.63 255.942 175.916 252.468 175.026 248.197L165.505 202.583C165.041 200.354 165.432 198.265 166.583 196.848C167.495 195.723 168.786 195.13 170.307 195.13H336.807C340.484 195.13 344.198 198.604 345.088 202.874L354.614 248.494C355.078 250.718 354.682 252.801 353.531 254.218ZM295.823 225.682C297.161 232.093 300.39 237.984 304.672 242.577C307.724 245.864 311.323 248.484 315.151 250.171C318.213 251.515 321.422 252.26 324.63 252.26C324.979 252.26 325.328 252.255 325.672 252.234C327.739 252.13 329.708 251.702 331.531 250.979C334.265 249.89 336.672 248.13 338.583 245.781C342.755 240.65 344.208 233.218 342.573 225.39C339.51 210.734 326.593 198.812 313.771 198.812C308.172 198.812 303.213 201.114 299.812 205.296C295.646 210.426 294.192 217.854 295.823 225.682ZM225.078 211.135L231.151 240.229C231.984 244.244 235.552 247.505 239.099 247.505H289.885C290.489 247.505 291.067 247.411 291.604 247.234C291.786 247.171 291.958 247.104 292.13 247.025C292.812 246.708 293.411 246.239 293.901 245.64C294.047 245.458 294.182 245.265 294.307 245.067C295.041 243.869 295.343 242.354 295.161 240.749C295.135 240.479 295.088 240.208 295.031 239.937L293.01 230.239L288.958 210.843C288.802 210.088 288.547 209.364 288.218 208.682C286.786 205.723 283.89 203.567 281.015 203.567H230.224C228.614 203.567 227.187 204.234 226.208 205.437C225.036 206.88 224.62 208.958 225.078 211.135ZM176.88 219.036C176.849 221.197 177.067 223.432 177.536 225.682C178.192 228.817 179.307 231.885 180.849 234.801C180.958 235.005 181.067 235.208 181.177 235.411C181.396 235.812 181.625 236.208 181.864 236.598C181.984 236.796 182.104 236.989 182.224 237.182C182.468 237.567 182.718 237.952 182.974 238.327C183.104 238.515 183.234 238.702 183.364 238.885C183.625 239.255 183.896 239.624 184.172 239.979C184.307 240.161 184.448 240.338 184.588 240.515C185.432 241.567 186.333 242.577 187.276 243.52C187.437 243.676 187.593 243.833 187.755 243.989C193.302 249.322 199.906 252.265 206.343 252.265C209.411 252.265 212.265 251.588 214.823 250.26C214.963 250.187 215.104 250.109 215.245 250.036C217.448 248.807 219.343 247.124 220.88 245.025C221.005 244.854 221.125 244.676 221.25 244.499C221.39 244.286 221.536 244.072 221.672 243.848C221.771 243.692 221.864 243.536 221.958 243.374C222.515 242.421 223.005 241.39 223.411 240.322C223.479 240.145 223.547 239.963 223.609 239.781C223.739 239.421 223.859 239.051 223.968 238.676C224.021 238.484 224.078 238.296 224.125 238.109C224.229 237.729 224.317 237.343 224.401 236.952C224.442 236.755 224.484 236.562 224.521 236.364C224.593 235.968 224.656 235.567 224.713 235.161C224.739 234.958 224.765 234.755 224.786 234.551C224.901 233.52 224.958 232.463 224.948 231.395C224.932 229.437 224.713 227.416 224.291 225.39C221.708 213.025 212.104 202.604 201.463 199.65C199.89 199.213 198.291 198.942 196.687 198.848C196.286 198.827 195.885 198.812 195.484 198.812C189.661 198.812 184.573 201.281 181.161 205.765L181 205.984C180.745 206.333 180.5 206.692 180.265 207.057C180.088 207.338 179.916 207.619 179.75 207.911C179.651 208.083 179.552 208.265 179.458 208.442C179.281 208.775 179.114 209.114 178.958 209.458C178.89 209.609 178.817 209.765 178.755 209.921C178.51 210.484 178.291 211.067 178.093 211.656C177.995 211.952 177.906 212.255 177.817 212.557C177.573 213.416 177.375 214.307 177.224 215.208L177.192 215.4C177.14 215.744 177.093 216.093 177.052 216.447C177.021 216.692 177 216.942 176.979 217.187C176.942 217.577 176.922 217.968 176.901 218.364C176.89 218.588 176.885 218.812 176.88 219.036ZM333.156 234.104L335.489 236.265C335.875 235.192 336.151 234.057 336.317 232.874C336.401 232.281 336.453 231.676 336.479 231.067C336.505 230.452 336.505 229.833 336.474 229.208H333.599C332.745 229.208 331.958 228.505 331.76 227.577L330.968 223.781C330.859 223.26 330.968 222.749 331.271 222.38C331.541 222.046 331.932 221.864 332.37 221.864H334.896C333.927 219.338 332.541 216.921 330.833 214.775L329.468 216.838C328.963 217.593 327.828 217.656 327.083 216.973L324.182 214.281C323.479 213.63 323.297 212.572 323.755 211.869L325.276 209.583C323.125 208.119 320.828 207.093 318.547 206.567L319.172 209.577C319.281 210.098 319.172 210.604 318.875 210.973C318.604 211.307 318.213 211.489 317.771 211.489H314.463C313.604 211.489 312.812 210.796 312.62 209.869L311.916 206.499C309.849 206.979 307.979 207.963 306.437 209.38L308.984 211.739C309.333 212.062 309.557 212.489 309.635 212.926C309.692 213.249 309.666 213.583 309.552 213.874C309.515 213.973 309.463 214.067 309.406 214.15L307.63 216.838C307.125 217.593 305.989 217.656 305.245 216.973L302.911 214.807C302.718 215.343 302.552 215.895 302.411 216.458C302.276 217.025 302.161 217.604 302.083 218.197C301.916 219.38 301.859 220.609 301.922 221.869H304.791C305.651 221.869 306.442 222.567 306.635 223.494L307.427 227.291C307.536 227.812 307.427 228.322 307.125 228.692C306.922 228.942 306.651 229.109 306.343 229.171C306.245 229.197 306.135 229.208 306.026 229.208H303.5C304.468 231.734 305.854 234.156 307.562 236.301L308.927 234.239C309.427 233.489 310.567 233.416 311.317 234.109L314.213 236.791C314.916 237.442 315.104 238.505 314.635 239.208L313.12 241.494C315.271 242.952 317.567 243.979 319.854 244.51L319.224 241.499C319.114 240.979 319.224 240.468 319.526 240.098C319.797 239.765 320.187 239.583 320.625 239.583H323.937C324.791 239.583 325.583 240.281 325.776 241.208L326.479 244.577C328.547 244.093 330.416 243.109 331.958 241.692L329.411 239.338C328.713 238.687 328.526 237.63 328.984 236.926L330.771 234.239C331.271 233.484 332.411 233.416 333.156 234.104ZM361.427 341.869C360.625 338.036 357.291 334.911 353.995 334.911C352.635 334.911 351.484 335.442 350.672 336.447C350.578 336.557 350.5 336.682 350.416 336.801C350.156 337.192 349.948 337.624 349.802 338.098C349.484 339.135 349.448 340.333 349.708 341.577C350.505 345.416 353.838 348.541 357.135 348.541C358.5 348.541 359.646 348.01 360.463 347.005C360.802 346.583 361.062 346.098 361.25 345.562C361.385 345.182 361.479 344.775 361.536 344.348C361.578 344.02 361.604 343.687 361.599 343.338C361.588 342.859 361.531 342.369 361.427 341.869ZM328.406 338.676C329.437 337.411 329.786 335.541 329.37 333.546C328.567 329.708 325.234 326.588 321.937 326.588C321.427 326.588 320.948 326.661 320.5 326.807C319.76 327.051 319.125 327.494 318.614 328.119C318.224 328.598 317.937 329.156 317.745 329.775C317.557 330.395 317.463 331.072 317.479 331.786C317.489 332.265 317.547 332.755 317.651 333.255C318.448 337.093 321.781 340.213 325.078 340.213C326.442 340.213 327.588 339.682 328.406 338.676ZM218.922 341.869C218.12 338.036 214.781 334.911 211.484 334.911C211.317 334.911 211.151 334.921 210.984 334.937C210.823 334.952 210.661 334.979 210.505 335.01C209.573 335.208 208.771 335.692 208.161 336.447C207.39 337.395 207 338.682 207.026 340.114C207.026 340.124 207.031 340.14 207.031 340.156C207.041 340.619 207.099 341.093 207.198 341.577C208 345.416 211.333 348.536 214.63 348.536C215.989 348.536 217.14 348.005 217.958 347.005C218.213 346.687 218.427 346.333 218.599 345.947C219.114 344.796 219.234 343.369 218.922 341.869ZM240.067 326.588C239.218 326.588 238.453 326.796 237.797 327.197C237.401 327.437 237.047 327.744 236.745 328.124C236.484 328.437 236.271 328.791 236.099 329.176C236.015 329.369 235.937 329.572 235.875 329.775C235.557 330.807 235.515 332.01 235.781 333.255C236.578 337.093 239.916 340.213 243.213 340.213C244.573 340.213 245.718 339.687 246.536 338.682C247.567 337.416 247.916 335.546 247.5 333.546C246.698 329.708 243.364 326.588 240.067 326.588ZM159.901 330.333C160.114 331.369 160.458 332.369 160.911 333.312C161.057 333.624 161.218 333.932 161.396 334.229C161.739 334.827 162.125 335.4 162.547 335.932C164.661 338.598 167.661 340.354 170.64 340.354C171.135 340.354 171.614 340.301 172.073 340.202C173.453 339.911 174.656 339.182 175.547 338.088C176.297 337.161 176.802 336.02 177.047 334.749C177.286 333.473 177.265 332.072 176.963 330.624C175.807 325.098 170.989 320.604 166.218 320.604C165.724 320.604 165.245 320.656 164.786 320.749C164.557 320.801 164.333 320.864 164.114 320.937C163.672 321.083 163.255 321.275 162.87 321.51C162.672 321.63 162.484 321.76 162.302 321.9C161.942 322.182 161.609 322.505 161.312 322.869C160.937 323.333 160.625 323.848 160.375 324.411C160.125 324.968 159.937 325.572 159.817 326.208C159.698 326.848 159.64 327.515 159.656 328.208C159.666 328.9 159.75 329.609 159.901 330.333Z" fill="#F38143"/>
<path d="M379.561 141.578C379.452 141.854 379.311 142.109 379.129 142.328C378.655 142.917 377.978 143.229 377.181 143.229C375.166 143.229 373.124 141.302 372.629 138.932C372.535 138.479 372.504 138.036 372.535 137.62C372.587 136.927 372.817 136.307 373.202 135.839C373.676 135.25 374.353 134.938 375.15 134.938C377.134 134.938 379.218 136.901 379.702 139.229C379.879 140.089 379.827 140.906 379.561 141.578ZM409.087 333.922C409.098 334.448 409.077 334.969 409.035 335.479C409.035 335.484 409.035 335.49 409.035 335.495C408.994 336.005 408.926 336.505 408.832 336.99C408.832 336.995 408.832 337 408.832 337.005C408.738 337.495 408.619 337.969 408.478 338.432C408.473 338.438 408.473 338.438 408.473 338.443C408.327 338.901 408.16 339.354 407.968 339.786C407.968 339.786 407.968 339.786 407.962 339.792C407.77 340.224 407.551 340.641 407.311 341.036C407.311 341.036 407.311 341.036 407.306 341.036C407.067 341.438 406.796 341.818 406.504 342.172V342.177C404.645 344.464 401.921 345.724 398.832 345.724C391.483 345.724 384.061 338.818 382.291 330.333C381.353 325.865 382.16 321.656 384.494 318.781C384.817 318.391 385.166 318.042 385.535 317.708C387.311 316.109 389.608 315.234 392.166 315.234C399.52 315.234 406.942 322.141 408.712 330.625C408.712 330.635 408.712 330.641 408.712 330.646C408.827 331.193 408.916 331.734 408.978 332.276C408.978 332.281 408.978 332.292 408.978 332.302C409.041 332.839 409.077 333.375 409.087 333.901C409.087 333.906 409.087 333.911 409.087 333.922ZM405.707 332.776C405.697 331.984 405.608 331.161 405.436 330.333C405.353 329.948 405.259 329.568 405.145 329.193C403.468 323.573 398.363 319.172 393.285 319.172C390.874 319.172 388.733 320.161 387.27 321.964C385.936 323.604 385.254 325.792 385.291 328.182C385.296 328.578 385.322 328.984 385.369 329.391C385.41 329.802 385.478 330.214 385.567 330.625C386.848 336.781 392.296 341.786 397.707 341.786C398.916 341.786 400.056 341.536 401.077 341.063C402.093 340.594 402.994 339.891 403.728 338.99C405.061 337.354 405.744 335.167 405.707 332.776ZM279.666 245.281C279.457 244.901 279.249 244.516 279.046 244.135C278.801 243.672 278.567 243.208 278.332 242.745C278.14 242.365 277.947 241.979 277.759 241.594C277.53 241.125 277.317 240.646 277.098 240.172C276.926 239.786 276.749 239.406 276.582 239.016C276.374 238.531 276.176 238.042 275.973 237.552C275.822 237.172 275.66 236.792 275.515 236.411C275.317 235.906 275.14 235.396 274.952 234.885C274.822 234.516 274.681 234.146 274.551 233.771C274.374 233.234 274.207 232.698 274.035 232.156C273.926 231.802 273.806 231.453 273.702 231.099C273.525 230.5 273.363 229.896 273.207 229.292C273.124 228.995 273.041 228.703 272.962 228.401C272.738 227.5 272.525 226.594 272.337 225.682C272.145 224.766 271.973 223.849 271.822 222.943C271.775 222.635 271.738 222.339 271.692 222.036C271.603 221.432 271.509 220.823 271.436 220.224C271.395 219.865 271.363 219.51 271.327 219.156C271.27 218.615 271.212 218.073 271.171 217.536C271.14 217.156 271.129 216.781 271.108 216.406C271.077 215.896 271.046 215.385 271.03 214.875C271.02 214.49 271.02 214.104 271.015 213.714C271.009 213.224 271.004 212.734 271.015 212.25C271.02 211.854 271.041 211.469 271.051 211.078C271.072 210.599 271.087 210.125 271.119 209.651C271.145 209.26 271.181 208.87 271.218 208.479C271.254 208.016 271.296 207.552 271.348 207.094C271.395 206.703 271.447 206.318 271.504 205.927C271.546 205.62 271.577 205.307 271.624 205.005H240.015C240.16 205.266 240.301 205.531 240.447 205.797C240.655 206.177 240.863 206.557 241.072 206.943C241.311 207.401 241.546 207.865 241.78 208.328C241.973 208.714 242.171 209.099 242.353 209.484C242.582 209.953 242.796 210.427 243.015 210.901C243.186 211.286 243.363 211.672 243.535 212.063C243.744 212.547 243.942 213.031 244.134 213.516C244.291 213.901 244.452 214.286 244.603 214.672C244.796 215.172 244.978 215.677 245.16 216.182C245.296 216.557 245.431 216.932 245.561 217.313C245.744 217.839 245.91 218.375 246.077 218.911C246.186 219.266 246.306 219.62 246.41 219.979C246.587 220.573 246.749 221.172 246.905 221.771C246.988 222.073 247.077 222.37 247.15 222.672C247.379 223.573 247.587 224.479 247.78 225.391C247.968 226.307 248.14 227.219 248.291 228.13C248.337 228.432 248.374 228.729 248.421 229.031C248.515 229.635 248.603 230.245 248.676 230.844C248.723 231.203 248.749 231.557 248.785 231.911C248.843 232.453 248.9 232.995 248.942 233.536C248.973 233.911 248.983 234.286 249.004 234.661C249.035 235.172 249.067 235.688 249.082 236.193C249.093 236.583 249.093 236.964 249.098 237.349C249.103 237.839 249.108 238.333 249.098 238.823C249.093 239.214 249.072 239.599 249.056 239.99C249.041 240.469 249.025 240.943 248.994 241.422C248.968 241.813 248.931 242.198 248.895 242.589C248.853 243.052 248.817 243.516 248.765 243.979C248.718 244.37 248.66 244.755 248.608 245.146C248.567 245.453 248.535 245.766 248.488 246.073H280.098C279.947 245.813 279.811 245.542 279.666 245.281ZM396.89 287.599H149.436C146.337 287.599 143.212 284.667 142.457 281.063L115.15 150.255C114.759 148.38 115.087 146.63 116.051 145.448C116.811 144.51 117.89 144.01 119.16 144.01H366.613C367.39 144.01 368.166 144.198 368.905 144.526C370.254 145.13 371.483 146.234 372.369 147.609C372.942 148.495 373.369 149.49 373.587 150.547L400.9 281.354C401.093 282.292 401.108 283.198 400.957 284.016C400.801 284.839 400.478 285.573 399.994 286.161C399.233 287.099 398.16 287.599 396.89 287.599ZM356.015 248.198L346.494 202.583C345.468 197.682 341.124 193.693 336.806 193.693H170.306C168.369 193.693 166.65 194.495 165.468 195.943C164.046 197.698 163.546 200.224 164.098 202.875L173.624 248.495C174.645 253.391 178.988 257.375 183.301 257.375H349.801C351.744 257.375 353.462 256.578 354.645 255.125C356.072 253.37 356.567 250.849 356.015 248.198ZM373.317 179.682L368.791 157.99C367.947 153.948 364.353 150.661 360.78 150.661H128.363C126.744 150.661 125.306 151.328 124.322 152.542C123.285 153.813 122.837 155.578 123.051 157.464C123.077 157.703 123.119 157.948 123.166 158.193C123.171 158.224 123.176 158.25 123.181 158.281L127.712 179.979C128.556 184.016 132.145 187.302 135.712 187.302H368.134C369.754 187.302 371.192 186.635 372.176 185.422C373.358 183.969 373.775 181.875 373.317 179.682ZM328.374 250.438C328.072 250.505 327.77 250.557 327.462 250.609C326.541 250.755 325.598 250.828 324.629 250.828C323.869 250.828 323.103 250.781 322.348 250.698C321.587 250.609 320.827 250.479 320.072 250.313C318.942 250.057 317.822 249.714 316.718 249.281C315.983 248.995 315.254 248.672 314.535 248.318C306.275 244.203 299.332 235.469 297.228 225.391C295.681 217.99 297.03 210.995 300.926 206.203C304.046 202.359 308.608 200.245 313.77 200.245C319.858 200.245 325.973 203.099 330.936 207.703C331.249 207.995 331.551 208.286 331.853 208.589C332.754 209.495 333.613 210.453 334.421 211.469C334.692 211.807 334.952 212.151 335.212 212.5C338.046 216.349 340.16 220.859 341.166 225.682C342.712 233.089 341.363 240.083 337.468 244.875C335.129 247.755 331.978 249.661 328.374 250.438ZM336.291 237.964C336.337 237.906 336.395 237.859 336.421 237.786C336.572 237.448 336.712 237.094 336.837 236.74C336.916 236.531 336.978 236.313 337.046 236.099C337.561 234.479 337.858 232.734 337.921 230.917C337.947 230.099 337.926 229.271 337.858 228.432C337.827 228.057 337.52 227.771 337.145 227.771H333.598C333.468 227.771 333.223 227.568 333.166 227.286L332.374 223.49C332.374 223.484 332.374 223.484 332.374 223.479C332.353 223.365 332.374 223.302 332.369 223.297H335.91C336.145 223.297 336.358 223.188 336.494 223C336.561 222.906 336.603 222.802 336.619 222.688C336.64 222.578 336.629 222.464 336.593 222.354C335.468 219.021 333.645 215.823 331.317 213.104C331.171 212.932 330.952 212.839 330.728 212.854C330.504 212.87 330.296 212.99 330.171 213.177L329.655 213.958L328.285 216.031C328.238 216.031 328.15 216 328.056 215.917L325.155 213.234C324.936 213.026 324.9 212.74 324.952 212.661L326.858 209.792C327.072 209.474 326.988 209.042 326.681 208.813C323.905 206.807 320.853 205.479 317.848 204.969C317.811 204.964 317.775 204.953 317.738 204.943C317.712 204.943 317.681 204.943 317.65 204.943C317.624 204.943 317.593 204.938 317.567 204.938C317.39 204.953 317.228 205.026 317.103 205.156C316.983 205.286 316.916 205.453 316.905 205.625C316.905 205.682 316.91 205.74 316.921 205.797L317.77 209.87C317.775 209.885 317.77 209.891 317.775 209.906C317.78 209.943 317.78 209.984 317.78 210.005C317.775 210.036 317.77 210.057 317.77 210.057H314.462C314.363 210.057 314.207 209.948 314.108 209.781C314.072 209.719 314.041 209.651 314.025 209.573L313.176 205.505C313.098 205.125 312.733 204.88 312.348 204.948C312.233 204.969 312.124 204.995 312.009 205.021C310.212 205.38 308.541 206.078 307.056 207.083C306.28 207.609 305.546 208.208 304.884 208.896C304.749 209.036 304.676 209.224 304.681 209.417C304.686 209.604 304.77 209.792 304.91 209.922L308.009 212.786C308.228 212.99 308.265 213.276 308.212 213.359L307.541 214.37L306.447 216.031C306.4 216.031 306.311 216 306.218 215.917L303.119 213.047C302.957 212.896 302.738 212.833 302.52 212.865C302.509 212.87 302.499 212.87 302.483 212.87C302.259 212.917 302.067 213.073 301.973 213.281C300.765 216.036 300.27 219.271 300.535 222.641C300.567 223.01 300.874 223.297 301.249 223.297H304.796C304.931 223.297 305.176 223.505 305.233 223.786L306.025 227.578C306.051 227.703 306.025 227.771 306.03 227.771H302.483C302.254 227.771 302.035 227.885 301.9 228.073C301.765 228.26 301.733 228.5 301.806 228.719C302.087 229.552 302.41 230.375 302.78 231.188C303.509 232.813 304.405 234.375 305.436 235.844C305.952 236.578 306.499 237.286 307.082 237.969C307.228 238.135 307.447 238.234 307.671 238.214C307.895 238.203 308.103 238.083 308.223 237.896L310.113 235.036C310.16 235.036 310.249 235.068 310.343 235.156L313.244 237.844C313.353 237.943 313.416 238.063 313.447 238.172C313.447 238.182 313.447 238.188 313.447 238.198C313.468 238.292 313.468 238.375 313.442 238.411L312.369 240.031L311.541 241.281C311.488 241.359 311.452 241.448 311.436 241.536C311.384 241.802 311.483 242.089 311.718 242.255C314.525 244.286 317.619 245.625 320.66 246.125C320.895 246.167 321.129 246.083 321.296 245.917C321.457 245.745 321.525 245.505 321.478 245.271L321.14 243.641L320.629 241.208C320.619 241.167 320.624 241.141 320.624 241.115C320.624 241.099 320.619 241.078 320.619 241.068C320.624 241.031 320.629 241.016 320.629 241.016H323.936C324.072 241.016 324.317 241.219 324.374 241.5L325.223 245.568C325.296 245.901 325.593 246.135 325.926 246.135C325.968 246.135 326.009 246.13 326.051 246.125C328.931 245.615 331.515 244.25 333.515 242.172C333.582 242.104 333.634 242.021 333.666 241.932C333.702 241.849 333.718 241.75 333.718 241.656C333.712 241.464 333.629 241.281 333.483 241.151L330.39 238.286C330.171 238.078 330.134 237.792 330.181 237.714L331.957 235.042C331.999 235.042 332.087 235.073 332.181 235.156L335.28 238.026C335.369 238.104 335.473 238.161 335.582 238.193C335.692 238.219 335.801 238.224 335.916 238.203C336.067 238.172 336.186 238.078 336.291 237.964ZM111.384 139.229C110.89 136.865 108.848 134.943 106.837 134.943C106.035 134.943 105.358 135.25 104.884 135.839C104.343 136.5 104.119 137.448 104.238 138.484C104.254 138.635 104.28 138.786 104.311 138.938C104.806 141.302 106.848 143.229 108.869 143.229C109.666 143.229 110.337 142.922 110.817 142.333C110.968 142.146 111.098 141.932 111.197 141.698C111.202 141.693 111.202 141.693 111.202 141.688C111.265 141.547 111.311 141.401 111.353 141.25C111.52 140.646 111.535 139.953 111.384 139.229ZM178.322 219.542C178.322 218.396 178.39 217.276 178.53 216.188C178.541 216.109 178.551 216.031 178.561 215.953C178.603 215.661 178.655 215.375 178.702 215.089C178.738 214.901 178.775 214.714 178.817 214.526C178.858 214.313 178.905 214.099 178.952 213.891C179.004 213.682 179.056 213.474 179.113 213.266C179.171 213.052 179.228 212.839 179.291 212.63C179.327 212.516 179.363 212.396 179.4 212.281C179.436 212.161 179.483 212.042 179.525 211.922C179.671 211.49 179.832 211.063 180.009 210.646C180.056 210.531 180.098 210.417 180.15 210.302C180.181 210.234 180.207 210.167 180.238 210.094C180.301 209.964 180.369 209.833 180.431 209.703C180.53 209.505 180.624 209.302 180.723 209.115C180.744 209.073 180.765 209.036 180.785 209C180.9 208.781 181.025 208.573 181.145 208.365C181.228 208.224 181.311 208.083 181.4 207.943C181.478 207.823 181.556 207.703 181.634 207.589C181.775 207.37 181.921 207.156 182.072 206.953C182.202 206.771 182.337 206.589 182.478 206.411C182.587 206.276 182.692 206.141 182.801 206.01C182.879 205.917 182.962 205.828 183.041 205.734C183.166 205.589 183.296 205.448 183.426 205.313C183.509 205.219 183.598 205.125 183.686 205.036C183.811 204.911 183.942 204.786 184.072 204.661C184.171 204.568 184.27 204.474 184.374 204.38C184.494 204.271 184.613 204.167 184.738 204.063C184.853 203.964 184.973 203.865 185.093 203.771C185.202 203.682 185.317 203.594 185.431 203.51C185.567 203.406 185.702 203.302 185.843 203.203C185.942 203.135 186.046 203.068 186.145 203C186.301 202.891 186.457 202.792 186.619 202.693C186.707 202.635 186.796 202.583 186.89 202.531C187.061 202.427 187.238 202.323 187.416 202.229C187.494 202.182 187.577 202.146 187.655 202.104C187.848 202.005 188.041 201.906 188.238 201.813C188.306 201.781 188.379 201.75 188.447 201.719C188.655 201.625 188.863 201.531 189.077 201.448C189.145 201.422 189.207 201.396 189.275 201.375C189.494 201.286 189.712 201.208 189.936 201.13C189.999 201.109 190.067 201.094 190.134 201.073C190.358 201 190.582 200.927 190.811 200.865C190.884 200.844 190.957 200.828 191.03 200.807C191.254 200.75 191.478 200.693 191.707 200.646C191.791 200.625 191.884 200.609 191.973 200.594C192.186 200.552 192.4 200.505 192.619 200.474C192.733 200.453 192.848 200.443 192.957 200.427C193.155 200.396 193.353 200.37 193.551 200.349C193.712 200.333 193.879 200.323 194.046 200.307C194.197 200.297 194.353 200.281 194.504 200.271C194.827 200.255 195.155 200.245 195.483 200.245C197.004 200.245 198.53 200.427 200.035 200.766C200.791 200.932 201.541 201.146 202.285 201.391C211.942 204.615 220.504 214.286 222.884 225.682C222.983 226.156 223.067 226.625 223.145 227.094C223.176 227.286 223.197 227.479 223.223 227.672C223.259 227.943 223.301 228.214 223.332 228.484C223.363 228.75 223.379 229.01 223.4 229.276C223.421 229.469 223.442 229.661 223.452 229.854C223.468 230.151 223.478 230.448 223.488 230.74C223.494 230.896 223.499 231.052 223.504 231.208C223.509 231.469 223.504 231.729 223.499 231.995C223.494 232.203 223.494 232.411 223.483 232.625C223.473 232.88 223.457 233.135 223.442 233.385C223.426 233.594 223.41 233.802 223.39 234.01C223.285 235.109 223.108 236.182 222.858 237.219C222.832 237.333 222.806 237.453 222.775 237.568C222.697 237.88 222.608 238.188 222.515 238.49C222.473 238.63 222.426 238.771 222.384 238.906C222.285 239.198 222.192 239.49 222.082 239.771C222.082 239.781 222.077 239.786 222.077 239.797C222.067 239.823 222.056 239.844 222.046 239.87C221.879 240.297 221.697 240.719 221.504 241.135C221.452 241.25 221.39 241.365 221.332 241.484C221.176 241.807 221.004 242.125 220.832 242.438C220.744 242.594 220.655 242.755 220.561 242.906C220.541 242.943 220.52 242.984 220.494 243.021C220.327 243.297 220.145 243.563 219.962 243.828C219.91 243.906 219.858 243.979 219.801 244.057C219.744 244.141 219.681 244.219 219.619 244.297C218.962 245.177 218.238 245.984 217.447 246.698C217.4 246.74 217.358 246.781 217.317 246.818C216.947 247.141 216.561 247.448 216.166 247.734C216.082 247.797 215.999 247.859 215.91 247.922C215.535 248.182 215.15 248.422 214.754 248.651C214.093 249.031 213.41 249.365 212.702 249.646C212.697 249.651 212.697 249.651 212.697 249.651C212.421 249.76 212.14 249.859 211.858 249.953C211.848 249.958 211.843 249.958 211.837 249.964C211.561 250.052 211.28 250.141 210.994 250.219C210.978 250.224 210.962 250.224 210.947 250.229C210.671 250.302 210.395 250.37 210.113 250.432C210.082 250.438 210.046 250.448 210.009 250.453C209.749 250.51 209.483 250.557 209.212 250.604C209.145 250.615 209.077 250.62 209.009 250.63C208.77 250.667 208.53 250.698 208.291 250.724C208.155 250.74 208.02 250.75 207.884 250.76C207.702 250.776 207.52 250.792 207.332 250.802C207.004 250.823 206.676 250.828 206.337 250.828C202.546 250.828 198.738 249.724 195.212 247.776C195.197 247.766 195.181 247.76 195.171 247.75C194.926 247.62 194.686 247.474 194.447 247.333C194.317 247.25 194.181 247.177 194.046 247.094C193.905 247.005 193.765 246.911 193.624 246.823C193.384 246.672 193.15 246.521 192.916 246.359C192.863 246.323 192.806 246.281 192.754 246.245C191.374 245.286 190.03 244.193 188.744 242.958C188.593 242.807 188.442 242.661 188.291 242.51C187.384 241.604 186.515 240.63 185.707 239.62C185.572 239.453 185.436 239.281 185.306 239.109C185.041 238.766 184.78 238.411 184.53 238.057C184.405 237.88 184.28 237.698 184.155 237.521C183.905 237.156 183.666 236.792 183.431 236.422C183.327 236.255 183.223 236.083 183.124 235.917C183.103 235.885 183.087 235.854 183.067 235.828C182.863 235.484 182.66 235.135 182.462 234.781C182.421 234.708 182.379 234.63 182.343 234.557C182.265 234.417 182.186 234.276 182.113 234.135C181.791 233.526 181.488 232.906 181.207 232.281C181.155 232.167 181.098 232.052 181.046 231.938C180.952 231.719 180.863 231.5 180.77 231.281C180.697 231.104 180.624 230.927 180.551 230.75C180.478 230.557 180.405 230.365 180.332 230.172C180.254 229.964 180.176 229.75 180.103 229.542C180.041 229.365 179.978 229.188 179.921 229.01C179.843 228.776 179.77 228.542 179.697 228.302C179.645 228.146 179.593 227.984 179.546 227.823C179.468 227.552 179.395 227.281 179.322 227.005C179.291 226.875 179.254 226.745 179.218 226.615C179.119 226.208 179.02 225.802 178.936 225.391C178.936 225.38 178.931 225.37 178.931 225.359C178.827 224.87 178.744 224.38 178.666 223.891C178.64 223.714 178.619 223.536 178.593 223.359C178.546 223.047 178.504 222.729 178.473 222.417C178.452 222.198 178.431 221.979 178.416 221.76C178.39 221.495 178.374 221.229 178.358 220.969C178.343 220.724 178.332 220.484 178.327 220.245C178.322 220.01 178.322 219.776 178.322 219.542ZM182.249 222.641C182.28 223.01 182.587 223.297 182.962 223.297H186.509C186.645 223.297 186.89 223.505 186.947 223.786L187.738 227.578C187.765 227.703 187.738 227.771 187.738 227.771H184.197C183.962 227.771 183.749 227.885 183.613 228.073C183.515 228.214 183.468 228.38 183.483 228.552C183.488 228.609 183.499 228.661 183.52 228.719C183.66 229.135 183.811 229.547 183.973 229.964C184.296 230.786 184.666 231.599 185.067 232.391C185.473 233.188 185.921 233.969 186.4 234.724C187.119 235.859 187.921 236.948 188.796 237.964C188.942 238.135 189.16 238.234 189.384 238.214C189.608 238.203 189.811 238.083 189.936 237.896L191.827 235.036C191.848 235.036 191.884 235.047 191.921 235.063C191.962 235.083 192.009 235.115 192.056 235.156L194.957 237.839C195.176 238.042 195.207 238.328 195.155 238.411L194.077 240.031L193.254 241.276C193.202 241.359 193.166 241.443 193.15 241.536C193.093 241.802 193.197 242.089 193.431 242.255C196.238 244.286 199.332 245.625 202.374 246.125C202.603 246.161 202.843 246.083 203.004 245.911C203.129 245.786 203.197 245.62 203.202 245.443C203.207 245.385 203.202 245.328 203.192 245.271L202.343 241.203C202.327 241.146 202.327 241.099 202.332 241.063C202.332 241.031 202.337 241.016 202.337 241.016H205.65C205.785 241.016 206.025 241.219 206.087 241.5L206.936 245.563C207.004 245.901 207.301 246.135 207.634 246.135C207.676 246.135 207.718 246.13 207.759 246.125C210.645 245.615 213.223 244.25 215.228 242.172C215.358 242.036 215.431 241.849 215.426 241.656C215.421 241.464 215.337 241.281 215.197 241.151L212.098 238.286C211.936 238.13 211.874 237.932 211.874 237.807C211.874 237.766 211.884 237.729 211.895 237.714L213.426 235.406L213.666 235.042C213.712 235.042 213.801 235.068 213.895 235.156L216.994 238.026C217.035 238.063 217.082 238.099 217.129 238.125C217.233 238.182 217.343 238.214 217.457 238.219C217.509 238.219 217.567 238.214 217.624 238.203C217.853 238.151 218.041 238 218.134 237.786C219.348 235.031 219.843 231.797 219.577 228.432C219.546 228.057 219.233 227.771 218.858 227.771H215.317C215.249 227.771 215.155 227.719 215.067 227.635C214.983 227.547 214.905 227.427 214.879 227.286L214.082 223.49C214.061 223.37 214.082 223.302 214.082 223.297H217.629C217.858 223.297 218.072 223.188 218.207 223C218.343 222.813 218.379 222.573 218.306 222.354C217.176 219.016 215.353 215.818 213.025 213.104C212.988 213.063 212.952 213.026 212.905 212.99C212.791 212.906 212.65 212.865 212.509 212.859C212.488 212.859 212.462 212.854 212.436 212.854C212.212 212.87 212.009 212.99 211.884 213.177L210.983 214.536L209.994 216.031C209.947 216.031 209.858 216 209.77 215.917L207.166 213.51L206.869 213.229C206.702 213.078 206.64 212.875 206.645 212.755C206.645 212.745 206.645 212.745 206.645 212.734C206.65 212.703 206.655 212.677 206.666 212.656L208.567 209.792C208.78 209.469 208.702 209.036 208.39 208.813C207.843 208.417 207.285 208.057 206.723 207.714C204.4 206.313 201.936 205.365 199.504 204.953C199.488 204.953 199.468 204.948 199.452 204.943C199.285 204.917 199.119 204.953 198.978 205.031C198.921 205.068 198.863 205.104 198.817 205.156C198.655 205.328 198.582 205.568 198.634 205.797L199.483 209.87C199.509 209.99 199.483 210.052 199.483 210.057H196.176C196.041 210.057 195.796 209.854 195.738 209.573L194.89 205.505C194.806 205.125 194.442 204.88 194.061 204.948C193.91 204.969 193.77 205.01 193.619 205.042C191.78 205.427 190.077 206.161 188.572 207.219C187.869 207.714 187.202 208.266 186.598 208.896C186.462 209.036 186.39 209.224 186.395 209.417C186.4 209.604 186.483 209.792 186.624 209.922L189.723 212.786C189.942 212.99 189.978 213.281 189.926 213.359L189.285 214.328L188.155 216.031C188.108 216.031 188.025 216 187.931 215.917L184.832 213.047C184.66 212.891 184.426 212.823 184.202 212.87C184.197 212.87 184.197 212.87 184.197 212.87C183.968 212.917 183.78 213.073 183.686 213.281C182.478 216.036 181.978 219.271 182.249 222.641ZM383.457 356.245H191.166L191.452 309.125C191.478 305.25 193.89 302.547 197.327 302.547H354.64C358.212 302.547 361.905 305.365 363.613 309.401L383.457 356.245ZM220.322 341.578C219.39 337.115 215.426 333.479 211.483 333.479C209.707 333.479 208.129 334.208 207.046 335.542C206.723 335.943 206.452 336.385 206.233 336.865C205.577 338.302 205.416 340.057 205.796 341.87C206.728 346.339 210.692 349.974 214.629 349.974C216.41 349.974 217.988 349.24 219.067 347.906C220.369 346.307 220.827 344 220.322 341.578ZM249.103 335.042C249.098 334.458 249.03 333.859 248.905 333.255C247.968 328.786 244.009 325.156 240.067 325.156C239.848 325.156 239.624 325.167 239.41 325.188C237.9 325.344 236.577 326.052 235.629 327.219C235.468 327.417 235.317 327.63 235.181 327.849C234.957 328.208 234.785 328.599 234.634 329.005C234.572 329.182 234.515 329.359 234.462 329.542C234.265 330.24 234.166 330.984 234.176 331.76C234.181 332.344 234.249 332.943 234.374 333.547C234.775 335.458 235.733 337.219 236.999 338.604C237.03 338.635 237.056 338.667 237.082 338.698C237.509 339.156 237.978 339.563 238.462 339.927C239.046 340.359 239.66 340.734 240.301 341.01C241.004 341.318 241.738 341.526 242.473 341.609C242.718 341.635 242.968 341.651 243.212 341.651C243.879 341.651 244.52 341.547 245.113 341.349C245.707 341.146 246.259 340.854 246.749 340.469C247.077 340.214 247.379 339.917 247.645 339.583C248.624 338.385 249.124 336.786 249.103 335.042ZM330.775 333.255C329.843 328.786 325.874 325.156 321.936 325.156C321.27 325.156 320.629 325.255 320.035 325.458C319.442 325.656 318.89 325.948 318.4 326.333C318.072 326.589 317.77 326.885 317.499 327.219C316.197 328.823 315.738 331.13 316.244 333.547C316.947 336.896 319.348 339.781 322.171 341.01C322.874 341.318 323.603 341.526 324.343 341.609C324.587 341.635 324.832 341.651 325.077 341.651C326.858 341.651 328.436 340.917 329.52 339.583C330.822 337.979 331.28 335.677 330.775 333.255ZM362.832 341.578C361.9 337.115 357.931 333.479 353.994 333.479C352.212 333.479 350.64 334.208 349.556 335.542C348.254 337.146 347.796 339.453 348.301 341.87C349.233 346.339 353.197 349.974 357.134 349.974C358.916 349.974 360.494 349.24 361.577 347.911C362.879 346.307 363.337 344 362.832 341.578ZM157.421 318.786C159.285 316.495 162.009 315.234 165.098 315.234C172.447 315.234 179.869 322.141 181.645 330.625C182.572 335.094 181.77 339.302 179.436 342.172C177.577 344.464 174.853 345.724 171.765 345.724C164.41 345.724 156.988 338.823 155.218 330.333C154.285 325.865 155.087 321.656 157.421 318.786ZM158.296 329.391C158.343 329.802 158.405 330.214 158.494 330.625C159.056 333.318 160.416 335.792 162.218 337.724C164.541 340.203 167.598 341.786 170.64 341.786C171.546 341.786 172.416 341.646 173.223 341.38C173.759 341.198 174.27 340.964 174.749 340.667C174.988 340.521 175.218 340.365 175.442 340.188C175.884 339.844 176.291 339.443 176.66 338.99C177.327 338.172 177.827 337.219 178.16 336.167C178.718 334.417 178.796 332.406 178.363 330.333C177.077 324.177 171.629 319.172 166.218 319.172C163.801 319.172 161.666 320.161 160.202 321.969C158.645 323.88 157.973 326.536 158.296 329.391ZM149.692 340.214C148.89 340.214 148.212 340.521 147.738 341.109C147.119 341.87 146.91 342.995 147.166 344.208C147.66 346.578 149.702 348.5 151.718 348.5C152.52 348.5 153.192 348.193 153.666 347.604C154.285 346.849 154.494 345.719 154.238 344.5C153.744 342.135 151.702 340.214 149.692 340.214ZM415.483 344.208C415.978 346.578 418.02 348.505 420.035 348.505C420.832 348.505 421.509 348.193 421.983 347.604C422.603 346.849 422.811 345.719 422.556 344.505C422.072 342.177 419.988 340.214 418.004 340.214C417.207 340.214 416.53 340.526 416.056 341.109C415.436 341.865 415.228 342.995 415.483 344.208Z" fill="#FFABDA"/>
<mask id="mask1_512_465" style="mask-type:luminance" maskUnits="userSpaceOnUse" x="69" y="125" width="362" height="250">
<path d="M69.6562 125.725H430.656V374.667H69.6562V125.725Z" fill="white"/>
</mask>
<g mask="url(#mask1_512_465)">
<path d="M346.496 202.585C345.47 197.684 341.126 193.694 336.808 193.694H170.308C168.371 193.694 166.652 194.496 165.47 195.944C164.048 197.699 163.548 200.225 164.1 202.876L173.626 248.496C174.647 253.392 178.991 257.376 183.303 257.376H349.803C351.746 257.376 353.465 256.579 354.647 255.126C356.069 253.371 356.569 250.85 356.017 248.199L346.496 202.585ZM353.532 254.22C352.621 255.35 351.329 255.944 349.803 255.944H183.303C179.631 255.944 175.918 252.47 175.027 248.199L165.506 202.585C165.043 200.355 165.433 198.267 166.584 196.85C167.496 195.725 168.788 195.132 170.308 195.132H336.808C340.485 195.132 344.199 198.605 345.09 202.876L354.616 248.496C355.079 250.72 354.683 252.803 353.532 254.22ZM368.788 157.991C367.949 153.949 364.355 150.663 360.782 150.663H128.366C126.746 150.663 125.308 151.329 124.324 152.543C123.288 153.814 122.84 155.579 123.053 157.465C123.079 157.704 123.121 157.949 123.168 158.194C123.173 158.225 123.178 158.251 123.183 158.283L127.715 179.98C128.558 184.017 132.147 187.303 135.715 187.303H368.136C369.756 187.303 371.194 186.637 372.178 185.423C373.36 183.97 373.777 181.876 373.319 179.684L368.788 157.991ZM368.136 185.871H135.715C132.788 185.871 129.829 183.095 129.116 179.684L124.59 157.991C124.22 156.22 124.527 154.564 125.439 153.444C126.152 152.564 127.168 152.095 128.366 152.095H360.782C363.715 152.095 366.673 154.871 367.386 158.283L371.918 179.975C372.282 181.746 371.975 183.402 371.064 184.522C370.35 185.402 369.334 185.871 368.136 185.871ZM336.423 237.788C336.574 237.449 336.715 237.095 336.84 236.741C336.918 236.533 336.98 236.314 337.048 236.1C337.564 234.48 337.86 232.736 337.923 230.918C337.949 230.1 337.928 229.272 337.86 228.434C337.829 228.059 337.522 227.772 337.147 227.772H333.6C333.47 227.772 333.225 227.569 333.168 227.288L332.376 223.491C332.376 223.486 332.376 223.486 332.376 223.48C332.355 223.366 332.376 223.303 332.371 223.298H335.913C336.147 223.298 336.36 223.189 336.496 223.001C336.564 222.908 336.605 222.798 336.621 222.689C336.642 222.579 336.631 222.465 336.595 222.355C335.47 219.022 333.647 215.824 331.319 213.105C331.173 212.934 330.954 212.84 330.73 212.855C330.506 212.871 330.298 212.991 330.173 213.178L329.657 213.96L328.288 216.033C328.241 216.033 328.152 216.001 328.058 215.918L325.157 213.23C324.939 213.027 324.902 212.741 324.954 212.663L326.86 209.793C327.074 209.47 326.991 209.043 326.683 208.814C323.907 206.809 320.855 205.48 317.85 204.97C317.814 204.96 317.777 204.954 317.741 204.944C317.715 204.939 317.683 204.944 317.652 204.944C317.626 204.939 317.595 204.939 317.569 204.939C317.392 204.954 317.23 205.027 317.105 205.158C316.985 205.283 316.918 205.454 316.907 205.626C316.907 205.684 316.913 205.741 316.923 205.798L317.772 209.871C317.777 209.887 317.772 209.892 317.777 209.902C317.782 209.944 317.782 209.986 317.782 210.007C317.777 210.038 317.772 210.053 317.772 210.059H314.465C314.366 210.059 314.209 209.949 314.11 209.777C314.074 209.72 314.043 209.652 314.027 209.574L313.178 205.507C313.1 205.126 312.735 204.882 312.35 204.944C312.235 204.965 312.126 204.996 312.011 205.022C310.215 205.382 308.543 206.079 307.058 207.079C306.282 207.605 305.548 208.21 304.886 208.897C304.751 209.038 304.678 209.225 304.683 209.413C304.689 209.605 304.772 209.788 304.913 209.923L308.011 212.788C308.23 212.991 308.267 213.277 308.215 213.361L307.543 214.371L306.449 216.033C306.402 216.033 306.314 216.001 306.22 215.918L303.121 213.048C302.959 212.897 302.741 212.835 302.522 212.866C302.511 212.871 302.501 212.866 302.485 212.871C302.261 212.918 302.069 213.069 301.975 213.283C300.767 216.038 300.272 219.272 300.538 222.642C300.569 223.012 300.876 223.298 301.251 223.298H304.798C304.933 223.298 305.178 223.501 305.235 223.783L306.027 227.579C306.053 227.704 306.027 227.772 306.032 227.772H302.485C302.256 227.772 302.038 227.887 301.902 228.069C301.767 228.262 301.735 228.501 301.808 228.72C302.09 229.553 302.413 230.376 302.782 231.189C303.511 232.809 304.407 234.376 305.439 235.845C305.954 236.579 306.501 237.288 307.084 237.965C307.23 238.137 307.449 238.236 307.673 238.215C307.897 238.204 308.105 238.085 308.225 237.897L310.116 235.038C310.163 235.038 310.251 235.069 310.345 235.158L313.246 237.84C313.355 237.944 313.418 238.064 313.449 238.173C313.449 238.184 313.449 238.189 313.449 238.199C313.47 238.293 313.47 238.376 313.444 238.413L312.371 240.033L311.543 241.277C311.491 241.361 311.454 241.444 311.439 241.538C311.386 241.803 311.485 242.09 311.72 242.257C314.527 244.288 317.621 245.626 320.663 246.126C320.897 246.163 321.131 246.085 321.298 245.913C321.459 245.746 321.527 245.507 321.48 245.272L321.142 243.642L320.631 241.204C320.621 241.168 320.626 241.142 320.626 241.111C320.626 241.1 320.621 241.074 320.621 241.064C320.626 241.033 320.631 241.017 320.631 241.017H323.939C324.074 241.017 324.319 241.22 324.376 241.501L325.225 245.564C325.298 245.902 325.595 246.137 325.928 246.137C325.97 246.137 326.011 246.132 326.053 246.126C328.933 245.616 331.517 244.251 333.517 242.173C333.584 242.105 333.636 242.022 333.668 241.934C333.704 241.845 333.72 241.751 333.72 241.658C333.715 241.465 333.631 241.283 333.485 241.152L330.392 238.283C330.173 238.079 330.136 237.793 330.183 237.715L331.959 235.038C332.001 235.038 332.09 235.069 332.183 235.158L335.282 238.027C335.371 238.105 335.475 238.163 335.584 238.194C335.694 238.22 335.803 238.225 335.918 238.204C336.069 238.173 336.194 238.079 336.293 237.965C336.34 237.908 336.397 237.861 336.423 237.788ZM328.985 236.923C328.527 237.626 328.715 238.684 329.413 239.335L331.959 241.689C330.418 243.105 328.548 244.095 326.48 244.574L325.777 241.204C325.584 240.283 324.793 239.579 323.939 239.579H320.626C320.189 239.579 319.798 239.767 319.527 240.095C319.225 240.465 319.116 240.975 319.225 241.501L319.855 244.507C317.569 243.98 315.272 242.949 313.126 241.491L314.636 239.204C315.105 238.501 314.918 237.439 314.215 236.788L311.319 234.105C310.569 233.418 309.428 233.486 308.933 234.236L307.564 236.298C305.855 234.152 304.47 231.73 303.506 229.204H306.027C306.136 229.204 306.246 229.194 306.35 229.173C306.657 229.105 306.928 228.939 307.131 228.689C307.428 228.319 307.538 227.809 307.428 227.288L306.636 223.491C306.444 222.564 305.652 221.866 304.793 221.866H301.923C301.866 220.611 301.918 219.376 302.084 218.194C302.168 217.6 302.277 217.022 302.413 216.454C302.553 215.892 302.72 215.34 302.913 214.809L305.246 216.97C305.991 217.652 307.126 217.59 307.631 216.84L309.407 214.152C309.465 214.064 309.517 213.97 309.553 213.871C309.668 213.579 309.694 213.251 309.636 212.923C309.558 212.491 309.34 212.059 308.985 211.736L306.439 209.382C307.98 207.965 309.855 206.98 311.918 206.496L312.621 209.866C312.814 210.793 313.605 211.491 314.465 211.491H317.772C318.215 211.491 318.605 211.303 318.876 210.97C319.173 210.605 319.282 210.095 319.178 209.574L318.548 206.564C320.834 207.09 323.131 208.121 325.277 209.579L323.756 211.866C323.298 212.569 323.485 213.626 324.183 214.283L327.09 216.97C327.834 217.652 328.965 217.59 329.47 216.835L330.84 214.772C332.543 216.918 333.928 219.34 334.897 221.861H332.371C331.933 221.861 331.543 222.048 331.272 222.376C330.975 222.746 330.866 223.257 330.97 223.783L331.767 227.579C331.959 228.507 332.751 229.204 333.605 229.204H336.475C336.506 229.829 336.511 230.454 336.48 231.064C336.454 231.678 336.402 232.283 336.319 232.871C336.152 234.053 335.876 235.194 335.491 236.262L333.157 234.105C332.413 233.413 331.272 233.48 330.772 234.236L328.985 236.923ZM427.913 354.246C427.954 354.194 427.991 354.132 428.032 354.079C428.194 353.871 428.345 353.652 428.491 353.428C428.631 353.22 428.756 353.001 428.881 352.777C428.949 352.652 429.011 352.533 429.074 352.408C429.418 351.736 429.683 351.017 429.892 350.267C429.913 350.173 429.939 350.079 429.959 349.986C430.058 349.574 430.142 349.158 430.199 348.725C430.22 348.59 430.241 348.454 430.256 348.319C430.282 348.105 430.298 347.887 430.308 347.668C430.324 347.434 430.334 347.194 430.334 346.954C430.34 346.783 430.345 346.605 430.34 346.428C430.329 346.048 430.303 345.663 430.267 345.277C430.251 345.152 430.235 345.022 430.22 344.897C430.168 344.454 430.1 344.012 430.006 343.564L387.423 139.585C387.017 137.626 386.267 135.772 385.272 134.085C382.381 129.194 377.381 125.762 372.407 125.762H106.35C106.006 125.762 105.673 125.783 105.345 125.814C105.293 125.819 105.235 125.824 105.183 125.829C104.501 125.908 103.84 126.048 103.209 126.257C103.194 126.262 103.183 126.267 103.168 126.272C102.86 126.376 102.558 126.496 102.267 126.632C102.22 126.652 102.178 126.673 102.136 126.694C101.886 126.814 101.647 126.939 101.407 127.085C101.36 127.111 101.314 127.132 101.272 127.163C101.261 127.168 101.251 127.173 101.241 127.178C101.22 127.189 101.199 127.199 101.183 127.215L75.1104 143.757C71.3188 146.163 69.6677 151.012 70.7927 156.418L113.376 360.397C114.85 367.444 120.72 373.267 126.881 374.105C126.996 374.178 127.131 374.22 127.267 374.22C127.35 374.22 127.433 374.199 127.511 374.173C127.808 374.194 128.1 374.22 128.397 374.22H394.459C396.371 374.22 398.11 373.736 399.621 372.772L425.689 356.23C425.704 356.225 425.715 356.215 425.725 356.21C425.959 356.059 426.183 355.897 426.402 355.725C426.439 355.699 426.47 355.668 426.506 355.642C426.709 355.475 426.907 355.303 427.095 355.121C427.199 355.022 427.298 354.918 427.397 354.814C427.506 354.699 427.61 354.585 427.715 354.465C427.782 354.392 427.85 354.324 427.913 354.246ZM386.022 139.876L428.605 343.855C429.371 347.533 428.715 350.986 426.798 353.345C425.277 355.215 423.053 356.246 420.527 356.246H385.017L364.939 308.84C363.011 304.293 358.777 301.111 354.642 301.111H197.329C194.834 301.111 192.782 302.236 191.491 304.105C190.569 305.439 190.032 307.152 190.022 309.116L189.73 356.246H154.465C148.418 356.246 142.308 350.553 140.85 343.564L98.2667 139.585C97.5011 135.913 98.1573 132.454 100.074 130.1C101.595 128.23 103.824 127.199 106.35 127.199H372.407C378.454 127.199 384.564 132.887 386.022 139.876ZM96.8656 139.876L98.2875 146.704L87.0688 152.939L84.2875 139.632L97.7771 131.069C96.5375 133.559 96.1886 136.647 96.8656 139.876ZM98.5948 148.178L139.449 343.855C140.746 350.085 145.485 355.361 150.824 357.085L140.558 363.861C134.918 362.626 129.699 357.132 128.324 350.548L87.3709 154.408L98.5948 148.178ZM191.168 356.246L191.454 309.126C191.48 305.251 193.892 302.548 197.329 302.548H354.642C358.215 302.548 361.907 305.366 363.616 309.402L383.459 356.246H191.168ZM82.9958 140.449L85.7563 153.663L73.1469 160.663L72.199 156.126C71.1938 151.319 72.6052 147.043 75.8813 144.965L82.9958 140.449ZM86.0636 155.137L126.923 350.84C128.303 357.454 133.314 363.059 138.975 364.908L127.173 372.704C121.548 372.007 116.142 366.626 114.782 360.105L73.4542 162.137L86.0636 155.137ZM129.652 372.788L140.886 365.366C141.553 365.48 142.23 365.559 142.902 365.559H408.314L398.855 371.564C397.574 372.376 396.095 372.788 394.459 372.788H129.652ZM410.574 364.126H142.902C142.86 364.126 142.819 364.116 142.777 364.116L152.746 357.533C153.319 357.616 153.892 357.678 154.465 357.678H384.543C384.543 357.678 384.543 357.678 384.548 357.678H420.527C420.605 357.678 420.678 357.668 420.751 357.668L410.574 364.126ZM383.381 317.882C380.777 321.09 379.866 325.736 380.886 330.626C382.788 339.741 390.84 347.158 398.834 347.158C402.36 347.158 405.48 345.71 407.621 343.079C410.225 339.871 411.136 335.225 410.116 330.335C408.209 321.215 400.163 313.798 392.168 313.798C388.642 313.798 385.522 315.251 383.381 317.882ZM409.038 335.48C409.038 335.486 409.038 335.491 409.038 335.496C408.996 336.007 408.928 336.507 408.834 336.991C408.834 336.996 408.834 337.001 408.834 337.007C408.741 337.496 408.621 337.97 408.475 338.434C408.475 338.439 408.475 338.439 408.475 338.444C408.329 338.902 408.163 339.355 407.97 339.788C407.97 339.788 407.965 339.788 407.965 339.793C407.772 340.225 407.553 340.642 407.314 341.038C407.308 341.038 407.308 341.038 407.308 341.038C407.069 341.439 406.798 341.819 406.506 342.173V342.178C404.647 344.465 401.923 345.725 398.834 345.725C391.485 345.725 384.064 338.819 382.288 330.335C381.355 325.866 382.163 321.658 384.496 318.783C384.814 318.392 385.168 318.043 385.538 317.71C387.308 316.111 389.61 315.236 392.168 315.236C399.517 315.236 406.939 322.142 408.715 330.626C408.715 330.637 408.715 330.642 408.715 330.647C408.829 331.194 408.918 331.736 408.98 332.277C408.98 332.283 408.98 332.293 408.98 332.303C409.043 332.84 409.079 333.376 409.09 333.902C409.09 333.908 409.09 333.913 409.09 333.923C409.1 334.449 409.079 334.97 409.038 335.48ZM149.694 338.777C148.465 338.777 147.376 339.288 146.626 340.204C145.85 341.163 145.511 342.48 145.668 343.892C145.678 344.007 145.704 344.121 145.72 344.236C145.735 344.324 145.746 344.413 145.767 344.501C146.402 347.548 149.017 349.939 151.72 349.939C152.85 349.939 153.86 349.501 154.595 348.715C154.657 348.647 154.725 348.585 154.782 348.512C155.673 347.418 155.985 345.85 155.642 344.21C155.006 341.163 152.392 338.777 149.694 338.777ZM153.668 347.605C153.194 348.194 152.522 348.501 151.72 348.501C149.704 348.501 147.663 346.579 147.168 344.21C146.913 342.996 147.121 341.871 147.741 341.111C148.215 340.522 148.892 340.215 149.694 340.215C151.704 340.215 153.746 342.137 154.241 344.501C154.496 345.72 154.288 346.85 153.668 347.605ZM106.84 133.507C105.61 133.507 104.522 134.012 103.772 134.934C102.881 136.027 102.569 137.595 102.913 139.23C103.548 142.277 106.163 144.663 108.866 144.663C110.095 144.663 111.183 144.158 111.928 143.236C112.819 142.142 113.131 140.574 112.793 138.934C112.152 135.892 109.538 133.507 106.84 133.507ZM111.204 141.689C111.204 141.694 111.204 141.694 111.199 141.699C111.1 141.934 110.97 142.147 110.814 142.335C110.34 142.923 109.668 143.23 108.866 143.23C106.85 143.23 104.808 141.303 104.314 138.939C104.282 138.788 104.256 138.637 104.241 138.486C104.121 137.449 104.345 136.501 104.886 135.84C105.36 135.251 106.038 134.944 106.84 134.944C108.85 134.944 110.892 136.866 111.386 139.23C111.538 139.954 111.522 140.647 111.355 141.251C111.314 141.402 111.267 141.548 111.204 141.689ZM371.23 139.23C371.866 142.277 374.48 144.663 377.183 144.663C378.407 144.663 379.496 144.158 380.246 143.236C381.136 142.142 381.449 140.574 381.11 138.939C380.485 135.944 377.814 133.507 375.152 133.507C373.923 133.507 372.84 134.012 372.09 134.934C371.199 136.027 370.886 137.595 371.23 139.23ZM379.131 142.329C378.657 142.918 377.98 143.23 377.183 143.23C375.168 143.23 373.126 141.303 372.631 138.934C372.538 138.48 372.506 138.038 372.538 137.621C372.59 136.928 372.819 136.309 373.204 135.84C373.678 135.251 374.355 134.939 375.152 134.939C377.136 134.939 379.22 136.902 379.704 139.23C379.881 140.09 379.829 140.902 379.564 141.579C379.454 141.855 379.314 142.111 379.131 142.329ZM396.892 289.033C398.584 289.033 400.079 288.335 401.11 287.069C402.35 285.548 402.782 283.355 402.303 281.064L374.996 150.257C374.11 146.022 370.355 142.579 366.616 142.579H119.163C117.47 142.579 115.97 143.277 114.944 144.543C113.704 146.064 113.272 148.251 113.751 150.548L141.058 281.355C141.944 285.59 145.699 289.033 149.439 289.033H396.892ZM142.459 281.064L115.152 150.257C114.761 148.382 115.09 146.632 116.053 145.449C116.814 144.512 117.892 144.012 119.163 144.012H366.616C367.392 144.012 368.168 144.199 368.907 144.527C370.256 145.132 371.485 146.236 372.371 147.611C372.944 148.496 373.371 149.491 373.59 150.548L400.902 281.355C401.095 282.293 401.11 283.199 400.959 284.017C400.803 284.84 400.48 285.574 399.996 286.163C399.235 287.105 398.163 287.6 396.892 287.6H149.439C146.34 287.6 143.215 284.668 142.459 281.064ZM183.048 330.335C181.147 321.22 173.095 313.798 165.1 313.798C162.011 313.798 159.235 314.908 157.157 316.949C156.86 317.241 156.579 317.553 156.314 317.882C153.704 321.09 152.793 325.736 153.814 330.632C155.72 339.746 163.772 347.158 171.767 347.158C175.293 347.158 178.413 345.71 180.553 343.079C182.814 340.298 183.793 336.439 183.35 332.272C183.282 331.632 183.183 330.986 183.048 330.335ZM165.1 315.236C172.449 315.236 179.871 322.142 181.647 330.626C182.574 335.095 181.772 339.303 179.439 342.173C177.579 344.465 174.855 345.725 171.767 345.725C164.413 345.725 156.991 338.824 155.22 330.335C154.288 325.866 155.09 321.658 157.423 318.788C159.288 316.496 162.011 315.236 165.1 315.236ZM405.147 329.194C403.47 323.574 398.366 319.173 393.288 319.173C390.876 319.173 388.735 320.163 387.272 321.965C385.939 323.605 385.256 325.793 385.293 328.184C385.298 328.579 385.324 328.986 385.371 329.392C385.413 329.803 385.48 330.215 385.569 330.626C386.85 336.783 392.298 341.788 397.709 341.788C398.918 341.788 400.058 341.543 401.079 341.069C402.095 340.595 402.996 339.892 403.73 338.991C405.064 337.355 405.746 335.168 405.709 332.777C405.699 331.986 405.61 331.163 405.439 330.335C405.355 329.949 405.261 329.569 405.147 329.194ZM397.709 340.355C392.944 340.355 388.126 335.861 386.97 330.335C386.366 327.444 386.881 324.72 388.386 322.871C389.423 321.595 390.886 320.819 392.558 320.642C392.798 320.616 393.043 320.605 393.288 320.605C393.584 320.605 393.886 320.621 394.183 320.658C398.647 321.173 402.949 325.449 404.032 330.632C404.407 332.434 404.35 334.178 403.886 335.678C403.605 336.579 403.183 337.397 402.616 338.09C401.428 339.548 399.689 340.355 397.709 340.355ZM182.965 223.298H186.511C186.647 223.298 186.892 223.507 186.949 223.788L187.741 227.579C187.767 227.704 187.741 227.772 187.741 227.772H184.199C183.965 227.772 183.751 227.887 183.616 228.074C183.517 228.215 183.47 228.382 183.485 228.553C183.491 228.611 183.501 228.663 183.522 228.72C183.663 229.137 183.814 229.548 183.975 229.965C184.298 230.788 184.668 231.6 185.069 232.392C185.475 233.189 185.923 233.97 186.402 234.725C187.121 235.861 187.923 236.949 188.798 237.965C188.944 238.137 189.163 238.236 189.386 238.215C189.61 238.204 189.814 238.085 189.939 237.897L191.829 235.038C191.85 235.038 191.886 235.048 191.923 235.064C191.965 235.085 192.011 235.116 192.058 235.158L194.959 237.84C195.178 238.043 195.209 238.329 195.157 238.413L194.079 240.033L193.256 241.277C193.204 241.361 193.168 241.444 193.152 241.538C193.095 241.803 193.199 242.09 193.433 242.257C196.241 244.288 199.334 245.626 202.376 246.126C202.605 246.163 202.845 246.085 203.006 245.913C203.131 245.788 203.199 245.621 203.204 245.444C203.209 245.387 203.204 245.329 203.194 245.272L202.345 241.204C202.329 241.147 202.329 241.1 202.334 241.064C202.334 241.033 202.34 241.017 202.34 241.017H205.652C205.788 241.017 206.027 241.22 206.09 241.501L206.939 245.564C207.006 245.902 207.303 246.137 207.636 246.137C207.678 246.137 207.72 246.132 207.761 246.126C210.647 245.616 213.225 244.251 215.23 242.173C215.36 242.038 215.433 241.85 215.428 241.658C215.423 241.465 215.34 241.283 215.199 241.152L212.1 238.288C211.939 238.132 211.876 237.934 211.876 237.809C211.876 237.767 211.886 237.73 211.897 237.715L213.428 235.408L213.668 235.043C213.715 235.043 213.803 235.069 213.897 235.158L216.996 238.027C217.038 238.064 217.084 238.1 217.131 238.126C217.235 238.184 217.345 238.215 217.459 238.22C217.511 238.22 217.569 238.215 217.626 238.204C217.855 238.152 218.043 238.001 218.136 237.788C219.35 235.033 219.845 231.798 219.579 228.434C219.548 228.059 219.235 227.772 218.86 227.772H215.319C215.251 227.772 215.157 227.72 215.069 227.637C214.985 227.548 214.907 227.428 214.881 227.288L214.084 223.491C214.064 223.371 214.084 223.303 214.084 223.298H217.631C217.86 223.298 218.074 223.189 218.209 223.001C218.345 222.814 218.381 222.574 218.308 222.355C217.178 219.017 215.355 215.819 213.027 213.105C212.991 213.064 212.954 213.027 212.907 212.991C212.793 212.908 212.652 212.866 212.511 212.861C212.491 212.861 212.465 212.855 212.439 212.855C212.215 212.871 212.011 212.991 211.886 213.178L210.985 214.538L209.996 216.033C209.949 216.033 209.86 216.001 209.772 215.918L207.168 213.512L206.871 213.23C206.704 213.079 206.642 212.876 206.647 212.757C206.647 212.746 206.647 212.746 206.647 212.736C206.652 212.704 206.657 212.678 206.668 212.658L208.569 209.793C208.782 209.47 208.704 209.038 208.392 208.814C207.845 208.418 207.288 208.059 206.725 207.715C204.402 206.314 201.939 205.366 199.506 204.954C199.491 204.954 199.47 204.949 199.454 204.944C199.288 204.918 199.121 204.954 198.98 205.033C198.923 205.069 198.866 205.105 198.819 205.158C198.657 205.329 198.584 205.569 198.636 205.798L199.485 209.871C199.511 209.991 199.485 210.053 199.485 210.059H196.178C196.043 210.059 195.798 209.855 195.741 209.574L194.892 205.507C194.808 205.126 194.444 204.882 194.064 204.949C193.913 204.97 193.772 205.012 193.621 205.043C191.782 205.428 190.079 206.163 188.574 207.22C187.871 207.715 187.204 208.267 186.6 208.897C186.465 209.038 186.392 209.225 186.397 209.418C186.402 209.605 186.485 209.793 186.626 209.923L189.725 212.788C189.944 212.991 189.98 213.283 189.928 213.361L189.288 214.329L188.157 216.033C188.11 216.033 188.027 216.001 187.933 215.918L184.834 213.048C184.663 212.892 184.428 212.824 184.204 212.871C184.199 212.871 184.199 212.871 184.199 212.871C183.97 212.918 183.782 213.074 183.689 213.283C182.48 216.038 181.98 219.272 182.251 222.642C182.282 223.012 182.59 223.298 182.965 223.298ZM187.741 229.21C188.183 229.21 188.574 229.022 188.845 228.689C189.142 228.324 189.251 227.809 189.147 227.288L188.35 223.491C188.157 222.564 187.366 221.866 186.511 221.866H183.636C183.517 219.355 183.855 216.944 184.626 214.809L186.959 216.975C187.704 217.658 188.84 217.59 189.345 216.84L191.131 214.152C191.59 213.444 191.402 212.387 190.699 211.741L188.157 209.382C189.699 207.965 191.569 206.98 193.636 206.501L194.34 209.871C194.527 210.777 195.334 211.491 196.178 211.491H199.485C199.928 211.491 200.319 211.309 200.59 210.975C200.892 210.605 200.996 210.095 200.892 209.579L200.261 206.569C202.548 207.095 204.845 208.121 206.991 209.585L205.47 211.871C205.011 212.574 205.199 213.632 205.897 214.283L208.803 216.97C209.548 217.652 210.678 217.59 211.183 216.84L212.553 214.777C214.256 216.918 215.642 219.34 216.61 221.866H214.084C213.647 221.866 213.256 222.048 212.985 222.382C212.683 222.751 212.574 223.262 212.683 223.783L213.48 227.579C213.527 227.814 213.61 228.033 213.725 228.225C213.782 228.324 213.85 228.418 213.918 228.501C214.277 228.934 214.788 229.204 215.319 229.204H218.194C218.314 231.72 217.975 234.132 217.204 236.267L214.871 234.105C214.126 233.418 212.985 233.486 212.485 234.236L210.699 236.923C210.241 237.626 210.428 238.684 211.126 239.335L213.673 241.689C212.136 243.105 210.261 244.095 208.199 244.574L207.496 241.204C207.298 240.277 206.506 239.579 205.652 239.579H202.345C201.902 239.579 201.511 239.767 201.241 240.095C200.944 240.465 200.834 240.975 200.944 241.501L201.569 244.507C199.288 243.98 196.985 242.949 194.84 241.491L196.355 239.204C196.47 239.027 196.548 238.835 196.584 238.621C196.6 238.517 196.61 238.413 196.61 238.303C196.61 237.767 196.371 237.199 195.933 236.788L193.032 234.105C192.288 233.413 191.147 233.486 190.647 234.236L189.277 236.298C187.574 234.152 186.189 231.73 185.22 229.204H187.741V229.21ZM231.152 240.23C231.985 244.246 235.553 247.507 239.1 247.507H289.886C290.491 247.507 291.069 247.413 291.605 247.236C291.788 247.173 291.959 247.105 292.131 247.027C292.814 246.71 293.413 246.241 293.902 245.642C294.048 245.46 294.183 245.267 294.308 245.069C295.043 243.871 295.345 242.355 295.163 240.751C295.136 240.48 295.09 240.21 295.032 239.939L293.011 230.241L288.959 210.845C288.803 210.09 288.548 209.366 288.22 208.684C286.788 205.725 283.892 203.569 281.017 203.569H230.225C228.616 203.569 227.189 204.236 226.209 205.439C225.032 206.882 224.621 208.96 225.074 211.137L231.152 240.23ZM293.631 240.23C293.996 241.986 293.689 243.626 292.788 244.736C292.522 245.064 292.215 245.335 291.871 245.543C291.527 245.751 291.152 245.902 290.741 245.986C290.47 246.043 290.183 246.074 289.886 246.074H281.756C277.939 239.543 275.246 232.59 273.741 225.392C272.261 218.298 272.038 211.444 273.079 205.007H281.017C283.918 205.007 286.85 207.757 287.558 211.137L293.631 240.23ZM239.1 246.074C236.199 246.074 233.261 243.319 232.553 239.939L226.48 210.845C226.116 209.095 226.423 207.449 227.324 206.345C228.038 205.47 229.043 205.007 230.23 205.007H238.36C242.183 211.538 244.876 218.496 246.376 225.684C247.86 232.772 248.079 239.632 247.038 246.074H239.1ZM248.61 245.147C248.663 244.757 248.72 244.371 248.767 243.98C248.819 243.522 248.855 243.053 248.897 242.59C248.933 242.199 248.97 241.814 248.996 241.423C249.027 240.949 249.043 240.47 249.058 239.991C249.074 239.6 249.095 239.215 249.1 238.824C249.11 238.335 249.1 237.845 249.1 237.35C249.095 236.965 249.095 236.585 249.084 236.194C249.069 235.689 249.038 235.173 249.006 234.663C248.985 234.288 248.975 233.913 248.944 233.538C248.902 232.996 248.845 232.454 248.788 231.913C248.751 231.559 248.725 231.204 248.678 230.845C248.605 230.246 248.511 229.637 248.423 229.033C248.376 228.73 248.345 228.434 248.293 228.132C248.142 227.22 247.97 226.309 247.782 225.392C247.59 224.48 247.381 223.574 247.152 222.673C247.079 222.371 246.991 222.074 246.907 221.772C246.751 221.173 246.59 220.574 246.413 219.98C246.308 219.621 246.189 219.267 246.079 218.913C245.913 218.376 245.746 217.845 245.564 217.314C245.439 216.934 245.298 216.559 245.163 216.184C244.98 215.678 244.798 215.173 244.605 214.673C244.454 214.288 244.293 213.902 244.136 213.517C243.939 213.033 243.746 212.548 243.538 212.064C243.366 211.678 243.189 211.293 243.017 210.902C242.798 210.428 242.584 209.96 242.355 209.486C242.173 209.1 241.975 208.715 241.782 208.329C241.548 207.866 241.314 207.402 241.074 206.944C240.866 206.559 240.657 206.178 240.449 205.798C240.303 205.533 240.163 205.267 240.017 205.007H271.626C271.579 205.314 271.548 205.621 271.506 205.928C271.449 206.319 271.397 206.704 271.35 207.095C271.298 207.553 271.256 208.017 271.22 208.48C271.183 208.871 271.147 209.262 271.121 209.658C271.09 210.126 271.074 210.6 271.053 211.079C271.043 211.47 271.022 211.855 271.017 212.251C271.006 212.736 271.011 213.225 271.017 213.715C271.022 214.105 271.022 214.491 271.032 214.882C271.048 215.387 271.079 215.897 271.11 216.408C271.131 216.783 271.142 217.158 271.173 217.538C271.215 218.074 271.272 218.616 271.329 219.158C271.366 219.512 271.392 219.871 271.439 220.225C271.511 220.829 271.605 221.434 271.694 222.038C271.741 222.34 271.777 222.642 271.824 222.944C271.975 223.855 272.147 224.767 272.34 225.684C272.527 226.595 272.741 227.501 272.965 228.408C273.043 228.704 273.131 228.996 273.209 229.293C273.366 229.897 273.527 230.501 273.704 231.1C273.808 231.454 273.928 231.809 274.038 232.158C274.204 232.699 274.376 233.236 274.553 233.772C274.683 234.147 274.824 234.517 274.954 234.887C275.142 235.397 275.319 235.908 275.517 236.413C275.663 236.793 275.824 237.173 275.975 237.559C276.178 238.043 276.376 238.533 276.584 239.022C276.751 239.408 276.928 239.788 277.1 240.173C277.319 240.647 277.532 241.126 277.761 241.595C277.949 241.98 278.142 242.366 278.334 242.746C278.569 243.21 278.803 243.673 279.048 244.137C279.251 244.522 279.459 244.902 279.668 245.283C279.814 245.543 279.949 245.814 280.1 246.074H248.491C248.538 245.767 248.569 245.454 248.61 245.147ZM304.673 242.579C307.725 245.866 311.324 248.486 315.152 250.173C318.215 251.517 321.423 252.262 324.631 252.262C324.98 252.262 325.329 252.257 325.673 252.236C327.741 252.132 329.709 251.704 331.532 250.98C334.267 249.892 336.673 248.132 338.584 245.783C342.756 240.652 344.209 233.22 342.574 225.392C339.511 210.736 326.595 198.814 313.772 198.814C308.173 198.814 303.215 201.116 299.814 205.298C295.647 210.428 294.194 217.861 295.824 225.684C297.163 232.095 300.392 237.986 304.673 242.579ZM328.376 250.439C328.074 250.507 327.772 250.559 327.465 250.611C326.543 250.757 325.6 250.829 324.631 250.829C323.871 250.829 323.105 250.783 322.35 250.699C321.59 250.611 320.829 250.48 320.074 250.314C318.944 250.059 317.824 249.715 316.72 249.283C315.985 248.996 315.256 248.673 314.538 248.319C306.277 244.204 299.334 235.47 297.23 225.392C295.683 217.991 297.032 210.996 300.928 206.204C304.048 202.361 308.61 200.246 313.772 200.246C319.86 200.246 325.975 203.1 330.939 207.704C331.251 207.996 331.553 208.288 331.855 208.59C332.756 209.496 333.616 210.454 334.423 211.47C334.694 211.809 334.954 212.152 335.215 212.501C338.048 216.35 340.163 220.861 341.168 225.684C342.715 233.09 341.366 240.085 337.47 244.876C335.131 247.757 331.98 249.663 328.376 250.439ZM177.538 225.684C178.194 228.819 179.308 231.887 180.85 234.803C180.959 235.012 181.069 235.21 181.178 235.413C181.397 235.814 181.626 236.21 181.866 236.6C181.985 236.798 182.105 236.991 182.225 237.184C182.47 237.574 182.72 237.954 182.975 238.329C183.105 238.517 183.235 238.704 183.366 238.887C183.626 239.262 183.897 239.626 184.173 239.986C184.308 240.163 184.449 240.34 184.59 240.517C185.433 241.569 186.334 242.579 187.277 243.522C187.439 243.684 187.595 243.84 187.756 243.991C193.303 249.324 199.907 252.267 206.345 252.267C209.413 252.267 212.267 251.59 214.824 250.262C214.965 250.189 215.105 250.116 215.246 250.038C217.449 248.814 219.345 247.126 220.881 245.027C221.006 244.855 221.126 244.678 221.251 244.501C221.392 244.288 221.538 244.074 221.673 243.855C221.772 243.699 221.866 243.538 221.959 243.382C222.517 242.423 223.006 241.397 223.413 240.324C223.48 240.147 223.548 239.965 223.61 239.788C223.741 239.423 223.86 239.053 223.97 238.678C224.022 238.491 224.079 238.298 224.126 238.111C224.23 237.73 224.319 237.345 224.402 236.954C224.444 236.757 224.485 236.564 224.522 236.366C224.595 235.97 224.657 235.569 224.715 235.163C224.741 234.96 224.767 234.757 224.788 234.553C224.902 233.522 224.959 232.465 224.949 231.402C224.933 229.439 224.715 227.418 224.293 225.392C221.709 213.027 212.105 202.605 201.465 199.652C199.892 199.215 198.293 198.944 196.689 198.85C196.288 198.829 195.886 198.814 195.485 198.814C189.663 198.814 184.574 201.283 181.163 205.772L181.001 205.986C180.746 206.335 180.501 206.694 180.267 207.059C180.09 207.34 179.918 207.621 179.751 207.913C179.652 208.09 179.553 208.267 179.459 208.449C179.282 208.777 179.116 209.116 178.959 209.46C178.892 209.616 178.819 209.767 178.756 209.923C178.511 210.486 178.293 211.069 178.095 211.658C177.996 211.954 177.907 212.257 177.819 212.559C177.574 213.418 177.376 214.309 177.225 215.21L177.194 215.402C177.142 215.746 177.095 216.095 177.053 216.449C177.022 216.694 177.001 216.944 176.98 217.189C176.944 217.579 176.923 217.97 176.902 218.366C176.897 218.59 176.886 218.814 176.886 219.038C176.85 221.199 177.069 223.434 177.538 225.684ZM178.564 215.954C178.605 215.663 178.657 215.376 178.704 215.09C178.741 214.902 178.777 214.715 178.819 214.527C178.86 214.314 178.907 214.1 178.954 213.892C179.006 213.684 179.058 213.475 179.116 213.267C179.173 213.053 179.23 212.84 179.293 212.632C179.329 212.512 179.366 212.397 179.402 212.283C179.439 212.158 179.485 212.043 179.527 211.918C179.673 211.486 179.834 211.064 180.011 210.647C180.058 210.533 180.1 210.418 180.152 210.303C180.183 210.236 180.209 210.163 180.241 210.095C180.303 209.965 180.371 209.835 180.433 209.699C180.532 209.507 180.626 209.303 180.725 209.111C180.746 209.074 180.767 209.038 180.788 208.996C180.902 208.783 181.027 208.574 181.147 208.366C181.23 208.225 181.314 208.085 181.402 207.944C181.48 207.824 181.558 207.704 181.636 207.585C181.777 207.371 181.923 207.158 182.074 206.949C182.204 206.767 182.34 206.59 182.48 206.413C182.59 206.277 182.694 206.142 182.803 206.012C182.881 205.918 182.965 205.824 183.043 205.736C183.168 205.59 183.298 205.449 183.428 205.309C183.511 205.22 183.6 205.126 183.689 205.038C183.814 204.913 183.944 204.788 184.074 204.663C184.173 204.569 184.272 204.475 184.376 204.382C184.496 204.272 184.616 204.168 184.741 204.064C184.855 203.965 184.975 203.866 185.095 203.772C185.204 203.678 185.319 203.595 185.433 203.507C185.569 203.408 185.704 203.303 185.845 203.204C185.944 203.137 186.048 203.069 186.147 202.996C186.303 202.892 186.459 202.788 186.621 202.689C186.709 202.637 186.798 202.585 186.892 202.527C187.064 202.428 187.241 202.324 187.418 202.225C187.496 202.184 187.579 202.142 187.657 202.105C187.85 202.001 188.043 201.908 188.241 201.814C188.308 201.783 188.381 201.751 188.449 201.72C188.657 201.626 188.866 201.533 189.079 201.449C189.147 201.423 189.209 201.397 189.277 201.371C189.496 201.288 189.715 201.21 189.939 201.132C190.001 201.111 190.069 201.09 190.136 201.069C190.36 201.001 190.584 200.928 190.814 200.866C190.886 200.845 190.959 200.829 191.032 200.809C191.256 200.751 191.48 200.694 191.709 200.647C191.793 200.626 191.886 200.611 191.975 200.595C192.189 200.553 192.402 200.507 192.621 200.475C192.735 200.454 192.85 200.444 192.959 200.428C193.157 200.397 193.355 200.371 193.553 200.35C193.715 200.329 193.881 200.324 194.048 200.309C194.199 200.298 194.355 200.283 194.506 200.272C194.829 200.257 195.157 200.246 195.485 200.246C197.006 200.246 198.532 200.423 200.038 200.767C200.793 200.934 201.543 201.142 202.288 201.392C211.944 204.616 220.506 214.288 222.886 225.684C222.985 226.152 223.069 226.626 223.147 227.095C223.178 227.288 223.199 227.48 223.225 227.673C223.261 227.944 223.303 228.215 223.334 228.486C223.366 228.751 223.381 229.012 223.402 229.277C223.423 229.47 223.444 229.663 223.454 229.855C223.47 230.152 223.48 230.449 223.491 230.741C223.496 230.897 223.501 231.053 223.506 231.21C223.511 231.47 223.506 231.73 223.501 231.991C223.496 232.204 223.496 232.413 223.485 232.626C223.475 232.882 223.459 233.132 223.444 233.387C223.428 233.595 223.413 233.803 223.392 234.012C223.288 235.111 223.11 236.184 222.86 237.22C222.834 237.335 222.808 237.454 222.777 237.569C222.699 237.882 222.61 238.189 222.517 238.491C222.475 238.632 222.428 238.772 222.386 238.908C222.288 239.199 222.194 239.491 222.084 239.772C222.084 239.783 222.079 239.788 222.079 239.798C222.069 239.824 222.058 239.845 222.048 239.871C221.881 240.298 221.699 240.72 221.506 241.132C221.454 241.251 221.392 241.366 221.334 241.48C221.178 241.809 221.006 242.126 220.834 242.439C220.746 242.595 220.657 242.757 220.564 242.908C220.543 242.944 220.522 242.986 220.496 243.022C220.329 243.293 220.147 243.564 219.965 243.829C219.913 243.902 219.86 243.98 219.803 244.059C219.746 244.137 219.683 244.215 219.621 244.298C218.965 245.178 218.241 245.98 217.449 246.699C217.402 246.736 217.36 246.777 217.319 246.819C216.949 247.142 216.564 247.444 216.168 247.736C216.084 247.798 216.001 247.861 215.913 247.918C215.538 248.184 215.152 248.423 214.756 248.652C214.095 249.027 213.413 249.366 212.704 249.647C212.699 249.647 212.699 249.652 212.699 249.652C212.423 249.762 212.142 249.861 211.86 249.954C211.85 249.96 211.845 249.96 211.84 249.965C211.564 250.053 211.282 250.142 210.996 250.22C210.98 250.22 210.965 250.225 210.949 250.23C210.673 250.303 210.397 250.371 210.116 250.434C210.084 250.439 210.048 250.449 210.011 250.454C209.751 250.512 209.485 250.559 209.215 250.605C209.147 250.616 209.079 250.621 209.011 250.632C208.772 250.668 208.532 250.699 208.293 250.725C208.157 250.741 208.022 250.751 207.886 250.762C207.704 250.777 207.522 250.793 207.334 250.803C207.006 250.819 206.678 250.829 206.34 250.829C202.548 250.829 198.741 249.725 195.215 247.777C195.199 247.767 195.183 247.762 195.173 247.751C194.928 247.616 194.689 247.475 194.449 247.335C194.319 247.251 194.183 247.178 194.048 247.095C193.907 247.007 193.767 246.913 193.626 246.824C193.386 246.673 193.152 246.522 192.918 246.361C192.866 246.324 192.808 246.283 192.756 246.246C191.376 245.288 190.032 244.194 188.746 242.954C188.595 242.809 188.444 242.663 188.293 242.512C187.386 241.605 186.517 240.632 185.709 239.621C185.574 239.454 185.439 239.283 185.308 239.111C185.043 238.767 184.782 238.413 184.532 238.059C184.407 237.882 184.282 237.699 184.157 237.522C183.907 237.158 183.668 236.793 183.433 236.423C183.329 236.251 183.225 236.085 183.126 235.913C183.105 235.887 183.09 235.855 183.069 235.829C182.866 235.486 182.663 235.137 182.465 234.783C182.423 234.71 182.381 234.632 182.345 234.559C182.267 234.418 182.189 234.277 182.116 234.137C181.793 233.522 181.491 232.908 181.209 232.283C181.157 232.168 181.1 232.053 181.048 231.939C180.954 231.72 180.866 231.501 180.772 231.277C180.699 231.105 180.626 230.928 180.553 230.751C180.48 230.559 180.407 230.366 180.334 230.173C180.256 229.965 180.178 229.751 180.105 229.543C180.043 229.366 179.98 229.189 179.923 229.012C179.845 228.777 179.772 228.543 179.699 228.303C179.647 228.142 179.595 227.986 179.548 227.824C179.47 227.553 179.397 227.277 179.324 227.007C179.293 226.876 179.256 226.746 179.22 226.616C179.121 226.21 179.022 225.803 178.939 225.392C178.939 225.382 178.933 225.371 178.933 225.361C178.829 224.871 178.746 224.382 178.668 223.892C178.642 223.715 178.621 223.538 178.595 223.361C178.548 223.043 178.506 222.73 178.475 222.418C178.454 222.199 178.433 221.98 178.418 221.762C178.392 221.496 178.376 221.23 178.36 220.97C178.345 220.725 178.334 220.486 178.329 220.246C178.324 220.012 178.319 219.777 178.319 219.543C178.319 218.397 178.386 217.277 178.527 216.189C178.543 216.111 178.553 216.033 178.564 215.954ZM248.907 333.257C247.97 328.788 244.011 325.158 240.069 325.158C239.85 325.158 239.626 325.168 239.413 325.189C237.902 325.345 236.579 326.053 235.631 327.22C235.47 327.418 235.319 327.632 235.183 327.85C234.959 328.21 234.788 328.6 234.636 329.007C234.574 329.184 234.517 329.361 234.465 329.543C234.267 330.241 234.168 330.986 234.178 331.762C234.183 332.345 234.251 332.944 234.376 333.548C234.777 335.46 235.735 337.22 237.001 338.605C237.032 338.637 237.058 338.668 237.084 338.699C237.511 339.158 237.98 339.564 238.465 339.928C239.048 340.361 239.663 340.736 240.303 341.012C241.006 341.319 241.741 341.527 242.475 341.611C242.72 341.637 242.97 341.652 243.215 341.652C243.881 341.652 244.522 341.548 245.116 341.35C245.709 341.147 246.261 340.855 246.751 340.47C247.079 340.215 247.381 339.918 247.647 339.585C248.626 338.382 249.126 336.788 249.105 335.038C249.1 334.46 249.032 333.861 248.907 333.257ZM246.538 338.684C245.72 339.684 244.574 340.215 243.215 340.215C239.918 340.215 236.579 337.095 235.782 333.257C235.522 332.007 235.558 330.809 235.876 329.777C235.939 329.569 236.017 329.371 236.1 329.178C236.272 328.793 236.485 328.439 236.746 328.126C237.048 327.746 237.402 327.439 237.798 327.199C238.454 326.798 239.22 326.59 240.069 326.59C243.366 326.59 246.699 329.71 247.501 333.548C247.918 335.543 247.569 337.418 246.538 338.684ZM211.485 333.48C209.709 333.48 208.131 334.215 207.048 335.543C206.725 335.944 206.454 336.387 206.235 336.866C205.579 338.303 205.418 340.059 205.798 341.871C206.73 346.34 210.694 349.975 214.631 349.975C216.413 349.975 217.991 349.241 219.069 347.913C220.371 346.309 220.829 344.001 220.324 341.579C219.392 337.116 215.428 333.48 211.485 333.48ZM217.959 347.007C217.142 348.012 215.991 348.538 214.631 348.538C211.334 348.538 208.001 345.418 207.199 341.579C207.1 341.095 207.043 340.621 207.032 340.158C207.032 340.147 207.027 340.132 207.027 340.116C207.001 338.689 207.392 337.397 208.163 336.449C208.777 335.694 209.574 335.21 210.506 335.012C210.663 334.98 210.824 334.954 210.985 334.939C211.152 334.923 211.319 334.913 211.485 334.913C214.788 334.913 218.121 338.038 218.923 341.876C219.235 343.371 219.116 344.798 218.6 345.949C218.428 346.335 218.215 346.689 217.959 347.007ZM321.939 325.158C321.272 325.158 320.631 325.257 320.038 325.46C319.444 325.658 318.892 325.949 318.402 326.335C318.074 326.59 317.772 326.887 317.501 327.22C316.199 328.824 315.741 331.132 316.246 333.548C316.949 336.897 319.35 339.783 322.173 341.012C322.876 341.319 323.605 341.527 324.345 341.611C324.59 341.637 324.834 341.652 325.079 341.652C326.86 341.652 328.439 340.918 329.522 339.585C330.824 337.986 331.282 335.678 330.777 333.257C329.845 328.788 325.876 325.158 321.939 325.158ZM317.652 333.257C317.548 332.757 317.491 332.267 317.48 331.793C317.465 331.074 317.558 330.397 317.746 329.777C317.939 329.158 318.23 328.6 318.616 328.126C319.121 327.496 319.761 327.053 320.501 326.809C320.949 326.663 321.428 326.59 321.939 326.59C325.235 326.59 328.569 329.715 329.371 333.548C329.788 335.543 329.439 337.418 328.407 338.684C327.59 339.684 326.444 340.215 325.079 340.215C321.788 340.215 318.454 337.095 317.652 333.257ZM353.996 333.48C352.215 333.48 350.642 334.215 349.558 335.543C348.256 337.147 347.798 339.454 348.303 341.876C349.235 346.34 353.199 349.975 357.136 349.975C358.918 349.975 360.496 349.241 361.579 347.913C362.881 346.309 363.334 344.001 362.829 341.579C361.902 337.116 357.933 333.48 353.996 333.48ZM361.251 345.564C361.064 346.095 360.808 346.585 360.465 347.007C359.647 348.012 358.501 348.538 357.136 348.538C353.845 348.538 350.506 345.418 349.709 341.579C349.449 340.335 349.485 339.132 349.803 338.1C349.949 337.626 350.157 337.194 350.418 336.803C350.501 336.684 350.579 336.559 350.673 336.449C351.485 335.444 352.636 334.913 353.996 334.913C357.293 334.913 360.626 338.033 361.428 341.871C361.532 342.371 361.59 342.861 361.6 343.34C361.605 343.684 361.579 344.022 361.538 344.35C361.48 344.772 361.386 345.184 361.251 345.564ZM158.496 330.626C159.058 333.319 160.418 335.793 162.22 337.725C164.543 340.204 167.6 341.788 170.642 341.788C171.548 341.788 172.418 341.647 173.225 341.382C173.761 341.199 174.272 340.965 174.751 340.668C174.991 340.522 175.22 340.366 175.444 340.189C175.886 339.845 176.293 339.444 176.663 338.991C177.329 338.173 177.829 337.22 178.163 336.168C178.72 334.418 178.798 332.408 178.366 330.335C177.079 324.178 171.631 319.173 166.22 319.173C163.803 319.173 161.668 320.163 160.204 321.97C158.647 323.882 157.975 326.538 158.298 329.392C158.345 329.803 158.407 330.215 158.496 330.626ZM160.376 324.413C160.626 323.85 160.939 323.335 161.314 322.871C161.61 322.507 161.944 322.184 162.303 321.902C162.485 321.762 162.673 321.632 162.866 321.512C163.256 321.277 163.673 321.085 164.116 320.939C164.334 320.866 164.558 320.803 164.788 320.757C165.246 320.658 165.725 320.605 166.22 320.605C170.991 320.605 175.808 325.1 176.965 330.632C177.261 332.074 177.288 333.48 177.043 334.751C176.803 336.022 176.298 337.163 175.548 338.09C174.657 339.189 173.454 339.913 172.074 340.21C171.616 340.309 171.136 340.355 170.642 340.355C167.663 340.355 164.663 338.6 162.548 335.934C162.126 335.402 161.735 334.829 161.392 334.23C161.22 333.934 161.058 333.626 160.913 333.314C160.459 332.371 160.116 331.371 159.897 330.335C159.746 329.611 159.668 328.902 159.652 328.21C159.642 327.517 159.694 326.85 159.819 326.215C159.939 325.574 160.126 324.97 160.376 324.413ZM414.084 344.501C414.72 347.548 417.334 349.939 420.038 349.939C421.261 349.939 422.35 349.428 423.1 348.512C423.991 347.413 424.303 345.85 423.959 344.21C423.334 341.215 420.663 338.783 418.006 338.783C416.777 338.783 415.689 339.288 414.944 340.204C414.386 340.892 414.058 341.757 413.97 342.715C413.918 343.288 413.954 343.892 414.084 344.501ZM416.058 341.111C416.532 340.522 417.209 340.215 418.006 340.215C419.991 340.215 422.074 342.178 422.558 344.501C422.814 345.715 422.605 346.845 421.985 347.605C421.511 348.194 420.834 348.501 420.038 348.501C418.022 348.501 415.98 346.579 415.485 344.21C415.23 342.996 415.439 341.866 416.058 341.111ZM354.918 159.944H139.053C138.657 159.944 138.334 159.621 138.334 159.225C138.334 158.829 138.657 158.512 139.053 158.512H354.918C355.314 158.512 355.631 158.829 355.631 159.225C355.631 159.621 355.314 159.944 354.918 159.944ZM358.475 169.699H142.61C142.215 169.699 141.897 169.382 141.897 168.986C141.897 168.59 142.215 168.267 142.61 168.267H358.475C358.871 168.267 359.194 168.59 359.194 168.986C359.194 169.382 358.871 169.699 358.475 169.699ZM362.751 178.741C362.751 179.137 362.433 179.46 362.038 179.46H146.173C145.777 179.46 145.454 179.137 145.454 178.741C145.454 178.345 145.777 178.022 146.173 178.022H362.038C362.433 178.022 362.751 178.345 362.751 178.741Z" fill="#054D47"/>
</g>
</g>
<defs>
<clipPath id="clip0_512_465">
<rect width="500" height="500" rx="250" fill="white"/>
</clipPath>
</defs>
</svg>
