<svg width="500" height="500" viewBox="0 0 500 500" fill="none" xmlns="http://www.w3.org/2000/svg">
<g clip-path="url(#clip0_487_261)">
<rect width="500" height="500" rx="250" fill="#A6A646"/>
<path d="M230.623 -49.7882L116.799 -19.2891L147.298 94.5351L261.122 64.036L230.623 -49.7882Z" fill="#D5CB2C"/>
<path d="M375.008 33.498L261.184 63.9971L291.683 177.821L405.507 147.322L375.008 33.498Z" fill="#D5CB2C"/>
<path d="M519.279 116.815L405.455 147.314L435.954 261.138L549.778 230.639L519.279 116.815Z" fill="#D5CB2C"/>
<path d="M147.337 94.5971L33.5124 125.096L64.0115 238.92L177.836 208.421L147.337 94.5971Z" fill="#D5CB2C"/>
<path d="M291.722 177.883L177.898 208.383L208.397 322.207L322.221 291.708L291.722 177.883Z" fill="#D5CB2C"/>
<path d="M435.993 261.201L322.168 291.7L352.668 405.524L466.492 375.025L435.993 261.201Z" fill="#D5CB2C"/>
<path d="M64.0196 238.868L-49.8046 269.367L-19.3055 383.191L94.5187 352.692L64.0196 238.868Z" fill="#D5CB2C"/>
<path d="M208.405 322.154L94.5808 352.653L125.08 466.477L238.904 435.978L208.405 322.154Z" fill="#D5CB2C"/>
<path d="M352.676 405.471L238.851 435.97L269.351 549.794L383.175 519.295L352.676 405.471Z" fill="#D5CB2C"/>
</g>
<defs>
<clipPath id="clip0_487_261">
<rect width="500" height="500" rx="250" fill="white"/>
</clipPath>
</defs>
</svg>
