<svg width="500" height="500" viewBox="0 0 500 500" fill="none" xmlns="http://www.w3.org/2000/svg">
<g clip-path="url(#clip0_487_413)">
<rect width="500" height="500" rx="250" fill="#F38143"/>
<path d="M470.846 163.593C468.657 161.501 461.792 156.373 454.219 151.526C463.167 153.099 471.874 153.964 474.931 153.896C482.066 153.735 487.745 147.796 487.584 140.662C487.424 133.527 481.485 127.848 474.35 128.008C471.211 128.079 462.308 129.38 453.238 131.439C460.929 126.107 468.019 120.319 470.211 118.027C475.153 112.858 474.969 104.664 469.8 99.7221C464.631 94.7804 456.437 94.9643 451.496 100.133C449.383 102.342 444.177 109.332 439.311 116.966C440.884 108.019 441.749 99.3114 441.681 96.2539C441.521 89.1196 435.581 83.4406 428.447 83.6007C421.312 83.7608 415.633 89.7005 415.793 96.8348C415.865 100.015 417.212 109.162 419.316 118.394C413.984 110.743 408.218 103.674 405.967 101.522C400.798 96.5798 392.604 96.7637 387.662 101.932C382.72 107.101 382.904 115.295 388.073 120.237C390.261 122.329 397.168 127.497 404.761 132.323C395.999 130.807 387.578 129.976 384.602 130.043C377.467 130.203 371.788 136.142 371.948 143.277C372.109 150.411 378.048 156.09 385.183 155.93C388.118 155.864 396.208 154.704 404.712 152.861C397.707 157.851 391.459 162.968 389.446 165.073C384.504 170.241 384.688 178.435 389.857 183.377C395.025 188.319 403.22 188.135 408.161 182.966C410.234 180.799 415.302 173.996 420.11 166.506C418.593 175.268 417.763 183.689 417.829 186.665C417.99 193.799 423.929 199.478 431.064 199.318C438.198 199.158 443.877 193.219 443.717 186.084C443.652 183.19 442.517 175.323 440.738 166.96C445.73 174.007 450.908 180.274 453.013 182.286C458.181 187.228 466.375 187.044 471.317 181.876C476.259 176.707 476.014 168.535 470.846 163.593Z" fill="#F8F2EC"/>
<ellipse cx="430.204" cy="141.541" rx="15.6582" ry="15.1274" transform="rotate(43.7146 430.204 141.541)" fill="#D5CB2C"/>
<path d="M378.044 260.655C375.855 258.563 368.99 253.435 361.417 248.588C370.364 250.162 379.072 251.027 382.129 250.958C389.263 250.798 394.942 244.858 394.782 237.724C394.622 230.59 388.682 224.911 381.548 225.071C378.409 225.141 369.506 226.442 360.436 228.502C368.127 223.169 375.217 217.382 377.409 215.089C382.35 209.921 382.166 201.726 376.998 196.785C371.829 191.843 363.635 192.027 358.693 197.195C356.581 199.404 351.374 206.394 346.508 214.029C348.082 205.081 348.947 196.374 348.878 193.316C348.718 186.182 342.779 180.503 335.644 180.663C328.51 180.823 322.831 186.763 322.991 193.897C323.062 197.077 324.41 206.224 326.514 215.456C321.182 207.806 315.415 200.736 313.164 198.584C307.996 193.642 299.802 193.826 294.86 198.995C289.918 204.163 290.102 212.358 295.271 217.299C297.459 219.392 304.366 224.559 311.959 229.386C303.196 227.869 294.775 227.038 291.799 227.105C284.665 227.265 278.986 233.205 279.146 240.339C279.306 247.473 285.246 253.152 292.38 252.992C295.316 252.926 303.406 251.766 311.91 249.923C304.904 254.914 298.656 260.03 296.644 262.135C291.702 267.304 291.886 275.498 297.055 280.44C302.223 285.381 310.417 285.198 315.359 280.029C317.431 277.861 322.5 271.059 327.308 263.568C325.791 272.331 324.96 280.752 325.027 283.728C325.187 290.862 331.127 296.541 338.261 296.381C345.396 296.221 351.075 290.281 350.914 283.147C350.85 280.252 349.714 272.385 347.936 264.023C352.928 271.069 358.105 277.336 360.21 279.349C365.379 284.291 373.573 284.107 378.515 278.938C383.457 273.769 383.212 265.597 378.044 260.655Z" fill="#F8F2EC"/>
<ellipse cx="337.401" cy="238.603" rx="15.6582" ry="15.1274" transform="rotate(43.7146 337.401 238.603)" fill="#D5CB2C"/>
<path d="M472.421 350.89C470.233 348.797 463.367 343.669 455.794 338.822C464.742 340.396 473.449 341.261 476.506 341.192C483.641 341.032 489.32 335.093 489.16 327.958C488.999 320.824 483.06 315.145 475.925 315.305C472.786 315.376 463.883 316.677 454.813 318.736C462.504 313.404 469.594 307.616 471.786 305.323C476.728 300.155 476.544 291.961 471.375 287.019C466.207 282.077 458.012 282.261 453.071 287.43C450.958 289.639 445.752 296.628 440.886 304.263C442.459 295.316 443.324 286.608 443.256 283.551C443.096 276.416 437.156 270.738 430.022 270.898C422.887 271.058 417.208 276.997 417.368 284.132C417.44 287.312 418.787 296.459 420.891 305.691C415.56 298.04 409.793 290.97 407.542 288.818C402.373 283.877 394.179 284.061 389.237 289.229C384.296 294.398 384.479 302.592 389.648 307.534C391.836 309.626 398.743 314.794 406.336 319.62C397.574 318.103 389.153 317.273 386.177 317.339C379.042 317.5 373.363 323.439 373.524 330.574C373.684 337.708 379.623 343.387 386.758 343.227C389.693 343.161 397.784 342 406.287 340.158C399.282 345.148 393.034 350.265 391.021 352.37C386.079 357.538 386.263 365.732 391.432 370.674C396.6 375.616 404.795 375.432 409.736 370.263C411.809 368.096 416.877 361.293 421.685 353.802C420.168 362.565 419.338 370.986 419.405 373.962C419.565 381.096 425.504 386.775 432.639 386.615C439.773 386.455 445.452 380.515 445.292 373.381C445.227 370.487 444.092 362.62 442.313 354.257C447.305 361.304 452.483 367.571 454.588 369.583C459.756 374.525 467.951 374.341 472.892 369.172C477.834 364.004 477.589 355.831 472.421 350.89Z" fill="#F8F2EC"/>
<ellipse cx="431.779" cy="328.838" rx="15.6582" ry="15.1274" transform="rotate(43.7146 431.779 328.838)" fill="#D5CB2C"/>
<path d="M565.223 253.827C563.035 251.735 556.169 246.607 548.596 241.76C557.544 243.333 566.251 244.199 569.308 244.13C576.443 243.97 582.122 238.03 581.962 230.896C581.802 223.762 575.862 218.083 568.728 218.243C565.589 218.313 556.685 219.614 547.615 221.674C555.307 216.341 562.396 210.554 564.588 208.261C569.53 203.092 569.346 194.898 564.177 189.956C559.009 185.015 550.814 185.199 545.873 190.367C543.761 192.576 538.554 199.566 533.688 207.2C535.261 198.253 536.126 189.546 536.058 186.488C535.898 179.354 529.958 173.675 522.824 173.835C515.689 173.995 510.01 179.935 510.171 187.069C510.242 190.249 511.589 199.396 513.693 208.628C508.362 200.978 502.595 193.908 500.344 191.756C495.175 186.814 486.981 186.998 482.039 192.167C477.098 197.335 477.282 205.529 482.45 210.471C484.638 212.563 491.546 217.731 499.138 222.557C490.376 221.041 481.955 220.21 478.979 220.277C471.845 220.437 466.166 226.377 466.326 233.511C466.486 240.645 472.425 246.324 479.56 246.164C482.495 246.098 490.586 244.938 499.089 243.095C492.084 248.086 485.836 253.202 483.823 255.307C478.882 260.476 479.065 268.67 484.234 273.612C489.403 278.553 497.597 278.369 502.539 273.201C504.611 271.033 509.679 264.23 514.487 256.74C512.971 265.503 512.14 273.923 512.207 276.899C512.367 284.034 518.306 289.713 525.441 289.553C532.575 289.393 538.254 283.453 538.094 276.319C538.029 273.424 536.894 265.557 535.116 257.195C540.107 264.241 545.285 270.508 547.39 272.521C552.558 277.462 560.753 277.279 565.694 272.11C570.636 266.941 570.392 258.769 565.223 253.827Z" fill="#F8F2EC"/>
<path d="M280.702 -18.2772C278.516 -20.367 271.659 -25.489 264.095 -30.3304C273.032 -28.7587 281.729 -27.8946 284.783 -27.9632C291.909 -28.1231 297.581 -34.0559 297.421 -41.182C297.262 -48.308 291.329 -53.9804 284.203 -53.8205C281.067 -53.7502 272.174 -52.4506 263.115 -50.3936C270.797 -55.7197 277.878 -61.5008 280.068 -63.7907C285.004 -68.9533 284.82 -77.1381 279.658 -82.0741C274.495 -87.0101 266.31 -86.8264 261.374 -81.6638C259.264 -79.4572 254.064 -72.4757 249.203 -64.85C250.775 -73.7871 251.639 -82.4843 251.571 -85.5383C251.411 -92.6643 245.478 -98.3367 238.352 -98.1768C231.226 -98.0169 225.553 -92.0841 225.713 -84.9581C225.784 -81.7819 227.13 -72.6454 229.232 -63.4241C223.906 -71.0657 218.146 -78.1272 215.898 -80.2767C210.735 -85.2127 202.551 -85.029 197.614 -79.8664C192.678 -74.7038 192.862 -66.5191 198.025 -61.5831C200.211 -59.4932 207.11 -54.3314 214.694 -49.5108C205.941 -51.0255 197.53 -51.8553 194.558 -51.7886C187.431 -51.6287 181.759 -45.6959 181.919 -38.5698C182.079 -31.4438 188.012 -25.7714 195.138 -25.9313C198.07 -25.997 206.151 -27.1562 214.645 -28.9968C207.647 -24.012 201.407 -18.9016 199.396 -16.799C194.46 -11.6364 194.644 -3.45166 199.807 1.48435C204.969 6.42035 213.154 6.23669 218.09 1.07408C220.16 -1.09089 225.222 -7.88595 230.025 -15.3678C228.51 -6.61528 227.68 1.79593 227.747 4.76851C227.907 11.8945 233.84 17.567 240.966 17.4071C248.092 17.2472 253.764 11.3143 253.604 4.18829C253.539 1.29716 252.406 -6.56074 250.629 -14.9135C255.615 -7.87535 260.787 -1.61548 262.89 0.394748C268.052 5.33075 276.237 5.1471 281.173 -0.0155113C286.109 -5.17812 285.865 -13.3412 280.702 -18.2772Z" fill="#F8F2EC"/>
<path d="M188.007 78.673C185.821 76.5832 178.964 71.4611 171.399 66.6198C180.337 68.1915 189.034 69.0555 192.088 68.987C199.214 68.8271 204.886 62.8943 204.726 55.7682C204.566 48.6422 198.634 42.9698 191.508 43.1297C188.372 43.2 179.479 44.4996 170.42 46.5566C178.102 41.2305 185.183 35.4494 187.373 33.1595C192.309 27.9969 192.125 19.8121 186.962 14.8761C181.8 9.94011 173.615 10.1238 168.679 15.2864C166.569 17.493 161.369 24.4745 156.508 32.1002C158.08 23.1631 158.944 14.4659 158.875 11.4119C158.716 4.28588 152.783 -1.38655 145.657 -1.22664C138.531 -1.06674 132.858 4.86609 133.018 11.9921C133.089 15.1683 134.435 24.3048 136.537 33.5261C131.211 25.8845 125.451 18.823 123.203 16.6735C118.04 11.7375 109.855 11.9211 104.919 17.0838C99.9834 22.2464 100.167 30.4311 105.33 35.3671C107.515 37.457 114.415 42.6188 121.999 47.4394C113.246 45.9247 104.835 45.0949 101.862 45.1616C94.7364 45.3215 89.064 51.2543 89.2239 58.3804C89.3838 65.5064 95.3166 71.1788 102.443 71.0189C105.375 70.9532 113.456 69.794 121.95 67.9534C114.952 72.9382 108.712 78.0486 106.701 80.1512C101.765 85.3138 101.949 93.4985 107.112 98.4345C112.274 103.371 120.459 103.187 125.395 98.0243C127.465 95.8593 132.527 89.0642 137.33 81.5824C135.815 90.3349 134.985 98.7461 135.052 101.719C135.212 108.845 141.145 114.517 148.271 114.357C155.397 114.197 161.069 108.265 160.909 101.138C160.844 98.2474 159.711 90.3895 157.934 82.0367C162.92 89.0748 168.092 95.3347 170.194 97.3449C175.357 102.281 183.542 102.097 188.478 96.9347C193.414 91.7721 193.17 83.609 188.007 78.673Z" fill="#F8F2EC"/>
<ellipse cx="147.412" cy="56.6466" rx="15.6401" ry="15.1099" transform="rotate(43.7146 147.412 56.6466)" fill="#D5CB2C"/>
<path d="M282.275 168.804C280.089 166.714 273.232 161.592 265.668 156.751C274.605 158.322 283.302 159.186 286.356 159.118C293.482 158.958 299.154 153.025 298.994 145.899C298.834 138.773 292.902 133.101 285.776 133.261C282.64 133.331 273.747 134.63 264.688 136.687C272.37 131.361 279.451 125.58 281.641 123.29C286.577 118.128 286.393 109.943 281.231 105.007C276.068 100.071 267.883 100.255 262.947 105.417C260.837 107.624 255.637 114.605 250.776 122.231C252.348 113.294 253.212 104.597 253.144 101.543C252.984 94.4167 247.051 88.7443 239.925 88.9042C232.799 89.0641 227.126 94.997 227.286 102.123C227.357 105.299 228.703 114.436 230.805 123.657C225.479 116.015 219.719 108.954 217.471 106.804C212.308 101.868 204.124 102.052 199.187 107.215C194.251 112.377 194.435 120.562 199.598 125.498C201.784 127.588 208.683 132.75 216.267 137.57C207.514 136.056 199.103 135.226 196.131 135.292C189.004 135.452 183.332 141.385 183.492 148.511C183.652 155.637 189.585 161.31 196.711 161.15C199.643 161.084 207.724 159.925 216.218 158.084C209.22 163.069 202.98 168.18 200.969 170.282C196.033 175.445 196.217 183.629 201.38 188.565C206.542 193.501 214.727 193.318 219.663 188.155C221.733 185.99 226.795 179.195 231.598 171.713C230.083 180.466 229.253 188.877 229.32 191.85C229.48 198.976 235.413 204.648 242.539 204.488C249.665 204.328 255.337 198.395 255.177 191.269C255.112 188.378 253.979 180.52 252.202 172.168C257.188 179.206 262.36 185.466 264.463 187.476C269.625 192.412 277.81 192.228 282.746 187.066C287.682 181.903 287.438 173.74 282.275 168.804Z" fill="#F8F2EC"/>
<ellipse cx="241.68" cy="146.777" rx="15.6401" ry="15.1099" transform="rotate(43.7146 241.68 146.777)" fill="#D5CB2C"/>
<path d="M374.97 71.8537C372.785 69.7639 365.927 64.6418 358.363 59.8004C367.3 61.3721 375.997 62.2362 379.051 62.1677C386.177 62.0078 391.85 56.0749 391.69 48.9489C391.53 41.8229 385.597 36.1504 378.471 36.3103C375.335 36.3807 366.442 37.6802 357.383 39.7372C365.065 34.4112 372.147 28.63 374.336 26.3402C379.272 21.1776 379.088 12.9928 373.926 8.05678C368.763 3.12077 360.578 3.30443 355.642 8.46704C353.533 10.6736 348.332 17.6552 343.472 25.2809C345.043 16.3438 345.907 7.6466 345.839 4.59259C345.679 -2.53345 339.746 -8.20588 332.62 -8.04598C325.494 -7.88608 319.822 -1.95324 319.982 5.1728C320.053 8.34898 321.399 17.4854 323.5 26.7068C318.175 19.0652 312.414 12.0037 310.166 9.85416C305.004 4.91815 296.819 5.10181 291.883 10.2644C286.947 15.427 287.13 23.6118 292.293 28.5478C294.479 30.6376 301.378 35.7995 308.962 40.6201C300.21 39.1053 291.798 38.2756 288.826 38.3423C281.7 38.5022 276.027 44.435 276.187 51.561C276.347 58.6871 282.28 64.3595 289.406 64.1996C292.338 64.1338 300.419 62.9747 308.913 61.1341C301.916 66.1189 295.675 71.2293 293.665 73.3318C288.729 78.4944 288.912 86.6792 294.075 91.6152C299.238 96.5512 307.422 96.3675 312.358 91.2049C314.428 89.04 319.491 82.2449 324.293 74.7631C322.778 83.5156 321.949 91.9268 322.015 94.8994C322.175 102.025 328.108 107.698 335.234 107.538C342.36 107.378 348.033 101.445 347.873 94.3192C347.808 91.428 346.674 83.5701 344.898 75.2174C349.883 82.2555 355.055 88.5154 357.158 90.5256C362.32 95.4616 370.505 95.278 375.441 90.1153C380.377 84.9527 380.133 76.7897 374.97 71.8537Z" fill="#F8F2EC"/>
<ellipse cx="334.375" cy="49.8273" rx="15.6401" ry="15.1099" transform="rotate(43.7146 334.375 49.8273)" fill="#D5CB2C"/>
<path d="M287.713 355.133C285.525 353.041 278.659 347.913 271.087 343.066C280.034 344.639 288.741 345.504 291.799 345.436C298.933 345.276 304.612 339.336 304.452 332.202C304.292 325.067 298.352 319.388 291.218 319.548C288.079 319.619 279.175 320.92 270.106 322.979C277.797 317.647 284.886 311.859 287.078 309.567C292.02 304.398 291.836 296.204 286.667 291.262C281.499 286.32 273.305 286.504 268.363 291.673C266.251 293.882 261.044 300.872 256.178 308.506C257.752 299.559 258.617 290.851 258.548 287.794C258.388 280.66 252.448 274.981 245.314 275.141C238.18 275.301 232.501 281.241 232.661 288.375C232.732 291.555 234.079 300.702 236.183 309.934C230.852 302.283 225.085 295.214 222.834 293.062C217.666 288.12 209.471 288.304 204.53 293.472C199.588 298.641 199.772 306.835 204.94 311.777C207.129 313.869 214.036 319.037 221.629 323.863C212.866 322.347 204.445 321.516 201.469 321.583C194.335 321.743 188.656 327.682 188.816 334.817C188.976 341.951 194.916 347.63 202.05 347.47C204.985 347.404 213.076 346.244 221.58 344.401C214.574 349.391 208.326 354.508 206.313 356.613C201.372 361.781 201.556 369.975 206.724 374.917C211.893 379.859 220.087 379.675 225.029 374.506C227.101 372.339 232.169 365.536 236.977 358.046C235.461 366.808 234.63 375.229 234.697 378.205C234.857 385.339 240.797 391.018 247.931 390.858C255.065 390.698 260.744 384.759 260.584 377.624C260.519 374.73 259.384 366.863 257.606 358.5C262.597 365.547 267.775 371.814 269.88 373.826C275.049 378.768 283.243 378.584 288.185 373.416C293.126 368.247 292.882 360.075 287.713 355.133Z" fill="#F8F2EC"/>
<ellipse cx="247.071" cy="333.081" rx="15.6582" ry="15.1274" transform="rotate(43.7146 247.071 333.081)" fill="#D5CB2C"/>
<path d="M194.911 452.195C192.723 450.103 185.857 444.975 178.284 440.128C187.232 441.702 195.939 442.567 198.996 442.498C206.131 442.338 211.81 436.398 211.65 429.264C211.49 422.13 205.55 416.451 198.416 416.611C195.277 416.681 186.373 417.982 177.303 420.042C184.995 414.709 192.084 408.922 194.276 406.629C199.218 401.461 199.034 393.266 193.865 388.325C188.697 383.383 180.502 383.567 175.561 388.735C173.449 390.945 168.242 397.934 163.376 405.569C164.949 396.621 165.814 387.914 165.746 384.856C165.586 377.722 159.646 372.043 152.512 372.203C145.377 372.363 139.698 378.303 139.859 385.437C139.93 388.617 141.277 397.764 143.381 406.996C138.05 399.346 132.283 392.276 130.032 390.124C124.863 385.182 116.669 385.366 111.727 390.535C106.786 395.703 106.969 403.898 112.138 408.839C114.326 410.932 121.234 416.099 128.826 420.926C120.064 419.409 111.643 418.578 108.667 418.645C101.533 418.805 95.8535 424.745 96.0136 431.879C96.1737 439.013 102.113 444.692 109.248 444.532C112.183 444.467 120.274 443.306 128.777 441.463C121.772 446.454 115.524 451.57 113.511 453.675C108.57 458.844 108.753 467.038 113.922 471.98C119.091 476.921 127.285 476.738 132.226 471.569C134.299 469.401 139.367 462.599 144.175 455.108C142.659 463.871 141.828 472.292 141.895 475.268C142.055 482.402 147.994 488.081 155.129 487.921C162.263 487.761 167.942 481.821 167.782 474.687C167.717 471.792 166.582 463.925 164.804 455.563C169.795 462.609 174.973 468.876 177.078 470.889C182.246 475.831 190.441 475.647 195.382 470.478C200.324 465.31 200.08 457.137 194.911 452.195Z" fill="#F8F2EC"/>
<ellipse cx="154.269" cy="430.143" rx="15.6582" ry="15.1274" transform="rotate(43.7146 154.269 430.143)" fill="#D5CB2C"/>
<path d="M289.288 542.43C287.1 540.337 280.235 535.209 272.662 530.363C281.609 531.936 290.316 532.801 293.374 532.732C300.508 532.572 306.187 526.633 306.027 519.498C305.867 512.364 299.927 506.685 292.793 506.845C289.654 506.916 280.751 508.217 271.681 510.276C279.372 504.944 286.462 499.156 288.653 496.864C293.595 491.695 293.411 483.501 288.243 478.559C283.074 473.617 274.88 473.801 269.938 478.97C267.826 481.179 262.619 488.168 257.753 495.803C259.327 486.856 260.192 478.148 260.123 475.091C259.963 467.957 254.023 462.278 246.889 462.438C239.755 462.598 234.076 468.537 234.236 475.672C234.307 478.852 235.655 487.999 237.758 497.231C232.427 489.58 226.66 482.511 224.409 480.358C219.241 475.417 211.046 475.601 206.105 480.769C201.163 485.938 201.347 494.132 206.516 499.074C208.704 501.166 215.611 506.334 223.204 511.16C214.441 509.643 206.02 508.813 203.044 508.88C195.91 509.04 190.231 514.979 190.391 522.114C190.551 529.248 196.491 534.927 203.625 534.767C206.56 534.701 214.651 533.54 223.155 531.698C216.149 536.688 209.901 541.805 207.889 543.91C202.947 549.078 203.131 557.272 208.299 562.214C213.468 567.156 221.662 566.972 226.604 561.803C228.676 559.636 233.744 552.833 238.553 545.342C237.036 554.105 236.205 562.526 236.272 565.502C236.432 572.636 242.372 578.315 249.506 578.155C256.64 577.995 262.319 572.055 262.159 564.921C262.094 562.027 260.959 554.16 259.181 545.797C264.172 552.844 269.35 559.111 271.455 561.123C276.624 566.065 284.818 565.881 289.76 560.712C294.702 555.544 294.457 547.371 289.288 542.43Z" fill="#F8F2EC"/>
<ellipse cx="248.646" cy="520.378" rx="15.6582" ry="15.1274" transform="rotate(43.7146 248.646 520.378)" fill="#D5CB2C"/>
<path d="M382.09 445.367C379.902 443.275 373.037 438.147 365.464 433.3C374.411 434.874 383.118 435.739 386.176 435.67C393.31 435.51 398.989 429.57 398.829 422.436C398.669 415.302 392.729 409.623 385.595 409.783C382.456 409.853 373.553 411.154 364.483 413.214C372.174 407.881 379.264 402.094 381.455 399.801C386.397 394.632 386.213 386.438 381.045 381.497C375.876 376.555 367.682 376.739 362.74 381.907C360.628 384.116 355.421 391.106 350.555 398.741C352.129 389.793 352.994 381.086 352.925 378.028C352.765 370.894 346.825 365.215 339.691 365.375C332.557 365.535 326.878 371.475 327.038 378.609C327.109 381.789 328.457 390.936 330.56 400.168C325.229 392.518 319.462 385.448 317.211 383.296C312.043 378.354 303.848 378.538 298.907 383.707C293.965 388.875 294.149 397.07 299.318 402.011C301.506 404.103 308.413 409.271 316.006 414.097C307.243 412.581 298.822 411.75 295.846 411.817C288.712 411.977 283.033 417.917 283.193 425.051C283.353 432.185 289.293 437.864 296.427 437.704C299.362 437.638 307.453 436.478 315.957 434.635C308.951 439.626 302.703 444.742 300.691 446.847C295.749 452.016 295.933 460.21 301.101 465.152C306.27 470.093 314.464 469.909 319.406 464.741C321.478 462.573 326.546 455.77 331.355 448.28C329.838 457.043 329.007 465.464 329.074 468.44C329.234 475.574 335.174 481.253 342.308 481.093C349.442 480.933 355.121 474.993 354.961 467.859C354.896 464.964 353.761 457.097 351.983 448.735C356.974 455.781 362.152 462.048 364.257 464.061C369.426 469.002 377.62 468.819 382.562 463.65C387.504 458.481 387.259 450.309 382.09 445.367Z" fill="#F8F2EC"/>
<ellipse cx="341.448" cy="423.315" rx="15.6582" ry="15.1274" transform="rotate(43.7146 341.448 423.315)" fill="#D5CB2C"/>
<path d="M97.5695 173.263C95.3837 171.173 88.5262 166.051 80.962 161.21C89.8991 162.781 98.5963 163.645 101.65 163.577C108.776 163.417 114.449 157.484 114.289 150.358C114.129 143.232 108.196 137.56 101.07 137.72C97.9346 137.79 89.0415 139.089 79.9821 141.146C87.6645 135.82 94.7459 130.039 96.9352 127.749C101.871 122.587 101.688 114.402 96.525 109.466C91.3624 104.53 83.1776 104.714 78.2416 109.876C76.1318 112.083 70.9311 119.064 66.0707 126.69C67.6424 117.753 68.5065 109.056 68.438 106.002C68.2781 98.8757 62.3452 93.2033 55.2192 93.3632C48.0932 93.5231 42.4207 99.4559 42.5806 106.582C42.6519 109.758 43.9977 118.895 46.099 128.116C40.7738 120.474 35.0135 113.413 32.7653 111.263C27.6027 106.327 19.4179 106.511 14.4819 111.674C9.54592 116.836 9.72958 125.021 14.8922 129.957C17.078 132.047 23.9771 137.209 31.5612 142.029C22.8087 140.515 14.3975 139.685 11.4249 139.751C4.2989 139.911 -1.37353 145.844 -1.21363 152.97C-1.05373 160.096 4.87911 165.769 12.0052 165.609C14.937 165.543 23.0184 164.384 31.5123 162.543C24.5149 167.528 18.274 172.638 16.2638 174.741C11.3278 179.904 11.5114 188.088 16.674 193.024C21.8366 197.96 30.0214 197.777 34.9574 192.614C37.0274 190.449 42.0897 183.654 46.8922 176.172C45.3775 184.925 44.5477 193.336 44.6144 196.309C44.7743 203.435 50.7071 209.107 57.8332 208.947C64.9592 208.787 70.6316 202.854 70.4717 195.728C70.4069 192.837 69.2731 184.979 67.4968 176.627C72.4825 183.665 77.6545 189.925 79.757 191.935C84.9196 196.871 93.1043 196.687 98.0404 191.525C102.976 186.362 102.732 178.199 97.5695 173.263Z" fill="#F8F2EC"/>
<ellipse cx="56.9744" cy="151.236" rx="15.6401" ry="15.1099" transform="rotate(43.7146 56.9744 151.236)" fill="#D5CB2C"/>
<path d="M4.8744 270.213C2.68862 268.123 -4.1689 263.001 -11.7331 258.16C-2.79597 259.731 5.90118 260.596 8.9552 260.527C16.0812 260.367 21.7537 254.434 21.5938 247.308C21.4339 240.182 15.501 234.51 8.37498 234.67C5.23953 234.74 -3.65353 236.04 -12.7129 238.097C-5.03058 232.771 2.0508 226.989 4.24016 224.7C9.17617 219.537 8.99251 211.352 3.8299 206.416C-1.33271 201.48 -9.51748 201.664 -14.4535 206.826C-16.5632 209.033 -21.764 216.015 -26.6243 223.64C-25.0527 214.703 -24.1886 206.006 -24.2571 202.952C-24.417 195.826 -30.3498 190.153 -37.4759 190.313C-44.6019 190.473 -50.2743 196.406 -50.1144 203.532C-50.0432 206.708 -48.6974 215.845 -46.596 225.066C-51.9212 217.425 -57.6815 210.363 -59.9298 208.214C-65.0924 203.278 -73.2771 203.461 -78.2131 208.624C-83.1491 213.786 -82.9655 221.971 -77.8029 226.907C-75.6171 228.997 -68.7179 234.159 -61.1338 238.979C-69.8863 237.465 -78.2976 236.635 -81.2701 236.702C-88.3962 236.862 -94.0686 242.794 -93.9087 249.92C-93.7488 257.046 -87.816 262.719 -80.6899 262.559C-77.7581 262.493 -69.6767 261.334 -61.1828 259.493C-68.1802 264.478 -74.4211 269.589 -76.4313 271.691C-81.3673 276.854 -81.1836 285.039 -76.021 289.975C-70.8584 294.911 -62.6737 294.727 -57.7377 289.564C-55.6677 287.399 -50.6054 280.604 -45.8029 273.122C-47.3176 281.875 -48.1474 290.286 -48.0807 293.259C-47.9208 300.385 -41.9879 306.057 -34.8619 305.897C-27.7359 305.737 -22.0634 299.805 -22.2233 292.679C-22.2882 289.787 -23.4219 281.929 -25.1983 273.577C-20.2126 280.615 -15.0406 286.875 -12.9381 288.885C-7.77549 293.821 0.40928 293.637 5.34529 288.475C10.2813 283.312 10.037 275.149 4.8744 270.213Z" fill="#F8F2EC"/>
<path d="M99.1425 360.344C96.9567 358.254 90.0992 353.132 82.535 348.291C91.4721 349.862 100.169 350.726 103.223 350.658C110.349 350.498 116.022 344.565 115.862 337.439C115.702 330.313 109.769 324.641 102.643 324.801C99.5076 324.871 90.6145 326.17 81.5551 328.227C89.2375 322.901 96.3189 317.12 98.5082 314.83C103.444 309.668 103.261 301.483 98.098 296.547C92.9354 291.611 84.7506 291.795 79.8146 296.957C77.7048 299.164 72.5041 306.145 67.6437 313.771C69.2154 304.834 70.0795 296.137 70.011 293.083C69.8511 285.957 63.9182 280.284 56.7922 280.444C49.6662 280.604 43.9937 286.537 44.1536 293.663C44.2249 296.839 45.5707 305.976 47.672 315.197C42.3468 307.555 36.5865 300.494 34.3383 298.344C29.1757 293.408 20.9909 293.592 16.0549 298.755C11.1189 303.917 11.3026 312.102 16.4652 317.038C18.651 319.128 25.5501 324.29 33.1342 329.11C24.3817 327.596 15.9705 326.766 12.9979 326.832C5.8719 326.992 0.199467 332.925 0.35937 340.051C0.519272 347.177 6.45211 352.85 13.5781 352.69C16.51 352.624 24.5914 351.465 33.0853 349.624C26.0879 354.609 19.847 359.72 17.8368 361.822C12.9008 366.985 13.0844 375.169 18.247 380.105C23.4096 385.041 31.5944 384.858 36.5304 379.695C38.6004 377.53 43.6627 370.735 48.4652 363.253C46.9505 372.006 46.1207 380.417 46.1874 383.39C46.3473 390.516 52.2801 396.188 59.4062 396.028C66.5322 395.868 72.2046 389.935 72.0447 382.809C71.9799 379.918 70.8461 372.06 69.0698 363.708C74.0555 370.746 79.2275 377.006 81.33 379.016C86.4926 383.952 94.6773 383.768 99.6134 378.606C104.549 373.443 104.305 365.28 99.1425 360.344Z" fill="#F8F2EC"/>
<ellipse cx="58.5474" cy="338.318" rx="15.6401" ry="15.1099" transform="rotate(43.7146 58.5474 338.318)" fill="#D5CB2C"/>
<path d="M191.838 263.394C189.652 261.304 182.794 256.182 175.23 251.34C184.167 252.912 192.865 253.776 195.919 253.708C203.045 253.548 208.717 247.615 208.557 240.489C208.397 233.363 202.464 227.69 195.338 227.85C192.203 227.921 183.31 229.22 174.25 231.277C181.933 225.951 189.014 220.17 191.204 217.88C196.14 212.718 195.956 204.533 190.793 199.597C185.631 194.661 177.446 194.844 172.51 200.007C170.4 202.214 165.199 209.195 160.339 216.821C161.911 207.884 162.775 199.187 162.706 196.133C162.546 189.007 156.614 183.334 149.488 183.494C142.361 183.654 136.689 189.587 136.849 196.713C136.92 199.889 138.266 209.025 140.367 218.247C135.042 210.605 129.282 203.544 127.034 201.394C121.871 196.458 113.686 196.642 108.75 201.804C103.814 206.967 103.998 215.152 109.161 220.088C111.346 222.178 118.245 227.34 125.83 232.16C117.077 230.645 108.666 229.816 105.693 229.882C98.5672 230.042 92.8948 235.975 93.0547 243.101C93.2146 250.227 99.1474 255.9 106.273 255.74C109.205 255.674 117.287 254.515 125.781 252.674C118.783 257.659 112.542 262.769 110.532 264.872C105.596 270.034 105.78 278.219 110.942 283.155C116.105 288.091 124.29 287.908 129.226 282.745C131.296 280.58 136.358 273.785 141.16 266.303C139.646 275.056 138.816 283.467 138.883 286.439C139.043 293.565 144.975 299.238 152.101 299.078C159.228 298.918 164.9 292.985 164.74 285.859C164.675 282.968 163.541 275.11 161.765 266.757C166.751 273.796 171.923 280.055 174.025 282.066C179.188 287.002 187.373 286.818 192.309 281.655C197.245 276.493 197 268.33 191.838 263.394Z" fill="#F8F2EC"/>
<ellipse cx="151.243" cy="241.367" rx="15.6401" ry="15.1099" transform="rotate(43.7146 151.243 241.367)" fill="#D5CB2C"/>
</g>
<defs>
<clipPath id="clip0_487_413">
<rect width="500" height="500" rx="250" fill="white"/>
</clipPath>
</defs>
</svg>
