<svg width="500" height="500" viewBox="0 0 500 500" fill="none" xmlns="http://www.w3.org/2000/svg">
<g clip-path="url(#clip0_487_299)">
<rect width="500" height="500" rx="250" fill="#FFABDA"/>
<path d="M70.8977 36.5651L70.8962 48.5218C70.8949 59.6974 79.9664 68.7689 91.142 68.7676C96.7298 68.7669 101.807 66.5131 105.473 62.8475C101.807 66.5131 99.5534 71.5905 99.5528 77.1783C99.5521 82.7661 101.805 87.8429 105.469 91.5076C109.134 95.1722 114.211 97.4248 119.799 97.4241L131.755 97.4226L131.754 109.379C131.752 120.555 140.824 129.626 152 129.625C163.175 129.624 172.249 120.55 172.25 109.374L172.252 97.4176L184.209 97.4161C195.384 97.4147 204.458 88.3409 204.459 77.1653C204.461 65.9897 195.389 56.9182 184.214 56.9195L172.257 56.921L172.258 44.9643C172.26 33.7887 163.188 24.7171 152.013 24.7185C146.425 24.7192 141.347 26.973 137.682 30.6385C134.016 34.3041 131.762 39.3815 131.762 44.9693L131.76 56.926L119.743 56.9275C114.156 56.9282 109.078 59.182 105.413 62.8475C109.078 59.182 111.332 54.1046 111.333 48.5168L111.334 36.5601L123.291 36.5586C128.879 36.5579 133.956 34.3041 137.622 30.6386C141.287 26.973 143.541 21.8956 143.542 16.3078C143.543 5.13218 134.472 -3.93938 123.296 -3.938L111.339 -3.93652L111.341 -15.8932C111.342 -27.0688 102.271 -36.1404 91.0949 -36.139C79.9193 -36.1376 70.8455 -27.0639 70.8441 -15.8882L70.8426 -3.93153L58.8859 -3.93005C47.7103 -3.92867 38.6365 5.14513 38.6351 16.3207C38.6344 21.9086 40.887 26.9854 44.5516 30.65C48.2163 34.3147 53.2931 36.5672 58.8809 36.5665L70.8977 36.5651Z" fill="#F38143"/>
<path d="M70.8977 36.5651L70.8962 48.5218C70.8949 59.6974 79.9664 68.7689 91.142 68.7676C96.7298 68.7669 101.807 66.5131 105.473 62.8475C101.807 66.5131 99.5534 71.5905 99.5528 77.1783C99.5521 82.7661 101.805 87.8429 105.469 91.5076C109.134 95.1722 114.211 97.4248 119.799 97.4241L131.755 97.4226L131.754 109.379C131.752 120.555 140.824 129.626 152 129.625C163.175 129.624 172.249 120.55 172.25 109.374L172.252 97.4176L184.209 97.4161C195.384 97.4147 204.458 88.3409 204.459 77.1653C204.461 65.9897 195.389 56.9182 184.214 56.9195L172.257 56.921L172.258 44.9643C172.26 33.7887 163.188 24.7171 152.013 24.7185C146.425 24.7192 141.347 26.973 137.682 30.6385C134.016 34.3041 131.762 39.3815 131.762 44.9693L131.76 56.926L119.743 56.9275C114.156 56.9282 109.078 59.182 105.413 62.8475C109.078 59.182 111.332 54.1046 111.333 48.5168L111.334 36.5601L123.291 36.5586C128.879 36.5579 133.956 34.3041 137.622 30.6386C141.287 26.973 143.541 21.8956 143.542 16.3078C143.543 5.13218 134.472 -3.93938 123.296 -3.938L111.339 -3.93652L111.341 -15.8932C111.342 -27.0688 102.271 -36.1404 91.0949 -36.139C79.9193 -36.1376 70.8455 -27.0639 70.8441 -15.8882L70.8426 -3.93153L58.8859 -3.93005C47.7103 -3.92867 38.6365 5.14513 38.6351 16.3207C38.6344 21.9086 40.887 26.9854 44.5516 30.65C48.2163 34.3147 53.2931 36.5672 58.8809 36.5665L70.8977 36.5651Z" fill="#F38143"/>
<path d="M111.349 158.2L123.306 158.199C134.482 158.197 143.555 149.123 143.557 137.948C143.558 126.772 134.487 117.701 123.311 117.702L111.354 117.703L111.326 105.777C111.326 100.189 109.074 95.1122 105.409 91.4475C101.745 87.7828 96.6677 85.5303 91.0799 85.531C85.4921 85.5317 80.4147 87.7855 76.7491 91.451C73.0836 95.1166 70.8298 100.194 70.8291 105.782L70.8276 117.738L58.9009 117.77C53.3131 117.771 48.2358 120.024 44.5702 123.69C48.2358 120.024 50.4895 114.947 50.4902 109.359L50.4917 97.4026L62.4484 97.4011C68.0362 97.4004 73.1136 95.1466 76.7792 91.4811C80.4447 87.8155 82.6985 82.7381 82.6992 77.1503C82.7006 65.9747 73.629 56.9031 62.4534 56.9045L50.4967 56.906L50.4982 44.9493C50.4989 39.3615 48.2463 34.2847 44.5817 30.62C40.917 26.9553 35.8402 24.7028 30.2524 24.7035C19.0768 24.7049 10.003 33.7787 10.0016 44.9543L10.0001 56.911L-1.95659 56.9125C-13.1322 56.9138 -22.206 65.9876 -22.2074 77.1632C-22.2087 88.3389 -13.1372 97.4104 -1.96158 97.409L9.99512 97.4076L9.99365 109.364C9.99228 120.54 19.0638 129.611 30.2394 129.61C35.8273 129.609 40.9046 127.356 44.5702 123.69C40.9046 127.356 38.6509 132.433 38.6502 138.021C38.6488 149.196 47.7203 158.268 58.896 158.267L70.8527 158.265L70.8512 170.222C70.8498 181.397 79.9214 190.469 91.097 190.468C102.273 190.466 111.346 181.392 111.348 170.217L111.349 158.2Z" fill="#F38143"/>
<path d="M111.349 158.2L123.306 158.199C134.482 158.197 143.555 149.123 143.557 137.948C143.558 126.772 134.487 117.701 123.311 117.702L111.354 117.703L111.326 105.777C111.326 100.189 109.074 95.1122 105.409 91.4475C101.745 87.7828 96.6677 85.5303 91.0799 85.531C85.4921 85.5317 80.4147 87.7855 76.7491 91.451C73.0836 95.1166 70.8298 100.194 70.8291 105.782L70.8276 117.738L58.9009 117.77C53.3131 117.771 48.2358 120.024 44.5702 123.69C48.2358 120.024 50.4895 114.947 50.4902 109.359L50.4917 97.4026L62.4484 97.4011C68.0362 97.4004 73.1136 95.1466 76.7792 91.4811C80.4447 87.8155 82.6985 82.7381 82.6992 77.1503C82.7006 65.9747 73.629 56.9031 62.4534 56.9045L50.4967 56.906L50.4982 44.9493C50.4989 39.3615 48.2463 34.2847 44.5817 30.62C40.917 26.9553 35.8402 24.7028 30.2524 24.7035C19.0768 24.7049 10.003 33.7787 10.0016 44.9543L10.0001 56.911L-1.95659 56.9125C-13.1322 56.9138 -22.206 65.9876 -22.2074 77.1632C-22.2087 88.3389 -13.1372 97.4104 -1.96158 97.409L9.99512 97.4076L9.99365 109.364C9.99228 120.54 19.0638 129.611 30.2394 129.61C35.8273 129.609 40.9046 127.356 44.5702 123.69C40.9046 127.356 38.6509 132.433 38.6502 138.021C38.6488 149.196 47.7203 158.268 58.896 158.267L70.8527 158.265L70.8512 170.222C70.8498 181.397 79.9214 190.469 91.097 190.468C102.273 190.466 111.346 181.392 111.348 170.217L111.349 158.2Z" fill="#F38143"/>
<path d="M192.683 158.35L192.682 170.307C192.681 181.483 201.752 190.554 212.928 190.553C218.515 190.552 223.593 188.298 227.258 184.633C223.593 188.298 221.339 193.376 221.338 198.963C221.338 204.551 223.59 209.628 227.255 213.293C230.92 216.957 235.996 219.21 241.584 219.209L253.541 219.208L253.539 231.164C253.538 242.34 262.61 251.412 273.785 251.41C284.961 251.409 294.035 242.335 294.036 231.159L294.037 219.203L305.994 219.201C317.17 219.2 326.244 210.126 326.245 198.95C326.246 187.775 317.175 178.703 305.999 178.705L294.042 178.706L294.044 166.749C294.045 155.574 284.974 146.502 273.798 146.504C268.21 146.504 263.133 148.758 259.467 152.424C255.802 156.089 253.548 161.167 253.547 166.754L253.546 178.711L241.529 178.713C235.941 178.713 230.864 180.967 227.198 184.633C230.864 180.967 233.118 175.89 233.118 170.302L233.12 158.345L245.077 158.344C250.664 158.343 255.742 156.089 259.407 152.424C263.073 148.758 265.327 143.681 265.327 138.093C265.329 126.917 256.257 117.846 245.082 117.847L233.125 117.849L233.126 105.892C233.128 94.7163 224.056 85.6448 212.881 85.6461C201.705 85.6475 192.631 94.7213 192.63 105.897L192.628 117.854L180.672 117.855C169.496 117.856 160.422 126.93 160.421 138.106C160.42 143.694 162.673 148.771 166.337 152.435C170.002 156.1 175.079 158.352 180.667 158.352L192.683 158.35Z" fill="#F38143"/>
<path d="M192.683 158.35L192.682 170.307C192.681 181.483 201.752 190.554 212.928 190.553C218.515 190.552 223.593 188.298 227.258 184.633C223.593 188.298 221.339 193.376 221.338 198.963C221.338 204.551 223.59 209.628 227.255 213.293C230.92 216.957 235.996 219.21 241.584 219.209L253.541 219.208L253.539 231.164C253.538 242.34 262.61 251.412 273.785 251.41C284.961 251.409 294.035 242.335 294.036 231.159L294.037 219.203L305.994 219.201C317.17 219.2 326.244 210.126 326.245 198.95C326.246 187.775 317.175 178.703 305.999 178.705L294.042 178.706L294.044 166.749C294.045 155.574 284.974 146.502 273.798 146.504C268.21 146.504 263.133 148.758 259.467 152.424C255.802 156.089 253.548 161.167 253.547 166.754L253.546 178.711L241.529 178.713C235.941 178.713 230.864 180.967 227.198 184.633C230.864 180.967 233.118 175.89 233.118 170.302L233.12 158.345L245.077 158.344C250.664 158.343 255.742 156.089 259.407 152.424C263.073 148.758 265.327 143.681 265.327 138.093C265.329 126.917 256.257 117.846 245.082 117.847L233.125 117.849L233.126 105.892C233.128 94.7163 224.056 85.6448 212.881 85.6461C201.705 85.6475 192.631 94.7213 192.63 105.897L192.628 117.854L180.672 117.855C169.496 117.856 160.422 126.93 160.421 138.106C160.42 143.694 162.673 148.771 166.337 152.435C170.002 156.1 175.079 158.352 180.667 158.352L192.683 158.35Z" fill="#E673A9"/>
<path d="M233.135 279.985L245.092 279.984C256.267 279.982 265.341 270.909 265.342 259.733C265.344 248.557 256.272 239.486 245.097 239.487L233.14 239.489L233.111 227.562C233.112 221.974 230.859 216.897 227.195 213.233C223.53 209.568 218.453 207.315 212.866 207.316C207.278 207.317 202.2 209.571 198.535 213.236C194.869 216.902 192.615 221.979 192.615 227.567L192.613 239.524L180.687 239.555C175.099 239.556 170.021 241.81 166.356 245.475C170.021 241.81 172.275 236.732 172.276 231.144L172.277 219.188L184.234 219.186C189.822 219.186 194.899 216.932 198.565 213.266C202.23 209.601 204.484 204.523 204.485 198.935C204.486 187.76 195.415 178.688 184.239 178.69L172.282 178.691L172.284 166.734C172.285 161.147 170.032 156.07 166.367 152.405C162.703 148.74 157.626 146.488 152.038 146.489C140.862 146.49 131.789 155.564 131.787 166.739L131.786 178.696L119.829 178.698C108.653 178.699 99.5797 187.773 99.5783 198.948C99.5769 210.124 108.648 219.196 119.824 219.194L131.781 219.193L131.779 231.149C131.778 242.325 140.849 251.397 152.025 251.395C157.613 251.395 162.69 249.141 166.356 245.475C162.69 249.141 160.437 254.218 160.436 259.806C160.434 270.982 169.506 280.053 180.682 280.052L192.638 280.05L192.637 292.007C192.635 303.183 201.707 312.254 212.883 312.253C224.058 312.251 233.132 303.178 233.133 292.002L233.135 279.985Z" fill="#F38143"/>
<path d="M233.135 279.985L245.092 279.984C256.267 279.982 265.341 270.909 265.342 259.733C265.344 248.557 256.272 239.486 245.097 239.487L233.14 239.489L233.111 227.562C233.112 221.974 230.859 216.897 227.195 213.233C223.53 209.568 218.453 207.315 212.866 207.316C207.278 207.317 202.2 209.571 198.535 213.236C194.869 216.902 192.615 221.979 192.615 227.567L192.613 239.524L180.687 239.555C175.099 239.556 170.021 241.81 166.356 245.475C170.021 241.81 172.275 236.732 172.276 231.144L172.277 219.188L184.234 219.186C189.822 219.186 194.899 216.932 198.565 213.266C202.23 209.601 204.484 204.523 204.485 198.935C204.486 187.76 195.415 178.688 184.239 178.69L172.282 178.691L172.284 166.734C172.285 161.147 170.032 156.07 166.367 152.405C162.703 148.74 157.626 146.488 152.038 146.489C140.862 146.49 131.789 155.564 131.787 166.739L131.786 178.696L119.829 178.698C108.653 178.699 99.5797 187.773 99.5783 198.948C99.5769 210.124 108.648 219.196 119.824 219.194L131.781 219.193L131.779 231.149C131.778 242.325 140.849 251.397 152.025 251.395C157.613 251.395 162.69 249.141 166.356 245.475C162.69 249.141 160.437 254.218 160.436 259.806C160.434 270.982 169.506 280.053 180.682 280.052L192.638 280.05L192.637 292.007C192.635 303.183 201.707 312.254 212.883 312.253C224.058 312.251 233.132 303.178 233.133 292.002L233.135 279.985Z" fill="#E673A9"/>
<path d="M354.802 117.888L354.803 105.931C354.804 94.7558 345.733 85.6842 334.557 85.6856C328.969 85.6863 323.892 87.94 320.226 91.6056C323.892 87.94 326.146 82.8627 326.146 77.2748C326.147 71.687 323.895 66.6102 320.23 62.9456C316.565 59.2809 311.488 57.0284 305.901 57.0291L293.944 57.0305L293.945 45.0738C293.947 33.8982 284.875 24.8266 273.7 24.828C262.524 24.8294 253.45 33.9032 253.449 45.0788L253.447 57.0355L241.491 57.037C230.315 57.0384 221.241 66.1122 221.24 77.2878C221.239 88.4634 230.31 97.535 241.486 97.5336L253.442 97.5321L253.441 109.489C253.44 120.664 262.511 129.736 273.687 129.735C279.275 129.734 284.352 127.48 288.017 123.815C291.683 120.149 293.937 115.072 293.937 109.484L293.939 97.5271L305.956 97.5256C311.544 97.5249 316.621 95.2712 320.287 91.6056C316.621 95.2712 314.367 100.349 314.366 105.936L314.365 117.893L302.408 117.895C296.82 117.895 291.743 120.149 288.078 123.815C284.412 127.48 282.158 132.558 282.158 138.145C282.156 149.321 291.228 158.392 302.403 158.391L314.36 158.39L314.359 170.346C314.357 181.522 323.429 190.594 334.604 190.592C345.78 190.591 354.854 181.517 354.855 170.341L354.857 158.385L366.813 158.383C377.989 158.382 387.063 149.308 387.064 138.132C387.065 132.545 384.812 127.468 381.148 123.803C377.483 120.138 372.406 117.886 366.818 117.887L354.802 117.888Z" fill="#F38143"/>
<path d="M354.802 117.888L354.803 105.931C354.804 94.7558 345.733 85.6842 334.557 85.6856C328.969 85.6863 323.892 87.94 320.226 91.6056C323.892 87.94 326.146 82.8627 326.146 77.2748C326.147 71.687 323.895 66.6102 320.23 62.9456C316.565 59.2809 311.488 57.0284 305.901 57.0291L293.944 57.0305L293.945 45.0738C293.947 33.8982 284.875 24.8266 273.7 24.828C262.524 24.8294 253.45 33.9032 253.449 45.0788L253.447 57.0355L241.491 57.037C230.315 57.0384 221.241 66.1122 221.24 77.2878C221.239 88.4634 230.31 97.535 241.486 97.5336L253.442 97.5321L253.441 109.489C253.44 120.664 262.511 129.736 273.687 129.735C279.275 129.734 284.352 127.48 288.017 123.815C291.683 120.149 293.937 115.072 293.937 109.484L293.939 97.5271L305.956 97.5256C311.544 97.5249 316.621 95.2712 320.287 91.6056C316.621 95.2712 314.367 100.349 314.366 105.936L314.365 117.893L302.408 117.895C296.82 117.895 291.743 120.149 288.078 123.815C284.412 127.48 282.158 132.558 282.158 138.145C282.156 149.321 291.228 158.392 302.403 158.391L314.36 158.39L314.359 170.346C314.357 181.522 323.429 190.594 334.604 190.592C345.78 190.591 354.854 181.517 354.855 170.341L354.857 158.385L366.813 158.383C377.989 158.382 387.063 149.308 387.064 138.132C387.065 132.545 384.812 127.468 381.148 123.803C377.483 120.138 372.406 117.886 366.818 117.887L354.802 117.888Z" fill="#F38143"/>
<path d="M314.35 -3.7469L302.393 -3.74542C291.218 -3.74405 282.144 5.32974 282.142 16.5054C282.141 27.681 291.213 36.7525 302.388 36.7512L314.345 36.7497L314.374 48.6764C314.373 54.2642 316.625 59.341 320.29 63.0056C323.955 66.6703 329.032 68.9228 334.619 68.9221C340.207 68.9215 345.285 66.6677 348.95 63.0021C352.616 59.3365 354.869 54.2592 354.87 48.6714L354.872 36.7147L366.798 36.6831C372.386 36.6824 377.463 34.4287 381.129 30.7631C377.463 34.4287 375.21 39.506 375.209 45.0938L375.208 57.0506L363.251 57.052C357.663 57.0527 352.586 59.3065 348.92 62.9721C345.254 66.6376 343.001 71.715 343 77.3028C342.999 88.4784 352.07 97.55 363.246 97.5486L375.203 97.5471L375.201 109.504C375.2 115.092 377.453 120.168 381.118 123.833C384.782 127.498 389.859 129.75 395.447 129.75C406.622 129.748 415.696 120.674 415.698 109.499L415.699 97.5422L427.656 97.5407C438.831 97.5393 447.905 88.4655 447.907 77.2899C447.908 66.1143 438.836 57.0427 427.661 57.0441L415.704 57.0456L415.706 45.0889C415.707 33.9132 406.635 24.8417 395.46 24.8431C389.872 24.8438 384.795 27.0975 381.129 30.7631C384.795 27.0975 387.048 22.0202 387.049 16.4323C387.05 5.25673 377.979 -3.81482 366.803 -3.81344L354.847 -3.81198L354.848 -15.7687C354.849 -26.9443 345.778 -36.0158 334.602 -36.0145C323.427 -36.0131 314.353 -26.9393 314.351 -15.7637L314.35 -3.7469Z" fill="#F38143"/>
<path d="M314.35 -3.7469L302.393 -3.74542C291.218 -3.74405 282.144 5.32974 282.142 16.5054C282.141 27.681 291.213 36.7525 302.388 36.7512L314.345 36.7497L314.374 48.6764C314.373 54.2642 316.625 59.341 320.29 63.0056C323.955 66.6703 329.032 68.9228 334.619 68.9221C340.207 68.9215 345.285 66.6677 348.95 63.0021C352.616 59.3365 354.869 54.2592 354.87 48.6714L354.872 36.7147L366.798 36.6831C372.386 36.6824 377.463 34.4287 381.129 30.7631C377.463 34.4287 375.21 39.506 375.209 45.0938L375.208 57.0506L363.251 57.052C357.663 57.0527 352.586 59.3065 348.92 62.9721C345.254 66.6376 343.001 71.715 343 77.3028C342.999 88.4784 352.07 97.55 363.246 97.5486L375.203 97.5471L375.201 109.504C375.2 115.092 377.453 120.168 381.118 123.833C384.782 127.498 389.859 129.75 395.447 129.75C406.622 129.748 415.696 120.674 415.698 109.499L415.699 97.5422L427.656 97.5407C438.831 97.5393 447.905 88.4655 447.907 77.2899C447.908 66.1143 438.836 57.0427 427.661 57.0441L415.704 57.0456L415.706 45.0889C415.707 33.9132 406.635 24.8417 395.46 24.8431C389.872 24.8438 384.795 27.0975 381.129 30.7631C384.795 27.0975 387.048 22.0202 387.049 16.4323C387.05 5.25673 377.979 -3.81482 366.803 -3.81344L354.847 -3.81198L354.848 -15.7687C354.849 -26.9443 345.778 -36.0158 334.602 -36.0145C323.427 -36.0131 314.353 -26.9393 314.351 -15.7637L314.35 -3.7469Z" fill="#F38143"/>
<path d="M233.016 -3.89806L233.017 -15.8548C233.019 -27.0304 223.947 -36.1019 212.772 -36.1006C207.184 -36.0999 202.106 -33.8461 198.441 -30.1805C202.106 -33.8461 204.36 -38.9235 204.361 -44.5113C204.362 -50.0991 202.109 -55.1759 198.444 -58.8406C194.78 -62.5052 189.703 -64.7578 184.115 -64.7571L172.158 -64.7556L172.16 -76.7123C172.161 -87.8879 163.09 -96.9595 151.914 -96.9581C140.738 -96.9567 131.665 -87.8829 131.663 -76.7073L131.662 -64.7506L119.705 -64.7491C108.529 -64.7478 99.4556 -55.674 99.4542 -44.4983C99.4529 -33.3227 108.524 -24.2512 119.7 -24.2525L131.657 -24.254L131.655 -12.2973C131.654 -1.1217 140.725 7.94985 151.901 7.94848C157.489 7.94779 162.566 5.69402 166.232 2.02844C169.897 -1.63713 172.151 -6.71451 172.152 -12.3023L172.153 -24.259L184.17 -24.2605C189.758 -24.2612 194.835 -26.515 198.501 -30.1805C194.835 -26.515 192.582 -21.4376 192.581 -15.8498L192.579 -3.89307L180.623 -3.89159C175.035 -3.89091 169.957 -1.63714 166.292 2.02844C162.626 5.69401 160.373 10.7714 160.372 16.3592C160.37 27.5348 169.442 36.6064 180.618 36.605L192.574 36.6035L192.573 48.5602C192.572 59.7358 201.643 68.8074 212.819 68.806C223.994 68.8046 233.068 59.7308 233.069 48.5552L233.071 36.5985L245.028 36.597C256.203 36.5957 265.277 27.5219 265.278 16.3463C265.279 10.7584 263.027 5.68163 259.362 2.01696C255.697 -1.64771 250.62 -3.90023 245.033 -3.89954L233.016 -3.89806Z" fill="#F38143"/>
<path d="M233.016 -3.89806L233.017 -15.8548C233.019 -27.0304 223.947 -36.1019 212.772 -36.1006C207.184 -36.0999 202.106 -33.8461 198.441 -30.1805C202.106 -33.8461 204.36 -38.9235 204.361 -44.5113C204.362 -50.0991 202.109 -55.1759 198.444 -58.8406C194.78 -62.5052 189.703 -64.7578 184.115 -64.7571L172.158 -64.7556L172.16 -76.7123C172.161 -87.8879 163.09 -96.9595 151.914 -96.9581C140.738 -96.9567 131.665 -87.8829 131.663 -76.7073L131.662 -64.7506L119.705 -64.7491C108.529 -64.7478 99.4556 -55.674 99.4542 -44.4983C99.4529 -33.3227 108.524 -24.2512 119.7 -24.2525L131.657 -24.254L131.655 -12.2973C131.654 -1.1217 140.725 7.94985 151.901 7.94848C157.489 7.94779 162.566 5.69402 166.232 2.02844C169.897 -1.63713 172.151 -6.71451 172.152 -12.3023L172.153 -24.259L184.17 -24.2605C189.758 -24.2612 194.835 -26.515 198.501 -30.1805C194.835 -26.515 192.582 -21.4376 192.581 -15.8498L192.579 -3.89307L180.623 -3.89159C175.035 -3.89091 169.957 -1.63714 166.292 2.02844C162.626 5.69401 160.373 10.7714 160.372 16.3592C160.37 27.5348 169.442 36.6064 180.618 36.605L192.574 36.6035L192.573 48.5602C192.572 59.7358 201.643 68.8074 212.819 68.806C223.994 68.8046 233.068 59.7308 233.069 48.5552L233.071 36.5985L245.028 36.597C256.203 36.5957 265.277 27.5219 265.278 16.3463C265.279 10.7584 263.027 5.68163 259.362 2.01696C255.697 -1.64771 250.62 -3.90023 245.033 -3.89954L233.016 -3.89806Z" fill="#E673A9"/>
<path d="M192.564 -125.533L180.608 -125.532C169.432 -125.53 160.358 -116.456 160.357 -105.281C160.355 -94.1052 169.427 -85.0336 180.603 -85.035L192.559 -85.0364L192.588 -73.1098C192.587 -67.522 194.84 -62.4452 198.504 -58.7805C202.169 -55.1158 207.246 -52.8633 212.834 -52.864C218.422 -52.8647 223.499 -55.1185 227.164 -58.784C230.83 -62.4496 233.084 -67.527 233.084 -73.1148L233.086 -85.0715L245.013 -85.103C250.6 -85.1037 255.678 -87.3575 259.343 -91.023C255.678 -87.3575 253.424 -82.2801 253.423 -76.6923L253.422 -64.7356L241.465 -64.7341C235.877 -64.7334 230.8 -62.4796 227.134 -58.8141C223.469 -55.1485 221.215 -50.0711 221.214 -44.4833C221.213 -33.3077 230.285 -24.2361 241.46 -24.2375L253.417 -24.239L253.415 -12.2823C253.415 -6.69448 255.667 -1.61766 259.332 2.04701C262.997 5.71168 268.073 7.9642 273.661 7.96351C284.837 7.96213 293.911 -1.11165 293.912 -12.2873L293.913 -24.244L305.87 -24.2455C317.046 -24.2468 326.12 -33.3206 326.121 -44.4962C326.122 -55.6719 317.051 -64.7434 305.875 -64.742L293.918 -64.7406L293.92 -76.6973C293.921 -87.8729 284.85 -96.9444 273.674 -96.9431C268.086 -96.9424 263.009 -94.6886 259.343 -91.023C263.009 -94.6886 265.263 -99.766 265.263 -105.354C265.265 -116.529 256.193 -125.601 245.018 -125.6L233.061 -125.598L233.062 -137.555C233.064 -148.73 223.992 -157.802 212.817 -157.801C201.641 -157.799 192.567 -148.725 192.566 -137.55L192.564 -125.533Z" fill="#F38143"/>
<path d="M192.564 -125.533L180.608 -125.532C169.432 -125.53 160.358 -116.456 160.357 -105.281C160.355 -94.1052 169.427 -85.0336 180.603 -85.035L192.559 -85.0364L192.588 -73.1098C192.587 -67.522 194.84 -62.4452 198.504 -58.7805C202.169 -55.1158 207.246 -52.8633 212.834 -52.864C218.422 -52.8647 223.499 -55.1185 227.164 -58.784C230.83 -62.4496 233.084 -67.527 233.084 -73.1148L233.086 -85.0715L245.013 -85.103C250.6 -85.1037 255.678 -87.3575 259.343 -91.023C255.678 -87.3575 253.424 -82.2801 253.423 -76.6923L253.422 -64.7356L241.465 -64.7341C235.877 -64.7334 230.8 -62.4796 227.134 -58.8141C223.469 -55.1485 221.215 -50.0711 221.214 -44.4833C221.213 -33.3077 230.285 -24.2361 241.46 -24.2375L253.417 -24.239L253.415 -12.2823C253.415 -6.69448 255.667 -1.61766 259.332 2.04701C262.997 5.71168 268.073 7.9642 273.661 7.96351C284.837 7.96213 293.911 -1.11165 293.912 -12.2873L293.913 -24.244L305.87 -24.2455C317.046 -24.2468 326.12 -33.3206 326.121 -44.4962C326.122 -55.6719 317.051 -64.7434 305.875 -64.742L293.918 -64.7406L293.92 -76.6973C293.921 -87.8729 284.85 -96.9444 273.674 -96.9431C268.086 -96.9424 263.009 -94.6886 259.343 -91.023C263.009 -94.6886 265.263 -99.766 265.263 -105.354C265.265 -116.529 256.193 -125.601 245.018 -125.6L233.061 -125.598L233.062 -137.555C233.064 -148.73 223.992 -157.802 212.817 -157.801C201.641 -157.799 192.567 -148.725 192.566 -137.55L192.564 -125.533Z" fill="#E673A9"/>
<path d="M111.298 361.392L111.299 349.435C111.3 338.26 102.229 329.188 91.0533 329.189C85.4655 329.19 80.3881 331.444 76.7225 335.11C80.3881 331.444 82.6419 326.367 82.6426 320.779C82.6433 315.191 80.3907 310.114 76.7261 306.449C73.0614 302.785 67.9846 300.532 62.3968 300.533L50.4401 300.534L50.4416 288.578C50.4429 277.402 41.3714 268.331 30.1958 268.332C19.0201 268.333 9.94634 277.407 9.94496 288.583L9.94349 300.539L-2.01322 300.541C-13.1888 300.542 -22.2626 309.616 -22.264 320.792C-22.2654 331.967 -13.1938 341.039 -2.01822 341.037L9.93849 341.036L9.93701 352.993C9.93563 364.168 19.0072 373.24 30.1828 373.239C35.7706 373.238 40.848 370.984 44.5136 367.318C48.1791 363.653 50.4329 358.576 50.4336 352.988L50.4351 341.031L62.4519 341.03C68.0397 341.029 73.117 338.775 76.7826 335.11C73.117 338.775 70.8633 343.852 70.8626 349.44L70.8611 361.397L58.9044 361.398C53.3166 361.399 48.2392 363.653 44.5736 367.318C40.9081 370.984 38.6543 376.061 38.6536 381.649C38.6522 392.825 47.7238 401.896 58.8994 401.895L70.8561 401.894L70.8546 413.85C70.8532 425.026 79.9248 434.097 91.1004 434.096C102.276 434.095 111.35 425.021 111.351 413.845L111.353 401.889L123.309 401.887C134.485 401.886 143.559 392.812 143.56 381.636C143.561 376.048 141.308 370.972 137.644 367.307C133.979 363.642 128.902 361.39 123.314 361.39L111.298 361.392Z" fill="#F38143"/>
<path d="M111.298 361.392L111.299 349.435C111.3 338.26 102.229 329.188 91.0533 329.189C85.4655 329.19 80.3881 331.444 76.7225 335.11C80.3881 331.444 82.6419 326.367 82.6426 320.779C82.6433 315.191 80.3907 310.114 76.7261 306.449C73.0614 302.785 67.9846 300.532 62.3968 300.533L50.4401 300.534L50.4416 288.578C50.4429 277.402 41.3714 268.331 30.1958 268.332C19.0201 268.333 9.94634 277.407 9.94496 288.583L9.94349 300.539L-2.01322 300.541C-13.1888 300.542 -22.2626 309.616 -22.264 320.792C-22.2654 331.967 -13.1938 341.039 -2.01822 341.037L9.93849 341.036L9.93701 352.993C9.93563 364.168 19.0072 373.24 30.1828 373.239C35.7706 373.238 40.848 370.984 44.5136 367.318C48.1791 363.653 50.4329 358.576 50.4336 352.988L50.4351 341.031L62.4519 341.03C68.0397 341.029 73.117 338.775 76.7826 335.11C73.117 338.775 70.8633 343.852 70.8626 349.44L70.8611 361.397L58.9044 361.398C53.3166 361.399 48.2392 363.653 44.5736 367.318C40.9081 370.984 38.6543 376.061 38.6536 381.649C38.6522 392.825 47.7238 401.896 58.8994 401.895L70.8561 401.894L70.8546 413.85C70.8532 425.026 79.9248 434.097 91.1004 434.096C102.276 434.095 111.35 425.021 111.351 413.845L111.353 401.889L123.309 401.887C134.485 401.886 143.559 392.812 143.56 381.636C143.561 376.048 141.308 370.972 137.644 367.307C133.979 363.642 128.902 361.39 123.314 361.39L111.298 361.392Z" fill="#F38143"/>
<path d="M70.8461 239.757L58.8894 239.758C47.7137 239.76 38.64 248.834 38.6386 260.009C38.6372 271.185 47.7088 280.256 58.8844 280.255L70.8411 280.254L70.8697 292.18C70.869 297.768 73.1215 302.845 76.7861 306.51C80.4508 310.174 85.5276 312.427 91.1154 312.426C96.7033 312.425 101.781 310.172 105.446 306.506C109.112 302.84 111.366 297.763 111.366 292.175L111.368 280.219L123.294 280.187C128.882 280.186 133.96 277.933 137.625 274.267C133.96 277.933 131.706 283.01 131.705 288.598L131.704 300.554L119.747 300.556C114.159 300.557 109.082 302.81 105.416 306.476C101.751 310.142 99.4968 315.219 99.4961 320.807C99.4947 331.982 108.566 341.054 119.742 341.053L131.699 341.051L131.697 353.008C131.696 358.596 133.949 363.672 137.614 367.337C141.278 371.002 146.355 373.254 151.943 373.254C163.119 373.252 172.192 364.178 172.194 353.003L172.195 341.046L184.152 341.045C195.328 341.043 204.401 331.969 204.403 320.794C204.404 309.618 195.333 300.547 184.157 300.548L172.2 300.549L172.202 288.593C172.203 277.417 163.131 268.346 151.956 268.347C146.368 268.348 141.291 270.601 137.625 274.267C141.291 270.601 143.544 265.524 143.545 259.936C143.547 248.761 134.475 239.689 123.299 239.69L111.343 239.692L111.344 227.735C111.346 216.56 102.274 207.488 91.0984 207.489C79.9227 207.491 70.8489 216.565 70.8476 227.74L70.8461 239.757Z" fill="#F38143"/>
<path d="M70.8461 239.757L58.8894 239.758C47.7137 239.76 38.64 248.834 38.6386 260.009C38.6372 271.185 47.7088 280.256 58.8844 280.255L70.8411 280.254L70.8697 292.18C70.869 297.768 73.1215 302.845 76.7861 306.51C80.4508 310.174 85.5276 312.427 91.1154 312.426C96.7033 312.425 101.781 310.172 105.446 306.506C109.112 302.84 111.366 297.763 111.366 292.175L111.368 280.219L123.294 280.187C128.882 280.186 133.96 277.933 137.625 274.267C133.96 277.933 131.706 283.01 131.705 288.598L131.704 300.554L119.747 300.556C114.159 300.557 109.082 302.81 105.416 306.476C101.751 310.142 99.4968 315.219 99.4961 320.807C99.4947 331.982 108.566 341.054 119.742 341.053L131.699 341.051L131.697 353.008C131.696 358.596 133.949 363.672 137.614 367.337C141.278 371.002 146.355 373.254 151.943 373.254C163.119 373.252 172.192 364.178 172.194 353.003L172.195 341.046L184.152 341.045C195.328 341.043 204.401 331.969 204.403 320.794C204.404 309.618 195.333 300.547 184.157 300.548L172.2 300.549L172.202 288.593C172.203 277.417 163.131 268.346 151.956 268.347C146.368 268.348 141.291 270.601 137.625 274.267C141.291 270.601 143.544 265.524 143.545 259.936C143.547 248.761 134.475 239.689 123.299 239.69L111.343 239.692L111.344 227.735C111.346 216.56 102.274 207.488 91.0984 207.489C79.9227 207.491 70.8489 216.565 70.8476 227.74L70.8461 239.757Z" fill="#F38143"/>
<path d="M-10.488 239.606L-10.4866 227.649C-10.4852 216.474 -19.5567 207.402 -30.7324 207.403C-36.3202 207.404 -41.3975 209.658 -45.0631 213.323C-41.3975 209.658 -39.1438 204.58 -39.1431 198.993C-39.1424 193.405 -41.3949 188.328 -45.0596 184.663C-48.7242 180.999 -53.8011 178.746 -59.3889 178.747L-71.3456 178.748L-71.3441 166.792C-71.3427 155.616 -80.4143 146.544 -91.5899 146.546C-102.766 146.547 -111.839 155.621 -111.841 166.797L-111.842 178.753L-123.799 178.755C-134.974 178.756 -144.048 187.83 -144.05 199.006C-144.051 210.181 -134.979 219.253 -123.804 219.251L-111.847 219.25L-111.849 231.207C-111.85 242.382 -102.778 251.454 -91.6028 251.452C-86.015 251.452 -80.9377 249.198 -77.2721 245.532C-73.6065 241.867 -71.3527 236.789 -71.3521 231.202L-71.3506 219.245L-59.3338 219.243C-53.746 219.243 -48.6686 216.989 -45.003 213.323C-48.6686 216.989 -50.9224 222.066 -50.9231 227.654L-50.9245 239.611L-62.8813 239.612C-68.4691 239.613 -73.5464 241.867 -77.212 245.532C-80.8776 249.198 -83.1314 254.275 -83.132 259.863C-83.1334 271.039 -74.0619 280.11 -62.8863 280.109L-50.9295 280.107L-50.931 292.064C-50.9324 303.24 -41.8608 312.311 -30.6852 312.31C-19.5096 312.309 -10.4358 303.235 -10.4344 292.059L-10.433 280.102L1.52375 280.101C12.6994 280.1 21.7732 271.026 21.7745 259.85C21.7752 254.262 19.5227 249.186 15.858 245.521C12.1934 241.856 7.11656 239.604 1.52875 239.604L-10.488 239.606Z" fill="#F38143"/>
<path d="M-10.488 239.606L-10.4866 227.649C-10.4852 216.474 -19.5567 207.402 -30.7324 207.403C-36.3202 207.404 -41.3975 209.658 -45.0631 213.323C-41.3975 209.658 -39.1438 204.58 -39.1431 198.993C-39.1424 193.405 -41.3949 188.328 -45.0596 184.663C-48.7242 180.999 -53.8011 178.746 -59.3889 178.747L-71.3456 178.748L-71.3441 166.792C-71.3427 155.616 -80.4143 146.544 -91.5899 146.546C-102.766 146.547 -111.839 155.621 -111.841 166.797L-111.842 178.753L-123.799 178.755C-134.974 178.756 -144.048 187.83 -144.05 199.006C-144.051 210.181 -134.979 219.253 -123.804 219.251L-111.847 219.25L-111.849 231.207C-111.85 242.382 -102.778 251.454 -91.6028 251.452C-86.015 251.452 -80.9377 249.198 -77.2721 245.532C-73.6065 241.867 -71.3527 236.789 -71.3521 231.202L-71.3506 219.245L-59.3338 219.243C-53.746 219.243 -48.6686 216.989 -45.003 213.323C-48.6686 216.989 -50.9224 222.066 -50.9231 227.654L-50.9245 239.611L-62.8813 239.612C-68.4691 239.613 -73.5464 241.867 -77.212 245.532C-80.8776 249.198 -83.1314 254.275 -83.132 259.863C-83.1334 271.039 -74.0619 280.11 -62.8863 280.109L-50.9295 280.107L-50.931 292.064C-50.9324 303.24 -41.8608 312.311 -30.6852 312.31C-19.5096 312.309 -10.4358 303.235 -10.4344 292.059L-10.433 280.102L1.52375 280.101C12.6994 280.1 21.7732 271.026 21.7745 259.85C21.7752 254.262 19.5227 249.186 15.858 245.521C12.1934 241.856 7.11656 239.604 1.52875 239.604L-10.488 239.606Z" fill="#E673A9"/>
<path d="M-50.9396 117.971L-62.8963 117.972C-74.0719 117.974 -83.1457 127.048 -83.1471 138.223C-83.1484 149.399 -74.0769 158.47 -62.9013 158.469L-50.9446 158.467L-50.916 170.394C-50.9167 175.982 -48.6642 181.059 -44.9995 184.723C-41.3348 188.388 -36.258 190.641 -30.6702 190.64C-25.0824 190.639 -20.005 188.385 -16.3395 184.72C-12.6739 181.054 -10.4201 175.977 -10.4194 170.389L-10.4179 158.432L1.50873 158.401C7.09654 158.4 12.1739 156.146 15.8395 152.481C12.1739 156.146 9.92014 161.224 9.91945 166.812L9.91796 178.768L-2.03875 178.77C-7.62655 178.77 -12.7039 181.024 -16.3695 184.69C-20.0351 188.355 -22.2888 193.433 -22.2895 199.021C-22.2909 210.196 -13.2194 219.268 -2.04374 219.266L9.91297 219.265L9.91149 231.222C9.91081 236.809 12.1633 241.886 15.828 245.551C19.4927 249.216 24.5695 251.468 30.1573 251.467C41.3329 251.466 50.4067 242.392 50.4081 231.217L50.4095 219.26L62.3663 219.258C73.5419 219.257 82.6157 210.183 82.6171 199.008C82.6184 187.832 73.5469 178.76 62.3713 178.762L50.4146 178.763L50.416 166.807C50.4174 155.631 41.3458 146.559 30.1702 146.561C24.5824 146.562 19.505 148.815 15.8395 152.481C19.505 148.815 21.7588 143.738 21.7595 138.15C21.7609 126.975 12.6893 117.903 1.51373 117.904L-10.443 117.906L-10.4415 105.949C-10.4401 94.7735 -19.5117 85.7019 -30.6873 85.7033C-41.8629 85.7047 -50.9367 94.7785 -50.9381 105.954L-50.9396 117.971Z" fill="#F38143"/>
<path d="M-50.9396 117.971L-62.8963 117.972C-74.0719 117.974 -83.1457 127.048 -83.1471 138.223C-83.1484 149.399 -74.0769 158.47 -62.9013 158.469L-50.9446 158.467L-50.916 170.394C-50.9167 175.982 -48.6642 181.059 -44.9995 184.723C-41.3348 188.388 -36.258 190.641 -30.6702 190.64C-25.0824 190.639 -20.005 188.385 -16.3395 184.72C-12.6739 181.054 -10.4201 175.977 -10.4194 170.389L-10.4179 158.432L1.50873 158.401C7.09654 158.4 12.1739 156.146 15.8395 152.481C12.1739 156.146 9.92014 161.224 9.91945 166.812L9.91796 178.768L-2.03875 178.77C-7.62655 178.77 -12.7039 181.024 -16.3695 184.69C-20.0351 188.355 -22.2888 193.433 -22.2895 199.021C-22.2909 210.196 -13.2194 219.268 -2.04374 219.266L9.91297 219.265L9.91149 231.222C9.91081 236.809 12.1633 241.886 15.828 245.551C19.4927 249.216 24.5695 251.468 30.1573 251.467C41.3329 251.466 50.4067 242.392 50.4081 231.217L50.4095 219.26L62.3663 219.258C73.5419 219.257 82.6157 210.183 82.6171 199.008C82.6184 187.832 73.5469 178.76 62.3713 178.762L50.4146 178.763L50.416 166.807C50.4174 155.631 41.3458 146.559 30.1702 146.561C24.5824 146.562 19.505 148.815 15.8395 152.481C19.505 148.815 21.7588 143.738 21.7595 138.15C21.7609 126.975 12.6893 117.903 1.51373 117.904L-10.443 117.906L-10.4415 105.949C-10.4401 94.7735 -19.5117 85.7019 -30.6873 85.7033C-41.8629 85.7047 -50.9367 94.7785 -50.9381 105.954L-50.9396 117.971Z" fill="#E673A9"/>
<path d="M313.78 279.447L313.778 291.404C313.777 302.579 322.848 311.651 334.024 311.649C339.612 311.649 344.689 309.395 348.355 305.729C344.689 309.395 342.435 314.472 342.435 320.06C342.434 325.648 344.686 330.725 348.351 334.389C352.016 338.054 357.093 340.307 362.68 340.306L374.637 340.304L374.636 352.261C374.634 363.437 383.706 372.508 394.881 372.507C406.057 372.506 415.131 363.432 415.132 352.256L415.134 340.299L427.09 340.298C438.266 340.297 447.34 331.223 447.341 320.047C447.343 308.872 438.271 299.8 427.095 299.801L415.139 299.803L415.14 287.846C415.142 276.671 406.07 267.599 394.894 267.6C389.307 267.601 384.229 269.855 380.564 273.52C376.898 277.186 374.644 282.263 374.644 287.851L374.642 299.808L362.625 299.809C357.037 299.81 351.96 302.064 348.295 305.729C351.96 302.064 354.214 296.986 354.215 291.399L354.216 279.442L366.173 279.44C371.761 279.44 376.838 277.186 380.504 273.52C384.169 269.855 386.423 264.777 386.424 259.19C386.425 248.014 377.353 238.942 366.178 238.944L354.221 238.945L354.223 226.989C354.224 215.813 345.152 206.741 333.977 206.743C322.801 206.744 313.727 215.818 313.726 226.994L313.724 238.95L301.768 238.952C290.592 238.953 281.518 248.027 281.517 259.203C281.516 264.79 283.769 269.867 287.433 273.532C291.098 277.197 296.175 279.449 301.763 279.448L313.78 279.447Z" fill="#F38143"/>
<path d="M313.78 279.447L313.778 291.404C313.777 302.579 322.848 311.651 334.024 311.649C339.612 311.649 344.689 309.395 348.355 305.729C344.689 309.395 342.435 314.472 342.435 320.06C342.434 325.648 344.686 330.725 348.351 334.389C352.016 338.054 357.093 340.307 362.68 340.306L374.637 340.304L374.636 352.261C374.634 363.437 383.706 372.508 394.881 372.507C406.057 372.506 415.131 363.432 415.132 352.256L415.134 340.299L427.09 340.298C438.266 340.297 447.34 331.223 447.341 320.047C447.343 308.872 438.271 299.8 427.095 299.801L415.139 299.803L415.14 287.846C415.142 276.671 406.07 267.599 394.894 267.6C389.307 267.601 384.229 269.855 380.564 273.52C376.898 277.186 374.644 282.263 374.644 287.851L374.642 299.808L362.625 299.809C357.037 299.81 351.96 302.064 348.295 305.729C351.96 302.064 354.214 296.986 354.215 291.399L354.216 279.442L366.173 279.44C371.761 279.44 376.838 277.186 380.504 273.52C384.169 269.855 386.423 264.777 386.424 259.19C386.425 248.014 377.353 238.942 366.178 238.944L354.221 238.945L354.223 226.989C354.224 215.813 345.152 206.741 333.977 206.743C322.801 206.744 313.727 215.818 313.726 226.994L313.724 238.95L301.768 238.952C290.592 238.953 281.518 248.027 281.517 259.203C281.516 264.79 283.769 269.867 287.433 273.532C291.098 277.197 296.175 279.449 301.763 279.448L313.78 279.447Z" fill="#F38143"/>
<path d="M354.231 401.082L366.188 401.08C377.363 401.079 386.437 392.005 386.439 380.83C386.44 369.654 377.368 360.582 366.193 360.584L354.236 360.585L354.208 348.659C354.208 343.071 351.956 337.994 348.291 334.329C344.626 330.665 339.55 328.412 333.962 328.413C328.374 328.414 323.297 330.667 319.631 334.333C315.965 337.998 313.712 343.076 313.711 348.664L313.709 360.62L301.783 360.652C296.195 360.653 291.118 362.906 287.452 366.572C291.118 362.906 293.371 357.829 293.372 352.241L293.374 340.284L305.33 340.283C310.918 340.282 315.995 338.028 319.661 334.363C323.327 330.697 325.58 325.62 325.581 320.032C325.582 308.857 316.511 299.785 305.335 299.786L293.379 299.788L293.38 287.831C293.381 282.243 291.128 277.166 287.464 273.502C283.799 269.837 278.722 267.585 273.134 267.585C261.959 267.587 252.885 276.66 252.883 287.836L252.882 299.793L240.925 299.794C229.75 299.796 220.676 308.869 220.674 320.045C220.673 331.221 229.745 340.292 240.92 340.291L252.877 340.289L252.875 352.246C252.874 363.422 261.946 372.493 273.121 372.492C278.709 372.491 283.786 370.237 287.452 366.572C283.786 370.237 281.533 375.315 281.532 380.903C281.531 392.078 290.602 401.15 301.778 401.148L313.734 401.147L313.733 413.104C313.732 424.279 322.803 433.351 333.979 433.349C345.154 433.348 354.228 424.274 354.23 413.099L354.231 401.082Z" fill="#F38143"/>
<path d="M354.231 401.082L366.188 401.08C377.363 401.079 386.437 392.005 386.439 380.83C386.44 369.654 377.368 360.582 366.193 360.584L354.236 360.585L354.208 348.659C354.208 343.071 351.956 337.994 348.291 334.329C344.626 330.665 339.55 328.412 333.962 328.413C328.374 328.414 323.297 330.667 319.631 334.333C315.965 337.998 313.712 343.076 313.711 348.664L313.709 360.62L301.783 360.652C296.195 360.653 291.118 362.906 287.452 366.572C291.118 362.906 293.371 357.829 293.372 352.241L293.374 340.284L305.33 340.283C310.918 340.282 315.995 338.028 319.661 334.363C323.327 330.697 325.58 325.62 325.581 320.032C325.582 308.857 316.511 299.785 305.335 299.786L293.379 299.788L293.38 287.831C293.381 282.243 291.128 277.166 287.464 273.502C283.799 269.837 278.722 267.585 273.134 267.585C261.959 267.587 252.885 276.66 252.883 287.836L252.882 299.793L240.925 299.794C229.75 299.796 220.676 308.869 220.674 320.045C220.673 331.221 229.745 340.292 240.92 340.291L252.877 340.289L252.875 352.246C252.874 363.422 261.946 372.493 273.121 372.492C278.709 372.491 283.786 370.237 287.452 366.572C283.786 370.237 281.533 375.315 281.532 380.903C281.531 392.078 290.602 401.15 301.778 401.148L313.734 401.147L313.733 413.104C313.732 424.279 322.803 433.351 333.979 433.349C345.154 433.348 354.228 424.274 354.23 413.099L354.231 401.082Z" fill="#F38143"/>
<path d="M435.565 401.233L435.564 413.19C435.563 424.365 444.634 433.437 455.81 433.436C461.398 433.435 466.475 431.181 470.141 427.515C466.475 431.181 464.221 436.258 464.22 441.846C464.22 447.434 466.472 452.511 470.137 456.176C473.802 459.84 478.878 462.093 484.466 462.092L496.423 462.091L496.421 474.047C496.42 485.223 505.492 494.294 516.667 494.293C527.843 494.292 536.917 485.218 536.918 474.042L536.92 462.086L548.876 462.084C560.052 462.083 569.126 453.009 569.127 441.833C569.128 430.658 560.057 421.586 548.881 421.587L536.925 421.589L536.926 409.632C536.927 398.457 527.856 389.385 516.68 389.386C511.092 389.387 506.015 391.641 502.349 395.307C498.684 398.972 496.43 404.049 496.429 409.637L496.428 421.594L484.411 421.595C478.823 421.596 473.746 423.85 470.08 427.515C473.746 423.85 476 418.773 476 413.185L476.002 401.228L487.959 401.227C493.546 401.226 498.624 398.972 502.289 395.307C505.955 391.641 508.209 386.564 508.209 380.976C508.211 369.8 499.139 360.729 487.964 360.73L476.007 360.731L476.008 348.775C476.01 337.599 466.938 328.528 455.763 328.529C444.587 328.53 435.513 337.604 435.512 348.78L435.51 360.736L423.554 360.738C412.378 360.739 403.304 369.813 403.303 380.989C403.302 386.577 405.555 391.653 409.219 395.318C412.884 398.983 417.961 401.235 423.549 401.235L435.565 401.233Z" fill="#F38143"/>
<path d="M435.565 401.233L435.564 413.19C435.563 424.365 444.634 433.437 455.81 433.436C461.398 433.435 466.475 431.181 470.141 427.515C466.475 431.181 464.221 436.258 464.22 441.846C464.22 447.434 466.472 452.511 470.137 456.176C473.802 459.84 478.878 462.093 484.466 462.092L496.423 462.091L496.421 474.047C496.42 485.223 505.492 494.294 516.667 494.293C527.843 494.292 536.917 485.218 536.918 474.042L536.92 462.086L548.876 462.084C560.052 462.083 569.126 453.009 569.127 441.833C569.128 430.658 560.057 421.586 548.881 421.587L536.925 421.589L536.926 409.632C536.927 398.457 527.856 389.385 516.68 389.386C511.092 389.387 506.015 391.641 502.349 395.307C498.684 398.972 496.43 404.049 496.429 409.637L496.428 421.594L484.411 421.595C478.823 421.596 473.746 423.85 470.08 427.515C473.746 423.85 476 418.773 476 413.185L476.002 401.228L487.959 401.227C493.546 401.226 498.624 398.972 502.289 395.307C505.955 391.641 508.209 386.564 508.209 380.976C508.211 369.8 499.139 360.729 487.964 360.73L476.007 360.731L476.008 348.775C476.01 337.599 466.938 328.528 455.763 328.529C444.587 328.53 435.513 337.604 435.512 348.78L435.51 360.736L423.554 360.738C412.378 360.739 403.304 369.813 403.303 380.989C403.302 386.577 405.555 391.653 409.219 395.318C412.884 398.983 417.961 401.235 423.549 401.235L435.565 401.233Z" fill="#E673A9"/>
<path d="M476.017 522.868L487.974 522.867C499.149 522.865 508.223 513.791 508.224 502.616C508.226 491.44 499.154 482.369 487.979 482.37L476.022 482.371L475.993 470.445C475.994 464.857 473.742 459.78 470.077 456.115C466.412 452.451 461.335 450.198 455.748 450.199C450.16 450.2 445.082 452.453 441.417 456.119C437.751 459.785 435.498 464.862 435.497 470.45L435.495 482.406L423.569 482.438C417.981 482.439 412.903 484.692 409.238 488.358C412.903 484.692 415.157 479.615 415.158 474.027L415.159 462.071L427.116 462.069C432.704 462.068 437.781 459.815 441.447 456.149C445.112 452.483 447.366 447.406 447.367 441.818C447.368 430.643 438.297 421.571 427.121 421.572L415.164 421.574L415.166 409.617C415.167 404.029 412.914 398.953 409.249 395.288C405.585 391.623 400.508 389.371 394.92 389.371C383.744 389.373 374.671 398.447 374.669 409.622L374.668 421.579L362.711 421.58C351.536 421.582 342.462 430.656 342.46 441.831C342.459 453.007 351.531 462.078 362.706 462.077L374.663 462.076L374.661 474.032C374.66 485.208 383.732 494.279 394.907 494.278C400.495 494.277 405.572 492.024 409.238 488.358C405.572 492.024 403.319 497.101 403.318 502.689C403.317 513.864 412.388 522.936 423.564 522.935L435.52 522.933L435.519 534.89C435.518 546.065 444.589 555.137 455.765 555.136C466.94 555.134 476.014 546.06 476.015 534.885L476.017 522.868Z" fill="#F38143"/>
<path d="M476.017 522.868L487.974 522.867C499.149 522.865 508.223 513.791 508.224 502.616C508.226 491.44 499.154 482.369 487.979 482.37L476.022 482.371L475.993 470.445C475.994 464.857 473.742 459.78 470.077 456.115C466.412 452.451 461.335 450.198 455.748 450.199C450.16 450.2 445.082 452.453 441.417 456.119C437.751 459.785 435.498 464.862 435.497 470.45L435.495 482.406L423.569 482.438C417.981 482.439 412.903 484.692 409.238 488.358C412.903 484.692 415.157 479.615 415.158 474.027L415.159 462.071L427.116 462.069C432.704 462.068 437.781 459.815 441.447 456.149C445.112 452.483 447.366 447.406 447.367 441.818C447.368 430.643 438.297 421.571 427.121 421.572L415.164 421.574L415.166 409.617C415.167 404.029 412.914 398.953 409.249 395.288C405.585 391.623 400.508 389.371 394.92 389.371C383.744 389.373 374.671 398.447 374.669 409.622L374.668 421.579L362.711 421.58C351.536 421.582 342.462 430.656 342.46 441.831C342.459 453.007 351.531 462.078 362.706 462.077L374.663 462.076L374.661 474.032C374.66 485.208 383.732 494.279 394.907 494.278C400.495 494.277 405.572 492.024 409.238 488.358C405.572 492.024 403.319 497.101 403.318 502.689C403.317 513.864 412.388 522.936 423.564 522.935L435.52 522.933L435.519 534.89C435.518 546.065 444.589 555.137 455.765 555.136C466.94 555.134 476.014 546.06 476.015 534.885L476.017 522.868Z" fill="#E673A9"/>
<path d="M597.684 360.769L597.685 348.812C597.686 337.637 588.615 328.565 577.439 328.566C571.851 328.567 566.774 330.821 563.109 334.486C566.774 330.821 569.028 325.744 569.029 320.156C569.029 314.568 566.777 309.491 563.112 305.826C559.447 302.162 554.371 299.909 548.783 299.91L536.826 299.911L536.828 287.955C536.829 276.779 527.757 267.708 516.582 267.709C505.406 267.71 496.332 276.784 496.331 287.96L496.329 299.916L484.373 299.918C473.197 299.919 464.123 308.993 464.122 320.169C464.121 331.344 473.192 340.416 484.368 340.414L496.324 340.413L496.323 352.37C496.322 363.545 505.393 372.617 516.569 372.615C522.157 372.615 527.234 370.361 530.9 366.695C534.565 363.03 536.819 357.952 536.82 352.365L536.821 340.408L548.838 340.406C554.426 340.406 559.503 338.152 563.169 334.486C559.503 338.152 557.249 343.229 557.249 348.817L557.247 360.774L545.29 360.775C539.703 360.776 534.625 363.03 530.96 366.695C527.294 370.361 525.04 375.438 525.04 381.026C525.038 392.202 534.11 401.273 545.285 401.272L557.242 401.271L557.241 413.227C557.239 424.403 566.311 433.474 577.486 433.473C588.662 433.472 597.736 424.398 597.737 413.222L597.739 401.266L609.695 401.264C620.871 401.263 629.945 392.189 629.946 381.013C629.947 375.425 627.694 370.349 624.03 366.684C620.365 363.019 615.288 360.767 609.7 360.767L597.684 360.769Z" fill="#F38143"/>
<path d="M597.684 360.769L597.685 348.812C597.686 337.637 588.615 328.565 577.439 328.566C571.851 328.567 566.774 330.821 563.109 334.486C566.774 330.821 569.028 325.744 569.029 320.156C569.029 314.568 566.777 309.491 563.112 305.826C559.447 302.162 554.371 299.909 548.783 299.91L536.826 299.911L536.828 287.955C536.829 276.779 527.757 267.708 516.582 267.709C505.406 267.71 496.332 276.784 496.331 287.96L496.329 299.916L484.373 299.918C473.197 299.919 464.123 308.993 464.122 320.169C464.121 331.344 473.192 340.416 484.368 340.414L496.324 340.413L496.323 352.37C496.322 363.545 505.393 372.617 516.569 372.615C522.157 372.615 527.234 370.361 530.9 366.695C534.565 363.03 536.819 357.952 536.82 352.365L536.821 340.408L548.838 340.406C554.426 340.406 559.503 338.152 563.169 334.486C559.503 338.152 557.249 343.229 557.249 348.817L557.247 360.774L545.29 360.775C539.703 360.776 534.625 363.03 530.96 366.695C527.294 370.361 525.04 375.438 525.04 381.026C525.038 392.202 534.11 401.273 545.285 401.272L557.242 401.271L557.241 413.227C557.239 424.403 566.311 433.474 577.486 433.473C588.662 433.472 597.736 424.398 597.737 413.222L597.739 401.266L609.695 401.264C620.871 401.263 629.945 392.189 629.946 381.013C629.947 375.425 627.694 370.349 624.03 366.684C620.365 363.019 615.288 360.767 609.7 360.767L597.684 360.769Z" fill="#F38143"/>
<path d="M557.232 239.134L545.275 239.135C534.1 239.137 525.026 248.211 525.025 259.386C525.023 270.562 534.095 279.633 545.27 279.632L557.227 279.631L557.256 291.557C557.255 297.145 559.507 302.222 563.172 305.886C566.837 309.551 571.914 311.804 577.501 311.803C583.089 311.802 588.167 309.549 591.832 305.883C595.498 302.217 597.752 297.14 597.752 291.552L597.754 279.596L609.68 279.564C615.268 279.563 620.346 277.31 624.011 273.644C620.346 277.31 618.092 282.387 618.091 287.975L618.09 299.931L606.133 299.933C600.545 299.934 595.468 302.187 591.802 305.853C588.137 309.518 585.883 314.596 585.882 320.184C585.881 331.359 594.952 340.431 606.128 340.429L618.085 340.428L618.083 352.385C618.082 357.973 620.335 363.049 624 366.714C627.664 370.379 632.741 372.631 638.329 372.631C649.505 372.629 658.578 363.555 658.58 352.38L658.581 340.423L670.538 340.422C681.714 340.42 690.787 331.346 690.789 320.171C690.79 308.995 681.719 299.924 670.543 299.925L658.586 299.926L658.588 287.97C658.589 276.794 649.517 267.723 638.342 267.724C632.754 267.725 627.677 269.978 624.011 273.644C627.677 269.978 629.93 264.901 629.931 259.313C629.933 248.138 620.861 239.066 609.685 239.067L597.729 239.069L597.73 227.112C597.732 215.937 588.66 206.865 577.484 206.866C566.309 206.868 557.235 215.942 557.234 227.117L557.232 239.134Z" fill="#F38143"/>
<path d="M557.232 239.134L545.275 239.135C534.1 239.137 525.026 248.211 525.025 259.386C525.023 270.562 534.095 279.633 545.27 279.632L557.227 279.631L557.256 291.557C557.255 297.145 559.507 302.222 563.172 305.886C566.837 309.551 571.914 311.804 577.501 311.803C583.089 311.802 588.167 309.549 591.832 305.883C595.498 302.217 597.752 297.14 597.752 291.552L597.754 279.596L609.68 279.564C615.268 279.563 620.346 277.31 624.011 273.644C620.346 277.31 618.092 282.387 618.091 287.975L618.09 299.931L606.133 299.933C600.545 299.934 595.468 302.187 591.802 305.853C588.137 309.518 585.883 314.596 585.882 320.184C585.881 331.359 594.952 340.431 606.128 340.429L618.085 340.428L618.083 352.385C618.082 357.973 620.335 363.049 624 366.714C627.664 370.379 632.741 372.631 638.329 372.631C649.505 372.629 658.578 363.555 658.58 352.38L658.581 340.423L670.538 340.422C681.714 340.42 690.787 331.346 690.789 320.171C690.79 308.995 681.719 299.924 670.543 299.925L658.586 299.926L658.588 287.97C658.589 276.794 649.517 267.723 638.342 267.724C632.754 267.725 627.677 269.978 624.011 273.644C627.677 269.978 629.93 264.901 629.931 259.313C629.933 248.138 620.861 239.066 609.685 239.067L597.729 239.069L597.73 227.112C597.732 215.937 588.66 206.865 577.484 206.866C566.309 206.868 557.235 215.942 557.234 227.117L557.232 239.134Z" fill="#F38143"/>
<path d="M475.898 238.984L475.899 227.027C475.901 215.851 466.829 206.78 455.654 206.781C450.066 206.782 444.988 209.036 441.323 212.701C444.988 209.036 447.242 203.958 447.243 198.371C447.244 192.783 444.991 187.706 441.326 184.041C437.662 180.377 432.585 178.124 426.997 178.125L415.04 178.126L415.042 166.17C415.043 154.994 405.972 145.922 394.796 145.924C383.62 145.925 374.547 154.999 374.545 166.175L374.544 178.131L362.587 178.133C351.411 178.134 342.338 187.208 342.336 198.383C342.335 209.559 351.407 218.631 362.582 218.629L374.539 218.628L374.537 230.585C374.536 241.76 383.608 250.832 394.783 250.83C400.371 250.83 405.448 248.576 409.114 244.91C412.779 241.245 415.033 236.167 415.034 230.58L415.035 218.623L427.052 218.621C432.64 218.621 437.717 216.367 441.383 212.701C437.717 216.367 435.464 221.444 435.463 227.032L435.461 238.989L423.505 238.99C417.917 238.991 412.84 241.245 409.174 244.91C405.508 248.576 403.255 253.653 403.254 259.241C403.253 270.417 412.324 279.488 423.5 279.487L435.456 279.485L435.455 291.442C435.454 302.618 444.525 311.689 455.701 311.688C466.876 311.686 475.95 302.613 475.952 291.437L475.953 279.48L487.91 279.479C499.085 279.478 508.159 270.404 508.161 259.228C508.161 253.64 505.909 248.563 502.244 244.899C498.579 241.234 493.503 238.982 487.915 238.982L475.898 238.984Z" fill="#F38143"/>
<path d="M475.898 238.984L475.899 227.027C475.901 215.851 466.829 206.78 455.654 206.781C450.066 206.782 444.988 209.036 441.323 212.701C444.988 209.036 447.242 203.958 447.243 198.371C447.244 192.783 444.991 187.706 441.326 184.041C437.662 180.377 432.585 178.124 426.997 178.125L415.04 178.126L415.042 166.17C415.043 154.994 405.972 145.922 394.796 145.924C383.62 145.925 374.547 154.999 374.545 166.175L374.544 178.131L362.587 178.133C351.411 178.134 342.338 187.208 342.336 198.383C342.335 209.559 351.407 218.631 362.582 218.629L374.539 218.628L374.537 230.585C374.536 241.76 383.608 250.832 394.783 250.83C400.371 250.83 405.448 248.576 409.114 244.91C412.779 241.245 415.033 236.167 415.034 230.58L415.035 218.623L427.052 218.621C432.64 218.621 437.717 216.367 441.383 212.701C437.717 216.367 435.464 221.444 435.463 227.032L435.461 238.989L423.505 238.99C417.917 238.991 412.84 241.245 409.174 244.91C405.508 248.576 403.255 253.653 403.254 259.241C403.253 270.417 412.324 279.488 423.5 279.487L435.456 279.485L435.455 291.442C435.454 302.618 444.525 311.689 455.701 311.688C466.876 311.686 475.95 302.613 475.952 291.437L475.953 279.48L487.91 279.479C499.085 279.478 508.159 270.404 508.161 259.228C508.161 253.64 505.909 248.563 502.244 244.899C498.579 241.234 493.503 238.982 487.915 238.982L475.898 238.984Z" fill="#E673A9"/>
<path d="M435.446 117.349L423.49 117.35C412.314 117.352 403.24 126.425 403.239 137.601C403.238 148.777 412.309 157.848 423.485 157.847L435.441 157.845L435.47 169.772C435.469 175.36 437.722 180.437 441.386 184.101C445.051 187.766 450.128 190.019 455.716 190.018C461.304 190.017 466.381 187.763 470.047 184.098C473.712 180.432 475.966 175.355 475.967 169.767L475.968 157.81L487.895 157.779C493.483 157.778 498.56 155.524 502.225 151.859C498.56 155.524 496.306 160.602 496.305 166.19L496.304 178.146L484.347 178.148C478.759 178.148 473.682 180.402 470.016 184.068C466.351 187.733 464.097 192.811 464.096 198.399C464.095 209.574 473.167 218.646 484.342 218.644L496.299 218.643L496.297 230.6C496.297 236.187 498.549 241.264 502.214 244.929C505.879 248.594 510.955 250.846 516.543 250.845C527.719 250.844 536.793 241.77 536.794 230.595L536.796 218.638L548.752 218.636C559.928 218.635 569.002 209.561 569.003 198.386C569.004 187.21 559.933 178.138 548.757 178.14L536.801 178.141L536.802 166.185C536.803 155.009 527.732 145.937 516.556 145.939C510.968 145.939 505.891 148.193 502.225 151.859C505.891 148.193 508.145 143.116 508.146 137.528C508.147 126.352 499.075 117.281 487.9 117.282L475.943 117.284L475.944 105.327C475.946 94.1514 466.874 85.0799 455.699 85.0812C444.523 85.0826 435.449 94.1564 435.448 105.332L435.446 117.349Z" fill="#F38143"/>
<path d="M435.446 117.349L423.49 117.35C412.314 117.352 403.24 126.425 403.239 137.601C403.238 148.777 412.309 157.848 423.485 157.847L435.441 157.845L435.47 169.772C435.469 175.36 437.722 180.437 441.386 184.101C445.051 187.766 450.128 190.019 455.716 190.018C461.304 190.017 466.381 187.763 470.047 184.098C473.712 180.432 475.966 175.355 475.967 169.767L475.968 157.81L487.895 157.779C493.483 157.778 498.56 155.524 502.225 151.859C498.56 155.524 496.306 160.602 496.305 166.19L496.304 178.146L484.347 178.148C478.759 178.148 473.682 180.402 470.016 184.068C466.351 187.733 464.097 192.811 464.096 198.399C464.095 209.574 473.167 218.646 484.342 218.644L496.299 218.643L496.297 230.6C496.297 236.187 498.549 241.264 502.214 244.929C505.879 248.594 510.955 250.846 516.543 250.845C527.719 250.844 536.793 241.77 536.794 230.595L536.796 218.638L548.752 218.636C559.928 218.635 569.002 209.561 569.003 198.386C569.004 187.21 559.933 178.138 548.757 178.14L536.801 178.141L536.802 166.185C536.803 155.009 527.732 145.937 516.556 145.939C510.968 145.939 505.891 148.193 502.225 151.859C505.891 148.193 508.145 143.116 508.146 137.528C508.147 126.352 499.075 117.281 487.9 117.282L475.943 117.284L475.944 105.327C475.946 94.1514 466.874 85.0799 455.699 85.0812C444.523 85.0826 435.449 94.1564 435.448 105.332L435.446 117.349Z" fill="#E673A9"/>
<path d="M354.179 604.274L354.181 592.317C354.182 581.141 345.111 572.07 333.935 572.071C328.347 572.072 323.27 574.326 319.604 577.991C323.27 574.326 325.524 569.248 325.524 563.661C325.525 558.073 323.273 552.996 319.608 549.331C315.943 545.667 310.866 543.414 305.279 543.415L293.322 543.416L293.323 531.46C293.325 520.284 284.253 511.212 273.078 511.214C261.902 511.215 252.828 520.289 252.827 531.465L252.825 543.421L240.869 543.423C229.693 543.424 220.619 552.498 220.618 563.674C220.616 574.849 229.688 583.921 240.864 583.919L252.82 583.918L252.819 595.875C252.817 607.05 261.889 616.122 273.065 616.12C278.652 616.12 283.73 613.866 287.395 610.2C291.061 606.535 293.315 601.457 293.315 595.87L293.317 583.913L305.334 583.911C310.921 583.911 315.999 581.657 319.664 577.991C315.999 581.657 313.745 586.734 313.744 592.322L313.743 604.279L301.786 604.28C296.198 604.281 291.121 606.535 287.455 610.2C283.79 613.866 281.536 618.943 281.535 624.531C281.534 635.707 290.606 644.778 301.781 644.777L313.738 644.775L313.736 656.732C313.735 667.908 322.807 676.979 333.982 676.978C345.158 676.977 354.232 667.903 354.233 656.727L354.235 644.77L366.191 644.769C377.367 644.768 386.441 635.694 386.442 624.518C386.443 618.93 384.19 613.854 380.526 610.189C376.861 606.524 371.784 604.272 366.196 604.272L354.179 604.274Z" fill="#F38143"/>
<path d="M354.179 604.274L354.181 592.317C354.182 581.141 345.111 572.07 333.935 572.071C328.347 572.072 323.27 574.326 319.604 577.991C323.27 574.326 325.524 569.248 325.524 563.661C325.525 558.073 323.273 552.996 319.608 549.331C315.943 545.667 310.866 543.414 305.279 543.415L293.322 543.416L293.323 531.46C293.325 520.284 284.253 511.212 273.078 511.214C261.902 511.215 252.828 520.289 252.827 531.465L252.825 543.421L240.869 543.423C229.693 543.424 220.619 552.498 220.618 563.674C220.616 574.849 229.688 583.921 240.864 583.919L252.82 583.918L252.819 595.875C252.817 607.05 261.889 616.122 273.065 616.12C278.652 616.12 283.73 613.866 287.395 610.2C291.061 606.535 293.315 601.457 293.315 595.87L293.317 583.913L305.334 583.911C310.921 583.911 315.999 581.657 319.664 577.991C315.999 581.657 313.745 586.734 313.744 592.322L313.743 604.279L301.786 604.28C296.198 604.281 291.121 606.535 287.455 610.2C283.79 613.866 281.536 618.943 281.535 624.531C281.534 635.707 290.606 644.778 301.781 644.777L313.738 644.775L313.736 656.732C313.735 667.908 322.807 676.979 333.982 676.978C345.158 676.977 354.232 667.903 354.233 656.727L354.235 644.77L366.191 644.769C377.367 644.768 386.441 635.694 386.442 624.518C386.443 618.93 384.19 613.854 380.526 610.189C376.861 606.524 371.784 604.272 366.196 604.272L354.179 604.274Z" fill="#F38143"/>
<path d="M313.728 482.639L301.771 482.64C290.596 482.642 281.522 491.715 281.52 502.891C281.519 514.067 290.591 523.138 301.766 523.137L313.723 523.135L313.751 535.062C313.751 540.65 316.003 545.727 319.668 549.391C323.333 553.056 328.409 555.309 333.997 555.308C339.585 555.307 344.662 553.053 348.328 549.388C351.994 545.722 354.247 540.645 354.248 535.057L354.25 523.1L366.176 523.069C371.764 523.068 376.841 520.814 380.507 517.149C376.841 520.814 374.588 525.892 374.587 531.48L374.585 543.436L362.629 543.438C357.041 543.438 351.964 545.692 348.298 549.358C344.632 553.023 342.379 558.101 342.378 563.689C342.377 574.864 351.448 583.936 362.624 583.934L374.58 583.933L374.579 595.89C374.578 601.477 376.831 606.554 380.495 610.219C384.16 613.884 389.237 616.136 394.825 616.135C406 616.134 415.074 607.06 415.076 595.885L415.077 583.928L427.034 583.926C438.209 583.925 447.283 574.851 447.285 563.676C447.286 552.5 438.214 543.428 427.039 543.43L415.082 543.431L415.084 531.475C415.085 520.299 406.013 511.227 394.838 511.229C389.25 511.23 384.173 513.483 380.507 517.149C384.173 513.483 386.426 508.406 386.427 502.818C386.428 491.642 377.357 482.571 366.181 482.572L354.225 482.574L354.226 470.617C354.227 459.441 345.156 450.37 333.98 450.371C322.805 450.373 313.731 459.446 313.729 470.622L313.728 482.639Z" fill="#F38143"/>
<path d="M313.728 482.639L301.771 482.64C290.596 482.642 281.522 491.715 281.52 502.891C281.519 514.067 290.591 523.138 301.766 523.137L313.723 523.135L313.751 535.062C313.751 540.65 316.003 545.727 319.668 549.391C323.333 553.056 328.409 555.309 333.997 555.308C339.585 555.307 344.662 553.053 348.328 549.388C351.994 545.722 354.247 540.645 354.248 535.057L354.25 523.1L366.176 523.069C371.764 523.068 376.841 520.814 380.507 517.149C376.841 520.814 374.588 525.892 374.587 531.48L374.585 543.436L362.629 543.438C357.041 543.438 351.964 545.692 348.298 549.358C344.632 553.023 342.379 558.101 342.378 563.689C342.377 574.864 351.448 583.936 362.624 583.934L374.58 583.933L374.579 595.89C374.578 601.477 376.831 606.554 380.495 610.219C384.16 613.884 389.237 616.136 394.825 616.135C406 616.134 415.074 607.06 415.076 595.885L415.077 583.928L427.034 583.926C438.209 583.925 447.283 574.851 447.285 563.676C447.286 552.5 438.214 543.428 427.039 543.43L415.082 543.431L415.084 531.475C415.085 520.299 406.013 511.227 394.838 511.229C389.25 511.23 384.173 513.483 380.507 517.149C384.173 513.483 386.426 508.406 386.427 502.818C386.428 491.642 377.357 482.571 366.181 482.572L354.225 482.574L354.226 470.617C354.227 459.441 345.156 450.37 333.98 450.371C322.805 450.373 313.731 459.446 313.729 470.622L313.728 482.639Z" fill="#F38143"/>
<path d="M232.394 482.488L232.395 470.531C232.397 459.355 223.325 450.284 212.149 450.285C206.562 450.286 201.484 452.54 197.819 456.205C201.484 452.54 203.738 447.462 203.739 441.874C203.739 436.287 201.487 431.21 197.822 427.545C194.158 423.881 189.081 421.628 183.493 421.629L171.536 421.63L171.538 409.673C171.539 398.498 162.468 389.426 151.292 389.428C140.116 389.429 131.043 398.503 131.041 409.678L131.04 421.635L119.083 421.637C107.907 421.638 98.8336 430.712 98.8322 441.887C98.8308 453.063 107.902 462.135 119.078 462.133L131.035 462.132L131.033 474.088C131.032 485.264 140.103 494.336 151.279 494.334C156.867 494.334 161.944 492.08 165.61 488.414C169.275 484.749 171.529 479.671 171.53 474.083L171.531 462.127L183.548 462.125C189.136 462.125 194.213 459.871 197.879 456.205C194.213 459.871 191.959 464.948 191.959 470.536L191.957 482.493L180.001 482.494C174.413 482.495 169.335 484.749 165.67 488.414C162.004 492.08 159.75 497.157 159.75 502.745C159.748 513.921 168.82 522.992 179.996 522.991L191.952 522.989L191.951 534.946C191.949 546.122 201.021 555.193 212.197 555.192C223.372 555.19 232.446 546.117 232.447 534.941L232.449 522.984L244.406 522.983C255.581 522.981 264.655 513.908 264.656 502.732C264.657 497.144 262.405 492.067 258.74 488.403C255.075 484.738 249.998 482.486 244.411 482.486L232.394 482.488Z" fill="#F38143"/>
<path d="M232.394 482.488L232.395 470.531C232.397 459.355 223.325 450.284 212.149 450.285C206.562 450.286 201.484 452.54 197.819 456.205C201.484 452.54 203.738 447.462 203.739 441.874C203.739 436.287 201.487 431.21 197.822 427.545C194.158 423.881 189.081 421.628 183.493 421.629L171.536 421.63L171.538 409.673C171.539 398.498 162.468 389.426 151.292 389.428C140.116 389.429 131.043 398.503 131.041 409.678L131.04 421.635L119.083 421.637C107.907 421.638 98.8336 430.712 98.8322 441.887C98.8308 453.063 107.902 462.135 119.078 462.133L131.035 462.132L131.033 474.088C131.032 485.264 140.103 494.336 151.279 494.334C156.867 494.334 161.944 492.08 165.61 488.414C169.275 484.749 171.529 479.671 171.53 474.083L171.531 462.127L183.548 462.125C189.136 462.125 194.213 459.871 197.879 456.205C194.213 459.871 191.959 464.948 191.959 470.536L191.957 482.493L180.001 482.494C174.413 482.495 169.335 484.749 165.67 488.414C162.004 492.08 159.75 497.157 159.75 502.745C159.748 513.921 168.82 522.992 179.996 522.991L191.952 522.989L191.951 534.946C191.949 546.122 201.021 555.193 212.197 555.192C223.372 555.19 232.446 546.117 232.447 534.941L232.449 522.984L244.406 522.983C255.581 522.981 264.655 513.908 264.656 502.732C264.657 497.144 262.405 492.067 258.74 488.403C255.075 484.738 249.998 482.486 244.411 482.486L232.394 482.488Z" fill="#E673A9"/>
<path d="M191.942 360.853L179.986 360.854C168.81 360.856 159.736 369.929 159.735 381.105C159.733 392.281 168.805 401.352 179.981 401.351L191.937 401.349L191.966 413.276C191.965 418.864 194.218 423.941 197.882 427.605C201.547 431.27 206.624 433.522 212.212 433.522C217.799 433.521 222.877 431.267 226.542 427.602C230.208 423.936 232.462 418.859 232.462 413.271L232.464 401.314L244.391 401.283C249.978 401.282 255.056 399.028 258.721 395.363C255.056 399.028 252.802 404.106 252.801 409.693L252.8 421.65L240.843 421.652C235.255 421.652 230.178 423.906 226.512 427.572C222.847 431.237 220.593 436.315 220.592 441.902C220.591 453.078 229.662 462.15 240.838 462.148L252.795 462.147L252.793 474.103C252.793 479.691 255.045 484.768 258.71 488.433C262.375 492.097 267.451 494.35 273.039 494.349C284.215 494.348 293.289 485.274 293.29 474.098L293.291 462.142L305.248 462.14C316.424 462.139 325.498 453.065 325.499 441.889C325.5 430.714 316.429 421.642 305.253 421.644L293.296 421.645L293.298 409.688C293.299 398.513 284.228 389.441 273.052 389.443C267.464 389.443 262.387 391.697 258.721 395.363C262.387 391.697 264.641 386.62 264.641 381.032C264.643 369.856 255.571 360.785 244.396 360.786L232.439 360.788L232.44 348.831C232.442 337.655 223.37 328.584 212.195 328.585C201.019 328.587 191.945 337.66 191.944 348.836L191.942 360.853Z" fill="#F38143"/>
<path d="M191.942 360.853L179.986 360.854C168.81 360.856 159.736 369.929 159.735 381.105C159.733 392.281 168.805 401.352 179.981 401.351L191.937 401.349L191.966 413.276C191.965 418.864 194.218 423.941 197.882 427.605C201.547 431.27 206.624 433.522 212.212 433.522C217.799 433.521 222.877 431.267 226.542 427.602C230.208 423.936 232.462 418.859 232.462 413.271L232.464 401.314L244.391 401.283C249.978 401.282 255.056 399.028 258.721 395.363C255.056 399.028 252.802 404.106 252.801 409.693L252.8 421.65L240.843 421.652C235.255 421.652 230.178 423.906 226.512 427.572C222.847 431.237 220.593 436.315 220.592 441.902C220.591 453.078 229.662 462.15 240.838 462.148L252.795 462.147L252.793 474.103C252.793 479.691 255.045 484.768 258.71 488.433C262.375 492.097 267.451 494.35 273.039 494.349C284.215 494.348 293.289 485.274 293.29 474.098L293.291 462.142L305.248 462.14C316.424 462.139 325.498 453.065 325.499 441.889C325.5 430.714 316.429 421.642 305.253 421.644L293.296 421.645L293.298 409.688C293.299 398.513 284.228 389.441 273.052 389.443C267.464 389.443 262.387 391.697 258.721 395.363C262.387 391.697 264.641 386.62 264.641 381.032C264.643 369.856 255.571 360.785 244.396 360.786L232.439 360.788L232.44 348.831C232.442 337.655 223.37 328.584 212.195 328.585C201.019 328.587 191.945 337.66 191.944 348.836L191.942 360.853Z" fill="#E673A9"/>
</g>
<defs>
<clipPath id="clip0_487_299">
<rect width="500" height="500" rx="250" fill="white"/>
</clipPath>
</defs>
</svg>
