<svg width="500" height="500" viewBox="0 0 500 500" fill="none" xmlns="http://www.w3.org/2000/svg">
<g clip-path="url(#clip0_512_764)">
<path d="M550 -50H-50V550H550V-50Z" fill="white"/>
<path d="M550 -50H-50V550H550V-50Z" fill="#FFA08B"/>
<mask id="mask0_512_764" style="mask-type:luminance" maskUnits="userSpaceOnUse" x="202" y="267" width="53" height="200">
<path d="M202.664 267.619H254.664V466.999H202.664V267.619Z" fill="white"/>
</mask>
<g mask="url(#mask0_512_764)">
<path d="M233.55 294.036C235.79 326.219 236.378 358.641 232.373 390.588C230.483 404.969 227.774 419.708 231.191 433.734C233.316 442.344 237.675 450.24 240.858 458.495C241.92 461.323 242.863 464.151 243.451 467.099C243.571 467.099 243.691 467.099 243.691 467.099C246.988 466.271 250.29 465.568 253.707 465.213C252.884 461.792 251.941 458.495 250.29 455.427C246.045 446.937 238.029 440.219 236.024 431.026C233.316 419.354 240.743 407.802 242.04 395.891C243.337 383.516 238.029 371.49 237.675 358.995C237.441 348.5 240.977 338.245 242.04 327.75C243.691 312.896 240.503 297.927 237.441 283.307C236.613 279.536 235.79 275.646 233.196 272.818C227.654 266.568 217.519 268.573 209.498 271.047C208.675 276.354 206.79 281.422 204.076 286.021C202.311 289.083 204.196 294.505 206.79 296.865C207.259 291.443 208.201 285.901 211.389 281.542C214.571 277.177 220.701 274.583 225.649 276.823C231.779 279.651 233.076 287.432 233.55 294.036Z" fill="#A6A646"/>
</g>
<path d="M356.396 216.11C353.917 211.63 348.729 208.683 343.542 208.802C341.776 208.917 340.005 209.271 338.708 210.453C337.531 211.63 336.943 213.282 336.469 214.933C331.521 234.266 337.885 255.485 330.813 274.115C329.396 278 327.391 281.542 325.979 285.427C321.38 298.042 323.146 311.953 324.328 325.396C325.625 338.834 326.094 353.099 319.375 364.771C317.255 368.422 314.542 371.61 312.891 375.5C311.125 379.391 310.536 383.75 309.943 387.995C308.531 398.37 307.115 408.625 305.703 419C304.995 423.834 304.406 428.667 302.755 433.266C300.396 439.865 296.271 445.641 294.031 452.245C292.734 456.136 292.141 460.026 291.906 464.151C292.141 464.151 292.26 464.151 292.495 464.151C296.031 464.032 299.687 463.917 303.224 463.917C303.458 454.839 304.286 445.761 306.172 436.917C307.469 430.907 309.24 425.011 310.771 419.12C312.656 411.573 314.073 404.026 315.13 396.365C315.839 390.469 316.313 384.573 318.078 378.917C319.495 374.558 321.615 370.427 323.266 366.183C330.104 348.735 329.276 329.401 328.219 310.657C327.865 304.526 327.51 298.282 328.927 292.386C330.813 284.959 335.526 278.24 336.589 270.573C337.177 266.568 336.703 262.443 336.589 258.433C336.234 246.646 339.182 235.089 342.13 223.657C342.839 221.063 343.661 218.235 346.021 217.052C348.375 215.875 352.031 218.349 350.734 220.589L356.396 216.11Z" fill="#A6A646"/>
<path d="M276.582 293.562C272.926 284.604 269.155 275.291 262.316 268.333C260.431 266.333 258.306 264.562 256.775 262.203C254.655 258.906 254.301 254.776 253.707 250.885C250.525 228.604 242.509 207.385 234.493 186.401C230.368 175.557 226.124 164.474 218.108 156.104C213.743 151.505 208.322 147.854 204.551 142.781C198.655 134.765 197.478 124.276 192.993 115.312C188.514 106.354 177.436 98.8071 168.947 104.114C163.759 107.297 161.4 114.37 155.743 116.609C152.795 114.255 152.915 109.302 154.561 105.88C156.212 102.463 159.16 99.8696 162.108 97.3956C165.999 94.2133 170.478 90.7915 175.551 90.9113C180.384 91.1456 184.269 94.4477 187.691 97.8644C199.598 109.89 209.03 124.39 215.04 140.307C216.457 144.078 217.868 148.088 221.056 150.443C223.176 152.094 225.769 152.802 228.009 154.219C233.077 157.281 235.67 162.943 238.15 168.364C246.519 187.344 255.004 206.562 258.191 227.073C259.014 232.26 259.368 237.448 260.9 242.401C263.259 250.536 268.212 257.609 272.217 265.151C276.697 273.76 279.999 282.953 281.884 292.385C279.176 294.271 277.051 290.5 276.582 293.562Z" fill="#A6A646"/>
<path d="M273.046 464.271C275.639 464.271 278.233 464.271 280.827 464.271C280.119 455.307 279.764 446.349 279.41 437.391C278.936 422.656 279.056 407.802 278.936 393.063C278.822 387.995 278.702 382.927 278.936 377.74C277.639 368.188 276.817 358.641 277.525 348.734C278.113 339.542 278.822 330.229 280.587 321.151C282.593 310.656 286.009 300.167 285.54 289.438C285.186 281.891 282.947 274.464 281.061 267.156C274.103 239.688 272.926 211.042 277.525 183.099C278.702 176.146 280.233 169.073 283.77 162.708C286.009 158.818 288.843 155.161 290.843 151.151C296.504 139.479 293.436 126.161 295.327 113.661C295.561 112.13 295.915 110.599 297.093 109.422C298.275 108.24 300.16 107.771 301.926 107.417C310.535 105.646 315.483 102.109 320.317 95.625C311.124 100.578 297.093 97.1563 290.374 104.583C287.546 107.771 287.072 112.01 286.718 116.021C286.009 123.802 285.421 131.583 284.712 139.365C284.244 144.906 283.77 150.563 281.65 155.75C279.999 159.875 277.525 163.651 275.52 167.656C261.728 195.479 275.285 226.958 277.171 257.135C277.759 266.333 277.171 275.526 276.582 284.604C275.4 304.172 274.223 323.745 273.046 343.432C272.337 354.516 271.749 365.594 270.098 376.557C269.389 381.865 268.327 387.052 267.973 392.354C267.384 400.021 268.093 407.682 268.801 415.229L273.046 464.271Z" fill="#A6A646"/>
<mask id="mask1_512_764" style="mask-type:luminance" maskUnits="userSpaceOnUse" x="272" y="186" width="172" height="191">
<path d="M272 186.285H443.714V376.952H272V186.285Z" fill="white"/>
</mask>
<g mask="url(#mask1_512_764)">
<path d="M334.23 214.457C323.267 214.457 312.423 214.343 301.46 214.343C298.038 214.343 294.387 214.343 291.553 216.228C288.96 217.879 287.428 220.588 286.012 223.181C282.949 228.723 279.882 234.265 276.699 239.921C275.048 242.869 273.402 245.937 273.163 249.239C272.809 253.364 274.579 257.369 276.345 261.145C282.241 273.52 288.017 286.02 293.913 298.395C295.798 302.525 297.803 306.65 300.986 309.832C303.699 312.546 307.236 314.312 310.652 316.082C326.215 323.744 342.486 330.228 356.632 340.129C364.173 345.437 371.012 351.567 378.324 357.223C387.163 364.181 396.595 370.312 406.616 375.614C407.324 375.968 408.147 376.442 408.975 376.088C409.684 375.848 410.152 375.145 410.507 374.437C418.642 358.405 426.184 342.015 433.022 325.395C437.033 315.728 440.803 305.942 442.22 295.687C443.277 287.671 442.928 279.416 442.335 271.28C441.038 252.301 438.444 232.614 427.72 216.937C420.762 206.676 410.741 198.895 400.96 191.353C398.6 189.582 396.121 187.697 393.178 187.463C391.053 187.343 389.048 188.051 387.163 188.759C378.793 191.707 370.189 194.77 363.47 200.546C358.986 204.322 355.689 215.754 351.798 217.994C347.553 220.233 339.538 214.457 334.23 214.457Z" fill="#D5CB2C"/>
</g>
<path d="M342.953 239.098L335.76 228.723L292.969 224.832L332.224 235.087L342.953 239.098Z" fill="#308B7B"/>
<path d="M337.41 253.365L314.895 238.865L292.967 231.672L282.473 242.161L285.306 252.656L304.993 248.057L337.41 253.365Z" fill="#308B7B"/>
<path d="M337.176 266.094L312.655 258.906C312.655 258.906 287.546 261.026 288.014 262.089C288.488 263.031 297.212 273.995 297.212 273.995L331.165 268.453L348.848 274.583L337.176 266.094Z" fill="#308B7B"/>
<path d="M348.848 284.484L309.587 280.479L298.27 283.781C303.108 292.15 306.405 298.635 306.405 298.635C306.405 298.635 315.717 298.749 318.197 297.338C320.671 295.921 337.53 288.729 336.941 288.729C336.467 288.729 348.848 284.484 348.848 284.484Z" fill="#308B7B"/>
<path d="M367.003 281.188L336.82 299.104L328.805 308.302C328.805 308.302 333.638 316.672 333.638 315.255C333.638 313.724 336.701 306.417 336.701 306.417C346.721 298.635 367.003 281.188 367.003 281.188Z" fill="#308B7B"/>
<path d="M372.307 292.619L348.615 304.645L345.078 315.609C348.495 322.327 352.266 329.286 352.266 329.286L358.635 308.656L366.885 301.343L372.307 292.619Z" fill="#308B7B"/>
<path d="M375.018 311.01L360.987 329.286C360.398 334.234 371.716 339.307 371.716 339.307C371.716 339.307 370.893 326.218 371.836 325.156C372.779 324.098 379.852 313.843 379.852 313.843L379.971 304.525L375.018 311.01Z" fill="#308B7B"/>
<path d="M385.276 321.973L384.214 324.687L376.672 343.197C380.563 348.145 384.922 350.15 384.922 350.15L385.042 336.005L388.698 315.963L385.276 321.973Z" fill="#308B7B"/>
<path d="M396.945 333.291L388.456 345.906L386.336 357.697C394.586 359.229 396.945 333.291 396.945 333.291Z" fill="#308B7B"/>
<path d="M402.604 345.672L396.594 360.76L399.422 364.182L402.604 345.672Z" fill="#308B7B"/>
<path d="M369.598 223.301C369.598 223.301 373.837 203.025 375.02 203.14C376.082 203.14 390.228 196.301 390.228 196.301C390.228 196.301 397.535 194.301 398.598 194.89C404.608 198.306 404.608 198.306 404.608 198.306L390.108 204.791L378.322 207.27L369.598 223.301Z" fill="#308B7B"/>
<path d="M367.594 235.563L369.953 232.615L384.099 215.401L398.365 209.271L410.385 203.969L421.349 214.813L407.203 219.88L367.594 235.563Z" fill="#308B7B"/>
<path d="M380.797 243.224C383.036 240.396 391.76 227.661 393.057 228.015C394.354 228.369 413.453 224.953 414.984 223.89C416.516 222.828 424.885 224.01 424.885 224.01C424.885 224.01 411.568 229.786 409.682 230.14C407.792 230.494 396.005 233.323 396.005 233.323C396.005 233.323 395.297 240.63 392.823 241.338C390.344 242.047 380.797 243.224 380.797 243.224Z" fill="#308B7B"/>
<path d="M383.625 253.833L386.573 252.656L420.995 238.391L434.672 240.276L413.807 251.948L400.839 251.005L383.625 253.833Z" fill="#308B7B"/>
<path d="M386.453 261.968C387.516 261.26 402.016 258.432 403.786 258.077C405.552 257.723 416.755 257.135 418.167 257.135C419.583 257.135 434.438 254.541 434.438 254.541L438.443 262.557C438.443 262.557 415.219 261.968 414.161 262.322C413.099 262.676 398.714 268.807 397.771 267.63C396.714 266.447 386.453 261.968 386.453 261.968Z" fill="#308B7B"/>
<mask id="mask2_512_764" style="mask-type:luminance" maskUnits="userSpaceOnUse" x="382" y="271" width="62" height="20">
<path d="M382.664 271.619H443.711V290.286H382.664V271.619Z" fill="white"/>
</mask>
<g mask="url(#mask2_512_764)">
<path d="M383.387 272.223L405.079 275.29L430.897 275.645L442.803 279.535C442.803 279.535 437.027 289.79 438.09 290.025C439.147 290.264 427.829 287.905 427.829 287.905L403.548 281.066C403.548 281.066 394.116 278.707 392.345 277.53C390.694 276.353 383.387 272.223 383.387 272.223Z" fill="#308B7B"/>
</g>
<path d="M393.766 285.547C394 285.547 394.589 285.667 395.531 285.781C403.078 287.198 432.198 293.208 432.198 293.208L430.193 302.172C424.651 304.646 422.885 300.521 420.292 298.99C417.698 297.573 405.552 292.854 405.552 292.854L393.766 285.547Z" fill="#308B7B"/>
<path d="M389.047 294.035C390.109 294.389 405.552 299.811 405.552 299.811C405.552 299.811 416.516 304.29 416.516 306.415C416.516 308.535 423.828 312.78 423.828 312.78C427.833 314.665 423.708 322.327 423.708 322.327C423.708 322.327 418.167 319.499 415.693 316.316C413.099 313.014 403.313 302.639 403.313 302.639L389.047 294.035Z" fill="#308B7B"/>
<path d="M393.531 302.641C395.177 303.349 414.161 320.089 414.161 320.089L421.469 329.99C421.469 329.99 418.052 335.651 416.99 336.359C415.813 337.068 393.531 302.641 393.531 302.641Z" fill="#308B7B"/>
<path d="M400.008 322.213C401.544 322.916 411.211 334.588 412.388 336.359C413.565 338.124 413.451 345.791 413.451 345.791L407.789 352.864L408.029 337.536L400.008 322.213Z" fill="#308B7B"/>
<path d="M355.566 225.541C355.921 226.484 358.395 241.104 358.395 242.989C358.395 244.874 360.28 250.062 362.051 253.598C363.113 255.958 364.999 261.734 366.176 265.859C366.764 268.098 367.238 269.749 367.238 270.104C367.238 271.166 369.832 283.072 372.426 285.312C375.02 287.551 380.087 298.635 380.087 298.635C380.087 298.635 389.874 310.421 390.582 311.249C391.285 312.072 396.947 322.093 396.947 322.093C396.947 322.093 396.827 316.317 393.29 311.249C389.754 306.176 388.457 300.281 385.863 296.864C383.27 293.447 382.681 287.551 380.087 285.312C377.493 283.072 375.842 279.536 372.306 274.817C368.77 270.104 365.587 256.312 364.764 253.598C363.822 250.885 360.046 244.051 359.223 241.218C356.983 233.322 355.566 225.541 355.566 225.541Z" fill="#308B7B"/>
<mask id="mask3_512_764" style="mask-type:luminance" maskUnits="userSpaceOnUse" x="56" y="72" width="167" height="215">
<path d="M56.7109 72.9531H222.664V286.286H56.7109V72.9531Z" fill="white"/>
</mask>
<g mask="url(#mask3_512_764)">
<path d="M105.518 74.1719C101.982 87.375 87.7161 94.5677 80.763 106.234C77.7005 111.307 76.1641 117.198 74.6328 122.979C69.4453 142.073 64.2578 161.292 59.0703 180.391C57.8932 184.635 56.7109 188.995 56.7109 193.474C56.7109 198.073 57.7734 202.672 58.9557 207.271C65.0859 233.089 68.8568 259.495 70.1536 286.021C95.0286 279.891 119.904 273.641 144.779 267.51C151.263 265.859 157.982 264.208 163.404 260.083C174.602 251.714 176.841 235.917 184.388 224.125C190.638 214.458 200.419 207.505 206.555 197.719C210.914 190.88 213.154 182.865 215.039 174.969C219.049 157.99 221.289 140.661 221.758 123.214C221.878 120.974 221.878 118.615 221.055 116.495C219.164 111.422 213.508 109.182 208.32 107.531C198.888 104.469 188.633 101.641 179.086 104.469C173.659 106 164.232 114.958 158.924 114.135C151.732 113.193 152.674 104.234 154.326 99.0469C139.237 89.2604 121.435 82.1875 105.518 74.1719Z" fill="#D5CB2C"/>
</g>
<path d="M151.973 131.817C155.743 129.223 173.9 117.317 173.9 117.317L186.16 110.479C186.16 110.479 203.134 113.661 204.905 113.661C206.79 113.661 214.806 115.666 214.806 115.666C208.441 118.968 198.181 118.025 198.181 118.025C198.181 118.025 190.874 116.494 186.749 116.729C182.738 117.083 180.499 118.14 177.551 119.202C174.603 120.265 169.066 124.275 166.827 124.624C164.582 124.979 151.973 131.817 151.973 131.817Z" fill="#308B7B"/>
<path d="M144.781 141.368C145.844 141.368 162.109 137.832 162.109 137.832C162.109 137.832 179.089 133.587 181.682 132.171C184.271 130.754 197.594 129.457 197.594 129.457L206.438 130.639C211.151 134.764 214.333 143.962 214.333 143.962L203.49 143.842L189.458 141.483C189.458 141.483 178.026 139.129 176.255 139.129C174.37 139.129 165.177 141.249 165.177 141.249L144.896 139.129L144.781 141.368Z" fill="#308B7B"/>
<path d="M147.254 154.572C147.962 154.332 161.988 156.223 164.233 154.806C167.53 152.686 185.332 151.035 185.332 151.035L198.181 152.332L203.254 160.816L193.941 168.837L182.978 161.29C182.978 161.29 166.827 157.754 162.697 157.046C158.691 156.223 147.962 154.452 147.962 154.452L147.254 154.572Z" fill="#308B7B"/>
<path d="M147.133 166.004C150.081 166.004 178.023 168.598 178.023 168.598L200.419 171.78C201.836 174.728 198.534 178.03 198.534 178.03C198.534 178.03 189.695 177.561 186.393 176.025C183.211 174.613 147.133 166.004 147.133 166.004Z" fill="#308B7B"/>
<path d="M139.591 120.734C139.591 120.734 137.466 109.068 136.289 107.177C135.112 105.292 134.872 99.047 133.461 97.5105C132.044 95.9793 124.263 92.2084 122.497 91.1459C120.612 89.9688 111.888 82.0678 110.471 81.8334C102.69 80.5366 99.7422 88.672 99.7422 88.672L111.888 93.9741C118.133 97.0418 125.799 104.115 125.799 104.115L133.461 111.542L139.591 120.734Z" fill="#308B7B"/>
<path d="M130.987 128.635L123.32 118.14C123.32 118.14 118.252 114.369 116.013 113.661C107.523 110.952 103.518 109.421 103.518 109.421L97.7368 100.932L86.1847 109.301C85.3618 114.135 94.5545 120.145 97.1483 120.265C99.742 120.499 112.591 120.499 112.591 120.499L119.43 124.864L130.987 128.635Z" fill="#308B7B"/>
<path d="M123.557 134.056L108.469 133.113C108.469 133.113 97.8594 127.103 95.974 126.749C94.0885 126.395 85.9531 125.566 85.9531 125.566C83.0052 127.337 80.0573 130.993 80.0573 130.993C78.1719 136.535 78.1719 136.535 78.1719 136.535L95.5 137.124L108.354 137.947L125.328 139.598C130.75 143.014 123.557 134.056 123.557 134.056Z" fill="#308B7B"/>
<path d="M130.748 145.962C130.748 145.962 110.826 147.145 108.233 145.728C105.639 144.197 85.7171 145.493 85.7171 145.493L79.4671 144.785L75.8108 149.738C75.4567 153.035 90.5504 149.853 90.5504 149.853L106.816 147.499L119.196 147.613L130.748 145.962Z" fill="#308B7B"/>
<path d="M120.727 156.573C120.727 156.573 101.982 154.453 99.0339 154.099C96.0911 153.745 79.4661 156.104 79.4661 156.104L68.737 158.578L67.9141 167.422L77.9349 165.297L89.013 160.817L103.279 158.932L120.727 156.573Z" fill="#308B7B"/>
<path d="M142.301 168.244C143.363 168.244 151.379 175.671 153.618 177.562C155.858 179.447 165.29 189.583 166.353 188.994C167.415 188.406 180.733 189.114 180.733 189.114L187.337 189.229L184.978 201.489L173.66 196.541L161.874 194.182L153.15 180.744C147.02 173.077 142.301 168.244 142.301 168.244Z" fill="#308B7B"/>
<path d="M142.188 181.098L154.917 197.837L162.938 207.504C162.938 207.504 174.016 211.275 173.547 214.103C173.073 216.936 171.542 226.009 171.542 226.009L171.422 234.03C167.651 238.863 167.063 232.259 167.063 232.259C167.063 232.259 162.344 222.592 162.344 221.176C162.344 219.645 157.63 210.452 157.63 210.452C157.63 210.452 152.917 198.546 152.563 197.837C152.208 197.129 146.078 192.65 146.786 190.41C147.49 188.171 142.188 181.098 142.188 181.098Z" fill="#308B7B"/>
<path d="M138.766 192.176C138.766 192.176 139.948 195.124 141.479 198.426C143.01 201.728 145.016 205.145 146.667 206.322C149.969 208.561 153.505 217.285 153.505 217.285L153.031 229.9C153.031 229.9 155.51 238.509 155.859 240.16C156.214 241.811 155.745 248.176 155.745 248.176C149.38 252.421 147.021 252.421 147.021 252.421C147.021 252.421 146.312 236.27 146.432 233.79C146.432 231.316 147.49 220.118 147.49 220.118C147.49 220.118 147.021 213.634 146.786 211.04C146.193 208.447 138.766 192.176 138.766 192.176Z" fill="#308B7B"/>
<path d="M134.526 200.9C134.526 200.9 133.464 207.505 133.109 213.635C132.875 218.468 132.875 222.947 134.172 223.77C137.12 225.661 138.177 235.442 138.177 235.442L135.703 247.822L131.224 256.546C128.984 261.734 122.734 261.26 122.734 261.26L133.344 237.327L134.172 229.666L131.104 199.369L134.526 200.9Z" fill="#308B7B"/>
<path d="M123.209 219.766L122.855 222.005L119.553 245.703L112.714 268.807L106.704 272.578C102.693 271.755 109.766 262.677 110.12 261.146C110.475 259.609 114.245 249.354 114.245 249.354C114.245 249.354 115.542 241.339 115.896 239.688C116.37 237.922 123.209 219.766 123.209 219.766Z" fill="#308B7B"/>
<path d="M120.615 162.822C120.615 162.822 109.058 167.89 108 167.89C106.938 167.89 94.2033 171.192 94.2033 171.192L72.6304 173.671C67.0888 175.083 67.7971 181.687 67.7971 181.687C63.6721 186.755 71.6877 191.354 71.6877 191.354L77.7033 183.807L90.3127 180.036L102.459 176.968L115.427 173.077L120.615 162.822Z" fill="#308B7B"/>
<path d="M115.073 182.629L109.531 183.691L86.776 188.051L77.4635 193.592L66.2656 202.197L67.3281 212.806C67.6823 215.993 83.2396 207.618 83.2396 207.618L85.1302 198.895C91.1406 195.243 115.073 182.629 115.073 182.629Z" fill="#308B7B"/>
<path d="M109.883 198.307C108.82 198.426 90.5495 207.739 90.5495 207.739L82.7682 216.937L77.1068 224.952L70.388 228.958L70.2734 239.218C70.6224 243.812 76.9922 234.854 76.9922 234.854L84.7734 226.718C84.7734 226.718 87.3672 222.239 90.3099 220.473C93.2578 218.702 96.6797 213.4 96.6797 213.4L101.867 205.854L109.883 198.307Z" fill="#308B7B"/>
<path d="M111.537 214.103C111.537 214.103 109.178 216.697 106.35 219.53C103.048 222.947 99.1569 226.603 98.0944 226.837C96.209 227.072 84.6569 239.332 84.6569 239.332L74.6361 247.233L74.5163 260.79C72.985 265.15 74.4017 268.452 74.4017 268.452L82.2975 253.363C82.2975 253.363 86.0736 246.29 87.959 244.405C89.8444 242.514 97.1517 237.921 97.9798 236.978C104.699 229.785 111.537 211.863 111.537 211.863V214.103Z" fill="#308B7B"/>
<path d="M107.172 233.322L95.6198 249.942C95.6198 249.942 93.026 254.661 93.1458 256.192C93.2604 257.723 85.3646 263.499 84.3021 264.208L77.9375 274.817L76.4062 281.067L84.1823 278.947L91.6094 272.343C96.7969 266.921 98.8021 252.89 99.6302 251.833C100.333 250.77 104.109 246.051 104.109 246.051L107.172 233.322Z" fill="#308B7B"/>
<path d="M145.133 120.854C145.133 120.854 142.419 124.275 139.357 128.515C135.581 133.822 131.336 140.541 131.81 143.015C132.633 147.499 132.164 156.338 130.633 159.286C129.096 162.234 123.794 177.322 123.794 177.322C123.794 177.322 120.846 180.27 120.372 184.515C119.904 188.76 114.951 200.9 114.951 200.9C114.951 200.9 115.893 206.676 114.836 208.213C113.773 209.744 113.773 209.744 113.773 209.744L116.836 201.255C116.836 201.255 119.669 193.239 120.258 192.062C127.445 176.614 128.982 172.963 130.513 168.244C132.044 163.411 130.159 163.531 131.576 161.411C136.169 154.333 136.997 152.567 137.352 148.796C137.82 145.02 137.466 143.255 137.82 140.661C138.174 138.067 139.117 135.473 139.471 133.468C139.826 131.463 142.299 124.51 142.299 124.51" fill="#308B7B"/>
<mask id="mask4_512_764" style="mask-type:luminance" maskUnits="userSpaceOnUse" x="278" y="56" width="148" height="119">
<path d="M278.664 56H425.331V174.286H278.664V56Z" fill="white"/>
</mask>
<g mask="url(#mask4_512_764)">
<path d="M303.107 103.406C296.977 108.828 290.841 114.135 284.597 119.557C282.711 121.208 280.706 123.094 279.998 125.568C279.409 127.693 279.878 130.052 280.352 132.292C281.414 137.005 282.357 141.604 283.414 146.318C284.008 148.797 284.477 151.271 286.008 153.276C287.899 155.75 290.841 157.047 293.675 158.344C303.107 162.469 312.654 166.479 322.086 170.604C325.149 171.901 328.331 173.318 331.753 173.432C334.581 173.552 337.529 172.844 340.243 172.135C352.737 168.719 365.118 164.239 377.966 162.823C384.805 162 391.758 162.114 398.597 161.646C406.966 161.172 415.336 159.875 423.586 157.989C424.18 157.87 424.883 157.635 425.123 157.167C425.357 156.693 425.237 155.984 425.123 155.515C421.701 142.427 417.81 129.458 413.451 116.729C410.857 109.302 408.144 101.995 403.784 95.3905C400.362 90.3228 396.123 85.9582 391.758 81.5988C381.618 71.578 370.42 61.7915 356.508 58.3749C347.55 56.1353 337.998 56.7238 328.805 57.3124C326.565 57.4269 324.326 57.6665 322.555 58.9634C321.378 59.9061 320.55 61.3176 319.727 62.6144C316.545 68.3957 313.243 74.4061 312.3 81.0051C311.711 85.2499 315.482 93.3853 314.42 96.6874C313.477 100.104 306.05 100.812 303.107 103.406Z" fill="#D5CB2C"/>
</g>
<path d="M320.316 112.958L311.004 110.713L285.066 129.697L312.181 116.02L320.316 112.958Z" fill="#308B7B"/>
<path d="M324.208 123.682L304.406 126.749L288.49 133.702L287.781 144.666L294.62 149.265L303.344 136.885L324.208 123.682Z" fill="#308B7B"/>
<path d="M330.457 130.993L313.124 139.129C313.124 139.129 300.16 152.801 300.864 153.155C301.572 153.509 311.947 155.28 311.947 155.28L328.332 135.353L341.301 130.051L330.457 130.993Z" fill="#308B7B"/>
<path d="M346.02 135.473L321.967 152.801L317.254 160.348C324.092 162.707 329.275 164.592 329.275 164.592C329.275 164.592 334.582 159.993 335.29 157.988C335.999 155.983 341.889 143.608 341.54 143.842C341.186 144.077 346.02 135.473 346.02 135.473Z" fill="#308B7B"/>
<path d="M354.624 124.625L346.488 149.62L346.608 158.818C346.608 158.818 353.447 161.172 352.738 160.349C352.03 159.521 350.025 153.865 350.025 153.865C351.91 144.552 354.624 124.625 354.624 124.625Z" fill="#308B7B"/>
<path d="M363.346 128.4L356.039 146.906L359.456 154.807C364.643 156.926 370.299 158.932 370.299 158.932L363.701 144.197L364.643 136.062L363.346 128.4Z" fill="#308B7B"/>
<path d="M374.077 137.479L375.254 154.687C377.379 157.755 386.217 154.926 386.217 154.926C386.217 154.926 379.264 147.968 379.264 146.906C379.264 145.848 378.082 136.536 378.082 136.536L373.488 131.229L374.077 137.479Z" fill="#308B7B"/>
<path d="M385.155 138.536L385.863 140.661L390.816 154.807C395.415 155.63 398.952 154.573 398.952 154.573L391.993 146.557L384.098 133.469L385.155 138.536Z" fill="#308B7B"/>
<path d="M397.301 139.01L398.832 150.327L403.551 157.989C408.973 154.807 397.301 139.01 397.301 139.01Z" fill="#308B7B"/>
<path d="M406.734 143.135L410.74 154.687L414.161 155.161L406.734 143.135Z" fill="#308B7B"/>
<path d="M327.39 90.9108C327.39 90.9108 319.729 77.4681 320.437 76.8796C321.025 76.291 325.624 65.4473 325.624 65.4473C325.624 65.4473 328.687 60.7285 329.63 60.4941C334.703 59.4316 334.703 59.4316 334.703 59.4316L329.749 70.2806L324.328 77.4681L327.39 90.9108Z" fill="#308B7B"/>
<path d="M332.342 98.6914L332.223 95.8581L331.52 79.2383L336.587 68.6289L340.592 59.7852L352.15 60.3737L346.842 70.2799L332.342 98.6914Z" fill="#308B7B"/>
<path d="M343.54 96.5664C343.425 93.8581 342.008 82.3008 342.837 81.9518C343.66 81.5977 352.738 70.0404 353.092 68.7435C353.446 67.4466 358.748 63.9102 358.748 63.9102C358.748 63.9102 354.149 73.8164 353.206 74.8737C352.383 75.9362 347.076 83.4831 347.076 83.4831C347.076 83.4831 350.264 87.9622 349.316 89.6133C348.373 91.0247 343.54 96.5664 343.54 96.5664Z" fill="#308B7B"/>
<path d="M350.379 101.046L351.441 98.9264L363.702 73.8171L372.306 68.041L366.41 84.8952L358.634 90.9108L350.379 101.046Z" fill="#308B7B"/>
<path d="M356.039 104.234C356.273 103.286 362.992 94.5677 363.935 93.3854C364.878 92.2083 370.773 86.4323 371.596 85.724C372.424 85.0156 379.378 76.1719 379.378 76.1719L385.628 78.7656C385.628 78.7656 372.305 89.9688 371.836 90.6771C371.362 91.3802 366.409 101.995 365.232 101.875C364.055 101.755 356.039 104.234 356.039 104.234Z" fill="#308B7B"/>
<path d="M359.336 111.421L373.013 102.342L387.633 89.7279L396.237 85.957C396.237 85.957 398.008 94.5664 398.831 94.2122C399.539 93.7383 391.992 98.1029 391.992 98.1029L375.018 106.353C375.018 106.353 368.534 109.655 367.003 109.889C365.586 110.124 359.336 111.421 359.336 111.421Z" fill="#308B7B"/>
<path d="M371.836 113.901C371.951 113.781 372.305 113.547 372.893 113.193C377.966 110.125 397.299 99.0469 397.299 99.0469L400.602 105.057C398.711 109.182 395.648 107.771 393.529 108.24C391.404 108.714 382.211 112.13 382.211 112.13L371.836 113.901Z" fill="#308B7B"/>
<path d="M373.367 120.973C374.19 120.619 385.508 116.02 385.508 116.02C385.508 116.02 393.878 113.072 394.94 114.254C396.003 115.431 402.253 114.254 402.253 114.254C405.435 113.306 406.966 119.676 406.966 119.676C406.966 119.676 402.487 120.853 399.419 120.265C396.357 119.676 385.747 118.734 385.747 118.734L373.367 120.973Z" fill="#308B7B"/>
<path d="M380.207 123.568C381.504 123.094 400.483 123.094 400.483 123.094L409.441 125.099C409.441 125.099 410.384 129.932 410.03 130.875C409.681 131.818 380.207 123.568 380.207 123.568Z" fill="#308B7B"/>
<path d="M393.531 131.229C394.828 130.875 405.906 132.526 407.557 132.995C409.089 133.469 412.865 137.713 412.865 137.713L413.219 144.552L405.672 135.828L393.531 131.229Z" fill="#308B7B"/>
<path d="M320.555 99.0469C321.258 99.401 329.867 106.354 330.81 107.417C331.753 108.474 335.409 110.365 338.117 111.542C339.888 112.25 343.893 114.604 346.607 116.375C348.018 117.318 349.081 118.026 349.315 118.26C349.909 118.849 357.216 124.276 359.81 124.156C362.404 124.036 370.773 127.813 370.773 127.813C370.773 127.813 382.091 129.578 382.914 129.698C383.742 129.813 391.878 132.646 391.878 132.646C391.878 132.646 388.93 129.458 384.451 128.401C379.971 127.219 376.315 124.625 373.133 124.036C370.065 123.448 366.763 120.385 364.169 120.5C361.576 120.5 358.867 119.323 354.622 118.38C350.263 117.438 341.654 111.307 339.888 110.245C337.997 109.182 332.461 107.177 330.57 106.12C325.268 102.698 320.555 99.0469 320.555 99.0469Z" fill="#308B7B"/>
<path d="M249.464 287.786C246.277 296.041 250.876 305.353 250.053 314.192C249.699 318.083 248.282 321.739 246.87 325.395C242.152 337.421 237.438 349.442 232.719 361.468C231.662 364.182 230.6 366.89 228.949 369.249C227.183 371.723 224.824 373.609 222.464 375.614C209.261 386.817 197.001 399.192 186.157 412.635C175.548 399.78 164.818 386.932 154.209 374.083C151.376 370.666 148.548 367.244 147.251 362.999C144.657 354.275 149.49 345.197 150.199 336.004C150.673 328.458 148.193 321.03 148.782 313.603C149.136 308.301 151.022 303.228 153.147 298.395C157.626 288.02 163.167 277.999 169.652 268.687C170.475 267.51 171.417 266.213 172.6 265.39C175.548 263.499 179.433 264.442 182.735 265.624C188.865 267.629 195.35 270.103 199.24 275.291C201.48 278.239 203.011 286.489 206.079 288.14C210.204 290.379 213.272 285.312 214.329 282.01C225.886 282.718 237.907 285.9 249.464 287.786Z" fill="#D5CB2C"/>
<path d="M202.664 300.167C201.716 297.453 196.768 284.135 196.768 284.135L192.992 275.76C192.992 275.76 182.857 270.812 181.914 270.224C180.971 269.63 175.898 267.391 175.898 267.391C177.904 271.521 183.68 275.057 183.68 275.057C183.68 275.057 188.159 277.057 190.164 278.828C192.169 280.594 192.878 282.01 194.055 283.661C195.237 285.313 196.534 289.672 197.591 290.615C198.654 291.563 202.664 300.167 202.664 300.167Z" fill="#308B7B"/>
<path d="M202.78 307.827C202.191 307.359 194.999 299.338 194.999 299.338C194.999 299.338 187.691 290.499 186.863 288.729C186.04 286.963 179.556 281.187 179.556 281.187L174.488 278.354C170.363 278.708 165.176 282.244 165.176 282.244L171.066 286.489L179.322 290.614C179.322 290.614 186.16 293.801 187.217 294.505C188.28 295.213 192.29 299.932 192.29 299.932L203.723 306.65L202.78 307.827Z" fill="#308B7B"/>
<path d="M196.415 313.843C196.181 313.489 188.046 309.005 187.457 307.359C186.514 304.88 177.905 297.218 177.905 297.218L170.598 292.854L164.582 295.333L166.353 303.114L174.957 303.468C174.957 303.468 184.863 307.827 187.217 309.005C189.697 310.187 195.941 313.369 195.941 313.369L196.415 313.843Z" fill="#308B7B"/>
<path d="M192.05 319.974C190.519 318.792 174.842 309.359 174.842 309.359L161.754 302.406C159.868 303.349 160.342 306.417 160.342 306.417C160.342 306.417 165.175 309.599 167.53 310.068C169.889 310.542 192.05 319.974 192.05 319.974Z" fill="#308B7B"/>
<path d="M213.508 299.103C213.508 299.103 219.164 293.801 220.461 293.327C221.758 292.739 224.352 289.556 225.648 289.317C226.945 289.082 232.487 290.145 233.904 290.265C235.315 290.379 242.982 289.556 243.805 290.025C248.404 292.385 246.753 297.806 246.753 297.806L238.383 295.921C233.904 295.098 227.185 295.801 227.185 295.801L220.227 296.744L213.508 299.103Z" fill="#308B7B"/>
<path d="M214.926 306.531L222.941 304.057C222.941 304.057 227.066 304.057 228.483 304.525C233.905 306.416 236.613 307.119 236.613 307.119L242.983 304.88L245.811 313.723C244.395 316.551 237.207 316.197 235.79 315.255C234.374 314.312 227.54 309.359 227.54 309.359L222.233 309.005L214.926 306.531Z" fill="#308B7B"/>
<path d="M216.808 312.307L225.058 317.729C225.058 317.729 232.96 318.676 234.017 319.145C235.079 319.619 239.678 322.327 239.678 322.327C240.501 324.452 240.621 327.515 240.621 327.515C239.444 331.171 239.444 331.171 239.444 331.171L230.126 324.807L223.053 320.322L213.506 314.666C209.496 314.192 216.808 312.307 216.808 312.307Z" fill="#308B7B"/>
<path d="M208.32 315.729C208.32 315.729 218.341 324.098 220.227 324.333C222.112 324.567 232.133 332.937 232.133 332.937L235.669 334.942V339.067C234.612 340.958 227.888 333.411 227.888 333.411L220.227 325.864L213.628 321.15L208.32 315.729Z" fill="#308B7B"/>
<path d="M209.617 325.156C209.617 325.156 220.227 331.286 221.997 332.234C223.648 333.177 231.544 340.839 231.544 340.839L236.263 346.26L233.315 351.214L228.836 346.26L224.706 339.661L217.987 333.177L209.617 325.156Z" fill="#308B7B"/>
<path d="M193.701 322.915C193.112 322.447 186.039 323.27 184.154 323.389C182.268 323.509 173.305 325.275 173.07 324.452C172.716 323.743 165.409 319.025 165.409 319.025L161.872 316.551L158.336 323.858L166.232 325.629L173.305 328.931L183.091 325.275C189.341 323.624 193.701 322.915 193.701 322.915Z" fill="#308B7B"/>
<path d="M188.755 329.754L175.667 333.645L167.771 335.65C167.771 335.65 160.458 333.41 159.635 334.941C158.807 336.592 156.099 342.014 156.099 342.014L153.031 346.259C153.151 350.27 155.979 347.087 155.979 347.087C155.979 347.087 162.109 343.785 162.698 343.077C163.286 342.368 169.302 339.186 169.302 339.186C169.302 339.186 176.375 334.827 176.844 334.473C177.318 334.118 182.271 334.233 182.74 332.822C183.328 331.405 188.755 329.754 188.755 329.754Z" fill="#308B7B"/>
<path d="M186.273 336.828C186.273 336.828 184.508 337.891 182.503 339.068C180.383 340.13 178.023 341.307 176.727 341.193C174.133 341.073 168.826 344.255 168.826 344.255L164.232 351.094C164.232 351.094 159.633 354.63 158.805 355.339C157.982 356.047 155.742 359.583 155.742 359.583C157.393 364.297 158.69 365.125 158.69 365.125C158.69 365.125 165.289 356.87 166.232 355.573C167.174 354.276 170.951 348.031 170.951 348.031C170.951 348.031 173.659 344.729 174.841 343.552C176.018 342.49 186.273 336.828 186.273 336.828Z" fill="#308B7B"/>
<path d="M185.096 343.078C185.096 343.078 183.09 346.969 180.851 350.271C179.2 352.865 177.314 355.219 176.372 355.219C174.132 355.104 169.767 359.818 169.767 359.818L166.231 367.245L165.288 373.495C164.465 377.031 168.002 379.271 168.002 379.271L171.658 362.646L174.132 358.286L187.455 343.552L185.096 343.078Z" fill="#308B7B"/>
<path d="M183.801 357.344L183.092 358.641L175.665 372.432L170.363 387.167L172.009 391.411C174.368 392.594 174.254 385.047 174.603 384.104C174.957 383.161 176.962 376.323 176.962 376.323C176.962 376.323 179.322 371.609 179.79 370.547C180.264 369.604 183.801 357.344 183.801 357.344Z" fill="#308B7B"/>
<path d="M207.143 328.457C207.143 328.457 211.268 335.53 211.857 336.004C212.445 336.473 217.867 343.077 217.867 343.077L228.242 352.743C230.602 355.572 227.654 358.874 227.654 358.874C227.888 363.118 221.878 362.41 221.878 362.41L221.643 356.16L216.456 349.327L211.268 342.957L205.961 335.884L207.143 328.457Z" fill="#308B7B"/>
<path d="M202.426 341.072L204.905 343.786L215.16 354.864L217.868 361.348L220.348 370.192L215.749 375.38C214.332 376.911 209.384 366.536 209.384 366.536L211.738 361.234C210.092 356.989 202.426 341.072 202.426 341.072Z" fill="#308B7B"/>
<path d="M199.129 351.328C199.717 351.802 205.608 363.708 205.608 363.708L206.202 371.49L206.082 377.854L208.087 382.573L204.197 387.995C202.311 390.234 202.426 383.161 202.426 383.161L201.483 375.849C201.483 375.849 201.837 372.552 201.014 370.427C200.072 368.307 200.421 364.182 200.421 364.182L200.66 358.286L199.129 351.328Z" fill="#308B7B"/>
<path d="M192.17 358.875C192.17 358.875 192.404 361.115 192.759 363.708C193.233 366.776 193.821 370.193 194.29 370.667C195.118 371.49 196.535 382.453 196.535 382.453L198.774 390.469L193.587 397.661C192.644 400.609 190.639 401.672 190.639 401.672L192.29 390.703C192.29 390.703 192.993 385.521 192.759 383.87C192.524 382.219 190.404 376.911 190.404 376.089C189.696 369.719 192.993 357.578 192.993 357.578L192.17 358.875Z" fill="#308B7B"/>
<path d="M186.983 370.666L186.629 383.869C186.629 383.869 186.16 387.406 185.566 388.114C184.978 388.817 186.863 394.947 187.103 395.775L186.394 403.791L184.743 407.682L181.561 403.557L180.144 397.187C179.556 392.239 183.92 384.223 183.92 383.275C183.92 382.333 183.801 378.562 183.801 378.562L186.983 370.666Z" fill="#308B7B"/>
<path d="M210.56 296.984C210.56 296.984 210.68 299.813 210.56 303.229C210.44 307.474 210.091 312.661 208.909 313.724C206.789 315.729 203.607 320.563 203.253 322.682C202.899 324.807 199.951 334.828 199.951 334.828C199.951 334.828 200.419 337.536 199.008 339.896C197.591 342.255 195.586 350.625 195.586 350.625C195.586 350.625 192.878 353.333 192.758 354.516C192.643 355.693 192.758 355.693 192.758 355.693L194.409 350.031C194.409 350.031 195.94 344.729 196.18 343.901C198.419 333.057 199.008 330.583 200.07 327.401C201.128 324.333 202.07 325.042 202.19 323.391C202.544 317.849 202.779 316.672 203.961 314.547C205.138 312.427 206.081 311.599 206.904 310.068C207.732 308.536 208.201 306.885 208.794 305.708C209.383 304.526 210.794 299.932 210.794 299.932" fill="#308B7B"/>
</g>
<defs>
<clipPath id="clip0_512_764">
<rect width="500" height="500" rx="250" fill="white"/>
</clipPath>
</defs>
</svg>
