<svg width="197" height="197" viewBox="0 0 197 197" fill="none" xmlns="http://www.w3.org/2000/svg">
<g clip-path="url(#clip0_952_822)">
<path d="M216.7 -19.7H-19.7002V216.7H216.7V-19.7Z" fill="white"/>
<path d="M216.7 -19.7H-19.7002V216.7H216.7V-19.7Z" fill="#C1D8D3"/>
<path d="M101.859 124.064H87.6505V121.12C87.6505 109.472 94.8185 103.456 101.603 98.208C107.363 93.6 112.611 89.248 112.611 81.824C112.611 73.12 107.235 67.36 98.2745 67.36C89.1865 67.36 82.9145 74.144 82.9145 84H66.6585C66.6585 65.696 80.0985 52.768 98.6585 52.768C117.731 52.768 129.251 63.776 129.251 80.8C129.251 94.496 120.419 101.024 112.995 106.272C106.723 110.752 101.859 114.592 101.859 121.12V124.064ZM95.3305 149.664C89.5705 149.664 84.9625 145.056 84.9625 139.552C84.9625 133.92 89.5705 129.312 95.3305 129.312C100.963 129.312 105.699 133.92 105.699 139.552C105.699 144.928 100.963 149.664 95.3305 149.664Z" fill="white"/>
</g>
<defs>
<clipPath id="clip0_952_822">
<rect width="197" height="197" rx="98.5" fill="white"/>
</clipPath>
</defs>
</svg>
