<svg width="500" height="500" viewBox="0 0 500 500" fill="none" xmlns="http://www.w3.org/2000/svg">
<g clip-path="url(#clip0_512_193)">
<path d="M550 -50H-50V550H550V-50Z" fill="white"/>
<path d="M550 -50H-50V550H550V-50Z" fill="#D5CB2C"/>
<path d="M325.163 240.604V249.999H334.559V240.604H325.163ZM315.767 249.999V259.4H325.163V249.999H315.767ZM306.371 240.604V249.999H315.767V240.604H306.371ZM306.371 259.4V268.796H315.767V259.4H306.371ZM296.975 249.999V259.4H306.371V249.999H296.975ZM287.579 259.4V268.796H296.975V259.4H287.579ZM174.829 240.604V249.999H184.225V240.604H174.829ZM165.434 249.999V259.4H174.829V249.999H165.434ZM156.038 240.604V249.999H165.434V240.604H156.038ZM156.038 259.4V268.796H165.434V259.4H156.038ZM146.642 249.999V259.4H156.038V249.999H146.642ZM146.642 259.4V268.796H137.246V259.4H146.642Z" fill="white"/>
<mask id="mask0_512_193" style="mask-type:luminance" maskUnits="userSpaceOnUse" x="71" y="241" width="359" height="56">
<path d="M71 241H429.667V297H71V241Z" fill="white"/>
</mask>
<g mask="url(#mask0_512_193)">
<path d="M419.454 259.786V269.182H428.85V259.786H419.454ZM410.059 250.395V259.786H419.454V250.395H410.059ZM400.668 240.994V250.395H410.059V240.994H400.668ZM391.267 240.994V250.395H400.668V240.994H391.267ZM381.871 240.994V250.395H391.267V240.994H381.871ZM372.475 240.994V250.395H381.871V240.994H372.475ZM363.079 240.994V250.395H372.475V240.994H363.079ZM353.684 240.994V250.395H363.079V240.994H353.684ZM353.684 250.395V259.786H363.079V250.395H353.684ZM344.288 240.994V250.395H353.684V240.994H344.288ZM344.288 250.395V259.786H353.684V250.395H344.288ZM344.288 259.786V269.182H353.684V259.786H344.288ZM334.892 240.994V250.395H344.288V240.994H334.892ZM334.892 250.395V259.786H344.288V250.395H334.892ZM334.892 259.786V269.182H344.288V259.786H334.892ZM334.892 269.182V278.583H344.288V269.182H334.892ZM325.496 240.994V250.395H334.892V240.994H325.496ZM325.496 250.395V259.786H334.892V250.395H325.496ZM325.496 269.182V278.583H334.892V269.182H325.496ZM325.496 278.583V287.979H334.892V278.583H325.496ZM316.1 240.994V250.395H325.496V240.994H316.1ZM316.1 250.395V259.786H325.496V250.395H316.1ZM316.1 259.786V269.182H325.496V259.786H316.1ZM316.1 278.583V287.979H325.496V278.583H316.1ZM316.1 287.979V297.374H325.496V287.979H316.1ZM306.704 240.994V250.395H316.1V240.994H306.704ZM306.704 250.395V259.786H316.1V250.395H306.704ZM306.704 269.182V278.583H316.1V269.182H306.704ZM306.704 287.979V297.374H316.1V287.979H306.704ZM297.309 240.994V250.395H306.704V240.994H297.309ZM297.309 250.395V259.786H306.704V250.395H297.309ZM297.309 259.786V269.182H306.704V259.786H297.309ZM297.309 278.583V287.979H306.704V278.583H297.309ZM297.309 287.979V297.374H306.704V287.979H297.309ZM287.913 240.994V250.395H297.309V240.994H287.913ZM287.913 250.395V259.786H297.309V250.395H287.913ZM287.913 259.786V269.182H297.309V259.786H287.913ZM287.913 269.182V278.583H297.309V269.182H287.913ZM287.913 287.979V297.374H297.309V287.979H287.913ZM278.517 240.994V250.395H287.913V240.994H278.517ZM278.517 250.395V259.786H287.913V250.395H278.517ZM278.517 259.786V269.182H287.913V259.786H278.517ZM278.517 269.182V278.583H287.913V269.182H278.517ZM278.517 278.583V287.979H287.913V278.583H278.517ZM278.517 287.979V297.374H287.913V287.979H278.517ZM269.126 240.994V250.395H278.517V240.994H269.126ZM269.126 250.395V259.786H278.517V250.395H269.126ZM269.126 259.786V269.182H278.517V259.786H269.126ZM269.126 269.182V278.583H278.517V269.182H269.126ZM269.126 278.583V287.979H278.517V278.583H269.126ZM269.126 287.979V297.374H278.517V287.979H269.126ZM259.725 240.994V250.395H269.126V240.994H259.725ZM259.725 250.395V259.786H269.126V250.395H259.725ZM259.725 259.786V269.182H269.126V259.786H259.725ZM259.725 269.182V278.583H269.126V269.182H259.725ZM259.725 278.583V287.979H269.126V278.583H259.725ZM259.725 287.979V297.374H269.126V287.979H259.725ZM250.329 240.994V250.395H259.725V240.994H250.329ZM250.329 250.395V259.786H259.725V250.395H250.329ZM250.329 259.786V269.182H259.725V259.786H250.329ZM250.329 269.182V278.583H259.725V269.182H250.329ZM250.329 278.583V287.979H259.725V278.583H250.329ZM250.329 287.979V297.374H259.725V287.979H250.329ZM240.934 240.994V250.395H250.329V240.994H240.934ZM240.934 250.395V259.786H250.329V250.395H240.934ZM240.934 259.786V269.182H250.329V259.786H240.934ZM240.934 269.182V278.583H250.329V269.182H240.934ZM240.934 278.583V287.979H250.329V278.583H240.934ZM231.538 240.994V250.395H240.934V240.994H231.538ZM231.538 250.395V259.786H240.934V250.395H231.538ZM231.538 259.786V269.182H240.934V259.786H231.538ZM231.538 269.182V278.583H240.934V269.182H231.538ZM222.142 240.994V250.395H231.538V240.994H222.142ZM222.142 250.395V259.786H231.538V250.395H222.142ZM222.142 259.786V269.182H231.538V259.786H222.142ZM212.746 240.994V250.395H222.142V240.994H212.746ZM212.746 250.395V259.786H222.142V250.395H212.746ZM203.35 240.994V250.395H212.746V240.994H203.35ZM203.35 250.395V259.786H212.746V250.395H203.35ZM193.954 240.994V250.395H203.35V240.994H193.954ZM193.954 250.395V259.786H203.35V250.395H193.954ZM193.954 259.786V269.182H203.35V259.786H193.954ZM184.559 240.994V250.395H193.954V240.994H184.559ZM184.559 250.395V259.786H193.954V250.395H184.559ZM184.559 259.786V269.182H193.954V259.786H184.559ZM184.559 269.182V278.583H193.954V269.182H184.559ZM175.163 240.994V250.395H184.559V240.994H175.163ZM175.163 250.395V259.786H184.559V250.395H175.163ZM175.163 269.182V278.583H184.559V269.182H175.163ZM175.163 278.583V287.979H184.559V278.583H175.163ZM165.767 240.994V250.395H175.163V240.994H165.767ZM165.767 250.395V259.786H175.163V250.395H165.767ZM165.767 259.786V269.182H175.163V259.786H165.767ZM165.767 278.583V287.979H175.163V278.583H165.767ZM165.767 287.979V297.374H175.163V287.979H165.767ZM156.371 240.994V250.395H165.767V240.994H156.371ZM156.371 250.395V259.786H165.767V250.395H156.371ZM156.371 269.182V278.583H165.767V269.182H156.371ZM156.371 287.979V297.374H165.767V287.979H156.371ZM146.975 240.994V250.395H156.371V240.994H146.975ZM146.975 250.395V259.786H156.371V250.395H146.975ZM146.975 259.786V269.182H156.371V259.786H146.975ZM146.975 278.583V287.979H156.371V278.583H146.975ZM146.975 287.979V297.374H156.371V287.979H146.975ZM137.579 240.994V250.395H146.975V240.994H137.579ZM137.579 250.395V259.786H146.975V250.395H137.579ZM137.579 259.786V269.182H146.975V259.786H137.579ZM137.579 269.182V278.583H146.975V269.182H137.579ZM137.579 287.979V297.374H146.975V287.979H137.579ZM128.184 240.994V250.395H137.579V240.994H128.184ZM128.184 250.395V259.786H137.579V250.395H128.184ZM128.184 259.786V269.182H137.579V259.786H128.184ZM128.184 269.182V278.583H137.579V269.182H128.184ZM128.184 278.583V287.979H137.579V278.583H128.184ZM128.184 287.979V297.374H137.579V287.979H128.184ZM118.788 240.994V250.395H128.184V240.994H118.788ZM118.788 250.395V259.786H128.184V250.395H118.788ZM118.788 259.786V269.182H128.184V259.786H118.788ZM118.788 269.182V278.583H128.184V269.182H118.788ZM118.788 278.583V287.979H128.184V278.583H118.788ZM118.788 287.979V297.374H128.184V287.979H118.788ZM109.392 240.994V250.395H118.788V240.994H109.392ZM109.392 250.395V259.786H118.788V250.395H109.392ZM109.392 259.786V269.182H118.788V259.786H109.392ZM109.392 269.182V278.583H118.788V269.182H109.392ZM109.392 278.583V287.979H118.788V278.583H109.392ZM109.392 287.979V297.374H118.788V287.979H109.392ZM99.9961 240.994V250.395H109.392V240.994H99.9961ZM99.9961 250.395V259.786H109.392V250.395H99.9961ZM99.9961 259.786V269.182H109.392V259.786H99.9961ZM99.9961 269.182V278.583H109.392V269.182H99.9961ZM99.9961 278.583V287.979H109.392V278.583H99.9961ZM99.9961 287.979V297.374H109.392V287.979H99.9961ZM90.6003 240.994V250.395H99.9961V240.994H90.6003ZM90.6003 250.395V259.786H99.9961V250.395H90.6003ZM90.6003 259.786V269.182H99.9961V259.786H90.6003ZM90.6003 269.182V278.583H99.9961V269.182H90.6003ZM90.6003 278.583V287.979H99.9961V278.583H90.6003ZM81.2044 240.994V250.395H90.6003V240.994H81.2044ZM81.2044 250.395V259.786H90.6003V250.395H81.2044ZM81.2044 259.786V269.182H90.6003V259.786H81.2044ZM81.2044 269.182V278.583H90.6003V269.182H81.2044ZM71.8086 240.994V250.395H81.2044V240.994H71.8086ZM71.8086 250.395V259.786H81.2044V250.395H71.8086ZM81.2044 259.786V269.182H71.8086V259.786H81.2044Z" fill="#054D47"/>
</g>
</g>
<defs>
<clipPath id="clip0_512_193">
<rect width="500" height="500" rx="250" fill="white"/>
</clipPath>
</defs>
</svg>
