<svg width="32" height="32" viewBox="0 0 32 32" fill="none" xmlns="http://www.w3.org/2000/svg">
<g clip-path="url(#clip0_1116_22)">
<path d="M22.8059 9.19409C20.9858 7.41765 18.5433 6.42324 16 6.42324C13.4567 6.42324 11.0142 7.41765 9.1941 9.19409C7.41766 11.0142 6.42325 13.4567 6.42325 16C6.42325 18.5433 7.41766 20.9858 9.1941 22.8059C11.0142 24.5823 13.4567 25.5767 16 25.5767C18.5433 25.5767 20.9858 24.5823 22.8059 22.8059C24.5823 20.9858 25.5767 18.5433 25.5767 16C25.5767 13.4567 24.5823 11.0142 22.8059 9.19409ZM19.403 20.3752L16 16.9723L12.597 20.3752L11.6248 19.4029L15.0277 16L11.6248 12.597L12.597 11.6248L16 15.0277L19.403 11.6248L20.3752 12.597L16.9723 16L20.3752 19.4029L19.403 20.3752Z" fill="#F38143"/>
</g>
<defs>
<clipPath id="clip0_1116_22">
<rect width="22" height="22" fill="white" transform="translate(16 0.443604) rotate(45)"/>
</clipPath>
</defs>
</svg>
